<svg width="279" height="94" viewBox="0 0 279 94" fill="none" xmlns="http://www.w3.org/2000/svg">
<path d="M42.9262 55.5648H0V12.6387H42.9262V55.5648Z" fill="#ED1C24"/>
<path d="M10.4651 33.161H14.8121C16.0521 33.161 17.0691 32.2415 17.0691 31.0015V29.6779C17.0784 29.6593 17.0831 29.6361 17.0831 29.6082C17.3153 29.6082 17.5475 29.6082 17.7797 29.6082V37.6751C17.5428 37.6751 17.3199 37.6891 17.0831 37.6891C17.0831 37.5405 17.0784 37.4011 17.0691 37.2711V36.2819C17.0691 35.028 16.0521 34.1781 14.8121 34.1781H13.6417H12.1091H10.1307V38.7897H10.1447V42.3565C10.1447 42.8581 10.2143 42.9416 10.284 43.0949C10.4512 43.4572 11.6215 43.6383 11.9977 43.6661C13.6835 43.7497 15.4112 43.8333 17.0552 43.4293C17.5846 43.3039 18.1001 43.1228 18.5878 42.8859C20.1204 42.1336 21.235 41.1861 21.43 39.1938H21.8062V44.516H4.04224V44.1677C4.61347 44.1677 6.39684 44.2374 6.78695 43.4711C6.86125 43.3318 6.89841 42.9602 6.89841 42.3565V25.8046C6.89841 25.1823 6.85661 24.7968 6.77301 24.6482C6.73586 24.5553 6.60118 24.4671 6.36897 24.3835C5.74201 24.1327 4.73886 23.9934 4.04224 23.9934V23.6729C15.6619 23.6729 27.277 23.6729 38.8875 23.6729V29.4131V29.5107H38.4556C38.4556 29.4735 38.4509 29.441 38.4417 29.4131C38.1909 27.6716 38.0237 26.4734 36.7976 25.526C35.7805 24.7457 33.816 24.481 32.2974 24.481C31.8887 24.481 31.6658 24.5042 31.6286 24.5507C31.545 24.6064 31.4754 24.6482 31.4754 25.1498V42.3565C31.4754 42.9881 31.5172 43.3875 31.6008 43.5547C31.6379 43.6476 31.7819 43.7404 32.0327 43.8333C32.7293 44.112 34.039 44.1677 34.7913 44.1677V44.516H24.8992V44.1677C25.6376 44.1677 26.9334 44.098 27.63 43.8333C27.8715 43.7404 28.0294 43.6197 28.1037 43.4711C28.1687 43.3318 28.2012 42.9602 28.2012 42.3565V25.1777C28.2012 24.6204 28.1734 24.5646 28.048 24.5089C27.983 24.4903 27.7693 24.481 27.4071 24.481C26.0696 24.481 24.2305 24.7597 23.2691 25.512C22.1684 26.3898 21.8062 28.0617 21.6111 29.4131H21.1792C21.0538 28.5911 20.9842 27.8945 20.8866 27.2954C20.5383 25.2055 19.2147 24.9687 17.2085 24.6621C15.9545 24.481 14.5055 24.4671 13.0984 24.481C12.2067 24.481 11.315 24.5507 10.6323 24.7875C10.4372 24.8572 10.3258 24.9826 10.2561 25.1219C10.1865 25.2752 10.1447 25.4284 10.1447 26.0554V28.4936H10.1307V33.161" fill="white"/>
<path d="M163.148 0.573242V23.7013V33.8163V34.2064V55.8437H158.774V41.939V34.2064V33.468V23.7013V4.65548L163.148 0.573242Z" fill="#1A1A1A"/>
<path d="M169.672 54.3655V55.8424H163.806V34.3723V33.9822V23.9508V1.00391L169.672 5.05828V8.73648L166.578 6.18682C166.495 6.13109 165.979 5.71311 165.91 6.96704C165.854 7.88659 168.195 9.82321 169.672 10.9378V15.3683L166.578 12.8187C166.495 12.749 165.979 12.3311 165.91 13.5989C165.854 14.5185 168.195 16.4551 169.672 17.5697V22.0002L166.578 19.4366C166.495 19.3809 165.979 18.9629 165.91 20.2169C165.854 21.1364 168.195 23.073 169.672 24.1876V28.033L166.578 25.4694C166.495 25.4137 165.979 24.9957 165.91 26.2497C165.854 27.1831 168.195 29.1058 169.672 30.2204V33.6478V34.0658L166.578 31.5162C166.495 31.4465 165.979 31.0285 165.91 32.2825C165.854 33.2159 168.195 35.1386 169.672 36.2532V40.0986L166.578 37.549C166.495 37.4932 165.979 37.0613 165.91 38.3292C165.854 39.2487 168.195 41.1853 169.672 42.2999V46.1314L166.578 43.5817C166.495 43.526 165.979 43.108 165.91 44.362C165.854 45.2815 168.195 47.2181 169.672 48.3327V52.1781L166.578 49.6145C166.495 49.5588 165.979 49.1408 165.91 50.3948C165.854 51.3143 168.195 53.2509 169.672 54.3655Z" fill="#1A1A1A"/>
<path fill-rule="evenodd" clip-rule="evenodd" d="M95.2145 45.6855V47.8172C95.2145 50.3529 94.9777 52.1131 94.5039 53.0977C93.7237 54.7324 92.1911 55.5498 89.9062 55.5498C86.9154 55.5498 84.9462 54.4305 83.9988 52.192C83.2186 50.3901 82.8285 46.9534 82.8285 41.882V40.5166C82.8285 40.0893 82.8517 39.6388 82.8981 39.1651C82.8981 36.8895 82.3641 35.3522 81.2959 34.5534C80.2185 33.7639 78.6766 33.3692 76.6703 33.3692H69.091V50.7013C69.091 51.9923 69.1653 52.8144 69.3139 53.1673C69.4718 53.511 69.7969 53.7804 70.2892 53.9754C70.7815 54.1705 71.7893 54.2866 73.3126 54.3237C74.8451 54.3702 76.4474 54.3934 78.1193 54.3934V54.9646H51.8704V54.3237C56.3845 54.3237 59.0921 54.1519 59.993 53.8082C60.4296 53.641 60.7315 53.3949 60.8987 53.0698C61.0751 52.7447 61.1634 51.9552 61.1634 50.7013V17.4443C61.1634 16.2368 61.0751 15.4798 60.8987 15.1733C60.8151 15.0061 60.5364 14.8342 60.0627 14.6578C58.8181 14.1841 56.0873 13.9472 51.8704 13.9472V13.376H78.2586C82.9028 13.376 86.5996 14.6206 89.3489 17.1099C91.541 19.0976 92.637 21.1457 92.637 23.2542C92.637 25.7527 91.7732 27.7962 90.0455 29.3845C87.9742 31.3257 84.6908 32.5518 80.1952 33.0627C84.7837 33.9636 87.8117 36.5226 89.2792 40.7395C90.0223 42.8387 90.3938 46.0153 90.3938 50.2693C90.3938 51.514 90.5007 52.415 90.7143 52.9723C90.9372 53.5296 91.462 53.8082 92.2887 53.8082C93.1989 53.8082 93.8305 53.0884 94.1835 51.6487C94.5272 50.209 94.699 48.2213 94.699 45.6855H95.2145ZM69.091 32.6586H75.0681C78.1889 32.6586 80.5017 32.0734 82.0065 30.9031C83.8084 29.5191 84.7094 27.1785 84.7094 23.8811C84.7094 20.2494 83.9663 17.6858 82.4802 16.1903C81.0033 14.6949 78.5558 13.9472 75.1377 13.9472H72.0447C71.1437 13.9472 70.4796 14.0122 70.0523 14.1423C69.6251 14.2723 69.3604 14.5417 69.2582 14.9504C69.1467 15.3683 69.091 16.2043 69.091 17.4582V32.6586Z" fill="#1A1A1A"/>
<path fill-rule="evenodd" clip-rule="evenodd" d="M89.9062 55.912C86.7713 55.912 84.6814 54.6998 83.6783 52.3313C82.8702 50.4783 82.4801 47.0509 82.4801 41.8819V40.5165C82.4801 40.0707 82.494 39.6109 82.5498 39.1372C82.5358 37.0194 82.0482 35.5705 81.0729 34.846C80.0837 34.0936 78.5929 33.7174 76.6702 33.7174H69.4532V50.7012C69.4532 52.3313 69.5786 52.8468 69.6482 53.014C69.7597 53.2787 70.0105 53.4738 70.4145 53.641C70.735 53.7664 71.4873 53.9196 73.3264 53.9753C74.8172 54.0171 76.4334 54.0311 78.1192 54.0311H78.4815V55.3268H51.522V53.9753H51.8703C57.4155 53.9753 59.2824 53.6967 59.8676 53.4738C60.2159 53.3345 60.4528 53.1533 60.5921 52.9025C60.6757 52.7493 60.8011 52.2617 60.8011 50.7012V17.4442C60.8011 15.8977 60.6618 15.4658 60.5921 15.3543C60.5782 15.3404 60.4946 15.2011 59.9373 14.9921C58.7391 14.5323 56.0222 14.3094 51.8703 14.3094H51.522V13.0137H78.2586C82.9678 13.0137 86.7853 14.3094 89.5857 16.8591C91.8428 18.8932 92.9992 21.0527 92.9992 23.2541C92.9992 25.8455 92.0796 27.9912 90.2823 29.6491C88.4572 31.3628 85.6846 32.5471 82.0203 33.1741C85.7543 34.3583 88.3039 36.8662 89.6136 40.614C90.3659 42.7457 90.7421 45.992 90.7421 50.2693C90.7421 51.4675 90.8536 52.3313 91.0486 52.8468C91.1044 53.0001 91.2855 53.4598 92.2886 53.4598C92.5533 53.4598 93.3754 53.4598 93.8351 51.565C94.1695 50.1578 94.3506 48.1794 94.3506 45.6855V45.3232H95.5767V47.8172C95.5767 50.4226 95.3259 52.2059 94.8243 53.2509C93.9884 55.0064 92.3304 55.912 89.9062 55.912ZM75.2213 33.0069H76.6702C78.7462 33.0069 80.3763 33.4388 81.5048 34.2747C82.6612 35.1386 83.2603 36.7826 83.2603 39.1651C83.2046 39.6527 83.1907 40.0985 83.1907 40.5165V41.8819C83.1907 46.8837 83.5668 50.3111 84.3331 52.0527C85.2248 54.1704 87.05 55.2014 89.9062 55.2014C92.0657 55.2014 93.459 54.463 94.1834 52.9443C94.4157 52.4521 94.5921 51.7508 94.7129 50.8405C94.6572 51.1563 94.5921 51.4536 94.5178 51.7322C94.1277 53.3484 93.3754 54.1704 92.2886 54.1704C91.0626 54.1704 90.5749 53.5852 90.3938 53.0976C90.1569 52.4985 90.0316 51.565 90.0316 50.2693C90.0316 46.0756 89.6693 42.9129 88.9448 40.8509C87.5237 36.7965 84.5561 34.2887 80.1255 33.4248L77.8963 32.979L80.1534 32.7143C84.5561 32.2127 87.8023 31.0006 89.8086 29.1336C91.4527 27.615 92.2747 25.6366 92.2747 23.2541C92.2747 21.2617 91.2158 19.2833 89.112 17.3746C86.437 14.9503 82.7866 13.7242 78.2586 13.7242H77.4365C79.7772 14.0029 81.5606 14.7552 82.7448 15.9395C84.2774 17.5 85.0576 20.1611 85.0576 23.8811C85.0576 27.2806 84.1102 29.7327 82.2293 31.1817C80.6967 32.3799 78.3282 32.9929 75.2213 33.0069ZM56.0083 54.6162H71.975C71.1251 54.5466 70.526 54.4491 70.1637 54.2958C69.5786 54.0729 69.1885 53.7385 68.9934 53.3066C68.882 53.0558 68.7426 52.5124 68.7426 50.7012V17.4582C68.7426 16.1624 68.7984 15.3125 68.9098 14.8667C69.0491 14.3373 69.4114 13.975 69.9548 13.8078C70.0569 13.78 70.1637 13.7521 70.2752 13.7242H56.4959C58.2236 13.8496 59.4357 14.0447 60.188 14.3233C60.7732 14.5463 61.0937 14.7552 61.2191 15.02C61.3444 15.2429 61.5256 15.7444 61.5256 17.4442V50.7012C61.5256 52.4567 61.3444 52.9861 61.2191 53.2369C61.0101 53.627 60.6339 53.9336 60.1323 54.1425C59.5053 54.3794 58.14 54.5327 56.0083 54.6162ZM69.4532 32.2963H75.068C78.1053 32.2963 80.3624 31.739 81.7835 30.6244C83.4833 29.3147 84.3471 27.0437 84.3471 23.8811C84.3471 20.3561 83.6365 17.8622 82.2293 16.4411C80.8361 15.02 78.4397 14.3094 75.1377 14.3094H72.0446C71.1947 14.3094 70.5539 14.3651 70.1637 14.4905C69.8572 14.5741 69.6761 14.7552 69.6064 15.0478C69.495 15.424 69.4532 16.2321 69.4532 17.4582V32.2963Z" fill="#1A1A1A"/>
<path fill-rule="evenodd" clip-rule="evenodd" d="M89.9083 55.9687C86.7456 55.9687 84.6418 54.7566 83.6247 52.3602C82.8166 50.4933 82.4265 47.0519 82.4265 41.8829V40.5176C82.4265 40.0856 82.4404 39.6119 82.4822 39.1243C82.4822 37.0344 81.9946 35.5994 81.0472 34.8888C80.058 34.1504 78.5811 33.7742 76.6724 33.7742H69.5111V50.7022C69.5111 52.3184 69.6364 52.8339 69.7061 53.0011C69.8036 53.238 70.0544 53.433 70.4445 53.5863C70.751 53.7117 71.5034 53.8649 73.3286 53.9067C74.8193 53.9485 76.4355 53.9764 78.1214 53.9764H78.5393V55.3836H51.4684V53.9067H51.8725C57.4037 53.9067 59.2706 53.642 59.8558 53.4191C60.1902 53.2937 60.4131 53.1126 60.5385 52.8757C60.6082 52.7503 60.7475 52.3045 60.7475 50.7022V17.4453C60.7475 15.8709 60.5942 15.4668 60.5385 15.3832C60.5385 15.3693 60.441 15.2439 59.9255 15.0489C58.7273 14.603 56.0244 14.3662 51.8725 14.3662H51.4684V12.959H78.2607C82.9838 12.959 86.8153 14.2547 89.6296 16.8044C91.9006 18.8664 93.057 21.0259 93.057 23.2551C93.057 25.8605 92.1375 28.0201 90.3263 29.692C88.529 31.3778 85.8121 32.5481 82.2593 33.189C85.8957 34.4151 88.3896 36.8951 89.6714 40.6012C90.4238 42.7328 90.8139 45.993 90.8139 50.2703C90.8139 51.4546 90.9114 52.3184 91.1065 52.82C91.204 53.0708 91.4269 53.3912 92.2908 53.3912C92.5415 53.3912 93.3357 53.3912 93.7815 51.5521C94.1159 50.1449 94.2831 48.1665 94.2831 45.6865V45.2686H95.6346V47.8182C95.6346 50.4375 95.3838 52.2209 94.8822 53.2798C94.0323 55.0631 92.3604 55.9687 89.9083 55.9687ZM80.1137 33.4816C80.6524 33.6767 81.1261 33.9228 81.5348 34.22C82.7191 35.0978 83.3182 36.7697 83.3182 39.1661C83.2625 39.6677 83.2485 40.1135 83.2485 40.5176V41.8829C83.2485 46.8708 83.6247 50.2843 84.3771 52.0398C85.2688 54.1296 87.08 55.1328 89.9083 55.1328C91.7335 55.1328 93.0152 54.6034 93.7815 53.5166C93.3914 53.9903 92.8945 54.2272 92.2908 54.2272C91.0229 54.2272 90.5353 53.6281 90.3402 53.1265C90.0894 52.5135 89.978 51.58 89.978 50.2703C89.978 46.0766 89.6157 42.9279 88.8912 40.8659C87.4562 36.7697 84.6 34.3594 80.1137 33.4816ZM58.0167 54.5616H70.9461C70.6117 54.5058 70.3424 54.4362 70.138 54.3526C69.5389 54.1157 69.1349 53.7674 68.9398 53.3216C68.8284 53.0708 68.6751 52.5135 68.6751 50.7022V17.4592C68.6751 16.1495 68.7448 15.2997 68.8562 14.8538C68.9955 14.3383 69.3299 13.9761 69.8315 13.781H57.8216C58.8805 13.9064 59.6747 14.0736 60.218 14.2686C60.8032 14.4916 61.1376 14.7145 61.2769 14.9931C61.4023 15.2161 61.5834 15.7316 61.5834 17.4453V50.7022C61.5834 52.4717 61.4023 53.015 61.2769 53.2519C61.054 53.6699 60.6778 53.9903 60.1484 54.1993C59.749 54.3479 59.0384 54.4687 58.0167 54.5616ZM77.2436 32.9661C77.3644 32.9661 77.4851 32.9708 77.6059 32.98L77.5083 32.9661L80.1555 32.6596C84.5303 32.158 87.7627 30.9459 89.769 29.0789C91.3991 27.5742 92.2211 25.6237 92.2211 23.2551C92.2211 21.2767 91.1622 19.3122 89.0723 17.4174C86.4112 15.0071 82.7748 13.781 78.2607 13.781H78.2468C80.2112 14.1293 81.7299 14.8399 82.7748 15.8988C84.3353 17.4592 85.1155 20.1482 85.1155 23.8821C85.1155 27.2956 84.1542 29.7756 82.2593 31.2245C81.0751 32.158 79.3892 32.7432 77.2436 32.9661ZM69.5111 32.2416H75.0701C78.0796 32.2416 80.3366 31.6843 81.7578 30.5697C83.4436 29.274 84.2935 27.0309 84.2935 23.8821C84.2935 20.385 83.5829 17.8911 82.1897 16.4839C80.7964 15.0767 78.4279 14.3662 75.1398 14.3662H72.0468C71.1969 14.3662 70.5699 14.4219 70.1798 14.5473C69.8872 14.6309 69.734 14.7841 69.6643 15.0628C69.5946 15.3136 69.5111 15.9405 69.5111 17.4592V32.2416Z" fill="#1A1A1A"/>
<path fill-rule="evenodd" clip-rule="evenodd" d="M89.907 56.317C86.5911 56.317 84.3758 55.0352 83.2891 52.4995C82.467 50.5907 82.063 47.1076 82.063 41.8829V40.5175C82.063 40.0577 82.0909 39.5701 82.1327 39.0964C82.1327 37.1737 81.6868 35.8083 80.8369 35.1813C79.9035 34.4847 78.4963 34.1364 76.6711 34.1364H69.8581V50.7022C69.8581 52.402 69.9974 52.7921 70.0253 52.8478C70.0949 53.0011 70.2761 53.1404 70.5687 53.2519C70.8055 53.3494 71.4743 53.5026 73.3412 53.5584C74.8738 53.6002 76.49 53.628 78.1201 53.628H78.9003V55.7458H51.1049V53.5584H51.8712C57.6393 53.5584 59.2694 53.2658 59.7291 53.0847C59.9799 52.9918 60.1471 52.8664 60.2307 52.7085C60.2307 52.6945 60.3979 52.3602 60.3979 50.7022V17.4452C60.3979 16.052 60.2725 15.6479 60.2446 15.5643C60.2168 15.5643 60.1053 15.4947 59.7988 15.3832C58.6424 14.9374 55.9674 14.7284 51.8712 14.7284H51.1049V12.5967H78.2594C83.0801 12.5967 86.9812 13.9342 89.8652 16.5396C92.2198 18.6713 93.4041 20.9284 93.4041 23.2551C93.4041 25.958 92.4567 28.2151 90.5619 29.9566C88.9317 31.4892 86.5632 32.6038 83.5259 33.3004C86.6468 34.6658 88.8203 37.0901 90.0046 40.4757C90.7708 42.6631 91.161 45.9512 91.161 50.2703C91.161 51.6914 91.3142 52.3741 91.4396 52.6945C91.4814 52.806 91.565 53.0429 92.2895 53.0429C92.4706 53.0429 93.0558 53.0429 93.432 51.4685C93.7663 50.0892 93.9335 48.1386 93.9335 45.6865V44.9202H95.9816V47.8182C95.9816 50.4932 95.7308 52.3323 95.2014 53.433C94.2818 55.3557 92.4985 56.317 89.907 56.317ZM69.1475 33.4258H76.6711C78.6635 33.4258 80.196 33.816 81.2549 34.6101C82.3138 35.3903 82.8432 36.909 82.8432 39.1382C82.8014 39.6258 82.7736 40.0717 82.7736 40.5175V41.8829C82.7736 47.0101 83.1637 50.3957 83.9439 52.2208C84.9052 54.464 86.9115 55.6064 89.907 55.6064C92.2059 55.6064 93.7803 54.7705 94.5605 53.1265C95.0342 52.1233 95.2711 50.3817 95.2711 47.8182V45.6307H94.6441V45.6865C94.6441 48.1943 94.463 50.2006 94.1286 51.6357C93.7803 53.0568 93.1812 53.7534 92.2895 53.7534C91.4814 53.7534 90.9798 53.4887 90.7708 52.9453C90.5619 52.402 90.4504 51.4963 90.4504 50.2703C90.4504 46.0348 90.0742 42.8164 89.3358 40.7126C88.0819 37.1319 85.6715 34.7076 82.1466 33.5234L80.8369 33.0775L82.2023 32.8407C85.6855 32.2137 88.3326 31.0712 90.0881 29.4272C91.8158 27.8389 92.6935 25.7629 92.6935 23.2551C92.6935 21.1373 91.5789 19.0614 89.3915 17.069C86.6329 14.5751 82.885 13.3072 78.2594 13.3072H51.8155V14.0039H51.8712C56.0649 14.0039 58.8096 14.2547 60.0496 14.7144C60.4954 14.8816 60.7601 15.0349 60.8577 15.2021C61.0667 15.5783 61.1085 16.6232 61.1085 17.4452V50.7022C61.1085 51.9283 61.0249 52.7085 60.8577 53.0289C60.6905 53.3494 60.3979 53.5862 59.9799 53.7534C59.0743 54.1017 56.3575 54.2689 51.8712 54.2689H51.8155V55.0352H78.1758V54.3386H78.1201C76.4761 54.3386 74.8599 54.3107 73.3273 54.2689C71.8087 54.2271 70.7916 54.1017 70.3039 53.9206C69.8302 53.7256 69.5237 53.4608 69.3705 53.1404C69.2311 52.806 69.1475 51.984 69.1475 50.7022V33.4258ZM89.907 55.495C86.9115 55.495 85.0028 54.4083 84.0554 52.179C83.2891 50.3957 82.885 46.9265 82.885 41.8829V40.5314C82.885 40.0995 82.9129 39.6537 82.9547 39.1382C82.9547 36.8811 82.4113 35.3207 81.3246 34.5126C80.9484 34.2339 80.5026 33.9971 80.001 33.816L80.196 33.1333C84.7938 34.0389 87.7475 36.5328 89.2243 40.7544C89.9628 42.8442 90.3389 46.0487 90.3389 50.2703C90.3389 51.5381 90.4365 52.4298 90.6594 53.0011C90.8962 53.5862 91.4396 53.8788 92.2895 53.8788C92.7771 53.8788 93.1812 53.6838 93.5156 53.2936L94.0729 53.7256C93.223 54.9238 91.8576 55.495 89.907 55.495ZM82.3138 34.4569C83.2194 35.4739 83.6652 37.0483 83.6652 39.18C83.6234 39.6955 83.6095 40.1274 83.6095 40.5314V41.8829C83.6095 46.8289 83.9718 50.2006 84.7102 51.9004C85.5322 53.837 87.232 54.7844 89.907 54.7844C90.6036 54.7844 91.212 54.7055 91.7322 54.5476C90.6176 54.3804 90.1717 53.6838 90.0046 53.2519C89.7538 52.611 89.6284 51.6217 89.6284 50.2703C89.6284 46.1323 89.2661 43.0114 88.5556 40.9912C87.427 37.7589 85.3789 35.6133 82.3138 34.4569ZM70.9448 54.9238H58.0154L57.9876 54.2132C59.1997 54.1017 59.7709 53.9624 60.0217 53.8649C60.4676 53.6977 60.7741 53.433 60.9552 53.0986C61.1363 52.7642 61.2199 51.9561 61.2199 50.7022V17.4452C61.2199 15.9405 61.0806 15.3832 60.9691 15.1742C60.8577 14.9652 60.579 14.7841 60.0914 14.6169C59.5759 14.4219 58.7957 14.2547 57.7925 14.1432L57.8204 13.4326H71.8087L69.9556 14.1293C69.5562 14.2779 69.3054 14.5472 69.2033 14.9374C69.0918 15.3553 69.0361 16.2052 69.0361 17.4591V50.7022C69.0361 52.0119 69.1197 52.8478 69.2729 53.1822C69.4262 53.5444 69.7606 53.837 70.2621 54.0321C70.4479 54.1064 70.694 54.1668 71.0006 54.2132L70.9448 54.9238ZM60.8855 54.2132H69.1754C68.9246 53.9996 68.7389 53.7534 68.6181 53.4748C68.4788 53.1683 68.3255 52.5831 68.3255 50.7161V17.4731C68.3255 16.1077 68.3812 15.2578 68.5206 14.7702C68.5763 14.538 68.6692 14.329 68.7992 14.1432H60.8159C61.206 14.3383 61.4568 14.5751 61.5961 14.8398C61.7494 15.1185 61.9305 15.6758 61.9305 17.4591V50.7161C61.9305 52.5413 61.7494 53.1265 61.5822 53.433C61.4243 53.7395 61.1921 53.9996 60.8855 54.2132ZM77.5907 33.3422L77.2284 33.3283V33.2726L75.2221 32.8685L77.2145 32.6178C79.2904 32.3948 80.9066 31.8375 82.0491 30.9598C83.8464 29.5665 84.7659 27.1841 84.7659 23.896C84.7659 20.2596 84.0136 17.6542 82.5367 16.1634C81.5336 15.1603 80.0707 14.4776 78.1898 14.1432L78.2455 13.4326C82.8572 13.4326 86.5771 14.6866 89.3079 17.1666C91.4814 19.1311 92.5821 21.1791 92.5821 23.2551C92.5821 25.7351 91.7183 27.7832 90.0046 29.3575C87.9565 31.2802 84.6545 32.5063 80.196 33.0218L77.5907 33.3422ZM81.1713 14.3383C81.8958 14.6912 82.5181 15.1324 83.0383 15.6619C84.6545 17.292 85.4765 20.0645 85.4765 23.896C85.4765 27.4209 84.4594 29.9845 82.481 31.5171C82.2023 31.7307 81.8958 31.9304 81.5614 32.1162C85.1282 31.531 87.8032 30.4303 89.5169 28.8281C91.0774 27.3931 91.8715 25.5122 91.8715 23.2551C91.8715 21.3881 90.8544 19.5072 88.8342 17.696C86.8419 15.8848 84.2643 14.7562 81.1713 14.3383ZM75.0689 32.6038H69.1615V17.4591C69.1615 16.2192 69.2033 15.3832 69.3147 14.9792C69.4262 14.589 69.663 14.3243 70.081 14.2129C70.499 14.0735 71.1538 14.0178 72.0455 14.0178H75.1385C78.5241 14.0178 80.9902 14.7562 82.4531 16.2331C83.9021 17.7099 84.6545 20.2875 84.6545 23.896C84.6545 27.1562 83.7488 29.4969 81.9655 30.8623C80.4886 32.0187 78.1619 32.6038 75.0689 32.6038ZM69.872 31.8933H75.0689C78.0086 31.8933 80.1821 31.3499 81.5336 30.305C83.1358 29.0789 83.93 26.9193 83.93 23.896C83.93 20.4825 83.2612 18.0722 81.9376 16.7347C80.6279 15.3971 78.3291 14.7284 75.1385 14.7284H72.0455C71.0284 14.7284 70.5269 14.812 70.29 14.8816C70.095 14.9513 70.0392 15.021 69.9974 15.1603C69.9556 15.3553 69.872 15.9126 69.872 17.4591V31.8933Z" fill="#1A1A1A"/>
<path fill-rule="evenodd" clip-rule="evenodd" d="M104.436 41.6876C104.436 46.3132 104.984 49.6616 106.08 51.7329C107.176 53.8042 108.843 54.8399 111.082 54.8399C113.45 54.8399 115.536 54.0411 117.338 52.4435C119.53 50.4929 120.626 47.8504 120.626 44.5159H121.141C121.141 47.7482 120.11 50.3954 118.048 52.4574C115.986 54.5194 113.232 55.5505 109.786 55.5505C106.907 55.5505 104.283 54.4544 101.914 52.2624C99.1277 49.6802 97.7345 46.3039 97.7345 42.1334C97.7345 37.6193 99.1091 33.9457 101.858 31.1128C104.264 28.6606 106.972 27.4346 109.981 27.4346C112.777 27.4346 115.099 28.252 116.947 29.8867C119.66 32.2924 121.016 36.226 121.016 41.6876H104.436ZM115.526 40.9073C115.526 36.7369 115.155 33.5556 114.412 31.3636C113.669 29.1715 112.466 28.0755 110.803 28.0755C108.472 28.0755 106.828 29.1158 105.871 31.1964C104.914 33.2862 104.436 36.5232 104.436 40.9073H115.526Z" fill="#1A1A1A"/>
<path fill-rule="evenodd" clip-rule="evenodd" d="M109.787 55.9126C106.833 55.9126 104.102 54.7702 101.678 52.527C98.822 49.8798 97.373 46.3967 97.373 42.1334C97.373 37.5495 98.7941 33.7599 101.608 30.8619C104.075 28.3541 106.889 27.0723 109.982 27.0723C112.852 27.0723 115.276 27.9361 117.185 29.6219C119.958 32.088 121.365 36.1424 121.365 41.6875V42.0358H104.799C104.827 46.4106 105.356 49.6012 106.401 51.5657C107.432 53.5302 108.965 54.4915 111.083 54.4915C113.354 54.4915 115.374 53.7113 117.101 52.1787C119.205 50.3118 120.278 47.7342 120.278 44.5158V44.1675H121.504V44.5158C121.504 47.8318 120.417 50.5904 118.3 52.7082C116.168 54.8259 113.312 55.9126 109.787 55.9126ZM109.815 27.7828C106.986 27.8386 104.395 29.0368 102.11 31.3635C99.435 34.1082 98.0835 37.7446 98.0835 42.1334C98.0835 46.1877 99.4629 49.5037 102.166 51.9976C104.451 54.1153 107.014 55.2021 109.787 55.2021C110.047 55.2021 110.302 55.1928 110.553 55.1742C108.449 55.021 106.833 53.9203 105.774 51.9001C104.646 49.7823 104.088 46.341 104.088 41.6875V41.3253H120.654C120.599 36.1842 119.275 32.4224 116.711 30.1514C115.443 29.0228 113.925 28.2983 112.169 27.9779C113.312 28.4377 114.176 29.5383 114.747 31.252C115.499 33.4673 115.889 36.7275 115.889 40.9073V41.2695H104.088V40.9073C104.088 36.4907 104.576 33.1747 105.551 31.057C106.415 29.1482 107.85 28.0615 109.815 27.7828ZM104.799 40.559H115.179C115.151 36.6161 114.789 33.5648 114.078 31.475C113.381 29.4269 112.323 28.4377 110.818 28.4377C108.603 28.4377 107.098 29.3851 106.192 31.3496C105.287 33.328 104.813 36.421 104.799 40.559Z" fill="#1A1A1A"/>
<path fill-rule="evenodd" clip-rule="evenodd" d="M109.79 55.9684C106.822 55.9684 104.077 54.826 101.639 52.5689C98.7689 49.9217 97.3199 46.4107 97.3199 42.1334C97.3199 37.5357 98.741 33.7321 101.555 30.8202C104.035 28.2984 106.878 27.0166 109.985 27.0166C112.869 27.0166 115.307 27.8804 117.23 29.5663C120.016 32.0462 121.423 36.1285 121.423 41.6876V42.1055H104.857C104.885 46.4246 105.429 49.6013 106.446 51.5379C107.477 53.4884 108.995 54.4219 111.085 54.4219C113.328 54.4219 115.349 53.6556 117.062 52.123C119.152 50.27 120.211 47.7204 120.211 44.5159V44.1118H121.563V44.5159C121.563 47.8458 120.476 50.6183 118.344 52.75C116.212 54.8817 113.328 55.9684 109.79 55.9684ZM109.009 27.8944C106.501 28.1312 104.203 29.3155 102.155 31.3914C99.4934 34.1361 98.1419 37.7586 98.1419 42.1334C98.1419 46.1599 99.5073 49.4759 102.21 51.9559C104.481 54.0736 107.031 55.1325 109.79 55.1325C108.034 54.7981 106.669 53.7114 105.721 51.928C104.593 49.7963 104.021 46.355 104.021 41.6876V40.9073C104.021 36.4907 104.523 33.1609 105.498 31.0292C106.251 29.3712 107.435 28.3263 109.009 27.8944ZM115.948 41.2696H120.601C120.532 36.1703 119.208 32.4503 116.672 30.1932C115.53 29.1761 114.164 28.4795 112.618 28.1312C113.565 28.6792 114.294 29.7149 114.805 31.2382C115.572 33.4534 115.948 36.7136 115.948 40.9073V41.2696ZM104.857 40.5033H115.112C115.098 36.5883 114.722 33.5649 114.025 31.5029C113.342 29.4827 112.297 28.4935 110.821 28.4935C108.633 28.4935 107.142 29.4409 106.251 31.3775C105.359 33.328 104.885 36.3932 104.857 40.5033Z" fill="#1A1A1A"/>
<path fill-rule="evenodd" clip-rule="evenodd" d="M109.788 56.3164C106.723 56.3164 103.895 55.1461 101.401 52.8194C98.4609 50.1025 96.9562 46.5079 96.9562 42.1331C96.9562 37.4378 98.4191 33.5507 101.303 30.5691C103.853 27.9776 106.779 26.668 109.983 26.668C112.965 26.668 115.473 27.5457 117.465 29.3012C120.335 31.8509 121.784 36.0167 121.784 41.6873V42.4535H105.218C105.274 46.5358 105.789 49.5313 106.765 51.3704C107.726 53.1955 109.133 54.0733 111.084 54.0733C113.243 54.0733 115.18 53.3349 116.824 51.858C118.844 50.0746 119.861 47.6086 119.861 44.5156V43.7493H121.909V44.5156C121.909 47.943 120.795 50.7991 118.593 53.0005C116.392 55.2018 113.424 56.3164 109.788 56.3164ZM109.983 27.3785C106.974 27.3785 104.229 28.6185 101.819 31.0707C99.06 33.899 97.6667 37.6329 97.6667 42.1331C97.6667 46.2989 99.0879 49.7263 101.888 52.3039C104.243 54.4913 106.904 55.6059 109.788 55.6059C113.229 55.6059 116.03 54.5609 118.092 52.4989C120.154 50.4369 121.199 47.7479 121.199 44.5156V44.4598H120.572V44.5156C120.572 47.8176 119.471 50.4648 117.298 52.4014C115.514 53.9758 113.424 54.7838 111.084 54.7838C108.855 54.7838 107.238 53.7807 106.138 51.7048C105.079 49.7124 104.535 46.4801 104.494 42.1052V41.743H121.073V41.6873C121.073 36.2257 119.694 32.241 116.991 29.8446C115.389 28.4235 113.424 27.6154 111.112 27.4203L112.7 27.7826C114.302 28.1588 115.723 28.8693 116.908 29.9282C119.527 32.2549 120.878 36.0724 120.948 41.2693L120.962 41.6315H115.598V40.907C115.598 36.7551 115.222 33.5367 114.469 31.3493C113.996 29.9282 113.313 28.939 112.435 28.4374L110.652 27.3925C110.429 27.3832 110.206 27.3785 109.983 27.3785ZM116.308 40.921H120.237C120.112 36.1142 118.844 32.5893 116.448 30.4576C115.733 29.826 114.934 29.3245 114.051 28.9529C114.483 29.5381 114.859 30.2626 115.138 31.1264C115.918 33.3835 116.308 36.6715 116.308 40.907V40.921ZM109.802 55.5083C106.946 55.5083 104.313 54.3937 101.972 52.2342C99.1993 49.6706 97.7921 46.285 97.7921 42.147C97.7921 37.6747 99.1715 33.9686 101.902 31.1543C104.006 29.0086 106.389 27.7965 108.966 27.5457L109.091 28.2424C107.628 28.6464 106.528 29.6356 105.817 31.1821C104.87 33.272 104.382 36.5462 104.382 40.921V41.7012C104.382 46.3129 104.94 49.6985 106.04 51.7744C106.918 53.4603 108.214 54.4773 109.858 54.7978L109.802 55.5083ZM106.653 28.8136C105.149 29.3709 103.727 30.3322 102.418 31.6558C99.8263 34.3309 98.5166 37.8697 98.5166 42.147C98.5166 46.076 99.8402 49.2944 102.46 51.7048C103.992 53.1398 105.664 54.0733 107.433 54.5052C106.625 53.9293 105.952 53.1305 105.413 52.1088C104.271 49.9353 103.686 46.4383 103.686 41.7012V40.921C103.686 36.4486 104.187 33.0769 105.176 30.8895C105.566 30.0536 106.059 29.3616 106.653 28.8136ZM115.486 40.8652H104.508V40.503C104.549 36.3511 105.023 33.2441 105.943 31.2379C106.89 29.1619 108.492 28.1448 110.833 28.1448C112.477 28.1448 113.633 29.2176 114.372 31.405C115.082 33.5089 115.459 36.574 115.486 40.503V40.8652ZM105.218 40.1547H114.762C114.72 36.4626 114.372 33.5925 113.703 31.628C113.062 29.7471 112.143 28.8693 110.819 28.8693C108.771 28.8693 107.42 29.7192 106.584 31.5444C105.734 33.3974 105.274 36.2954 105.218 40.1547Z" fill="#1A1A1A"/>
<path fill-rule="evenodd" clip-rule="evenodd" d="M140.943 36.2408V32.479C140.943 30.7514 140.669 29.5857 140.121 28.982C139.573 28.3782 138.393 28.0764 136.582 28.0764C135.096 28.0764 133.795 28.3596 132.681 28.9262C131.566 29.5021 130.837 30.2731 130.493 31.239C130.67 31.1926 130.884 31.1694 131.134 31.1694C131.952 31.1694 132.62 31.4945 133.141 32.1447C133.661 32.7856 133.921 33.5147 133.921 34.3321C133.921 35.2795 133.591 36.0551 132.932 36.6588C132.281 37.2625 131.524 37.5644 130.661 37.5644C130.094 37.5551 129.592 37.4019 129.156 37.1046C127.902 36.2873 127.275 35.2563 127.275 34.0116C127.275 33.4079 127.4 32.7205 127.651 31.9496C128.255 30.2684 129.76 29.0423 132.165 28.2714C133.893 27.7141 135.635 27.4355 137.39 27.4355C140.576 27.4355 142.986 28.0346 144.621 29.2328C146.079 30.3102 146.808 31.6617 146.808 33.2871V47.5123C146.818 50.0851 146.883 51.6688 147.004 52.2632C147.31 53.7308 148.086 54.4599 149.33 54.4507C150.445 54.4507 151.197 53.8748 151.587 52.723C151.977 51.5713 152.172 49.904 152.172 47.7212C152.172 47.1268 152.159 46.5277 152.131 45.9239C152.112 45.3295 152.103 44.7118 152.103 44.0709V43.4857H152.883V46.328C152.883 47.229 152.902 48.0881 152.939 48.9055C152.939 51.4041 152.637 53.0806 152.033 53.9352C151.253 55.0126 149.674 55.5513 147.296 55.5513C145.438 55.5513 144.054 55.2309 143.144 54.59C142.067 53.8283 141.356 52.528 141.013 50.6889C140.102 52.7788 138.746 54.1859 136.944 54.9104C135.867 55.3377 134.427 55.5513 132.625 55.5513C130.814 55.5513 129.244 55.1194 127.916 54.2556C126.068 53.0946 125.143 51.3298 125.143 48.9612C125.143 46.6391 126.044 44.6793 127.846 43.0817C129.639 41.5398 131.822 40.6574 134.395 40.4345C136.958 40.2209 138.69 39.8772 139.591 39.4035C140.492 38.9298 140.943 37.8756 140.943 36.2408ZM140.748 47.9163V39.2921C140.237 39.9794 139.475 40.3974 138.463 40.546C137.45 40.7039 136.47 40.8479 135.523 40.9779C134.278 41.2751 133.289 41.9671 132.555 43.0538C131.701 44.3449 131.274 46.1562 131.274 48.4875C131.274 50.9954 131.52 52.6952 132.012 53.5868C132.504 54.4692 133.289 54.9104 134.367 54.9104C136.001 54.9104 137.474 54.2277 138.783 52.8623C140.093 51.5062 140.748 49.8576 140.748 47.9163Z" fill="#1A1A1A"/>
<path fill-rule="evenodd" clip-rule="evenodd" d="M147.297 55.9135C145.374 55.9135 143.911 55.5652 142.95 54.8825C142.002 54.2137 141.306 53.1549 140.902 51.7477C139.968 53.4196 138.686 54.6039 137.084 55.2448C135.969 55.6906 134.465 55.9135 132.626 55.9135C130.759 55.9135 129.115 55.4537 127.721 54.5621C125.771 53.336 124.782 51.4551 124.782 48.9612C124.782 46.5508 125.729 44.4749 127.61 42.8169C129.449 41.2286 131.734 40.3091 134.367 40.0861C136.875 39.8772 138.575 39.5428 139.425 39.0969C140.205 38.6929 140.595 37.7315 140.595 36.2408V32.479C140.595 30.8628 140.344 29.7621 139.857 29.2188C139.536 28.8705 138.7 28.4385 136.583 28.4385C135.161 28.4385 133.907 28.7033 132.849 29.2466C132.027 29.6646 131.441 30.1801 131.079 30.821C131.098 30.821 131.121 30.821 131.149 30.821C132.068 30.821 132.835 31.1833 133.42 31.9217C133.991 32.6183 134.27 33.4403 134.27 34.332C134.27 35.3769 133.907 36.2408 133.183 36.9095C132.458 37.5783 131.623 37.9127 130.661 37.9127C130.02 37.9127 129.449 37.7455 128.961 37.3972C127.61 36.5194 126.913 35.3769 126.913 34.0116C126.913 33.3707 127.053 32.6601 127.317 31.8381C127.958 30.0547 129.561 28.7451 132.068 27.937C133.81 27.3657 135.607 27.0732 137.405 27.0732C140.637 27.0732 143.145 27.714 144.831 28.9401C146.377 30.0826 147.171 31.5455 147.171 33.2871V47.5122C147.171 50.6609 147.269 51.8034 147.352 52.1935C147.617 53.4892 148.258 54.1023 149.331 54.1023C150.292 54.1023 150.919 53.6146 151.253 52.6115C151.63 51.5108 151.811 49.8668 151.811 47.7212C151.811 47.1267 151.801 46.5323 151.783 45.9378C151.764 45.3341 151.755 44.7118 151.755 44.0709V43.1374H153.232V46.3279C153.232 47.1917 153.26 48.0556 153.302 48.8915C153.302 51.4969 152.981 53.2106 152.326 54.1441C151.476 55.3144 149.791 55.9135 147.297 55.9135ZM141.138 49.4906L141.361 50.6331C141.682 52.3607 142.351 53.6007 143.354 54.3113C144.204 54.8964 145.527 55.203 147.297 55.203C149.54 55.203 151.044 54.7014 151.755 53.74C152.298 52.9459 152.591 51.3158 152.591 48.9054C152.549 48.0834 152.521 47.2057 152.521 46.3279V43.8479H152.466V44.0709C152.466 44.7025 152.475 45.3155 152.493 45.91C152.512 46.5137 152.521 47.1174 152.521 47.7212C152.521 49.9643 152.326 51.6362 151.922 52.8344C151.49 54.1301 150.599 54.8128 149.331 54.8128C148.342 54.8128 147.074 54.3809 146.656 52.3328C146.53 51.7059 146.461 50.1315 146.461 47.5122V33.2871C146.461 31.7684 145.792 30.5284 144.413 29.5253C142.95 28.4385 140.79 27.8673 137.99 27.7976C139.132 27.923 139.926 28.2435 140.386 28.7451C140.999 29.4278 141.306 30.6538 141.306 32.479V36.2408C141.306 37.1696 141.162 37.9312 140.874 38.5257L141.111 38.2192V47.9162C141.111 49.0448 140.888 50.0758 140.47 51.0232C140.544 50.8746 140.614 50.7167 140.679 50.5495L141.138 49.4906ZM135.05 40.741C134.846 40.7596 134.637 40.7781 134.423 40.7967C131.943 41.0057 129.797 41.8695 128.07 43.3603C126.37 44.8789 125.492 46.7598 125.492 48.9751C125.492 51.2322 126.356 52.8623 128.112 53.963C129.379 54.785 130.898 55.203 132.626 55.203C132.951 55.203 133.262 55.1937 133.559 55.1751C132.751 54.994 132.124 54.5203 131.706 53.754C131.177 52.8066 130.912 51.0929 130.912 48.5014C130.912 46.105 131.372 44.2102 132.263 42.8587C132.96 41.8138 133.894 41.1172 135.05 40.741ZM140.4 40.1558C139.889 40.5459 139.262 40.7967 138.519 40.9082C137.507 41.0568 136.527 41.1961 135.579 41.3261C134.437 41.6048 133.545 42.2318 132.849 43.2488C132.041 44.4749 131.623 46.2443 131.623 48.5014C131.623 50.9257 131.859 52.5836 132.319 53.4057C132.751 54.1859 133.42 54.5621 134.367 54.5621C135.9 54.5621 137.293 53.9072 138.533 52.6254C139.773 51.3436 140.4 49.7553 140.4 47.9162V40.1558ZM139.857 39.6682C139.829 39.6867 139.796 39.7053 139.759 39.7239C139.434 39.9004 139.007 40.0583 138.477 40.1976C139.025 40.1047 139.485 39.9282 139.857 39.6682ZM133.03 28.3828C132.779 28.4571 132.528 28.5314 132.277 28.6057C129.992 29.3442 128.557 30.5145 128 32.0749C127.749 32.7994 127.624 33.4543 127.624 34.0116C127.624 35.1401 128.195 36.0596 129.352 36.812C129.732 37.0721 130.169 37.2021 130.661 37.2021C131.441 37.2021 132.11 36.9374 132.695 36.394C133.281 35.8646 133.559 35.1819 133.559 34.332C133.559 33.6075 133.322 32.9388 132.863 32.3675C132.417 31.7963 131.859 31.5316 131.149 31.5316C130.917 31.5316 130.731 31.5501 130.592 31.5873L129.937 31.7545L130.16 31.1136C130.536 30.0687 131.33 29.2327 132.528 28.6197C132.686 28.5361 132.853 28.4571 133.03 28.3828Z" fill="#1A1A1A"/>
<path fill-rule="evenodd" clip-rule="evenodd" d="M147.294 55.9694C145.357 55.9694 143.88 55.6211 142.905 54.9384C141.985 54.2696 141.303 53.2526 140.871 51.8872C139.951 53.5173 138.683 54.6598 137.095 55.3007C135.981 55.7465 134.476 55.9694 132.623 55.9694C130.742 55.9694 129.084 55.5096 127.691 54.604C125.726 53.378 124.723 51.4692 124.723 48.9613C124.723 46.5231 125.684 44.4472 127.565 42.7753C129.418 41.1731 131.703 40.2535 134.35 40.0306C136.858 39.8216 138.558 39.4872 139.394 39.0414C140.146 38.6513 140.523 37.7038 140.523 36.2409V32.4791C140.523 30.4729 140.132 29.623 139.812 29.2607C139.492 28.9124 138.67 28.4944 136.58 28.4944C135.172 28.4944 133.919 28.7592 132.874 29.3025C132.107 29.6926 131.55 30.1803 131.174 30.7654C132.107 30.7654 132.874 31.1416 133.459 31.88C134.03 32.6045 134.323 33.4266 134.323 34.3322C134.323 35.391 133.946 36.2827 133.208 36.9654C132.483 37.6342 131.634 37.9686 130.658 37.9686C130.004 37.9686 129.418 37.8014 128.917 37.4531C127.551 36.5614 126.855 35.405 126.855 34.0117C126.855 33.3569 126.98 32.6463 127.259 31.8243C127.914 30.0131 129.516 28.6895 132.038 27.8675C133.793 27.3102 135.604 27.0176 137.388 27.0176C140.648 27.0176 143.156 27.6585 144.87 28.8985C146.43 30.0549 147.224 31.5317 147.224 33.2872V47.5124C147.224 50.6611 147.322 51.7897 147.405 52.1798C147.754 53.8517 148.673 54.0467 149.328 54.0467C150.275 54.0467 150.861 53.5869 151.195 52.5977C151.557 51.4971 151.752 49.853 151.752 47.7213C151.752 47.1269 151.743 46.5324 151.724 45.938C151.696 45.3342 151.683 44.7119 151.683 44.071V43.0818H153.285V46.3281C153.285 47.2291 153.308 48.0836 153.354 48.8917C153.354 51.511 153.034 53.2386 152.379 54.186C151.501 55.3703 149.802 55.9694 147.294 55.9694ZM141.163 49.2957L141.414 50.6193C141.735 52.333 142.403 53.5591 143.393 54.2557C144.215 54.8409 145.538 55.1335 147.294 55.1335C148.367 55.1335 149.258 55.022 149.983 54.7991C149.778 54.8455 149.56 54.8687 149.328 54.8687C148.325 54.8687 147.029 54.4368 146.597 52.347C146.458 51.72 146.402 50.1317 146.402 47.5124V33.2872C146.402 31.7825 145.733 30.5704 144.368 29.5672C143.086 28.6198 141.247 28.0625 138.906 27.8953C139.584 28.0625 140.091 28.3319 140.425 28.7034C141.052 29.4001 141.359 30.64 141.359 32.4791V36.2409C141.359 36.9747 141.27 37.6063 141.094 38.1358L141.163 38.0382V47.9164C141.163 48.5666 141.089 49.1936 140.941 49.7973L141.163 49.2957ZM134.601 40.8387C134.546 40.848 134.485 40.8526 134.42 40.8526C131.954 41.0616 129.836 41.9254 128.109 43.4023C126.395 44.9348 125.559 46.7461 125.559 48.9753C125.559 51.2045 126.395 52.8207 128.137 53.9074C129.404 54.7294 130.909 55.1474 132.623 55.1474C132.818 55.1474 133.008 55.1427 133.194 55.1335C132.535 54.9012 132.019 54.4508 131.648 53.782C131.118 52.8207 130.853 51.093 130.853 48.4876C130.853 46.0912 131.313 44.1825 132.219 42.8171C132.832 41.9115 133.64 41.2427 134.601 40.8387ZM140.341 40.2674C139.84 40.6297 139.227 40.8665 138.53 40.9641C137.518 41.122 136.533 41.2613 135.577 41.382C134.476 41.6607 133.584 42.2877 132.901 43.2769C132.093 44.5029 131.689 46.2584 131.689 48.4876C131.689 50.9119 131.912 52.5699 132.372 53.378C132.79 54.1303 133.445 54.4926 134.364 54.4926C135.897 54.4926 137.248 53.8656 138.488 52.5838C139.714 51.3159 140.341 49.7416 140.341 47.9164V40.2674ZM152.518 49.8252C152.421 51.0652 152.24 52.0544 151.975 52.8485C151.752 53.5312 151.39 54.0467 150.93 54.395C151.246 54.2 151.501 53.9678 151.696 53.6984C152.17 53.0157 152.449 51.72 152.518 49.8252ZM132.33 28.6477C132.321 28.6477 132.312 28.6523 132.302 28.6616C130.031 29.3861 128.596 30.5425 128.053 32.089C127.802 32.7996 127.691 33.4544 127.691 34.0117C127.691 35.1124 128.248 36.018 129.39 36.7564C129.762 37.0165 130.185 37.1465 130.658 37.1465C131.425 37.1465 132.079 36.8818 132.651 36.3385C133.222 35.823 133.501 35.1542 133.501 34.3322C133.501 33.6077 133.278 32.9668 132.818 32.3956C132.386 31.8522 131.829 31.5875 131.146 31.5875C130.914 31.5875 130.733 31.6014 130.603 31.6293L129.85 31.8243L130.101 31.0998C130.463 30.0827 131.216 29.2607 132.33 28.6477Z" fill="#1A1A1A"/>
<path fill-rule="evenodd" clip-rule="evenodd" d="M147.295 56.3173C145.289 56.3173 143.742 55.9551 142.711 55.2306C141.889 54.6454 141.234 53.7955 140.788 52.7088C139.869 54.0742 138.671 55.0494 137.236 55.6346C136.065 56.0944 134.519 56.3173 132.624 56.3173C130.673 56.3173 128.946 55.8436 127.497 54.9101C125.421 53.6005 124.376 51.6081 124.376 48.9609C124.376 46.4252 125.365 44.2517 127.33 42.5102C129.252 40.8522 131.607 39.9048 134.324 39.6679C137.389 39.4171 138.685 39.0131 139.228 38.7205C139.855 38.4001 140.175 37.5641 140.175 36.2405V32.4787C140.175 30.4864 139.785 29.7619 139.548 29.4972C139.367 29.3021 138.726 28.8423 136.581 28.8423C135.229 28.8423 134.031 29.107 133.028 29.6226C132.54 29.8733 132.15 30.152 131.844 30.4724C132.596 30.6257 133.237 31.0158 133.739 31.6567C134.366 32.4369 134.686 33.3425 134.686 34.3318C134.686 35.5021 134.268 36.4774 133.46 37.2158C132.666 37.9542 131.718 38.3304 130.66 38.3304C129.935 38.3304 129.28 38.1353 128.723 37.7313C127.246 36.7839 126.508 35.53 126.508 34.0113C126.508 33.3147 126.647 32.5623 126.926 31.6985C127.622 29.7897 129.294 28.3826 131.941 27.5327C133.725 26.9614 135.564 26.6689 137.403 26.6689C140.733 26.6689 143.31 27.3237 145.08 28.6194C146.738 29.8315 147.588 31.4059 147.588 33.2868V47.5119C147.588 50.7861 147.699 51.8032 147.755 52.1097C148.047 53.5029 148.716 53.6841 149.329 53.6841C150.123 53.6841 150.569 53.3218 150.862 52.4859C151.21 51.413 151.391 49.8108 151.391 47.7209C151.391 47.1358 151.382 46.5459 151.363 45.9515C151.349 45.3524 151.335 44.7254 151.335 44.0706V42.7191H153.648V46.3277C153.648 47.1915 153.662 48.0414 153.704 48.8634C153.704 51.5802 153.37 53.3775 152.659 54.3807C151.725 55.6764 149.928 56.3173 147.295 56.3173ZM140.97 51.009L141.22 51.7892C141.61 53.071 142.251 54.0324 143.115 54.6454C144.035 55.2863 145.442 55.6067 147.295 55.6067C149.677 55.6067 151.294 55.0634 152.088 53.9766C152.701 53.0989 152.993 51.427 152.993 48.8913C152.952 48.0692 152.938 47.1915 152.938 46.3277V43.4297H152.046V44.0706C152.046 44.7115 152.055 45.3292 152.074 45.9236C152.102 46.5274 152.111 47.1265 152.102 47.7209C152.102 49.8944 151.907 51.5663 151.53 52.7088C151.154 53.8512 150.43 54.3946 149.329 54.3946C148.103 54.3946 147.365 53.698 147.058 52.249C146.933 51.6638 146.877 50.0616 146.877 47.5119V33.2868C146.877 31.6428 146.125 30.2635 144.662 29.1906C143.018 27.9785 140.579 27.3794 137.403 27.3794C135.647 27.3794 133.878 27.6581 132.15 28.2154C129.74 28.9956 128.207 30.2495 127.594 31.9354C127.344 32.7156 127.218 33.3983 127.218 34.0113C127.218 35.2792 127.859 36.3241 129.113 37.1461C129.568 37.4619 130.084 37.6198 130.66 37.6198C131.537 37.6198 132.317 37.3133 132.972 36.7003C133.641 36.0873 133.975 35.2931 133.975 34.3318C133.975 33.5097 133.711 32.7574 133.181 32.1025C132.666 31.4477 132.011 31.1273 131.175 31.1133L130.548 31.0994L130.882 30.57C131.286 29.9291 131.886 29.4136 132.708 28.9817C133.822 28.4244 135.118 28.1318 136.581 28.1318C138.364 28.1318 139.535 28.4383 140.078 29.0235C140.607 29.6226 140.886 30.779 140.886 32.4787V36.2405C140.886 37.8428 140.44 38.8877 139.562 39.3475C138.685 39.8212 136.943 40.1695 134.379 40.3785C131.816 40.6014 129.601 41.4931 127.789 43.0396C125.992 44.6418 125.086 46.6342 125.086 48.9609C125.086 51.3434 126.02 53.1407 127.887 54.311C129.211 55.1748 130.813 55.6067 132.624 55.6067C134.435 55.6067 135.898 55.3978 136.971 54.9658C138.476 54.3668 139.688 53.28 140.566 51.7196L140.97 51.009ZM147.295 55.4953C145.456 55.4953 144.077 55.1748 143.185 54.5479C142.112 53.7955 141.401 52.4998 141.067 50.6886L140.9 49.8108L140.593 49.7133C140.733 49.142 140.802 48.5429 140.802 47.916V39.1106L140.175 39.9466L140.691 39.5843V47.916C140.691 49.8247 140.036 51.4827 138.74 52.8342C137.431 54.1856 135.996 54.8544 134.366 54.8544C133.307 54.8544 132.54 54.4085 132.067 53.5587C131.579 52.6809 131.328 50.9811 131.328 48.4872C131.328 46.1883 131.76 44.3632 132.61 43.0814C133.321 42.0225 134.296 41.3398 135.494 41.0472C136.483 40.9079 137.459 40.7686 138.462 40.6153C139.103 40.5178 139.646 40.3088 140.092 40.0023L140.761 38.0239C140.914 37.5362 140.997 36.9371 140.997 36.2405V32.4787C140.997 30.7232 140.733 29.5668 140.161 28.9399C139.883 28.6333 139.423 28.3965 138.81 28.2432L138.921 27.5466C141.332 27.7138 143.241 28.299 144.578 29.2742C146.041 30.361 146.752 31.6706 146.752 33.2868V47.5119C146.752 50.0755 146.821 51.6778 146.947 52.2769C147.253 53.7676 148.047 54.52 149.329 54.52C149.533 54.52 149.724 54.5014 149.9 54.4643L150.081 55.147C149.329 55.3838 148.396 55.4953 147.295 55.4953ZM141.457 48.9331L141.764 50.5632C142.07 52.1793 142.683 53.3218 143.589 53.9766C144.369 54.5061 145.609 54.7847 147.295 54.7847C147.425 54.7847 147.555 54.7847 147.685 54.7847C147.072 54.3946 146.515 53.6841 146.25 52.4301C146.111 51.7614 146.041 50.2009 146.041 47.5119V33.2868C146.041 31.9075 145.428 30.779 144.16 29.8594C143.282 29.2046 142.112 28.7448 140.705 28.4801C141.374 29.2464 141.708 30.556 141.708 32.4787V36.2405C141.708 36.8814 141.638 37.4526 141.513 37.9542V47.916C141.513 48.2597 141.494 48.5987 141.457 48.9331ZM139.98 40.894C139.562 41.0983 139.093 41.2377 138.573 41.312C137.556 41.4652 136.581 41.6045 135.633 41.7299C134.63 41.9807 133.822 42.552 133.195 43.4854C132.429 44.6418 132.039 46.3277 132.039 48.4872C132.039 51.427 132.387 52.6809 132.68 53.2103C133.042 53.8373 133.571 54.1438 134.366 54.1438C135.787 54.1438 137.055 53.5447 138.225 52.3326C139.395 51.1205 139.98 49.6436 139.98 47.916V40.894ZM132.624 55.4953C130.841 55.4953 129.266 55.0634 127.943 54.1996C126.09 53.0432 125.198 51.3295 125.198 48.9609C125.198 46.6342 126.076 44.7254 127.873 43.1371C129.656 41.6045 131.844 40.7129 134.393 40.5039L136.804 40.3088L134.742 41.1587C133.836 41.5349 133.084 42.1618 132.513 43.0117C131.649 44.3075 131.203 46.1605 131.203 48.4872C131.203 51.0229 131.454 52.7088 131.955 53.6005C132.29 54.1996 132.722 54.5897 133.307 54.7987L135.09 55.4396L133.195 55.4813C133.009 55.4906 132.819 55.4953 132.624 55.4953ZM132.972 41.4234C131.203 41.7857 129.642 42.538 128.333 43.6666C126.703 45.1155 125.908 46.8571 125.908 48.9609C125.908 51.0647 126.703 52.5834 128.319 53.6005C129.364 54.2832 130.576 54.6593 131.941 54.7569C131.709 54.5339 131.509 54.2646 131.342 53.9488C130.771 52.9456 130.492 51.1483 130.492 48.4872C130.492 46.0072 130.98 44.0427 131.913 42.6216C132.229 42.1572 132.582 41.7578 132.972 41.4234ZM151.099 54.7011L150.708 54.102C151.126 53.8094 151.433 53.3497 151.642 52.7366C151.893 51.9704 152.074 50.9811 152.157 49.8108L152.868 49.8387C152.798 51.831 152.506 53.1546 151.99 53.907C151.758 54.2228 151.461 54.4875 151.099 54.7011ZM130.66 37.4944C130.102 37.4944 129.615 37.3412 129.183 37.0486C127.943 36.2405 127.33 35.2513 127.33 34.0113C127.33 33.4122 127.455 32.7295 127.706 31.9772C128.305 30.3192 129.81 29.0931 132.192 28.3268L132.485 28.9677C131.454 29.525 130.771 30.2913 130.437 31.2109L130.395 31.3223L130.506 31.2945C130.673 31.2527 130.882 31.2248 131.133 31.2248C131.927 31.2248 132.596 31.5452 133.098 32.1722C133.599 32.8131 133.85 33.5237 133.85 34.3318C133.85 35.2513 133.53 36.0176 132.889 36.6028C132.248 37.2019 131.509 37.4944 130.66 37.4944ZM130.297 29.9569C129.336 30.556 128.695 31.3223 128.375 32.2001C128.152 32.8828 128.04 33.4958 128.04 34.0113C128.04 34.9866 128.542 35.7807 129.573 36.4634C129.893 36.6864 130.242 36.7839 130.66 36.7839C131.328 36.7839 131.899 36.561 132.415 36.0873C132.903 35.6275 133.139 35.0562 133.139 34.3318C133.139 33.6909 132.944 33.1336 132.54 32.618C132.164 32.1583 131.718 31.9354 131.133 31.9354C130.896 31.9354 130.757 31.9632 130.687 31.9772L129.28 32.3394L129.768 30.974C129.898 30.6118 130.074 30.2727 130.297 29.9569Z" fill="#1A1A1A"/>
<path d="M194.665 41.2289V44.1966C194.665 45.1904 194.688 46.1378 194.735 47.0388C194.735 50.0482 194.391 52.1102 193.704 53.2248C192.756 54.776 190.927 55.5516 188.214 55.5516C185.642 55.5516 183.751 54.9293 182.544 53.6846C181.336 52.44 180.733 50.6566 180.733 48.3345V30.0132H175.578V29.4281C179.107 28.5642 181.764 26.5162 183.547 23.2838C184.987 20.6924 185.707 17.7758 185.707 14.5342H186.807V28.1463H194.219V30.0132H186.807V47.5125C186.807 49.8253 186.891 51.3254 187.058 52.0127C187.476 53.6475 188.423 54.4602 189.9 54.4509C191.637 54.4509 192.78 53.5128 193.328 51.6365C193.708 50.3547 193.899 47.9165 193.899 44.322V41.2289H194.665Z" fill="#1A1A1A"/>
<path fill-rule="evenodd" clip-rule="evenodd" d="M188.215 55.9138C185.553 55.9138 183.561 55.245 182.293 53.9354C181.025 52.6257 180.384 50.7309 180.384 48.3345V30.3754H175.229V29.1494L175.494 29.0936C178.908 28.2577 181.513 26.2375 183.241 23.1026C184.634 20.5809 185.344 17.6968 185.344 14.5341V14.1719H187.156V27.784H194.582V30.3754H187.156V47.5125C187.156 49.7835 187.239 51.2742 187.406 51.9291C187.783 53.392 188.605 54.1026 189.9 54.1026C191.475 54.1026 192.478 53.2666 192.993 51.539C193.356 50.285 193.537 47.8608 193.537 44.3219V40.8806H195.028V44.1965C195.028 45.1439 195.041 46.0913 195.083 47.0248C195.097 50.1457 194.735 52.2356 194.01 53.4199C192.993 55.0639 191.043 55.9138 188.215 55.9138ZM176.121 29.6509H181.095V48.3345C181.095 50.5498 181.666 52.2635 182.795 53.4338C183.923 54.6041 185.748 55.2032 188.215 55.2032C190.778 55.2032 192.534 54.4787 193.397 53.0437C194.052 51.9848 194.373 49.9646 194.373 47.0387C194.331 46.1192 194.317 45.1579 194.317 44.1965V41.5911H194.247V44.3219C194.247 47.9165 194.052 50.4244 193.662 51.734C193.077 53.7821 191.809 54.8131 189.9 54.8131C188.256 54.8131 187.184 53.8936 186.71 52.0963C186.529 51.3857 186.445 49.881 186.445 47.5125V29.6509H193.857V28.4945H186.445V14.8824H186.055C185.999 18.0312 185.275 20.9152 183.854 23.451C182.112 26.6276 179.507 28.7035 176.121 29.6509Z" fill="#1A1A1A"/>
<path fill-rule="evenodd" clip-rule="evenodd" d="M188.216 55.9686C185.541 55.9686 183.521 55.2998 182.253 53.9623C180.971 52.6526 180.33 50.7578 180.33 48.3336V30.4302H175.161V29.1067L175.482 29.0231C178.881 28.201 181.473 26.1947 183.186 23.0739C184.58 20.5521 185.29 17.682 185.29 14.5332V14.1152H187.213V27.7273H194.639V30.4302H187.213V47.5115C187.213 49.7825 187.297 51.2594 187.464 51.9142C187.84 53.3632 188.606 54.0459 189.902 54.0459C191.448 54.0459 192.438 53.2099 192.925 51.5102C193.302 50.2702 193.483 47.8459 193.483 44.321V40.8239H195.085V44.1956C195.085 45.1802 195.108 46.1229 195.155 47.0239C195.155 50.1587 194.792 52.2486 194.054 53.4468C193.037 55.1187 191.072 55.9686 188.216 55.9686ZM176.527 29.5943H181.152V48.3336C181.152 50.5349 181.724 52.2347 182.838 53.3911C183.967 54.5475 185.764 55.1326 188.216 55.1326C189.442 55.1326 190.473 54.9701 191.309 54.645C190.891 54.7936 190.422 54.8679 189.902 54.8679C188.746 54.8679 187.241 54.3942 186.656 52.1093C186.475 51.3848 186.391 49.8801 186.391 47.5115V29.5943H193.803V28.5493H186.391V14.9512H186.112C186.057 18.0721 185.318 20.9422 183.911 23.4779C182.225 26.5431 179.745 28.5911 176.527 29.5943ZM194.291 46.2994C194.235 48.8769 194.04 50.6603 193.719 51.747C193.357 53.001 192.744 53.8787 191.908 54.3663C192.521 54.032 193.004 53.5815 193.357 53.0149C193.998 51.97 194.319 49.9497 194.319 47.0378C194.309 46.7963 194.3 46.5502 194.291 46.2994Z" fill="#1A1A1A"/>
<path fill-rule="evenodd" clip-rule="evenodd" d="M188.215 56.3176C185.429 56.3176 183.339 55.607 181.987 54.2137C180.65 52.8344 179.967 50.8421 179.967 48.3342V30.7792H174.812V29.9572H174.199L174.812 29.7621V28.8287L175.397 28.6893C178.685 27.8812 181.207 25.9307 182.879 22.9073C184.244 20.4413 184.941 17.6269 184.941 14.5339V13.7676H187.574V27.3657H194.986V30.7792H187.574V47.5122C187.574 50.3126 187.7 51.3994 187.797 51.8313C188.132 53.1131 188.786 53.6843 189.901 53.6843C191.28 53.6843 192.13 52.9598 192.59 51.4133C192.952 50.2012 193.133 47.8048 193.133 44.3216V40.4623H195.446V44.1962C195.446 45.1437 195.46 46.0771 195.502 47.0106C195.502 50.2151 195.126 52.3746 194.359 53.6286C193.273 55.4119 191.211 56.3176 188.215 56.3176ZM175.523 30.0687H180.678V48.3342C180.678 50.6609 181.291 52.4722 182.503 53.7261C183.715 54.98 185.638 55.607 188.215 55.607C190.946 55.607 192.799 54.8268 193.76 53.2663C194.457 52.1239 194.791 50.0897 194.791 47.0246C194.749 46.105 194.736 45.1576 194.736 44.1962V41.1729H193.844V44.3216C193.844 47.8744 193.649 50.3405 193.273 51.6223C192.729 53.4614 191.601 54.3949 189.901 54.3949C188.452 54.3949 187.532 53.6146 187.114 51.9985C186.947 51.3158 186.864 49.8389 186.864 47.5122V30.0687H194.276V28.0902H186.864V14.4781H185.652V14.5339C185.652 17.7523 184.927 20.6781 183.492 23.2556C181.723 26.4601 179.061 28.5221 175.564 29.372L175.523 29.386V29.5392L176.428 29.2606C179.549 28.2853 181.959 26.279 183.603 23.3114C184.983 20.8174 185.707 18.0031 185.763 14.9379V14.5896H186.752V28.2017H194.164V29.9572H186.752V47.5122C186.752 49.8529 186.836 51.3436 187.003 52.0263C187.435 53.6843 188.41 54.5203 189.901 54.5203C190.375 54.5203 190.807 54.4506 191.197 54.3113L191.434 54.98C190.556 55.3283 189.483 55.4955 188.215 55.4955C185.665 55.4955 183.771 54.8686 182.586 53.6425C181.402 52.4164 180.803 50.6331 180.803 48.3342V29.9572H175.523V30.0687ZM178.421 29.2327H181.514V48.3203C181.514 50.438 182.043 52.0542 183.102 53.1409C184.133 54.2137 185.819 54.7571 188.104 54.785C187.379 54.367 186.683 53.6007 186.306 52.1935C186.125 51.4412 186.028 49.9504 186.028 47.4983V29.2327H193.454V28.9123H186.028V18.7972C185.665 20.5109 185.052 22.141 184.23 23.6457C182.809 26.1954 180.873 28.0763 178.421 29.2327ZM192.074 54.6875L191.726 54.0605C192.492 53.6146 193.05 52.8066 193.384 51.6502C193.691 50.5913 193.872 48.8358 193.941 46.2861L194.652 46.2722L194.68 47.0246C194.68 50.0201 194.332 52.096 193.649 53.1967C193.273 53.8097 192.743 54.3113 192.074 54.6875Z" fill="#1A1A1A"/>
<path d="M209.963 61.1513C209.053 63.7799 208.212 65.6097 207.441 66.6407C206.54 67.8482 205.379 68.452 203.958 68.452C202.156 68.452 200.823 68.2708 199.96 67.9086C199.096 67.5371 198.548 66.9101 198.315 66.0277C198.083 65.1453 197.967 64.4487 197.967 63.9378C197.967 62.6467 198.571 61.6808 199.778 61.0399C200.261 60.7798 200.763 60.6497 201.283 60.6497C202.11 60.6497 202.839 60.9609 203.471 61.5832C204.093 62.2056 204.409 63.0322 204.418 64.0632C204.418 65.9116 203.545 66.9426 201.799 67.1562C202.105 67.4906 202.416 67.681 202.732 67.7275C203.057 67.7832 203.392 67.8111 203.735 67.8111C204.896 67.8111 205.844 67.3652 206.577 66.4735C207.311 65.5912 208.082 63.961 208.89 61.5832L210.952 55.7455L201.631 30.4719C201.251 29.478 201.014 28.8928 200.921 28.7164C200.67 28.2891 199.922 28.0755 198.678 28.0755H197.187V27.4346H211.955V28.0755C210.962 28.0755 209.963 28.0848 208.96 28.1033C207.948 28.1312 207.441 28.4006 207.441 28.9114L207.831 30.2071L214.059 46.8426L218.406 34.164C218.926 32.65 219.186 31.4843 219.186 30.6669C219.186 28.9393 217.742 28.0755 214.853 28.0755V27.4346H225.637V28.0755C224.002 28.0755 222.73 28.4749 221.82 29.2737C220.919 30.0725 219.911 32.0648 218.796 35.2507L209.963 61.1513Z" fill="#1A1A1A"/>
<path fill-rule="evenodd" clip-rule="evenodd" d="M203.959 68.8142C202.092 68.8142 200.74 68.6191 199.821 68.229C198.859 67.825 198.233 67.1144 197.968 66.1252C197.731 65.2056 197.606 64.4811 197.606 63.9378C197.606 62.5167 198.288 61.4299 199.626 60.7194C200.141 60.4407 200.699 60.2874 201.284 60.2874C202.203 60.2874 203.025 60.6358 203.722 61.3324C204.419 62.0151 204.767 62.9346 204.767 64.0632C204.767 65.7908 204.042 66.9054 202.635 67.3512C202.691 67.3698 202.742 67.3791 202.788 67.3791C203.095 67.4348 203.415 67.4488 203.736 67.4488C204.795 67.4488 205.631 67.0587 206.299 66.2506C207.01 65.4007 207.762 63.7845 208.557 61.4717L210.577 55.7454L201.312 30.5972C200.796 29.2875 200.643 28.9532 200.615 28.8835C200.531 28.7581 200.183 28.4377 198.678 28.4377H196.825V27.0723H212.318V28.4377H211.956C210.972 28.4377 209.978 28.4469 208.975 28.4655C208.459 28.4795 207.846 28.5491 207.804 28.8696L208.166 30.1096L214.046 45.7976L218.072 34.0385C218.574 32.5756 218.825 31.4471 218.825 30.6669C218.825 30.1096 218.825 28.4377 214.854 28.4377H214.506V27.0723H225.986V28.4377H225.638C224.091 28.4377 222.893 28.7999 222.057 29.5383C221.207 30.2907 220.218 32.2552 219.131 35.3621L210.298 61.2627C209.365 63.9517 208.529 65.7908 207.735 66.8636C206.759 68.1454 205.491 68.8142 203.959 68.8142ZM201.284 60.998C200.824 60.998 200.378 61.1234 199.96 61.3463C198.846 61.9315 198.316 62.7814 198.316 63.9378C198.316 64.4115 198.428 65.0942 198.664 65.9441C198.873 66.7243 199.333 67.2537 200.099 67.5742C200.671 67.825 201.479 67.9782 202.51 68.0479C202.175 67.9503 201.841 67.7414 201.535 67.407L201.089 66.8915L201.757 66.8079C203.332 66.6128 204.056 65.749 204.056 64.0632C204.056 63.1297 203.778 62.3913 203.22 61.834C202.649 61.2767 202.022 60.998 201.284 60.998ZM199.737 27.7828C200.517 27.8943 200.991 28.1451 201.228 28.5352C201.367 28.8138 201.702 29.6637 201.966 30.3464L211.343 55.7454L209.239 61.6946C208.403 64.1328 207.623 65.7769 206.857 66.7104C206.383 67.2677 205.83 67.667 205.199 67.9085C205.965 67.6578 206.606 67.1701 207.163 66.4317C207.902 65.4286 208.738 63.6173 209.629 61.0398L218.463 35.1253C219.605 31.8511 220.636 29.8588 221.597 29.0089C222.336 28.3401 223.325 27.9361 224.523 27.7828H216.136C218.393 28.0336 219.535 28.995 219.535 30.6669C219.535 31.5307 219.271 32.7149 218.741 34.2754L214.088 47.9014L207.498 30.3325L207.094 28.9114C207.094 28.4655 207.344 27.9222 208.473 27.7828H199.737Z" fill="#1A1A1A"/>
<path fill-rule="evenodd" clip-rule="evenodd" d="M203.958 68.8709C202.077 68.8709 200.711 68.6759 199.792 68.2858C198.816 67.8678 198.19 67.1433 197.911 66.1402C197.66 65.2067 197.549 64.4961 197.549 63.9388C197.549 62.4898 198.231 61.3892 199.597 60.6647C200.126 60.386 200.697 60.2328 201.283 60.2328C202.216 60.2328 203.052 60.5811 203.763 61.2916C204.459 61.9883 204.821 62.9217 204.821 64.0642C204.821 65.7361 204.153 66.8507 202.857 67.3384C203.136 67.3662 203.428 67.3941 203.735 67.3941C204.78 67.3941 205.602 67.004 206.256 66.2098C206.953 65.3599 207.705 63.7577 208.5 61.4449L210.52 55.7465L201.255 30.6122C200.739 29.3165 200.6 28.9821 200.558 28.8985C200.488 28.801 200.14 28.4944 198.677 28.4944H196.768V27.0176H212.373V28.4944H211.955C210.97 28.4944 209.976 28.5037 208.973 28.5223C208.653 28.5362 207.928 28.578 207.859 28.8706L208.221 30.0967L214.045 45.6175L218.016 34.0257C218.517 32.5627 218.768 31.4342 218.768 30.6679C218.768 30.1245 218.768 28.4944 214.853 28.4944H214.449V27.0176H226.041V28.4944H225.637C224.104 28.4944 222.92 28.8567 222.098 29.5812C221.248 30.3335 220.273 32.2841 219.186 35.3771L210.353 61.2916C209.419 63.9806 208.583 65.8197 207.775 66.8925C206.786 68.2022 205.504 68.8709 203.958 68.8709ZM201.283 61.0548C200.837 61.0548 200.391 61.1802 199.987 61.4031C198.9 61.9743 198.371 62.8103 198.371 63.9388C198.371 64.4125 198.496 65.0813 198.719 65.9312C198.914 66.6835 199.374 67.213 200.126 67.5195C200.614 67.7285 201.283 67.8817 202.132 67.9653C201.91 67.8399 201.701 67.6588 201.492 67.4359L200.962 66.8507L201.756 66.7532C203.289 66.5581 203.999 65.7083 203.999 64.0642C203.999 63.1447 203.721 62.4202 203.177 61.8768C202.62 61.3334 201.993 61.0548 201.283 61.0548ZM210.408 58.5469L209.28 61.7236C209.029 62.4573 208.783 63.1215 208.541 63.7159C208.876 62.9357 209.219 62.0347 209.572 61.013L210.408 58.5469ZM200.307 27.8396C200.781 27.9789 201.101 28.2019 201.283 28.5084C201.422 28.787 201.756 29.6369 202.021 30.3196L211.384 55.6908L214.031 47.9303L207.441 30.3614L207.023 28.9124C207.023 28.5223 207.204 28.0765 207.9 27.8396H200.307ZM216.901 27.8396C218.684 28.2158 219.59 29.1632 219.59 30.6679C219.59 31.267 219.465 32.0333 219.214 32.9668C220.05 30.9187 220.816 29.609 221.554 28.9542C222.153 28.4248 222.92 28.0486 223.839 27.8396H216.901Z" fill="#1A1A1A"/>
<path fill-rule="evenodd" clip-rule="evenodd" d="M203.958 69.2189C202.021 69.2189 200.628 69.0239 199.666 68.6059C198.58 68.1461 197.869 67.352 197.576 66.2374C197.312 65.276 197.186 64.5237 197.186 63.9385C197.186 62.3502 197.939 61.1381 199.43 60.3578C200.001 60.0374 200.628 59.8841 201.283 59.8841C202.314 59.8841 203.233 60.2742 204.013 61.0405C204.78 61.8068 205.184 62.8239 205.184 64.0639C205.184 65.3596 204.794 66.3628 204.055 67.0315C204.835 66.9619 205.462 66.6275 205.978 65.9866C206.647 65.1785 207.385 63.6041 208.165 61.3331L210.144 55.7462L200.92 30.7372C200.419 29.4694 200.279 29.135 200.238 29.0653C200.21 29.0653 199.889 28.8424 198.677 28.8424H196.42V26.6689H212.721V28.8424H211.955C210.97 28.8424 209.976 28.8564 208.973 28.8842C208.625 28.8842 208.388 28.926 208.263 28.9678L208.569 29.9849L214.031 44.5723L217.681 33.9139C218.169 32.4927 218.406 31.3921 218.406 30.6676C218.406 30.2217 218.406 28.8424 214.853 28.8424H214.087V27.6164L213.46 27.491H214.087V26.6689H226.403V27.491H227.058L226.403 27.6442V28.8424H225.637C224.202 28.8424 223.087 29.1768 222.335 29.8456C221.791 30.3332 220.858 31.7125 219.52 35.5022L210.687 61.4028C209.754 64.1196 208.89 65.9866 208.054 67.1012C207.009 68.5084 205.629 69.2189 203.958 69.2189ZM201.283 60.5947C200.753 60.5947 200.238 60.7201 199.764 60.9848C198.51 61.6536 197.897 62.6149 197.897 63.9385C197.897 64.4679 198.022 65.1506 198.259 66.0423C198.496 66.9479 199.067 67.5888 199.931 67.965C200.809 68.3272 202.118 68.5084 203.958 68.5084C205.393 68.5084 206.577 67.8953 207.496 66.6832C208.277 65.6243 209.099 63.827 210.018 61.1659L218.851 35.2653C219.98 32.0608 220.969 30.1103 221.861 29.3161C222.753 28.5359 224.02 28.1319 225.637 28.1319H225.692V27.7975L223.909 28.1876C223.073 28.3826 222.349 28.731 221.791 29.2325C221.095 29.8316 220.342 31.1413 219.534 33.0918L218.865 32.8689C219.116 31.9772 219.242 31.2388 219.242 30.6676C219.242 29.344 218.447 28.5359 216.831 28.1876L214.797 27.7696V28.1319H214.853C217.681 28.1319 219.13 28.9817 219.13 30.6676C219.13 31.4757 218.865 32.646 218.35 34.1368L214.059 46.6761L207.887 30.2217L207.496 28.8842L207.51 28.8006C207.608 28.3966 208.082 28.1876 208.959 28.1737C209.972 28.1458 210.97 28.1319 211.955 28.1319H212.011V27.3795H197.131V28.1319H198.677C200.182 28.1319 200.697 28.4523 200.865 28.717C200.934 28.8703 201.101 29.2465 201.575 30.4865L210.896 55.7462L208.834 61.57C208.026 63.9246 207.26 65.5547 206.535 66.4463C205.797 67.3241 204.891 67.756 203.735 67.756C203.414 67.756 203.108 67.7281 202.801 67.6863L202.23 67.6028C202.258 67.6213 202.281 67.6353 202.3 67.6446L203.832 68.4805L202.105 68.3133C201.227 68.2297 200.516 68.0765 199.987 67.8535C199.151 67.4913 198.607 66.8783 198.371 66.0144C198.134 65.1367 198.022 64.4401 198.022 63.9385C198.022 62.6846 198.621 61.7232 199.82 61.0823C200.279 60.8315 200.767 60.7061 201.283 60.7061C202.091 60.7061 202.801 61.0127 203.428 61.6257C204.055 62.2387 204.348 63.0468 204.348 64.0639C204.348 65.903 203.512 66.8922 201.798 67.1012L201.687 67.1151L201.756 67.1987C201.793 67.2451 201.835 67.2869 201.882 67.3241L202.732 67.0036C203.888 66.5717 204.473 65.5825 204.473 64.0639C204.473 63.0189 204.139 62.1691 203.512 61.5421C202.871 60.9151 202.118 60.5947 201.283 60.5947ZM201.283 61.4167C200.892 61.4167 200.516 61.5142 200.154 61.7093C199.179 62.2248 198.733 62.9353 198.733 63.9385C198.733 64.3843 198.844 65.0113 199.053 65.8333C199.234 66.4881 199.611 66.9201 200.265 67.1987C200.479 67.2823 200.725 67.3566 201.004 67.4216L200.252 66.5857L201.714 66.4045C203.066 66.2374 203.637 65.5268 203.637 64.0639C203.637 63.2419 203.414 62.6149 202.927 62.1273C202.439 61.6536 201.896 61.4167 201.283 61.4167ZM218.712 28.2015C219.66 28.8564 219.924 29.762 219.952 30.5561C220.412 29.7062 220.872 29.0932 221.318 28.7031C221.522 28.5173 221.745 28.3501 221.986 28.2015H218.712ZM214.797 27.491H225.678V27.3795H214.797V27.491ZM208.862 63.8549L208.207 63.5762C208.444 63.005 208.681 62.3641 208.945 61.5978L210.06 58.4351L210.729 58.672L209.893 61.1241C209.545 62.1691 209.196 63.0747 208.862 63.8549ZM211.384 56.7493L201.687 30.4447C201.547 30.0824 201.115 28.9678 200.962 28.6613C200.837 28.4662 200.586 28.2991 200.21 28.1876L197.841 27.491H210.116L208.012 28.1737C207.483 28.3548 207.385 28.6474 207.385 28.8703L207.775 30.2496L214.393 47.9161L211.384 56.7493ZM201.492 28.2015C201.529 28.2387 201.557 28.2805 201.575 28.3269C201.714 28.5777 201.951 29.1629 202.355 30.1939L211.37 54.6316L213.641 47.93L207.106 30.4865L206.674 28.9121C206.674 28.731 206.702 28.4662 206.856 28.2015H201.492Z" fill="#1A1A1A"/>
<path d="M226.219 52.4033C226.804 52.4033 227.255 52.5705 227.571 52.9049C227.886 53.2393 228.044 53.6526 228.044 54.1449C228.044 54.6372 227.886 55.0459 227.571 55.371C227.255 55.6868 226.804 55.8447 226.219 55.8447C225.662 55.8447 225.221 55.6868 224.895 55.371C224.57 55.0552 224.408 54.6465 224.408 54.1449C224.408 53.6526 224.566 53.2393 224.882 52.9049C225.197 52.5705 225.643 52.4033 226.219 52.4033Z" fill="#1A1A1A"/>
<path d="M236.835 53.4619C237.615 53.4619 238.266 53.2344 238.786 52.7792C239.297 52.3241 239.571 51.7622 239.608 51.0934H242.561C242.524 51.9665 242.255 52.7746 241.753 53.5177C241.243 54.27 240.555 54.8691 239.691 55.315C238.818 55.7515 237.88 55.9698 236.877 55.9698C234.926 55.9698 233.38 55.3382 232.237 54.075C231.095 52.8117 230.524 51.0655 230.524 48.8363V48.5159C230.524 46.3981 231.09 44.6984 232.224 43.4166C233.357 42.1441 234.903 41.5078 236.863 41.5078C238.526 41.5078 239.877 41.9908 240.917 42.9568C241.958 43.9228 242.506 45.1906 242.561 46.7604H239.608C239.571 45.9616 239.297 45.3068 238.786 44.7959C238.275 44.2757 237.625 44.0157 236.835 44.0157C235.823 44.0157 235.043 44.3826 234.495 45.1163C233.947 45.8594 233.668 46.974 233.659 48.4601V48.9757C233.659 50.4804 233.933 51.6043 234.481 52.3473C235.019 53.0904 235.804 53.4619 236.835 53.4619Z" fill="#1A1A1A"/>
<path fill-rule="evenodd" clip-rule="evenodd" d="M243.817 48.6134C243.817 47.248 244.087 46.0173 244.626 44.9213C245.164 43.8253 245.926 42.98 246.91 42.3856C247.886 41.8004 249.01 41.5078 250.282 41.5078C252.168 41.5078 253.696 42.1116 254.866 43.319C256.036 44.5358 256.668 46.1427 256.761 48.1397L256.775 48.8781C256.775 50.2528 256.51 51.4835 255.981 52.5702C255.451 53.6477 254.694 54.4837 253.71 55.0781C252.734 55.6726 251.601 55.9698 250.31 55.9698C248.341 55.9698 246.766 55.315 245.587 54.0053C244.407 52.6956 243.817 50.9494 243.817 48.7667V48.6134ZM246.938 48.8781C246.938 50.3178 247.236 51.4417 247.83 52.2498C248.424 53.0579 249.251 53.4619 250.31 53.4619C251.369 53.4619 252.191 53.0532 252.776 52.2359C253.361 51.4092 253.654 50.2017 253.654 48.6134C253.654 47.2016 253.352 46.0823 252.748 45.2557C252.144 44.429 251.322 44.0157 250.282 44.0157C249.26 44.0157 248.448 44.4244 247.844 45.2417C247.24 46.0498 246.938 47.262 246.938 48.8781Z" fill="#1A1A1A"/>
<path d="M261.844 41.7586L261.928 43.2215C262.912 42.079 264.255 41.5078 265.954 41.5078C267.812 41.5078 269.085 42.223 269.772 43.6534C270.794 42.223 272.219 41.5078 274.049 41.5078C275.591 41.5078 276.738 41.9351 277.491 42.7896C278.243 43.6348 278.628 44.8888 278.647 46.5514V55.7051H275.512V46.635C275.512 45.7526 275.317 45.1024 274.927 44.6844C274.546 44.2757 273.91 44.0714 273.018 44.0714C272.303 44.0714 271.718 44.2618 271.263 44.6426C270.817 45.0235 270.501 45.525 270.315 46.1473L270.329 55.7051H267.194V46.5375C267.157 44.8934 266.321 44.0714 264.687 44.0714C263.433 44.0714 262.546 44.5823 262.025 45.604V55.7051H258.891V41.7586H261.844Z" fill="#1A1A1A"/>
<path d="M49.7147 81.6945L48.5524 81.5067V80.6113H56.377L56.5189 83.2253H55.3848L54.8603 81.6367L51.7985 81.4779V85.5648L53.9106 85.5214L54.1799 84.2506H55.0871V87.9188H54.1941L53.9106 86.6191L51.7985 86.5612V90.3305L53.9673 90.4749V91.3414H48.6233V90.4749L49.7147 90.3305V81.6945Z" fill="#727272"/>
<path d="M57.0724 90.4899L58.008 90.3744V84.6844L57.1008 84.4244V83.428L59.298 83.1248H59.3404L59.6948 83.4135V83.7312L59.6523 84.9011H59.6948C59.7609 84.7085 59.9169 84.4727 60.1626 84.1934C60.4083 83.9046 60.7155 83.6543 61.084 83.4424C61.462 83.221 61.8684 83.1104 62.3031 83.1104C62.5109 83.1104 62.6905 83.1392 62.8417 83.197V85.3631C62.5583 85.161 62.2133 85.0599 61.8069 85.0599C61.1171 85.0599 60.5169 85.2476 60.0067 85.6231V90.36L61.6509 90.4899V91.342H57.0724V90.4899Z" fill="#727272"/>
<path d="M63.3193 87.3416C63.3193 86.4367 63.4941 85.6664 63.8437 85.031C64.2029 84.3956 64.6801 83.919 65.2754 83.6013C65.8709 83.274 66.5181 83.1104 67.2175 83.1104C68.4082 83.1104 69.3248 83.4858 69.9675 84.2367C70.6195 84.978 70.9456 85.9889 70.9456 87.2694C70.9456 88.1841 70.766 88.9639 70.4069 89.6089C70.0572 90.2444 69.5848 90.721 68.9894 91.0387C68.4034 91.3468 67.7561 91.5008 67.0474 91.5008C65.8661 91.5008 64.9495 91.1301 64.2973 90.3888C63.6453 89.6378 63.3193 88.6221 63.3193 87.3416ZM67.1608 90.5621C68.2287 90.5621 68.7626 89.5127 68.7626 87.4139C68.7626 86.3163 68.635 85.4835 68.3799 84.9155C68.1247 84.3378 67.7088 84.049 67.1324 84.049C66.0363 84.049 65.4881 85.0985 65.4881 87.1972C65.4881 88.2948 65.6204 89.1324 65.8851 89.7101C66.1591 90.2781 66.5843 90.5621 67.1608 90.5621Z" fill="#727272"/>
<path d="M71.8089 90.4748L72.6026 90.3447V84.6837L71.6954 84.4237V83.4273L74.0485 83.124L74.2186 83.2396L74.4312 83.7161V84.3227C74.7431 84.0146 75.1872 83.745 75.7638 83.5139C76.3496 83.2733 76.8552 83.1529 77.2805 83.1529C77.7908 83.1529 78.2019 83.2396 78.5137 83.4128C78.835 83.5862 79.076 83.8557 79.2367 84.2216C79.5485 83.9328 79.9595 83.6824 80.4699 83.4706C80.9802 83.2588 81.481 83.1529 81.9725 83.1529C82.8135 83.1529 83.4089 83.4032 83.7585 83.9039C84.1082 84.4045 84.283 85.2229 84.283 86.3589V90.3447L85.2044 90.4748V91.3412H81.5331V90.4748L82.2701 90.3447V86.4166C82.2701 85.6657 82.1803 85.141 82.0008 84.8426C81.8307 84.5345 81.4999 84.3804 81.0086 84.3804C80.7439 84.3804 80.4699 84.443 80.1863 84.5682C79.9123 84.6837 79.6666 84.8281 79.4493 85.0014C79.5154 85.3672 79.5485 85.8245 79.5485 86.3733V90.3447L80.4273 90.4748V91.3412H76.7276V90.4748L77.5073 90.3447V86.3733C77.5073 85.8727 77.4742 85.4827 77.408 85.2036C77.3514 84.9148 77.2379 84.7078 77.0678 84.5826C76.8978 84.4478 76.652 84.3804 76.3307 84.3804C76.0283 84.3804 75.7259 84.4526 75.4235 84.5971C75.1306 84.7318 74.866 84.8955 74.6297 85.088V90.3447L75.4661 90.4748V91.3412H71.8089V90.4748Z" fill="#727272"/>
<path d="M92.0366 81.5626L90.0096 81.6348L89.4567 84.7831H88.266L88.507 80.6094H97.65L97.8201 84.7831H96.7003L96.1474 81.6348L94.1487 81.5626V90.3285L96.1332 90.473V91.3395H90.2222V90.473L92.0366 90.3285V81.5626Z" fill="#727272"/>
<path d="M99.0099 80.7863L97.9325 80.5985V79.8187L100.569 79.501H100.612L100.98 79.7754L100.994 82.9958L100.895 84.2522C101.188 83.9826 101.585 83.7323 102.086 83.5013C102.596 83.2702 103.13 83.1547 103.687 83.1547C104.283 83.1547 104.746 83.2702 105.077 83.5013C105.408 83.7227 105.639 84.0645 105.772 84.5266C105.904 84.9888 105.969 85.6049 105.969 86.3751V90.3465L106.877 90.4765V91.343H103.149V90.4765L103.971 90.3465V86.3751C103.971 85.8744 103.938 85.4845 103.872 85.2053C103.806 84.9261 103.683 84.7192 103.504 84.5843C103.334 84.4496 103.078 84.3822 102.738 84.3822C102.445 84.3822 102.143 84.4544 101.831 84.5988C101.528 84.7336 101.259 84.8972 101.023 85.0898V90.3465L101.887 90.4765V91.343H98.216V90.4765L99.0099 90.361V80.7863Z" fill="#727272"/>
<path d="M110.986 91.5008C109.739 91.5008 108.809 91.1301 108.194 90.3888C107.589 89.6378 107.287 88.6173 107.287 87.3272C107.287 86.4608 107.443 85.7097 107.755 85.0743C108.076 84.439 108.525 83.9527 109.101 83.6158C109.678 83.2788 110.344 83.1104 111.1 83.1104C112.044 83.1104 112.773 83.3654 113.283 83.8757C113.793 84.3763 114.058 85.0935 114.077 86.0274C114.077 86.6629 114.039 87.1347 113.963 87.4428H109.356C109.395 88.3188 109.598 89.0024 109.966 89.4934C110.335 89.9748 110.859 90.2155 111.539 90.2155C111.908 90.2155 112.286 90.1529 112.674 90.0278C113.07 89.9026 113.382 89.7534 113.609 89.5801L113.963 90.3744C113.708 90.6535 113.292 90.9135 112.716 91.1542C112.149 91.3853 111.572 91.5008 110.986 91.5008ZM112.092 86.5763C112.111 86.3067 112.121 86.0997 112.121 85.9553C112.121 84.6748 111.7 84.0345 110.859 84.0345C110.396 84.0345 110.037 84.2223 109.782 84.5978C109.527 84.9732 109.385 85.6327 109.356 86.5763H112.092Z" fill="#727272"/>
<path d="M118.756 81.6935L117.623 81.5057V80.6104H125.178L125.362 83.0366H124.37L123.902 81.6069L120.84 81.4769V85.3616L122.811 85.3183L123.037 84.1341H123.945V87.629H123.037L122.811 86.387L120.84 86.3437V90.4161L124.271 90.2429L125.093 88.3943L126.156 88.6976L125.787 91.3404H117.637V90.474L118.756 90.3295V81.6935Z" fill="#727272"/>
<path d="M126.401 87.3696C126.401 86.5416 126.561 85.8051 126.882 85.16C127.214 84.515 127.681 84.0143 128.286 83.6581C128.9 83.2922 129.614 83.1094 130.427 83.1094C130.804 83.1094 131.13 83.1382 131.404 83.196C131.679 83.2537 131.986 83.3307 132.326 83.4271L132.737 83.5426L132.652 86.0121H131.418L131.065 84.4235C131.008 84.1732 130.729 84.0481 130.228 84.0481C129.699 84.0481 129.283 84.2839 128.98 84.7557C128.688 85.2274 128.536 85.9639 128.527 86.9653C128.527 88.0243 128.706 88.8378 129.065 89.4058C129.425 89.9642 129.902 90.2435 130.498 90.2435C131.215 90.2435 131.878 90.0461 132.482 89.6513L132.808 90.4023C132.563 90.6719 132.184 90.9222 131.674 91.1532C131.173 91.3843 130.63 91.4998 130.044 91.4998C128.834 91.4998 127.922 91.1195 127.308 90.359C126.703 89.5983 126.401 88.602 126.401 87.3696Z" fill="#727272"/>
<path d="M133.511 87.3407C133.511 86.4357 133.685 85.6655 134.034 85.0301C134.394 84.3947 134.871 83.918 135.467 83.6003C136.062 83.273 136.709 83.1094 137.409 83.1094C138.6 83.1094 139.516 83.4848 140.159 84.2357C140.811 84.977 141.136 85.9879 141.136 87.2684C141.136 88.1831 140.957 88.963 140.598 89.608C140.248 90.2435 139.776 90.72 139.18 91.0377C138.594 91.3458 137.947 91.4998 137.238 91.4998C136.057 91.4998 135.141 91.1291 134.488 90.3878C133.837 89.6369 133.511 88.6212 133.511 87.3407ZM137.352 90.5611C138.42 90.5611 138.953 89.5117 138.953 87.4129C138.953 86.3153 138.826 85.4825 138.571 84.9145C138.316 84.3368 137.899 84.0481 137.323 84.0481C136.227 84.0481 135.679 85.0975 135.679 87.1962C135.679 88.2939 135.811 89.1314 136.077 89.7091C136.35 90.2772 136.776 90.5611 137.352 90.5611Z" fill="#727272"/>
<path d="M142.793 84.6817L141.886 84.4218V83.4254L144.239 83.1221H144.282L144.636 83.4109V83.9741L144.622 84.3207C144.953 84.003 145.382 83.7286 145.912 83.4976C146.441 83.2665 146.975 83.151 147.513 83.151C148.09 83.151 148.538 83.2617 148.86 83.4831C149.191 83.695 149.428 84.0318 149.569 84.494C149.71 84.9561 149.781 85.5819 149.781 86.3714V90.3573L150.646 90.4728V91.3393H146.989V90.4728L147.754 90.3573V86.3714C147.754 85.8707 147.721 85.4808 147.655 85.2016C147.589 84.9128 147.466 84.7059 147.287 84.5806C147.117 84.4459 146.87 84.3785 146.55 84.3785C146.011 84.3785 145.435 84.6143 144.821 85.0861V90.3428L145.67 90.4728V91.3393H141.971V90.4728L142.793 90.3428V84.6817Z" fill="#727272"/>
<path d="M151.223 87.3407C151.223 86.4357 151.399 85.6655 151.748 85.0301C152.107 84.3947 152.584 83.918 153.18 83.6003C153.775 83.273 154.423 83.1094 155.122 83.1094C156.312 83.1094 157.23 83.4848 157.872 84.2357C158.523 84.977 158.85 85.9879 158.85 87.2684C158.85 88.1831 158.671 88.963 158.311 89.608C157.962 90.2435 157.489 90.72 156.894 91.0377C156.308 91.3458 155.661 91.4998 154.952 91.4998C153.77 91.4998 152.854 91.1291 152.202 90.3878C151.549 89.6369 151.223 88.6212 151.223 87.3407ZM155.065 90.5611C156.133 90.5611 156.667 89.5117 156.667 87.4129C156.667 86.3153 156.539 85.4825 156.284 84.9145C156.028 84.3368 155.613 84.0481 155.037 84.0481C153.94 84.0481 153.393 85.0975 153.393 87.1962C153.393 88.2939 153.525 89.1314 153.789 89.7091C154.064 90.2772 154.488 90.5611 155.065 90.5611Z" fill="#727272"/>
<path d="M159.713 90.4728L160.506 90.3428V84.6817L159.599 84.4218V83.4254L161.952 83.1221L162.122 83.2376L162.334 83.7142V84.3207C162.646 84.0126 163.09 83.7431 163.667 83.512C164.253 83.2713 164.758 83.151 165.184 83.151C165.694 83.151 166.105 83.2376 166.417 83.4109C166.738 83.5842 166.979 83.8538 167.14 84.2196C167.452 83.9308 167.863 83.6804 168.373 83.4687C168.884 83.2568 169.385 83.151 169.876 83.151C170.717 83.151 171.312 83.4013 171.661 83.9019C172.012 84.4026 172.186 85.2209 172.186 86.357V90.3428L173.108 90.4728V91.3393H169.436V90.4728L170.173 90.3428V86.4147C170.173 85.6637 170.084 85.1391 169.904 84.8406C169.734 84.5325 169.403 84.3785 168.912 84.3785C168.647 84.3785 168.373 84.4411 168.09 84.5662C167.816 84.6817 167.57 84.8262 167.352 84.9994C167.419 85.3653 167.452 85.8226 167.452 86.3714V90.3428L168.331 90.4728V91.3393H164.63V90.4728L165.41 90.3428V86.3714C165.41 85.8707 165.378 85.4808 165.311 85.2016C165.254 84.9128 165.141 84.7059 164.971 84.5806C164.801 84.4459 164.555 84.3785 164.234 84.3785C163.931 84.3785 163.629 84.4507 163.327 84.5951C163.033 84.7299 162.769 84.8935 162.533 85.0861V90.3428L163.369 90.4728V91.3393H159.713V90.4728Z" fill="#727272"/>
<path d="M175.329 81.9984C174.989 81.9984 174.719 81.8973 174.521 81.6952C174.322 81.493 174.223 81.233 174.223 80.9153C174.223 80.5495 174.337 80.2462 174.563 80.0055C174.79 79.7649 175.093 79.6445 175.471 79.6445C175.849 79.6445 176.138 79.7504 176.335 79.9622C176.534 80.1644 176.633 80.4195 176.633 80.7276C176.633 81.1127 176.519 81.4208 176.293 81.6518C176.067 81.8829 175.749 81.9984 175.343 81.9984H175.329ZM174.578 84.6846L173.572 84.4102V83.4426L176.165 83.1249H176.193L176.59 83.4137V90.3601L177.541 90.4756V91.3421H173.586V90.4756L174.578 90.3456V84.6846Z" fill="#727272"/>
<path d="M177.948 87.3696C177.948 86.5416 178.108 85.8051 178.429 85.16C178.76 84.515 179.227 84.0143 179.833 83.6581C180.447 83.2922 181.16 83.1094 181.973 83.1094C182.351 83.1094 182.677 83.1382 182.951 83.196C183.226 83.2537 183.532 83.3307 183.872 83.4271L184.284 83.5426L184.199 86.0121H182.965L182.611 84.4235C182.555 84.1732 182.275 84.0481 181.775 84.0481C181.246 84.0481 180.83 84.2839 180.527 84.7557C180.234 85.2274 180.083 85.9639 180.074 86.9653C180.074 88.0243 180.253 88.8378 180.612 89.4058C180.972 89.9642 181.448 90.2435 182.044 90.2435C182.762 90.2435 183.424 90.0461 184.029 89.6513L184.355 90.4023C184.109 90.6719 183.731 90.9222 183.22 91.1532C182.719 91.3843 182.176 91.4998 181.59 91.4998C180.38 91.4998 179.468 91.1195 178.854 90.359C178.25 89.5983 177.948 88.602 177.948 87.3696Z" fill="#727272"/>
<path d="M191.354 81.5635L189.327 81.6358L188.774 84.784H187.584L187.824 80.6104H196.967L197.137 84.784H196.018L195.465 81.6358L193.466 81.5635V90.3295L195.451 90.474V91.3404H189.54V90.474L191.354 90.3295V81.5635Z" fill="#727272"/>
<path d="M199.348 81.9984C199.007 81.9984 198.739 81.8973 198.54 81.6952C198.342 81.493 198.242 81.233 198.242 80.9153C198.242 80.5495 198.356 80.2462 198.583 80.0055C198.81 79.7649 199.112 79.6445 199.489 79.6445C199.868 79.6445 200.156 79.7504 200.354 79.9622C200.553 80.1644 200.652 80.4195 200.652 80.7276C200.652 81.1127 200.539 81.4208 200.312 81.6518C200.085 81.8829 199.769 81.9984 199.362 81.9984H199.348ZM198.597 84.6846L197.59 84.4102V83.4426L200.184 83.1249H200.213L200.61 83.4137V90.3601L201.559 90.4756V91.3421H197.604V90.4756L198.597 90.3456V84.6846Z" fill="#727272"/>
<path d="M202.15 90.4728L202.944 90.3428V84.6817L202.036 84.4218V83.4254L204.389 83.1221L204.56 83.2376L204.772 83.7142V84.3207C205.084 84.0126 205.528 83.7431 206.104 83.512C206.69 83.2713 207.196 83.151 207.622 83.151C208.131 83.151 208.543 83.2376 208.855 83.4109C209.176 83.5842 209.416 83.8538 209.578 84.2196C209.89 83.9308 210.3 83.6804 210.811 83.4687C211.321 83.2568 211.822 83.151 212.314 83.151C213.155 83.151 213.75 83.4013 214.1 83.9019C214.449 84.4026 214.624 85.2209 214.624 86.357V90.3428L215.545 90.4728V91.3393H211.874V90.4728L212.611 90.3428V86.4147C212.611 85.6637 212.521 85.1391 212.342 84.8406C212.172 84.5325 211.84 84.3785 211.349 84.3785C211.084 84.3785 210.811 84.4411 210.527 84.5662C210.253 84.6817 210.008 84.8262 209.791 84.9994C209.856 85.3653 209.89 85.8226 209.89 86.3714V90.3428L210.768 90.4728V91.3393H207.069V90.4728L207.849 90.3428V86.3714C207.849 85.8707 207.815 85.4808 207.749 85.2016C207.693 84.9128 207.579 84.7059 207.409 84.5806C207.239 84.4459 206.993 84.3785 206.672 84.3785C206.369 84.3785 206.067 84.4507 205.764 84.5951C205.472 84.7299 205.207 84.8935 204.971 85.0861V90.3428L205.807 90.4728V91.3393H202.15V90.4728Z" fill="#727272"/>
<path d="M219.652 91.4998C218.405 91.4998 217.475 91.1291 216.86 90.3878C216.255 89.6369 215.953 88.6164 215.953 87.3263C215.953 86.4598 216.109 85.7088 216.421 85.0734C216.741 84.438 217.191 83.9517 217.767 83.6148C218.344 83.2778 219.009 83.1094 219.765 83.1094C220.711 83.1094 221.439 83.3644 221.948 83.8747C222.459 84.3754 222.724 85.0926 222.743 86.0265C222.743 86.662 222.704 87.1337 222.629 87.4418H218.022C218.06 88.3179 218.263 89.0015 218.632 89.4924C219.001 89.9739 219.524 90.2145 220.205 90.2145C220.574 90.2145 220.952 90.1519 221.34 90.0268C221.737 89.9016 222.048 89.7524 222.275 89.5791L222.629 90.3734C222.374 90.6526 221.958 90.9126 221.382 91.1532C220.815 91.3843 220.239 91.4998 219.652 91.4998ZM220.758 86.5753C220.777 86.3057 220.787 86.0987 220.787 85.9543C220.787 84.6739 220.365 84.0335 219.524 84.0335C219.062 84.0335 218.703 84.2213 218.448 84.5968C218.192 84.9722 218.051 85.6317 218.022 86.5753H220.758Z" fill="#727272"/>
<path d="M225.023 90.1562C225.098 90.2718 225.268 90.3825 225.532 90.4884C225.807 90.5847 226.081 90.6329 226.355 90.6329C226.799 90.6329 227.129 90.5414 227.347 90.3585C227.573 90.1659 227.687 89.9156 227.687 89.6075C227.687 89.2898 227.55 89.0347 227.276 88.8421C227.001 88.64 226.539 88.3944 225.887 88.1056L225.489 87.9323C224.838 87.6531 224.352 87.3162 224.03 86.9213C223.708 86.5266 223.548 86.0164 223.548 85.3906C223.548 84.9574 223.675 84.5722 223.93 84.2352C224.186 83.8887 224.545 83.6191 225.008 83.4266C225.471 83.234 226.004 83.1377 226.61 83.1377C227.054 83.1377 227.432 83.1666 227.743 83.2244C228.065 83.2821 228.4 83.3592 228.75 83.4554C228.939 83.5228 229.081 83.5613 229.176 83.5709V85.4628H228.055L227.729 84.3653C227.672 84.2689 227.545 84.1823 227.347 84.1053C227.149 84.0283 226.922 83.9898 226.667 83.9898C226.279 83.9898 225.967 84.0764 225.731 84.2497C225.504 84.4134 225.39 84.6445 225.39 84.9429C225.39 85.2125 225.471 85.4387 225.631 85.6217C225.793 85.7949 225.967 85.9297 226.156 86.026C226.345 86.1223 226.695 86.2812 227.205 86.5026C227.715 86.724 228.136 86.9359 228.467 87.138C228.807 87.3402 229.085 87.605 229.303 87.9323C229.53 88.2501 229.644 88.64 229.644 89.102C229.644 89.8145 229.369 90.3921 228.821 90.835C228.273 91.2779 227.484 91.4993 226.454 91.4993C225.972 91.4993 225.537 91.456 225.15 91.3694C224.772 91.2827 224.332 91.1671 223.831 91.0228L223.519 90.9217V89.0154H224.696L225.023 90.1562Z" fill="#727272"/>
</svg>
