<svg id="Layer_1" data-name="Layer 1" xmlns="http://www.w3.org/2000/svg" viewBox="0 0 150 150"><defs><style>.cls-1{fill:none;}.cls-1,.cls-5{stroke:#595959;}.cls-1,.cls-2,.cls-3,.cls-4,.cls-5{stroke-linecap:round;stroke-linejoin:round;}.cls-1,.cls-3,.cls-4,.cls-5{stroke-width:2px;}.cls-2,.cls-4{fill:#d8ab5b;}.cls-2{stroke:#d8ab5b;}.cls-3{fill:#595959;}.cls-3,.cls-4{stroke:#fff;}.cls-5{fill:#fff;}</style></defs><path class="cls-1" d="M70.07,79.79l3.83,3.83a9.1,9.1,0,0,0,12.88,0L90,80.4,78.11,68.51"/><path class="cls-1" d="M85.3,75.47A9.12,9.12,0,0,0,94,69"/><path class="cls-1" d="M35.7,66.58l-5.83,5.68c-1.55,2.68-.49,4.56.33,9.51L36,118.31"/><polyline class="cls-2" points="73.46 68.3 94.2 68.3 121.09 68.3 121.09 13.14 35.66 13.14 35.66 68.3 55.41 68.3"/><line class="cls-3" x1="82.75" y1="49.5" x2="111.44" y2="49.5"/><line class="cls-3" x1="82.75" y1="57.69" x2="111.44" y2="57.69"/><line class="cls-3" x1="78.74" y1="41.31" x2="111.44" y2="41.31"/><line class="cls-3" x1="61.92" y1="26.52" x2="94.62" y2="26.52"/><path class="cls-4" d="M49.79,19.87a6.73,6.73,0,1,1-6.73,6.73A6.72,6.72,0,0,1,49.79,19.87Z"/><path class="cls-5" d="M64.67,118.72a38.17,38.17,0,0,0,2.17-5.67c3.15-10.51,3.31-19.27.8-26.29l8.5-28.38a6.34,6.34,0,0,0-4.26-7.89l-2.42-.73A6.35,6.35,0,0,0,61.57,54L46.88,89.62"/><polyline class="cls-1" points="28.91 136.86 28.91 119.06 78.7 119.06 78.7 136.86"/><polyline class="cls-1" points="28.91 136.86 28.91 119.06 78.7 119.06 78.7 136.86"/></svg>