<svg id="Layer_1" data-name="Layer 1" xmlns="http://www.w3.org/2000/svg" viewBox="0 0 150 150"><defs><style>.cls-1{fill:#d8ab5b;stroke:#d8ab5b;}.cls-1,.cls-2,.cls-3{stroke-linecap:round;}.cls-1,.cls-2,.cls-3,.cls-4{stroke-linejoin:round;}.cls-1,.cls-2,.cls-3,.cls-4,.cls-5{stroke-width:2px;}.cls-1,.cls-2{fill-rule:evenodd;}.cls-2,.cls-3,.cls-4,.cls-5,.cls-6{fill:none;}.cls-2,.cls-3{stroke:#595959;}.cls-4,.cls-5,.cls-6{stroke:#fff;}.cls-5,.cls-6{stroke-miterlimit:10;}.cls-6{stroke-width:1.5px;}</style></defs><path class="cls-1" d="M106,39.29V76.86H17.14V29.17H92l.3.21L84,38.19a5.74,5.74,0,0,0,.34,8.1l.3.27a5.72,5.72,0,0,0,8.09-.35l6.89-7a3.26,3.26,0,0,1,2.26-1l2.7,0Z"/><path class="cls-2" d="M138.49,51.88h-7.32a2,2,0,0,1-2-2v-39a2,2,0,0,1,2-2h7.32"/><path class="cls-2" d="M74.25,29.18,87.7,15.3a5.69,5.69,0,0,1,4.11-1.74h36.66"/><path class="cls-2" d="M104.62,38.26l-2.7,0a3.26,3.26,0,0,0-2.26,1l-6.89,7a5.72,5.72,0,0,1-8.09.35l-.3-.27a5.74,5.74,0,0,1-.34-8.1l8.26-8.81"/><line class="cls-3" x1="101.7" y1="19.34" x2="92.3" y2="29.38"/><path class="cls-2" d="M104.62,38.26l9.55-.12a5.6,5.6,0,0,0,4.48-2.35l1.22-1.73"/><path class="cls-2" d="M106.66,53h6.58a8.68,8.68,0,0,0,7.64-4.57l.05-.1a6.64,6.64,0,0,1,5.84-3.49h2.39"/><polyline class="cls-2" points="11.51 116.07 23.51 104.07 52.92 133.48 45.21 141.19"/><path class="cls-2" d="M30.42,111l11.36-10.34a25.1,25.1,0,0,1,16.9-6.55H89.21a6.3,6.3,0,0,1,6.3,6.3h0a6.3,6.3,0,0,1-6.3,6.3h-15"/><path class="cls-2" d="M46.56,127.12l3.36-2.85a10.71,10.71,0,0,1,6.94-2.55l23.78.91a24.26,24.26,0,0,0,14.87-5.09l4.54-4.52,19.52-21a6.66,6.66,0,0,0-.33-9.41h0a6.67,6.67,0,0,0-9.42.33L95.51,97.91"/><path class="cls-4" d="M61.37,45.41a3.66,3.66,0,0,1,.33.66,6.72,6.72,0,0,1-.32,5.74,6.56,6.56,0,0,1-4.32,3.42l6.75,7.21"/><line class="cls-5" x1="55.02" y1="45.41" x2="68.16" y2="45.41"/><line class="cls-5" x1="55.02" y1="49.24" x2="68.16" y2="49.24"/><circle class="cls-6" cx="61.59" cy="53.01" r="18.04"/></svg>