<svg id="Layer_1" data-name="Layer 1" xmlns="http://www.w3.org/2000/svg" viewBox="0 0 150 150"><defs><style>.cls-1,.cls-3{fill:none;stroke-width:2px;}.cls-1{stroke:#595959;}.cls-1,.cls-2,.cls-3{stroke-linecap:round;stroke-linejoin:round;}.cls-2{fill:#d8ab5b;stroke:#d8ab5b;}.cls-3{stroke:#fff;}</style></defs><path class="cls-1" d="M25.33,126l6.78,6.79,6.2-6.2L17.07,105.39,10.39,98.7h0l-2.81-2.8-6.19,6.19,15.47,15.47"/><path class="cls-1" d="M130.24,78.21c-7.26,7.6-32.31,12.27-33.65,12L95,89.93l-.26-.05c-7.29-1.27-15.63-4.11-25.52-8.64-20.87-9.59-42.25,6.11-52.37,15.39l7.6,7.61,14.39,14.38c14.35-10.52,29.82-6.83,43.55-3.56,9,2.16,17.57,4.2,24.42,1.79,15.06-5.29,33.6-30.93,40.88-41.72a5.55,5.55,0,0,0,.85-4.25,5.64,5.64,0,0,0-9.87-2.51l-3.51,6.14"/><path class="cls-1" d="M73.56,94.52C82.9,98.06,92,99,95.74,96.84a3.82,3.82,0,0,0,2-3,4.43,4.43,0,0,0-.72-3.6"/><circle class="cls-2" cx="89.61" cy="41.76" r="24.58"/><polyline class="cls-3" points="99.18 36.33 86.42 49.1 80.04 42.72"/></svg>