<svg id="Layer_1" data-name="Layer 1" xmlns="http://www.w3.org/2000/svg" viewBox="0 0 65 65"><defs><style>.cls-1{fill:none;stroke:#595959;stroke-linecap:round;stroke-linejoin:round;}</style></defs><polyline class="cls-1" points="25.44 63.64 1.09 63.64 2.28 18.38 48.73 18.38 49.05 30.69"/><path class="cls-1" d="M16.57,24V12.73A8.93,8.93,0,0,1,25.5,3.79h0a8.94,8.94,0,0,1,8.94,8.94V24"/><polygon class="cls-1" points="63.91 63.64 60.34 63.64 60.34 30.69 63.32 30.69 63.91 63.64"/><path class="cls-1" d="M35.86,39.5v5.12c0,3.6,3.49,6.52,7.79,6.52h0c4.3,0,7.79-2.92,7.79-6.52V39.55"/><circle class="cls-1" cx="35.92" cy="37.5" r="2"/><circle class="cls-1" cx="51.41" cy="37.5" r="2"/><polygon class="cls-1" points="61 63.64 25.44 63.64 26.31 30.69 60.13 30.69 61 63.64"/></svg>