<svg id="Layer_1" data-name="Layer 1" xmlns="http://www.w3.org/2000/svg" viewBox="0 0 65 65"><defs><style>.cls-1{fill:none;stroke:#595959;stroke-linecap:round;stroke-linejoin:round;}</style></defs><path class="cls-1" d="M11.05,50,14,53l2.67-2.68L7.48,41.11,4.6,38.23h0L3.38,37,.71,39.69l6.68,6.68"/><path class="cls-1" d="M56.36,29.38c-3.14,3.28-14,5.3-14.54,5.17l-.7-.11-.11,0a46.18,46.18,0,0,1-11-3.74c-9-4.13-18.25,2.64-22.62,6.65l3.29,3.29,6.21,6.21c6.2-4.55,12.88-2.95,18.81-1.54,3.9.93,7.58,1.81,10.54.78,6.51-2.29,14.52-13.36,17.66-18a2.49,2.49,0,0,0,.37-1.84A2.44,2.44,0,0,0,60,25.13l-1.51,2.65"/><path class="cls-1" d="M31.88,36.42c4,1.53,8,1.94,9.58,1a1.68,1.68,0,0,0,.85-1.28A1.89,1.89,0,0,0,42,34.59"/><circle class="cls-1" cx="43.14" cy="20.21" r="8.17"/><line class="cls-1" x1="43.14" y1="16.87" x2="43.14" y2="23.55"/><line class="cls-1" x1="39.8" y1="20.21" x2="46.48" y2="20.21"/></svg>