<?xml version="1.0" encoding="utf-8"?>
<!-- Generator: Adobe Illustrator 24.0.1, SVG Export Plug-In . SVG Version: 6.00 Build 0)  -->
<svg version="1.1" id="Layer_1" xmlns="http://www.w3.org/2000/svg" xmlns:xlink="http://www.w3.org/1999/xlink" x="0px" y="0px"
	 viewBox="0 0 347.1 108.9" style="enable-background:new 0 0 347.1 108.9;" xml:space="preserve">
<style type="text/css">
	.st0{display:none;}
	.st1{display:inline;fill:#6D6E71;}
	.st2{display:inline;fill:#22356C;}
	.st3{display:inline;}
	.st4{fill:#B72726;}
	.st5{fill:#87171A;}
	.st6{fill:#FFFFFF;}
</style>
<g class="st0">
	<path class="st1" d="M137.1,106.7v-8.4h3.3c0.7,0,1.4,0.1,1.9,0.3c0.5,0.2,0.9,0.6,1.2,1s0.4,1,0.4,1.6s-0.1,1.1-0.4,1.6
		c-0.3,0.4-0.7,0.8-1.2,1s-1.2,0.3-1.9,0.3h-2.6l0.5-0.6v3.1L137.1,106.7L137.1,106.7z M138.3,103.7l-0.5-0.6h2.6
		c0.8,0,1.4-0.2,1.8-0.5c0.4-0.3,0.6-0.8,0.6-1.4s-0.2-1.1-0.6-1.4c-0.4-0.3-1-0.5-1.8-0.5h-2.6l0.5-0.6V103.7z M142.8,106.7
		l-2.1-3.1h1.3l2.2,3.1H142.8z"/>
	<path class="st1" d="M149.4,105.7h4.9v1h-6.1v-8.4h5.9v1h-4.7L149.4,105.7L149.4,105.7z M149.3,101.9h4.3v1h-4.3V101.9z"/>
	<polygon class="st1" points="158.6,106.7 158.6,98.3 159.8,98.3 159.8,105.7 164.4,105.7 164.4,106.7 	"/>
	<path class="st1" d="M166.8,106.7l3.8-8.4h1.2l3.8,8.4h-1.3l-3.4-7.7h0.5l-3.4,7.7H166.8z M168.4,104.6l0.3-1h4.7l0.3,1H168.4z"/>
	<polygon class="st1" points="180.4,106.7 180.4,99.3 177.5,99.3 177.5,98.3 184.5,98.3 184.5,99.3 181.6,99.3 181.6,106.7 	"/>
	<rect x="188.1" y="98.3" class="st1" width="1.2" height="8.4"/>
	<path class="st1" d="M198,106.8c-0.6,0-1.2-0.1-1.8-0.3c-0.5-0.2-1-0.5-1.4-0.9s-0.7-0.8-0.9-1.4c-0.2-0.5-0.3-1.1-0.3-1.7
		s0.1-1.2,0.3-1.7s0.5-1,0.9-1.4s0.9-0.7,1.4-0.9c0.5-0.2,1.1-0.3,1.8-0.3c0.6,0,1.2,0.1,1.8,0.3c0.5,0.2,1,0.5,1.4,0.9
		s0.7,0.8,0.9,1.4c0.2,0.5,0.3,1.1,0.3,1.7s-0.1,1.2-0.3,1.7s-0.5,1-0.9,1.4s-0.9,0.7-1.4,0.9C199.2,106.7,198.6,106.8,198,106.8
		 M198,105.7c0.5,0,0.9-0.1,1.3-0.2c0.4-0.2,0.7-0.4,1-0.7c0.3-0.3,0.5-0.6,0.7-1s0.2-0.8,0.2-1.3s-0.1-0.9-0.2-1.3
		c-0.2-0.4-0.4-0.7-0.7-1s-0.6-0.5-1-0.7s-0.8-0.2-1.3-0.2s-0.9,0.1-1.3,0.2c-0.4,0.2-0.7,0.4-1,0.7c-0.3,0.3-0.5,0.6-0.7,1
		s-0.2,0.8-0.2,1.3s0.1,0.9,0.2,1.3s0.4,0.7,0.7,1s0.6,0.5,1,0.7C197.1,105.7,197.5,105.7,198,105.7"/>
	<polygon class="st1" points="206.6,106.7 206.6,98.3 207.6,98.3 213.2,105.2 212.7,105.2 212.7,98.3 213.9,98.3 213.9,106.7 
		212.9,106.7 207.3,99.8 207.8,99.8 207.8,106.7 	"/>
	<path class="st1" d="M221.2,106.8c-0.6,0-1.3-0.1-1.8-0.3c-0.6-0.2-1-0.5-1.4-0.8l0.4-0.9c0.3,0.3,0.7,0.5,1.2,0.7s1,0.3,1.6,0.3
		c0.5,0,0.9-0.1,1.2-0.2s0.5-0.3,0.7-0.5c0.1-0.2,0.2-0.4,0.2-0.7c0-0.3-0.1-0.5-0.3-0.7s-0.4-0.3-0.7-0.4s-0.6-0.2-1-0.3
		c-0.4-0.1-0.7-0.2-1.1-0.3c-0.4-0.1-0.7-0.2-1-0.4c-0.3-0.2-0.5-0.4-0.7-0.7c-0.2-0.3-0.3-0.7-0.3-1.1s0.1-0.8,0.3-1.2
		c0.2-0.4,0.6-0.7,1.1-0.9c0.5-0.2,1.1-0.3,1.8-0.3c0.5,0,1,0.1,1.5,0.2s0.9,0.3,1.3,0.6l-0.4,1c-0.4-0.2-0.7-0.4-1.1-0.5
		c-0.4-0.1-0.8-0.2-1.2-0.2c-0.5,0-0.9,0.1-1.2,0.2s-0.5,0.3-0.7,0.5c-0.1,0.2-0.2,0.4-0.2,0.7c0,0.3,0.1,0.5,0.3,0.7
		s0.4,0.3,0.7,0.4s0.6,0.2,1,0.3c0.4,0.1,0.7,0.2,1.1,0.3c0.4,0.1,0.7,0.2,1,0.4c0.3,0.2,0.5,0.4,0.7,0.7c0.2,0.3,0.3,0.6,0.3,1.1
		c0,0.4-0.1,0.8-0.3,1.2c-0.2,0.4-0.6,0.7-1.1,0.9C222.5,106.7,221.9,106.8,221.2,106.8"/>
	<path class="st1" d="M229.7,106.7h-1.2v-8.4h1.2V106.7z M234.6,103h-5.1v-1h5.1V103z M234.5,98.3h1.2v8.4h-1.2V98.3z"/>
	<rect x="240.6" y="98.3" class="st1" width="1.2" height="8.4"/>
	<path class="st1" d="M246.6,106.7v-8.4h3.3c0.7,0,1.4,0.1,1.9,0.3c0.5,0.2,0.9,0.6,1.2,1s0.4,1,0.4,1.6s-0.1,1.1-0.4,1.6
		c-0.3,0.4-0.7,0.8-1.2,1s-1.2,0.4-1.9,0.4h-2.6l0.5-0.6v3.1H246.6z M247.8,103.7l-0.5-0.6h2.6c0.8,0,1.4-0.2,1.7-0.5
		c0.4-0.3,0.6-0.8,0.6-1.4s-0.2-1.1-0.6-1.4c-0.4-0.3-1-0.5-1.7-0.5h-2.6l0.5-0.6V103.7z"/>
	<path class="st1" d="M260.1,106.8c-0.6,0-1.3-0.1-1.8-0.3c-0.6-0.2-1-0.5-1.4-0.8l0.4-0.9c0.3,0.3,0.7,0.5,1.2,0.7s1,0.3,1.6,0.3
		c0.5,0,0.9-0.1,1.2-0.2c0.3-0.1,0.5-0.3,0.7-0.5c0.1-0.2,0.2-0.4,0.2-0.7c0-0.3-0.1-0.5-0.3-0.7c-0.2-0.2-0.4-0.3-0.7-0.4
		c-0.3-0.1-0.6-0.2-1-0.3c-0.4-0.1-0.7-0.2-1.1-0.3c-0.4-0.1-0.7-0.2-1-0.4c-0.3-0.2-0.5-0.4-0.7-0.7c-0.2-0.3-0.3-0.7-0.3-1.1
		s0.1-0.8,0.3-1.2c0.2-0.4,0.6-0.7,1.1-0.9c0.5-0.2,1.1-0.3,1.8-0.3c0.5,0,1,0.1,1.5,0.2s0.9,0.3,1.3,0.6l-0.4,1
		c-0.4-0.2-0.7-0.4-1.1-0.5s-0.8-0.2-1.2-0.2c-0.5,0-0.9,0.1-1.2,0.2c-0.3,0.1-0.5,0.3-0.7,0.5c-0.1,0.2-0.2,0.4-0.2,0.7
		c0,0.3,0.1,0.5,0.3,0.7c0.2,0.2,0.4,0.3,0.7,0.4c0.3,0.1,0.6,0.2,1,0.3c0.4,0.1,0.7,0.2,1.1,0.3c0.4,0.1,0.7,0.2,1,0.4
		c0.3,0.2,0.5,0.4,0.7,0.7c0.2,0.3,0.3,0.6,0.3,1.1c0,0.4-0.1,0.8-0.3,1.2c-0.2,0.4-0.6,0.7-1.1,0.9
		C261.4,106.7,260.8,106.8,260.1,106.8"/>
	<path class="st1" d="M274.2,106.7H273v-8.4h5.9v1h-4.7L274.2,106.7L274.2,106.7z M274.1,102.3h4.3v1h-4.3V102.3z"/>
	<path class="st1" d="M286.6,106.8c-0.6,0-1.2-0.1-1.8-0.3c-0.5-0.2-1-0.5-1.4-0.9s-0.7-0.8-0.9-1.4c-0.2-0.5-0.3-1.1-0.3-1.7
		s0.1-1.2,0.3-1.7c0.2-0.5,0.5-1,0.9-1.4s0.9-0.7,1.4-0.9c0.5-0.2,1.1-0.3,1.8-0.3c0.6,0,1.2,0.1,1.8,0.3c0.5,0.2,1,0.5,1.4,0.9
		s0.7,0.8,0.9,1.4c0.2,0.5,0.3,1.1,0.3,1.7s-0.1,1.2-0.3,1.7c-0.2,0.5-0.5,1-0.9,1.4s-0.9,0.7-1.4,0.9
		C287.9,106.7,287.3,106.8,286.6,106.8 M286.6,105.7c0.5,0,0.9-0.1,1.3-0.2c0.4-0.2,0.7-0.4,1-0.7c0.3-0.3,0.5-0.6,0.7-1
		s0.2-0.8,0.2-1.3s-0.1-0.9-0.2-1.3c-0.2-0.4-0.4-0.7-0.7-1c-0.3-0.3-0.6-0.5-1-0.7s-0.8-0.2-1.3-0.2s-0.9,0.1-1.3,0.2
		c-0.4,0.2-0.7,0.4-1,0.7c-0.3,0.3-0.5,0.6-0.7,1s-0.2,0.8-0.2,1.3s0.1,0.9,0.2,1.3s0.4,0.7,0.7,1c0.3,0.3,0.6,0.5,1,0.7
		S286.2,105.7,286.6,105.7"/>
	<path class="st1" d="M295.3,106.7v-8.4h3.3c0.7,0,1.4,0.1,1.9,0.3c0.5,0.2,0.9,0.6,1.2,1c0.3,0.4,0.4,1,0.4,1.6s-0.1,1.1-0.4,1.6
		c-0.3,0.4-0.7,0.8-1.2,1s-1.2,0.3-1.9,0.3H296l0.5-0.6v3.1L295.3,106.7L295.3,106.7z M296.5,103.7l-0.5-0.6h2.6
		c0.8,0,1.4-0.2,1.8-0.5s0.6-0.8,0.6-1.4s-0.2-1.1-0.6-1.4s-1-0.5-1.8-0.5H296l0.5-0.6V103.7z M300.9,106.7l-2.1-3.1h1.3l2.2,3.1
		H300.9z"/>
	<path class="st1" d="M307.5,105.7h4.9v1h-6.1v-8.4h5.9v1h-4.7L307.5,105.7L307.5,105.7z M307.4,101.9h4.3v1h-4.3V101.9z"/>
	<polygon class="st1" points="319,106.7 315.3,98.3 316.6,98.3 320,106.1 319.3,106.1 322.7,98.3 323.9,98.3 320.2,106.7 	"/>
	<path class="st1" d="M328.5,105.7h4.9v1h-6.1v-8.4h5.9v1h-4.7L328.5,105.7L328.5,105.7z M328.4,101.9h4.3v1h-4.3V101.9z"/>
	<path class="st1" d="M337.7,106.7v-8.4h3.3c0.7,0,1.4,0.1,1.9,0.3c0.5,0.2,0.9,0.6,1.2,1c0.3,0.4,0.4,1,0.4,1.6s-0.1,1.1-0.4,1.6
		c-0.3,0.4-0.7,0.8-1.2,1s-1.2,0.3-1.9,0.3h-2.6l0.5-0.6v3.1L337.7,106.7L337.7,106.7L337.7,106.7z M338.9,103.7l-0.5-0.6h2.6
		c0.8,0,1.4-0.2,1.8-0.5s0.6-0.8,0.6-1.4s-0.2-1.1-0.6-1.4s-1-0.5-1.8-0.5h-2.6l0.5-0.6V103.7z M343.3,106.7l-2.1-3.1h1.3l2.2,3.1
		H343.3z"/>
	<path class="st2" d="M79.7,49.6c-1.9-2.8-4.4-5-7.4-6.8c-3.5-1.9-7.7-3.4-12.4-4.2c-5-0.9-10.5-1.6-16.2-2.1
		c-10.5-1.1-17.8-2.9-21.8-5.3c-2.7-1.7-3-3.3-3-4.4c0-1.6,1-3.1,2.9-4.6c4.3-3,10.7-4.6,19.1-4.6c5.6,0,11.7,0.7,18,2
		c6,1.4,11.1,3.1,15.2,5L77,26V10.5L75.7,10c-4.2-2-9.4-3.7-15.5-5C47.3,2.6,34.6,2.6,23.8,5.3c-5.6,1.4-10.2,3.6-13.7,6.6
		c-5,4.4-7.6,9.6-7.6,15.6c0,5,2,9.4,6,13.2c3.3,3.2,7.9,5.5,13.9,6.8c5.4,1.3,11.8,2.3,19.1,2.9c10.3,1,17.6,2.7,21.7,5.1
		c3,1.9,3,3.6,3,4.2c0,1.6-0.9,3.1-2.8,4.5c-4.2,3-11,4.5-20.1,4.5c-6,0-12.4-0.7-19.1-2c-6.1-1.2-11.4-2.8-15.7-4.9l-2.9-1.4v15.3
		l1.1,0.6c4.3,2.2,9.6,3.9,15.9,5c6.3,1.3,12.9,1.9,19.6,1.9c5.8,0,11.1-0.5,15.9-1.4c5.1-1,9.4-2.5,12.6-4.3
		c3.4-1.9,6.3-4.5,8.5-7.7c2.3-3.3,3.4-6.9,3.4-10.7C82.5,55.7,81.6,52.5,79.7,49.6L79.7,49.6z"/>
	<polygon class="st2" points="259.1,3 221.3,57.1 219.5,59.6 219.5,82.8 203.8,82.8 203.8,59.6 202,57.1 164.1,3 183.4,3 
		203.8,32.2 211.6,43.3 219.5,32.2 239.9,3 	"/>
	<path class="st2" d="M296.4,16.8l-9.6-13.7l-9.6,13.7l-45.9,65.6l-0.3,0.4h19.3l8.3-11.8H315l8.3,11.8h19.2L296.4,16.8z
		 M269.7,54.8l17-24.3l17,24.3H269.7z"/>
	<g id="A" class="st3">
		<path class="st4" d="M167.9,47.5c-5.4-0.5-12.1-0.9-19.7-0.7l-12.3-17.3V2.1l9.6,13.7L167.9,47.5z"/>
		<path class="st4" d="M169.8,50.5c-5.9-0.9-13-1.6-20.4-1.7l23.8,34h19.2L169.8,50.5z"/>
		<path class="st5" d="M120.9,50.8l15-21.3V2.1l-9.6,13.7L83.4,77l-4,5.5c0,0,0.1-0.1,0.2-0.1c1.7-1.1,13.5-8.7,30.6-16.3
			c19.3-8.5,45.3-16.9,71.2-15.8C181.4,50.4,152.9,44,120.9,50.8"/>
	</g>
	<rect x="4.6" y="102.4" class="st1" width="122.6" height="2.1"/>
</g>
<g>
	<path class="st6" d="M141.5,100.1v-7h2.7c0.6,0,1.1,0.1,1.6,0.3s0.8,0.5,1,0.8c0.2,0.4,0.4,0.8,0.4,1.3s-0.1,0.9-0.4,1.3
		c-0.2,0.4-0.6,0.6-1,0.8c-0.4,0.2-0.9,0.3-1.6,0.3H142l0.4-0.5v2.6L141.5,100.1L141.5,100.1z M142.5,97.6l-0.4-0.5h2.1
		c0.6,0,1.1-0.1,1.4-0.4c0.3-0.3,0.5-0.7,0.5-1.2s-0.2-0.9-0.5-1.2c-0.3-0.3-0.8-0.4-1.4-0.4h-2.1l0.4-0.5V97.6z M146.2,100.1
		l-1.8-2.5h1.1l1.8,2.5H146.2z"/>
	<path class="st6" d="M151.6,99.2h4.1v0.9h-5.1v-7h4.9V94h-3.9V99.2z M151.6,96.1h3.6V97h-3.6V96.1z"/>
	<path class="st6" d="M159.2,100.1v-7h1v6.1h3.8v0.9L159.2,100.1L159.2,100.1z"/>
	<path class="st6" d="M166,100.1l3.1-7h1l3.2,7h-1l-2.8-6.4h0.4l-2.8,6.4H166z M167.4,98.3l0.3-0.8h3.9l0.3,0.8H167.4z"/>
	<path class="st6" d="M177.3,100.1V94h-2.4v-0.9h5.8V94h-2.4v6.1H177.3z"/>
	<path class="st6" d="M183.7,100.1v-7h1v7H183.7z"/>
	<path class="st6" d="M191.8,100.2c-0.5,0-1-0.1-1.5-0.3c-0.4-0.2-0.9-0.4-1.2-0.8c-0.3-0.3-0.6-0.7-0.8-1.1s-0.3-0.9-0.3-1.4
		s0.1-1,0.3-1.4s0.4-0.8,0.8-1.1c0.3-0.3,0.7-0.6,1.2-0.8s0.9-0.3,1.5-0.3c0.5,0,1,0.1,1.5,0.3c0.4,0.2,0.8,0.4,1.2,0.8
		c0.3,0.3,0.6,0.7,0.8,1.1c0.2,0.4,0.3,0.9,0.3,1.4c0,0.5-0.1,1-0.3,1.4c-0.2,0.4-0.4,0.8-0.8,1.1s-0.7,0.6-1.2,0.8
		C192.8,100.1,192.3,100.2,191.8,100.2z M191.8,99.3c0.4,0,0.8-0.1,1.1-0.2s0.6-0.3,0.9-0.6c0.2-0.2,0.4-0.5,0.6-0.8
		c0.1-0.3,0.2-0.7,0.2-1.1s-0.1-0.7-0.2-1.1c-0.1-0.3-0.3-0.6-0.6-0.8s-0.5-0.4-0.9-0.6c-0.3-0.1-0.7-0.2-1.1-0.2
		c-0.4,0-0.7,0.1-1.1,0.2s-0.6,0.3-0.9,0.6s-0.4,0.5-0.6,0.8c-0.1,0.3-0.2,0.7-0.2,1.1s0.1,0.7,0.2,1.1c0.1,0.3,0.3,0.6,0.6,0.8
		c0.3,0.2,0.5,0.4,0.9,0.6C191.1,99.2,191.4,99.3,191.8,99.3z"/>
	<path class="st6" d="M198.9,100.1v-7h0.8l4.6,5.7h-0.4v-5.7h1v7h-0.8l-4.6-5.7h0.4v5.7H198.9z"/>
	<path class="st6" d="M211,100.2c-0.5,0-1-0.1-1.5-0.2c-0.5-0.2-0.9-0.4-1.1-0.6l0.4-0.8c0.3,0.2,0.6,0.4,1,0.6
		c0.4,0.2,0.8,0.2,1.3,0.2c0.4,0,0.7-0.1,1-0.1s0.4-0.2,0.6-0.4c0.1-0.2,0.2-0.3,0.2-0.6c0-0.2-0.1-0.4-0.2-0.6
		c-0.2-0.2-0.4-0.3-0.6-0.3s-0.5-0.2-0.8-0.2c-0.3-0.1-0.6-0.1-0.9-0.2c-0.3-0.1-0.6-0.2-0.8-0.3s-0.4-0.3-0.6-0.6
		c-0.1-0.2-0.2-0.5-0.2-0.9c0-0.4,0.1-0.7,0.3-1c0.2-0.3,0.5-0.5,0.9-0.7c0.4-0.2,0.9-0.3,1.5-0.3c0.4,0,0.8,0.1,1.2,0.2
		c0.4,0.1,0.7,0.3,1,0.5l-0.3,0.8c-0.3-0.2-0.6-0.3-0.9-0.4c-0.3-0.1-0.6-0.1-1-0.1c-0.4,0-0.7,0.1-1,0.2s-0.4,0.2-0.6,0.4
		c-0.1,0.2-0.2,0.3-0.2,0.6c0,0.3,0.1,0.4,0.2,0.6c0.2,0.2,0.4,0.3,0.6,0.3s0.5,0.2,0.8,0.2s0.6,0.2,0.9,0.2
		c0.3,0.1,0.6,0.2,0.8,0.3s0.4,0.3,0.6,0.6c0.1,0.2,0.2,0.5,0.2,0.9c0,0.3-0.1,0.7-0.3,1c-0.2,0.3-0.5,0.5-0.9,0.7
		C212.1,100.1,211.6,100.2,211,100.2z"/>
	<path class="st6" d="M218,100.1h-1v-7h1V100.1z M222.1,97h-4.2v-0.9h4.2V97z M222,93.1h1v7h-1V93.1z"/>
	<path class="st6" d="M227,100.1v-7h1v7H227z"/>
	<path class="st6" d="M232,100.1v-7h2.7c0.6,0,1.1,0.1,1.6,0.3s0.8,0.5,1,0.8c0.2,0.4,0.4,0.8,0.4,1.3s-0.1,0.9-0.4,1.3
		c-0.2,0.4-0.6,0.6-1,0.8c-0.4,0.2-0.9,0.3-1.6,0.3h-2.2l0.4-0.5v2.6L232,100.1L232,100.1z M233,97.6l-0.4-0.5h2.1
		c0.6,0,1.1-0.1,1.4-0.4c0.3-0.3,0.5-0.7,0.5-1.2c0-0.5-0.2-0.9-0.5-1.2c-0.3-0.3-0.8-0.4-1.4-0.4h-2.1l0.4-0.5V97.6z"/>
	<path class="st6" d="M243.1,100.2c-0.5,0-1-0.1-1.5-0.2c-0.5-0.2-0.9-0.4-1.1-0.6l0.4-0.8c0.3,0.2,0.6,0.4,1,0.6
		c0.4,0.2,0.8,0.2,1.3,0.2c0.4,0,0.7-0.1,1-0.1s0.4-0.2,0.6-0.4c0.1-0.2,0.2-0.3,0.2-0.6c0-0.2-0.1-0.4-0.2-0.6s-0.4-0.3-0.6-0.3
		s-0.5-0.2-0.8-0.2c-0.3-0.1-0.6-0.1-0.9-0.2c-0.3-0.1-0.6-0.2-0.8-0.3s-0.4-0.3-0.6-0.6c-0.1-0.2-0.2-0.5-0.2-0.9
		c0-0.4,0.1-0.7,0.3-1s0.5-0.5,0.9-0.7c0.4-0.2,0.9-0.3,1.5-0.3c0.4,0,0.8,0.1,1.2,0.2c0.4,0.1,0.7,0.3,1,0.5l-0.3,0.8
		c-0.3-0.2-0.6-0.3-0.9-0.4c-0.3-0.1-0.6-0.1-1-0.1c-0.4,0-0.7,0.1-1,0.2s-0.4,0.2-0.6,0.4c-0.1,0.2-0.2,0.3-0.2,0.6
		c0,0.3,0.1,0.4,0.2,0.6c0.2,0.2,0.4,0.3,0.6,0.3s0.5,0.2,0.8,0.2s0.6,0.2,0.9,0.2c0.3,0.1,0.6,0.2,0.8,0.3s0.4,0.3,0.6,0.6
		c0.1,0.2,0.2,0.5,0.2,0.9c0,0.3-0.1,0.7-0.3,1c-0.2,0.3-0.5,0.5-0.9,0.7C244.3,100.1,243.8,100.2,243.1,100.2z"/>
	<path class="st6" d="M254.8,100.1h-1v-7h4.9V94h-3.9L254.8,100.1L254.8,100.1z M254.7,96.4h3.6v0.9h-3.6L254.7,96.4L254.7,96.4z"/>
	<path class="st6" d="M265.1,100.2c-0.5,0-1-0.1-1.5-0.3c-0.5-0.2-0.9-0.4-1.2-0.8s-0.6-0.7-0.8-1.1s-0.3-0.9-0.3-1.4s0.1-1,0.3-1.4
		s0.4-0.8,0.8-1.1c0.3-0.3,0.7-0.6,1.2-0.8s0.9-0.3,1.5-0.3c0.5,0,1,0.1,1.5,0.3c0.5,0.2,0.8,0.4,1.2,0.8c0.3,0.3,0.6,0.7,0.8,1.1
		s0.3,0.9,0.3,1.4c0,0.5-0.1,1-0.3,1.4s-0.4,0.8-0.8,1.1s-0.7,0.6-1.2,0.8C266.1,100.1,265.6,100.2,265.1,100.2z M265.1,99.3
		c0.4,0,0.8-0.1,1.1-0.2s0.6-0.3,0.9-0.6c0.2-0.2,0.4-0.5,0.6-0.8s0.2-0.7,0.2-1.1s-0.1-0.7-0.2-1.1c-0.1-0.3-0.3-0.6-0.6-0.8
		c-0.2-0.2-0.5-0.4-0.9-0.6c-0.3-0.1-0.7-0.2-1.1-0.2c-0.4,0-0.7,0.1-1.1,0.2c-0.3,0.1-0.6,0.3-0.9,0.6s-0.4,0.5-0.6,0.8
		c-0.1,0.3-0.2,0.7-0.2,1.1s0.1,0.7,0.2,1.1c0.1,0.3,0.3,0.6,0.6,0.8c0.3,0.2,0.5,0.4,0.9,0.6C264.4,99.2,264.7,99.3,265.1,99.3z"/>
	<path class="st6" d="M272.2,100.1v-7h2.7c0.6,0,1.1,0.1,1.6,0.3s0.8,0.5,1,0.8c0.2,0.4,0.4,0.8,0.4,1.3s-0.1,0.9-0.4,1.3
		s-0.6,0.6-1,0.8s-1,0.3-1.6,0.3h-2.2l0.5-0.5v2.6L272.2,100.1L272.2,100.1z M273.2,97.6l-0.5-0.5h2.1c0.6,0,1.1-0.1,1.5-0.4
		c0.3-0.3,0.5-0.7,0.5-1.2s-0.2-0.9-0.5-1.2c-0.3-0.3-0.8-0.4-1.5-0.4h-2.1l0.5-0.5V97.6z M276.9,100.1l-1.8-2.5h1.1l1.8,2.5H276.9z
		"/>
	<path class="st6" d="M282.4,99.2h4.1v0.9h-5v-7h4.9V94h-3.9V99.2z M282.3,96.1h3.6V97h-3.6V96.1z"/>
	<path class="st6" d="M291.9,100.1l-3.1-7h1.1l2.8,6.4h-0.6l2.8-6.4h1l-3,7H291.9z"/>
	<path class="st6" d="M299.7,99.2h4.1v0.9h-5v-7h4.9V94h-3.9V99.2z M299.6,96.1h3.6V97h-3.6V96.1z"/>
	<path class="st6" d="M307.3,100.1v-7h2.7c0.6,0,1.1,0.1,1.6,0.3s0.8,0.5,1,0.8c0.2,0.4,0.4,0.8,0.4,1.3s-0.1,0.9-0.4,1.3
		s-0.6,0.6-1,0.8s-1,0.3-1.6,0.3h-2.2l0.5-0.5v2.6L307.3,100.1L307.3,100.1z M308.3,97.6l-0.5-0.5h2.1c0.6,0,1.1-0.1,1.5-0.4
		c0.3-0.3,0.5-0.7,0.5-1.2s-0.2-0.9-0.5-1.2c-0.3-0.3-0.8-0.4-1.5-0.4h-2.1l0.5-0.5V97.6z M312,100.1l-1.8-2.5h1.1l1.8,2.5H312z"/>
</g>
<path class="st6" d="M87.7,80.4"/>
<path class="st6" d="M93.5,52.4c-1.6-2.3-3.7-4.2-6.2-5.7c-2.9-1.6-6.4-2.8-10.4-3.5c-4.2-0.8-8.8-1.3-13.5-1.7
	C54.6,40.5,48.5,39,45.1,37c-2.3-1.4-2.5-2.8-2.5-3.7c0-1.3,0.8-2.6,2.5-3.9C48.6,27,54,25.7,61,25.7c4.7,0,9.8,0.6,15.1,1.7
	c5,1.2,9.3,2.6,12.7,4.2l2.4,1.1V19.8l-1-0.5c-3.5-1.7-7.9-3.1-12.9-4.2c-10.8-2-21.4-2-30.5,0.3c-4.7,1.2-8.6,3-11.4,5.5
	c-4.2,3.6-6.3,8-6.3,13c0,4.2,1.7,7.9,5,11c2.7,2.7,6.6,4.6,11.6,5.7c4.5,1.1,9.9,1.9,15.9,2.4c8.6,0.8,14.7,2.3,18.2,4.3
	c2.5,1.6,2.5,3,2.5,3.5c0,1.3-0.8,2.6-2.4,3.8c-3.5,2.5-9.2,3.7-16.8,3.7c-5,0-10.4-0.6-16-1.7c-5.1-1-9.5-2.4-13.2-4.1l-2.4-1.1
	v12.8l0.9,0.5c3.6,1.8,8.1,3.3,13.3,4.2c5.3,1.1,10.8,1.6,16.4,1.6c4.8,0,9.3-0.4,13.3-1.2c4.3-0.8,7.8-2.1,10.5-3.6
	c2.9-1.6,5.3-3.7,7.1-6.4c1.9-2.8,2.9-5.8,2.9-8.9C95.9,57.5,95.1,54.8,93.5,52.4L93.5,52.4z"/>
<polygon class="st6" points="243.4,13.4 211.8,58.6 210.3,60.8 210.3,80.1 197.2,80.1 197.2,60.8 195.7,58.6 164.1,13.4 180.1,13.4 
	197.2,37.8 203.7,47.2 210.3,37.8 227.4,13.4 "/>
<path class="st6" d="M274.5,25l-8-11.5l-8,11.5l-38.4,54.8l-0.2,0.3h16.1l6.9-9.8h47.3l6.9,9.8h16.1L274.5,25z M252.3,56.8
	l14.2-20.3l14.2,20.3H252.3z"/>
<g>
	<path class="st6" d="M167.2,50.6c-4.5-0.4-10.1-0.8-16.4-0.6l-10.3-14.5V12.7l8,11.5L167.2,50.6z"/>
	<path class="st6" d="M187.6,80.1h-16L154,55c4.8-0.9,9.8-1.6,14.7-1.8l0,0L187.6,80.1z"/>
</g>
<path class="st6" d="M127.9,53.8l12.5-17.6V13.6l-8,11.3L96.6,75.4l-3.3,4.6c0,0,0.1-0.1,0.2-0.1c1.4-0.9,11.3-7.2,25.6-13.4
	c10-4.3,22.1-8.7,35.1-11.1c4.8-0.9,9.8-1.5,14.7-1.8l0,0c3.2-0.2,6.4-0.2,9.7-0.1C178.4,53.5,154.6,48.2,127.9,53.8z"/>
<rect x="31.5" y="96.5" class="st6" width="101.7" height="1.7"/>
<path class="st6" d="M158.5,51.3c-4.2-0.2-8.2-0.2-12,0c-5.8,0-11.1,0.8-15.9,2c-15.8,3.1-24.4,8.5-24.4,8.5l-9.1,12.7
	c-2.6,3.2-3.8,5.3-3.8,5.3c49.3-30.4,85.2-26.5,85.2-26.5C172.2,52,164.6,51.5,158.5,51.3z"/>
</svg>
