<?xml version="1.0" encoding="UTF-8" standalone="no"?>
<svg id="svg2" height="226.39874" viewBox="0 0 999.9999 226.39877" width="1000" xmlns="http://www.w3.org/2000/svg">
   <g id="g12" fill="#212e5c" transform="matrix(1.1712163 0 0 -1.1712163 2 224.39875)">
      <path id="path14" d="m54.9453 62.4922c-12.914 0-23.6406 9.1914-26.0508 21.4531l-28.8945-5.582c4.92969-25.832 27.6914-45.3125 54.9453-45.3125 15.5391 0 29.5469 6.3476 39.7305 16.5273l-23.6445 18.2774c-4.4883-3.2852-10.0665-5.3633-16.086-5.3633m0 53.0818c6.0195 0 11.5977-2.078 16.086-5.472l23.6445 18.277c-10.1836 10.176-24.1914 16.527-39.7305 16.527-27.2539 0-50.01561-19.484-54.9453-45.3122l28.8945-5.6915c2.3008 12.3677 13.0274 21.6717 26.0508 21.6717m398.5977-57.0232c-14.664 0-25.391 10.7265-27.031 26.4883v8.3164c1.64 15.5425 12.367 26.2655 27.031 26.2655 16.75 0 28.566-12.586 28.566-30.4218-.109-18.0625-11.816-30.6484-28.566-30.6484m8.648 86.3552c-14.886 0-27.25-6.457-35.789-17.402v14.992h-30.207v-142.496h30.207v50.6719c8.43-11.1641 20.903-17.6211 35.789-17.6211 28.567 0 49.25 23.2031 49.25 56.039 0 32.7232-20.683 55.8162-49.25 55.8162m119.735-86.3552c-16.09 0-29.551 14.0078-29.551 30.6484 0 16.5238 13.461 30.4218 29.551 30.4218 15.867 0 29.332-13.898 29.332-30.4218.109-16.6406-13.356-30.6484-29.332-30.6484m0 86.3552c-31.848 0-58.555-25.394-58.555-55.8162 0-30.4296 26.707-56.039 58.555-56.039 31.629 0 58.113 25.6094 58.113 56.039 0 30.4222-26.484 55.8162-58.113 55.8162m72.453-109.3396h30.203v144.4726h-30.203zm144.906 66.3286c-14.449 3.937-18.824 5.578-18.824 11.378 0 3.723 5.144 6.457 12.586 6.457 9.082 0 20.246-3.5 29.988-9.519l12.149 21.449c-11.821 7.883-26.926 13.246-42.137 13.246-25.172 0-41.918-14.449-41.809-34.695.219-21.1212 17.184-27.1446 39.071-32.5079 10.949-2.8437 18.824-4.9258 18.824-11.5976 0-4.7071-5.801-8.1016-13.899-8.1016-14.226 0-26.265 5.1445-35.789 12.0391l-12.914-20.793c12.805-10.2891 30.977-16.0898 48.157-16.0898 26.269 0 43.449 13.4609 43.449 34.4765 0 23.3125-20.465 29.5508-38.852 34.2583m-94.89-66.3286h30.207v106.9296h-30.207zm15.214 154.2106c-9.304 0-16.527-7.66-16.527-16.089 0-9.083 7.223-16.528 16.527-16.528 8.864 0 16.086 7.445 16.086 16.528.114 8.429-7.113 16.089-16.086 16.089m-365.004-9.851h-30.207l-11.273-22.981h30.207zm-49.359-79.02c3.942 10.727 13.461 17.403 24.844 17.403 12.262 0 20.027-6.786 22.984-17.403zm23.641 44.106c-31.192 0-55.051-23.418-55.051-55.5979 0-32.8321 24.844-56.2539 56.691-56.2539 15.762 0 34.149 6.5664 43.672 16.5273l-19.265 19.6992c-5.801-5.582-16.086-9.5195-24.625-9.5195-12.586 0-21.891 7.8789-25.391 19.4805h77.051c0 40.1643-19.594 65.6643-53.082 65.6643m-108.024-.106c-13.898 0-25.828-6.129-32.285-15.871v13.461h-30.207v-106.9296h30.207v63.3711c0 11.6015 9.957 20.5745 22.543 20.5745 12.043 0 20.25-9.082 20.25-22.3245v-61.6211h29.109v68.0786c.114 24.187-16.414 41.261-39.617 41.261m-98.828 44.981c-9.305 0-16.527-7.66-16.527-16.086 0-9.086 7.222-16.531 16.527-16.531 8.863 0 16.09 7.445 16.09 16.531 0 8.426-7.227 16.086-16.09 16.086m-15.324-154.3206h30.207v106.9296h-30.207z"/>
      <path id="path16" d="m850.398 39.0703c0-3.6133-2.847-6.457-6.57-6.457-3.719 0-6.676 2.8437-6.676 6.457 0 3.6133 2.957 6.457 6.676 6.457 3.723-.1093 6.57-2.957 6.57-6.457zm-11.601 0c0-2.8476 2.074-5.1445 5.031-5.1445 2.848 0 4.926 2.2969 4.926 5.1445 0 2.8477-2.078 5.1445-4.926 5.1445-2.844 0-5.031-2.2968-5.031-5.1445zm4.047-3.3945h-1.531v6.4609c.546.1094 1.421.2188 2.515.2188 1.203 0 1.75-.2188 2.188-.4375.332-.3282.66-.7696.66-1.4219 0-.6602-.551-1.207-1.317-1.5352v-.1093c.657-.2188.989-.6563 1.204-1.5313.222-.9883.332-1.4219.441-1.6445h-1.645c-.214.2226-.328.8789-.546 1.5351-.106.6563-.547.9844-1.313.9844h-.656zm0 3.6133h.656c.875 0 1.531.3281 1.531.9843 0 .5469-.433.9883-1.422.9883-.437 0-.656 0-.875-.1133z"/>
   </g>
</svg>
