<?xml version="1.0" encoding="UTF-8"?>
<svg xmlns="http://www.w3.org/2000/svg" id="Layer_1" data-name="Layer 1" viewBox="0 0 512 512" width="512" height="512" fill="#d18f00">
    <path d="M395.5,11h-279a13.016,13.016,0,0,0-13,13V488a13.015,13.015,0,0,0,13,13h279a13.015,13.015,0,0,0,13-13V24A13.016,13.016,0,0,0,395.5,11ZM154.629,56.361H250V194.872H154.629Zm0,268.511H250V455.639H154.629ZM144.629,491H116.5a3.005,3.005,0,0,1-3-3v-22.36h31.129Zm0-35.361H113.5V324.872h31.129Zm0-140.767H113.5V261h31.129Zm0-63.872H113.5V204.872h31.129Zm0-56.128H113.5V56.361h31.129Zm0-148.511H113.5V24a3,3,0,0,1,3-3h28.128ZM357.371,491H154.629V465.639H357.371Zm0-35.361H260V324.872h97.371Zm0-140.767H154.629V261H357.371Zm0-63.872H154.629V204.872H357.371Zm0-56.128H260V56.361h97.371Zm0-148.511H154.629V21H357.371ZM398.5,488a3.005,3.005,0,0,1-3,3H367.371V465.639H398.5Zm0-32.36H367.371V324.872H398.5Zm0-140.767H367.371V261H398.5Zm0-63.872H367.371V204.872H398.5Zm0-56.128H367.371V56.361H398.5Zm0-148.511H367.371V21H395.5a3,3,0,0,1,3,3Z"/>
</svg>
