<svg id="Layer_1" enable-background="new 0 0 467.155 467.155" viewBox="0 0 467.155 467.155"
    xmlns="http://www.w3.org/2000/svg">
    <g fill="#a26e4d">
        <path
            d="m314.838 170.424c29.992-49.861 30.365-125.604-25.272-158.165-49.33-28.832-118.202-5.06-153.529 52.987-29.117 47.765-29.921 120.182 20.247 154.509l-86.909 144.137-16.275-9.604c-2.834-1.672-6.488-.749-8.188 2.07l-40.229 66.742c-8.402 13.938-3.016 32.354 10.236 40.173 14.217 6.733 32.295 5.415 41.334-9.58l40.244-66.764c1.602-3.336.905-6.091-2.09-8.265l-14.696-8.672 86.907-144.136c54.099 27.009 119.706-7.093 148.22-55.432zm-39.893-30.265 20.154-33.116 26.158 15.288c-2.575 12.561-7.195 25.036-13.759 36.853zm-147.511-1.318 16.321 9.539-11.6 19.06c-.604-1.876-4.544-20.8-4.721-28.599zm.517-13.596c1.61-16.33 6.734-32.831 15.152-48.241l32.522 19.008-25.631 42.116zm58.036-23.178 30.999 18.117-25.632 42.116-30.998-18.117zm6.24-10.252 20.154-33.116 30.999 18.117-20.154 33.116zm35.119 34.424 30.999 18.117-25.632 42.116-30.998-18.116zm6.24-10.252 20.154-33.116 30.999 18.117-20.154 33.116zm89.58-6.439-21.827-12.757 17.575-28.878c.604 1.876 5.4 29.377 4.252 41.635zm-9.948-55.356-22.24 36.543-30.998-18.117 28.485-46.805c10.318 7.176 18.749 16.858 24.753 28.379zm-35.112-34.438-28.488 46.809-30.998-18.116 22.185-36.453c.773-.021 26.351 2.483 37.301 7.76zm-69.847 22.637-21.729-12.7c12.401-8.047 25.781-13.507 39.237-16.068zm-32.316-4.988 26.076 15.24-20.154 33.116-32.541-19.018c7.62-11.432 16.673-21.275 26.619-29.338zm-38.092 143.758 16.265-26.725 30.999 18.117-22.51 36.987c-10.319-7.177-18.75-16.858-24.754-28.379zm35.112 34.438 22.513-36.991 30.998 18.117-16.216 26.644c-12.949.337-25.652-2.159-37.295-7.77zm63.872-12.82 16.196 9.466c-9.002 4.5-18.346 7.696-27.728 9.482zm28.178 2.57-21.939-12.822 25.631-42.116 32.51 19c-10.043 14.842-22.516 26.967-36.202 35.938z" />
        <path
            d="m463.083 253.299-27.477-13.125c-1.71-.817-3.707-.778-5.385.107l-22.144 11.677-22.955-11.642c-1.705-.865-3.723-.865-5.428 0l-22.89 11.608-20.967-11.588c-1.774-.98-3.926-.999-5.716-.048l-24.721 13.126c-2.659 1.412-3.86 4.575-2.809 7.396l45.007 120.704v50.559c0 19.194 15.615 34.81 34.81 34.81s34.811-15.616 34.811-34.81v-50.394l26.661-65.898c1.243-3.072-.239-6.57-3.312-7.813-3.072-1.243-6.569.24-7.812 3.312l-3.013 7.446h-25.628l9.44-56.09 19.597-10.335 19.917 9.514-4.421 12.749c-1.086 3.131.572 6.549 3.703 7.635 3.129 1.084 6.549-.572 7.635-3.703l6.179-17.817c1.002-2.886-.325-6.063-3.082-7.38zm-92.831 122.174h-12.099l-16.685-44.748h21.252zm34.967 29.824h-45.62v-17.824h45.62zm-72.34-152.885 18.369 10.152 9.453 56.161h-23.707l-21.32-57.179zm92.01 78.313-18.105 44.748h-12.22l7.531-44.748z" />
    </g>
</svg>