<svg clip-rule="evenodd" fill-rule="evenodd" height="300" image-rendering="optimizeQuality"
    shape-rendering="geometricPrecision" text-rendering="geometricPrecision"
    viewBox="0 0 1.70666 1.70666" width="300" xmlns="http://www.w3.org/2000/svg" version="1.1"
    xmlns:xlink="http://www.w3.org/1999/xlink" xmlns:svgjs="http://svgjs.dev/svgjs">
    <g width="100%" height="100%" transform="matrix(1,0,0,1,0,0)">
        <g id="Layer_x0020_1">
            <path
                d="m1.48215.950909c.0450945-.00922047.0791496-.0491969.0791496-.0969724v-.754953c0-.0545669-.0444252-.0989843-.0989921-.0989843l-1.21795-.00000394c-.0545669 0-.0989921.0444094-.0989921.0989803v.754957c0 .0477717.0340276.0877441.0791142.0969724-.00018898-.00293307-.00029528-.00588976-.00029528-.00887008 0-.0754213.0613268-.136748.136748-.136748h.0635276v-.301669c0-.0351693.028626-.0638031.0637913-.0638031h.730094c.0351732 0 .0637953.0286339.0637953.0638031v.301669h.063563c.0754213 0 .136744.0613307.136744.136748 0 .00298425-.0001063.00594094-.00029528.00887402zm-1.00351-.145622h.749327v-.311287h-.749327z"
                fill="#a26e4d" fill-opacity="1" data-original-color="#000000ff" stroke="none"
                stroke-opacity="1" />
            <path
                d="m.500496 1.18841c.00500394 0 .00985433-.00138976.014122-.00399213.0633346-.0386142.136012-.108146.169677-.173677.00684252-.0133189.0015748-.0296299-.0117323-.0364724-.0133386-.00685827-.0296299-.00160236-.0364803.0117283-.00623622.0121417-.0135512.0237362-.0215591.0347835-.0304606.0420315-.0833189.0900945-.128268.117453-.0127362.00775197-.0166496.0245394-.00889764.0372165.00494488.00808661.013685.0129606.0231378.0129606z"
                fill="#a26e4d" fill-opacity="1" data-original-color="#000000ff" stroke="none"
                stroke-opacity="1" />
            <path
                d="m.575528 1.43815c.00457874 0 .0090315-.00116142.0130433-.00337008.0412126-.0227362.0824882-.049748.121024-.0766181.0774567-.0540039.153201-.115937.217055-.185614.0442362-.0482638.0852638-.103138.112323-.16302.00616142-.013622.00009055-.0296969-.0135276-.0358543-.0136496-.00617323-.0296772-.00013386-.0358465.0135197-.0286102.0633622-.0750315.121075-.123472.170425-.0600906.0612165-.129327.115976-.200063.164409-.0330394.022622-.0685236.0458701-.103638.0652795-.0130945.00724409-.0178898.0236929-.0106614.036811.0047874.00869685.0138701.0140315.0237638.0140315z"
                fill="#a26e4d" fill-opacity="1" data-original-color="#000000ff" stroke="none"
                stroke-opacity="1" />
            <path
                d="m1.3457 1.02545c.0459843 0 .0834134-.0374291.0834134-.0834134 0-.0459803-.0374252-.0834173-.0834134-.0834173h-.984772c-.0459882 0-.0834173.0374331-.0834173.0834173 0 .0459882.0374331.0834134.0834173.0834134z"
                fill="#a26e4d" fill-opacity="1" data-original-color="#000000ff" stroke="none"
                stroke-opacity="1" />
            <path
                d="m1.20407 1.19314c.00947244 0 .0182362-.0048937.0231811-.0130079.00774016-.0127323.00365748-.0294843-.00906299-.0372283-.048189-.0293425-.126441-.0946496-.140504-.151079-.0036063-.0144646-.0183583-.0233661-.0328307-.0197638-.0144528.00360236-.0233504.0183701-.0197559.0328346.0182992.0735551.102705.146366.164941.184276.00424409.00259055.00905512.0039685.0140315.0039685z"
                fill="#a26e4d" fill-opacity="1" data-original-color="#000000ff" stroke="none"
                stroke-opacity="1" />
            <path
                d="m1.13135 1.43676c.0116457 0 .0220039-.00749606.0256772-.0185669.00470866-.014189-.00299606-.0295118-.0171575-.0342559-.0145236-.00487008-.0304528-.0125157-.0441024-.019311-.0365039-.0181732-.0715945-.0400945-.10448-.0641575-.112094-.0820157-.201098-.191106-.264307-.31448-.00682283-.0133228-.0231378-.0185787-.0364567-.0117559-.0133307.00682283-.0185827.0231457-.0117559.0364724.0675.131701.162189.248429.282252.335575.0449016.0325984.108425.0714764.161902.0891181.00272047.00090158.00556693.0013622.00842913.0013622z"
                fill="#a26e4d" fill-opacity="1" data-original-color="#000000ff" stroke="none"
                stroke-opacity="1" />
            <path
                d="m1.1249 1.70666c.0067874 0 .0133504-.00254331.0183504-.00714567.00642913-.00591339.00961417-.0146142.00854331-.0232795-.0185197-.149717.00235433-.299909.0539488-.441185.0274331-.075122.0662205-.155311.112346-.221138.00858268-.012252.00562205-.0291457-.00663386-.0377283-.0122559-.00857874-.0291496-.00561417-.0377323.0066378-.0449173.0641378-.0831142.141232-.111217.213925-.052626.13611-.078622.2815-.069874.427516l.00116929.0194921-.0186654-.00574409c-.198189-.0609409-.404224-.182835-.506264-.369173-.00718898-.013126-.0236535-.0179685-.0367835-.0107717-.0131181.00718504-.0179409.0236575-.0107559.0367795.0794646.145154.211622.251031.357894.32387.0527992.0262953.108051.0486614.16426.0665748.0245354.0078189.0505945.0155236.0758543.0208031.00182677.00037795.00369291.00056693.00555906.00056693z"
                fill="#a26e4d" fill-opacity="1" data-original-color="#000000ff" stroke="none"
                stroke-opacity="1" />
            <path
                d="m.581713 1.70666c.00185433 0 .00369685-.00019685.00551181-.0005748.0253189-.00533071.0512756-.0129646.0758819-.0207992.0562087-.0178976.111449-.040248.164256-.0665276.14628-.0728071.278413-.178654.35787-.323815.0071811-.013122.00235039-.0295906-.0107677-.0367756-.013122-.00718504-.0295906-.00235039-.0367717.0107638-.101988.186374-.308035.308205-.506228.369083l-.0186614.00573228.00116929-.0194843c.00874409-.146016-.0172441-.291417-.0698661-.427531-.0280827-.0726496-.0663031-.149835-.111224-.213913-.00859449-.0122598-.0254803-.0152441-.0377402-.00664567-.012252.00858268-.0152323.0254724-.00664567.0377283.0461614.0658504.0849567.145961.112421.221114.0516299.141283.0724921.291488.0539055.441213-.00107874.00866535.0021063.0173622.0085315.0232795.00500787.0046063.0115591.00715354.0183583.00715354z"
                fill="#a26e4d" fill-opacity="1" data-original-color="#000000ff" stroke="none"
                stroke-opacity="1" />
        </g>
    </g>
</svg>