<?xml version="1.0" encoding="UTF-8"?>
<svg xmlns="http://www.w3.org/2000/svg" viewBox="0 0 64 64" width="512" height="512">
    <g id="Outline" fill="#d18f00">
        <path d="M61,2H3A1,1,0,0,0,2,3V41a1,1,0,0,0,1,1h8a1,1,0,0,0,0-2H4V4H60V40H53a1,1,0,0,0,0,2h8a1,1,0,0,0,1-1V3A1,1,0,0,0,61,2Z"/>
        <path d="M50.538,38H52a1,1,0,0,0,1-1V33a1,1,0,0,0-1-1H51V13a1,1,0,0,0-1-1H42.173a14.857,14.857,0,0,0-9.5-3.967.622.622,0,0,0-.071-.019.717.717,0,0,0-.081.011C32.346,8.019,32.175,8,32,8a14.882,14.882,0,0,0-10.173,4H14a1,1,0,0,0-1,1V32H12a1,1,0,0,0-1,1v4a1,1,0,0,0,1,1h1.462c2.658,4.135,3.4,11.522,3.572,16.8-.006.03-.024.056-.028.088a.978.978,0,0,0,.044.412c.084,3.245-.044,5.578-.048,5.64a1,1,0,1,0,2,.118c.014-.232.12-2.174.08-4.932,1.559.173,3.146.343,4.783.487C23.994,59.19,24,60.946,24,61a1,1,0,0,0,2,0c0-.211,0-1.849-.12-4.226,1.636.115,3.336.192,5.12.214V61a1,1,0,0,0,2,0V56.986q2.454-.018,4.915-.132c-.015,2.366.075,3.994.087,4.2A1,1,0,0,0,39,62l.06,0A1,1,0,0,0,40,60.941c0-.052-.095-1.722-.073-4.193q2.505-.154,4.994-.4c-.032,2.643.07,4.489.083,4.715A1,1,0,0,0,46,62l.06,0A1,1,0,0,0,47,60.941C46.988,60.778,46.114,44.883,50.538,38Zm-32.9,5.187q2.308.257,4.632.431c.356,1.584.64,3.259.864,4.923-1.57-.149-3.1-.319-4.606-.488A44.513,44.513,0,0,0,17.637,43.187Zm6.712.582c2.219.132,4.438.2,6.651.216v5c-2.035-.026-3.966-.126-5.819-.271C24.966,47.065,24.693,45.386,24.349,43.769ZM41.229,38a21.326,21.326,0,0,0-1.477,3.758c-2.246.136-4.5.2-6.752.222V38ZM31,41.983q-3.572-.027-7.135-.248A26.645,26.645,0,0,0,22.609,38H31Zm2,2q3.105-.024,6.221-.193a47.175,47.175,0,0,0-.843,5.042q-2.693.133-5.378.152Zm8.305-.334q2.538-.183,5.057-.46a44.9,44.9,0,0,0-.919,5.094c-1.669.177-3.349.314-5.033.425A43.131,43.131,0,0,1,41.305,43.651Zm5.642-2.532c-1.679.2-3.367.352-5.058.483A15.91,15.91,0,0,1,43.538,38h4.687A20.266,20.266,0,0,0,46.947,41.119ZM49,32H43.981a14.925,14.925,0,0,0,0-18H49ZM24.414,32,41.865,14.549a12.879,12.879,0,0,1,3.1,7.828A14.86,14.86,0,0,0,33.491,32ZM22.808,13.808c.019-.02.04-.036.059-.055a.794.794,0,0,0,.1-.087,12.889,12.889,0,0,1,8.462-3.638,12.966,12.966,0,0,1-12.276,11.1A12.891,12.891,0,0,1,22.808,13.808Zm6.364,4.949a14.975,14.975,0,0,0,4.257-8.674,12.871,12.871,0,0,1,7.022,3.052L22.135,31.451a12.89,12.89,0,0,1-3.129-8.323A15.036,15.036,0,0,0,29.172,18.757Zm9.192,9.192a12.851,12.851,0,0,1,6.555-3.536A12.89,12.89,0,0,1,41.367,32H35.624A13.054,13.054,0,0,1,38.364,27.949ZM15,14h5.019a14.84,14.84,0,0,0-2.972,8.035c0,.024-.017.043-.018.068s.011.044.011.068c-.015.276-.04.55-.04.829a14.874,14.874,0,0,0,3.019,9H15ZM13,34H34.057a.992.992,0,0,0,.118.018A1.032,1.032,0,0,0,34.284,34H51v2H13Zm7.4,4a20.357,20.357,0,0,1,1.35,3.572c-1.57-.126-3.137-.275-4.7-.459A20.271,20.271,0,0,0,15.775,38ZM19.023,54.108c-.05-1.257-.134-2.616-.267-4.017,1.511.169,3.045.336,4.626.481.154,1.408.271,2.77.357,4.023C22.128,54.45,20.563,54.28,19.023,54.108Zm6.742.652c-.082-1.243-.2-2.6-.345-4.019,1.777.132,3.628.223,5.58.247v4C29.177,54.965,27.439,54.882,25.765,54.76ZM33,54.986v-4q2.584-.02,5.177-.143c-.118,1.412-.189,2.77-.226,4.008Q35.473,54.967,33,54.986Zm6.967-.246c.04-1.245.112-2.6.234-4.011q2.52-.159,5.021-.414c-.128,1.405-.207,2.762-.253,4.015Q42.478,54.585,39.967,54.74Z"/>
    </g>
</svg>
