<?xml version="1.0" encoding="utf-8"?>
<!-- Generator: Adobe Illustrator 24.3.0, SVG Export Plug-In . SVG Version: 6.00 Build 0)  -->
<svg version="1.1" id="svg4779" xmlns:svg="http://www.w3.org/2000/svg"
	 xmlns="http://www.w3.org/2000/svg" xmlns:xlink="http://www.w3.org/1999/xlink" x="0px" y="0px" viewBox="0 0 682.7 682.7"
	 style="enable-background:new 0 0 682.7 682.7;" xml:space="preserve">
<style type="text/css">
	.st0{clip-path:url(#SVGID_2_);}
	.st1{fill:none;stroke:#D18F00;stroke-width:26.6667;stroke-linecap:round;stroke-linejoin:round;stroke-miterlimit:13.3333;}
</style>
<g id="g4785" transform="matrix(1.3333333,0,0,-1.3333333,0,682.66667)">
	<g id="g4787">
		<g>
			<defs>
				<rect id="SVGID_1_" x="-85.3" y="-85.3" width="682.7" height="682.7"/>
			</defs>
			<clipPath id="SVGID_2_">
				<use xlink:href="#SVGID_1_"  style="overflow:visible;"/>
			</clipPath>
			<g id="g4789" class="st0">
				<g id="g4795" transform="translate(70.8066,114.8037)">
					<path id="path4797" class="st1" d="M0,0l-60.8-60.8l0,0C-36-85.2,3.8-85.1,28.4-60.5L84.7-4.1"/>
				</g>
				<g id="g4799" transform="translate(457.3723,260.0163)">
					<path id="path4801" class="st1" d="M0,0c7.3,20.2,11.4,42,11.4,64.7v77.5c0,40.9-33.1,74-74,74l0,0c-19.6,0-38.5-7.8-52.3-21.7
						l-73.5-73.5"/>
				</g>
				<g id="g4803" transform="translate(279.4517,135.4599)">
					<path id="path4805" class="st1" d="M0,0c49.5,0,94.6,19,128.4,50.2"/>
				</g>
				<g id="g4807" transform="translate(468.2247,410.7934)">
					<path id="path4809" class="st1" d="M0,0l33.7-33.7H4.3"/>
				</g>
				<g id="g4811" transform="translate(408.0272,393.9286)">
					<path id="path4813" class="st1" d="M0,0L0,0"/>
				</g>
				<g id="g4815" transform="translate(268.8606,381.0068)">
					<path id="path4817" class="st1" d="M0,0L0,0l-245.5-245.5c79.8-45.5,180.3-31.8,245.3,33.1C58.4-153.8,58.6-58.6,0,0z"/>
				</g>
				<g id="g4819" transform="translate(51.6021,164.0752)">
					<path id="path4821" class="st1" d="M0,0c56.7-3.3,114.1,17.4,156.3,59.6c37.2,37.2,51,89.4,40.9,137.3"/>
				</g>
				<g id="g4823" transform="translate(225.204,135.4599)">
					<path id="path4825" class="st1" d="M0,0h276.8"/>
				</g>
				<g id="g4827" transform="translate(340.043,135.4599)">
					<path id="path4829" class="st1" d="M0,0l42.3-42.3"/>
				</g>
				<g id="g4831" transform="translate(382.3607,77.1422)">
					<path id="path4833" class="st1" d="M0,0v16h16c22.6,0,41-18.4,41-41v-16H41C18.4-41,0-22.6,0,0z"/>
				</g>
				<g id="g4835" transform="translate(437.0403,219.8672)">
					<path id="path4837" class="st1" d="M0,0L0,0"/>
				</g>
			</g>
			<use xlink:href="#SVGID_1_"  style="overflow:visible;fill:none;stroke:#D18F00;stroke-miterlimit:10;"/>
		</g>
	</g>
</g>
</svg>
