<svg id="Capa_1" enable-background="new 0 0 512 512" height="512" viewBox="0 0 512 512" width="512" xmlns="http://www.w3.org/2000/svg" fill="#a26e4d"><g><g><g><path d="m421.954 409.996h-175.773c11.701 14.471 18.576 32.813 18.576 52.413 0 22.785 14.527 42.237 34.804 49.591h116.563c28.168 0 51.002-22.834 51.002-51.002 0 0-.01-7.548-.031-8.144-.832-24.039-21.088-42.858-45.141-42.858z"/><path d="m234.159 462.41c0-8.62-2.89-17.146-7.668-24.811-10.827-17.372-30.157-27.603-50.627-27.603h-85.818c-24.053 0-44.308 18.819-45.14 42.858-.021.596-.031 8.144-.031 8.144 0 28.168 22.834 51.002 51.002 51.002h154.687c-10.302-13.866-16.405-31.028-16.405-49.59z"/></g><g><path d="m295.114 280.938c-25.992 24.249-54.062 43.538-83.43 57.331-32.687 15.351-67.099 23.903-102.461 25.53v15.6h293.556v-100.199c0-31.73-19.021-59.002-46.274-71.082-12.086 18.36-32.545 45.907-61.391 72.82z"/><path d="m257.49 226.719c-.496.007-.986.011-1.481.011-.004 0-.008 0-.011 0-25.013-.002-47.829-9.583-64.976-25.265h-4.064c-42.932 0-77.736 34.803-77.736 77.736v53.989c18.591-.953 36.769-4.046 54.497-9.248v-47.668c0-8.695 7.253-15.695 16.039-15.281 8.229.388 14.559 7.476 14.559 15.714v35.961c27.961-12.481 54.662-30.533 79.924-54.101 21.679-20.225 38.317-41.037 49.707-57.101h-3.255c-17.365 15.967-39.585 24.892-63.203 25.253z"/></g></g><path d="m322.377 105.404v-38.02c0-36.425-28.924-66.821-65.345-67.377-37.071-.566-67.409 29.426-67.409 66.37v39.027c-6.402 1.711-11.123 7.535-11.123 14.476v49.684c0 8.284 6.716 15 15 15 6.207 0 11.533-3.77 13.813-9.145 12.349 13.332 30.089 21.603 49.719 21.304 18.857-.288 35.692-8.588 47.555-21.569 2.217 5.514 7.606 9.411 13.913 9.411 8.284 0 15-6.716 15-15v-49.685c0-6.941-4.721-12.765-11.123-14.476z"/></g></svg>