<svg clip-rule="evenodd" fill-rule="evenodd" height="512" stroke-linejoin="round"
    stroke-miterlimit="2" viewBox="0 0 24 24" width="512" xmlns="http://www.w3.org/2000/svg">
    <g id="Icon" fill="#d8212a">
        <path
            d="m22 21.25h-20c-.414 0-.75.336-.75.75s.336.75.75.75h20c.414 0 .75-.336.75-.75s-.336-.75-.75-.75z" />
        <path
            d="m7.5 22.75h-.01c-.192-.002-.367-.077-.498-.198-.003-.003-.006-.006-.009-.009-.027-.025-.051-.052-.074-.081-.009-.011-.017-.023-.026-.035l-.003-.005c-.005-.007-.01-.015-.015-.022-.012-.019-.023-.039-.033-.059l-.005-.009c-.006-.013-.012-.027-.018-.04-.008-.02-.016-.04-.022-.06l-.006-.018-.003-.009c-.003-.012-.006-.024-.009-.036-.003-.015-.006-.03-.009-.046-.002-.015-.005-.031-.006-.046-.002-.021-.003-.041-.004-.062 0-.005 0-.01 0-.015v-7.5c0-.006 0-.013 0-.019l.001-.01c.001-.042.006-.082.014-.122l.002-.009c.009-.042.022-.082.037-.12l.004-.01c.034-.08.081-.153.138-.216l.011-.011c.021-.022.043-.043.066-.062l.007-.005c.091-.074.2-.126.319-.151l.018-.003.009-.002c.011-.002.023-.003.034-.005.02-.002.041-.004.061-.004.01-.001.019-.001.029-.001h5c.019 0 .038.001.057.002.016.001.032.003.048.005.047.007.093.018.137.033l.024.009.009.003c.02.008.04.017.059.026.01.005.019.01.029.016.087.048.164.113.226.191.024.03.045.062.064.096l.004.008c.011.02.021.04.03.061.021.047.037.096.047.147.004.016.006.032.009.048.002.015.004.031.005.046.001.019.002.039.002.059v7.5c0 .045-.004.09-.012.133 0 0-.001.009-.001.009-.002.009-.004.018-.006.027-.006.025-.013.048-.02.072l-.003.008c-.002.006-.005.012-.007.017-.007.02-.016.04-.025.059-.004.008-.008.016-.012.024-.021.041-.046.079-.074.114-.009.012-.018.023-.028.034-.008.009-.017.018-.025.027-.021.021-.043.041-.066.059-.019.016-.039.03-.059.044-.015.01-.031.019-.047.028-.015.009-.032.017-.048.025l-.017.007c-.015.007-.03.013-.045.019-.005.001-.01.003-.014.005-.015.005-.03.009-.045.013-.009.002-.018.005-.027.007l-.018.004-.009.002c-.006.001-.013.002-.019.003l-.018.003-.009.001c-.025.003-.051.005-.077.006h-.019 3.5c.414 0 .75-.336.75-.75v-20c0-.414-.336-.75-.75-.75h-12c-.414 0-.75.336-.75.75v20c0 .414.336.75.75.75zm4.25-7.5v6h-3.5v-6zm-4.75-3h1c.414 0 .75-.336.75-.75s-.336-.75-.75-.75h-1c-.414 0-.75.336-.75.75s.336.75.75.75zm5 0h1c.414 0 .75-.336.75-.75s-.336-.75-.75-.75h-1c-.414 0-.75.336-.75.75s.336.75.75.75zm-5-3h1c.414 0 .75-.336.75-.75s-.336-.75-.75-.75h-1c-.414 0-.75.336-.75.75s.336.75.75.75zm5 0h1c.414 0 .75-.336.75-.75s-.336-.75-.75-.75h-1c-.414 0-.75.336-.75.75s.336.75.75.75zm-5-3h1c.414 0 .75-.336.75-.75s-.336-.75-.75-.75h-1c-.414 0-.75.336-.75.75s.336.75.75.75zm5 0h1c.414 0 .75-.336.75-.75s-.336-.75-.75-.75h-1c-.414 0-.75.336-.75.75s.336.75.75.75z" />
        <path
            d="m17 1.25h-14c-.414 0-.75.336-.75.75s.336.75.75.75h14c.414 0 .75-.336.75-.75s-.336-.75-.75-.75z" />
        <path
            d="m20.75 22v-4c0-.414-.336-.75-.75-.75s-.75.336-.75.75v4c0 .414.336.75.75.75s.75-.336.75-.75z" />
        <path
            d="m20 10.75c-.651 0-1.268.314-1.755.895-.59.702-.995 1.828-.995 3.105s.405 2.403.995 3.105c.487.581 1.104.895 1.755.895s1.268-.314 1.755-.895c.59-.702.995-1.828.995-3.105s-.405-2.403-.995-3.105c-.487-.581-1.104-.895-1.755-.895z" />
    </g>
</svg>