<svg id="Layer_1" viewBox="0 0 512 512" xmlns="http://www.w3.org/2000/svg" data-name="Layer 1"
    width="300" height="300" version="1.1" xmlns:xlink="http://www.w3.org/1999/xlink"
    xmlns:svgjs="http://svgjs.dev/svgjs">
    <g width="100%" height="100%" transform="matrix(1,0,0,1,0,0)">
        <path
            d="m501 482.865v13.505h-490v-13.505c0-7.428 6.077-13.505 13.505-13.505h462.99c7.428 0 13.504 6.077 13.504 13.505zm-237.421-57.829h-6.461l-7.415 27.673c-.269 1.005-.743 1.9-1.366 2.652h24.022c-.623-.752-1.097-1.647-1.366-2.652l-7.415-27.673zm-170.93 0-7.415 27.673c-.269 1.005-.743 1.9-1.366 2.652h24.022c-.623-.752-1.097-1.647-1.366-2.652l-7.415-27.673h-6.461zm341.949 30.324v-189.804c0-5.667-4.636-10.303-10.303-10.303h-95.304c-5.667 0-10.303 4.636-10.303 10.303v189.804h-35.554c1.39-1.683 1.973-3.991 1.367-6.261l-6.702-25.011c2.067-.718 3.964-1.822 5.603-3.237 3.028-2.614 5.137-6.277 5.762-10.501l6.984-47.237c.559-3.82-2.086-7.371-5.906-7.93s-7.371 2.086-7.93 5.906l-6.984 47.237c-.119.807-.507 1.494-1.059 1.97-.537.464-1.271.739-2.101.739h-30.838c-3.866 0-7 3.134-7 7s3.134 7 7 7h1.312l-6.448 24.064c-.606 2.27-.023 4.577 1.367 6.261h-27.457v-78.551h22.032c3.866 0 7-3.134 7-7s-3.134-7-7-7h-108.044c-3.866 0-7 3.134-7 7s3.134 7 7 7h22.032v78.551h-27.46c1.39-1.683 1.973-3.991 1.367-6.261l-6.448-24.064h1.312c3.866 0 7-3.134 7-7s-3.134-7-7-7h-30.838c-.829 0-1.563-.275-2.101-.739-.552-.476-.939-1.163-1.058-1.97l-6.985-47.237c-.559-3.82-4.109-6.465-7.93-5.906s-6.465 4.109-5.906 7.93l6.985 47.237c.624 4.224 2.733 7.887 5.762 10.501 1.639 1.414 3.536 2.519 5.603 3.237l-6.702 25.011c-.606 2.27-.023 4.577 1.367 6.261h-35.551v-238.049c7.864 3.278 16.345 4.885 24.858 4.885 18.403 0 35.88-7.6 48.4-20.813 12.521 13.213 29.997 20.813 48.4 20.813s35.879-7.6 48.4-20.813c12.52 13.213 29.997 20.813 48.4 20.813s35.88-7.6 48.4-20.813c12.521 13.213 29.997 20.813 48.4 20.813s35.88-7.6 48.4-20.813c12.521 13.213 29.997 20.813 48.4 20.813 8.512 0 16.994-1.608 24.857-4.885v238.049h-39.86zm-155.769-192.974c0-3.923-3.209-7.133-7.133-7.133h-187.162c-3.923 0-7.133 3.21-7.133 7.133v65.98c0 3.923 3.21 7.133 7.133 7.133h187.162c3.923 0 7.133-3.21 7.133-7.133zm-89.715 13.411c-2.733-2.733-7.165-2.733-9.898 0l-27.136 27.136c-2.733 2.733-2.733 7.165 0 9.898s7.165 2.733 9.898 0l27.136-27.136c2.733-2.733 2.733-7.165 0-9.898zm5.139 15.366-13.895 13.895c-2.733 2.733-2.733 7.165 0 9.898s7.165 2.733 9.898 0l13.895-13.895c2.733-2.733 2.733-7.165 0-9.898s-7.165-2.733-9.898 0zm143.479 57.741v19.504c0 3.866 3.134 7 7 7s7-3.134 7-7v-19.504c0-3.866-3.134-7-7-7s-7 3.134-7 7zm160.268-188.194v-14.686h-89.8v42.07c9.836 12.5 25.004 20.102 41.4 20.102 3.39 0 6.728-.325 9.976-.951 22.524-4.341 38.423-23.596 38.423-46.535zm-103.8 27.384v-42.07h-82.8v42.07c9.836 12.5 25.004 20.102 41.4 20.102s31.564-7.603 41.4-20.102zm-96.8 0v-42.07h-82.8v42.07c9.836 12.5 25.005 20.102 41.4 20.102s31.564-7.603 41.4-20.102zm-96.8 0v-42.07h-82.8v42.07c9.836 12.5 25.005 20.102 41.4 20.102s31.564-7.603 41.4-20.102zm-148.177 19.151c3.249.626 6.587.951 9.977.951 16.396 0 31.564-7.603 41.4-20.102v-42.07h-89.8v14.686c0 22.939 15.899 42.194 38.423 46.535zm95.371-191.615h-45.095c-11.102 0-20.632 5.503-26.183 15.117l-58.474 101.278h87.869zm243.479 116.395-41.884-116.395h-53.25l14.443 116.395zm102.686 0-58.474-101.278c-5.551-9.614-15.082-15.117-26.183-15.117h-45.095l41.884 116.395h87.869zm-292.54 0 14.443-116.395h-53.25l-41.884 116.395zm95.063 0-14.443-116.395h-52.076l-14.443 116.395z"
            fill="#a89485" fill-opacity="1" data-original-color="#000000ff" stroke="none"
            stroke-opacity="1" />
    </g>
</svg>