<svg id="glipy" viewBox="0 0 64 64" xmlns="http://www.w3.org/2000/svg"><path d="m47.44688 31.87206a3.05253 3.05253 0 0 0 -3.91231.93209l-5.23068 8.76349a3.93291 3.93291 0 0 1 -3.6006 3.71586h-12.26344c-1.41475-.01941-1.407-2.42738-.00006-2.45276h12.2635a1.76 1.76 0 0 0 1.494-1.93767c0-2.24422-1.44024-4.05932-3.203-4.05932h-14.1981c-3.06319 0-5.92218 1.8887-7.63113 5.06495l-3.50383 6.4753 4.62165 11.626 5.92218-3.88762a8.92858 8.92858 0 0 1 3.3964-1.59427l12.57519-1.766a7.35965 7.35965 0 0 0 4.20246-2.89427l9.73417-15.23864a1.81068 1.81068 0 0 0 -.6664-2.74714z"/><path d="m56.13533 15.53823-8.78215-11.17465a.94007.94007 0 0 0 -1.15833-.26581c-.45153.589-10.35416 1.48655-11.20316 1.68044a7.67134 7.67134 0 0 0 -4.41483 2.63936l-2.05072 2.66787a10.98247 10.98247 0 0 1 9.30431 3.55089h4.69965a1.338 1.338 0 0 1 1.31977 1.33867c-.06282.67637.15872 1.65482-.30388 1.86088l-3.05717 1.75641-4.5382 2.62041a2.9174 2.9174 0 0 0 -1.23424 1.41457c-1.01409 2.564 1.67638 5.22252 4.18692 5.15541a4.00477 4.00477 0 0 0 2.06023-.56012l9.65566-5.56366c1.43358-.826 4.85153-3.08562 5.687-6.29467a.92924.92924 0 0 0 -.17086-.826z"/><path d="m29.675 31.12777a9.08379 9.08379 0 0 0 5.3832-1.75646 5.08359 5.08359 0 0 1 -.769-.67405c-2.37477-2.18783-2.2485-6.54008.71207-8.127l3.15208-1.82293a9.06383 9.06383 0 0 0 -8.64915-5.82c-11.97047.64733-11.77559 17.75082.1708 18.20044z"/></svg>