<svg id="Layer_1" enable-background="new 0 0 512 512" viewBox="0 0 512 512"
    xmlns="http://www.w3.org/2000/svg" width="300" height="300" version="1.1"
    xmlns:xlink="http://www.w3.org/1999/xlink" xmlns:svgjs="http://svgjs.dev/svgjs">
    <g width="100%" height="100%" transform="matrix(1,0,0,1,0,0)">
        <g>
            <g>
                <g>
                    <g id="XMLID_1_">
                        <g>
                            <path
                                d="m437.87 426.88v11.41c0 2.86-2.33 5.18-5.18 5.18h-349.57c-2.86 0-5.18-2.32-5.18-5.18v-11.41c0-2.85 2.32-5.18 5.18-5.18h349.57c2.85 0 5.18 2.33 5.18 5.18z"
                                fill="#a26e4d" fill-opacity="1" data-original-color="#000000ff"
                                stroke="none" stroke-opacity="1" />
                            <path
                                d="m138.74 223.37v142.02h-22.57c-1.86 0-3.44-1.58-3.44-3.44v-135.14c0-1.86 1.58-3.44 3.44-3.44z"
                                fill="#a26e4d" fill-opacity="1" data-original-color="#000000ff"
                                stroke="none" stroke-opacity="1" />
                            <path
                                d="m175 226.81v135.14c0 1.86-1.58 3.44-3.44 3.44h-22.59v-142.02h22.59c1.86 0 3.44 1.57 3.44 3.44z"
                                fill="#a26e4d" fill-opacity="1" data-original-color="#000000ff"
                                stroke="none" stroke-opacity="1" />
                            <path
                                d="m299.84 316.83v94.63h-87.67v-94.63c0-15.19 12.49-27.55 27.83-27.55h32.01c15.34 0 27.83 12.36 27.83 27.55z"
                                fill="#a26e4d" fill-opacity="1" data-original-color="#000000ff"
                                stroke="none" stroke-opacity="1" />
                            <path
                                d="m88.24 177.3v234.16h113.7v-94.63c0-20.83 17.07-37.79 38.06-37.79h32.01c20.99 0 38.06 16.96 38.06 37.79v94.63h113.7v-234.16zm96.99 184.64c0 7.56-6.14 13.69-13.68 13.69h-55.39c-7.55 0-13.68-6.13-13.68-13.68v-135.14c0-7.55 6.13-13.68 13.68-13.68h55.39c7.54 0 13.68 6.13 13.68 13.68zm224.29 0c.01 7.56-6.13 13.69-13.68 13.69h-55.39c-7.54 0-13.68-6.13-13.68-13.68v-135.14c0-7.55 6.14-13.68 13.68-13.68h55.39c7.55 0 13.68 6.13 13.68 13.68z"
                                fill="#a26e4d" fill-opacity="1" data-original-color="#000000ff"
                                stroke="none" stroke-opacity="1" />
                            <path
                                d="m363.04 223.37v142.01h-22.58c-1.86 0-3.44-1.58-3.44-3.44v-135.13c0-1.87 1.58-3.44 3.44-3.44z"
                                fill="#a26e4d" fill-opacity="1" data-original-color="#000000ff"
                                stroke="none" stroke-opacity="1" />
                            <path
                                d="m399.29 226.81v135.13c0 1.86-1.58 3.44-3.44 3.44h-22.57v-142.01h22.57c1.86 0 3.44 1.57 3.44 3.44z"
                                fill="#a26e4d" fill-opacity="1" data-original-color="#000000ff"
                                stroke="none" stroke-opacity="1" />
                            <path
                                d="m357.4 105.83c0 1.14-.31 2.19-.95 3.24-.47.78-1.18 1.45-2.13 2.05h-21.28v-12.69h13.25c3.74 0 5.85.57 6.94 1.05 1.31.57 2.27 1.39 3.01 2.59.78 1.25 1.16 2.48 1.16 3.76z"
                                fill="#a26e4d" fill-opacity="1" data-original-color="#000000ff"
                                stroke="none" stroke-opacity="1" />
                            <path
                                d="m359.78 128.08c0 1.51-.31 2.86-.93 4.14-.6 1.23-1.3 2.14-2.07 2.72-.85.65-2.05 1.17-3.54 1.55-1.72.44-3.95.67-6.63.67h-13.55-.02v-15.8h21.86c1.56.55 2.72 1.34 3.53 2.41.92 1.19 1.35 2.57 1.35 4.31z"
                                fill="#a26e4d" fill-opacity="1" data-original-color="#000000ff"
                                stroke="none" stroke-opacity="1" />
                            <path
                                d="m428.88 68.53h-345.76v.01c-23.22 0-42.12 18.9-42.12 42.12v14.27c0 23.23 18.9 42.12 42.12 42.12h345.77c23.23-.01 42.11-18.9 42.11-42.12v-14.27c0-23.23-18.9-42.13-42.12-42.13zm-233.55 59.5c-1.63 6.38-4.69 11.39-9.1 14.9-4.45 3.51-9.87 5.3-16.13 5.3s-11.52-1.37-15.66-4.04c-4.18-2.72-7.36-6.63-9.47-11.63-1.99-4.71-2.99-9.79-2.99-15.12 0-5.9 1.17-11.17 3.48-15.68 2.42-4.71 5.92-8.34 10.41-10.8 4.32-2.37 9.15-3.58 14.33-3.58 6.01 0 11.19 1.6 15.42 4.76 4.24 3.16 7.2 7.61 8.82 13.2.79 2.71-.78 5.56-3.49 6.34s-5.56-.78-6.34-3.5c-1-3.45-2.67-6.01-5.12-7.84-2.44-1.83-5.48-2.72-9.28-2.72-3.48 0-6.55.76-9.4 2.32-2.71 1.49-4.74 3.61-6.23 6.5-1.55 3.04-2.35 6.74-2.35 11 0 3.95.74 7.7 2.18 11.14 1.32 3.13 3.16 5.43 5.62 7.03 2.44 1.58 5.83 2.39 10.08 2.39 3.95 0 7.14-1.01 9.76-3.08 2.64-2.11 4.47-5.19 5.54-9.42.7-2.75 3.49-4.4 6.23-3.7s4.39 3.49 3.69 6.23zm48.51 19.36h-30.58c-2.83 0-5.12-2.3-5.12-5.12v-48.94c0-2.83 2.29-5.12 5.12-5.12s5.12 2.29 5.12 5.12v43.82h25.46c2.83 0 5.12 2.29 5.12 5.12 0 2.82-2.29 5.12-5.12 5.12zm64.55-25.78c0 5.6-.65 10.03-2.01 13.55-1.52 3.94-4.24 7.16-8.1 9.55-3.7 2.33-8.45 3.52-14.13 3.52-5.45 0-10.05-1.01-13.7-2.99-3.95-2.13-6.83-5.3-8.53-9.4-1.51-3.63-2.26-8.29-2.26-14.22v-28.29c0-2.83 2.29-5.12 5.12-5.12s5.12 2.29 5.12 5.12v28.28c0 4.49.49 7.95 1.47 10.29.79 1.91 2.08 3.31 3.95 4.33 2.15 1.16 5.11 1.76 8.82 1.76 3.73 0 6.65-.66 8.71-1.95 1.97-1.23 3.26-2.71 3.98-4.55.88-2.3 1.33-5.61 1.33-9.87v-28.29c0-2.83 2.29-5.12 5.12-5.12 2.82 0 5.11 2.29 5.11 5.12zm59.65 15.12c-1.32 2.68-3.04 4.83-5.11 6.39-1.94 1.46-4.35 2.57-7.16 3.28-2.58.67-5.58.99-9.17.99h-18.66c-2.83 0-5.12-2.3-5.12-5.12v-48.94c0-2.83 2.29-5.12 5.12-5.12h18.37c4.47 0 8.08.62 11.02 1.9 3.24 1.42 5.8 3.63 7.63 6.59 1.78 2.86 2.69 5.95 2.69 9.15 0 3.04-.83 5.93-2.46 8.59-.2.32-.4.62-.62.92.74.67 1.41 1.39 2.01 2.19 2.29 3.01 3.45 6.54 3.45 10.53 0 3.06-.67 5.97-1.99 8.65z"
                                fill="#a26e4d" fill-opacity="1" data-original-color="#000000ff"
                                stroke="none" stroke-opacity="1" />
                        </g>
                    </g>
                </g>
            </g>
        </g>
    </g>
</svg>