<svg id="Layer_1" enable-background="new 0 0 68 68" height="512" viewBox="0 0 68 68" width="512"
    xmlns="http://www.w3.org/2000/svg">
    <g fill="#d18f00">
        <path d="m29.6 11.9c-2.5 0-5.1.1-7.8.1-.4 0-.7.3-.7.6 0 .2-.1.4-.1.6-1 1.6-1 4.5-1.3 5.8-2.8 14.6-6.3 29-10.5 43.3-.2.7-.4 1.4-.2 2 0 .1 0 .2.1.3v.1c.6.9 1 1 2.1 1 15.6.7 30.9 1 46.5-.2.6 0 1.2-.5 1.3-1.3.1-.1.1-.3 0-.4-3.5-14.3-7.3-34.5-9.5-51.5 0-.4-.4-.7-.7-.7-2.9 0-5.7 0-8.5.1 0-2.9 0-5.8-.1-8.7.4 0 .7-.4.7-.8s-.4-.7-.8-.7c-4.6.3-4.6.1-5 .4-.4-.2-2.6-.1-5-.3-.7 0-1.1.9-.5 1.3.1 3.2.1 6.1 0 9zm25.7 42.1c-5.3.4-10.8.6-16.2.6 0-1.4 0-2.9-.1-4.3.4 0 .7-.4.7-.8s-.4-.7-.8-.7c-4.6.3-4.6.1-5 .4-.4-.2-2.7-.1-5-.3-.7 0-1.1.9-.5 1.3.1 1.5.1 2.9.1 4.3-5.5-.1-10.6-.2-14.9-.4 2.8-10.1 5.4-21.2 7.5-32.5 9.2-.1 19.1 0 28.3-.2 1.6 11 3.7 22.5 5.9 32.6zm-17.8 9.8c-1 0-1.9 0-2.9 0 .1-2.8.2-5.3.2-7.7h2.7c.1 3.1 0 4.9 0 7.7zm-7.7-13.3c1.3 0 2.1.1 3.4.1.1 1.3.1 2.7.1 4.1-1.2 0-2.3 0-3.4 0 0-1.4 0-2.8-.1-4.2zm-.1 13.4c.1-2.9.1-5 .2-7.7h3.4c0 2.3-.1 4.8-.2 7.7-1.1 0-2.2 0-3.4 0zm-1.4-3.3c0 1-.1 2.1-.1 3.2-5.5 0-11.3-.1-17.5-.3.8-2.6 1.6-5.2 2.4-7.9 4.4.2 9.6.4 15.3.4 0 1.6-.1 3.1-.1 4.6zm6.5-5.9c0-1.4 0-2.8-.1-4.1l2.7-.1c.1 1.4.1 2.8.1 4.3-.9-.1-1.8-.1-2.7-.1zm4.2 9.1c0-2.8 0-4.6 0-7.7 5.5-.1 11.1-.3 16.5-.7.6 2.7 1.2 5.3 1.8 7.7-5.6.4-11.6.6-18.3.7zm10.1-43.9c-9 .1-18.7 0-27.8.1.4-2.2.7-4.3 1.1-6.5 2.5-.1 4.9-.1 7.1-.1 0 1.1-.1 2.3-.1 3.4 0 .4.3.8.7.8.4 0 .7-.3.8-.7 0-1.1.1-2.3.1-3.4h3.5c0 1.1-.1 2.3-.1 3.5 0 .4.3.8.7.8s.8-.3.8-.7c.1-1.3.1-2.5.1-3.6h2.8v3.5c0 .4.3.8.8.8s.8-.3.8-.8c0-1.2 0-2.3 0-3.5 2.6 0 5.2 0 7.9-.1.2 2 .5 4.3.8 6.5zm-13.1-8.1c.1-3.1 0-5.8-.1-8.5l2.7-.1c.1 2.9.1 5.8.1 8.6-.8 0-1.7 0-2.7 0zm-1.5-8.4c.1 2.7.1 5.4.1 8.4-1.1 0-2.3 0-3.5 0 .1-2.9.1-5.6 0-8.6 1.3.2 2 .2 3.4.2z"/>
        <path d="m39.4 37.2c2.4 0 4.4-2 4.4-4.4s-2-4.4-4.4-4.4-4.4 2-4.4 4.4 2 4.4 4.4 4.4zm-1.2-1.8c.4-1.8 2-3.1 3.9-3.8 1 2.4-1.5 4.9-3.9 3.8zm1.2-5.5c.8 0 1.6.3 2.1.9-1.8.7-3.4 2.2-4.2 4-.5-.5-.8-1.2-.8-2 0-1.6 1.3-2.9 2.9-2.9z"/>
        <path d="m41.3 38.8c-.1-.4-.5-.6-.9-.6-.4.1-.7.5-.6.9l.3 1.5c.1.4.5.7.9.6s.7-.5.6-.9z"/>
        <path d="m43.5 37.4c-.2-.4-.7-.5-1-.3-.4.2-.5.7-.3 1l.8 1.4c.1.2.4.4.6.4.6 0 .9-.6.6-1.1z"/>
        <path d="m43.8 36.4.7.8c.3.3.7.3 1.1.1.3-.3.3-.8.1-1.1l-.7-.8c-.3-.3-.8-.3-1.1-.1-.4.3-.4.8-.1 1.1z"/>
    </g>
</svg>