<svg enable-background="new 0 0 512 512" viewBox="0 0 512 512" xmlns="http://www.w3.org/2000/svg" width="300" height="300" version="1.1" xmlns:xlink="http://www.w3.org/1999/xlink" xmlns:svgjs="http://svgjs.dev/svgjs"><g width="100%" height="100%" transform="matrix(1,0,0,1,0,0)"><g id="_x33_0_Cricket_Stump"><g><path d="m494.965 496.208-93.677-319.44c-.58-2.029-2.464-3.478-4.638-3.478h-41.452v-141.313c0-12.32-10.049-22.369-22.369-22.369-12.368 0-22.417 10.049-22.417 22.369v141.313h-32.031v-141.313c0-12.32-10.049-22.369-22.369-22.369-12.368 0-22.417 10.049-22.417 22.369v141.313h-32.031v-141.313c0-12.32-10.049-22.369-22.368-22.369-12.368 0-22.417 10.049-22.417 22.369v141.313h-41.452c-2.126 0-4.01 1.45-4.638 3.478l-93.677 319.44c-.387 1.449-.145 3.044.773 4.251.918 1.208 2.367 1.933 3.865 1.933h468.676c1.546 0 2.947-.725 3.865-1.933.919-1.208 1.209-2.802.774-4.251zm-466.84-3.479 90.827-309.777h37.828v54.158c0 12.368 10.049 22.417 22.417 22.417 12.32 0 22.368-10.049 22.368-22.417v-54.158h32.031v54.158c0 12.368 10.049 22.417 22.417 22.417 12.32 0 22.369-10.049 22.369-22.417v-54.158h32.031v54.158c0 12.368 10.049 22.417 22.417 22.417 12.32 0 22.369-10.049 22.369-22.417v-54.158h37.828l90.875 309.777z" fill="#a26e4d" fill-opacity="1" data-original-color="#000000ff" stroke="none" stroke-opacity="1"/><path d="m322.153 327.26s0-.048-.048-.048v-.048c-24.252-38.215-74.4-49.23-112.326-25.171-38.263 24.301-49.23 74.497-25.17 112.374.048 0 .048.048.048.048 24.108 37.974 74.159 49.23 112.278 25.074 38.359-24.349 49.132-74.546 25.218-112.229zm-136.723 66.333 14.01-8.889c2.222-1.401 2.899-4.397 1.498-6.668-1.45-2.271-4.445-2.898-6.667-1.497l-11.498 7.295c-5.266-28.166 6.812-57.588 32.176-73.676 29.422-18.648 67.54-13.624 91.117 12.078l-119.137 75.512c-.533-1.353-1.065-2.755-1.499-4.155zm106.335 37.731c-25.364 16.088-57.105 14.494-80.343-2.319l11.45-7.247c2.271-1.45 2.947-4.444 1.498-6.667-1.449-2.271-4.445-2.948-6.667-1.498l-14.011 8.841c-1.014-.966-2.029-1.981-2.995-2.995l119.138-75.56c12.946 31.886 1.497 68.701-28.07 87.445z" fill="#a26e4d" fill-opacity="1" data-original-color="#000000ff" stroke="none" stroke-opacity="1"/><path d="m282.985 372.183-16.324 10.351c-2.255 1.43-2.925 4.416-1.496 6.667 1.437 2.269 4.434 2.914 6.667 1.496l16.324-10.351c2.255-1.43 2.925-4.416 1.496-6.667-1.435-2.26-4.422-2.925-6.667-1.496z" fill="#a26e4d" fill-opacity="1" data-original-color="#000000ff" stroke="none" stroke-opacity="1"/><path d="m250.341 392.881-16.319 10.351c-2.255 1.43-2.925 4.416-1.496 6.667 1.431 2.261 4.425 2.919 6.667 1.496l16.319-10.351c2.255-1.43 2.925-4.416 1.496-6.667-1.43-2.26-4.417-2.926-6.667-1.496z" fill="#a26e4d" fill-opacity="1" data-original-color="#000000ff" stroke="none" stroke-opacity="1"/><path d="m315.624 351.485-16.319 10.347c-2.255 1.43-2.925 4.416-1.496 6.667 1.437 2.269 4.434 2.914 6.667 1.496l16.319-10.347c2.255-1.43 2.925-4.416 1.496-6.667-1.43-2.255-4.412-2.925-6.667-1.496z" fill="#a26e4d" fill-opacity="1" data-original-color="#000000ff" stroke="none" stroke-opacity="1"/><path d="m281.022 332.963 16.319-10.347c2.255-1.43 2.925-4.416 1.496-6.667-1.425-2.25-4.407-2.925-6.667-1.496l-16.319 10.347c-2.255 1.43-2.925 4.416-1.496 6.667 1.437 2.269 4.435 2.914 6.667 1.496z" fill="#a26e4d" fill-opacity="1" data-original-color="#000000ff" stroke="none" stroke-opacity="1"/><path d="m248.378 353.665 16.324-10.351c2.255-1.43 2.925-4.416 1.496-6.667-1.43-2.26-4.416-2.925-6.667-1.496l-16.324 10.351c-2.255 1.43-2.925 4.416-1.496 6.667 1.437 2.27 4.435 2.914 6.667 1.496z" fill="#a26e4d" fill-opacity="1" data-original-color="#000000ff" stroke="none" stroke-opacity="1"/><path d="m215.739 374.363 16.319-10.351c2.255-1.43 2.925-4.416 1.496-6.667-1.43-2.26-4.421-2.925-6.667-1.496l-16.319 10.351c-2.255 1.43-2.925 4.416-1.496 6.667 1.432 2.261 4.426 2.92 6.667 1.496z" fill="#a26e4d" fill-opacity="1" data-original-color="#000000ff" stroke="none" stroke-opacity="1"/></g></g><g id="Layer_1"/></g></svg>