<svg clip-rule="evenodd" fill-rule="evenodd" height="512" image-rendering="optimizeQuality" shape-rendering="geometricPrecision" text-rendering="geometricPrecision" viewBox="0 0 1706.66 1706.66" width="512"
    xmlns="http://www.w3.org/2000/svg"
    xmlns:xodm="http://www.corel.com/coreldraw/odm/2003">
    <g fill="#d18f00">
        <path d="m1185.99 1381.32h-665.32c-78.32 0-142.02-63.72-142.02-142.04v-656.59c0-78.31 63.7-142.02 142.02-142.02h665.32c78.31 0 142.03 63.7 142.03 142.02v656.6c0 78.31-63.72 142.04-142.03 142.04zm-665.32-900.65c-56.26 0-102.02 45.76-102.02 102.02v656.6c0 56.26 45.76 102.02 102.02 102.02l665.32.01c56.26 0 102.02-45.76 102.02-102.02v-656.6c0-56.26-45.76-102.02-102.02-102.02z"/>
        <path d="m1305.19 576.7h-903.72c-26.33 0-26.33-40 0-40h903.72c26.33 0 26.33 40 0 40z"/>
        <path d="m405.3 1299.01c-25.37 0-26.81-38.17-1.37-39.96l111.77-7.81v-116.57l-121.88-30.34c-25.57-6.36-15.86-45.17 9.65-38.81l137.06 34.11c8.92 2.22 15.16 10.22 15.16 19.4v150.85c0 10.51-8.13 19.22-18.61 19.96l-131.79 9.18z"/>
        <path d="m1301.37 1299.01-131.83-9.15c-10.47-.74-18.61-9.44-18.61-19.96v-150.85c0-9.18 6.26-17.18 15.18-19.4l137.06-34.11c25.52-6.35 35.22 32.46 9.65 38.82l-121.88 30.34v116.57l111.78 7.81c25.43 1.78 24.01 39.93-1.36 39.93z"/>
        <path d="m1158.39 1063.18h-610.11c-4.17 0-8.22-1.31-11.63-3.74l-149.63-106.81c-21.34-15.23 1.9-47.8 23.25-32.55l144.41 103.09 598.27-.01 144.95-85.01c22.7-13.29 42.97 21.18 20.24 34.51-20.56 12.06-147.71 90.51-159.74 90.51z"/>
        <path d="m1411.25 743.85c-11.04 0-20-8.96-20-20 0-134.25 13.79-121.16-83.23-121.16-26.33 0-26.32-40 0-40h56.74c36.67 0 66.5 29.82 66.5 66.48v94.68c-.01 11.05-8.96 19.99-20.01 19.99z"/>
        <path d="m1433.01 883.31c-31.64 0-93.34 7.59-93.34-49.79v-79.88c0-57.38 61.7-49.79 93.34-49.79 27.47 0 49.8 22.33 49.8 49.79v79.88c0 27.46-22.33 49.79-49.8 49.79zm-43.55-139.46c-5.31 0-9.78 4.49-9.78 9.79 0 105.7-13.5 89.67 53.33 89.67 5.32 0 9.79-4.49 9.79-9.79 0-105.7 13.49-89.67-53.34-89.67z"/>
        <path d="m295.42 743.85c-11.04 0-20-8.96-20-20v-94.67c0-36.67 29.82-66.48 66.48-66.48 36.65 0 76.74-7.67 76.74 20 0 46.32-103.23-8.66-103.23 46.48v94.68c0 11.05-8.94 19.99-20 19.99z"/>
        <path d="m317.2 883.31c-31.65 0-93.33 7.6-93.33-49.79v-79.88c0-57.38 61.69-49.79 93.33-49.79 27.46 0 49.78 22.33 49.78 49.79v79.88c.01 27.46-22.33 49.79-49.78 49.79zm-43.55-139.46c-5.31 0-9.79 4.49-9.79 9.79 0 105.69-13.49 89.67 53.34 89.67 5.3 0 9.79-4.49 9.79-9.79 0-105.69 13.49-89.67-53.34-89.67z"/>
        <path d="m643.77 1500.23h-84.26c-36.67 0-66.48-29.82-66.48-66.48v-72.66c0-26.33 40-26.32 40 0 0 114.12-14.94 99.13 110.74 99.13 57.35 0-1.83-118.91 46.48-118.91 11.04 0 20 8.97 20 20v72.44c0 36.67-29.83 66.48-66.48 66.48z"/>
        <path d="m1147.16 1500.23h-84.26c-36.67 0-66.48-29.82-66.48-66.48v-72.44c0-26.33 40-26.32 40 0 0 113.88-14.9 98.91 110.73 98.91 57.35 0-1.87-119.13 46.47-119.13 11.03 0 20 8.97 20 20v72.65c.03 36.67-29.79 66.5-66.45 66.5z"/>
        <path d="m1068.44 1288.37h-429.94c-13.94 0-23.65-14.03-18.72-27.07l47.35-125.3c2.94-7.79 10.39-12.94 18.71-12.94h334.98c8.32 0 15.78 5.15 18.71 12.94 6.12 16.24 48.91 124.62 48.91 132.38.01 11.03-8.95 19.99-20 19.99zm-401.01-40.02h371.81l-32.24-85.3h-307.34z"/>
        <path d="m1133.22 1063.18c-5.11 0-10.23-1.96-14.15-5.87l-138.61-138.61c-18.65-18.65 9.69-46.91 28.29-28.29l138.61 138.61c12.65 12.65 3.51 34.16-14.14 34.16z"/>
        <path d="m966.28 952.89c-17.63 0-26.81-21.51-14.15-34.16l56.66-56.66c18.63-18.61 46.93 9.68 28.3 28.29-18.89 18.87-55.77 62.53-70.81 62.53z"/>
        <path d="m740.39 1063.18c-5.12 0-10.24-1.96-14.13-5.87l-138.62-138.61c-18.64-18.64 9.68-46.91 28.28-28.29l138.61 138.61c12.66 12.66 3.48 34.16-14.14 34.16z"/>
        <path d="m573.43 952.89c-17.63 0-26.79-21.52-14.13-34.16l56.68-56.66c18.64-18.62 46.9 9.69 28.28 28.29-18.89 18.87-55.78 62.53-70.82 62.53z"/>
        <path d="m462.65 1219.24c-25.54 0-20-31.62-20-54.52 0-26.33 40-26.32 40 0 0 22.91 5.54 54.52-20 54.52z"/>
        <path d="m1239.48 1219.24c-25.54 0-20-31.62-20-54.52 0-26.33 40-26.32 40 0 0 22.91 5.54 54.52-20 54.52z"/>
        <path d="m1044.5 1225.71h-382.33c-26.33 0-26.33-40 0-40h382.32c26.32 0 26.32 40 .02 40z"/>
        <path d="m1686.61 1655.32h-143.86c-11.04 0-20-8.97-20-20v-1176.46c0-123.31-100.33-223.64-223.65-223.64h-891.53c-123.31 0-223.65 100.33-223.65 223.64v1176.46c0 11.04-8.96 20-20 20h-143.87c-11.04 0-20-8.97-20-20v-1176.46c0-224.71 182.81-407.52 407.52-407.52h891.51c224.71 0 407.53 182.81 407.53 407.52v1176.46c0 11.04-8.96 20-20 20zm-123.87-40.01h103.87v-1156.45c0-202.65-164.86-367.52-367.52-367.52h-891.52c-202.65 0-367.52 164.87-367.52 367.52v1156.47h103.88v-1156.47c0-145.36 118.27-263.63 263.64-263.63h891.51c145.38 0 263.65 118.27 263.65 263.63l-.01 1156.45z"/>
    </g>
</svg>