<svg id="Layer_1" viewBox="0 0 512 512" xmlns="http://www.w3.org/2000/svg" data-name="Layer 1"><path d="m354.393 122.906a103.462 103.462 0 0 0 -56-84.171l-5.876 45.25a7.969 7.969 0 0 1 -15.813-2l6.4-49.6c1.557-16.28-18.451-21.385-31.859-21.385s-33.413 5.1-31.855 21.381l6.441 49.6a7.969 7.969 0 1 1 -15.812 2l-5.879-45.27a103.464 103.464 0 0 0 -56.04 84.195h41.5v-32.745a8 8 0 1 1 16 0v32.745h91.282v-32.745a8 8 0 0 1 16 0v32.745zm-6.022 315.7a45.282 45.282 0 0 1 -56.02 60.152l32.183-32.182-6.11-22.8-22.8-6.11-32.183 32.183a45.282 45.282 0 0 1 60.154-56.019l76.923-76.93a45.885 45.885 0 0 1 9.9-49.141 44.62 44.62 0 0 1 46.117-11.012l-32.183 32.183 6.11 22.8 22.8 6.11 32.182-32.183a44.618 44.618 0 0 1 -11.011 46.117 45.886 45.886 0 0 1 -49.141 9.9l-76.921 76.926zm-217.333-285.494a14.248 14.248 0 0 0 14.207 14.206h212a14.206 14.206 0 1 0 0-28.412h-212a14.248 14.248 0 0 0 -14.207 14.206zm88.562 284.548h28.32a61.288 61.288 0 0 1 71.111-41.9l63.454-63.46a61.7 61.7 0 0 1 -.961-17.991 194.45 194.45 0 0 0 -223.924-26.109l.446 1.158a102.775 102.775 0 0 1 14.113 5.851l19.23-8.541 34.97 34.97-8.539 19.225a102.753 102.753 0 0 1 5.854 14.12l19.625 7.554v49.463l-19.63 7.555a102.65 102.65 0 0 1 -5.851 14.113l1.775 4zm152.342 0h61.1a9.963 9.963 0 0 0 9.86-11.665 193.052 193.052 0 0 0 -13.667-45.631l-57.3 57.3zm-26.29-254.341a98.311 98.311 0 0 1 -188.808 0zm-135.171 183.733a86.649 86.649 0 0 0 -10.521-25.382l7.321-16.483-19.433-19.433-16.489 7.323a86.663 86.663 0 0 0 -25.374-10.519l-6.476-16.826h-27.483l-6.476 16.826a86.669 86.669 0 0 0 -25.375 10.519l-16.488-7.323-19.433 19.434 7.322 16.487a86.627 86.627 0 0 0 -10.52 25.376l-16.825 6.476v27.482l16.823 6.475a86.67 86.67 0 0 0 10.521 25.381l-7.321 16.483 19.434 19.434 16.488-7.324a86.654 86.654 0 0 0 25.374 10.52l6.476 16.826h27.483l6.475-16.822a86.645 86.645 0 0 0 25.381-10.522l16.483 7.322 19.433-19.434-7.323-16.488a86.641 86.641 0 0 0 10.519-25.375l16.826-6.476v-27.483zm-84.714 68.148a47.929 47.929 0 1 1 47.933-47.932 47.927 47.927 0 0 1 -47.933 47.932z" fill-rule="evenodd"/></svg>