<?xml version="1.0" encoding="utf-8"?>
<!-- Generator: Adobe Illustrator 18.0.0, SVG Export Plug-In . SVG Version: 6.00 Build 0)  -->
<!DOCTYPE svg PUBLIC "-//W3C//DTD SVG 1.1//EN" "http://www.w3.org/Graphics/SVG/1.1/DTD/svg11.dtd">
<svg version="1.1" id="Capa_1" xmlns="http://www.w3.org/2000/svg" xmlns:xlink="http://www.w3.org/1999/xlink" x="0px" y="0px"
	 viewBox="0 0 512 512" enable-background="new 0 0 512 512" xml:space="preserve">
<g>
	<g>
		<polyline fill="none" stroke="#d18f00" stroke-width="15" stroke-miterlimit="10" points="269.5,439.8 269.5,504.5 179.5,504.5 
			179.5,439.8 		"/>
		<line fill="none" stroke="#d18f00" stroke-width="15" stroke-miterlimit="10" x1="179.5" y1="349.8" x2="179.5" y2="269.5"/>
		<line fill="none" stroke="#d18f00" stroke-width="15" stroke-miterlimit="10" x1="269.5" y1="349.8" x2="269.5" y2="269.5"/>
		<line fill="none" stroke="#d18f00" stroke-width="15" stroke-miterlimit="10" x1="179.5" y1="179.5" x2="179.5" y2="138.5"/>
		<line fill="none" stroke="#d18f00" stroke-width="15" stroke-miterlimit="10" x1="269.5" y1="179.5" x2="269.5" y2="138.5"/>
		<path fill="none" stroke="#d18f00" stroke-width="15" stroke-miterlimit="10" stroke-dasharray="30,15" d="M138.5,52.5"/>
		<path fill="none" stroke="#d18f00" stroke-width="15" stroke-miterlimit="10" stroke-dasharray="30,15" d="M224.5,138.5"/>
		<polyline fill="none" stroke="#d18f00" stroke-width="15" stroke-miterlimit="10" points="424.7,179.5 504.5,179.5 504.5,269.5 
			424.7,269.5 		"/>
		<path fill="none" stroke="#d18f00" stroke-width="15" stroke-miterlimit="10" d="M269.5,138.5c0-72.2-58.8-131-131-131
			s-131,58.8-131,131s58.8,131,131,131h196.2"/>
		<path fill="none" stroke="#d18f00" stroke-width="15" stroke-miterlimit="10" d="M179.5,138.5c0-22.6-18.4-41-41-41
			c-22.6,0-41,18.4-41,41c0,22.6,18.4,41,41,41h196.2"/>
		
			<line fill="none" stroke="#d18f00" stroke-width="15" stroke-miterlimit="10" stroke-dasharray="30,30" x1="213.1" y1="224.5" x2="243.1" y2="224.5"/>
		
			<line fill="none" stroke="#d18f00" stroke-width="15" stroke-miterlimit="10" stroke-dasharray="30,30" x1="474.5" y1="224.5" x2="504.5" y2="224.5"/>
		
			<line fill="none" stroke="#d18f00" stroke-width="15" stroke-miterlimit="10" stroke-dasharray="30,30" x1="444.5" y1="224.5" x2="424.7" y2="224.5"/>
		
			<line fill="none" stroke="#d18f00" stroke-width="15" stroke-miterlimit="10" stroke-dasharray="30,30" x1="153.1" y1="224.5" x2="183.1" y2="224.5"/>
		
			<line fill="none" stroke="#d18f00" stroke-width="15" stroke-miterlimit="10" stroke-dasharray="30,30" x1="273.2" y1="224.5" x2="303.2" y2="224.5"/>
		<path fill="none" stroke="#d18f00" stroke-width="15" stroke-miterlimit="10" stroke-dasharray="30,30" d="M95.2,212.8
			c8.5,5,18,8.5,28,10.3"/>
		<path fill="none" stroke="#d18f00" stroke-width="15" stroke-miterlimit="10" stroke-dasharray="30,30" d="M57.6,167.7
			c3.4,9.5,8.5,18.3,14.9,25.9"/>
		<path fill="none" stroke="#d18f00" stroke-width="15" stroke-miterlimit="10" stroke-dasharray="30,30" d="M57.7,108.9
			c-3.4,9.2-5.2,19.1-5.2,29.4"/>
		<path fill="none" stroke="#d18f00" stroke-width="15" stroke-miterlimit="10" stroke-dasharray="30,30" d="M95.7,63.9
			c-8.7,5-16.5,11.5-22.9,19.2"/>
		<path fill="none" stroke="#d18f00" stroke-width="15" stroke-miterlimit="10" stroke-dasharray="30,30" d="M153.6,53.8
			c-9.8-1.7-20-1.8-29.8,0"/>
		<path fill="none" stroke="#d18f00" stroke-width="15" stroke-miterlimit="10" stroke-dasharray="30,30" d="M204.4,83.3
			c-6.4-7.7-14.1-14.2-22.8-19.2"/>
		<path fill="none" stroke="#d18f00" stroke-width="15" stroke-miterlimit="10" stroke-dasharray="30,30" d="M224.5,138.5
			c0-10.3-1.8-20.2-5.2-29.4"/>
		<polyline fill="none" stroke="#d18f00" stroke-width="15" stroke-miterlimit="10" points="424.7,349.8 504.5,349.8 504.5,439.8 
			424.7,439.8 		"/>
		<line fill="none" stroke="#d18f00" stroke-width="15" stroke-miterlimit="10" x1="86.3" y1="349.8" x2="334.7" y2="349.8"/>
		<polyline fill="none" stroke="#d18f00" stroke-width="15" stroke-miterlimit="10" points="334.7,439.8 7.5,439.8 7.5,349.8 
			71.2,349.8 		"/>
		<g>
			<line fill="none" stroke="#d18f00" stroke-width="15" stroke-miterlimit="10" x1="67.5" y1="394.8" x2="97.5" y2="394.8"/>
			
				<line fill="none" stroke="#d18f00" stroke-width="15" stroke-miterlimit="10" stroke-dasharray="30,30" x1="7.5" y1="394.8" x2="37.5" y2="394.8"/>
		</g>
		<g>
			<line fill="none" stroke="#d18f00" stroke-width="15" stroke-miterlimit="10" x1="334.7" y1="394.8" x2="307.5" y2="394.8"/>
			
				<line fill="none" stroke="#d18f00" stroke-width="15" stroke-miterlimit="10" stroke-dasharray="30,30" x1="247.5" y1="394.8" x2="277.4" y2="394.8"/>
		</g>
		<g>
			<line fill="none" stroke="#d18f00" stroke-width="15" stroke-miterlimit="10" x1="474.5" y1="394.8" x2="504.5" y2="394.8"/>
			
				<line fill="none" stroke="#d18f00" stroke-width="15" stroke-miterlimit="10" stroke-dasharray="30,30" x1="444.5" y1="394.8" x2="424.7" y2="394.8"/>
		</g>
		<g>
			<line fill="none" stroke="#d18f00" stroke-width="15" stroke-miterlimit="10" x1="187.5" y1="394.8" x2="217.5" y2="394.8"/>
			
				<line fill="none" stroke="#d18f00" stroke-width="15" stroke-miterlimit="10" stroke-dasharray="30,30" x1="127.5" y1="394.8" x2="157.5" y2="394.8"/>
		</g>
		<polyline fill="none" stroke="#d18f00" stroke-width="15" stroke-miterlimit="10" points="424.7,73.5 424.7,504.5 334.7,504.5 
			334.7,7.5 424.7,7.5 424.7,58.5 		"/>
		<g>
			
				<line fill="none" stroke="#d18f00" stroke-width="15" stroke-miterlimit="10" stroke-dasharray="30,30" x1="379.7" y1="7.5" x2="379.7" y2="32.5"/>
		</g>
		<g>
			
				<line fill="none" stroke="#d18f00" stroke-width="15" stroke-miterlimit="10" stroke-dasharray="30,30" x1="379.7" y1="32.2" x2="379.7" y2="7.5"/>
		</g>
		<g>
			
				<line fill="none" stroke="#d18f00" stroke-width="15" stroke-miterlimit="10" stroke-dasharray="30,30" x1="379.7" y1="57.2" x2="379.7" y2="87.2"/>
		</g>
		<g>
			
				<line fill="none" stroke="#d18f00" stroke-width="15" stroke-miterlimit="10" stroke-dasharray="30,30" x1="379.7" y1="117.2" x2="379.7" y2="147.2"/>
		</g>
		<g>
			
				<line fill="none" stroke="#d18f00" stroke-width="15" stroke-miterlimit="10" stroke-dasharray="30,30" x1="379.7" y1="177.2" x2="379.7" y2="207.1"/>
		</g>
		<g>
			
				<line fill="none" stroke="#d18f00" stroke-width="15" stroke-miterlimit="10" stroke-dasharray="30,30" x1="379.7" y1="237.1" x2="379.7" y2="267.1"/>
		</g>
		<g>
			
				<line fill="none" stroke="#d18f00" stroke-width="15" stroke-miterlimit="10" stroke-dasharray="30,30" x1="379.7" y1="297.1" x2="379.7" y2="327.1"/>
		</g>
		<g>
			
				<line fill="none" stroke="#d18f00" stroke-width="15" stroke-miterlimit="10" stroke-dasharray="30,30" x1="224.5" y1="294.7" x2="224.5" y2="324.6"/>
		</g>
		<g>
			
				<line fill="none" stroke="#d18f00" stroke-width="15" stroke-miterlimit="10" stroke-dasharray="30,30" x1="224.5" y1="474.5" x2="224.5" y2="504.5"/>
		</g>
		<g>
			
				<line fill="none" stroke="#d18f00" stroke-width="15" stroke-miterlimit="10" stroke-dasharray="30,30" x1="224.5" y1="474.5" x2="224.5" y2="504.5"/>
		</g>
		<g>
			
				<line fill="none" stroke="#d18f00" stroke-width="15" stroke-miterlimit="10" stroke-dasharray="30,30" x1="379.7" y1="357.1" x2="379.7" y2="387"/>
		</g>
		<g>
			
				<line fill="none" stroke="#d18f00" stroke-width="15" stroke-miterlimit="10" stroke-dasharray="30,30" x1="379.7" y1="417" x2="379.7" y2="447"/>
		</g>
		<g>
			
				<line fill="none" stroke="#d18f00" stroke-width="15" stroke-miterlimit="10" stroke-dasharray="30,30" x1="379.7" y1="504.5" x2="379.7" y2="477"/>
		</g>
	</g>
</g>
</svg>
