<?xml version="1.0" encoding="utf-8"?>
<!-- Generator: Adobe Illustrator 24.3.0, SVG Export Plug-In . SVG Version: 6.00 Build 0)  -->
<svg version="1.1" id="Layer_1" xmlns="http://www.w3.org/2000/svg" xmlns:xlink="http://www.w3.org/1999/xlink" x="0px" y="0px"
	 viewBox="0 0 511 511" style="enable-background:new 0 0 511 511;" xml:space="preserve">
<style type="text/css">
	.st0{fill:#D18F00;}
</style>
<path class="st0" d="M509.4,148.8c-1.8-2.6-4.7-4.2-7.9-4.2h-10.8c1.9-3.7,3-7.9,3-12.4c0-15.1-12.3-27.4-27.4-27.4
	c-15.1,0-27.4,12.3-27.4,27.4c0,4.5,1.1,8.7,3,12.4h-14.4c-3.4,0-6.5,1.8-8.2,4.7c-1.7,2.9-1.7,6.5-0.1,9.4l12.4,21.9
	c1.4,2.5,3.8,4.2,6.6,4.7v23.8c-12.3-0.4-22.4-1.8-30.9-4c-0.4-0.1-0.8-0.2-1.2-0.3c-22.2-5.9-33.5-17-45.2-28.5
	c-16.2-15.9-33-32.4-75.8-34c-1.3-8.3-8.5-14.7-17.1-14.7h-25c-8.7,0-15.9,6.4-17.1,14.7c-42.9,1.7-59.6,18.1-75.8,34
	c-11.7,11.5-23,22.6-45.2,28.5c-0.4,0.1-0.8,0.2-1.2,0.3c-8.5,2.2-18.6,3.6-30.9,4v-23.8c2.7-0.5,5.2-2.2,6.6-4.7l12.4-21.9
	c1.6-2.9,1.6-6.5-0.1-9.4c-1.7-2.9-4.8-4.7-8.2-4.7H69.1c1.9-3.7,3-7.9,3-12.4c0-15.1-12.3-27.4-27.4-27.4
	c-15.1,0-27.4,12.3-27.4,27.4c0,4.5,1.1,8.7,3,12.4H9.5c-3.2,0-6.1,1.6-7.9,4.2s-2.1,5.9-0.9,8.9l8.9,21.9c1.2,3,3.8,5.1,6.9,5.7
	V228c0,4.1,3.4,7.5,7.5,7.5c4.1,0,7.5-3.4,7.5-7.5v-42.5h26.2v206.9H31.5V258c0-4.1-3.3-7.5-7.5-7.5c-4.1,0-7.5,3.4-7.5,7.5v139.9
	c0,5.2,4.3,9.5,9.5,9.5h39.2h0h380.4h0h39.2c5.2,0,9.5-4.3,9.5-9.5V231.7c0-4.1-3.3-7.5-7.5-7.5c-4.1,0-7.5,3.4-7.5,7.5v160.7h-26.2
	V185.5h26.2V202c0,4.1,3.3,7.5,7.5,7.5c4.1,0,7.5-3.4,7.5-7.5v-16.7c3.1-0.6,5.7-2.7,6.9-5.7l8.9-21.9
	C511.5,154.7,511.1,151.4,509.4,148.8z M453.9,132.2c0-6.8,5.6-12.4,12.4-12.4c6.8,0,12.4,5.6,12.4,12.4c0,6.8-5.6,12.4-12.4,12.4
	C459.5,144.6,453.9,139,453.9,132.2z M438.3,343.9h-25.9V221.5c7.6,1.4,16.2,2.3,25.9,2.6V343.9z M369.3,343.9V203.6
	c7.5,5.5,16.5,10.5,28.1,14.1v126.1H369.3z M354.3,190.7v153.2h-28.1V167.3c9.6,5.3,16.7,12.3,24.3,19.7
	C351.7,188.2,353,189.5,354.3,190.7z M285.3,157.3c10.3,0.4,18.7,1.8,25.9,3.9v182.8h-25.9V157.3z M225.7,343.9h-25.9V161.1
	c7.2-2.1,15.6-3.4,25.9-3.9V343.9z M184.8,167.3v176.6h-28.1V190.7c1.3-1.3,2.6-2.5,3.8-3.8C168.1,179.6,175.2,172.6,184.8,167.3z
	 M113.6,343.9V217.8c11.6-3.7,20.6-8.7,28.1-14.1v140.3H113.6z M98.6,221.5v122.4H72.7V224.1C82.5,223.8,91,222.9,98.6,221.5z
	 M32.2,132.2c0-6.8,5.6-12.4,12.4-12.4c6.8,0,12.4,5.6,12.4,12.4c0,6.8-5.6,12.4-12.4,12.4C37.8,144.6,32.2,139,32.2,132.2z
	 M22.1,170.5l-4.5-11H74l-6.2,11H22.1z M72.7,358.9h152.9v33.6H72.7V358.9z M240.6,144.9c0-1.3,1.1-2.4,2.4-2.4h5.1v59.2
	c0,4.1,3.3,7.5,7.5,7.5c4.1,0,7.5-3.3,7.5-7.5v-59.2h5c1.3,0,2.4,1.1,2.4,2.4v247.5H263V231.7c0-4.1-3.3-7.5-7.5-7.5
	c-4.1,0-7.5,3.4-7.5,7.5v160.7h-7.4V144.9z M438.3,392.4H285.3v-33.6h152.9V392.4z M443.2,170.5l-6.2-11h56.4l-4.5,11H443.2z"/>
</svg>
