<svg id="Layer_1" enable-background="new 0 0 510 510" height="512" viewBox="0 0 510 510" width="512"
    xmlns="http://www.w3.org/2000/svg">
    <g id="XMLID_1290_" fill="#a26e4d">
        <path id="XMLID_1297_"
            d="m120 389.763h30v30h30v-30h30v30h30v-30h30v30h30v-30h30v30h30v-30h30v-30h-270z" />
        <path id="XMLID_1296_" d="m0 449.763h510v60h-510z" />
        <path id="XMLID_1295_" d="m420 194.763h60v225h-60z" />
        <path id="XMLID_1294_" d="m390 249.241-54.483-54.478h-42.429l96.912 96.905z" />
        <path id="XMLID_1293_"
            d="m264.602 8.239-9.602-8.002-9.603 8.002c-91.639 76.367-232.301 80.367-245.397 82.949v73.574h510v-73.574c-12.181-2.401-152.048-5.158-245.398-82.949z" />
        <path id="XMLID_1292_" d="m30 194.763h60v225h-60z" />
        <path id="XMLID_1291_" d="m120 248.55v42.427l96.213-96.214h-42.426z" />
    </g>
</svg>