<svg id="Layer_1" enable-background="new 0 0 297.335 195.967" height="300" viewBox="0 0 297.335 195.967" width="300" xmlns="http://www.w3.org/2000/svg" version="1.1" xmlns:xlink="http://www.w3.org/1999/xlink" xmlns:svgjs="http://svgjs.dev/svgjs"><g width="100%" height="100%" transform="matrix(1,0,0,1,0,0)"><g><path d="m201.628 6.326c-6.167-5.953-15.474-8.102-23.956-4.725-5.464 2.175-9.602 6.254-11.96 11.17 2.23-.93 4.578-1.617 7.02-1.993z" fill="#a26e4d" fill-opacity="1" data-original-color="#000000ff" stroke="none" stroke-opacity="1"/><path d="m165.098 30.849c4.604 11.53 17.68 17.153 29.217 12.56 9.615-3.827 15.122-13.54 14.045-23.348l-33.403 5.146c-3.92.603-7.41 2.669-9.859 5.642z" fill="#a26e4d" fill-opacity="1" data-original-color="#000000ff" stroke="none" stroke-opacity="1"/><path d="m296.539 172.912-23.495-62.779c-2.092-5.59-7.839-8.915-13.734-7.954l-40.782 6.701c-3.257-9.714-3.922-20.685-4.766-30.409l-15.035-.875c-2.746-.159-5.267-1.379-7.096-3.435-1.829-2.055-2.748-4.699-2.588-7.446.315-5.44 4.827-9.702 10.271-9.702.202 0 .406.006.611.018l9.656.562c-3.241-6.169-8.864-10.529-14.881-9.714-8.137 1.101-17.196 8.914-17.771 22.523-.041.974-.042 1.975.007 3.008.01.182.023.351.033.532l17.167 55.938c.559.737 1.116 1.417 1.673 2.041 1.904 2.138 3.793 3.642 5.671 4.645l47.279-8.427c5.469-.975 10.711 2.681 11.686 8.15.475 2.663-.156 5.268-1.552 7.357l14.232 38.028c1.879 5.022 6.645 8.123 11.709 8.122 1.455 0 2.936-.256 4.379-.796 6.466-2.42 9.746-9.623 7.326-16.088z" fill="#a26e4d" fill-opacity="1" data-original-color="#000000ff" stroke="none" stroke-opacity="1"/><path d="m251.768 145.021c3.83-.683 6.405-4.375 5.723-8.205-.683-3.83-4.375-6.405-8.205-5.723l-51.936 9.257 4.182 13.625 20.843-3.715.707 2.921 7.932 32.786h-85.742c-1.86 2.227-4.654 3.647-7.775 3.647-3.122 0-5.916-1.421-7.776-3.647h-16.792l15.129-86.452c-.441-1.135-.692-2.364-.692-3.653 0-3.347 1.638-6.311 4.147-8.156.013-.045.02-.091.033-.136l1.928-6.429c-7.719 1.942-13.794 8.236-15.221 16.391l-15.476 88.436h-8.167v-142.17c0-12.1-9.9-22-22-22h-40.126c-12.1 0-22 9.9-22 22v142.168h-10.484v10h267.022v-10h-25.72l-8.357-34.544-.707-2.921zm-226.284 23.672h13.989v9.137h-13.989zm37.484-54.579v3.752h-20.842v-3.752zm-20.842-4.737v-72.579h20.842v72.579zm20.842 13.226v3.751h-20.842v-3.751zm0 8.488v3.752h-20.842v-3.752zm0 8.488v3.751h-20.842v-3.751zm0 8.489v3.752h-20.842v-3.752zm-3.99 8.488 1.966 4.136h-15.405l1.966-4.136zm3.99 12.137v9.137h-20.842v-9.137zm2.653 0h13.989v9.137h-13.989zm13.989-124.895v116.895h-10.576l1.966-4.137h2.957v-4.737h-8.336v-3.752h8.336v-4.737h-8.336v-3.751h8.336v-4.737h-8.336v-3.752h8.336v-4.737h-8.336v-3.751h8.336v-4.737h-8.336v-3.752h8.336v-4.737h-8.336v-72.578h6.989c3.794 0 7 3.206 7 7zm-47.126-7h6.989v72.579h-8.337v4.737h8.337v3.752h-8.337v4.737h8.337v3.751h-8.337v4.737h8.337v3.752h-8.337v4.737h8.337v3.751h-8.337v4.737h8.337v3.752h-8.337v4.737h4.347l1.966 4.136h-11.965v-116.895c0-3.794 3.206-7 7-7z" fill="#a26e4d" fill-opacity="1" data-original-color="#000000ff" stroke="none" stroke-opacity="1"/><path d="m164.115 90.503 21.465 69.942c1.133 3.722 14.667-.397 13.535-4.119l-30.301-98.734c-1.133-3.722-5.105-5.841-8.827-4.708-1.462.445-2.671 1.332-3.538 2.465l-1.45 4.836c.038.508.127 1.019.281 1.525l5.767 18.793h-4.185-7.957l-2.942 9.811c.04.062.076.126.115.189h13.854z" fill="#a26e4d" fill-opacity="1" data-original-color="#000000ff" stroke="none" stroke-opacity="1"/><path d="m144.679 172.348v-69.352c-.859.865-1.877 1.569-3 2.081v65.189c1.123.513 2.141 1.217 3 2.082z" fill="#a26e4d" fill-opacity="1" data-original-color="#000000ff" stroke="none" stroke-opacity="1"/><path d="m145.327 179.483c0-4.325-3.506-7.832-7.832-7.832s-7.832 3.506-7.832 7.832c0 4.325 3.506 7.832 7.832 7.832s7.832-3.507 7.832-7.832zm-7.832-4.169c2.302 0 4.168 1.866 4.168 4.168s-1.866 4.168-4.168 4.168-4.168-1.866-4.168-4.168 1.866-4.168 4.168-4.168z" fill="#a26e4d" fill-opacity="1" data-original-color="#000000ff" stroke="none" stroke-opacity="1"/><path d="m265.431 31.398-2.045 3.927 14.006 7.653c2.425 1.326 5.462.433 6.785-1.99 1.324-2.423.433-5.461-1.99-6.785l-15.641-8.546c.193 1.966-.181 3.947-1.115 5.741z" fill="#a26e4d" fill-opacity="1" data-original-color="#000000ff" stroke="none" stroke-opacity="1"/><path d="m159.942 35.695c2.006-6.689 7.762-11.698 14.664-12.761l45.475-7.005c3.93-.604 8.013.112 11.499 2.017l13.726 7.5 1.854-3.561c1.008-1.936 2.58-3.437 4.444-4.392l-15.23-8.323c-5.403-2.953-11.727-4.062-17.816-3.125l-45.476 7.005c-10.693 1.647-19.61 9.408-22.719 19.772l-16.019 53.416c.993-.326 2.05-.508 3.151-.508 2.56 0 4.895.962 6.681 2.535zm67.479-25.713c.868-1.137 2.493-1.355 3.63-.487s1.355 2.493.487 3.63-2.493 1.355-3.63.487-1.355-2.494-.487-3.63zm-69.463 14.056c.868-1.137 2.493-1.354 3.63-.487 1.137.868 1.354 2.493.487 3.63-.868 1.137-2.493 1.354-3.63.487-1.137-.868-1.355-2.493-.487-3.63z" fill="#a26e4d" fill-opacity="1" data-original-color="#000000ff" stroke="none" stroke-opacity="1"/><path d="m137.495 88.03c-4.325 0-7.832 3.506-7.832 7.832 0 4.325 3.506 7.832 7.832 7.832s7.832-3.506 7.832-7.832-3.507-7.832-7.832-7.832zm0 12c-2.302 0-4.168-1.866-4.168-4.168s1.866-4.168 4.168-4.168 4.168 1.866 4.168 4.168-1.866 4.168-4.168 4.168z" fill="#a26e4d" fill-opacity="1" data-original-color="#000000ff" stroke="none" stroke-opacity="1"/><path d="m263.391 30.335c2.041-3.919.518-8.75-3.401-10.791-3.918-2.042-8.75-.517-10.79 3.401l-19.84 38.103-29.568-1.721c-4.421-.259-8.195 3.111-8.451 7.521-.257 4.411 3.11 8.195 7.521 8.451l34.737 2.021c.156.009.312.014.467.014 2.969 0 5.711-1.649 7.094-4.305z" fill="#a26e4d" fill-opacity="1" data-original-color="#000000ff" stroke="none" stroke-opacity="1"/></g></g></svg>