<?xml version="1.0" encoding="UTF-8"?>
<svg xmlns="http://www.w3.org/2000/svg" id="Solid" viewBox="0 0 64 64" width="512" height="512"><rect x="0.25" y="57.75" width="63.5" height="6" rx="0.75"/><path d="M12.35,13.75H7.55v4.6a2.4,2.4,0,0,0,2.4,2.4h0a2.4,2.4,0,0,0,2.4-2.4Z"/><path d="M24.95,18.35v-4.6h-4.8v4.6a2.4,2.4,0,1,0,4.8,0Z"/><path d="M62.75,18.35v-4.6h-4.8v4.6a2.4,2.4,0,0,0,4.8,0Z"/><path d="M16.25,20.75a2.4,2.4,0,0,0,2.4-2.4v-4.6h-4.8v4.6a2.4,2.4,0,0,0,2.4,2.4Z"/><path d="M3.65,20.75a2.4,2.4,0,0,0,2.4-2.4v-4.6H1.25v4.6A2.4,2.4,0,0,0,3.65,20.75Z"/><path d="M47.75,20.75a2.4,2.4,0,0,0,2.4-2.4v-4.6h-4.8v4.6a2.4,2.4,0,0,0,2.4,2.4Z"/><path d="M56.45,18.35v-4.6h-4.8v4.6a2.4,2.4,0,0,0,4.8,0Z"/><path d="M43.85,18.35v-4.6h-4.8v4.6a2.4,2.4,0,1,0,4.8,0Z"/><path d="M55.25,22.061a3.894,3.894,0,0,1-3.5-.564v6.118a7.166,7.166,0,0,0,3.5,6.181Z"/><path d="M57.2,20.647a3.935,3.935,0,0,1-.45.515V56.25h4V22.23c-.131.013-.265.02-.4.02A3.9,3.9,0,0,1,57.2,20.647Z"/><path d="M3.65,22.25c-.135,0-.269-.007-.4-.02V56.25h4V21.162a3.935,3.935,0,0,1-.45-.515A3.9,3.9,0,0,1,3.65,22.25Z"/><path d="M25.25,10a6.75,6.75,0,1,1,13.114,2.25H62.75V9a.753.753,0,0,0-.15-.45l-6-8a.75.75,0,0,0-.6-.3H8a.75.75,0,0,0-.6.3l-6,8A.753.753,0,0,0,1.25,9v3.25H25.636A6.709,6.709,0,0,1,25.25,10Z"/><path d="M26.45,18.35a2.4,2.4,0,1,0,4.8,0V16.708a6.752,6.752,0,0,1-4.8-2.871Z"/><path d="M32.75,18.35a2.4,2.4,0,0,0,4.8,0V13.837a6.752,6.752,0,0,1-4.8,2.871Z"/><path d="M32,4.75A5.25,5.25,0,1,0,37.25,10,5.256,5.256,0,0,0,32,4.75Zm2.5,6H32.75V12.5a.75.75,0,0,1-1.5,0V10.75H29.5a.75.75,0,0,1,0-1.5h1.75V7.5a.75.75,0,0,1,1.5,0V9.25H34.5a.75.75,0,0,1,0,1.5Z"/><rect x="16.25" y="38" width="31.5" height="2.25" rx="0.75"/><path d="M26.014,31.106l.772,5.394H37.214l.772-5.394a.75.75,0,0,0-.743-.856H26.757A.75.75,0,0,0,26.014,31.106Z"/><path d="M31.25,50.5v2.75h1.5V50.5a.75.75,0,0,1,.75-.75h2.75v-1.5H33.5a.75.75,0,0,1-.75-.75V44.75h-1.5V47.5a.75.75,0,0,1-.75.75H27.75v1.5H30.5A.75.75,0,0,1,31.25,50.5Z"/><path d="M45.75,56.25V41.75H18.25v14.5ZM26.25,47.5a.75.75,0,0,1,.75-.75h2.75V44a.75.75,0,0,1,.75-.75h3a.75.75,0,0,1,.75.75v2.75H37a.75.75,0,0,1,.75.75v3a.75.75,0,0,1-.75.75H34.25V54a.75.75,0,0,1-.75.75h-3a.75.75,0,0,1-.75-.75V51.25H27a.75.75,0,0,1-.75-.75Z"/><path d="M55.25,39.725V35.492a8.66,8.66,0,0,1-5-7.877V21.341a3.892,3.892,0,0,1-3.25.836v5.336A13.164,13.164,0,0,0,55.25,39.725Z"/><path d="M8.75,22.061V33.8a7.166,7.166,0,0,0,3.5-6.181V21.5a3.894,3.894,0,0,1-3.5.564Z"/><path d="M17,27.513V22.177a3.892,3.892,0,0,1-3.25-.836v6.274a8.66,8.66,0,0,1-5,7.877v4.233A13.164,13.164,0,0,0,17,27.513Z"/></svg>
