<?xml version="1.0" encoding="utf-8"?>
<!-- Generator: Adobe Illustrator 24.3.0, SVG Export Plug-In . SVG Version: 6.00 Build 0)  -->
<svg version="1.1" id="svg393" xmlns:svg="http://www.w3.org/2000/svg"
	 xmlns="http://www.w3.org/2000/svg" xmlns:xlink="http://www.w3.org/1999/xlink" x="0px" y="0px" viewBox="0 0 682.7 682.7"
	 style="enable-background:new 0 0 682.7 682.7;" xml:space="preserve">
<style type="text/css">
	.st0{clip-path:url(#SVGID_2_);}
	.st1{fill:none;stroke:#D18F00;stroke-width:20;stroke-linecap:round;stroke-linejoin:round;stroke-miterlimit:13.3333;}
</style>
<g id="g399" transform="matrix(1.3333333,0,0,-1.3333333,0,682.66667)">
	<g id="g401">
		<g>
			<defs>
				<rect id="SVGID_1_" x="-85.3" y="-85.3" width="682.7" height="682.7"/>
			</defs>
			<clipPath id="SVGID_2_">
				<use xlink:href="#SVGID_1_"  style="overflow:visible;"/>
			</clipPath>
			<g id="g403" class="st0">
				<g id="g409" transform="translate(344.5,416)">
					<path id="path411" class="st1" d="M0,0h31c16.6,0,30-13.4,30-30v-378.5h-299.5V-30c0,16.6,13.4,30,30,30h31.5"/>
				</g>
				<g id="g413" transform="translate(256,327.5)">
					<path id="path415" class="st1" d="M0,0c-48.8,0-88.5,39.7-88.5,88.5S-48.8,177,0,177s88.5-39.7,88.5-88.5S48.8,0,0,0z"/>
				</g>
				<g id="g417" transform="translate(308.5,431)">
					<path id="path419" class="st1" d="M0,0h-34.5c-1.7,0-3,1.3-3,3v34.5c0,3.3-2.7,6-6,6h-18c-3.3,0-6-2.7-6-6V3c0-1.7-1.3-3-3-3
						H-105c-3.3,0-6-2.7-6-6v-18c0-3.3,2.7-6,6-6h34.5c1.7,0,3-1.3,3-3v-34.5c0-3.3,2.7-6,6-6h18c3.3,0,6,2.7,6,6V-33
						c0,1.7,1.3,3,3,3H0c3.3,0,6,2.7,6,6v18C6-2.7,3.3,0,0,0z"/>
				</g>
				<g id="g421" transform="translate(330.5244,154.5737)">
					<path id="path423" class="st1" d="M0,0v-147.1"/>
				</g>
				<g id="g425" transform="translate(181.4756,93.9648)">
					<path id="path427" class="st1" d="M0,0v60.6"/>
				</g>
				<g id="g429" transform="translate(181.4756,7.5)">
					<path id="path431" class="st1" d="M0,0v51.5"/>
				</g>
				<g id="g433" transform="translate(339.5244,184.5737)">
					<path id="path435" class="st1" d="M0,0h-167c-3.3,0-6-2.7-6-6v-18c0-3.3,2.7-6,6-6H0c3.3,0,6,2.7,6,6v18C6-2.7,3.3,0,0,0z"/>
				</g>
				<g id="g437" transform="translate(256,154.5737)">
					<path id="path439" class="st1" d="M0,0v-147.1"/>
				</g>
				<g id="g441" transform="translate(286,88.7124)">
					<path id="path443" class="st1" d="M0,0v-15.4"/>
				</g>
				<g id="g445" transform="translate(226,88.7124)">
					<path id="path447" class="st1" d="M0,0v-15.4"/>
				</g>
				<g id="g449" transform="translate(225.5,229.5698)">
					<path id="path451" class="st1" d="M0,0h-66.5c-4.4,0-8,3.6-8,8l0.2,36.9c0,4.4,3.6,8,8,8H0c4.4,0,8-3.6,8-8V8C8,3.6,4.4,0,0,0z
						"/>
				</g>
				<g id="g453" transform="translate(286.5,282.5)">
					<path id="path455" class="st1" d="M0,0h66.2c4.4,0,8-3.6,8-8L74.1-45c0-4.4-3.6-8-8-8H0c-4.4,0-8,3.6-8,8V-8C-8-3.6-4.4,0,0,0z
						"/>
				</g>
				<g id="g457" transform="translate(440.5244,345.8564)">
					<path id="path459" class="st1" d="M0,0h34c16.6,0,30-13.4,30-30v-300.4c0-4.4-3.6-8-8-8h-91"/>
				</g>
				<g id="g461" transform="translate(405.5244,300.8564)">
					<path id="path463" class="st1" d="M0,0h46c4.4,0,8-3.6,8-8L53.8-45c0-4.4-3.6-8-8-8H0"/>
				</g>
				<g id="g465" transform="translate(405.5244,202.9263)">
					<path id="path467" class="st1" d="M0,0h46c4.4,0,8-3.6,8-8L53.8-45c0-4.4-3.6-8-8-8H0"/>
				</g>
				<g id="g469" transform="translate(405.5244,105.4302)">
					<path id="path471" class="st1" d="M0,0h46c4.4,0,8-3.6,8-8L53.8-45c0-4.4-3.6-8-8-8H0"/>
				</g>
				<g id="g473" transform="translate(106.4756,345.8564)">
					<path id="path475" class="st1" d="M0,0h-69c-16.6,0-30-13.4-30-30v-300.4c0-4.4,3.6-8,8-8H0"/>
				</g>
				<g id="g477" transform="translate(106,247.9302)">
					<path id="path479" class="st1" d="M0,0h-45.3c-4.4,0-8,3.6-8,8l-0.2,36.9c0,4.4,3.6,8,8,8H0"/>
				</g>
				<g id="g481" transform="translate(106,150)">
					<path id="path483" class="st1" d="M0,0h-45.3c-4.4,0-8,3.6-8,8l-0.2,36.9c0,4.4,3.6,8,8,8H0"/>
				</g>
				<g id="g485" transform="translate(106,52.5)">
					<path id="path487" class="st1" d="M0,0h-45.3c-4.4,0-8,3.6-8,8l-0.2,36.9c0,4.4,3.6,8,8,8H0"/>
				</g>
			</g>
			<use xlink:href="#SVGID_1_"  style="overflow:visible;fill:none;stroke:#D18F00;stroke-miterlimit:10;"/>
		</g>
	</g>
</g>
</svg>
