<?xml version="1.0" encoding="utf-8"?>
<!-- Generator: Adobe Illustrator 24.1.2, SVG Export Plug-In . SVG Version: 6.00 Build 0)  -->
<svg version="1.1" id="Capa_1" xmlns="http://www.w3.org/2000/svg" xmlns:xlink="http://www.w3.org/1999/xlink" x="0px" y="0px"
	 viewBox="0 0 512 512" style="enable-background:new 0 0 512 512;" xml:space="preserve">
<style type="text/css">
	.st0{fill:#A26E4D;}
</style>
<g>
	<g>
		<path class="st0" d="M67,186.4H15c-8.3,0-15,6.7-15,15V512h67L67,186.4z"/>
		<path class="st0" d="M497,186.4h-52V512h67V201.4C512,193.1,505.3,186.4,497,186.4z"/>
	</g>
	<g>
		<path class="st0" d="M282.1,411.8V512h-52.2V411.8L282.1,411.8z"/>
		<path class="st0" d="M400,61.6h-47.2V15c0-8.3-6.7-15-15-15H176.4c-8.3,0-15,6.7-15,15v46.6H112c-8.3,0-15,6.7-15,15V512h102.9
			V396.8c0-8.3,6.7-15,15-15h82.2c8.3,0,15,6.7,15,15V512H415V76.6C415,68.3,408.2,61.6,400,61.6L400,61.6z M188.1,329.9h-16.2
			c-8.3,0-15-6.7-15-15s6.7-15,15-15h16.2c8.3,0,15,6.7,15,15S196.4,329.9,188.1,329.9z M188.1,269.9h-16.2c-8.3,0-15-6.7-15-15
			s6.7-15,15-15h16.2c8.3,0,15,6.7,15,15S196.4,269.9,188.1,269.9z M188.1,209.9h-16.2c-8.3,0-15-6.7-15-15s6.7-15,15-15h16.2
			c8.3,0,15,6.7,15,15S196.4,209.9,188.1,209.9z M264.1,329.9h-16.2c-8.3,0-15-6.7-15-15s6.7-15,15-15h16.2c8.3,0,15,6.7,15,15
			S272.4,329.9,264.1,329.9z M264.1,269.9h-16.2c-8.3,0-15-6.7-15-15s6.7-15,15-15h16.2c8.3,0,15,6.7,15,15S272.4,269.9,264.1,269.9
			z M264.1,209.9h-16.2c-8.3,0-15-6.7-15-15s6.7-15,15-15h16.2c8.3,0,15,6.7,15,15S272.4,209.9,264.1,209.9z M286.2,120.2H271v15.2
			c0,8.3-6.7,15-15,15s-15-6.7-15-15v-15.2h-15.2c-8.3,0-15-6.7-15-15s6.7-15,15-15H241V75c0-8.3,6.7-15,15-15s15,6.7,15,15v15.2
			h15.2c8.3,0,15,6.7,15,15S294.5,120.2,286.2,120.2z M340.1,329.9h-16.2c-8.3,0-15-6.7-15-15s6.7-15,15-15h16.2c8.3,0,15,6.7,15,15
			S348.4,329.9,340.1,329.9z M340.1,269.9h-16.2c-8.3,0-15-6.7-15-15s6.7-15,15-15h16.2c8.3,0,15,6.7,15,15S348.4,269.9,340.1,269.9
			z M340.1,209.9h-16.2c-8.3,0-15-6.7-15-15s6.7-15,15-15h16.2c8.3,0,15,6.7,15,15S348.4,209.9,340.1,209.9z"/>
	</g>
</g>
</svg>
