<?xml version="1.0" encoding="UTF-8"?>
<svg xmlns="http://www.w3.org/2000/svg" xmlns:xlink="http://www.w3.org/1999/xlink" version="1.1" id="Capa_1" x="0px" y="0px" viewBox="0 0 512 512" style="enable-background:new 0 0 512 512;" xml:space="preserve" width="512" height="512">
<g>
	<path style="fill:none;stroke:#000000;stroke-width:15;stroke-linecap:round;stroke-linejoin:round;stroke-miterlimit:10;" d="&#10;&#9;&#9;M392.274,368.226c-49.173,0-107.181-49.529-136.274-77.789c-29.086,28.252-87.097,77.789-136.274,77.789&#10;&#9;&#9;C57.843,368.226,7.5,317.882,7.5,256s50.343-112.226,112.226-112.226c49.173,0,107.181,49.529,136.274,77.789&#10;&#9;&#9;c29.086-28.252,87.097-77.789,136.274-77.789c61.882,0,112.226,50.343,112.226,112.226S454.157,368.226,392.274,368.226z&#10;&#9;&#9; M289.528,256c30.381,29.489,75.057,64.129,102.746,64.129c35.36,0,64.129-28.769,64.129-64.129s-28.769-64.129-64.129-64.129&#10;&#9;&#9;c-20.363,0-49.92,18.737-76.22,40.386 M222.472,256c-30.381-29.489-75.057-64.129-102.746-64.129&#10;&#9;&#9;c-35.36,0-64.129,28.769-64.129,64.129s28.769,64.129,64.129,64.129c20.266,0,49.638-18.559,75.843-40.076"/>
	<path style="fill:none;stroke:#000000;stroke-width:15;stroke-linecap:round;stroke-linejoin:round;stroke-miterlimit:10;" d="&#10;&#9;&#9;M256,256"/>
	<path style="fill:none;stroke:#000000;stroke-width:15;stroke-linecap:round;stroke-linejoin:round;stroke-miterlimit:10;" d="&#10;&#9;&#9;M255.943,290.377c-9.259-8.997-15.578-15.829-17.737-18.204c-4.315-4.736-9.302-9.896-14.774-15.24"/>
	<path style="fill:none;stroke:#000000;stroke-width:15;stroke-linecap:round;stroke-linejoin:round;stroke-miterlimit:10;" d="&#10;&#9;&#9;M256.763,222.311c8.874,8.657,14.927,15.202,17.03,17.516c4.624,5.075,9.798,10.419,15.735,16.173"/>
	<path style="fill:none;stroke:#000000;stroke-width:15;stroke-linecap:round;stroke-linejoin:round;stroke-miterlimit:10;" d="&#10;&#9;&#9;M137.955,195.618C99.652,177.119,7.5,189.307,7.5,256"/>
	<path style="fill:none;stroke:#000000;stroke-width:15;stroke-linecap:round;stroke-linejoin:round;stroke-miterlimit:10;" d="&#10;&#9;&#9;M374.045,316.382C412.348,334.881,504.5,322.693,504.5,256"/>
	<path style="fill:none;stroke:#000000;stroke-width:15;stroke-linecap:round;stroke-linejoin:round;stroke-miterlimit:10;" d="&#10;&#9;&#9;M68.857,294.967c19.152,28.836,77.64,58.978,136.074,38.086"/>
	<path style="fill:none;stroke:#000000;stroke-width:15;stroke-linecap:round;stroke-linejoin:round;stroke-miterlimit:10;" d="&#10;&#9;&#9;M443.143,217.033c-19.152-28.836-77.64-58.978-136.074-38.086"/>
</g>















</svg>
