<svg enable-background="new 0 0 100 100" viewBox="0 0 100 100"
    xmlns="http://www.w3.org/2000/svg">
    <g fill="#a26e4d">
        <path
            d="m83.6863251 21.04072c-2.2445374-1.0860691-4.9476547-.1689434-6.0578537 2.0755997l-5.9371796 12.1398449-6.9025803-8.4954777c-.8929863-1.1102047-2.19627-1.6170349-3.5236893-1.6170349v-.0724068h-14.1189002v.0965385c-.8447227-.0241356-1.7135811.0965385-2.4858971.5551033l-15.0842934 9.0505772c-1.3515549.8205833-2.1962757 2.2928123-2.1962757 3.8857155v13.5879326c0 2.510025 2.0273285 4.5132217 4.5132198 4.5132217 2.510025 0 4.5132217-2.0273285 4.5132217-4.5132217v-11.0055046l9.0505791-5.4303474v16.4358521c0 1.2067413.4826927 2.3410835 1.3274155 3.2099342l16.7737427 16.773735v20.7559967c0 2.510025 2.0273247 4.5132217 4.5132256 4.5132217 2.510025 0 4.5132217-2.0273285 4.5132217-4.5132217v-22.6385117c0-1.206749-.4826965-2.3410873-1.3274155-3.209938l-8.3023987-8.3023911c.3378906-.6275101.5792351-1.3274193.5792351-2.0756035v-17.1357574l5.5268822 6.8060341c.8688583 1.0619316 2.1721497 1.6653023 3.5236969 1.6653023.1689453 0 .3378906 0 .5068359-.0241356 1.544632-.1689453 2.8720474-1.1102066 3.5478287-2.510025l9.0505753-18.5114479c1.1584701-2.2204095.2413406-4.9235173-2.0031967-6.0095845z" />
        <circle cx="55.764" cy="12.565" r="10.065" />
        <path
            d="m38.1196823 72.7376175-20.7559929 4.5614929c-2.4376211.5309677-3.982254 2.9444504-3.4512873 5.3820724.4585629 2.1238632 2.3410826 3.547821 4.4166822 3.547821.3137531 0 .6516399-.0241241.9653931-.0965271l22.614378-4.9717941c1.1826057-.26548 2.2204056-.9895248 2.8720436-2.0273285l7.3852768-11.9226227-6.5646858-6.5646857z" />
    </g>
</svg>