<svg id="Layer_1" enable-background="new 0 0 66 66" height="300" viewBox="0 0 66 66" width="300" xmlns="http://www.w3.org/2000/svg" version="1.1" xmlns:xlink="http://www.w3.org/1999/xlink" xmlns:svgjs="http://svgjs.dev/svgjs"><g width="100%" height="100%" transform="matrix(1,0,0,1,0,0)"><g><circle cx="36.7" cy="27.5" r="5.9" fill="#a26e4d" fill-opacity="1" data-original-color="#000000ff" stroke="none" stroke-opacity="1"/><path d="m47.3 50.4c-2.9-2.9-3.7-5.4-8.6-9.3l-10.1-.8c-1.6-.1-2.9-1.6-2.8-3.2 0-.6.3-1.2.7-1.7-.3 0-.5-.1-.7-.1v-21.9l-12.4-12.4-12.4 12.4v51.6h3.4v-10.5h17.9v10.5h3.4v-23.7c2.6.4 8.7 2.3 14.3 9.9 5.2 7 14.1 12.4 23.8 13.7l.4.1.7-6c-.2-.1-9.6-.5-17.6-8.6zm-33.8-39.5c2.2 0 4.1 1.8 4.1 4s-1.9 4.1-4.1 4.1-4-1.8-4-4.1 1.7-4 4-4zm8.9 40h-18v-7.3h17.9v7.3zm0-10.8h-18v-8.7h17.9v8.7z" fill="#a26e4d" fill-opacity="1" data-original-color="#000000ff" stroke="none" stroke-opacity="1"/><path d="m28.7 39.3c11.8.9-4-.3 10.4.8 5.8 4.6 6.6 7.9 9.9 10.6l6.7 1.1 1.6 4.2c1.4.6 2.9 1.1 4.4 1.5.3-1.1-.2-1.3-2.8-8.2-.3-.7-.8-1.1-1.5-1.2l-4.4-.8c1.1-1.8 1.2-4 .2-6-3.3-6.1-3.3-6.6-4.2-7.5l3.3-10.1c.3-1-.2-2.2-1.3-2.5-1-.3-2.2.2-2.5 1.3l-3.1 9.5c-1.2-.2-2.5 0-3.6.7-1.4.8-2.5 2-2.9 3.5-.1 0-9.9-.8-9.8-.8-1-.1-2.1.7-2.1 1.8-.2 1 .6 2 1.7 2.1z" fill="#a26e4d" fill-opacity="1" data-original-color="#000000ff" stroke="none" stroke-opacity="1"/></g></g></svg>