<?xml version="1.0" encoding="utf-8"?>
<!-- Generator: Adobe Illustrator 26.2.1, SVG Export Plug-In . SVG Version: 6.00 Build 0)  -->
<svg version="1.1" id="Layer_1" xmlns="http://www.w3.org/2000/svg" xmlns:xlink="http://www.w3.org/1999/xlink" x="0px" y="0px"
	 viewBox="0 0 41.5 100" style="enable-background:new 0 0 41.5 100;" xml:space="preserve">
<style type="text/css">
	.st0{fill:url(#SVGID_1_);}
	.st1{fill:url(#SVGID_00000046341359612760744010000007870329908649211270_);}
	.st2{fill:url(#SVGID_00000114043583705847111590000015567830500840163261_);}
	.st3{fill:url(#SVGID_00000142876286172115707390000006536196236377920653_);}
	.st4{fill:url(#SVGID_00000161593464854233098820000015934303537922758826_);}
	.st5{fill:url(#SVGID_00000167358968453273220490000018236046217943768451_);}
	.st6{fill:url(#SVGID_00000168827855071057075870000008868089228728532371_);}
	.st7{fill:url(#SVGID_00000005259087209667739610000010777482206185479040_);}
	.st8{fill:url(#SVGID_00000180333540416777840870000010912256831959168129_);}
	.st9{fill:url(#SVGID_00000107552841942818828400000003353179632316098482_);}
	.st10{fill:url(#SVGID_00000062914904511531623860000004560092085907625142_);}
	.st11{fill:url(#SVGID_00000053533509391170047200000003207812651129641656_);}
	.st12{fill:url(#SVGID_00000052103739418737904940000012100770336265987738_);}
	.st13{fill:url(#SVGID_00000145058354969024861750000007105291707453301905_);}
	.st14{fill:url(#SVGID_00000117635713801605674990000004739399616979668877_);}
	.st15{fill:url(#SVGID_00000098210084944852614780000008053415721140765874_);}
	.st16{fill:url(#SVGID_00000115492743172215169050000006734593991037084346_);}
	.st17{fill:url(#SVGID_00000023961276141633293260000011576329525004066219_);}
	.st18{fill:url(#SVGID_00000077324362247311008760000013188998402014151577_);}
	.st19{fill:url(#SVGID_00000114780774413086469690000017006747874895821452_);}
	.st20{fill:url(#SVGID_00000001624319579085942140000009811851991036073147_);}
	.st21{fill:url(#SVGID_00000158724905863523986890000013237889670742910601_);}
	.st22{fill:url(#SVGID_00000173143375785647581260000012916746375799552657_);}
	.st23{fill:url(#SVGID_00000073693733818682476800000003569911715695927226_);}
	.st24{fill:url(#SVGID_00000102504541103430124750000013979799687124721565_);}
	.st25{fill:url(#SVGID_00000118388447432866466780000005472802266054723747_);}
	.st26{fill:url(#SVGID_00000129914085885032502310000016581029545026847906_);}
	.st27{fill:url(#SVGID_00000142873274182590627720000009390461302139417984_);}
	.st28{fill:url(#SVGID_00000108307196537967345610000016399476664961579957_);}
	.st29{fill:url(#SVGID_00000057850125257810211800000009956335040669294218_);}
	.st30{fill:url(#SVGID_00000015325284700227911850000014634627133237740937_);}
	.st31{fill:url(#SVGID_00000083778498233663409910000014781519487320324261_);}
	.st32{fill:url(#SVGID_00000075865901291618230800000008203996088246462603_);}
	.st33{fill:url(#SVGID_00000174570087092431820820000014472667549594696600_);}
</style>
<g>
	
		<linearGradient id="SVGID_1_" gradientUnits="userSpaceOnUse" x1="26.8994" y1="5.8283" x2="26.8994" y2="97.3502" gradientTransform="matrix(0.9932 0.1161 -0.1161 0.9932 5.9651 -2.4133)">
		<stop  offset="0" style="stop-color:#AB7511"/>
		<stop  offset="0.2464" style="stop-color:#F9D867"/>
		<stop  offset="0.3804" style="stop-color:#F5F2A5"/>
		<stop  offset="1" style="stop-color:#AB7511"/>
	</linearGradient>
	<path class="st0" d="M39.8,99.6c-2.2-0.9-4.3-2.1-6.4-3.3c-2-1.2-4-2.6-5.9-4.1c-3.7-3-7-6.5-9.8-10.4c-5.6-7.7-9-17-9.9-26.4
		c-0.2-2.4-0.3-4.7-0.2-7.1l0.1-1.8c0-0.6,0.1-1.2,0.2-1.8c0-0.3,0.1-0.6,0.1-0.9l0.1-0.9l0.3-1.8c0.8-4.7,2.3-9.2,4.3-13.5
		c4-8.6,10.4-16,18.2-21.3l0.1,0.2C23.5,12,17.3,19.4,13.4,27.9c-1.9,4.3-3.3,8.8-4,13.4L9.1,43L9,43.9c0,0.3-0.1,0.6-0.1,0.9
		c0,0.6-0.1,1.2-0.1,1.7l-0.1,1.7c-0.1,2.3,0,4.7,0.3,7c1,9.3,4.5,18.2,10,25.6c2.7,3.7,6,7.1,9.7,9.9c1.8,1.4,3.7,2.7,5.7,3.9
		c2,1.2,4,2.2,6.2,3.1C41,98.7,40.8,99.3,39.8,99.6z"/>
	<g>
		
			<linearGradient id="SVGID_00000128470307749385903720000008217871278937529227_" gradientUnits="userSpaceOnUse" x1="30.2231" y1="81.0098" x2="30.2231" y2="88.671" gradientTransform="matrix(0.9932 0.1161 -0.1161 0.9932 5.9651 -2.4133)">
			<stop  offset="0" style="stop-color:#AB7511"/>
			<stop  offset="0.2464" style="stop-color:#F9D867"/>
			<stop  offset="0.3804" style="stop-color:#F5F2A5"/>
			<stop  offset="1" style="stop-color:#AB7511"/>
		</linearGradient>
		<path style="fill:url(#SVGID_00000128470307749385903720000008217871278937529227_);" d="M24.4,85.1c-0.1,0.7,0.1,1.5,0.4,2.2
			c0.4,0.7,0.9,1.4,1.5,1.9c0.8-1,1.5-1.9,1.5-3.6c0-0.8-0.1-1.6-0.4-2.2c-0.3-0.7-0.7-1.3-1.1-1.9c-0.2,0.9-0.6,1.4-1,1.9
			C24.9,84,24.5,84.4,24.4,85.1z"/>
		
			<linearGradient id="SVGID_00000165953573065373127290000007163075434718088857_" gradientUnits="userSpaceOnUse" x1="20.9978" y1="72.1288" x2="20.9978" y2="79.3473" gradientTransform="matrix(0.9932 0.1161 -0.1161 0.9932 5.9651 -2.4133)">
			<stop  offset="0" style="stop-color:#AB7511"/>
			<stop  offset="0.2464" style="stop-color:#F9D867"/>
			<stop  offset="0.3804" style="stop-color:#F5F2A5"/>
			<stop  offset="1" style="stop-color:#AB7511"/>
		</linearGradient>
		<path style="fill:url(#SVGID_00000165953573065373127290000007163075434718088857_);" d="M16.6,74.6c-0.3,0.6-0.3,1.4-0.1,2.1
			c0.2,0.7,0.5,1.5,0.9,2.1c1-0.7,1.8-1.4,2.2-2.9c0.2-0.7,0.2-1.4,0.2-2.2c0-0.4-0.1-0.7-0.2-1c-0.1-0.3-0.2-0.7-0.3-1
			c-0.4,0.8-0.9,1.2-1.4,1.5C17.3,73.6,16.8,74,16.6,74.6z"/>
		
			<linearGradient id="SVGID_00000065039387086044167930000013071451179027443848_" gradientUnits="userSpaceOnUse" x1="14.0387" y1="60.9313" x2="14.0387" y2="67.2307" gradientTransform="matrix(0.9932 0.1161 -0.1161 0.9932 5.9651 -2.4133)">
			<stop  offset="0" style="stop-color:#AB7511"/>
			<stop  offset="0.2464" style="stop-color:#F9D867"/>
			<stop  offset="0.3804" style="stop-color:#F5F2A5"/>
			<stop  offset="1" style="stop-color:#AB7511"/>
		</linearGradient>
		<path style="fill:url(#SVGID_00000065039387086044167930000013071451179027443848_);" d="M11.3,61.8c-0.9,1-0.7,2.7-0.4,4
			c1.1-0.4,2-0.8,2.8-2.1c0.7-1.2,0.9-2.6,0.7-3.9c-0.5,0.6-1.1,0.8-1.6,1C12.2,61.2,11.7,61.3,11.3,61.8z"/>
		
			<linearGradient id="SVGID_00000169540404791522726760000005212005082462648988_" gradientUnits="userSpaceOnUse" x1="10.6125" y1="47.8958" x2="10.6125" y2="52.8658" gradientTransform="matrix(0.9932 0.1161 -0.1161 0.9932 5.9651 -2.4133)">
			<stop  offset="0" style="stop-color:#AB7511"/>
			<stop  offset="0.2464" style="stop-color:#F9D867"/>
			<stop  offset="0.3804" style="stop-color:#F5F2A5"/>
			<stop  offset="1" style="stop-color:#AB7511"/>
		</linearGradient>
		<path style="fill:url(#SVGID_00000169540404791522726760000005212005082462648988_);" d="M9.7,47.6c-0.5,0.3-0.9,0.9-1.1,1.5
			c-0.1,0.3-0.2,0.7-0.2,1c-0.1,0.3-0.1,0.7-0.1,1c1.1-0.1,2-0.2,3-1.1c0.5-0.4,0.9-1,1.1-1.6c0.3-0.6,0.4-1.2,0.5-1.8
			C11.7,47.4,10.8,46.9,9.7,47.6z"/>
		
			<linearGradient id="SVGID_00000149359765237998553760000009138726091836353461_" gradientUnits="userSpaceOnUse" x1="11.1058" y1="34.7537" x2="11.1058" y2="38.2343" gradientTransform="matrix(0.9932 0.1161 -0.1161 0.9932 5.9651 -2.4133)">
			<stop  offset="0" style="stop-color:#AB7511"/>
			<stop  offset="0.2464" style="stop-color:#F9D867"/>
			<stop  offset="0.3804" style="stop-color:#F5F2A5"/>
			<stop  offset="1" style="stop-color:#AB7511"/>
		</linearGradient>
		<path style="fill:url(#SVGID_00000149359765237998553760000009138726091836353461_);" d="M12.2,33.7c-1.1,0.4-1.7,1.7-2.1,2.8
			c1,0.2,1.8,0.3,3-0.2c0.6-0.3,1-0.7,1.4-1.1c0.2-0.2,0.3-0.5,0.5-0.7c0.2-0.2,0.3-0.5,0.4-0.8C14.1,34.1,13.3,33.4,12.2,33.7z"/>
		
			<linearGradient id="SVGID_00000052795195090400326220000010689426770661692325_" gradientUnits="userSpaceOnUse" x1="14.9045" y1="22.4403" x2="14.9045" y2="25.1288" gradientTransform="matrix(0.9932 0.1161 -0.1161 0.9932 5.9651 -2.4133)">
			<stop  offset="0" style="stop-color:#AB7511"/>
			<stop  offset="0.2464" style="stop-color:#F9D867"/>
			<stop  offset="0.3804" style="stop-color:#F5F2A5"/>
			<stop  offset="1" style="stop-color:#AB7511"/>
		</linearGradient>
		<path style="fill:url(#SVGID_00000052795195090400326220000010689426770661692325_);" d="M17.9,21.6c-1.1,0.1-1.9,1.1-2.6,2
			c0.8,0.4,1.5,0.7,2.7,0.5c0.6-0.1,1.1-0.3,1.5-0.7c0.2-0.2,0.4-0.3,0.6-0.5c0.2-0.2,0.4-0.4,0.5-0.6
			C19.4,22.4,18.9,21.5,17.9,21.6z"/>
		
			<linearGradient id="SVGID_00000131349110979310500580000007134346742925107363_" gradientUnits="userSpaceOnUse" x1="20.9442" y1="12.6314" x2="20.9442" y2="14.9471" gradientTransform="matrix(0.9932 0.1161 -0.1161 0.9932 5.9651 -2.4133)">
			<stop  offset="0" style="stop-color:#AB7511"/>
			<stop  offset="0.2464" style="stop-color:#F9D867"/>
			<stop  offset="0.3804" style="stop-color:#F5F2A5"/>
			<stop  offset="1" style="stop-color:#AB7511"/>
		</linearGradient>
		<path style="fill:url(#SVGID_00000131349110979310500580000007134346742925107363_);" d="M25.3,12.6c-0.5-0.1-1,0-1.5,0.3
			c-0.5,0.3-0.9,0.6-1.3,1c0.6,0.5,1.2,1,2.3,1c0.3,0,0.5,0,0.8-0.1c0.3,0,0.5-0.1,0.7-0.2c0.5-0.2,0.9-0.5,1.3-0.8
			C26.5,13.6,26.3,12.7,25.3,12.6z"/>
	</g>
	<g>
		
			<linearGradient id="SVGID_00000062870284812771571400000010914392882847707803_" gradientUnits="userSpaceOnUse" x1="35.9411" y1="80.7726" x2="35.9411" y2="92.5845" gradientTransform="matrix(0.9932 0.1161 -0.1161 0.9932 5.9651 -2.4133)">
			<stop  offset="0" style="stop-color:#AB7511"/>
			<stop  offset="0.2464" style="stop-color:#F9D867"/>
			<stop  offset="0.3804" style="stop-color:#F5F2A5"/>
			<stop  offset="1" style="stop-color:#AB7511"/>
		</linearGradient>
		<path style="fill:url(#SVGID_00000062870284812771571400000010914392882847707803_);" d="M32.1,92.7c0.3,0.6,0.5,1,0.7,1.3
			c0.5-0.9,0.9-1.7,1.2-2.6c0.3-0.9,0.4-2,0.3-3.3c-0.2-2.5-1.4-4.6-2.9-6.1c-0.2,1.4-0.8,2.3-1.4,3.2c-0.6,0.9-1.2,1.7-1.2,2.8
			c-0.2,2.2,1.5,4.3,3.4,5.8c-0.3-0.5-0.6-1.2-0.8-2c-0.3-0.8-0.4-1.6-0.5-2.5c0-1.3,0.2-2,0.5-2.7c0.2-0.7,0.4-1.3,0.3-2.2
			c0.2,1.1,0,1.8-0.2,2.7c-0.2,0.8-0.5,1.8-0.1,3.4C31.6,91.3,31.8,92.1,32.1,92.7z"/>
		
			<linearGradient id="SVGID_00000181068825536915768130000012058283647224155023_" gradientUnits="userSpaceOnUse" x1="25.8629" y1="73.4669" x2="25.8629" y2="85.0423" gradientTransform="matrix(0.9932 0.1161 -0.1161 0.9932 5.9651 -2.4133)">
			<stop  offset="0" style="stop-color:#AB7511"/>
			<stop  offset="0.2464" style="stop-color:#F9D867"/>
			<stop  offset="0.3804" style="stop-color:#F5F2A5"/>
			<stop  offset="1" style="stop-color:#AB7511"/>
		</linearGradient>
		<path style="fill:url(#SVGID_00000181068825536915768130000012058283647224155023_);" d="M21.8,82.7c0,0.4,0.1,0.7,0.1,1
			c0.1,0.6,0.2,1,0.3,1.3c1.4-1.3,2.4-2.7,2.8-5.1c0.4-2.4-0.2-4.6-1.2-6.4c-0.6,1.2-1.3,2-2,2.6c-0.7,0.7-1.4,1.3-1.8,2.3
			c-0.2,0.5-0.2,1-0.2,1.5c0,0.5,0.1,1.1,0.3,1.6c0.2,0.5,0.4,1,0.7,1.6c0.3,0.5,0.6,1,1,1.4c-0.1-0.5-0.2-1.3-0.3-2.1
			c0-0.8,0-1.6,0.2-2.4c0.3-1.2,0.7-1.8,1.1-2.4c0.4-0.6,0.7-1.1,0.9-2c-0.1,1.1-0.4,1.7-0.9,2.4c-0.4,0.7-0.9,1.6-0.9,3.1
			C21.8,81.9,21.8,82.3,21.8,82.7z"/>
		
			<linearGradient id="SVGID_00000098927907066543971350000000838223717441557927_" gradientUnits="userSpaceOnUse" x1="18.0185" y1="63.9253" x2="18.0185" y2="74.4788" gradientTransform="matrix(0.9932 0.1161 -0.1161 0.9932 5.9651 -2.4133)">
			<stop  offset="0" style="stop-color:#AB7511"/>
			<stop  offset="0.2464" style="stop-color:#F9D867"/>
			<stop  offset="0.3804" style="stop-color:#F5F2A5"/>
			<stop  offset="1" style="stop-color:#AB7511"/>
		</linearGradient>
		<path style="fill:url(#SVGID_00000098927907066543971350000000838223717441557927_);" d="M14.2,72.2c-0.1,0.6-0.1,1-0.1,1.3
			c0.8-0.4,1.5-0.9,2.1-1.5c0.6-0.6,1.2-1.4,1.7-2.4c1-2.1,0.9-4.3,0.5-6.2c-0.8,1-1.7,1.5-2.5,1.9c-0.8,0.4-1.6,0.8-2.2,1.7
			c-1.1,1.6-0.8,4.1,0.1,6.1c0-0.5,0.1-1.2,0.3-1.9c0.2-0.7,0.4-1.5,0.7-2.1c0.5-1,1.1-1.5,1.6-1.9c0.5-0.4,0.9-0.8,1.3-1.6
			c-0.3,1-0.8,1.4-1.4,2c-0.6,0.6-1.2,1.2-1.6,2.6C14.4,70.9,14.3,71.6,14.2,72.2z"/>
		
			<linearGradient id="SVGID_00000044172207960545186710000011902389338135610795_" gradientUnits="userSpaceOnUse" x1="13.0689" y1="52.3546" x2="13.0689" y2="61.1829" gradientTransform="matrix(0.9932 0.1161 -0.1161 0.9932 5.9651 -2.4133)">
			<stop  offset="0" style="stop-color:#AB7511"/>
			<stop  offset="0.2464" style="stop-color:#F9D867"/>
			<stop  offset="0.3804" style="stop-color:#F5F2A5"/>
			<stop  offset="1" style="stop-color:#AB7511"/>
		</linearGradient>
		<path style="fill:url(#SVGID_00000044172207960545186710000011902389338135610795_);" d="M9.7,58.4c-0.2,0.5-0.4,0.9-0.4,1.2
			c0.8-0.2,1.6-0.4,2.3-0.8c0.7-0.4,1.5-0.9,2.2-1.8c0.2-0.2,0.3-0.4,0.5-0.6c0.2-0.2,0.3-0.4,0.4-0.7c0.3-0.5,0.5-0.9,0.6-1.4
			c0.3-1,0.5-1.9,0.5-2.9c-1,0.7-1.9,0.9-2.8,1.1c-0.9,0.2-1.7,0.3-2.4,1C9.9,54.1,9.5,55,9.3,56C9,57,9,58,9.1,59.1
			c0.2-0.5,0.4-1.1,0.8-1.7c0.3-0.6,0.8-1.3,1.2-1.8c0.7-0.8,1.4-1.1,1.9-1.3c0.6-0.3,1.1-0.5,1.6-1.2c-0.5,0.8-1.1,1.1-1.8,1.5
			c-0.7,0.4-1.4,0.8-2.1,2C10.3,57.3,10,57.9,9.7,58.4z"/>
		
			<linearGradient id="SVGID_00000140004101575688947000000008684395939523200703_" gradientUnits="userSpaceOnUse" x1="11.7067" y1="39.6895" x2="11.7067" y2="46.2768" gradientTransform="matrix(0.9932 0.1161 -0.1161 0.9932 5.9651 -2.4133)">
			<stop  offset="0" style="stop-color:#AB7511"/>
			<stop  offset="0.2464" style="stop-color:#F9D867"/>
			<stop  offset="0.3804" style="stop-color:#F5F2A5"/>
			<stop  offset="1" style="stop-color:#AB7511"/>
		</linearGradient>
		<path style="fill:url(#SVGID_00000140004101575688947000000008684395939523200703_);" d="M8.6,44.5c1.6,0.1,3,0,4.8-1.1
			c0.9-0.6,1.5-1.3,2.1-2.1c0.6-0.8,1-1.6,1.2-2.5c-1.1,0.4-1.9,0.4-2.8,0.3c-0.8-0.1-1.6-0.2-2.5,0.2C9.8,40.1,9,42.1,8.6,44
			c0.6-0.8,1.6-1.9,2.7-2.6c0.4-0.3,0.8-0.4,1.1-0.5c0.3-0.1,0.7-0.2,0.9-0.2c0.6-0.1,1.1-0.2,1.7-0.6c-0.7,0.6-1.3,0.7-2,0.9
			c-0.7,0.2-1.4,0.4-2.4,1.2C9.5,43.2,8.9,44,8.6,44.5z"/>
		
			<linearGradient id="SVGID_00000151526620700936952700000001685002384646433949_" gradientUnits="userSpaceOnUse" x1="14.063" y1="27.4291" x2="14.063" y2="32.153" gradientTransform="matrix(0.9932 0.1161 -0.1161 0.9932 5.9651 -2.4133)">
			<stop  offset="0" style="stop-color:#AB7511"/>
			<stop  offset="0.2464" style="stop-color:#F9D867"/>
			<stop  offset="0.3804" style="stop-color:#F5F2A5"/>
			<stop  offset="1" style="stop-color:#AB7511"/>
		</linearGradient>
		<path style="fill:url(#SVGID_00000151526620700936952700000001685002384646433949_);" d="M12.1,30.4c1.4,0.5,2.7,0.8,4.6,0.2
			c0.9-0.3,1.7-0.8,2.4-1.4c0.7-0.6,1.3-1.3,1.7-2c-1.1,0.1-1.9-0.1-2.6-0.4c-0.7-0.3-1.4-0.5-2.3-0.4c-1.7,0.2-2.9,1.9-3.8,3.5
			c0.7-0.5,1.9-1.3,3.1-1.7c0.9-0.3,1.5-0.2,2.1-0.1c0.5,0.1,1,0.1,1.7-0.1c-0.8,0.4-1.4,0.3-2,0.3c-0.7,0-1.4,0-2.5,0.5
			C13.2,29.5,12.4,30.1,12.1,30.4z"/>
		
			<linearGradient id="SVGID_00000049942132330010493180000013495742190634674823_" gradientUnits="userSpaceOnUse" x1="19.1194" y1="16.5791" x2="19.1194" y2="20.6356" gradientTransform="matrix(0.9932 0.1161 -0.1161 0.9932 5.9651 -2.4133)">
			<stop  offset="0" style="stop-color:#AB7511"/>
			<stop  offset="0.2464" style="stop-color:#F9D867"/>
			<stop  offset="0.3804" style="stop-color:#F5F2A5"/>
			<stop  offset="1" style="stop-color:#AB7511"/>
		</linearGradient>
		<path style="fill:url(#SVGID_00000049942132330010493180000013495742190634674823_);" d="M18.5,19c1.2,0.8,2.3,1.3,4.1,1.2
			c1.8-0.1,3.3-1,4.5-2.1c-1-0.1-1.7-0.5-2.3-0.9c-0.6-0.4-1.2-0.8-2-0.9c-0.8-0.1-1.5,0.2-2.2,0.6c-0.7,0.4-1.4,1-1.9,1.7
			c0.7-0.4,2-0.8,3.2-0.8c0.9,0,1.4,0.2,1.9,0.3c0.2,0.1,0.5,0.2,0.7,0.2c0.2,0,0.5,0.1,0.9,0c-0.4,0.1-0.7,0.1-1,0.1
			c-0.3,0-0.6-0.1-0.9-0.2c-0.6-0.2-1.3-0.3-2.4-0.1C19.6,18.4,18.9,18.8,18.5,19z"/>
		
			<linearGradient id="SVGID_00000090270334908368385610000007504857558391024557_" gradientUnits="userSpaceOnUse" x1="25.5392" y1="8.1693" x2="25.5392" y2="11.8588" gradientTransform="matrix(0.9932 0.1161 -0.1161 0.9932 5.9651 -2.4133)">
			<stop  offset="0" style="stop-color:#AB7511"/>
			<stop  offset="0.2464" style="stop-color:#F9D867"/>
			<stop  offset="0.3804" style="stop-color:#F5F2A5"/>
			<stop  offset="1" style="stop-color:#AB7511"/>
		</linearGradient>
		<path style="fill:url(#SVGID_00000090270334908368385610000007504857558391024557_);" d="M26.1,10.3c0.9,0.9,1.8,1.7,3.5,1.9
			c0.8,0.1,1.6,0,2.4-0.2c0.8-0.2,1.5-0.5,2.1-0.9c-0.9-0.3-1.4-0.8-1.9-1.3c-0.5-0.5-0.9-1-1.6-1.2c-1.4-0.5-3,0.4-4.3,1.3
			c0.8-0.1,2-0.3,3.1-0.1c0.4,0.1,0.7,0.2,1,0.3c0.3,0.1,0.5,0.3,0.7,0.4c0.4,0.3,0.8,0.5,1.4,0.5c-0.8,0-1.2-0.3-1.7-0.5
			c-0.5-0.3-1.1-0.5-2.1-0.5C27.4,10.1,26.5,10.2,26.1,10.3z"/>
	</g>
	<g>
		
			<linearGradient id="SVGID_00000021078557333244558050000007260981150495500436_" gradientUnits="userSpaceOnUse" x1="26.0937" y1="88.1252" x2="26.0937" y2="91.797" gradientTransform="matrix(0.9932 0.1161 -0.1161 0.9932 5.9651 -2.4133)">
			<stop  offset="0" style="stop-color:#AB7511"/>
			<stop  offset="0.2464" style="stop-color:#F9D867"/>
			<stop  offset="0.3804" style="stop-color:#F5F2A5"/>
			<stop  offset="1" style="stop-color:#AB7511"/>
		</linearGradient>
		<path style="fill:url(#SVGID_00000021078557333244558050000007260981150495500436_);" d="M19.5,88.9c-0.5,0.3-1.1,0.7-2.1,0.7
			c0.6,0.6,1.4,1.2,2.2,1.6c0.8,0.4,1.7,0.6,2.5,0.6c1.8,0,2.6-0.8,3.5-1.7c-0.6-0.5-1.3-1-2.1-1.4c-0.7-0.4-1.5-0.6-2.3-0.5
			C20.5,88.2,20,88.6,19.5,88.9z"/>
		
			<linearGradient id="SVGID_00000030453657330956568500000003245924238744412328_" gradientUnits="userSpaceOnUse" x1="16.1175" y1="77.6131" x2="16.1175" y2="81.1855" gradientTransform="matrix(0.9932 0.1161 -0.1161 0.9932 5.9651 -2.4133)">
			<stop  offset="0" style="stop-color:#AB7511"/>
			<stop  offset="0.2464" style="stop-color:#F9D867"/>
			<stop  offset="0.3804" style="stop-color:#F5F2A5"/>
			<stop  offset="1" style="stop-color:#AB7511"/>
		</linearGradient>
		<path style="fill:url(#SVGID_00000030453657330956568500000003245924238744412328_);" d="M11.2,76.8C10.6,77,10,77.2,9.1,77
			c0.2,0.4,0.4,0.7,0.7,1c0.3,0.3,0.6,0.6,0.9,0.9c0.6,0.6,1.4,1,2.1,1.2c1.6,0.4,2.6-0.1,3.6-0.7c-0.5-0.6-0.9-1.3-1.5-1.8
			c-0.6-0.5-1.2-0.9-1.9-1C12.3,76.4,11.8,76.6,11.2,76.8z"/>
		
			<linearGradient id="SVGID_00000146475202856047026040000006856706289405418371_" gradientUnits="userSpaceOnUse" x1="8.9895" y1="64.2156" x2="8.9895" y2="67.9659" gradientTransform="matrix(0.9932 0.1161 -0.1161 0.9932 5.9651 -2.4133)">
			<stop  offset="0" style="stop-color:#AB7511"/>
			<stop  offset="0.2464" style="stop-color:#F9D867"/>
			<stop  offset="0.3804" style="stop-color:#F5F2A5"/>
			<stop  offset="1" style="stop-color:#AB7511"/>
		</linearGradient>
		<path style="fill:url(#SVGID_00000146475202856047026040000006856706289405418371_);" d="M6.2,62.4c-0.6,0-1.2,0-1.9-0.4
			c0.4,1.5,1.3,3,2.6,3.7c1.4,0.8,2.4,0.6,3.5,0.3c-0.5-1.3-1.2-2.8-2.4-3.4C7.3,62.4,6.7,62.4,6.2,62.4z"/>
		
			<linearGradient id="SVGID_00000075134446790787070010000018012917121054009507_" gradientUnits="userSpaceOnUse" x1="5.7193" y1="48.3156" x2="5.7193" y2="52.9654" gradientTransform="matrix(0.9932 0.1161 -0.1161 0.9932 5.9651 -2.4133)">
			<stop  offset="0" style="stop-color:#AB7511"/>
			<stop  offset="0.2464" style="stop-color:#F9D867"/>
			<stop  offset="0.3804" style="stop-color:#F5F2A5"/>
			<stop  offset="1" style="stop-color:#AB7511"/>
		</linearGradient>
		<path style="fill:url(#SVGID_00000075134446790787070010000018012917121054009507_);" d="M3.6,46c0,0.7,0.1,1.5,0.3,2.2
			c0.2,0.7,0.6,1.3,1.1,1.8c1,1,2,1.1,3,1.2c0-0.3-0.1-0.7-0.1-1c0-0.3-0.1-0.7-0.2-1c-0.2-0.7-0.5-1.2-1-1.7
			C5.8,46.6,4.7,47.1,3.6,46z"/>
		
			<linearGradient id="SVGID_00000114039545865484767340000005092117463829033405_" gradientUnits="userSpaceOnUse" x1="6.591" y1="32.7772" x2="6.591" y2="38.1266" gradientTransform="matrix(0.9932 0.1161 -0.1161 0.9932 5.9651 -2.4133)">
			<stop  offset="0" style="stop-color:#AB7511"/>
			<stop  offset="0.2464" style="stop-color:#F9D867"/>
			<stop  offset="0.3804" style="stop-color:#F5F2A5"/>
			<stop  offset="1" style="stop-color:#AB7511"/>
		</linearGradient>
		<path style="fill:url(#SVGID_00000114039545865484767340000005092117463829033405_);" d="M7.1,30.7c-0.1,0.3-0.2,0.6-0.2,1
			c-0.1,0.3-0.1,0.7,0,1c0,0.7,0.2,1.3,0.5,1.9c0.7,1.2,1.5,1.5,2.4,1.8c0.3-1.2,0.5-2.6-0.2-3.6C8.9,31.8,7.8,32,7.1,30.7z"/>
		
			<linearGradient id="SVGID_00000024720511700322245920000013702748158808044928_" gradientUnits="userSpaceOnUse" x1="11.3358" y1="19.158" x2="11.3358" y2="24.6939" gradientTransform="matrix(0.9932 0.1161 -0.1161 0.9932 5.9651 -2.4133)">
			<stop  offset="0" style="stop-color:#AB7511"/>
			<stop  offset="0.2464" style="stop-color:#F9D867"/>
			<stop  offset="0.3804" style="stop-color:#F5F2A5"/>
			<stop  offset="1" style="stop-color:#AB7511"/>
		</linearGradient>
		<path style="fill:url(#SVGID_00000024720511700322245920000013702748158808044928_);" d="M15,19.2c-0.3-0.3-0.7-0.7-0.8-1.3
			c-0.2,0.3-0.3,0.5-0.4,0.8c-0.1,0.3-0.2,0.6-0.3,0.9c-0.1,0.6-0.2,1.2,0,1.8c0.3,1.2,0.9,1.7,1.7,2.2c0.5-1,1-2.2,0.7-3.3
			C15.7,19.8,15.4,19.5,15,19.2z"/>
		
			<linearGradient id="SVGID_00000096771773275072766740000007518430918548450447_" gradientUnits="userSpaceOnUse" x1="18.0946" y1="8.8188" x2="18.0946" y2="14.1088" gradientTransform="matrix(0.9932 0.1161 -0.1161 0.9932 5.9651 -2.4133)">
			<stop  offset="0" style="stop-color:#AB7511"/>
			<stop  offset="0.2464" style="stop-color:#F9D867"/>
			<stop  offset="0.3804" style="stop-color:#F5F2A5"/>
			<stop  offset="1" style="stop-color:#AB7511"/>
		</linearGradient>
		<path style="fill:url(#SVGID_00000096771773275072766740000007518430918548450447_);" d="M22.8,8.4c-0.4,0.4-0.7,0.9-1,1.4
			c-0.1,0.3-0.2,0.5-0.3,0.8c-0.1,0.3-0.1,0.6-0.1,0.8c0,1.2,0.5,1.7,1.1,2.3c0.3-0.4,0.7-0.9,0.9-1.3c0.3-0.5,0.4-0.9,0.4-1.4
			C23.7,10,22.8,9.7,22.8,8.4z"/>
		
			<linearGradient id="SVGID_00000057114490855770984580000002887372775744623547_" gradientUnits="userSpaceOnUse" x1="27.8742" y1="4.7505" x2="27.8742" y2="7.0112" gradientTransform="matrix(0.9932 0.1161 -0.1161 0.9932 5.9651 -2.4133)">
			<stop  offset="0" style="stop-color:#AB7511"/>
			<stop  offset="0.2464" style="stop-color:#F9D867"/>
			<stop  offset="0.3804" style="stop-color:#F5F2A5"/>
			<stop  offset="1" style="stop-color:#AB7511"/>
		</linearGradient>
		<path style="fill:url(#SVGID_00000057114490855770984580000002887372775744623547_);" d="M33,5.5c-0.5,0-1,0.2-1.5,0.4
			c-0.5,0.3-0.9,0.7-1.2,1.1c0.8,0.4,1.4,0.7,2.6,0.6C34,7.6,35,7.1,35.7,6.4C34.4,6.3,34,5.6,33,5.5z"/>
		
			<linearGradient id="SVGID_00000014602349421609938580000011313880841880149661_" gradientUnits="userSpaceOnUse" x1="26.275" y1="1.4044" x2="26.275" y2="6.5498" gradientTransform="matrix(0.9932 0.1161 -0.1161 0.9932 5.9651 -2.4133)">
			<stop  offset="0" style="stop-color:#AB7511"/>
			<stop  offset="0.2464" style="stop-color:#F9D867"/>
			<stop  offset="0.3804" style="stop-color:#F5F2A5"/>
			<stop  offset="1" style="stop-color:#AB7511"/>
		</linearGradient>
		<path style="fill:url(#SVGID_00000014602349421609938580000011313880841880149661_);" d="M33.2,2.2c-1,0.4-2,1.1-2.6,2.1
			C30,5.4,30.1,6.2,30.2,7c0.5-0.2,1-0.5,1.4-0.8c0.4-0.3,0.8-0.7,1-1.2C33.1,4.1,32.6,3.4,33.2,2.2z"/>
	</g>
	<g>
		
			<linearGradient id="SVGID_00000033371548326786844810000010955034084924676483_" gradientUnits="userSpaceOnUse" x1="30.5362" y1="91.9657" x2="30.5362" y2="98.0068" gradientTransform="matrix(0.9932 0.1161 -0.1161 0.9932 5.9651 -2.4133)">
			<stop  offset="0" style="stop-color:#AB7511"/>
			<stop  offset="0.2464" style="stop-color:#F9D867"/>
			<stop  offset="0.3804" style="stop-color:#F5F2A5"/>
			<stop  offset="1" style="stop-color:#AB7511"/>
		</linearGradient>
		<path style="fill:url(#SVGID_00000033371548326786844810000010955034084924676483_);" d="M27.9,94.9c-1.7,0-2.7,0.4-3.5,0.7
			c-0.8,0.4-1.6,0.7-2.9,0.4c1.1,0.1,1.8-0.2,2.4-0.5c0.7-0.3,1.4-0.7,2.7-0.9c0.9-0.1,1.8-0.1,2.7-0.1c0.9,0,1.6,0.1,2.2,0.1
			c-2.1-1.2-4.6-2.4-6.8-2c-1.2,0.2-1.9,0.9-2.8,1.5c-0.8,0.6-1.7,1.3-3.4,1.4c0.6,0.5,1.2,1,1.9,1.4c0.7,0.4,1.4,0.7,2.1,1
			c1.4,0.5,2.9,0.8,4.3,0.6c1.4-0.2,2.4-0.7,3.2-1.3c0.8-0.6,1.4-1.3,2-2.2c-0.3,0-0.8-0.1-1.5-0.1C29.9,94.9,29,94.8,27.9,94.9z"/>
		
			<linearGradient id="SVGID_00000054981411597990827820000003385144185403008905_" gradientUnits="userSpaceOnUse" x1="19.1603" y1="82.6526" x2="19.1603" y2="88.4317" gradientTransform="matrix(0.9932 0.1161 -0.1161 0.9932 5.9651 -2.4133)">
			<stop  offset="0" style="stop-color:#AB7511"/>
			<stop  offset="0.2464" style="stop-color:#F9D867"/>
			<stop  offset="0.3804" style="stop-color:#F5F2A5"/>
			<stop  offset="1" style="stop-color:#AB7511"/>
		</linearGradient>
		<path style="fill:url(#SVGID_00000054981411597990827820000003385144185403008905_);" d="M17.6,84.7c-1.6-0.4-2.5-0.3-3.4-0.2
			c-0.4,0.1-0.8,0.1-1.3,0.1c-0.4,0-0.9-0.1-1.5-0.4c1,0.4,1.6,0.2,2.3,0.1c0.7-0.1,1.5-0.3,2.7-0.2c0.8,0.1,1.7,0.3,2.5,0.5
			c0.8,0.2,1.5,0.4,2,0.6c-0.4-0.4-0.9-0.8-1.3-1.2c-0.4-0.4-0.9-0.8-1.4-1.1c-0.5-0.3-1-0.6-1.5-0.8c-0.5-0.2-1.1-0.3-1.6-0.4
			c-1.2-0.1-2,0.3-2.9,0.7c-0.9,0.4-1.9,0.8-3.4,0.5c1.6,2.4,4.2,4.3,6.8,4.7c2.7,0.3,4.1-0.7,5.6-1.9c-0.3-0.1-0.7-0.3-1.3-0.5
			c-0.3-0.1-0.6-0.2-1-0.3C18.6,85,18.1,84.9,17.6,84.7z"/>
		
			<linearGradient id="SVGID_00000108993391618968137180000009948426336854632865_" gradientUnits="userSpaceOnUse" x1="10.5592" y1="70.3027" x2="10.5592" y2="76.2012" gradientTransform="matrix(0.9932 0.1161 -0.1161 0.9932 5.9651 -2.4133)">
			<stop  offset="0" style="stop-color:#AB7511"/>
			<stop  offset="0.2464" style="stop-color:#F9D867"/>
			<stop  offset="0.3804" style="stop-color:#F5F2A5"/>
			<stop  offset="1" style="stop-color:#AB7511"/>
		</linearGradient>
		<path style="fill:url(#SVGID_00000108993391618968137180000009948426336854632865_);" d="M10.3,72c-1.3-0.8-2.3-0.9-3.1-1
			c-0.8-0.1-1.5-0.2-2.5-0.9c0.9,0.6,1.4,0.6,2.1,0.7c0.7,0,1.4,0.1,2.5,0.5c0.7,0.3,1.5,0.7,2.1,1.1c0.7,0.4,1.3,0.8,1.7,1.1
			c-1.1-1.9-2.5-3.9-4.4-4.6c-1.1-0.4-1.9-0.2-2.8-0.1C5,68.9,4,69,2.7,68.4c0.9,2.5,2.7,4.9,5.1,5.9c1.2,0.5,2.2,0.6,3.1,0.5
			c0.9-0.1,1.7-0.4,2.5-0.8c-0.2-0.2-0.6-0.4-1.1-0.8c-0.2-0.2-0.5-0.3-0.9-0.5C11,72.4,10.7,72.2,10.3,72z"/>
		
			<linearGradient id="SVGID_00000031179124049722803080000013148029508302271882_" gradientUnits="userSpaceOnUse" x1="5.3946" y1="54.5918" x2="5.3946" y2="61.7189" gradientTransform="matrix(0.9932 0.1161 -0.1161 0.9932 5.9651 -2.4133)">
			<stop  offset="0" style="stop-color:#AB7511"/>
			<stop  offset="0.2464" style="stop-color:#F9D867"/>
			<stop  offset="0.3804" style="stop-color:#F5F2A5"/>
			<stop  offset="1" style="stop-color:#AB7511"/>
		</linearGradient>
		<path style="fill:url(#SVGID_00000031179124049722803080000013148029508302271882_);" d="M6.4,57.1c-1-1-1.8-1.4-2.5-1.7
			c-0.7-0.3-1.3-0.5-2-1.5c0.6,0.7,1.1,0.9,1.7,1.1c0.6,0.2,1.3,0.4,2.2,1.1c0.6,0.4,1.1,1,1.6,1.5c0.5,0.5,0.9,1,1.2,1.4
			c-0.2-1-0.6-2-1-3c-0.2-0.5-0.5-0.9-0.8-1.3c-0.3-0.4-0.6-0.7-1-1c-0.9-0.6-1.7-0.7-2.6-0.8c-0.9-0.1-1.8-0.3-2.8-1.2
			c0.1,1.3,0.4,2.5,0.9,3.7c0.3,0.6,0.6,1.1,0.9,1.6c0.2,0.2,0.4,0.5,0.6,0.7c0.2,0.2,0.4,0.4,0.7,0.6c1,0.7,1.8,1.1,2.7,1.2
			c0.8,0.1,1.6,0.1,2.5-0.1c-0.2-0.2-0.4-0.6-0.8-1C7.6,58.3,7.1,57.8,6.4,57.1z"/>
		
			<linearGradient id="SVGID_00000112605192603971425340000011672704877634091651_" gradientUnits="userSpaceOnUse" x1="4.548" y1="37.8384" x2="4.548" y2="46.2808" gradientTransform="matrix(0.9932 0.1161 -0.1161 0.9932 5.9651 -2.4133)">
			<stop  offset="0" style="stop-color:#AB7511"/>
			<stop  offset="0.2464" style="stop-color:#F9D867"/>
			<stop  offset="0.3804" style="stop-color:#F5F2A5"/>
			<stop  offset="1" style="stop-color:#AB7511"/>
		</linearGradient>
		<path style="fill:url(#SVGID_00000112605192603971425340000011672704877634091651_);" d="M6.9,41.5c-0.6-1.2-1.3-1.7-1.9-2.2
			c-0.6-0.5-1.1-0.8-1.4-1.8C4,38.3,4.4,38.6,4.9,39c0.2,0.2,0.5,0.3,0.8,0.6c0.3,0.2,0.6,0.5,0.9,1c0.9,1.1,1.5,2.6,1.8,3.4
			c0.1-1.9,0-4.1-1.1-5.5c-0.6-0.8-1.3-1-2.1-1.4c-0.8-0.3-1.6-0.7-2.3-1.8c-0.2,1.2-0.3,2.4-0.1,3.5C2.9,40,3.3,41.1,3.9,42
			c1.3,1.8,2.7,2.2,4.3,2.4C8.1,43.9,7.7,43,6.9,41.5z"/>
		
			<linearGradient id="SVGID_00000083058749752438695650000007211302011098642092_" gradientUnits="userSpaceOnUse" x1="7.683" y1="22.5785" x2="7.683" y2="31.7987" gradientTransform="matrix(0.9932 0.1161 -0.1161 0.9932 5.9651 -2.4133)">
			<stop  offset="0" style="stop-color:#AB7511"/>
			<stop  offset="0.2464" style="stop-color:#F9D867"/>
			<stop  offset="0.3804" style="stop-color:#F5F2A5"/>
			<stop  offset="1" style="stop-color:#AB7511"/>
		</linearGradient>
		<path style="fill:url(#SVGID_00000083058749752438695650000007211302011098642092_);" d="M11.3,27.3c-0.3-1.2-0.7-1.9-1.1-2.4
			c-0.4-0.5-0.8-1-0.8-2c0.1,0.8,0.4,1.2,0.8,1.6c0.3,0.4,0.7,0.9,1.1,1.8c0.5,1.2,0.7,2.7,0.8,3.5c0.6-1.7,1-3.7,0.4-5.3
			c-0.4-0.8-1-1.3-1.6-1.8c-0.6-0.5-1.2-1-1.6-2.2c-0.5,1-0.8,2.1-1,3.1C8,24.9,8.1,26,8.5,27c0.7,2,1.9,2.6,3.3,3.3
			C11.7,29.8,11.7,28.9,11.3,27.3z"/>
		
			<linearGradient id="SVGID_00000179608049849759003790000011432777803449942460_" gradientUnits="userSpaceOnUse" x1="13.9923" y1="10.537" x2="13.9923" y2="19.679" gradientTransform="matrix(0.9932 0.1161 -0.1161 0.9932 5.9651 -2.4133)">
			<stop  offset="0" style="stop-color:#AB7511"/>
			<stop  offset="0.2464" style="stop-color:#F9D867"/>
			<stop  offset="0.3804" style="stop-color:#F5F2A5"/>
			<stop  offset="1" style="stop-color:#AB7511"/>
		</linearGradient>
		<path style="fill:url(#SVGID_00000179608049849759003790000011432777803449942460_);" d="M18.5,16c0-1.2-0.2-1.8-0.5-2.4
			c-0.1-0.3-0.2-0.6-0.3-0.9c-0.1-0.3-0.1-0.7,0-1.1c0,0.4,0,0.7,0.1,0.9c0.1,0.3,0.2,0.5,0.3,0.7c0.2,0.5,0.5,1,0.6,1.9
			c0.2,1.2,0,2.5-0.1,3.4c0.4-0.7,0.9-1.5,1.2-2.3c0.3-0.8,0.4-1.6,0.3-2.4c-0.1-0.8-0.6-1.3-1-1.9c-0.4-0.6-0.9-1.2-1-2.3
			c-1.4,1.5-2.2,3.6-2,5.5c0.2,2,1.2,2.8,2.3,3.7C18.4,18.4,18.4,17.5,18.5,16z"/>
		
			<linearGradient id="SVGID_00000090998228591139354140000009797346140039815587_" gradientUnits="userSpaceOnUse" x1="21.6603" y1="1.7573" x2="21.6603" y2="10.2761" gradientTransform="matrix(0.9932 0.1161 -0.1161 0.9932 5.9651 -2.4133)">
			<stop  offset="0" style="stop-color:#AB7511"/>
			<stop  offset="0.2464" style="stop-color:#F9D867"/>
			<stop  offset="0.3804" style="stop-color:#F5F2A5"/>
			<stop  offset="1" style="stop-color:#AB7511"/>
		</linearGradient>
		<path style="fill:url(#SVGID_00000090998228591139354140000009797346140039815587_);" d="M26.8,7.8c0.3-1.1,0.1-1.7,0-2.3
			c-0.1-0.6-0.2-1.1,0.1-1.9c-0.2,0.7-0.1,1.1,0,1.6c0.1,0.2,0.1,0.5,0.2,0.8c0,0.3,0.1,0.6,0,1.1c-0.1,1.1-0.5,2.3-0.7,3
			c1.1-1.1,2.2-2.5,2.3-3.9c0-0.8-0.3-1.3-0.6-2c-0.3-0.6-0.6-1.3-0.5-2.3c-0.7,0.6-1.4,1.3-1.9,2c-0.5,0.8-0.8,1.7-0.9,2.6
			c-0.2,1.8,0.5,2.8,1.3,3.8C26.2,9.9,26.5,9.1,26.8,7.8z"/>
	</g>
	
		<linearGradient id="SVGID_00000143619279213042672190000017375099827982266038_" gradientUnits="userSpaceOnUse" x1="31.6298" y1="6.762107e-03" x2="31.6298" y2="4.368" gradientTransform="matrix(0.9932 0.1161 -0.1161 0.9932 5.9651 -2.4133)">
		<stop  offset="0" style="stop-color:#AB7511"/>
		<stop  offset="0.2464" style="stop-color:#F9D867"/>
		<stop  offset="0.3804" style="stop-color:#F5F2A5"/>
		<stop  offset="1" style="stop-color:#AB7511"/>
	</linearGradient>
	<path style="fill:url(#SVGID_00000143619279213042672190000017375099827982266038_);" d="M34.5,3.1c-0.1,0.1-0.2,0.3-0.3,0.4
		C34,3.6,33.9,3.8,33.8,4c-0.2,0.3-0.3,0.6-0.5,0.9C33.7,4.6,34,4.3,34.5,4c0.5-0.3,1-0.6,1.5-0.8c0.8-0.3,1.4-0.4,1.9-0.4
		c0.5,0,1-0.1,1.6-0.3c-0.7,0.4-1.2,0.4-1.8,0.5c-0.6,0.1-1.3,0.2-2.2,0.8c-0.3,0.2-0.5,0.3-0.8,0.5c-0.2,0.1-0.4,0.3-0.6,0.4
		c-0.3,0.3-0.5,0.5-0.7,0.6c0.7,0.1,1.3,0.1,1.9,0c0.7,0,1.4-0.2,2.2-0.5c0.4-0.2,0.8-0.4,1.1-0.6c0.3-0.2,0.7-0.4,0.9-0.7
		c0.6-0.5,1-1.1,1.4-1.7c-1,0.3-1.7,0.2-2.4,0.1c-0.7-0.1-1.4-0.2-2.2,0.1C35.6,2.2,35,2.6,34.5,3.1z"/>
</g>
</svg>
