
<svg version="1.1" id="Capa_1" xmlns="http://www.w3.org/2000/svg" xmlns:xlink="http://www.w3.org/1999/xlink" x="0px" y="0px"
	 viewBox="0 0 512 512" style="enable-background:new 0 0 512 512;" xml:space="preserve">
	<g fill="#343434">
		<path d="M465.455,69.818H46.545C20.839,69.818,0,90.657,0,116.364v279.273c0,25.706,20.839,46.545,46.545,46.545h418.909
			c25.706,0,46.545-20.839,46.545-46.545V116.364C512,90.657,491.161,69.818,465.455,69.818z M46.545,93.091h418.909
			c2.659,0.017,5.296,0.489,7.796,1.396L271.825,295.913c-8.651,8.708-22.723,8.754-31.431,0.103
			c-0.034-0.034-0.069-0.069-0.103-0.103L38.749,94.487C41.249,93.58,43.886,93.107,46.545,93.091z M23.273,395.636V116.364
			c-0.119-1.355-0.119-2.718,0-4.073L167.331,256L23.273,399.709C23.154,398.354,23.154,396.991,23.273,395.636z M465.455,418.909
			H46.545c-2.659-0.017-5.296-0.489-7.796-1.396l145.105-145.105l39.913,39.913c17.735,17.802,46.542,17.856,64.344,0.121
			c0.041-0.04,0.081-0.081,0.121-0.121l39.913-39.913l145.105,145.105C470.751,418.42,468.114,418.893,465.455,418.909z
			 M488.727,399.709L344.669,256l144.058-143.709c0.119,1.355,0.119,2.718,0,4.073v279.273
			C488.846,396.991,488.846,398.354,488.727,399.709z"/>
	</g>
</svg>
