<svg id="Layer_1" enable-background="new 0 0 64 64" height="512" viewBox="0 0 64 64" width="512"
    xmlns="http://www.w3.org/2000/svg">
    <path fill="#d18f00" d="m60.501 26.72-3.752-3.002c-.015-.012-.03-.027-.045-.039l3.493-.699c.467-.093.803-.503.803-.98v-3c0-.552-.448-1-1-1h-5c-.552 0-1 .448-1 1v1.752c-.023-.031-.046-.062-.069-.093-.063-.174-.175-.316-.317-.429-.563-.797-1.045-1.595-1.359-2.285l-1.69-3.717c-1.077-2.371-3.961-4.228-6.565-4.228h-24c-2.604 0-5.488 1.857-6.565 4.228l-1.689 3.716c-.314.69-.796 1.489-1.359 2.286-.142.113-.253.255-.317.429-.023.031-.045.061-.069.093v-1.752c0-.552-.448-1-1-1h-5.001c-.552 0-1 .448-1 1v3c0 .477.336.887.804.98l3.493.699c-.015.012-.03.027-.045.039l-3.753 3.002c-1.962 1.57-3.499 4.768-3.499 7.28v17c0 1.654 1.346 3 3 3h8c1.654 0 3-1.346 3-3v-2h36v2c0 1.654 1.346 3 3 3h8c1.654 0 3-1.346 3-3v-17c0-2.512-1.537-5.71-3.499-7.28zm-9.087 20.28-2.293-2.293c-.973-.973-2.745-1.707-4.121-1.707h-26.5c-1.376 0-3.148.734-4.121 1.707l-2.293 2.293h-7.086c-1.654 0-3-1.346-3-3v-5h1v1c0 2.206 1.794 4 4 4h3c.552 0 1-.448 1-1s-.448-1-1-1h-3c-1.103 0-2-.897-2-2v-1h2c.83 0 2.12.534 2.707 1.121.195.195.451.293.707.293s.512-.098.707-.293c.391-.391.391-1.023 0-1.414-.973-.973-2.744-1.707-4.121-1.707h-5v-3c0-.353.056-.734.135-1.123.64.668 1.571 1.123 2.865 1.123h8c.265 0 .519-.105.707-.293l1.293-1.293 1.293 1.293c.187.188.442.293.707.293h11.586l2.707 2.707c.195.195.451.293.707.293s.512-.098.707-.293l2.707-2.707h11.586c.265 0 .52-.105.707-.293l1.293-1.293 1.293 1.293c.187.188.442.293.707.293h8c1.294 0 2.225-.455 2.865-1.123.079.389.135.77.135 1.123v3h-5c-1.376 0-3.148.734-4.121 1.707-.391.391-.391 1.023 0 1.414.195.195.451.293.707.293s.512-.098.707-.293c.587-.587 1.877-1.121 2.707-1.121h2v1c0 1.103-.897 2-2 2h-3c-.552 0-1 .448-1 1s.448 1 1 1h3c2.206 0 4-1.794 4-4v-1h1v5c0 1.654-1.346 3-3 3zm-2.828 0h-33.672l.879-.879c.587-.587 1.877-1.121 2.707-1.121h26.5c.83 0 2.12.534 2.707 1.121zm-37.026-25h40.88c.969 1.281 2.076 2.493 3.059 3.28l1.203.962-7.073 2.829c-.001 0-.001.001-.002.001-.121.049-.235.122-.333.22l-1 1-1.708 1.708h-11.586c-.265 0-.52.105-.707.293l-2.293 2.293-2.293-2.293c-.187-.188-.442-.293-.707-.293h-11.586l-1.707-1.707-1-1c-.098-.098-.212-.171-.333-.22-.001 0-.001-.001-.002-.001l-7.073-2.829 1.203-.962c.982-.788 2.089-2 3.058-3.281zm49.381 8.419c-.201 1.045-.849 1.581-1.941 1.581h-7.586l-1-1 .148-.148 7.935-3.174.754.604c.634.507 1.219 1.278 1.69 2.137zm-4.941-10.419h3v1.18l-3 .6zm-42.435-1.228 1.689-3.716c.754-1.657 2.927-3.056 4.746-3.056h24c1.819 0 3.992 1.399 4.745 3.055l1.69 3.717c.176.386.405.803.656 1.228h-38.182c.251-.425.481-.842.656-1.228zm-8.565 1.228h3v1.78l-3-.6zm-.252 8.282.754-.604 7.936 3.174.148.148-1 1h-7.586c-1.092 0-1.74-.536-1.941-1.581.471-.859 1.055-1.63 1.689-2.137zm6.252 23.718h-8c-.551 0-1-.449-1-1v-3.025c.838.634 1.87 1.025 3 1.025h7v2c0 .551-.449 1-1 1zm50 0h-8c-.551 0-1-.449-1-1v-2h7c1.13 0 2.162-.391 3-1.025v3.025c0 .551-.449 1-1 1z"/>
</svg>