<svg clip-rule="evenodd" fill-rule="evenodd" height="300" image-rendering="optimizeQuality" shape-rendering="geometricPrecision" text-rendering="geometricPrecision" viewBox="0 0 1707 1707" width="300" xmlns="http://www.w3.org/2000/svg" version="1.1" xmlns:xlink="http://www.w3.org/1999/xlink" xmlns:svgjs="http://svgjs.dev/svgjs"><g width="100%" height="100%" transform="matrix(1,0,0,1,0,0)"><g id="Layer_x0020_1"><path d="m1676 1701h-1646c-16 0-30-14-30-30v-239c0-17 14-30 30-30h269v177c0 8 7 15 15 15 9 0 15-7 15-15v-177-62c0-17 14-30 30-30h269v193c0 9 7 16 15 16 9 0 16-7 16-16v-193-62c0-17 13-30 30-30h268v193c0 9 7 16 16 16 8 0 15-7 15-16v-193-79c0-16 13-30 30-30h269v194c0 8 7 15 15 15 8 0 15-7 15-15v-288c0-17 14-30 30-30h329c17 0 30 13 30 30v346 8 302c0 16-13 30-30 30z" fill="#a26e4d" fill-opacity="1" data-original-color="#000000ff" stroke="none" stroke-opacity="1"/><path d="m1637 596h-1567c-17 0-30-14-30-30 0-17 13-30 30-30h1567c17 0 30 13 30 30 0 16-13 30-30 30z" fill="#a26e4d" fill-opacity="1" data-original-color="#000000ff" stroke="none" stroke-opacity="1"/><path d="m584 1174h-448c-17 0-30-13-30-30v-448c0-16 13-30 30-30h448c16 0 30 14 30 30v448c0 17-14 30-30 30zm-160-237c9 0 16-8 16-17v-131c0-9-7-17-16-17h-128c-9 0-17 8-17 17v262c0 9 8 17 17 17s16-8 16-17v-114zm-112-34v-97h95v97z" fill="#a26e4d" fill-opacity="1" data-original-color="#000000ff" stroke="none" stroke-opacity="1"/><g id="_363905320"><path d="m689 1100c-16 0-30-13-30-30v-374c0-16 14-30 30-30 17 0 30 14 30 30v374c0 17-13 30-30 30z" fill="#a26e4d" fill-opacity="1" data-original-color="#000000ff" stroke="none" stroke-opacity="1"/><path d="m30 1100c-16 0-30-13-30-30v-374c0-16 14-30 30-30 17 0 30 14 30 30v374c0 17-13 30-30 30z" fill="#a26e4d" fill-opacity="1" data-original-color="#000000ff" stroke="none" stroke-opacity="1"/></g><path d="m1107 1069h-162c-15 0-28-12-28-27v-117h-52c-11 0-21-6-25-16-5-10-4-21 3-29l161-204c11-13 33-13 44 0l159 201c5 5 8 12 8 20 0 15-12 28-28 28h-52v117c0 15-13 27-28 27z" fill="#a26e4d" fill-opacity="1" data-original-color="#000000ff" stroke="none" stroke-opacity="1"/><path d="m1657 500h-30c2-9 3-19 3-29 0-86-70-155-155-155s-155 69-155 155c0 10 1 20 3 29h-74c2-9 3-19 3-29 0-86-69-155-155-155-85 0-155 69-155 155 0 10 1 20 3 29h-30c-16 0-29-13-29-29v-241c0-17 13-30 29-30h621c83 0 151 67 151 150v121c0 16-14 29-30 29z" fill="#a26e4d" fill-opacity="1" data-original-color="#000000ff" stroke="none" stroke-opacity="1"/><path d="m1506 259h-488c-9 0-17-3-23-10s-8-16-7-24l33-194c3-15 15-25 30-25h372c12 0 23 7 28 18l81 190c3 5 4 10 4 16 0 16-13 29-30 29zm-453-59h408l-57-135h-328z" fill="#a26e4d" fill-opacity="1" data-original-color="#000000ff" stroke="none" stroke-opacity="1"/><path d="m1203 259c-17 0-30-13-30-29v-194c0-17 13-30 30-30 16 0 29 13 29 30v194c0 16-13 29-29 29z" fill="#a26e4d" fill-opacity="1" data-original-color="#000000ff" stroke="none" stroke-opacity="1"/><path d="m1475 596c-69 0-125-56-125-125s56-125 125-125 125 56 125 125-56 125-125 125zm0-89c-20 0-37-16-37-36 0-21 17-37 37-37s37 16 37 37c0 20-17 36-37 36z" fill="#a26e4d" fill-opacity="1" data-original-color="#000000ff" stroke="none" stroke-opacity="1"/><path d="m791 500h-30c2-9 3-19 3-29 0-86-69-155-154-155-86 0-155 69-155 155 0 10 1 20 3 29h-74c1-9 2-19 2-29 0-86-69-155-154-155-86 0-155 69-155 155 0 10 1 20 3 29h-30c-17 0-30-13-30-29v-241c0-17 13-30 30-30h621c83 0 150 67 150 150v121c0 16-13 29-30 29z" fill="#a26e4d" fill-opacity="1" data-original-color="#000000ff" stroke="none" stroke-opacity="1"/><path d="m641 259h-489c-9 0-17-3-23-10-5-7-8-16-6-24l33-194c2-15 15-25 29-25h373c12 0 22 7 27 18l81 190c3 5 5 10 5 16 0 16-14 29-30 29zm-454-59h408l-57-135h-328z" fill="#a26e4d" fill-opacity="1" data-original-color="#000000ff" stroke="none" stroke-opacity="1"/><path d="m337 259c-16 0-30-13-30-29v-194c0-17 14-30 30-30s30 13 30 30v194c0 16-14 29-30 29z" fill="#a26e4d" fill-opacity="1" data-original-color="#000000ff" stroke="none" stroke-opacity="1"/><path d="m1097 596c-69 0-125-56-125-125s56-125 125-125 125 56 125 125-56 125-125 125zm0-89c-20 0-37-16-37-36 0-21 17-37 37-37s37 16 37 37c0 20-17 36-37 36z" fill="#a26e4d" fill-opacity="1" data-original-color="#000000ff" stroke="none" stroke-opacity="1"/><path d="m610 596c-69 0-125-56-125-125s56-125 125-125c68 0 125 56 125 125s-57 125-125 125zm0-89c-21 0-37-16-37-36 0-21 16-37 37-37 20 0 36 16 36 37 0 20-16 36-36 36z" fill="#a26e4d" fill-opacity="1" data-original-color="#000000ff" stroke="none" stroke-opacity="1"/><path d="m232 596c-69 0-125-56-125-125s56-125 125-125 125 56 125 125-56 125-125 125zm0-89c-21 0-37-16-37-36 0-21 16-37 37-37 20 0 36 16 36 37 0 20-16 36-36 36z" fill="#a26e4d" fill-opacity="1" data-original-color="#000000ff" stroke="none" stroke-opacity="1"/></g></g></svg>