
<svg version="1.1" id="Layer_1" xmlns="http://www.w3.org/2000/svg" xmlns:xlink="http://www.w3.org/1999/xlink" x="0px" y="0px"
	 viewBox="0 0 100 100" style="enable-background:new 0 0 100 100;" xml:space="preserve" fill="#a26e4d">
<path class="st0" d="M85.7,10.4c-0.4,0-0.7,0-1.1,0.4L61,30.2l-44.5-5.9c-0.4-0.4-1.1,0-1.5,0.4l-4.4,4c-1.1,1.1-0.7,2.6,0.4,2.9
	l33.5,14.7L27.1,67.8l-12.9-2.6c-0.4-0.4-1.1,0-1.5,0.4l-1.1,1.1c-1.1,1.1-0.7,2.6,0.4,2.9l12.1,5.9L30,87.6
	c0.7,1.1,2.2,1.1,2.9,0.4l1.1-1.1c0.4-0.4,0.4-0.7,0.4-1.5l-2.6-12.9l21.3-16.9L68,89.1c0.7,1.1,2.2,1.1,2.9,0.4l4.4-4.4
	c0.4-0.4,0.4-1.1,0.4-1.5l-5.9-44.5l19.5-23.6c0.4-0.4,0.4-0.7,0.4-1.1l0.4-2.6c0-1.1-0.7-1.8-1.8-1.8L85.7,10.4z"/>
</svg>
