<svg enable-background="new 0 0 64 64" height="512" viewBox="0 0 64 64" width="512"
    xmlns="http://www.w3.org/2000/svg">
    <g id="real_estate_office" fill="#8dcd27">
        <g>
            <path d="m56.5 31.1-12.5-6.7v-11.4c0-.6-.4-1-1-1h-1v-4c0-.6-.4-1-1-1h-18c-.6 0-1 .4-1 1v4h-1c-.6 0-1 .4-1 1v8h-12c-.6 0-1 .4-1 1v34c0 .6.4 1 1 1h48c.6 0 1-.4 1-1 0-25.9.2-24.5-.5-24.9zm-32.5-22.1h16v3h-16zm-4 39h-7v-2h7zm0-9h-7v-2h7zm0-9h-7v-2h7zm-11-7h11v3h-8c-.6 0-1 .4-1 1v4c0 .6.4 1 1 1h8v3h-8c-.6 0-1 .4-1 1v4c0 .6.4 1 1 1h8v3h-8c-.6 0-1 .4-1 1v4c0 .6.4 1 1 1h8v5h-11zm13-9h20v41h-3v-10c0-.6-.4-1-1-1h-12c-.6 0-1 .4-1 1v10h-3c0-12.5 0-27.5 0-41zm5 41v-9h10v9zm28 0h-11v-28.3l11 5.9z"/>
            <path d="m26 23h4c.6 0 1-.4 1-1v-4c0-.6-.4-1-1-1h-4c-.6 0-1 .4-1 1v4c0 .6.4 1 1 1zm1-4h2v2h-2z"/>
            <path d="m34 23h4c.6 0 1-.4 1-1v-4c0-.6-.4-1-1-1h-4c-.6 0-1 .4-1 1v4c0 .6.4 1 1 1zm1-4h2v2h-2z"/>
            <path d="m26 32h4c.6 0 1-.4 1-1v-4c0-.6-.4-1-1-1h-4c-.6 0-1 .4-1 1v4c0 .6.4 1 1 1zm1-4h2v2h-2z"/>
            <path d="m34 32h4c.6 0 1-.4 1-1v-4c0-.6-.4-1-1-1h-4c-.6 0-1 .4-1 1v4c0 .6.4 1 1 1zm1-4h2v2h-2z"/>
            <path d="m26 41h4c.6 0 1-.4 1-1v-4c0-.6-.4-1-1-1h-4c-.6 0-1 .4-1 1v4c0 .6.4 1 1 1zm1-4h2v2h-2z"/>
            <path d="m34 41h4c.6 0 1-.4 1-1v-4c0-.6-.4-1-1-1h-4c-.6 0-1 .4-1 1v4c0 .6.4 1 1 1zm1-4h2v2h-2z"/>
            <path d="m47 41h4c.6 0 1-.4 1-1v-4c0-.6-.4-1-1-1h-4c-.6 0-1 .4-1 1v4c0 .6.4 1 1 1zm1-4h2v2h-2z"/>
            <path d="m47 50h4c.6 0 1-.4 1-1v-4c0-.6-.4-1-1-1h-4c-.6 0-1 .4-1 1v4c0 .6.4 1 1 1zm1-4h2v2h-2z"/>
        </g>
    </g>
</svg>