<?xml version="1.0" encoding="utf-8"?>
<!-- Generator: Adobe Illustrator 26.2.1, SVG Export Plug-In . SVG Version: 6.00 Build 0)  -->
<svg version="1.1" id="Layer_1" xmlns="http://www.w3.org/2000/svg" xmlns:xlink="http://www.w3.org/1999/xlink" x="0px" y="0px"
	 viewBox="0 0 41.5 100" style="enable-background:new 0 0 41.5 100;" xml:space="preserve">
<style type="text/css">
	.st0{fill:url(#SVGID_1_);}
	.st1{fill:url(#SVGID_00000180345266778013939910000002398848188302971546_);}
	.st2{fill:url(#SVGID_00000057859903502589045770000003856951036631141293_);}
	.st3{fill:url(#SVGID_00000181086262143488707800000007851588459974810500_);}
	.st4{fill:url(#SVGID_00000079471138085613461360000006333970527215291021_);}
	.st5{fill:url(#SVGID_00000025405182805784711890000012720666323429309080_);}
	.st6{fill:url(#SVGID_00000172420412533009748670000004424114038052623755_);}
	.st7{fill:url(#SVGID_00000130644553964325318920000015043838840994724028_);}
	.st8{fill:url(#SVGID_00000105427438843675627880000008621288479030463922_);}
	.st9{fill:url(#SVGID_00000027595609916840765290000018426613982779111817_);}
	.st10{fill:url(#SVGID_00000091702904794362568560000015835037940826153888_);}
	.st11{fill:url(#SVGID_00000121245492180094517860000003855771523298379146_);}
	.st12{fill:url(#SVGID_00000093155110075205648560000001511931470017891729_);}
	.st13{fill:url(#SVGID_00000160888901969020380340000017655470146348558468_);}
	.st14{fill:url(#SVGID_00000072990627414102736920000008641753916065540281_);}
	.st15{fill:url(#SVGID_00000123422240415933155820000011053283675054883490_);}
	.st16{fill:url(#SVGID_00000087392514705949923400000006048227500621449115_);}
	.st17{fill:url(#SVGID_00000036938548337057951680000007541268495155847054_);}
	.st18{fill:url(#SVGID_00000163755349054697718060000002079031078001533845_);}
	.st19{fill:url(#SVGID_00000009584130898935820480000014107955765858979994_);}
	.st20{fill:url(#SVGID_00000133498170528958124660000015299480859930523273_);}
	.st21{fill:url(#SVGID_00000147208619556638958930000007061555844149597067_);}
	.st22{fill:url(#SVGID_00000059304855377111386580000016523129685878433191_);}
	.st23{fill:url(#SVGID_00000119107593959534166720000000286225995723663507_);}
	.st24{fill:url(#SVGID_00000003785237339058574750000003044657432334859649_);}
	.st25{fill:url(#SVGID_00000080199569839178879030000011089861525534026392_);}
	.st26{fill:url(#SVGID_00000134969226693805673000000009929630204532606630_);}
	.st27{fill:url(#SVGID_00000071532016541812627260000001561145927101519255_);}
	.st28{fill:url(#SVGID_00000088827526858094781280000017170374755320397957_);}
	.st29{fill:url(#SVGID_00000007403370001058560130000009685108185518346395_);}
	.st30{fill:url(#SVGID_00000098916865462218019600000010976467847127963823_);}
	.st31{fill:url(#SVGID_00000122702631570063927580000012020348838570825344_);}
	.st32{fill:url(#SVGID_00000137110474861269006630000010130339154820007323_);}
	.st33{fill:url(#SVGID_00000018237609251172968130000001449719037598323841_);}
</style>
<g>
	
		<linearGradient id="SVGID_1_" gradientUnits="userSpaceOnUse" x1="26.8994" y1="5.8283" x2="26.8994" y2="97.3502" gradientTransform="matrix(-0.9932 0.1161 0.1161 0.9932 35.4379 -2.4133)">
		<stop  offset="0" style="stop-color:#AB7511"/>
		<stop  offset="0.2464" style="stop-color:#F9D867"/>
		<stop  offset="0.3804" style="stop-color:#F5F2A5"/>
		<stop  offset="1" style="stop-color:#AB7511"/>
	</linearGradient>
	<path class="st0" d="M0.8,97.8C3,96.9,5,95.9,7,94.7c2-1.2,3.9-2.5,5.7-3.9c3.6-2.9,6.9-6.2,9.7-9.9c5.6-7.4,9-16.4,10-25.6
		c0.2-2.3,0.3-4.6,0.3-7l-0.1-1.7c0-0.6-0.1-1.2-0.1-1.7c0-0.3,0-0.6-0.1-0.9L32.3,43L32,41.3c-0.7-4.6-2.1-9.1-4-13.4
		c-3.9-8.5-10.1-16-17.7-21.3l0.1-0.2c7.8,5.3,14.2,12.7,18.2,21.3c2,4.3,3.5,8.8,4.3,13.5l0.3,1.8l0.1,0.9c0,0.3,0.1,0.6,0.1,0.9
		c0.1,0.6,0.1,1.2,0.2,1.8l0.1,1.8c0.1,2.4,0,4.7-0.2,7.1c-0.9,9.5-4.3,18.7-9.9,26.4c-2.8,3.9-6.1,7.4-9.8,10.4
		c-1.9,1.5-3.8,2.9-5.9,4.1c-2,1.2-4.2,2.4-6.4,3.3C0.6,99.3,0.4,98.7,0.8,97.8z"/>
	<g>
		
			<linearGradient id="SVGID_00000055692147473222020610000004292964981081472692_" gradientUnits="userSpaceOnUse" x1="30.2231" y1="81.0098" x2="30.2231" y2="88.671" gradientTransform="matrix(-0.9932 0.1161 0.1161 0.9932 35.4379 -2.4133)">
			<stop  offset="0" style="stop-color:#AB7511"/>
			<stop  offset="0.2464" style="stop-color:#F9D867"/>
			<stop  offset="0.3804" style="stop-color:#F5F2A5"/>
			<stop  offset="1" style="stop-color:#AB7511"/>
		</linearGradient>
		<path style="fill:url(#SVGID_00000055692147473222020610000004292964981081472692_);" d="M16.1,83.5c-0.4-0.5-0.8-1.1-1-1.9
			c-0.5,0.5-0.8,1.2-1.1,1.9c-0.3,0.7-0.4,1.5-0.4,2.2c0,1.7,0.7,2.6,1.5,3.6c0.6-0.6,1.1-1.2,1.5-1.9c0.4-0.7,0.6-1.4,0.4-2.2
			C16.9,84.4,16.5,84,16.1,83.5z"/>
		
			<linearGradient id="SVGID_00000177486417326921412600000010352955571662578616_" gradientUnits="userSpaceOnUse" x1="20.9978" y1="72.1288" x2="20.9978" y2="79.3473" gradientTransform="matrix(-0.9932 0.1161 0.1161 0.9932 35.4379 -2.4133)">
			<stop  offset="0" style="stop-color:#AB7511"/>
			<stop  offset="0.2464" style="stop-color:#F9D867"/>
			<stop  offset="0.3804" style="stop-color:#F5F2A5"/>
			<stop  offset="1" style="stop-color:#AB7511"/>
		</linearGradient>
		<path style="fill:url(#SVGID_00000177486417326921412600000010352955571662578616_);" d="M23.6,73.3c-0.5-0.4-1-0.8-1.4-1.5
			c-0.1,0.3-0.2,0.6-0.3,1c-0.1,0.3-0.2,0.7-0.2,1c-0.1,0.7,0,1.4,0.2,2.2c0.5,1.5,1.3,2.2,2.2,2.9c0.4-0.6,0.7-1.4,0.9-2.1
			c0.2-0.7,0.2-1.5-0.1-2.1C24.6,74,24.1,73.6,23.6,73.3z"/>
		
			<linearGradient id="SVGID_00000121256916251308978940000001241137153222675633_" gradientUnits="userSpaceOnUse" x1="14.0387" y1="60.9313" x2="14.0387" y2="67.2307" gradientTransform="matrix(-0.9932 0.1161 0.1161 0.9932 35.4379 -2.4133)">
			<stop  offset="0" style="stop-color:#AB7511"/>
			<stop  offset="0.2464" style="stop-color:#F9D867"/>
			<stop  offset="0.3804" style="stop-color:#F5F2A5"/>
			<stop  offset="1" style="stop-color:#AB7511"/>
		</linearGradient>
		<path style="fill:url(#SVGID_00000121256916251308978940000001241137153222675633_);" d="M28.7,61c-0.5-0.2-1.1-0.5-1.6-1
			c-0.2,1.3-0.1,2.7,0.7,3.9c0.8,1.3,1.7,1.7,2.8,2.1c0.4-1.4,0.5-3-0.4-4C29.7,61.3,29.2,61.2,28.7,61z"/>
		
			<linearGradient id="SVGID_00000079452830908722108600000000028725153887901872_" gradientUnits="userSpaceOnUse" x1="10.6125" y1="47.8958" x2="10.6125" y2="52.8658" gradientTransform="matrix(-0.9932 0.1161 0.1161 0.9932 35.4379 -2.4133)">
			<stop  offset="0" style="stop-color:#AB7511"/>
			<stop  offset="0.2464" style="stop-color:#F9D867"/>
			<stop  offset="0.3804" style="stop-color:#F5F2A5"/>
			<stop  offset="1" style="stop-color:#AB7511"/>
		</linearGradient>
		<path style="fill:url(#SVGID_00000079452830908722108600000000028725153887901872_);" d="M28.4,46.6c0.1,0.6,0.2,1.2,0.5,1.8
			c0.3,0.6,0.6,1.1,1.1,1.6c1.1,0.9,2,1.1,3,1.1c0-0.3,0-0.7-0.1-1c-0.1-0.3-0.1-0.7-0.2-1c-0.2-0.6-0.5-1.2-1.1-1.5
			C30.6,46.9,29.7,47.4,28.4,46.6z"/>
		
			<linearGradient id="SVGID_00000081637960746347732350000018411143744354646928_" gradientUnits="userSpaceOnUse" x1="11.1058" y1="34.7537" x2="11.1058" y2="38.2343" gradientTransform="matrix(-0.9932 0.1161 0.1161 0.9932 35.4379 -2.4133)">
			<stop  offset="0" style="stop-color:#AB7511"/>
			<stop  offset="0.2464" style="stop-color:#F9D867"/>
			<stop  offset="0.3804" style="stop-color:#F5F2A5"/>
			<stop  offset="1" style="stop-color:#AB7511"/>
		</linearGradient>
		<path style="fill:url(#SVGID_00000081637960746347732350000018411143744354646928_);" d="M26,33.7c0.1,0.3,0.2,0.5,0.4,0.8
			c0.2,0.2,0.3,0.5,0.5,0.7c0.4,0.5,0.8,0.8,1.4,1.1c1.2,0.6,2,0.5,3,0.2c-0.4-1.2-1-2.4-2.1-2.8C28.1,33.4,27.3,34.1,26,33.7z"/>
		
			<linearGradient id="SVGID_00000081629297953254279010000007742845298515767942_" gradientUnits="userSpaceOnUse" x1="14.9045" y1="22.4403" x2="14.9045" y2="25.1288" gradientTransform="matrix(-0.9932 0.1161 0.1161 0.9932 35.4379 -2.4133)">
			<stop  offset="0" style="stop-color:#AB7511"/>
			<stop  offset="0.2464" style="stop-color:#F9D867"/>
			<stop  offset="0.3804" style="stop-color:#F5F2A5"/>
			<stop  offset="1" style="stop-color:#AB7511"/>
		</linearGradient>
		<path style="fill:url(#SVGID_00000081629297953254279010000007742845298515767942_);" d="M20.7,22.3c0.2,0.2,0.4,0.4,0.5,0.6
			c0.2,0.2,0.4,0.4,0.6,0.5c0.4,0.3,1,0.6,1.5,0.7c1.2,0.2,1.9-0.1,2.7-0.5c-0.6-0.9-1.5-1.9-2.6-2C22.5,21.5,22,22.4,20.7,22.3z"/>
		
			<linearGradient id="SVGID_00000083057633250892812120000011609585261882336927_" gradientUnits="userSpaceOnUse" x1="20.9442" y1="12.6314" x2="20.9442" y2="14.9471" gradientTransform="matrix(-0.9932 0.1161 0.1161 0.9932 35.4379 -2.4133)">
			<stop  offset="0" style="stop-color:#AB7511"/>
			<stop  offset="0.2464" style="stop-color:#F9D867"/>
			<stop  offset="0.3804" style="stop-color:#F5F2A5"/>
			<stop  offset="1" style="stop-color:#AB7511"/>
		</linearGradient>
		<path style="fill:url(#SVGID_00000083057633250892812120000011609585261882336927_);" d="M13.7,13.8c0.4,0.3,0.8,0.6,1.3,0.8
			c0.2,0.1,0.5,0.2,0.7,0.2c0.2,0.1,0.5,0.1,0.8,0.1c1.1,0,1.7-0.5,2.3-1c-0.4-0.4-0.8-0.7-1.3-1c-0.5-0.2-1-0.4-1.5-0.3
			C15.1,12.7,14.9,13.6,13.7,13.8z"/>
	</g>
	<g>
		
			<linearGradient id="SVGID_00000129928707218742818340000017188667048400264325_" gradientUnits="userSpaceOnUse" x1="35.9411" y1="80.7726" x2="35.9411" y2="92.5845" gradientTransform="matrix(-0.9932 0.1161 0.1161 0.9932 35.4379 -2.4133)">
			<stop  offset="0" style="stop-color:#AB7511"/>
			<stop  offset="0.2464" style="stop-color:#F9D867"/>
			<stop  offset="0.3804" style="stop-color:#F5F2A5"/>
			<stop  offset="1" style="stop-color:#AB7511"/>
		</linearGradient>
		<path style="fill:url(#SVGID_00000129928707218742818340000017188667048400264325_);" d="M10.1,90.3c0.4-1.6,0.1-2.5-0.1-3.4
			c-0.2-0.9-0.5-1.6-0.2-2.7c-0.1,0.9,0.1,1.6,0.3,2.2c0.2,0.7,0.5,1.4,0.5,2.7c0,0.8-0.2,1.7-0.5,2.5c-0.3,0.8-0.6,1.5-0.8,2
			c1.9-1.5,3.6-3.6,3.4-5.8c-0.1-1.2-0.7-2-1.2-2.8c-0.6-0.9-1.1-1.8-1.4-3.2c-1.5,1.6-2.7,3.6-2.9,6.1c-0.1,1.3,0,2.3,0.3,3.3
			c0.3,0.9,0.7,1.8,1.2,2.6c0.2-0.3,0.4-0.7,0.7-1.3C9.6,92.1,9.8,91.3,10.1,90.3z"/>
		
			<linearGradient id="SVGID_00000165193561864263637570000012974650217811277464_" gradientUnits="userSpaceOnUse" x1="25.8629" y1="73.4669" x2="25.8629" y2="85.0423" gradientTransform="matrix(-0.9932 0.1161 0.1161 0.9932 35.4379 -2.4133)">
			<stop  offset="0" style="stop-color:#AB7511"/>
			<stop  offset="0.2464" style="stop-color:#F9D867"/>
			<stop  offset="0.3804" style="stop-color:#F5F2A5"/>
			<stop  offset="1" style="stop-color:#AB7511"/>
		</linearGradient>
		<path style="fill:url(#SVGID_00000165193561864263637570000012974650217811277464_);" d="M19.6,81.4c0-1.5-0.5-2.4-0.9-3.1
			c-0.4-0.7-0.8-1.3-0.9-2.4c0.2,0.9,0.5,1.4,0.9,2c0.4,0.6,0.8,1.2,1.1,2.4c0.2,0.8,0.2,1.6,0.2,2.4c0,0.8-0.2,1.5-0.3,2.1
			c0.3-0.5,0.7-0.9,1-1.4c0.3-0.5,0.5-1,0.7-1.6c0.2-0.5,0.3-1.1,0.3-1.6c0-0.5,0-1-0.2-1.5c-0.4-1.1-1.1-1.6-1.8-2.3
			c-0.7-0.7-1.5-1.4-2-2.6c-1,1.8-1.6,4-1.2,6.4c0.4,2.4,1.5,3.7,2.8,5.1c0.1-0.3,0.2-0.7,0.3-1.3c0-0.3,0.1-0.6,0.1-1
			C19.6,82.3,19.6,81.9,19.6,81.4z"/>
		
			<linearGradient id="SVGID_00000078732481459479145820000011356584544430142911_" gradientUnits="userSpaceOnUse" x1="18.0185" y1="63.9253" x2="18.0185" y2="74.4788" gradientTransform="matrix(-0.9932 0.1161 0.1161 0.9932 35.4379 -2.4133)">
			<stop  offset="0" style="stop-color:#AB7511"/>
			<stop  offset="0.2464" style="stop-color:#F9D867"/>
			<stop  offset="0.3804" style="stop-color:#F5F2A5"/>
			<stop  offset="1" style="stop-color:#AB7511"/>
		</linearGradient>
		<path style="fill:url(#SVGID_00000078732481459479145820000011356584544430142911_);" d="M26.7,70.1c-0.4-1.4-1-2-1.6-2.6
			c-0.6-0.6-1.1-1-1.4-2c0.3,0.8,0.8,1.2,1.3,1.6c0.5,0.4,1.1,0.9,1.6,1.9c0.3,0.7,0.6,1.4,0.7,2.1c0.2,0.7,0.2,1.4,0.3,1.9
			c0.8-2,1.2-4.4,0.1-6.1c-0.6-0.9-1.4-1.2-2.2-1.7c-0.8-0.4-1.7-0.9-2.5-1.9c-0.5,1.9-0.5,4.1,0.5,6.2c0.5,1.1,1.1,1.8,1.7,2.4
			c0.6,0.6,1.4,1.1,2.1,1.5c0-0.3,0-0.7-0.1-1.3C27.1,71.6,27,70.9,26.7,70.1z"/>
		
			<linearGradient id="SVGID_00000080167178039775236300000007963804572370294715_" gradientUnits="userSpaceOnUse" x1="13.0689" y1="52.3546" x2="13.0689" y2="61.1829" gradientTransform="matrix(-0.9932 0.1161 0.1161 0.9932 35.4379 -2.4133)">
			<stop  offset="0" style="stop-color:#AB7511"/>
			<stop  offset="0.2464" style="stop-color:#F9D867"/>
			<stop  offset="0.3804" style="stop-color:#F5F2A5"/>
			<stop  offset="1" style="stop-color:#AB7511"/>
		</linearGradient>
		<path style="fill:url(#SVGID_00000080167178039775236300000007963804572370294715_);" d="M30.7,56.6c-0.7-1.2-1.5-1.6-2.1-2
			c-0.7-0.4-1.3-0.7-1.8-1.5c0.5,0.6,1,0.9,1.6,1.2c0.6,0.3,1.2,0.6,1.9,1.3c0.5,0.5,0.9,1.1,1.2,1.8c0.3,0.6,0.6,1.2,0.8,1.7
			c0.1-1,0.1-2.1-0.1-3.1c-0.2-1-0.7-1.9-1.4-2.5c-0.8-0.6-1.6-0.8-2.4-1c-0.9-0.2-1.8-0.4-2.8-1.1c0,0.9,0.2,1.9,0.5,2.9
			c0.1,0.5,0.3,0.9,0.6,1.4c0.1,0.2,0.3,0.4,0.4,0.7c0.1,0.2,0.3,0.4,0.5,0.6c0.7,0.8,1.4,1.4,2.2,1.8c0.7,0.4,1.5,0.6,2.3,0.8
			c-0.1-0.3-0.2-0.7-0.4-1.2C31.4,57.9,31.1,57.3,30.7,56.6z"/>
		
			<linearGradient id="SVGID_00000068653772264868448820000006375601935772830600_" gradientUnits="userSpaceOnUse" x1="11.7067" y1="39.6895" x2="11.7067" y2="46.2768" gradientTransform="matrix(-0.9932 0.1161 0.1161 0.9932 35.4379 -2.4133)">
			<stop  offset="0" style="stop-color:#AB7511"/>
			<stop  offset="0.2464" style="stop-color:#F9D867"/>
			<stop  offset="0.3804" style="stop-color:#F5F2A5"/>
			<stop  offset="1" style="stop-color:#AB7511"/>
		</linearGradient>
		<path style="fill:url(#SVGID_00000068653772264868448820000006375601935772830600_);" d="M30.7,42.1c-1-0.9-1.7-1.1-2.4-1.2
			c-0.7-0.2-1.3-0.3-2-0.9c0.6,0.4,1.2,0.5,1.7,0.6c0.3,0,0.6,0.1,0.9,0.2c0.3,0.1,0.7,0.3,1.1,0.5c1.1,0.7,2.2,1.9,2.7,2.6
			c-0.4-1.9-1.2-3.9-2.9-4.6c-0.9-0.4-1.6-0.3-2.5-0.2c-0.8,0.1-1.7,0.1-2.8-0.3c0.2,0.9,0.6,1.7,1.2,2.5c0.5,0.8,1.2,1.5,2.1,2.1
			c1.8,1.1,3.2,1.2,4.8,1.1C32.5,44,31.9,43.2,30.7,42.1z"/>
		
			<linearGradient id="SVGID_00000147213261588650216720000010598606505590663326_" gradientUnits="userSpaceOnUse" x1="14.063" y1="27.4291" x2="14.063" y2="32.153" gradientTransform="matrix(-0.9932 0.1161 0.1161 0.9932 35.4379 -2.4133)">
			<stop  offset="0" style="stop-color:#AB7511"/>
			<stop  offset="0.2464" style="stop-color:#F9D867"/>
			<stop  offset="0.3804" style="stop-color:#F5F2A5"/>
			<stop  offset="1" style="stop-color:#AB7511"/>
		</linearGradient>
		<path style="fill:url(#SVGID_00000147213261588650216720000010598606505590663326_);" d="M26.8,28.8c-1.1-0.5-1.8-0.5-2.5-0.5
			c-0.7,0-1.3,0.1-2-0.3c0.7,0.2,1.2,0.2,1.7,0.1c0.5-0.1,1.2-0.1,2.1,0.1c1.2,0.3,2.4,1.1,3.1,1.7c-0.9-1.6-2.1-3.2-3.8-3.5
			c-0.9-0.1-1.6,0.1-2.3,0.4c-0.7,0.3-1.5,0.5-2.6,0.4c0.4,0.7,1,1.4,1.7,2c0.7,0.6,1.4,1.1,2.4,1.4c1.9,0.6,3.2,0.3,4.6-0.2
			C29,30.1,28.2,29.5,26.8,28.8z"/>
		
			<linearGradient id="SVGID_00000181061268109282412450000013863602187074667913_" gradientUnits="userSpaceOnUse" x1="19.1194" y1="16.5791" x2="19.1194" y2="20.6356" gradientTransform="matrix(-0.9932 0.1161 0.1161 0.9932 35.4379 -2.4133)">
			<stop  offset="0" style="stop-color:#AB7511"/>
			<stop  offset="0.2464" style="stop-color:#F9D867"/>
			<stop  offset="0.3804" style="stop-color:#F5F2A5"/>
			<stop  offset="1" style="stop-color:#AB7511"/>
		</linearGradient>
		<path style="fill:url(#SVGID_00000181061268109282412450000013863602187074667913_);" d="M20.4,18.1c-1.1-0.2-1.8-0.1-2.4,0.1
			c-0.3,0.1-0.6,0.2-0.9,0.2c-0.3,0-0.6,0-1-0.1c0.4,0,0.6,0,0.9,0c0.3,0,0.5-0.1,0.7-0.2c0.5-0.2,1-0.4,1.9-0.3
			c1.2,0,2.5,0.4,3.2,0.8c-0.5-0.7-1.2-1.2-1.9-1.7c-0.7-0.4-1.5-0.7-2.2-0.6c-0.8,0.1-1.4,0.5-2,0.9c-0.6,0.4-1.3,0.8-2.3,0.9
			c1.2,1.1,2.7,2,4.5,2.1c1.8,0.1,2.9-0.4,4.1-1.2C22.5,18.8,21.8,18.4,20.4,18.1z"/>
		
			<linearGradient id="SVGID_00000091011403026664435770000013660025094047069845_" gradientUnits="userSpaceOnUse" x1="25.5392" y1="8.1693" x2="25.5392" y2="11.8588" gradientTransform="matrix(-0.9932 0.1161 0.1161 0.9932 35.4379 -2.4133)">
			<stop  offset="0" style="stop-color:#AB7511"/>
			<stop  offset="0.2464" style="stop-color:#F9D867"/>
			<stop  offset="0.3804" style="stop-color:#F5F2A5"/>
			<stop  offset="1" style="stop-color:#AB7511"/>
		</linearGradient>
		<path style="fill:url(#SVGID_00000091011403026664435770000013660025094047069845_);" d="M12.7,10.1c-1.1,0-1.6,0.3-2.1,0.5
			c-0.5,0.3-1,0.5-1.7,0.5c0.6-0.1,1-0.3,1.4-0.5c0.2-0.1,0.4-0.3,0.7-0.4c0.3-0.1,0.6-0.2,1-0.3c1.1-0.2,2.3,0,3.1,0.1
			c-1.3-0.9-2.8-1.7-4.3-1.3C10,9,9.6,9.5,9.1,9.9c-0.5,0.5-1,1-1.9,1.3c0.6,0.4,1.4,0.7,2.1,0.9c0.8,0.2,1.6,0.3,2.4,0.2
			c1.7-0.3,2.6-1,3.5-1.9C14.9,10.2,14.1,10.1,12.7,10.1z"/>
	</g>
	<g>
		
			<linearGradient id="SVGID_00000160158917499327111140000007610238876530324352_" gradientUnits="userSpaceOnUse" x1="26.0937" y1="88.1252" x2="26.0937" y2="91.797" gradientTransform="matrix(-0.9932 0.1161 0.1161 0.9932 35.4379 -2.4133)">
			<stop  offset="0" style="stop-color:#AB7511"/>
			<stop  offset="0.2464" style="stop-color:#F9D867"/>
			<stop  offset="0.3804" style="stop-color:#F5F2A5"/>
			<stop  offset="1" style="stop-color:#AB7511"/>
		</linearGradient>
		<path style="fill:url(#SVGID_00000160158917499327111140000007610238876530324352_);" d="M20.2,88.2c-0.8-0.1-1.5,0.2-2.3,0.5
			c-0.7,0.4-1.4,0.9-2.1,1.4c0.9,0.9,1.7,1.7,3.5,1.7c0.9,0,1.7-0.2,2.5-0.6c0.8-0.4,1.5-1,2.2-1.6c-1,0-1.6-0.4-2.1-0.7
			C21.4,88.6,20.9,88.2,20.2,88.2z"/>
		
			<linearGradient id="SVGID_00000016789171480004945650000016578024305448765847_" gradientUnits="userSpaceOnUse" x1="16.1175" y1="77.6131" x2="16.1175" y2="81.1855" gradientTransform="matrix(-0.9932 0.1161 0.1161 0.9932 35.4379 -2.4133)">
			<stop  offset="0" style="stop-color:#AB7511"/>
			<stop  offset="0.2464" style="stop-color:#F9D867"/>
			<stop  offset="0.3804" style="stop-color:#F5F2A5"/>
			<stop  offset="1" style="stop-color:#AB7511"/>
		</linearGradient>
		<path style="fill:url(#SVGID_00000016789171480004945650000016578024305448765847_);" d="M28.4,76.6c-0.7,0.1-1.4,0.5-1.9,1
			c-0.6,0.5-1.1,1.2-1.5,1.8c1,0.6,2,1.1,3.6,0.7c0.8-0.2,1.5-0.6,2.1-1.2c0.3-0.3,0.6-0.6,0.9-0.9c0.3-0.3,0.5-0.7,0.7-1
			c-0.9,0.2-1.5,0-2.1-0.1C29.6,76.6,29.1,76.4,28.4,76.6z"/>
		
			<linearGradient id="SVGID_00000089539470727340769100000017392755014345678245_" gradientUnits="userSpaceOnUse" x1="8.9895" y1="64.2156" x2="8.9895" y2="67.9659" gradientTransform="matrix(-0.9932 0.1161 0.1161 0.9932 35.4379 -2.4133)">
			<stop  offset="0" style="stop-color:#AB7511"/>
			<stop  offset="0.2464" style="stop-color:#F9D867"/>
			<stop  offset="0.3804" style="stop-color:#F5F2A5"/>
			<stop  offset="1" style="stop-color:#AB7511"/>
		</linearGradient>
		<path style="fill:url(#SVGID_00000089539470727340769100000017392755014345678245_);" d="M33.5,62.6c-1.2,0.6-1.9,2.1-2.4,3.4
			c1.1,0.3,2.1,0.5,3.5-0.3c1.3-0.7,2.2-2.2,2.6-3.7c-0.7,0.4-1.4,0.4-1.9,0.4C34.7,62.4,34.1,62.4,33.5,62.6z"/>
		
			<linearGradient id="SVGID_00000000195486046849082080000007488251993883190912_" gradientUnits="userSpaceOnUse" x1="5.7193" y1="48.3156" x2="5.7193" y2="52.9654" gradientTransform="matrix(-0.9932 0.1161 0.1161 0.9932 35.4379 -2.4133)">
			<stop  offset="0" style="stop-color:#AB7511"/>
			<stop  offset="0.2464" style="stop-color:#F9D867"/>
			<stop  offset="0.3804" style="stop-color:#F5F2A5"/>
			<stop  offset="1" style="stop-color:#AB7511"/>
		</linearGradient>
		<path style="fill:url(#SVGID_00000000195486046849082080000007488251993883190912_);" d="M34.7,47.4c-0.5,0.4-0.8,1-1,1.7
			c-0.1,0.3-0.2,0.7-0.2,1c0,0.3-0.1,0.7-0.1,1c1,0,2-0.1,3-1.2c0.5-0.5,0.8-1.1,1.1-1.8c0.2-0.7,0.3-1.4,0.3-2.2
			C36.7,47.1,35.6,46.6,34.7,47.4z"/>
		
			<linearGradient id="SVGID_00000147938154733428354440000005917591681294428341_" gradientUnits="userSpaceOnUse" x1="6.591" y1="32.7772" x2="6.591" y2="38.1266" gradientTransform="matrix(-0.9932 0.1161 0.1161 0.9932 35.4379 -2.4133)">
			<stop  offset="0" style="stop-color:#AB7511"/>
			<stop  offset="0.2464" style="stop-color:#F9D867"/>
			<stop  offset="0.3804" style="stop-color:#F5F2A5"/>
			<stop  offset="1" style="stop-color:#AB7511"/>
		</linearGradient>
		<path style="fill:url(#SVGID_00000147938154733428354440000005917591681294428341_);" d="M31.9,32.8c-0.7,1-0.5,2.4-0.2,3.6
			c0.9-0.3,1.7-0.6,2.4-1.8c0.3-0.6,0.5-1.2,0.5-1.9c0-0.3,0-0.7,0-1c-0.1-0.3-0.1-0.7-0.2-1C33.6,32,32.5,31.8,31.9,32.8z"/>
		
			<linearGradient id="SVGID_00000146487142883951971860000011248067833216102287_" gradientUnits="userSpaceOnUse" x1="11.3358" y1="19.158" x2="11.3358" y2="24.6939" gradientTransform="matrix(-0.9932 0.1161 0.1161 0.9932 35.4379 -2.4133)">
			<stop  offset="0" style="stop-color:#AB7511"/>
			<stop  offset="0.2464" style="stop-color:#F9D867"/>
			<stop  offset="0.3804" style="stop-color:#F5F2A5"/>
			<stop  offset="1" style="stop-color:#AB7511"/>
		</linearGradient>
		<path style="fill:url(#SVGID_00000146487142883951971860000011248067833216102287_);" d="M25.6,20.3c-0.4,1,0.1,2.3,0.7,3.3
			c0.8-0.5,1.4-1,1.7-2.2c0.1-0.6,0.1-1.2,0-1.8c-0.1-0.3-0.2-0.6-0.3-0.9c-0.1-0.3-0.3-0.6-0.4-0.8c-0.2,0.7-0.5,1-0.8,1.3
			C26.1,19.5,25.7,19.8,25.6,20.3z"/>
		
			<linearGradient id="SVGID_00000047026632136073159400000012676114315838496151_" gradientUnits="userSpaceOnUse" x1="18.0946" y1="8.8188" x2="18.0946" y2="14.1088" gradientTransform="matrix(-0.9932 0.1161 0.1161 0.9932 35.4379 -2.4133)">
			<stop  offset="0" style="stop-color:#AB7511"/>
			<stop  offset="0.2464" style="stop-color:#F9D867"/>
			<stop  offset="0.3804" style="stop-color:#F5F2A5"/>
			<stop  offset="1" style="stop-color:#AB7511"/>
		</linearGradient>
		<path style="fill:url(#SVGID_00000047026632136073159400000012676114315838496151_);" d="M17.6,10.9c0,0.5,0.1,1,0.4,1.4
			c0.2,0.5,0.6,0.9,0.9,1.3c0.6-0.6,1.1-1.2,1.1-2.3c0-0.3,0-0.6-0.1-0.8c-0.1-0.3-0.2-0.5-0.3-0.8c-0.3-0.5-0.6-1-1-1.4
			C18.6,9.7,17.7,10,17.6,10.9z"/>
		
			<linearGradient id="SVGID_00000145050813935480038020000016737022465545810324_" gradientUnits="userSpaceOnUse" x1="27.8742" y1="4.7505" x2="27.8742" y2="7.0112" gradientTransform="matrix(-0.9932 0.1161 0.1161 0.9932 35.4379 -2.4133)">
			<stop  offset="0" style="stop-color:#AB7511"/>
			<stop  offset="0.2464" style="stop-color:#F9D867"/>
			<stop  offset="0.3804" style="stop-color:#F5F2A5"/>
			<stop  offset="1" style="stop-color:#AB7511"/>
		</linearGradient>
		<path style="fill:url(#SVGID_00000145050813935480038020000016737022465545810324_);" d="M5.7,6.4c0.7,0.7,1.7,1.3,2.8,1.3
			c1.2,0.1,1.8-0.2,2.6-0.6C10.8,6.7,10.4,6.3,9.9,6C9.5,5.7,9,5.5,8.4,5.5C7.4,5.6,7,6.3,5.7,6.4z"/>
		
			<linearGradient id="SVGID_00000034065560143507642440000005539257592119189156_" gradientUnits="userSpaceOnUse" x1="26.275" y1="1.4044" x2="26.275" y2="6.5498" gradientTransform="matrix(-0.9932 0.1161 0.1161 0.9932 35.4379 -2.4133)">
			<stop  offset="0" style="stop-color:#AB7511"/>
			<stop  offset="0.2464" style="stop-color:#F9D867"/>
			<stop  offset="0.3804" style="stop-color:#F5F2A5"/>
			<stop  offset="1" style="stop-color:#AB7511"/>
		</linearGradient>
		<path style="fill:url(#SVGID_00000034065560143507642440000005539257592119189156_);" d="M8.7,5.1c0.2,0.5,0.6,0.9,1,1.2
			c0.4,0.3,0.9,0.6,1.4,0.8c0.2-0.8,0.2-1.6-0.3-2.7c-0.6-1-1.6-1.7-2.6-2.1C8.8,3.4,8.3,4.1,8.7,5.1z"/>
	</g>
	<g>
		
			<linearGradient id="SVGID_00000164472841932092085310000012102627131746786440_" gradientUnits="userSpaceOnUse" x1="30.5362" y1="91.9657" x2="30.5362" y2="98.0068" gradientTransform="matrix(-0.9932 0.1161 0.1161 0.9932 35.4379 -2.4133)">
			<stop  offset="0" style="stop-color:#AB7511"/>
			<stop  offset="0.2464" style="stop-color:#F9D867"/>
			<stop  offset="0.3804" style="stop-color:#F5F2A5"/>
			<stop  offset="1" style="stop-color:#AB7511"/>
		</linearGradient>
		<path style="fill:url(#SVGID_00000164472841932092085310000012102627131746786440_);" d="M10.9,94.9c-0.7,0-1.2,0.1-1.5,0.1
			c0.6,0.8,1.2,1.6,2,2.2c0.8,0.6,1.8,1.1,3.2,1.3c1.4,0.2,2.9,0,4.3-0.6c0.7-0.3,1.4-0.6,2.1-1c0.7-0.4,1.3-0.9,1.9-1.4
			c-1.6-0.1-2.5-0.8-3.4-1.4c-0.8-0.6-1.6-1.3-2.8-1.5c-2.3-0.4-4.7,0.8-6.8,2c0.6,0,1.4-0.1,2.2-0.1c0.9,0,1.8,0,2.7,0.1
			c1.3,0.2,2.1,0.6,2.7,0.9c0.7,0.3,1.3,0.6,2.4,0.5c-1.3,0.3-2.1-0.1-2.9-0.4c-0.8-0.4-1.8-0.8-3.5-0.7
			C12.4,94.8,11.5,94.9,10.9,94.9z"/>
		
			<linearGradient id="SVGID_00000071524661725882016780000008967250522554984630_" gradientUnits="userSpaceOnUse" x1="19.1603" y1="82.6526" x2="19.1603" y2="88.4317" gradientTransform="matrix(-0.9932 0.1161 0.1161 0.9932 35.4379 -2.4133)">
			<stop  offset="0" style="stop-color:#AB7511"/>
			<stop  offset="0.2464" style="stop-color:#F9D867"/>
			<stop  offset="0.3804" style="stop-color:#F5F2A5"/>
			<stop  offset="1" style="stop-color:#AB7511"/>
		</linearGradient>
		<path style="fill:url(#SVGID_00000071524661725882016780000008967250522554984630_);" d="M22.5,85.1c-0.4,0.1-0.7,0.2-1,0.3
			c-0.6,0.2-1,0.4-1.3,0.5c1.5,1.2,2.9,2.2,5.6,1.9c2.7-0.3,5.2-2.3,6.8-4.7C31,83.4,30,83,29.1,82.6c-0.9-0.4-1.8-0.8-2.9-0.7
			c-0.5,0-1.1,0.2-1.6,0.4c-0.5,0.2-1,0.5-1.5,0.8c-0.5,0.3-1,0.7-1.4,1.1c-0.4,0.4-0.9,0.8-1.3,1.2c0.5-0.2,1.3-0.4,2-0.6
			c0.8-0.2,1.6-0.4,2.5-0.5c1.3-0.1,2,0,2.7,0.2c0.7,0.1,1.3,0.3,2.3-0.1c-0.6,0.3-1.1,0.4-1.5,0.4c-0.4,0-0.9,0-1.3-0.1
			c-0.9-0.1-1.8-0.2-3.4,0.2C23.3,84.9,22.8,85,22.5,85.1z"/>
		
			<linearGradient id="SVGID_00000072972356038623644400000015455611965612157623_" gradientUnits="userSpaceOnUse" x1="10.5592" y1="70.3027" x2="10.5592" y2="76.2012" gradientTransform="matrix(-0.9932 0.1161 0.1161 0.9932 35.4379 -2.4133)">
			<stop  offset="0" style="stop-color:#AB7511"/>
			<stop  offset="0.2464" style="stop-color:#F9D867"/>
			<stop  offset="0.3804" style="stop-color:#F5F2A5"/>
			<stop  offset="1" style="stop-color:#AB7511"/>
		</linearGradient>
		<path style="fill:url(#SVGID_00000072972356038623644400000015455611965612157623_);" d="M30,72.6c-0.3,0.2-0.6,0.4-0.9,0.5
			c-0.5,0.3-0.8,0.6-1.1,0.8c0.8,0.4,1.6,0.7,2.5,0.8c0.9,0.1,1.9,0,3.1-0.5c2.3-1,4.2-3.4,5.1-5.9c-1.3,0.6-2.3,0.5-3.2,0.4
			c-0.9-0.1-1.8-0.3-2.8,0.1c-2,0.7-3.3,2.7-4.4,4.6c0.4-0.3,1-0.7,1.7-1.1c0.7-0.4,1.4-0.8,2.1-1.1c1.1-0.4,1.9-0.5,2.5-0.5
			c0.7,0,1.3-0.1,2.1-0.7c-0.9,0.8-1.7,0.9-2.5,0.9c-0.8,0.1-1.7,0.2-3.1,1C30.7,72.2,30.4,72.4,30,72.6z"/>
		
			<linearGradient id="SVGID_00000169517839219478717740000010765972398596114322_" gradientUnits="userSpaceOnUse" x1="5.3946" y1="54.5918" x2="5.3946" y2="61.7189" gradientTransform="matrix(-0.9932 0.1161 0.1161 0.9932 35.4379 -2.4133)">
			<stop  offset="0" style="stop-color:#AB7511"/>
			<stop  offset="0.2464" style="stop-color:#F9D867"/>
			<stop  offset="0.3804" style="stop-color:#F5F2A5"/>
			<stop  offset="1" style="stop-color:#AB7511"/>
		</linearGradient>
		<path style="fill:url(#SVGID_00000169517839219478717740000010765972398596114322_);" d="M33.5,58.7c-0.4,0.4-0.6,0.8-0.8,1
			c0.8,0.1,1.6,0.2,2.5,0.1c0.8-0.1,1.7-0.5,2.7-1.2c0.2-0.2,0.5-0.4,0.7-0.6c0.2-0.2,0.4-0.5,0.6-0.7c0.4-0.5,0.7-1,0.9-1.6
			c0.5-1.2,0.8-2.4,0.9-3.7c-1,0.9-2,1.1-2.8,1.2c-0.9,0.1-1.7,0.2-2.6,0.8c-0.4,0.3-0.7,0.6-1,1c-0.3,0.4-0.6,0.8-0.8,1.3
			c-0.4,0.9-0.8,2-1,3c0.3-0.4,0.7-0.9,1.2-1.4c0.5-0.5,1-1.1,1.6-1.5c0.9-0.7,1.6-0.9,2.2-1.1c0.6-0.2,1.1-0.4,1.7-1.1
			c-0.6,0.9-1.3,1.2-2,1.5c-0.7,0.3-1.5,0.6-2.5,1.7C34.3,57.8,33.8,58.3,33.5,58.7z"/>
		
			<linearGradient id="SVGID_00000046302848905266776420000000924739357348776341_" gradientUnits="userSpaceOnUse" x1="4.548" y1="37.8384" x2="4.548" y2="46.2808" gradientTransform="matrix(-0.9932 0.1161 0.1161 0.9932 35.4379 -2.4133)">
			<stop  offset="0" style="stop-color:#AB7511"/>
			<stop  offset="0.2464" style="stop-color:#F9D867"/>
			<stop  offset="0.3804" style="stop-color:#F5F2A5"/>
			<stop  offset="1" style="stop-color:#AB7511"/>
		</linearGradient>
		<path style="fill:url(#SVGID_00000046302848905266776420000000924739357348776341_);" d="M33.1,44.5c1.6-0.2,3-0.6,4.3-2.4
			c0.6-0.9,1.1-2,1.2-3.2c0.1-1.2,0.1-2.4-0.1-3.5c-0.7,1.1-1.5,1.5-2.3,1.8c-0.8,0.3-1.5,0.6-2.1,1.4C33,39.9,32.8,42,33,44
			c0.3-0.9,1-2.3,1.8-3.4c0.3-0.4,0.6-0.7,0.9-1c0.3-0.2,0.5-0.4,0.8-0.6c0.5-0.3,0.9-0.7,1.3-1.5c-0.3,1-0.8,1.4-1.4,1.8
			c-0.6,0.4-1.2,1-1.9,2.2C33.7,43,33.3,43.9,33.1,44.5z"/>
		
			<linearGradient id="SVGID_00000093178910659024707890000011297498346193263522_" gradientUnits="userSpaceOnUse" x1="7.683" y1="22.5785" x2="7.683" y2="31.7987" gradientTransform="matrix(-0.9932 0.1161 0.1161 0.9932 35.4379 -2.4133)">
			<stop  offset="0" style="stop-color:#AB7511"/>
			<stop  offset="0.2464" style="stop-color:#F9D867"/>
			<stop  offset="0.3804" style="stop-color:#F5F2A5"/>
			<stop  offset="1" style="stop-color:#AB7511"/>
		</linearGradient>
		<path style="fill:url(#SVGID_00000093178910659024707890000011297498346193263522_);" d="M29.6,30.3c1.4-0.6,2.6-1.3,3.3-3.3
			c0.4-1,0.5-2.1,0.3-3.2c-0.2-1.1-0.5-2.2-1-3.1c-0.4,1.1-1,1.7-1.6,2.2c-0.6,0.5-1.2,0.9-1.6,1.8c-0.6,1.5-0.3,3.5,0.4,5.3
			c0.1-0.9,0.3-2.3,0.8-3.5c0.4-0.9,0.8-1.4,1.1-1.8c0.3-0.4,0.6-0.8,0.8-1.6c0,1-0.4,1.5-0.8,2c-0.4,0.5-0.9,1.2-1.1,2.4
			C29.7,28.9,29.7,29.8,29.6,30.3z"/>
		
			<linearGradient id="SVGID_00000146495022269300937250000015363963653958334389_" gradientUnits="userSpaceOnUse" x1="13.9923" y1="10.537" x2="13.9923" y2="19.679" gradientTransform="matrix(-0.9932 0.1161 0.1161 0.9932 35.4379 -2.4133)">
			<stop  offset="0" style="stop-color:#AB7511"/>
			<stop  offset="0.2464" style="stop-color:#F9D867"/>
			<stop  offset="0.3804" style="stop-color:#F5F2A5"/>
			<stop  offset="1" style="stop-color:#AB7511"/>
		</linearGradient>
		<path style="fill:url(#SVGID_00000146495022269300937250000015363963653958334389_);" d="M23.1,18.8c1.1-0.9,2-1.7,2.3-3.7
			c0.2-1.9-0.7-4-2-5.5c-0.1,1.1-0.5,1.7-1,2.3c-0.4,0.6-0.9,1.1-1,1.9c-0.1,0.8,0,1.6,0.3,2.4c0.3,0.8,0.8,1.5,1.2,2.3
			c-0.1-0.8-0.2-2.2-0.1-3.4c0.1-0.9,0.4-1.4,0.6-1.9c0.1-0.2,0.2-0.5,0.3-0.7c0.1-0.3,0.1-0.6,0.1-0.9c0.1,0.4,0.1,0.8,0,1.1
			c-0.1,0.3-0.2,0.6-0.3,0.9c-0.2,0.6-0.5,1.3-0.5,2.4C23,17.5,23,18.4,23.1,18.8z"/>
		
			<linearGradient id="SVGID_00000000905403872427535110000008368858424157026178_" gradientUnits="userSpaceOnUse" x1="21.6603" y1="1.7573" x2="21.6603" y2="10.2761" gradientTransform="matrix(-0.9932 0.1161 0.1161 0.9932 35.4379 -2.4133)">
			<stop  offset="0" style="stop-color:#AB7511"/>
			<stop  offset="0.2464" style="stop-color:#F9D867"/>
			<stop  offset="0.3804" style="stop-color:#F5F2A5"/>
			<stop  offset="1" style="stop-color:#AB7511"/>
		</linearGradient>
		<path style="fill:url(#SVGID_00000000905403872427535110000008368858424157026178_);" d="M15.3,10.3c0.8-1,1.5-2,1.3-3.8
			c-0.1-0.9-0.4-1.8-0.9-2.6c-0.5-0.8-1.2-1.5-1.9-2c0.1,1-0.2,1.7-0.5,2.3c-0.3,0.6-0.6,1.2-0.6,2c0.1,1.4,1.1,2.9,2.3,3.9
			c-0.3-0.7-0.7-1.9-0.7-3c0-0.4,0-0.8,0-1.1c0-0.3,0.1-0.5,0.2-0.8c0.1-0.5,0.2-0.9,0-1.6c0.3,0.8,0.2,1.3,0.1,1.9
			c-0.1,0.6-0.2,1.3,0,2.3C14.9,9.1,15.2,9.9,15.3,10.3z"/>
	</g>
	
		<linearGradient id="SVGID_00000053502782477829340360000014394802470069678004_" gradientUnits="userSpaceOnUse" x1="31.6298" y1="6.762107e-03" x2="31.6298" y2="4.368" gradientTransform="matrix(-0.9932 0.1161 0.1161 0.9932 35.4379 -2.4133)">
		<stop  offset="0" style="stop-color:#AB7511"/>
		<stop  offset="0.2464" style="stop-color:#F9D867"/>
		<stop  offset="0.3804" style="stop-color:#F5F2A5"/>
		<stop  offset="1" style="stop-color:#AB7511"/>
	</linearGradient>
	<path style="fill:url(#SVGID_00000053502782477829340360000014394802470069678004_);" d="M5.1,1.9C4.3,1.6,3.6,1.7,2.9,1.8
		C2.2,1.9,1.5,1.9,0.5,1.7c0.3,0.6,0.8,1.2,1.4,1.7c0.3,0.3,0.6,0.5,0.9,0.7c0.4,0.2,0.7,0.4,1.1,0.6C4.7,5,5.4,5.1,6.1,5.2
		c0.7,0.1,1.3,0,1.9,0C7.9,5,7.7,4.8,7.4,4.6C7.2,4.5,7,4.3,6.8,4.2C6.6,4,6.3,3.9,6,3.7C5.1,3.2,4.4,3.1,3.8,3
		C3.2,2.9,2.7,2.9,2,2.5C2.6,2.7,3,2.8,3.6,2.8c0.5,0,1,0.1,1.9,0.4c0.5,0.2,1,0.5,1.5,0.8C7.4,4.3,7.8,4.6,8,4.9
		C7.9,4.6,7.7,4.3,7.6,4C7.5,3.8,7.4,3.6,7.3,3.5C7.2,3.4,7,3.2,6.9,3.1C6.4,2.6,5.8,2.2,5.1,1.9z"/>
</g>
</svg>
