
<svg version="1.1" id="Layer_1" xmlns="http://www.w3.org/2000/svg" xmlns:xlink="http://www.w3.org/1999/xlink" x="0px" y="0px"
	 viewBox="0 0 100 100" style="enable-background:new 0 0 100 100;" xml:space="preserve">
<style type="text/css">
	.st0{fill:#a26e4d;}
</style>
<path class="st0" d="M63,74.6c-2.7-2.2-5.6-4.4-8.6-6.7l-5-3.8l1.6-2.7l5,3.8c3,2.3,5.9,4.5,8.7,6.7l1.2,1l-1.7,2.5L63,74.6z
	 M41.9,58.2c-4.8-4-8.7-7.4-11.9-10.5l-1.1-1.1l1.9-2.3l1.1,1.1c4.1,4.2,7.9,7.3,11.6,10.4l1.2,1L43,59.3L41.9,58.2z M22.8,38.8
	c-2.7-4.1-3.9-7.7-3.9-11.4c0-2.1,0.8-3.9,2.7-5.6l1.1-1.1l1.9,2.4l-1.2,1c-1.1,1.1-1.7,2.2-1.7,3.1c0,2.9,1.1,6.1,3.4,9.6l0.8,1.3
	l-2.3,1.8L22.8,38.8z M30,16.8l1.3-0.5c4-1.5,9-2.9,14.8-4.1l1.5-0.4l0.5,3.1l-1.5,0.4c-5.7,1.2-10.7,2.5-14.4,4l-1.3,0.5L30,16.8z
	 M55.2,10.5l1.5-0.2c4.6-0.7,9.7-1.5,15-2.2L73.1,8l0.4,3.1L72,11.2c-5.3,0.6-10.3,1.3-14.9,2.2l-1.5,0.2L55.2,10.5z M4.1,27.1
	C0,49.1,44.9,76.5,44.8,89.3c0,3.8-3.5,7.4-6.8,10.4c2.7,0.4,6.7,0.3,9.5,0.3c10.8,0,20.7-3.1,29.2-8.5c0.1-0.6,0.1-1.2,0.1-1.8
	c0-1.3-1-3.8-5.6-8.1l-1.1-1l1.8-2.4l1.1,1.1c4.5,4.2,6.4,7.5,6.5,10.3c6.9-5.1,12.6-11.6,16.6-19.4C75.8,53.1,38,37.8,38.3,28.5
	c0.2-8.4,31-13.1,53.5-15.5c-1-1.3-1.9-2.5-2.9-3.8c-2.2,0.2-4.2,0.4-6.3,0.6L81.1,10l-0.2-3.1l1.5-0.1c1.3-0.1,2.5-0.2,3.9-0.4
	C85,5.2,83.8,4.1,82.5,3C50.7,5.5,7,11.6,4.1,27.1"/>
</svg>
