<svg clip-rule="evenodd" fill-rule="evenodd" height="300" image-rendering="optimizeQuality" shape-rendering="geometricPrecision" text-rendering="geometricPrecision" viewBox="0 0 1707 1707" width="300" xmlns="http://www.w3.org/2000/svg" version="1.1" xmlns:xlink="http://www.w3.org/1999/xlink" xmlns:svgjs="http://svgjs.dev/svgjs"><g width="100%" height="100%" transform="matrix(1,0,0,1,0,0)"><g id="Layer_x0020_1"><path d="m1109 1451h-511c-330 0-598-268-598-598 0-329 268-597 598-597h511c323 0 587 257 597 577h-152c-11-236-206-425-445-425h-511c-246 0-446 200-446 445 0 246 200 446 446 446h511c239 0 434-189 445-426h152c-10 321-274 578-597 578zm405-618h-113c-10-152-137-273-292-273h-511c-162 0-293 132-293 293 0 162 131 293 293 293h511c155 0 282-120 292-273h113c-11 215-188 386-405 386h-511c-224 0-406-182-406-406 0-223 182-405 406-405h511c217 0 394 171 405 385zm-152 20c0 140-114 253-253 253h-511c-140 0-253-113-253-253 0-139 113-253 253-253h511c139 0 253 114 253 253zm-253 141h-511c-78 0-141-63-141-141 0-77 63-140 141-140h511c77 0 141 63 141 140 0 78-64 141-141 141zm-511-241c-56 0-101 45-101 100 0 56 45 101 101 101h511c55 0 100-45 100-101 0-55-45-100-100-100z" fill="#a26e4d" fill-opacity="1" data-original-color="#000000ff" stroke="none" stroke-opacity="1"/></g></g></svg>