<?xml version="1.0" encoding="iso-8859-1"?>
<!-- Generator: Adobe Illustrator 19.0.0, SVG Export Plug-In . SVG Version: 6.00 Build 0)  -->
<svg version="1.1" id="Capa_1" xmlns="http://www.w3.org/2000/svg" xmlns:xlink="http://www.w3.org/1999/xlink" x="0px" y="0px"
	 viewBox="0 0 496 496" style="enable-background:new 0 0 496 496;" xml:space="preserve">
	<g fill="#d18f00">
		<g>
			<path d="M450.858,428H438v-37.244c0-5.523-4.914-9.756-10.437-9.756H411V228h20.445c5.475,0.048,9.953-4.351,10.001-9.826
				c0.029-3.244-1.532-6.297-4.178-8.174L258,79.091V62h53.153c5.445,0.081,9.924-4.268,10.005-9.713
				c0.033-2.228-0.69-4.402-2.051-6.167l-11.381-14.909l11.381-14.924c3.382-4.481,2.491-10.855-1.991-14.237
				c-1.72-1.298-3.809-2.016-5.964-2.05h-63c-5.599,0.101-10.1,4.641-10.153,10.241v68.626L58.579,210.031
				c-4.431,3.248-5.39,9.473-2.142,13.903c1.893,2.583,4.915,4.096,8.118,4.066H85v153H68.437C62.914,381,58,385.233,58,390.756V428
				H45.142c-5.6,0.109-10.096,4.656-10.142,10.257v47.5c0.046,5.599,4.544,10.141,10.142,10.243h405.716
				c5.597-0.102,10.095-4.643,10.142-10.241v-47.5C460.955,432.657,456.459,428.109,450.858,428z M258,20h32.963l-3.763,5.06
				c-2.727,3.558-2.727,8.503,0,12.061L290.963,42H258V20z M248,96.337L400.811,208H95.189L248,96.337z M391,228v153h-31V228H391z
				M340,228v153h-31V228H340z M289,228v153h-31V228H289z M238,228v153h-31V228H238z M187,228v153h-31V228H187z M136,228v153h-31V228
				H136z M78,401h340v27H78V401z M441,476H55v-28h386V476z"/>
		</g>
	</g>
</svg>
