<svg id="Layer_1" enable-background="new 0 0 66 66" height="512" viewBox="0 0 66 66" width="512" xmlns="http://www.w3.org/2000/svg"><g><path d="m28.72 2.05-13.73 1.33-10.42 9.04 13.73-1.33z"/><path d="m60.5 38.7c-1.34-3.32-3.64-5.53-5.13-4.93s-1.61 3.79-.27 7.11 3.64 5.53 5.13 4.93 1.61-3.79.27-7.11z"/><path d="m12.9 18.53c5.41-.38 10.53-2.58 14.52-6.24l-2.02-4.71-6.26 5.44-8.26.8z"/><path d="m29.9 7.23c-.33.49-.41 1.12-.17 1.7.39.9 1.44 1.32 2.34.93s1.32-1.44.93-2.34c-.25-.58-.78-.96-1.36-1.05-.01-.09-.02-.19-.06-.28l-1.25-2.91-1.59 1.38 1 2.33c.05.09.1.17.16.24z"/><path d="m16.31 21.3c0-.55.45-1 1-1 1.08 0 2.03-.49 2.68-1.26-2.23.8-4.57 1.32-6.96 1.49l-.23.01v28.83c1.17-.24 2.34-.51 3.51-.79z"/><path d="m29.81 12.8-1.05.96c-.8.74-1.66 1.4-2.54 2.03h12.41c.56 0 1 .44 1 1 0 1.94 1.58 3.51 3.52 3.51.55 0 1 .45 1 1v16.78c1.19-.62 2.36-1.26 3.52-1.93v-20.13c0-2.07-1.68-3.75-3.75-3.75h-14.34z"/><path d="m38.88 56.76 1.7 1.76.39-2.73 2.74-.29-1.87-1.93c-.69 1.28-1.7 2.38-2.96 3.19z"/><path d="m31.49 57.77v2.68l2.17-1.69 2.17 1.69v-2.45c-.56.11-1.13.17-1.71.17-.91 0-1.8-.14-2.63-.4z"/><path d="m25.95 52.66c-.59-1.47-.77-3.03-.55-4.55-4.63 1.48-9.35 2.7-14.17 3.62-.19 0-.37.03-.54.09-1.49.6-1.61 3.79-.27 7.11s3.64 5.53 5.13 4.93c.14-.06.27-.15.39-.25 4.13-2.71 8.4-5.13 12.79-7.29-1.2-.94-2.18-2.17-2.78-3.66z"/><path d="m53.24 41.63c-.87-2.15-1.19-4.19-1.02-5.86-4.07 2.51-8.26 4.76-12.56 6.77 1.13.92 2.05 2.11 2.62 3.53.58 1.43.75 2.93.57 4.37 4.48-1.55 9.06-2.83 13.72-3.86-1.45-1.26-2.62-3.19-3.33-4.95z"/><path d="m40.43 46.81c-1.41-3.48-5.37-5.17-8.86-3.76-3.48 1.41-5.17 5.37-3.76 8.86 1.41 3.48 5.37 5.17 8.86 3.76s5.16-5.37 3.76-8.86zm-3.78.38-1.95 4.6c-.16.38-.53.61-.92.61-.13 0-.26-.03-.39-.08l-1.81-.77c-.51-.22-.75-.8-.53-1.31s.8-.74 1.31-.53l.88.38 1.56-3.68c.22-.51.81-.74 1.31-.53.52.22.76.8.54 1.31z"/><path d="m30.81 41.2c1.06-.43 2.17-.65 3.3-.65 1.23 0 2.41.27 3.49.74 1.53-.69 3.05-1.42 4.55-2.18v-16.9c-2.24-.41-4.01-2.18-4.42-4.42h-14.99c-.41 2.24-2.19 4.01-4.43 4.42v25.86c2.61-.67 5.2-1.43 7.76-2.28.93-2.1 2.61-3.73 4.74-4.59zm-6.04-20.09h10.93c.55 0 1 .45 1 1s-.45 1-1 1h-10.93c-.55 0-1-.45-1-1s.45-1 1-1zm-3.61 4.16h18.16c.55 0 1 .45 1 1s-.45 1-1 1h-18.16c-.55 0-1-.45-1-1s.44-1 1-1zm0 4.17h18.16c.55 0 1 .45 1 1s-.45 1-1 1h-18.16c-.55 0-1-.45-1-1s.44-1 1-1zm0 4.17h18.16c.55 0 1 .45 1 1s-.45 1-1 1h-18.16c-.55 0-1-.45-1-1s.44-1 1-1zm-1 5.16c0-.55.45-1 1-1h5.51c.55 0 1 .45 1 1s-.45 1-1 1h-5.51c-.56 0-1-.45-1-1z"/></g></svg>