<?xml version="1.0" encoding="utf-8"?>
<!-- Generator: Adobe Illustrator 24.1.2, SVG Export Plug-In . SVG Version: 6.00 Build 0)  -->
<svg version="1.1" id="Layer_1" xmlns="http://www.w3.org/2000/svg" xmlns:xlink="http://www.w3.org/1999/xlink" x="0px" y="0px"
	 viewBox="0 0 512 512" style="enable-background:new 0 0 512 512;" xml:space="preserve">
<style type="text/css">
	.st0{fill:#A26E4D;}
</style>
<path class="st0" d="M355.2,384c27.2,0,48,20.8,48,48s-20.8,48-48,48s-48-20.8-48-48S328,384,355.2,384z M211.2,480
	c27.2,0,48-20.8,48-48s-20.8-48-48-48s-48,20.8-48,48S184,480,211.2,480z M476.8,152L456,280c-3.2,22.4-24,40-48,40H131.2
	c-9.6,0-16,6.4-16,16s6.4,16,16,16h288c9.6,0,16,6.4,16,16s-6.4,16-16,16h-288c-27.2,0-48-22.4-48-48s19.2-46.4,44.8-48L99.2,115.2
	L86.4,64H51.2c-9.6,0-16-6.4-16-16s6.4-16,16-16h48c8,0,14.4,4.8,16,12.8L128,96h302.4c27.2,0,48,22.4,48,48
	C476.8,147.2,476.8,148.8,476.8,152z M355.2,224h-128c-9.6,0-16,6.4-16,16s6.4,16,16,16h128c9.6,0,16-6.4,16-16S363.2,224,355.2,224
	z M371.2,160h-160c-9.6,0-16,6.4-16,16s6.4,16,16,16h160c9.6,0,16-6.4,16-16S379.2,160,371.2,160z"/>
</svg>
