<svg id="Layer_1" enable-background="new 0 0 134 134" height="300" viewBox="0 0 134 134" width="300" xmlns="http://www.w3.org/2000/svg" version="1.1" xmlns:xlink="http://www.w3.org/1999/xlink" xmlns:svgjs="http://svgjs.dev/svgjs"><g width="100%" height="100%" transform="matrix(1,0,0,1,0,0)"><g><path d="m91.34 123.36c3.93-.29 7.43-3.02 8.47-7.05.49-1.85.38-3.72-.19-5.41 1.47.13 2.96.19 4.42.19 11.03 0 21.28-3.23 21.82-3.41.8-.26 1.45-.79 1.89-1.45.02-.03.04-.06.06-.1.15-.23.27-.48.35-.75.02-.08.05-.17.07-.26.01-.04.02-.08.03-.12.01-.07.02-.14.04-.21l2.59-10.69c.13-.59.17-1.21-.03-1.82-.6-1.87-2.6-2.9-4.46-2.3-.05.02-1.87.59-4.7 1.23.13-.14.27-.28.39-.42.31-.34.59-.67.86-1.01.1-.13.18-.25.27-.38l.68-.89h-.09c2.49-4.09 2.13-8.31-1.09-11.53-1.35-1.39-1.95-1.64-2.79-1.88-.9-.27-2.27-.66-7.69-5.93l-.22-.21c-1.03-1.04-2.06-2.13-3.13-3.32-.72-.79-1.74-1.95-2.88-3.31l.05-.01-.48-.56.06-.15-.39-.25c-.72-.85-1.46-1.77-2.21-2.73l-.14-.19c-.22-.38-.71-1.34-1.3-2.55.23-.3.28-.71.07-1.01-.16-.23-.43-.33-.71-.29-.16-.35-.34-.7-.51-1.06-.34-.69-.69-1.42-1.06-2.17.19-.28.22-.65.04-.93-.15-.23-.39-.32-.64-.31-.52-1.05-1.05-2.12-1.59-3.21.22-.28.28-.67.09-.97-.16-.26-.45-.36-.74-.31-.48-.96-.97-1.91-1.45-2.83.33-.28.43-.75.23-1.1-.19-.32-.59-.41-.94-.24-.52-.99-1.04-1.93-1.54-2.81.33-.27.45-.74.25-1.09-.2-.36-.64-.44-1.01-.22-1.09-1.82-2.07-3.26-2.83-4.01-.01-.01-.02-.02-.04-.03l21.31-28.75h-38.38l-8.81 13.57c-.32.04-.64.15-.93.34-.62.4-1.22 1.08-1.92 1.86-.64.73-1.36 1.55-2.19 2.23-4.14 3.34-10.72 11.08-12.27 13.5-.08.01-.2.04-.33.07-2.32.49-6.89 1.95-9.23 6.11-3.28 5.89 3.51 13.03 14.75 21.96 4.96 3.78 8.57 5.86 11.47 7.53 4.39 2.53 7.56 4.36 12.38 10.23 1.78 2.25 4.36 4.43 7.4 6.41-1.2-.31-2.44-.64-3.74-.98l-14.89-3.93c-13.17-3.27-22.83-5.89-27.98-7.58-11.56-3.81-22.62-14.13-22.73-14.23-1.43-1.34-3.67-1.28-5.01.15-.4.42-.66.92-.81 1.44l-.02-.01s-2.83 10.87-2.86 11.02c-.32 1.21.02 2.55 1 3.47.26.25 3.71 3.48 8.85 7.09.23.15.46.31.69.47.91.64 1.88 1.28 2.88 1.91 1.01.63 2.06 1.27 3.14 1.88.34.19.67.37 1.01.56.68.37 1.36.73 2.06 1.08s1.41.68 2.12 1.01c.36.16.72.32 1.08.47-1.29 1.18-2.26 2.74-2.74 4.56-1.31 5.06 1.72 10.22 6.78 11.54s10.23-1.72 11.55-6.78c.39-1.51.4-3.04.07-4.46l1.14.3c.31.09.62.17.93.25 1.39.36 2.79.73 4.2 1.1.23.06.47.12.7.18.47.12.93.24 1.4.36 1.4.36 2.78.71 4.12 1.05.66.17 1.32.33 1.96.49.34.09.67.17 1 .25.32.08.64.16.95.24l14.75 3.89.1.03c.57.15 1.14.3 1.69.44 1.97.52 3.83 1 5.57 1.44.75.19 1.47.37 2.17.55-.98 1.09-1.72 2.42-2.11 3.94-1.32 5.06 1.72 10.22 6.78 11.54.56.15 1.13.23 1.69.27h-86.96v6.09h128v-6.09zm-52.82-22.98c-.69 2.67-3.42 4.27-6.09 3.58-2.67-.7-4.28-3.43-3.58-6.1.51-1.98 2.15-3.37 4.05-3.68.66-.1 1.35-.08 2.04.1.8.21 1.5.59 2.08 1.12 1.35 1.2 1.99 3.1 1.5 4.98zm49.69-65.97.11.11c.67.72 1.54 2.03 2.5 3.67-.35.24-.7.48-1.06.71-.38.26-.51.77-.3 1.15.2.37.68.47 1.06.21.36-.24.71-.49 1.07-.73.49.87 1 1.81 1.52 2.79-.37.26-.74.52-1.12.78-.37.26-.5.77-.28 1.15.21.37.7.46 1.07.19.35-.24.71-.49 1.06-.74.47.91.94 1.83 1.41 2.76-.43.31-.86.62-1.3.92-.37.27-.49.79-.26 1.16.23.36.72.45 1.09.18.39-.28.78-.57 1.17-.85.52 1.04 1.02 2.06 1.51 3.04-.46.34-.92.67-1.37 1.01-.37.27-.49.79-.25 1.16.24.36.74.44 1.11.16.4-.3.8-.6 1.21-.89.3.62.6 1.23.87 1.79.23.47.43.9.62 1.29-.43.33-.87.66-1.31.99-.37.28-.47.8-.23 1.17.25.36.75.43 1.12.14.38-.28.75-.57 1.13-.85.2.42.39.79.54 1.1.43.83.68 1.28.88 1.53.7.9 1.36 1.72 2.02 2.51-.16.19-.4.33-.78.33-.21 0-.47-.04-.78-.13-2.94-.82-5.75-5.85-9.01-11.68-1.5-2.69-3.06-5.46-4.83-8.23-2.33-3.66-4.47-5.96-6.39-6.87 2.53-1.28 4.71-2.27 6.2-1.03zm-41.01 2.95v-.33l.31-.36-.05-.05c1.53-2.06 7.14-9.15 11.78-12.91.93-.76 1.7-1.63 2.38-2.39.15-.17.3-.34.45-.51.42-.47.81-.87 1.14-1.07.38-.24.66-.09.76-.01.03.02.05.04.07.06.18.18.24.46.15.76-1.96 6.83.49 12.21 7.48 16.45.67.41 1.35.63 2.02.75l.5.07c1.53.13 2.97-.31 4.05-.74.07-.02.13-.05.2-.08 1.36 1.8 5.42 7.19 7.27 11.09 2.09 4.79 6.88 14.4 10.34 17.14 2.84 2.34 7.88 4.29 11.7 1.39 0 0 .01.01.02.02.94 1.04 1.84 1.99 2.74 2.91-2.23-.06-6.73 1.26-18.43 11.48-4.74-3.26-7.97-6.97-10.49-9.86-1.16-1.32-2.15-2.46-3.07-3.3-5.8-5.3-14.69-13.32-24.4-22-6.36-5.78-7.1-7.9-7.17-8.46zm29.03 43.65c-4.99-6.09-8.26-7.98-12.79-10.59-3.01-1.74-6.43-3.7-11.3-7.42-12.57-9.98-16.73-15.79-14.36-20.03 1.88-3.36 5.52-4.72 7.71-5.26.18.94.91 2.19 2.18 3.74s3.09 3.39 5.44 5.54c9.71 8.68 18.61 16.7 24.4 21.99.85.78 1.82 1.89 2.95 3.18 2.39 2.76 5.66 6.5 10.49 9.86 6.31 4.38 15.31 8.11 28.56 8.11.38 0 .76-.01 1.15-.01-.06.06-.12.13-.18.19-.07.08-.15.15-.23.23l-.36.36c-.12.1-.23.21-.35.32-.11.1-.23.2-.34.31-.1.09-.21.18-.31.27-5.4 1.02-12.84 1.88-19.35.62-2.74-.53-6.6-1.41-11.51-2.64-4.98-2.51-9.28-5.6-11.8-8.77zm13.16 37.76c-2.67-.7-4.27-3.43-3.58-6.1.48-1.88 1.98-3.23 3.75-3.62.75-.17 1.55-.17 2.35.04.67.17 1.27.47 1.79.88-.27-.06-.52-.11-.8-.17.28.07.55.13.81.18 1.21.93 1.94 2.39 1.94 3.95 0 .41-.05.83-.16 1.25-.7 2.68-3.43 4.28-6.1 3.59z" fill="#a26e4d" fill-opacity="1" data-original-color="#000000ff" stroke="none" stroke-opacity="1"/></g></g></svg>