<svg id="Capa_1" enable-background="new 0 0 512 512" height="300" viewBox="0 0 512 512" width="300" xmlns="http://www.w3.org/2000/svg" version="1.1" xmlns:xlink="http://www.w3.org/1999/xlink" xmlns:svgjs="http://svgjs.dev/svgjs"><g width="100%" height="100%" transform="matrix(1,0,0,1,0,0)"><g><g><path d="m137.454 350.781c-1.035-9.833 2.168-19.69 8.787-27.042 6.642-7.378 16.147-11.608 26.079-11.608 1.192 0 2.398.061 3.585.183 18.012 1.84 55.723 7.933 92.411 27.858 11.941-38.103 33.329-67.423 44.449-80.916 6.694-8.121 16.564-12.777 27.082-12.777 10.519 0 20.391 4.657 27.082 12.778 11.101 13.468 32.436 42.71 44.388 80.719 11.839-6.398 23.773-11.353 35.114-15.201 15.945-29.312 25.907-62.351 28.226-97.48.569-8.614-6.344-15.887-14.977-15.887h-444.181c-8.633 0-15.545 7.273-14.977 15.887 6.483 98.193 72.624 180.073 162.51 209.757-18.07-34.616-23.792-69.288-25.578-86.271z" fill="#a26e4d" fill-opacity="1" data-original-color="#000000ff" stroke="none" stroke-opacity="1"/><path d="m196.706 483.136c-2.861-2.819-5.585-5.708-8.18-8.651-19.839-3.682-39.121-9.574-57.517-17.564v40.079c0 8.284 6.716 15 15 15h89.534c-13.513-7.565-26.824-17.024-38.837-28.864z" fill="#a26e4d" fill-opacity="1" data-original-color="#000000ff" stroke="none" stroke-opacity="1"/></g><g><path d="m259.715 394.213c0-8.004.587-15.82 1.643-23.41-35.102-21.332-73.844-27.147-88.502-28.645-3.206-.328-5.899 2.326-5.566 5.486 1.933 18.379 10.951 75.176 50.474 114.125 23.204 22.868 52.65 35.371 76.785 42.185-16.463-25.92-34.834-64.882-34.834-109.741z" fill="#a26e4d" fill-opacity="1" data-original-color="#000000ff" stroke="none" stroke-opacity="1"/><path d="m506.406 342.158c-14.603 1.492-53.11 7.267-88.107 28.403 1.077 7.666 1.68 15.562 1.68 23.652 0 44.771-18.3 83.671-34.738 109.591 24.036-6.847 53.223-19.334 76.258-42.036 39.522-38.949 48.541-95.746 50.474-114.125.332-3.159-2.361-5.812-5.567-5.485z" fill="#a26e4d" fill-opacity="1" data-original-color="#000000ff" stroke="none" stroke-opacity="1"/><path d="m389.978 394.213c0 55.205-34.529 101.736-46.274 115.967-2.004 2.427-5.711 2.427-7.714 0-11.745-14.231-46.274-60.761-46.274-115.967 0-55.09 34.385-101.541 46.201-115.877 2.041-2.476 5.822-2.476 7.862 0 11.815 14.336 46.199 60.787 46.199 115.877z" fill="#a26e4d" fill-opacity="1" data-original-color="#000000ff" stroke="none" stroke-opacity="1"/></g><path d="m187.311 181.408-53.282-104.578 12.552-5.435c17.805-7.71 25.989-28.395 18.279-46.2l-1.738-4.013c-7.71-17.806-28.395-25.99-46.2-18.28l-95.741 41.457c-17.806 7.71-25.989 28.395-18.279 46.2l1.738 4.014c7.71 17.805 28.395 25.99 46.2 18.279l12.552-5.435 26.68 73.991z" fill="#a26e4d" fill-opacity="1" data-original-color="#000000ff" stroke="none" stroke-opacity="1"/></g></g></svg>