<svg viewBox="0 0 24 24" xmlns="http://www.w3.org/2000/svg" width="300" height="300" version="1.1" xmlns:xlink="http://www.w3.org/1999/xlink" xmlns:svgjs="http://svgjs.dev/svgjs"><g width="100%" height="100%" transform="matrix(1,0,0,1,0,0)"><g fill-rule="evenodd"><path d="m16.5 5.25c-1.7949 0-3.25 1.45507-3.25 3.25 0 1.7949 1.4551 3.25 3.25 3.25s3.25-1.4551 3.25-3.25c0-1.79493-1.4551-3.25-3.25-3.25z" fill="#a26e4d" fill-opacity="1" data-original-color="#000000ff" stroke="none" stroke-opacity="1"/><path d="m16.4594 1.59005c-.5028-.870965-1.6217-1.23383-2.5241-.712837l-6.48271 3.82014c-.89971.52188-1.14372 1.6706-.64148 2.54051l1.12941 1.9562c.11997.20779.03594.41488-.09267.49158l-4.14437 2.31556c-.00751.0042-.01494.0085-.0223.0129l-.28461.1722c-.25943.1569-.39888.4545-.35338.7543.0455.2997.26701.5426.56132.6155l1.28499.318c1.0571.2616 2.1618.2636 3.21983.0058l2.19827-.5357c.4069-.0992.8242-.1493 1.2431-.1493h1.6273c.2682 0 .5161-.1433.6499-.3757.1339-.2324.1335-.5186-.0011-.7506l-.3217-.5547-2.3957-4.1494c-.1209-.20941-.0346-.41808.0957-.49331l4.6142-2.74138c.8986-.52223 1.1421-1.67026.6401-2.53976z" fill="#a26e4d" fill-opacity="1" data-original-color="#000000ff" stroke="none" stroke-opacity="1"/><path d="m.295115 11.7439c.141555-.3893.571877-.5901.961155-.4485l2.69121.9786c1.64884.5996 3.45612.5996 5.10496 0 1.90176-.6916 3.98156-.7197 5.90136-.0798l.2082.0695c1.8173.6057 3.7905.5477 5.569-.1637l1.9904-.7962c.3846-.1538.8211.0333.9749.4179.1539.3845-.0332.821-.4178.9749l-1.9904.7961c-2.108.8432-4.4466.9119-6.6004.194l-.2082-.0694c-1.5988-.5329-3.3307-.5095-4.91444.0664-1.97998.72-4.15022.72-6.1302 0l-2.69121-.9787c-.389276-.1415-.590093-.5718-.448538-.9611z" fill="#a26e4d" fill-opacity="1" data-original-color="#000000ff" stroke="none" stroke-opacity="1"/><path d="m.295115 15.7439c.141555-.3893.571877-.5901.961155-.4485l2.69121.9786c1.64884.5996 3.45612.5996 5.10496 0 1.90176-.6916 3.98156-.7197 5.90136-.0798l.2082.0695c1.8173.6057 3.7905.5477 5.569-.1637l1.9904-.7962c.3846-.1538.8211.0333.9749.4179.1539.3845-.0332.821-.4178.9749l-1.9904.7961c-2.108.8432-4.4466.9119-6.6004.194l-.2082-.0694c-1.5988-.5329-3.3307-.5095-4.91444.0664-1.97998.72-4.15022.72-6.1302 0l-2.69121-.9787c-.389276-.1415-.590093-.5718-.448538-.9611z" fill="#a26e4d" fill-opacity="1" data-original-color="#000000ff" stroke="none" stroke-opacity="1"/><path d="m.295115 19.7439c.141555-.3893.571877-.5901.961155-.4485l2.69121.9786c1.64884.5996 3.45612.5996 5.10496 0 1.90176-.6916 3.98156-.7197 5.90136-.0798l.2082.0695c1.8173.6057 3.7905.5477 5.569-.1637l1.9904-.7962c.3846-.1538.8211.0333.9749.4179.1539.3845-.0332.821-.4178.9749l-1.9904.7961c-2.108.8432-4.4466.9119-6.6004.194l-.2082-.0694c-1.5988-.5329-3.3307-.5095-4.91444.0664-1.97998.72-4.15022.72-6.1302 0l-2.69121-.9787c-.389276-.1415-.590093-.5718-.448538-.9611z" fill="#a26e4d" fill-opacity="1" data-original-color="#000000ff" stroke="none" stroke-opacity="1"/></g></g></svg>