<?xml version="1.0" encoding="utf-8"?>
<!-- Generator: Adobe Illustrator 18.0.0, SVG Export Plug-In . SVG Version: 6.00 Build 0)  -->
<!DOCTYPE svg PUBLIC "-//W3C//DTD SVG 1.1//EN" "http://www.w3.org/Graphics/SVG/1.1/DTD/svg11.dtd">
<svg version="1.1" id="Layer_1" xmlns="http://www.w3.org/2000/svg" xmlns:xlink="http://www.w3.org/1999/xlink" x="0px" y="0px"
	 viewBox="0 0 512 512" enable-background="new 0 0 512 512" xml:space="preserve">
<g id="Page-1">
	<g id="_x30_20---Teamwork" transform="translate(-1 -1)">
		<path fill="#2CB7B4" d="M506,71.4v122.9c0,4.5-1.3,8.9-3.6,12.8l-20.1,33.5c-0.8,1.3-1.2,2.8-1.2,4.3v81.8
			c0.6,0.3,1.1,0.6,1.7,0.9c-6-2.9-18.3-4.2-18.3-4.2V245c0-4.5,1.3-8.9,3.6-12.8l20.1-33.6c0.8-1.3,1.2-2.8,1.2-4.3V71.4
			c0.3-6.7-4.5-12.5-11.1-13.6c-3.5-0.4-7,0.8-9.7,3.1c-2.6,2.4-4.1,5.7-4.1,9.3v37.3c0,4.6-3.7,8.3-8.3,8.3s-8.3-3.7-8.3-8.3V54.8
			c0.3-6.7-4.5-12.5-11.1-13.6c-3.5-0.4-7,0.8-9.7,3.1c-2.6,2.4-4.1,5.7-4.1,9.3V91c0,4.6-3.7,8.3-8.3,8.3s-8.3-3.7-8.3-8.3V37
			c0-3.5-1.5-6.9-4.1-9.3c-2.6-2.4-6.1-3.5-9.7-3.1c-6.6,1-11.4,6.9-11.1,13.6V91c0,4.6-3.7,8.3-8.3,8.3s-8.3-3.7-8.3-8.3V45.3
			c0-3.5-1.5-6.9-4.1-9.3c-2.6-2.4-6.1-3.5-9.7-3.1c-6.6,1.1-11.4,6.9-11.1,13.6v94.3c0,3.2-1.9,6.1-4.8,7.5c-2.9,1.4-6.3,1-8.8-1
			l-27.9-22.8c-4.1-3.1-9.8-2.7-13.5,0.8c-2,1.9-3.1,4.5-3.1,7.2c0,2.7,1.1,5.4,3,7.3l3.4,3.5l0.2,0.2l77.4,78.1
			c4.6,4.6,7.2,10.9,7.2,17.4V267c0.9-0.3,1.9-0.6,2.8-0.7c-6.9,2-14.6,8.3-19.4,12.8v-40.1c0-2.2-0.9-4.2-2.4-5.8l-71.3-71.9l0,0
			l-17.2-24.6l0,0c-1.4-8.4,1.3-17,7.6-23.1c9.8-9.4,25-10.2,35.8-2l14.4,11.8V55.7l6.7-28.4c3.8-4.9,9.2-8.5,15.4-10.1
			c8.3-2.1,17.1-0.4,24,4.7c4.6-7.7,12.5-12.7,21.4-13.7c13.6-1.4,26.4,6.9,30.6,20c7.6-4.2,16.6-4.7,24.6-1.4
			c8,3.3,14.1,9.9,16.7,18.2c5.2-2.9,11.2-4.1,17.1-3.5C495,43.3,506.2,56.2,506,71.4z"/>
		<path fill="#2CB7B4" d="M240.8,400.5c-9.8,9.4-25,10.2-35.8,2l-14.4-11.8v73.8h0.2c0,4.4-0.4,11.5-3.1,16.6h-0.4
			c-0.5,1-1,2-1.5,2.9c-3.8,6.4-10,11-17.3,12.9c-8.3,2.1-17.2,0.4-24.1-4.7c-5.1,8.6-14.4,13.9-24.4,13.9
			c-12.6,0-23.8-8.1-27.6-20.1c-7.6,4.2-16.6,4.7-24.6,1.4s-14.1-9.9-16.7-18.2c-5.2,2.9-11.2,4.1-17.1,3.5
			C19,470.7,7.8,457.8,8,442.6V319.7c0-4.4,1.2-8.8,3.4-12.6l20.3-33.7c0.8-1.3,1.2-2.8,1.2-4.3v-81.7c-0.4-0.2-0.8-0.4-1.2-0.6
			c6.3,2.7,17.8,3.9,17.8,3.9V269c0,4.5-1.3,8.9-3.6,12.8l-20.2,33.6c-0.7,1.3-1.1,2.8-1.1,4.3v122.9c-0.3,6.7,4.5,12.5,11.1,13.6
			c3.5,0.4,7-0.8,9.6-3.1c2.6-2.3,4.1-5.7,4.2-9.2v-37.4c0-4.6,3.7-8.3,8.3-8.3s8.3,3.7,8.3,8.3v52.8c-0.3,6.7,4.5,12.5,11.1,13.6
			c3.5,0.4,7-0.8,9.6-3.1c2.6-2.3,4.1-5.7,4.2-9.2V423c0-4.6,3.7-8.3,8.3-8.3s8.3,3.7,8.3,8.3v54c0,3.5,1.5,6.9,4.1,9.3
			c2.6,2.4,6.1,3.5,9.6,3.1c6.6-1,11.4-6.9,11.2-13.6V423c0-4.6,3.7-8.3,8.3-8.3s8.3,3.7,8.3,8.3v45.7c0,3.5,1.5,6.9,4.1,9.3
			c2.6,2.4,6.1,3.5,9.6,3.1c6.6-1.1,11.4-6.9,11.2-13.6v-94.3c0-3.2,1.8-6.2,4.8-7.6c2.9-1.4,6.4-0.9,8.9,1.1l27.9,22.8
			c1.8,1.4,4,2.2,6.2,2.1c4.2,0,7.9-2.5,9.5-6.3c1.6-3.8,0.8-8.2-2.1-11.2l-3.4-3.4c-0.1-0.1-0.2-0.2-0.3-0.3l-77.4-78
			c-4.6-4.6-7.2-10.9-7.2-17.4v-27.8c5.6-2.1,9.9-5.8,9.9-5.8l15.4-15.1l-8.6,8.6v40.2c0,2.2,0.9,4.2,2.4,5.8l69.7,70.3l0.1,0.1
			l4.5,4.5c0.1,0.1,0.2,0.2,0.3,0.3l0.2,0.2c4.5,4.8,10.8,11.9,12.8,17.1h0c0.1,0.3,0.2,0.6,0.3,1l0.4,1.5
			C250.1,384.6,247.4,394,240.8,400.5z"/>
		<path fill="#1E66A0" d="M323.4,55.7l6.7-28.4c0,0.1-0.1,0.1-0.1,0.2c-1,1.3-1.8,2.6-2.6,4c-0.1,0.2-0.2,0.3-0.2,0.5
			c-0.2,0.3-0.3,0.6-0.5,1H245c-1.5,0-3-0.4-4.3-1.2l-33.6-20.1c-3.8-2.3-8.3-3.6-12.8-3.6H71.4C56.3,7.8,43.3,19,41.3,34.1
			C40.8,40,42,46,44.8,51.2c-8.3,2.5-14.9,8.7-18.2,16.7s-2.7,17,1.4,24.6c-13.1,4.2-21.4,17-20,30.6c1,8.9,6.1,16.8,13.7,21.4
			c-4.2,5.8-6.2,13-5.4,20.1c1,8.3,5.5,15.6,12.1,20.3c1,0.7,2,1.3,3,1.8c0,0,0,0,0,0c6.3,2.7,17.8,3.9,17.8,3.9h9.2h64.6L111.5,205
			c-7.6,9.2-8.1,22.4-1.3,32.2c5.2,7.5,13.8,11.7,22.7,11.5c2.7-0.1,5.3-0.5,8-1.4v0c5.6-2.1,9.9-5.8,9.9-5.8l15.4-15.1l67.1-66.6
			c1.5-1.5,3.6-2.4,5.8-2.4h40.2l1.6,1.6c0.3,0.3,0.5,0.5,0.7,0.8c0.4,0.4,0.7,0.7,0.9,0.9l0.3,0.3l0.2,0.2c0,0,0.1,0.1,0.1,0.1
			l-17.2-24.6c0,0.1,0,0.3,0.1,0.4c0.2,1.3,0.6,2.5,1,3.8h-27.8c-6.5,0-12.8,2.6-17.4,7.2l-78.1,77.5l-0.2,0.2l-3.5,3.4
			c-4,4-10.5,3.9-14.5-0.1c-3.6-3.7-4-9.5-0.8-13.5l22.8-27.9c2-2.5,2.5-5.9,1.1-8.8c-1.4-2.9-4.3-4.7-7.5-4.7H46.5
			c-6.7,0.3-12.5-4.5-13.6-11.1c-0.4-3.5,0.8-7,3.1-9.7c2.4-2.6,5.7-4.1,9.3-4.1H91c4.6,0,8.3-3.7,8.3-8.3s-3.7-8.3-8.3-8.3H38.2
			c-6.7,0.3-12.5-4.5-13.6-11.1c-0.4-3.5,0.7-7,3.1-9.7c2.4-2.6,5.7-4.1,9.3-4.1h54c4.6,0,8.3-3.7,8.3-8.3S95.6,91,91,91H53.7
			c-3.5,0-6.9-1.5-9.3-4.1s-3.5-6.1-3.1-9.7c1.1-6.6,6.9-11.4,13.6-11.1h52.8c4.6,0,8.3-3.7,8.3-8.3s-3.7-8.3-8.3-8.3H70.3
			c-3.5,0-6.9-1.5-9.3-4.1c-2.4-2.6-3.5-6.1-3.1-9.7c1.1-6.6,6.9-11.4,13.6-11.1h122.9c1.5,0,3,0.4,4.3,1.2l33.6,20.1
			c3.9,2.3,8.3,3.5,12.8,3.6h78.4v1.2V55.7z"/>
		<path fill="#1E66A0" d="M485.9,421.6c4.2,7.6,4.7,16.6,1.4,24.6s-9.9,14.1-18.2,16.7c2.9,5.2,4.1,11.2,3.5,17.1
			c-2,15.1-14.9,26.3-30.1,26.1H319.7c-4.5,0-8.9-1.3-12.8-3.6l-33.6-20.1c-1.3-0.8-2.8-1.2-4.3-1.2h-81.3
			c2.7-5.1,3.1-12.2,3.1-16.6H269c4.5,0,8.9,1.3,12.8,3.6l33.6,20.1c1.3,0.8,2.8,1.2,4.3,1.2h122.9c6.7,0.3,12.5-4.5,13.6-11.1
			c0.4-3.5-0.8-7-3.1-9.7c-2.4-2.6-5.7-4.1-9.3-4.1h-37.3c-4.6,0-8.3-3.7-8.3-8.3s3.7-8.3,8.3-8.3h52.8c6.7,0.3,12.5-4.5,13.6-11.1
			c0.4-3.5-0.8-7-3.1-9.7s-5.7-4.1-9.3-4.1H423c-4.6,0-8.3-3.7-8.3-8.3s3.7-8.3,8.3-8.3h54c3.5,0,6.9-1.5,9.3-4.1
			c2.4-2.6,3.5-6.2,3.1-9.7c-1.1-6.6-6.9-11.3-13.5-11.1H423c-4.6,0-8.3-3.7-8.3-8.3s3.7-8.3,8.3-8.3h45.7c3.5,0,6.9-1.5,9.3-4.1
			c2.4-2.6,3.5-6.1,3.1-9.7c-1.1-6.6-6.9-11.4-13.6-11.1h-94.3c-3.2,0-6.1-1.9-7.5-4.8c-1.4-2.9-1-6.3,1.1-8.8l22.8-27.9
			c3.2-4.1,2.8-9.9-0.8-13.5c-4-4-10.5-4.1-14.5-0.1l-3.4,3.3l-0.3,0.3L292.5,366c-4.6,4.6-10.9,7.2-17.4,7.2h-27.8
			c-2.1-5.2-8.3-12.3-12.8-17.1l0.4,0.5h40.1c2.1,0,4.2-0.9,5.7-2.4l71-70.4c0,0,0,0,0,0l4.8-4.7v0c4.8-4.5,12.5-10.8,19.4-12.8
			c8.8-1.8,17.9,0.8,24.5,7c9.7,9.7,10.5,25.1,2,35.8l-11.8,14.4h73.8c0,0,12.2,1.3,18.3,4.2c0,0,0,0,0.1,0l2,1.2
			c7,4.6,11.7,12.2,12.7,20.6c0.7,7.1-1.2,14.3-5.4,20.1c7.7,4.6,12.7,12.5,13.7,21.4C507.3,404.6,498.9,417.4,485.9,421.6z"/>
	</g>
</g>
</svg>
