<?xml version="1.0" encoding="utf-8"?>
<!-- Generator: Adobe Illustrator 18.0.0, SVG Export Plug-In . SVG Version: 6.00 Build 0)  -->
<!DOCTYPE svg PUBLIC "-//W3C//DTD SVG 1.1//EN" "http://www.w3.org/Graphics/SVG/1.1/DTD/svg11.dtd">
<svg version="1.1" id="Layer_1" xmlns="http://www.w3.org/2000/svg" xmlns:xlink="http://www.w3.org/1999/xlink" x="0px" y="0px"
	 viewBox="0 0 347.1 108.9" enable-background="new 0 0 347.1 108.9" xml:space="preserve">
<g>
	<path fill="#6D6E71" d="M137.1,106.7v-8.4h3.3c0.7,0,1.4,0.1,1.9,0.3c0.5,0.2,0.9,0.6,1.2,1c0.3,0.4,0.4,1,0.4,1.6
		c0,0.6-0.1,1.1-0.4,1.6c-0.3,0.4-0.7,0.8-1.2,1c-0.5,0.2-1.2,0.3-1.9,0.3h-2.6l0.5-0.6v3.1H137.1z M138.3,103.7l-0.5-0.6h2.6
		c0.8,0,1.4-0.2,1.8-0.5c0.4-0.3,0.6-0.8,0.6-1.4c0-0.6-0.2-1.1-0.6-1.4c-0.4-0.3-1-0.5-1.8-0.5h-2.6l0.5-0.6V103.7z M142.8,106.7
		l-2.1-3.1h1.3l2.2,3.1H142.8z"/>
	<path fill="#6D6E71" d="M149.4,105.7h4.9v1h-6.1v-8.4h5.9v1h-4.7V105.7z M149.3,101.9h4.3v1h-4.3V101.9z"/>
	<polygon fill="#6D6E71" points="158.6,106.7 158.6,98.3 159.8,98.3 159.8,105.7 164.4,105.7 164.4,106.7 	"/>
	<path fill="#6D6E71" d="M166.8,106.7l3.8-8.4h1.2l3.8,8.4h-1.3l-3.4-7.7h0.5l-3.4,7.7H166.8z M168.4,104.6l0.3-1h4.7l0.3,1H168.4z"
		/>
	<polygon fill="#6D6E71" points="180.4,106.7 180.4,99.3 177.5,99.3 177.5,98.3 184.5,98.3 184.5,99.3 181.6,99.3 181.6,106.7 	"/>
	<rect x="188.1" y="98.3" fill="#6D6E71" width="1.2" height="8.4"/>
	<path fill="#6D6E71" d="M198,106.8c-0.6,0-1.2-0.1-1.8-0.3c-0.5-0.2-1-0.5-1.4-0.9c-0.4-0.4-0.7-0.8-0.9-1.4
		c-0.2-0.5-0.3-1.1-0.3-1.7c0-0.6,0.1-1.2,0.3-1.7c0.2-0.5,0.5-1,0.9-1.4c0.4-0.4,0.9-0.7,1.4-0.9c0.5-0.2,1.1-0.3,1.8-0.3
		c0.6,0,1.2,0.1,1.8,0.3c0.5,0.2,1,0.5,1.4,0.9c0.4,0.4,0.7,0.8,0.9,1.4c0.2,0.5,0.3,1.1,0.3,1.7c0,0.6-0.1,1.2-0.3,1.7
		c-0.2,0.5-0.5,1-0.9,1.4c-0.4,0.4-0.9,0.7-1.4,0.9C199.2,106.7,198.6,106.8,198,106.8 M198,105.7c0.5,0,0.9-0.1,1.3-0.2
		c0.4-0.2,0.7-0.4,1-0.7c0.3-0.3,0.5-0.6,0.7-1s0.2-0.8,0.2-1.3c0-0.5-0.1-0.9-0.2-1.3c-0.2-0.4-0.4-0.7-0.7-1
		c-0.3-0.3-0.6-0.5-1-0.7c-0.4-0.2-0.8-0.2-1.3-0.2c-0.5,0-0.9,0.1-1.3,0.2c-0.4,0.2-0.7,0.4-1,0.7c-0.3,0.3-0.5,0.6-0.7,1
		c-0.2,0.4-0.2,0.8-0.2,1.3c0,0.5,0.1,0.9,0.2,1.3s0.4,0.7,0.7,1c0.3,0.3,0.6,0.5,1,0.7C197.1,105.7,197.5,105.7,198,105.7"/>
	<polygon fill="#6D6E71" points="206.6,106.7 206.6,98.3 207.6,98.3 213.2,105.2 212.7,105.2 212.7,98.3 213.9,98.3 213.9,106.7 
		212.9,106.7 207.3,99.8 207.8,99.8 207.8,106.7 	"/>
	<path fill="#6D6E71" d="M221.2,106.8c-0.6,0-1.3-0.1-1.8-0.3c-0.6-0.2-1-0.5-1.4-0.8l0.4-0.9c0.3,0.3,0.7,0.5,1.2,0.7
		c0.5,0.2,1,0.3,1.6,0.3c0.5,0,0.9-0.1,1.2-0.2c0.3-0.1,0.5-0.3,0.7-0.5c0.1-0.2,0.2-0.4,0.2-0.7c0-0.3-0.1-0.5-0.3-0.7
		c-0.2-0.2-0.4-0.3-0.7-0.4c-0.3-0.1-0.6-0.2-1-0.3c-0.4-0.1-0.7-0.2-1.1-0.3c-0.4-0.1-0.7-0.2-1-0.4c-0.3-0.2-0.5-0.4-0.7-0.7
		c-0.2-0.3-0.3-0.7-0.3-1.1c0-0.4,0.1-0.8,0.3-1.2c0.2-0.4,0.6-0.7,1.1-0.9c0.5-0.2,1.1-0.3,1.8-0.3c0.5,0,1,0.1,1.5,0.2
		c0.5,0.1,0.9,0.3,1.3,0.6l-0.4,1c-0.4-0.2-0.7-0.4-1.1-0.5c-0.4-0.1-0.8-0.2-1.2-0.2c-0.5,0-0.9,0.1-1.2,0.2
		c-0.3,0.1-0.5,0.3-0.7,0.5c-0.1,0.2-0.2,0.4-0.2,0.7c0,0.3,0.1,0.5,0.3,0.7c0.2,0.2,0.4,0.3,0.7,0.4c0.3,0.1,0.6,0.2,1,0.3
		c0.4,0.1,0.7,0.2,1.1,0.3c0.4,0.1,0.7,0.2,1,0.4c0.3,0.2,0.5,0.4,0.7,0.7c0.2,0.3,0.3,0.6,0.3,1.1c0,0.4-0.1,0.8-0.3,1.2
		c-0.2,0.4-0.6,0.7-1.1,0.9C222.5,106.7,221.9,106.8,221.2,106.8"/>
	<path fill="#6D6E71" d="M229.7,106.7h-1.2v-8.4h1.2V106.7z M234.6,103h-5.1v-1h5.1V103z M234.5,98.3h1.2v8.4h-1.2V98.3z"/>
	<rect x="240.6" y="98.3" fill="#6D6E71" width="1.2" height="8.4"/>
	<path fill="#6D6E71" d="M246.6,106.7v-8.4h3.3c0.7,0,1.4,0.1,1.9,0.3c0.5,0.2,0.9,0.6,1.2,1c0.3,0.4,0.4,1,0.4,1.6
		c0,0.6-0.1,1.1-0.4,1.6c-0.3,0.4-0.7,0.8-1.2,1c-0.5,0.2-1.2,0.4-1.9,0.4h-2.6l0.5-0.6v3.1H246.6z M247.8,103.7l-0.5-0.6h2.6
		c0.8,0,1.4-0.2,1.7-0.5c0.4-0.3,0.6-0.8,0.6-1.4c0-0.6-0.2-1.1-0.6-1.4c-0.4-0.3-1-0.5-1.7-0.5h-2.6l0.5-0.6V103.7z"/>
	<path fill="#6D6E71" d="M260.1,106.8c-0.6,0-1.3-0.1-1.8-0.3c-0.6-0.2-1-0.5-1.4-0.8l0.4-0.9c0.3,0.3,0.7,0.5,1.2,0.7
		c0.5,0.2,1,0.3,1.6,0.3c0.5,0,0.9-0.1,1.2-0.2c0.3-0.1,0.5-0.3,0.7-0.5c0.1-0.2,0.2-0.4,0.2-0.7c0-0.3-0.1-0.5-0.3-0.7
		c-0.2-0.2-0.4-0.3-0.7-0.4c-0.3-0.1-0.6-0.2-1-0.3c-0.4-0.1-0.7-0.2-1.1-0.3c-0.4-0.1-0.7-0.2-1-0.4c-0.3-0.2-0.5-0.4-0.7-0.7
		c-0.2-0.3-0.3-0.7-0.3-1.1c0-0.4,0.1-0.8,0.3-1.2c0.2-0.4,0.6-0.7,1.1-0.9c0.5-0.2,1.1-0.3,1.8-0.3c0.5,0,1,0.1,1.5,0.2
		c0.5,0.1,0.9,0.3,1.3,0.6l-0.4,1c-0.4-0.2-0.7-0.4-1.1-0.5c-0.4-0.1-0.8-0.2-1.2-0.2c-0.5,0-0.9,0.1-1.2,0.2
		c-0.3,0.1-0.5,0.3-0.7,0.5c-0.1,0.2-0.2,0.4-0.2,0.7c0,0.3,0.1,0.5,0.3,0.7c0.2,0.2,0.4,0.3,0.7,0.4c0.3,0.1,0.6,0.2,1,0.3
		c0.4,0.1,0.7,0.2,1.1,0.3c0.4,0.1,0.7,0.2,1,0.4c0.3,0.2,0.5,0.4,0.7,0.7c0.2,0.3,0.3,0.6,0.3,1.1c0,0.4-0.1,0.8-0.3,1.2
		c-0.2,0.4-0.6,0.7-1.1,0.9C261.4,106.7,260.8,106.8,260.1,106.8"/>
	<path fill="#6D6E71" d="M274.2,106.7H273v-8.4h5.9v1h-4.7V106.7z M274.1,102.3h4.3v1h-4.3V102.3z"/>
	<path fill="#6D6E71" d="M286.6,106.8c-0.6,0-1.2-0.1-1.8-0.3c-0.5-0.2-1-0.5-1.4-0.9c-0.4-0.4-0.7-0.8-0.9-1.4
		c-0.2-0.5-0.3-1.1-0.3-1.7c0-0.6,0.1-1.2,0.3-1.7c0.2-0.5,0.5-1,0.9-1.4c0.4-0.4,0.9-0.7,1.4-0.9c0.5-0.2,1.1-0.3,1.8-0.3
		c0.6,0,1.2,0.1,1.8,0.3c0.5,0.2,1,0.5,1.4,0.9c0.4,0.4,0.7,0.8,0.9,1.4c0.2,0.5,0.3,1.1,0.3,1.7c0,0.6-0.1,1.2-0.3,1.7
		c-0.2,0.5-0.5,1-0.9,1.4c-0.4,0.4-0.9,0.7-1.4,0.9C287.9,106.7,287.3,106.8,286.6,106.8 M286.6,105.7c0.5,0,0.9-0.1,1.3-0.2
		c0.4-0.2,0.7-0.4,1-0.7c0.3-0.3,0.5-0.6,0.7-1s0.2-0.8,0.2-1.3c0-0.5-0.1-0.9-0.2-1.3c-0.2-0.4-0.4-0.7-0.7-1
		c-0.3-0.3-0.6-0.5-1-0.7c-0.4-0.2-0.8-0.2-1.3-0.2c-0.5,0-0.9,0.1-1.3,0.2c-0.4,0.2-0.7,0.4-1,0.7c-0.3,0.3-0.5,0.6-0.7,1
		c-0.2,0.4-0.2,0.8-0.2,1.3c0,0.5,0.1,0.9,0.2,1.3s0.4,0.7,0.7,1c0.3,0.3,0.6,0.5,1,0.7C285.7,105.7,286.2,105.7,286.6,105.7"/>
	<path fill="#6D6E71" d="M295.3,106.7v-8.4h3.3c0.7,0,1.4,0.1,1.9,0.3c0.5,0.2,0.9,0.6,1.2,1c0.3,0.4,0.4,1,0.4,1.6
		c0,0.6-0.1,1.1-0.4,1.6c-0.3,0.4-0.7,0.8-1.2,1c-0.5,0.2-1.2,0.3-1.9,0.3h-2.6l0.5-0.6v3.1H295.3z M296.5,103.7l-0.5-0.6h2.6
		c0.8,0,1.4-0.2,1.8-0.5c0.4-0.3,0.6-0.8,0.6-1.4c0-0.6-0.2-1.1-0.6-1.4c-0.4-0.3-1-0.5-1.8-0.5h-2.6l0.5-0.6V103.7z M300.9,106.7
		l-2.1-3.1h1.3l2.2,3.1H300.9z"/>
	<path fill="#6D6E71" d="M307.5,105.7h4.9v1h-6.1v-8.4h5.9v1h-4.7V105.7z M307.4,101.9h4.3v1h-4.3V101.9z"/>
	<polygon fill="#6D6E71" points="319,106.7 315.3,98.3 316.6,98.3 320,106.1 319.3,106.1 322.7,98.3 323.9,98.3 320.2,106.7 	"/>
	<path fill="#6D6E71" d="M328.5,105.7h4.9v1h-6.1v-8.4h5.9v1h-4.7V105.7z M328.4,101.9h4.3v1h-4.3V101.9z"/>
	<path fill="#6D6E71" d="M337.7,106.7v-8.4h3.3c0.7,0,1.4,0.1,1.9,0.3c0.5,0.2,0.9,0.6,1.2,1c0.3,0.4,0.4,1,0.4,1.6
		c0,0.6-0.1,1.1-0.4,1.6c-0.3,0.4-0.7,0.8-1.2,1c-0.5,0.2-1.2,0.3-1.9,0.3h-2.6l0.5-0.6v3.1H337.7z M338.9,103.7l-0.5-0.6h2.6
		c0.8,0,1.4-0.2,1.8-0.5c0.4-0.3,0.6-0.8,0.6-1.4c0-0.6-0.2-1.1-0.6-1.4c-0.4-0.3-1-0.5-1.8-0.5h-2.6l0.5-0.6V103.7z M343.3,106.7
		l-2.1-3.1h1.3l2.2,3.1H343.3z"/>
	<path fill="#22356C" d="M79.7,49.6c-1.9-2.8-4.4-5-7.4-6.8c-3.5-1.9-7.7-3.4-12.4-4.2c-5-0.9-10.5-1.6-16.2-2.1
		c-10.5-1.1-17.8-2.9-21.8-5.3c-2.7-1.7-3-3.3-3-4.4c0-1.6,1-3.1,2.9-4.6c4.3-3,10.7-4.6,19.1-4.6c5.6,0,11.7,0.7,18,2
		c6,1.4,11.1,3.1,15.2,5l2.9,1.4V10.5L75.7,10c-4.2-2-9.4-3.7-15.5-5C47.3,2.6,34.6,2.6,23.8,5.3c-5.6,1.4-10.2,3.6-13.7,6.6
		c-5,4.4-7.6,9.6-7.6,15.6c0,5,2,9.4,6,13.2c3.3,3.2,7.9,5.5,13.9,6.8c5.4,1.3,11.8,2.3,19.1,2.9c10.3,1,17.6,2.7,21.7,5.1
		c3,1.9,3,3.6,3,4.2c0,1.6-0.9,3.1-2.8,4.5c-4.2,3-11,4.5-20.1,4.5c-6,0-12.4-0.7-19.1-2c-6.1-1.2-11.4-2.8-15.7-4.9l-2.9-1.4v15.3
		l1.1,0.6c4.3,2.2,9.6,3.9,15.9,5c6.3,1.3,12.9,1.9,19.6,1.9c5.8,0,11.1-0.5,15.9-1.4c5.1-1,9.4-2.5,12.6-4.3
		c3.4-1.9,6.3-4.5,8.5-7.7c2.3-3.3,3.4-6.9,3.4-10.7C82.5,55.7,81.6,52.5,79.7,49.6L79.7,49.6z"/>
	<polygon fill="#22356C" points="259.1,3 221.3,57.1 219.5,59.6 219.5,82.8 203.8,82.8 203.8,59.6 202,57.1 164.1,3 183.4,3 
		203.8,32.2 211.6,43.3 219.5,32.2 239.9,3 	"/>
	<path fill="#22356C" d="M296.4,16.8l-9.6-13.7l-9.6,13.7l-45.9,65.6l-0.3,0.4h19.3l8.3-11.8H315l8.3,11.8h19.2L296.4,16.8z
		 M269.7,54.8l17-24.3l17,24.3H269.7z"/>
	<g id="A">
		<path fill="#B72726" d="M167.9,47.5c-5.4-0.5-12.1-0.9-19.7-0.7l-12.3-17.3V2.1l9.6,13.7L167.9,47.5z"/>
		<path fill="#B72726" d="M169.8,50.5c-5.9-0.9-13-1.6-20.4-1.7l23.8,34h19.2L169.8,50.5z"/>
		<path fill="#87171A" d="M120.9,50.8l15-21.3V2.1l-9.6,13.7L83.4,77l-4,5.5c0,0,0.1-0.1,0.2-0.1c1.7-1.1,13.5-8.7,30.6-16.3
			c19.3-8.5,45.3-16.9,71.2-15.8C181.4,50.4,152.9,44,120.9,50.8"/>
	</g>
	<rect x="4.6" y="102.4" fill="#6D6E71" width="122.6" height="2.1"/>
</g>
</svg>
