<?xml version="1.0" encoding="UTF-8"?><svg id="Layer_1" xmlns="http://www.w3.org/2000/svg" viewBox="0 0 193.28 106.83"><defs><style>.cls-1{fill:#ae285d;}</style></defs><g id="_ae285dff"><path id="path5" class="cls-1" d="M37.69,34.04c2.3,3.95,4.62,7.9,6.9,11.87-3.68,6.49-7.31,13.02-11.11,19.44-1.46,2.46-2.88,4.95-4.32,7.43-4.68,.03-9.36,.03-14.04,.02,.14-.32,.28-.64,.46-.95,7.37-12.6,14.77-25.19,22.12-37.8Z"/><path id="path7" class="cls-1" d="M139.53,43.76c2.59,4.82,5.17,9.64,7.76,14.47-.91,.02-1.82-.03-2.73,0-.61-1.06-1.14-2.17-1.74-3.24-2.3-.07-4.6-.02-6.9-.03-.55,1.1-1.16,2.17-1.75,3.26-.9,0-1.8,.02-2.69,0,2.65-4.84,5.3-9.69,8.05-14.47m-2.46,9.14c1.57,.02,3.14,.02,4.71,.03-.79-1.46-1.49-2.96-2.34-4.39-.81,1.45-1.6,2.9-2.37,4.36Z"/><path id="path9" class="cls-1" d="M148.79,43.7c3.91,3.39,7.81,6.79,11.67,10.24,.11-3.11-.01-6.23,.08-9.34,.84,.02,1.67,.03,2.51,.04-.03,4.8-.01,9.59-.02,14.39-2.57-2.13-5.03-4.39-7.56-6.56-1.41-1.21-2.81-2.42-4.15-3.7-.03,3.15,.01,6.31-.05,9.46-.83,0-1.66-.02-2.49-.01,0-4.84-.03-9.68,.02-14.53Z"/><path id="path11" class="cls-1" d="M66.23,58.21c2.7-4.82,5.33-9.67,8.09-14.46,2.57,4.83,5.16,9.65,7.76,14.46-.93,.02-1.85,.02-2.77,0-.56-1.08-1.14-2.15-1.67-3.24-2.31-.03-4.61,0-6.92,0-.6,1.09-1.14,2.21-1.79,3.27-.9-.02-1.79,0-2.69-.03m5.6-5.29c1.58,0,3.15,.01,4.73,0-.79-1.45-1.49-2.96-2.34-4.38-.8,1.45-1.59,2.91-2.39,4.37Z"/><path id="path13" class="cls-1" d="M104.64,45c1.32-.65,2.86-.73,4.29-.45,1.24,.26,2.23,1.14,2.98,2.11-.67,.34-1.33,.68-1.99,1.04-.89-1.39-3-1.83-4.28-.75-.68,.49-.63,1.69,.14,2.06,1.73,.95,3.83,1.16,5.36,2.47,1.56,1.32,1.5,3.97,.05,5.36-1.55,1.57-4.01,1.92-6.08,1.33-1.73-.44-3.03-2.03-3.26-3.77,.84-.18,1.68-.33,2.52-.47,.1,.82,.41,1.72,1.18,2.13,1.22,.66,2.99,.49,3.84-.69,.59-.81,.42-2.04-.39-2.63-1.7-1.14-3.95-1.21-5.47-2.64-.8-.68-1.14-1.83-.86-2.84,.22-1.03,1.06-1.8,1.97-2.27Z"/><path id="path15" class="cls-1" d="M82.89,44.7c.95-.12,1.91-.08,2.86-.07,1.02,1.52,2.04,3.04,3.06,4.55,1.07-1.5,2.12-3.02,3.18-4.53,.98-.03,1.96-.05,2.93-.02-1.55,2.16-3.11,4.31-4.67,6.47,1.58,2.4,3.31,4.7,4.86,7.13-.93,0-1.86,0-2.8-.01-1.19-1.71-2.36-3.42-3.55-5.12-1.23,1.71-2.46,3.42-3.67,5.14-.94,.02-1.89,0-2.83,0,1.64-2.4,3.37-4.75,5.07-7.11-1.47-2.16-2.96-4.29-4.45-6.43Z"/><path id="path17" class="cls-1" d="M97.22,44.64c.84-.02,1.68-.02,2.52,0,0,4.53,0,9.06,0,13.6-.85,0-1.71,0-2.56,0,.03-4.53,.02-9.06,.04-13.59Z"/><path id="path19" class="cls-1" d="M121.74,44.62c2.16,.09,4.48-.3,6.47,.76,1.94,1.04,2.38,4.11,.6,5.5,1.12,.44,2.21,1.28,2.51,2.51,.47,1.51-.36,3.18-1.68,3.96-2.41,1.32-5.24,.71-7.85,.89-.08-4.54-.03-9.08-.04-13.62m2.5,1.96c0,1.3,0,2.59,0,3.88,.94-.04,1.97,.02,2.77-.56,.82-.73,.79-2.23-.11-2.87-.79-.5-1.76-.44-2.65-.45m.01,5.66c0,1.32,0,2.64,.02,3.96,1.26-.07,2.61,.17,3.77-.46,1.03-.5,1.22-2.16,.26-2.83-1.15-.89-2.7-.65-4.05-.68Z"/><path id="path21" class="cls-1" d="M165.95,44.62c.84,0,1.67,0,2.51,0,0,1.79-.02,3.58,.02,5.37,2.06-1.82,4.17-3.58,6.24-5.38,1.15,0,2.29,.01,3.44,0-2.47,2.03-4.93,4.08-7.36,6.16,2.39,2.52,4.87,4.96,7.32,7.44-1.14-.01-2.27,.08-3.4-.05-1.95-1.99-3.88-3.98-5.81-5.99-.14,.19-.28,.37-.42,.56-.05,1.83,0,3.66-.04,5.49-.84,0-1.68,.02-2.52,.01,0-4.54,.02-9.08,.02-13.61Z"/><path id="path23" class="cls-1" d="M37.69,58.14c4.7,0,9.39-.03,14.09,.04,2.8,4.88,5.68,9.7,8.45,14.59-4.7,.02-9.39,0-14.09,0-2.8-4.89-5.71-9.71-8.46-14.63Z"/></g></svg>