<?xml version="1.0" encoding="UTF-8"?><svg id="Layer_1" xmlns="http://www.w3.org/2000/svg" xmlns:xlink="http://www.w3.org/1999/xlink" viewBox="0 0 193.28 106.83"><defs><style>.cls-1,.cls-2{fill:#ef3120;}.cls-3,.cls-4{fill:#fff;}.cls-4,.cls-5,.cls-6,.cls-2{fill-rule:evenodd;}.cls-7{clip-path:url(#clippath-2);}.cls-5,.cls-8{fill:#f47216;}.cls-9{clip-path:url(#clippath-1);}.cls-6,.cls-10{fill:#1f4899;}.cls-11{clip-path:url(#clippath);}.cls-12{fill:#1e5cb3;}.cls-13{fill:none;}.cls-14{mask:url(#mask);}.cls-15{fill:#231f20;}</style><clipPath id="clippath"><polyline class="cls-13" points="52.9 43.06 52.9 47.74 56.61 47.74 56.61 43.06 52.9 43.06"/></clipPath><clipPath id="clippath-1"><polyline class="cls-13" points="52.9 47.09 52.9 46.92 52.96 46.78 53.19 46.82 53.48 46.32 53.91 46.12 53.13 43.43 53.19 43.37 53.33 43.29 53.54 43.29 54.06 44.42 54.51 43.54 54.51 43.14 54.76 43.06 54.94 43.06 55.09 43.1 55.23 43.37 55.15 43.66 55.25 43.93 55.58 44.3 55.4 44.57 55.67 45.27 56 45.21 56.35 45.58 56.39 46.26 56.22 46.76 56.22 46.82 56.51 46.82 56.64 46.99 56.6 47.13 56.22 47.5 55.81 47.46 55.79 47.71 55.58 47.75 55.44 47.6 55.25 47.75 55.05 47.71 54.96 47.46 54.88 47.71 54.59 47.71 54.45 47.5 54.03 47.67 53.81 47.46 53.46 47.46 53.06 47.3 52.9 47.09"/></clipPath><clipPath id="clippath-2"><rect class="cls-13" x="-614.52" y="-496.64" width="971.05" height="647.36"/></clipPath><mask id="mask" x="33.66" y="18.73" width=".47" height=".6" maskUnits="userSpaceOnUse"/></defs><g id="layer1"><g id="g244"><path id="path246" class="cls-15" d="M40.52,79.63l-.74,2.92c.17,.03,.32,.04,.42,.04,.16,0,.36-.03,.6-.08l-.06,.27c-.25,.05-.44,.08-.57,.08-.14,0-.36-.01-.63-.04-.25-.03-.45-.04-.61-.04-.29,0-.63,.04-1.02,.13l.08-.31c.4-.1,.67-.2,.79-.3,.18-.16,.33-.43,.42-.83l.77-3.07c.1-.39,.14-.62,.14-.69,0-.07-.02-.12-.07-.15-.05-.03-.14-.05-.27-.04l.07-.26c.37,0,.81-.07,1.33-.2-.04,.14-.1,.35-.17,.62l-.41,1.62c.18,.04,.32,.05,.44,.05,.46,0,.85-.16,1.18-.48,.33-.32,.49-.7,.49-1.14,0-.34-.13-.62-.39-.84-.26-.22-.62-.33-1.07-.33-.58,0-1.14,.14-1.69,.42-.55,.28-.96,.62-1.24,1.04-.27,.41-.41,.84-.41,1.29,0,.34,.14,.63,.42,.88,.14,.12,.23,.21,.26,.26,.03,.05,.05,.11,.05,.18,0,.08-.03,.14-.08,.2-.06,.06-.13,.08-.21,.08-.2,0-.37-.11-.53-.34-.2-.3-.3-.67-.3-1.11,0-.56,.16-1.09,.47-1.58,.31-.49,.78-.89,1.42-1.21,.63-.32,1.3-.48,2-.48,.65,0,1.19,.12,1.61,.37,.42,.25,.63,.61,.63,1.09,0,.45-.19,.87-.58,1.26-.39,.39-.92,.64-1.6,.75,.17,.34,.28,.56,.32,.68,.08,.2,.19,.53,.35,1,.37,1.1,.75,1.88,1.15,2.33,.29,.33,.61,.5,.95,.5s.58-.16,.68-.48c.06-.2,.11-.33,.16-.38,.07-.07,.15-.1,.24-.1s.16,.03,.22,.09c.06,.06,.09,.14,.09,.22,0,.23-.13,.44-.38,.65-.25,.21-.57,.31-.96,.31-.36,0-.7-.08-1.02-.26-.33-.17-.64-.45-.95-.85-.31-.39-.57-.86-.8-1.41-.11-.28-.28-.78-.5-1.51-.13-.45-.21-.71-.25-.8h-.14s-.08,0-.14,0Zm6.54,1.77l.18,.24c-.9,.85-1.67,1.28-2.31,1.28-.26,0-.46-.09-.6-.26-.14-.18-.21-.46-.21-.85,0-.78,.24-1.56,.71-2.34,.53-.88,1.17-1.32,1.92-1.32,.26,0,.46,.07,.6,.2,.14,.13,.2,.31,.2,.54,0,.24-.08,.47-.25,.7-.16,.23-.46,.47-.89,.72-.21,.12-.67,.34-1.36,.65-.03,.2-.05,.39-.05,.57,0,.26,.04,.44,.12,.54s.2,.15,.36,.15,.32-.04,.5-.13c.24-.11,.59-.35,1.06-.69Zm-1.92-.8c.59-.26,1.03-.55,1.33-.85,.2-.21,.3-.42,.3-.63,0-.16-.04-.28-.12-.38-.08-.09-.19-.14-.32-.14s-.27,.05-.4,.15c-.17,.14-.32,.34-.43,.62-.17,.4-.29,.81-.36,1.23Zm5.16,.85l.19,.2c-.29,.32-.62,.62-1.01,.88-.39,.26-.71,.4-.97,.4-.11,0-.21-.04-.28-.13-.07-.09-.11-.2-.11-.35,0-.29,.11-.9,.34-1.82l.59-2.41c.22-.87,.4-1.46,.55-1.75,.23-.45,.55-.8,.97-1.05,.41-.25,.85-.37,1.31-.37,.16,0,.28,.04,.37,.11,.09,.07,.14,.17,.14,.27,0,.12-.04,.21-.13,.29-.09,.07-.22,.11-.39,.11-.11,0-.26-.02-.47-.05-.17-.03-.34-.04-.49-.04s-.26,.03-.34,.09c-.11,.09-.2,.27-.29,.56s-.23,.84-.42,1.67l-.54,2.3c-.27,1.15-.41,1.76-.41,1.81,0,.12,.04,.18,.13,.18,.08,0,.2-.05,.35-.14,.3-.19,.61-.44,.91-.73Zm4.16-3.39l.36-.08-.41,1.39c-.16,.55-.32,1.19-.47,1.91-.08,.39-.12,.65-.12,.76s.04,.17,.14,.17c.06,0,.15-.04,.28-.11,.23-.14,.45-.3,.65-.51l.18,.21c-.42,.38-.68,.61-.8,.69-.23,.16-.46,.28-.67,.36-.14,.05-.28,.08-.41,.08-.1,0-.17-.02-.21-.07-.05-.04-.07-.11-.07-.19,0-.05,.01-.13,.04-.23l.22-.75c-.31,.38-.69,.7-1.13,.97-.27,.17-.51,.25-.74,.25s-.38-.07-.49-.23c-.15-.2-.23-.47-.23-.79,0-.39,.1-.82,.31-1.3,.21-.48,.48-.91,.83-1.3,.35-.39,.71-.67,1.1-.86,.3-.14,.68-.21,1.14-.21,.12,0,.24,0,.36,.02,0,0,.13-.22,.13-.22Zm-.68,.84c-.2-.04-.37-.06-.5-.06-.33,0-.62,.09-.86,.27-.25,.18-.47,.51-.68,.98-.21,.47-.32,.94-.32,1.41,0,.25,.04,.43,.13,.54,.08,.11,.2,.17,.33,.17,.25,0,.52-.14,.81-.41,.29-.27,.5-.67,.64-1.18,0,0,.46-1.72,.46-1.72Zm3.2-1.6l.88-.34-.4,1.54h1.14l-.09,.39h-1.14l-.48,1.84c-.15,.55-.23,.94-.23,1.15,0,.1,.02,.17,.06,.21,.04,.04,.1,.07,.17,.07,.11,0,.29-.07,.52-.2,.31-.18,.6-.38,.88-.61l.21,.25c-.8,.6-1.34,.97-1.61,1.11-.27,.14-.49,.2-.65,.2-.14,0-.24-.05-.32-.15s-.12-.26-.12-.48c0-.26,.07-.67,.21-1.21l.57-2.19h-.89l.1-.39h.89s.31-1.2,.31-1.2Zm4.4-1.52c.11,0,.21,.04,.28,.11s.11,.17,.11,.29c0,.16-.06,.3-.17,.43-.11,.12-.24,.18-.38,.18-.11,0-.2-.04-.28-.11s-.11-.18-.11-.3c0-.17,.05-.31,.16-.42,.1-.12,.23-.17,.38-.17Zm-2.17,3.64l-.24-.19c.37-.4,.7-.69,1-.86,.3-.17,.56-.26,.77-.26,.12,0,.21,.03,.27,.08,.06,.05,.09,.12,.09,.21,0,.1-.12,.56-.36,1.35-.39,1.3-.58,2.08-.58,2.35,0,.05,.01,.1,.04,.13,.02,.04,.05,.05,.08,.05,.12,0,.42-.23,.9-.68l.21,.21c-.5,.47-.87,.77-1.1,.91-.23,.13-.42,.2-.57,.2-.13,0-.23-.04-.31-.12-.07-.08-.11-.19-.11-.34,0-.46,.28-1.58,.83-3.36,.02-.09,.04-.16,.04-.23,0-.07-.03-.11-.1-.11-.07,0-.16,.03-.25,.09-.09,.06-.3,.25-.62,.56Zm5.25-1.28c.36,0,.66,.14,.89,.43,.24,.29,.36,.68,.36,1.19,0,.81-.29,1.54-.86,2.19-.57,.65-1.18,.97-1.81,.97-.39,0-.71-.13-.95-.38-.24-.26-.36-.61-.36-1.05,0-.77,.22-1.48,.66-2.13,.55-.81,1.24-1.22,2.07-1.22Zm-.47,.41c-.31,0-.61,.22-.9,.67-.29,.45-.44,1.06-.44,1.84,0,.48,.09,.85,.27,1.13,.13,.2,.31,.3,.53,.3,.31,0,.59-.19,.84-.57,.32-.5,.48-1.11,.48-1.84,0-.55-.07-.94-.22-1.18-.15-.23-.33-.35-.56-.35Zm2.41,.87l-.19-.19c.47-.45,.84-.74,1.12-.89,.28-.15,.52-.22,.71-.22,.08,0,.14,.02,.18,.05,.04,.03,.07,.07,.07,.11,0,.03,0,.09-.03,.18l-.25,1.11c.37-.42,.84-.8,1.41-1.16,.3-.19,.55-.28,.74-.28,.14,0,.26,.05,.34,.14,.08,.09,.12,.22,.12,.39,0,.11-.02,.24-.05,.39-.06,.24-.21,.76-.46,1.56-.23,.75-.35,1.24-.35,1.49,0,.07,0,.13,.03,.16,.02,.04,.05,.06,.09,.06,.11,0,.27-.1,.5-.31,.16-.15,.32-.28,.48-.41l.14,.2c-.34,.38-.69,.68-1.05,.9-.23,.15-.42,.22-.57,.22-.14,0-.25-.05-.32-.15-.08-.1-.12-.26-.12-.49,0-.33,.2-1.14,.61-2.44,.13-.46,.19-.73,.19-.81,0-.11-.07-.17-.2-.17-.15,0-.33,.08-.57,.23-.34,.23-.63,.5-.86,.8-.15,.2-.27,.51-.37,.95l-.44,1.92h-.82c.15-.55,.29-1.08,.4-1.58l.49-2.09c.02-.09,.03-.15,.03-.18,0-.1-.04-.15-.11-.15-.06,0-.14,.04-.25,.12-.23,.15-.44,.33-.64,.55Zm7.43-1.29c.33,0,.58,.06,.76,.19,.18,.13,.27,.27,.27,.44,0,.1-.04,.19-.11,.26-.07,.07-.17,.11-.27,.11-.07,0-.13-.01-.18-.04-.05-.03-.12-.11-.22-.23-.18-.24-.36-.36-.53-.36-.15,0-.28,.06-.4,.17-.11,.11-.17,.26-.17,.43,0,.15,.04,.3,.11,.44,.07,.14,.26,.37,.56,.69,.41,.43,.61,.84,.61,1.23s-.17,.73-.5,1.02c-.33,.29-.75,.44-1.28,.44-.43,0-.76-.09-.97-.27s-.32-.4-.32-.66c0-.13,.04-.23,.12-.32,.08-.08,.18-.13,.3-.13,.1,0,.19,.03,.26,.1,.07,.07,.11,.15,.11,.24,0,.04,0,.08-.01,.14,0,.05,0,.09,0,.12,0,.12,.05,.22,.15,.31,.1,.08,.23,.13,.41,.13,.2,0,.37-.03,.52-.1,.15-.07,.27-.17,.35-.31,.08-.14,.13-.27,.13-.41s-.04-.26-.12-.4c-.08-.13-.26-.35-.53-.65-.38-.42-.57-.83-.57-1.23,0-.36,.14-.67,.43-.94,.29-.27,.66-.41,1.11-.41Zm5.6,3.46l.14,.2c-.34,.38-.68,.67-1.04,.89-.24,.15-.44,.23-.6,.23-.13,0-.23-.05-.31-.15-.08-.1-.12-.26-.12-.48,0-.15,.03-.36,.09-.64,.06-.28,.23-.88,.51-1.81,.13-.45,.19-.72,.19-.8,0-.13-.06-.19-.19-.19-.15,0-.35,.08-.58,.23-.32,.21-.61,.48-.86,.81-.16,.21-.29,.53-.38,.95l-.44,1.91h-.82c.18-.64,.31-1.17,.41-1.57l.81-3.53c.15-.65,.34-1.15,.58-1.5,.24-.35,.55-.63,.94-.84,.39-.21,.77-.31,1.15-.31,.16,0,.28,.04,.37,.12,.09,.08,.14,.17,.14,.29,0,.1-.04,.19-.13,.26-.09,.07-.21,.11-.37,.11-.09,0-.2,0-.34-.03-.32-.04-.53-.07-.65-.07-.17,0-.31,.07-.41,.2-.11,.14-.22,.45-.33,.96l-.62,2.72c.44-.46,.91-.84,1.43-1.16,.3-.19,.54-.28,.72-.28,.14,0,.26,.04,.34,.13,.08,.09,.12,.21,.12,.36,0,.12-.01,.25-.04,.37-.05,.22-.16,.61-.34,1.18-.24,.78-.38,1.27-.42,1.46-.04,.19-.06,.36-.06,.51,0,.06,0,.1,.03,.13,.02,.03,.05,.04,.09,.04,.09,0,.25-.1,.5-.31,.13-.11,.3-.25,.49-.41Zm2.88-5.82c.11,0,.21,.04,.28,.11,.07,.07,.11,.17,.11,.29,0,.16-.06,.3-.17,.43-.11,.12-.24,.18-.38,.18-.11,0-.2-.04-.28-.11s-.11-.18-.11-.3c0-.17,.05-.31,.16-.42,.1-.12,.23-.17,.38-.17Zm-2.17,3.64l-.24-.19c.37-.4,.7-.69,1-.86,.3-.17,.56-.26,.77-.26,.12,0,.21,.03,.27,.08,.06,.05,.09,.12,.09,.21,0,.1-.12,.56-.36,1.35-.39,1.3-.58,2.08-.58,2.35,0,.05,.01,.1,.04,.13,.02,.04,.05,.05,.08,.05,.12,0,.42-.23,.9-.68l.21,.21c-.5,.47-.87,.77-1.1,.91-.23,.13-.42,.2-.57,.2-.13,0-.23-.04-.31-.12-.08-.08-.11-.19-.11-.34,0-.46,.28-1.58,.83-3.36,.02-.09,.04-.16,.04-.23,0-.07-.03-.11-.1-.11-.07,0-.16,.03-.25,.09-.09,.06-.3,.25-.62,.56Zm2.6,.09l-.22-.22c.33-.4,.67-.69,1-.88,.33-.19,.62-.29,.86-.29,.09,0,.16,.02,.22,.07,.05,.05,.08,.11,.08,.2,0,.11-.01,.22-.04,.33-.02,.11-.1,.38-.22,.8,.56-.56,.94-.91,1.15-1.04,.34-.22,.66-.34,.94-.34,.19,0,.35,.09,.47,.27,.13,.18,.19,.44,.19,.8,0,.89-.28,1.73-.83,2.53-.55,.8-1.17,1.2-1.84,1.2-.26,0-.53-.07-.79-.21l-.47,1.81c-.03,.11-.04,.2-.04,.27,0,.13,.05,.23,.15,.29,.16,.09,.49,.17,1,.23l-.07,.27c-.59-.05-1.05-.07-1.39-.07s-.8,.02-1.35,.07l.07-.27c.28-.03,.48-.11,.61-.23,.13-.12,.23-.35,.3-.66l1-4.17c.19-.78,.28-1.21,.28-1.3,0-.1-.04-.14-.14-.14-.16,0-.47,.24-.92,.71Zm1.11,2.59c.29,.29,.59,.43,.89,.43,.44,0,.83-.34,1.16-1.03,.33-.68,.5-1.35,.5-2.01,0-.21-.05-.37-.14-.48-.09-.11-.22-.16-.38-.16-.18,0-.38,.09-.59,.26-.34,.27-.6,.53-.78,.8-.13,.19-.25,.52-.36,.99,0,0-.29,1.19-.29,1.19Zm6.17-3.96c.33,0,.58,.06,.76,.19,.18,.13,.27,.27,.27,.44,0,.1-.04,.19-.11,.26-.07,.07-.17,.11-.27,.11-.07,0-.13-.01-.18-.04-.05-.03-.12-.11-.22-.23-.18-.24-.36-.36-.53-.36-.15,0-.28,.06-.4,.17-.11,.11-.17,.26-.17,.43,0,.15,.04,.3,.11,.44,.07,.14,.26,.37,.56,.69,.4,.43,.61,.84,.61,1.23s-.17,.73-.5,1.02c-.33,.29-.75,.44-1.28,.44-.44,0-.76-.09-.97-.27s-.32-.4-.32-.66c0-.13,.04-.23,.12-.32,.08-.08,.18-.13,.3-.13,.1,0,.19,.03,.26,.1,.07,.07,.11,.15,.11,.24,0,.04,0,.08-.01,.14,0,.05,0,.09,0,.12,0,.12,.05,.22,.15,.31,.1,.08,.23,.13,.41,.13,.2,0,.37-.03,.52-.1,.15-.07,.27-.17,.35-.31,.08-.14,.13-.27,.13-.41s-.04-.26-.12-.4c-.08-.13-.26-.35-.53-.65-.38-.42-.57-.83-.57-1.23,0-.36,.14-.67,.43-.94,.29-.27,.66-.41,1.11-.41Zm5.33,.97c.3-.33,.59-.57,.88-.72,.29-.15,.54-.23,.76-.23,.26,0,.46,.1,.62,.31,.15,.2,.23,.51,.23,.93,0,.6-.14,1.19-.42,1.77-.28,.57-.63,1.01-1.05,1.31-.42,.3-.82,.45-1.22,.45-.34,0-.61-.1-.81-.3-.2-.2-.3-.45-.3-.77,0-.25,.05-.61,.15-1.06l.65-2.91c.16-.71,.35-1.25,.59-1.62,.24-.37,.55-.67,.94-.89,.39-.22,.76-.33,1.11-.33,.21,0,.36,.04,.46,.11,.1,.07,.15,.17,.15,.29,0,.11-.05,.2-.13,.27-.09,.07-.21,.11-.37,.11-.12,0-.33-.03-.63-.08-.13-.03-.25-.04-.35-.04-.18,0-.33,.1-.45,.3-.08,.16-.2,.55-.35,1.17,0,0-.45,1.93-.45,1.93Zm1.08-.34c-.18,0-.39,.11-.64,.33-.25,.22-.48,.6-.7,1.15-.22,.55-.33,1.08-.33,1.61,0,.2,.06,.36,.19,.5,.13,.13,.27,.2,.44,.2,.41,0,.77-.32,1.09-.96,.32-.64,.48-1.29,.48-1.92,0-.29-.06-.53-.18-.71-.08-.13-.2-.19-.34-.19Zm4.85,2.62l.18,.24c-.9,.85-1.67,1.28-2.31,1.28-.26,0-.46-.09-.6-.26-.14-.18-.21-.46-.21-.85,0-.78,.24-1.56,.71-2.34,.53-.88,1.17-1.32,1.92-1.32,.26,0,.46,.07,.6,.2,.14,.13,.2,.31,.2,.54,0,.24-.08,.47-.25,.7-.16,.23-.46,.47-.89,.72-.21,.12-.67,.34-1.36,.65-.03,.2-.05,.39-.05,.57,0,.26,.04,.44,.12,.54,.08,.1,.2,.15,.36,.15s.32-.04,.5-.13c.24-.11,.59-.35,1.06-.69Zm-1.92-.8c.59-.26,1.03-.55,1.33-.85,.2-.21,.3-.42,.3-.63,0-.16-.04-.28-.12-.38-.08-.09-.19-.14-.32-.14s-.27,.05-.4,.15c-.17,.14-.32,.34-.43,.62-.17,.4-.29,.81-.36,1.23Zm2.85-1.33l-.18-.26,.41-.27c.4-.27,.67-.45,.84-.52,.09-.04,.18-.07,.25-.07s.15,.04,.22,.13c.32,.41,.59,.96,.81,1.65,.22,.69,.33,1.36,.33,2.01,0,.08,0,.21-.01,.38,.62-1.14,.93-2.05,.93-2.72,0-.14-.03-.32-.09-.56-.07-.26-.1-.44-.1-.55s.03-.2,.1-.26c.07-.07,.15-.1,.26-.1,.13,0,.23,.05,.31,.15,.08,.1,.12,.24,.12,.42,0,.47-.11,1.06-.32,1.77-.22,.71-.56,1.46-1.02,2.28-.46,.81-.89,1.41-1.27,1.81s-.75,.68-1.11,.85c-.36,.17-.69,.26-1.01,.26-.24,0-.42-.04-.55-.13-.12-.09-.18-.2-.18-.32,0-.11,.05-.21,.14-.28,.1-.08,.22-.12,.39-.12,.12,0,.29,.02,.51,.07,.23,.05,.39,.08,.47,.08,.22,0,.46-.09,.71-.28,.34-.26,.61-.56,.81-.92,.2-.36,.3-.72,.3-1.08,0-.51-.07-1.12-.22-1.83s-.36-1.26-.63-1.64c-.14-.2-.28-.29-.44-.29-.18,0-.44,.12-.77,.36Zm7.25-1.12c.36,0,.66,.14,.9,.43,.24,.29,.36,.68,.36,1.19,0,.81-.29,1.54-.86,2.19-.57,.65-1.18,.97-1.81,.97-.39,0-.71-.13-.95-.38-.24-.26-.36-.61-.36-1.05,0-.77,.22-1.48,.66-2.13,.55-.81,1.24-1.22,2.07-1.22Zm-.47,.41c-.31,0-.61,.22-.9,.67-.29,.45-.44,1.06-.44,1.84,0,.48,.09,.85,.27,1.13,.13,.2,.31,.3,.53,.3,.31,0,.59-.19,.84-.57,.32-.5,.48-1.11,.48-1.84,0-.55-.07-.94-.22-1.18-.15-.23-.33-.35-.56-.35Zm2.41,.87l-.19-.19c.47-.45,.84-.74,1.12-.89,.28-.15,.52-.22,.71-.22,.08,0,.14,.02,.18,.05,.04,.03,.07,.07,.07,.11,0,.03,0,.09-.03,.18l-.25,1.11c.37-.42,.84-.8,1.41-1.16,.3-.19,.55-.28,.74-.28,.14,0,.26,.05,.34,.14,.08,.09,.12,.22,.12,.39,0,.11-.02,.24-.05,.39-.06,.24-.21,.76-.46,1.56-.23,.75-.35,1.24-.35,1.49,0,.07,0,.13,.03,.16,.02,.04,.05,.06,.09,.06,.11,0,.27-.1,.5-.31,.16-.15,.32-.28,.48-.41l.14,.2c-.34,.38-.69,.68-1.05,.9-.23,.15-.42,.22-.57,.22-.14,0-.25-.05-.32-.15-.08-.1-.12-.26-.12-.49,0-.33,.2-1.14,.61-2.44,.13-.46,.19-.73,.19-.81,0-.11-.07-.17-.21-.17-.15,0-.33,.08-.56,.23-.35,.23-.63,.5-.86,.8-.15,.2-.27,.51-.37,.95l-.44,1.92h-.82c.15-.55,.29-1.08,.4-1.58l.49-2.09c.02-.09,.03-.15,.03-.18,0-.1-.04-.15-.11-.15-.06,0-.14,.04-.25,.12-.23,.15-.44,.33-.64,.55"/></g><g id="g248"><path id="path250" class="cls-15" d="M120.67,81.64l.15,.21c-.49,.42-.86,.69-1.09,.82-.33,.19-.59,.28-.78,.28-.09,0-.16-.02-.22-.07-.05-.05-.08-.1-.08-.17s.02-.16,.06-.31l.19-.67c-.44,.47-.8,.79-1.1,.96-.29,.17-.56,.25-.79,.25-.19,0-.36-.09-.49-.26-.13-.17-.2-.42-.2-.75,0-.52,.18-1.12,.54-1.8,.36-.68,.75-1.18,1.19-1.5,.44-.32,.84-.49,1.2-.49,.08,0,.2,.01,.36,.04,.17-.71,.34-1.24,.5-1.57,.16-.33,.36-.61,.61-.85s.53-.42,.85-.55c.32-.13,.62-.19,.9-.19,.15,0,.26,.04,.35,.12,.09,.08,.13,.17,.13,.29s-.04,.21-.12,.28-.19,.11-.33,.11c-.09,0-.26-.02-.51-.05-.25-.04-.42-.06-.51-.06-.13,0-.24,.04-.34,.12-.1,.08-.19,.25-.28,.51-.06,.17-.19,.69-.4,1.58l-.78,3.32c-.09,.39-.14,.65-.14,.78,0,.14,.05,.21,.16,.21,.07,0,.14-.02,.23-.07,.12-.07,.37-.24,.73-.52Zm-1.17-2.84c-.29-.07-.5-.1-.62-.1-.24,0-.48,.1-.72,.29-.23,.19-.46,.56-.68,1.12-.22,.55-.33,1.04-.33,1.45,0,.19,.05,.34,.15,.46,.1,.12,.22,.18,.34,.18,.15,0,.33-.07,.53-.2,.28-.2,.51-.45,.67-.74,.1-.18,.23-.63,.4-1.34,0,0,.25-1.11,.25-1.11Zm6.03,.31c.3-.33,.59-.56,.88-.72,.29-.15,.54-.23,.76-.23,.26,0,.46,.1,.62,.31,.15,.2,.23,.51,.23,.93,0,.6-.14,1.19-.42,1.77-.28,.57-.63,1.01-1.05,1.31-.42,.3-.82,.45-1.22,.45-.34,0-.61-.1-.81-.3-.2-.2-.3-.45-.3-.77,0-.25,.05-.61,.15-1.06l.65-2.91c.16-.71,.36-1.25,.59-1.62,.24-.37,.55-.67,.94-.89,.39-.22,.76-.33,1.11-.33,.21,0,.36,.04,.46,.11,.1,.07,.15,.17,.15,.29,0,.11-.05,.2-.13,.27-.09,.07-.21,.11-.37,.11-.12,0-.33-.03-.63-.08-.13-.03-.25-.04-.35-.04-.18,0-.33,.1-.45,.3-.08,.16-.2,.55-.34,1.17l-.45,1.93Zm1.08-.34c-.18,0-.39,.11-.64,.33s-.48,.6-.7,1.15c-.22,.55-.33,1.08-.33,1.61,0,.2,.06,.36,.19,.5,.13,.13,.27,.2,.44,.2,.41,0,.77-.32,1.09-.96,.32-.64,.48-1.29,.48-1.92,0-.29-.06-.53-.18-.71-.08-.13-.2-.19-.34-.19Zm5.72-.72l.36-.08-.41,1.39c-.16,.55-.32,1.19-.47,1.91-.08,.39-.12,.65-.12,.76s.04,.17,.14,.17c.06,0,.15-.04,.28-.11,.23-.14,.44-.3,.65-.51l.18,.21c-.42,.38-.69,.61-.8,.69-.24,.16-.46,.28-.67,.36-.14,.05-.28,.08-.41,.08-.1,0-.17-.02-.21-.07-.05-.04-.07-.11-.07-.19,0-.05,.01-.13,.04-.22l.22-.75c-.32,.38-.69,.7-1.13,.97-.27,.17-.51,.25-.74,.25s-.38-.07-.49-.22c-.15-.2-.23-.47-.23-.79,0-.39,.1-.82,.31-1.3,.21-.48,.48-.91,.83-1.3,.35-.39,.71-.67,1.1-.86,.3-.14,.68-.21,1.14-.21,.12,0,.24,0,.36,.02,0,0,.13-.22,.13-.22Zm-.68,.84c-.2-.04-.37-.06-.5-.06-.33,0-.62,.09-.86,.27-.25,.18-.47,.51-.68,.98-.21,.47-.32,.94-.32,1.41,0,.25,.04,.43,.13,.54,.08,.11,.19,.16,.33,.16,.25,0,.52-.13,.81-.41,.29-.27,.5-.67,.64-1.18l.46-1.72Zm1.83,.54l-.19-.19c.47-.45,.84-.74,1.12-.89,.28-.15,.52-.22,.71-.22,.08,0,.14,.02,.18,.05,.04,.03,.07,.07,.07,.11,0,.03,0,.09-.03,.18l-.25,1.11c.37-.41,.84-.8,1.41-1.16,.3-.19,.55-.28,.74-.28,.14,0,.26,.05,.34,.14,.08,.09,.12,.22,.12,.39,0,.11-.02,.24-.05,.39-.06,.24-.21,.76-.46,1.56-.23,.75-.35,1.24-.35,1.49,0,.07,0,.13,.03,.16,.02,.04,.05,.06,.09,.06,.11,0,.27-.1,.5-.31,.16-.15,.32-.28,.48-.41l.14,.2c-.34,.38-.69,.68-1.05,.9-.23,.15-.42,.22-.57,.22-.14,0-.25-.05-.32-.15-.08-.1-.12-.26-.12-.49,0-.33,.2-1.14,.61-2.44,.13-.46,.19-.73,.19-.81,0-.11-.07-.17-.2-.17-.15,0-.33,.08-.56,.23-.35,.23-.63,.5-.86,.8-.15,.2-.27,.51-.37,.95l-.44,1.92h-.82c.15-.55,.29-1.08,.4-1.58l.49-2.09c.02-.08,.03-.14,.03-.18,0-.1-.04-.15-.11-.15-.06,0-.14,.04-.25,.12-.23,.15-.44,.33-.64,.55Zm5.87,3.34h-.82l.72-3c.35-1.48,.58-2.4,.68-2.74,.11-.34,.24-.63,.39-.85,.15-.22,.34-.42,.57-.6,.23-.18,.47-.31,.74-.4,.27-.09,.5-.14,.7-.14,.19,0,.33,.04,.43,.11,.09,.07,.14,.17,.14,.29,0,.1-.04,.19-.13,.26-.08,.07-.19,.11-.32,.11-.16,0-.41-.03-.73-.08-.1-.02-.2-.03-.28-.03-.11,0-.22,.04-.32,.12-.1,.08-.19,.23-.27,.43-.08,.21-.19,.64-.33,1.29l-.39,1.76c.35-.4,.72-.71,1.09-.92,.29-.16,.56-.24,.82-.24,.18,0,.34,.07,.47,.21,.13,.14,.19,.31,.19,.52,0,.39-.2,.74-.61,1.05-.41,.31-1.03,.47-1.86,.49,.28,.13,.51,.26,.68,.41,.17,.15,.33,.35,.5,.62,.16,.26,.37,.7,.63,1.32,.3,.73,.59,1.22,.85,1.46,.26,.24,.54,.36,.85,.36,.18,0,.33-.04,.45-.12,.12-.08,.18-.16,.18-.24,0-.05-.02-.12-.05-.21-.04-.1-.06-.18-.06-.24,0-.08,.03-.16,.1-.23,.07-.07,.14-.1,.23-.1,.1,0,.19,.04,.26,.12,.07,.08,.11,.19,.11,.33,0,.26-.12,.5-.36,.7-.24,.2-.56,.31-.95,.31s-.76-.1-1.07-.3c-.31-.2-.61-.53-.89-.97-.16-.26-.43-.84-.82-1.75-.18-.43-.35-.76-.5-.97-.11-.17-.27-.34-.47-.5,0,0-.53,2.37-.53,2.37Zm.58-2.6c.5,0,.9-.04,1.2-.14s.52-.23,.65-.4c.13-.17,.2-.34,.2-.54,0-.14-.04-.25-.11-.34-.08-.08-.17-.13-.27-.13-.34,0-.87,.39-1.58,1.15,0,0-.08,.39-.08,.39Zm5.87-4.39c.11,0,.21,.04,.28,.11,.07,.08,.11,.17,.11,.29,0,.16-.06,.3-.17,.43-.11,.12-.24,.18-.37,.18-.11,0-.2-.04-.28-.11-.07-.08-.11-.18-.11-.3,0-.16,.05-.31,.16-.42,.1-.12,.23-.17,.38-.17Zm-2.17,3.64l-.24-.19c.37-.4,.7-.69,1-.86,.3-.17,.56-.26,.77-.26,.12,0,.21,.03,.27,.08,.06,.05,.09,.12,.09,.21,0,.11-.12,.56-.36,1.35-.39,1.3-.58,2.09-.58,2.35,0,.05,.01,.1,.04,.13,.02,.04,.05,.05,.08,.05,.12,0,.42-.23,.9-.68l.21,.21c-.5,.47-.87,.78-1.1,.91-.23,.13-.42,.2-.57,.2-.13,0-.23-.04-.3-.12-.08-.08-.11-.19-.11-.34,0-.46,.28-1.58,.83-3.36,.02-.08,.04-.16,.04-.23,0-.07-.03-.11-.1-.11-.07,0-.16,.03-.25,.09-.09,.06-.3,.25-.62,.56Zm2.69,.01l-.19-.19c.47-.45,.84-.74,1.12-.89,.28-.15,.52-.22,.71-.22,.08,0,.14,.02,.18,.05,.04,.03,.07,.07,.07,.11,0,.03,0,.09-.03,.18l-.25,1.11c.37-.41,.84-.8,1.41-1.16,.3-.19,.55-.28,.74-.28,.14,0,.26,.05,.34,.14,.08,.09,.12,.22,.12,.39,0,.11-.02,.24-.05,.39-.06,.24-.21,.76-.46,1.56-.23,.75-.35,1.24-.35,1.49,0,.07,0,.13,.03,.16,.02,.04,.05,.06,.09,.06,.11,0,.27-.1,.5-.31,.16-.15,.32-.28,.48-.41l.14,.2c-.34,.38-.69,.68-1.05,.9-.23,.15-.42,.22-.57,.22-.14,0-.25-.05-.32-.15-.08-.1-.12-.26-.12-.49,0-.33,.2-1.14,.61-2.44,.13-.46,.19-.73,.19-.81,0-.11-.07-.17-.2-.17-.15,0-.33,.08-.56,.23-.35,.23-.63,.5-.86,.8-.15,.2-.27,.51-.37,.95l-.44,1.92h-.82c.15-.55,.29-1.08,.4-1.58l.49-2.09c.02-.08,.03-.14,.03-.18,0-.1-.04-.15-.11-.15-.06,0-.14,.04-.25,.12-.23,.15-.44,.33-.64,.55Zm8.71-1.32l.45-.1c-.27,.86-.51,1.72-.74,2.58-.16,.62-.27,1.13-.34,1.54-.03,.21-.05,.47-.05,.78,0,.53-.07,.95-.18,1.28-.15,.45-.44,.81-.86,1.09-.42,.27-.92,.41-1.49,.41-.5,0-.89-.12-1.17-.35-.28-.23-.43-.5-.43-.8s.11-.57,.34-.83c.17-.19,.52-.43,1.05-.7,.27-.14,.53-.29,.76-.44-.27,.14-.48,.21-.63,.21-.13,0-.26-.06-.36-.19-.1-.13-.16-.29-.16-.5,0-.68,.2-1.34,.6-2.01,.4-.66,.88-1.17,1.45-1.5,.35-.21,.78-.31,1.31-.31,.1,0,.23,0,.38,.01,0,0,.05-.16,.05-.16Zm-.62,.81c-.17-.03-.33-.05-.47-.05-.35,0-.65,.09-.9,.27-.25,.18-.46,.49-.64,.93-.25,.61-.37,1.13-.37,1.54,0,.17,.05,.32,.14,.43,.1,.12,.21,.18,.33,.18,.15,0,.33-.07,.54-.21,.22-.14,.39-.32,.53-.53,.14-.21,.28-.58,.42-1.1l.4-1.46Zm-.75,3c-.25,.22-.73,.58-1.44,1.07-.63,.43-1.01,.73-1.15,.92-.14,.19-.21,.39-.21,.61s.09,.4,.28,.56c.18,.17,.41,.25,.67,.25,.25,0,.49-.06,.72-.18,.23-.12,.44-.3,.61-.53,.17-.23,.29-.5,.36-.79,.07-.3,.1-.68,.1-1.17,0-.1,.02-.35,.05-.74Zm2.63-.34c.14,0,.26,.05,.36,.16,.1,.11,.14,.24,.14,.41,0,.24-.06,.42-.17,.56-.11,.14-.26,.2-.43,.2-.14,0-.26-.05-.36-.15-.1-.1-.14-.23-.14-.39,0-.23,.07-.43,.2-.6,.1-.13,.23-.19,.4-.19"/></g><path id="path252" class="cls-12" d="M36.11,21.14V62.62h121.06V21.14H36.11Z"/><g id="g254"><path id="path256" class="cls-5" d="M54.82,41.12l-2.19,1.26,2.19-16.77v15.51Zm-12.74,.21l9.15,5.29-.5-2.52-8.65-2.77Zm4.89,15.01l7.85-7.06-2.54-.33s-5.31,7.39-5.31,7.39Zm15.74,0l-4.28-9.73-1.07,2.33s5.35,7.39,5.35,7.39Zm4.87-15.01l-10.49,1.05,1.84,1.71,8.65-2.77"/></g><g id="g258"><path id="path260" class="cls-5" d="M54.82,41.12l2.27,1.26h-4.46l2.19-1.26Zm-3.59,5.49l1.4-4.23-1.9,1.71s.5,2.52,.5,2.52Zm3.59,2.66l-2.54-.33-1.05-2.33,3.59,2.66Zm3.61-2.66l-3.61,2.66,2.54-.33,1.07-2.33Zm-1.34-4.23l1.34,4.23,.5-2.52-1.84-1.71"/></g><g id="g262"><path id="path264" class="cls-1" d="M54.84,41.08l2.27,1.26s.02,.08-.02,.08h-4.46s-.05-.06-.02-.08l2.19-1.26s.03,0,.04,0Zm2.09,1.26l-2.11-1.17-2.04,1.17h4.15"/></g><g id="g266"><path id="path268" class="cls-1" d="M51.24,46.45l1.3-3.94-1.77,1.59,.46,2.34Zm1.43-4.06l-1.4,4.23s-.07,.03-.08,0l-.5-2.52s0-.03,.01-.04l1.9-1.71s.08,0,.07,.04"/></g><g id="g270"><path id="path272" class="cls-1" d="M54.67,49.22l-3.34-2.48,.98,2.17,2.36,.31Zm-3.42-2.64l3.59,2.66s0,.08-.03,.07l-2.54-.33s-.03-.01-.03-.02l-1.05-2.33s.03-.07,.06-.05"/></g><g id="g274"><path id="path276" class="cls-1" d="M58.33,46.74l-3.36,2.48,2.36-.31,1-2.17Zm-3.53,2.5l3.61-2.66s.08,.01,.06,.05l-1.07,2.33s-.02,.02-.03,.02l-2.54,.33s-.06-.05-.03-.07"/></g><g id="g278"><path id="path280" class="cls-1" d="M57.18,42.52l1.25,3.93,.46-2.34-1.71-1.59Zm1.22,4.11l-1.34-4.23s.04-.07,.07-.04l1.84,1.71s.01,.03,.01,.04l-.5,2.52s-.07,.04-.08,0"/></g><g id="g282"><path id="path284" class="cls-1" d="M54.84,41.08l2.27,1.26s.02,.09-.02,.09h-4.46s-.07-.07-.02-.09l2.19-1.26s.04,0,.05,0Zm2.06,1.25l-2.08-1.15-2,1.15h4.08"/></g><g id="g286"><path id="path288" class="cls-1" d="M51.24,46.42l1.29-3.88-1.74,1.57,.45,2.31Zm1.44-4.02l-1.4,4.23s-.09,.04-.1,0l-.5-2.52s0-.04,.02-.05l1.9-1.71s.09,0,.08,.05"/></g><g id="g290"><path id="path292" class="cls-1" d="M54.64,49.2l-3.29-2.44,.96,2.14,2.32,.3Zm-3.38-2.63l3.59,2.66s0,.09-.04,.09l-2.54-.33s-.03-.02-.04-.03l-1.05-2.33s.04-.09,.07-.06"/></g><g id="g294"><path id="path296" class="cls-1" d="M58.31,46.77l-3.31,2.44,2.32-.3,.98-2.13Zm-3.52,2.47l3.61-2.66s.09,.02,.07,.06l-1.07,2.33s-.03,.03-.04,.03l-2.54,.33s-.07-.06-.04-.09"/></g><g id="g298"><path id="path300" class="cls-1" d="M57.2,42.54l1.23,3.87,.45-2.3-1.68-1.57Zm1.19,4.08l-1.34-4.23s.05-.08,.08-.05l1.84,1.71s.02,.03,.01,.05l-.5,2.52s-.08,.05-.1,0"/></g><g id="g302"><path id="path304" class="cls-2" d="M54.82,25.61l2.27,16.77-2.27-1.26v-15.51Zm-4.09,18.48l1.9-1.71-10.55-1.05s8.65,2.77,8.65,2.77Zm1.55,4.85l-1.05-2.33-4.25,9.73s5.31-7.39,5.31-7.39Zm5.08,0l-2.54,.33,7.89,7.06s-5.35-7.39-5.35-7.39Zm1.57-4.85l-.5,2.52,9.15-5.29-8.65,2.77"/></g><g id="g306"><path id="path308" class="cls-15" d="M57.17,42.28l10.41-1.05c.08,0,.13,.12,.05,.17l-9.08,5.25,4.24,9.65c.03,.08-.08,.16-.14,.1l-7.83-7.01-7.79,7.01c-.06,.06-.18-.02-.14-.1l4.22-9.65-9.08-5.25c-.07-.04-.03-.18,.05-.17l10.47,1.05,2.18-16.68c.01-.09,.17-.09,.18,0l2.26,16.68Zm10.01-.82l-10.08,1.01s-.09-.03-.1-.08l-2.18-16.1-2.1,16.1s-.05,.08-.1,.08l-10.14-1.01,8.79,5.08s.05,.08,.04,.11l-4.09,9.35,7.54-6.79s.09-.03,.12,0l7.58,6.79-4.11-9.35s0-.09,.04-.11l8.79-5.08"/></g><g id="g310"><path id="path312" class="cls-6" d="M54.82,49.28l3.61-2.66-1.34-4.23h-4.46l-1.4,4.23,3.59,2.66"/></g><g id="g314"><path id="path316" class="cls-10" d="M54.82,49.19l3.54-2.61-1.31-4.14h-4.36l-1.37,4.14,3.51,2.61Zm3.65-2.53l-3.61,2.66-.04,.03-.04-.03-3.63-2.69,1.42-4.28v-.05h4.58v.05s1.36,4.23,1.36,4.23v.05s-.02,.03-.02,.03"/></g><g id="g318"><path id="path320" class="cls-4" d="M52.01,45.44c0-1.55,1.26-2.79,2.79-2.79s2.79,1.24,2.79,2.79-1.24,2.81-2.79,2.81-2.79-1.28-2.79-2.81"/></g><g id="g322"><path id="path324" class="cls-15" d="M51.98,45.44h0c0-.78,.32-1.49,.83-2,.51-.51,1.22-.82,1.99-.82h0c.78,0,1.49,.31,2,.82,.51,.51,.82,1.21,.82,2h0c0,.77-.31,1.48-.82,2-.51,.52-1.21,.84-2,.84h0c-.77,0-1.48-.32-1.99-.84-.51-.52-.83-1.23-.83-2h0Zm.06,0h0c0,.76,.31,1.45,.81,1.96,.5,.51,1.19,.82,1.95,.82h0c.76,0,1.45-.32,1.95-.82,.5-.51,.8-1.2,.8-1.96h0c0-.77-.31-1.46-.8-1.95-.5-.5-1.19-.8-1.95-.8h0c-.76,0-1.44,.31-1.94,.8-.5,.5-.81,1.19-.81,1.95"/></g><g id="g326"><path id="path328" class="cls-4" d="M54.8,43.04h.1l.19,.06,.14,.27-.08,.29,.1,.27,.33,.37-.19,.27,.27,.7,.33-.06,.35,.37,.04,.68-.17,.5v.06h.29l.12,.17-.04,.14-.37,.37-.41-.04-.02,.25-.21,.04-.15-.15-.19,.15-.21-.04-.08-.25-.08,.25h-.29l-.14-.21-.41,.16-.23-.21h-.35l-.39-.16-.21-.31,.1-.21,.23,.04,.29-.5,.43-.21-.78-2.68,.06-.06,.14-.08h.21l.52,1.14,.45-.89v-.39l.29-.1"/></g><g id="g330"><g class="cls-11"><g id="g332"><g id="g338"><g class="cls-9"><g id="g340"><g id="g346"><g class="cls-7"><g id="g348"><g id="g354"><g id="g356"><g class="cls-14"><rect id="rect362" class="cls-15" x="52.9" y="43.06" width="3.71" height="4.68"/></g></g></g></g></g></g></g></g></g></g></g></g><path id="path364" class="cls-8" d="M36.11,62.53v7.25h121.06v-7.25H36.11Z"/><g id="g366"><path id="path368" class="cls-4" d="M76.4,38.18c-.61,.3-1.24,.45-1.8,.45-1.32,0-2.4-1.08-2.4-2.4s1.14-2.53,2.55-2.53c.41-.02,.69,.03,.83,.12l.23,1.12c-.3-.15-.56-.22-.76-.22-.23-.02-.5,.07-.74,.22l2.1,1.74v-3.61h-4.85v-1.21h7.53v1.21h-1.32v7.06h-1.36v-1.95Zm-.45-.98l-2.18-1.89c-.2,.22-.3,.55-.3,.91,.02,.71,.64,1.27,1.42,1.27,.45,.02,.83-.1,1.06-.3"/></g><g id="g370"><path id="path372" class="cls-4" d="M71.75,29.78l.63-.91,4.02,2.84-1.9-3.57,.91-.4,1.74,4.12h-1.42l-3.97-2.08Zm5.61,.1v-1.65h1.65v1.65s-1.65,0-1.65,0Z"/></g><g id="g374"><path id="path376" class="cls-4" d="M83.11,37.95c-.43,.36-.91,.56-1.36,.56-1.29,0-2.33-1.06-2.33-2.37-.02-1.37,1.06-2.48,2.38-2.48,.18,0,.38,.03,.56,.1l.22,1.14c-.13-.02-.33-.03-.6-.03-.66-.01-1.21,.56-1.21,1.27-.02,.63,.43,1.13,.98,1.13,.46,.02,.96-.27,1.36-.74v-3.46h-4.33v-1.21h9.92v1.21h-4.23v1.42c.28-.36,.84-.56,1.51-.56,1.12,.02,2.03,.89,2.03,1.98-.02,1.23-.61,2.43-1.65,3.31l-.98-.89c.76-.63,1.19-1.49,1.19-2.33,.02-.5-.36-.91-.83-.91s-.92,.38-1.27,.99v4.05h-1.36v-2.18"/></g><g id="g378"><path id="path380" class="cls-4" d="M99.16,36.59c-.33,.15-.56,.23-.68,.23-.17,0-.46-.13-.89-.38,.2,.23,.3,.58,.3,.98,0,1.17-.98,2.13-2.18,2.13-1.44,0-2.88-1.32-3.61-3.31l1.03-.48c.58,1.57,1.57,2.63,2.5,2.63,.56,.02,1.02-.56,1.02-1.27,0-.81-.99-1.36-2-1.09l-.3-1.01c.96-.16,1.65-.68,1.65-1.21,0-.5-.33-.89-.74-.89-.61,.02-1.31,.38-1.97,1.04l-.66-.86c.69-.83,1.65-1.31,2.63-1.31,1.16,.02,2.1,.91,2.1,2.02-.02,.41-.22,.89-.6,1.36,.56,.38,1.11,.6,1.57,.6,.21,0,.5-.1,.83-.3v-2.4h-1.21v-1.21h3.89v1.21h-1.32v7.06h-1.36v-3.54"/></g><g id="g382"><path id="path384" class="cls-4" d="M102.83,33.07h-1.32v-1.21h3.99v1.21h-1.32v7.06h-1.34v-7.06"/></g><g id="g386"><path id="path388" class="cls-4" d="M100.65,28.39h1.36c.15,.78,.78,1.36,1.51,1.36,.73-.02,1.36-.58,1.49-1.36h1.36c-.23,1.39-1.44,2.4-2.84,2.4s-2.61-1.01-2.86-2.4"/></g><g id="g390"><path id="path392" class="cls-4" d="M106.55,39.99l.83-.76,.83,.76-.83,.74-.83-.74"/></g><g id="g394"><path id="path396" class="cls-4" d="M109.5,37.35c-.3,.33-.73,.53-1.21,.53-.65,.02-1.24-.21-1.64-.61-.4-.4-.61-.99-.61-1.66v-2.55h-.81v-1.21h10.12v1.21h-4.52v1.57c.35-.46,.93-.74,1.59-.74,1.21,0,2.18,1.11,2.18,2.48,.01,.93-.41,2.03-1.21,3.16l-1.21-.76c.73-.73,1.12-1.59,1.12-2.4,.02-.63-.5-1.12-1.12-1.12-.41,0-.93,.36-1.36,.97v3.91h-1.34v-2.78Zm0-1.65v-2.63h-2.12v2.55c.02,.58,.41,1.06,.91,1.06,.4,.02,.86-.36,1.21-.98"/></g><g id="g398"><path id="path400" class="cls-4" d="M121.11,40.35c-1.16,.02-2.08-.6-2.08-1.34,0-.5,.43-.91,.96-.91,.31,0,.83,.35,1.57,.98,.96-.02,1.74-.64,1.74-1.42,.02-.28-.23-.5-.53-.5-.12,0-.23,.05-.61,.12-.56,.1-.74,.15-.89,.15-.33-.02-.81-.38-1.31-1.01-.5-.65-.78-1.24-.78-1.69,.02-.41,.4-.76,.88-.76h2.42v-.89h-4.14v-1.21h6.97v1.21h-1.49v1.95h-2.85c-.23,0-.41,.13-.41,.3,.02,.13,.16,.35,.43,.56,.3,.23,.55,.35,.73,.35,.25,0,.5-.05,.76-.15,.28-.12,.64-.17,1.04-.17,.58,.02,1.06,.68,1.06,1.51,0,1.29-.83,2.37-1.95,2.56,.41,.41,.96,.81,1.65,1.21l-.68,1.07c-1.11-.63-1.95-1.29-2.48-1.92"/></g><path id="path402" class="cls-3" d="M122.47,28.7v1.65h1.65v-1.65h-1.65Z"/><g id="g404"><path id="path406" class="cls-4" d="M126.32,33.07h-1.32v-1.21h1.17c-.12-.31-.17-.61-.17-.91,.02-1.41,1.39-2.55,3.09-2.55,1.8,.02,3.56,1.32,4.52,3.37h-1.36c-.79-1.34-1.98-2.17-3.16-2.17-.96-.02-1.74,.6-1.74,1.34,0,.35,.05,.65,.15,.91h1.47v1.21h-1.32v7.06h-1.34v-7.06"/></g><g id="g408"><path id="path410" class="cls-4" d="M129.02,36.38l1.12-.53c.68,1.85,2.15,3.08,3.69,3.08,.78-.01,1.41-.64,1.41-1.42,0-.21-.23-.38-.51-.38-.12,0-.23,.05-.6,.15-.36,.1-.61,.15-.74,.15-.38,0-.91-.35-1.46-.96-.56-.63-.88-1.19-.88-1.59-.02-.5,.5-.91,1.12-.91h2.4v-.89h-5.92v-1.21h8.64v1.21h-1.36v1.95h-3.23c.17-.02-.3,.1-.3,.23,.02,.17,.21,.4,.56,.63,.38,.25,.69,.38,.92,.38,.12-.02,.25-.12,.68-.26,.15-.05,.43-.08,.83-.08,.63,0,1.14,.71,1.14,1.59,.02,1.42-1.21,2.58-2.71,2.58-1.87,.02-3.76-1.44-4.81-3.71"/></g><g id="g412"><path id="path414" class="cls-4" d="M142.39,38.18c-.38,.38-1.03,.59-1.8,.59-1.74-.02-3.16-1.56-3.16-3.46,.38,.1,.63,.15,.76,.15,.71-.02,1.27-.55,1.27-1.21,0-.45-.22-.88-.6-1.19h-1.9v-1.21h8.11v1.21h-1.32v7.06h-1.36v-1.95Zm0-1.66v-3.46h-2.1c.33,.56,.5,.98,.5,1.19,0,1.09-.78,2-1.85,2.18,.25,.68,.91,1.13,1.65,1.13,.58,0,1.24-.38,1.8-1.04"/></g><g id="g416"><path id="path418" class="cls-4" d="M146.06,33.07h-1.32v-1.21h3.99v1.21h-1.32v7.06h-1.34v-7.06"/></g><g id="g420"><path id="path422" class="cls-4" d="M75.61,47.29c.42,0,.8,.04,1.15,.11,.35,.07,.64,.2,.89,.36,.25,.17,.44,.39,.57,.67,.14,.28,.2,.63,.2,1.04,0,.44-.1,.82-.3,1.11-.2,.3-.5,.54-.9,.73,.54,.16,.94,.43,1.21,.82,.27,.39,.4,.86,.4,1.41,0,.44-.09,.83-.26,1.15-.17,.33-.4,.59-.7,.8-.29,.21-.62,.36-1,.46-.37,.1-.76,.15-1.15,.15h-4.26v-8.81h4.15Zm-.25,3.57c.35,0,.63-.08,.85-.25,.22-.16,.33-.43,.33-.81,0-.21-.04-.38-.11-.51-.07-.13-.17-.24-.3-.31s-.26-.13-.43-.16c-.16-.03-.33-.04-.5-.04h-1.81v2.07s1.96,0,1.96,0Zm.11,3.74c.19,0,.37-.02,.54-.06,.17-.04,.32-.1,.46-.19,.13-.09,.23-.2,.31-.35,.08-.15,.12-.34,.12-.57,0-.45-.13-.78-.38-.97-.25-.19-.59-.29-1.01-.29h-2.11v2.42h2.07"/></g><g id="g424"><path id="path426" class="cls-4" d="M80.32,50.66c.18-.27,.41-.49,.69-.65,.28-.16,.59-.28,.94-.35,.35-.07,.7-.1,1.05-.1,.32,0,.65,.02,.97,.07,.33,.04,.63,.13,.9,.27,.27,.13,.49,.31,.67,.55,.17,.23,.26,.54,.26,.93v3.32c0,.29,.02,.56,.05,.83,.03,.26,.09,.46,.17,.59h-1.77c-.03-.1-.06-.2-.08-.3-.02-.1-.03-.21-.04-.32-.28,.29-.61,.49-.99,.61-.38,.12-.76,.17-1.16,.17-.3,0-.59-.04-.85-.11-.26-.07-.49-.19-.69-.35-.2-.16-.35-.35-.46-.59-.11-.24-.17-.52-.17-.85,0-.36,.06-.66,.19-.89,.13-.23,.29-.42,.49-.56,.2-.14,.43-.24,.69-.31,.26-.07,.52-.13,.78-.17,.26-.04,.52-.07,.78-.1,.25-.02,.48-.06,.68-.11,.2-.05,.35-.12,.47-.22,.12-.09,.17-.23,.16-.41,0-.19-.03-.34-.09-.45-.06-.11-.15-.2-.25-.26-.1-.06-.22-.1-.36-.12-.14-.02-.28-.03-.44-.03-.35,0-.62,.07-.82,.22-.2,.15-.31,.39-.35,.73h-1.75c.02-.41,.13-.75,.31-1.02Zm3.47,2.48c-.11,.04-.23,.07-.36,.09-.13,.02-.26,.04-.4,.06-.14,.02-.28,.04-.42,.06-.13,.03-.26,.06-.39,.1-.13,.04-.24,.1-.33,.17-.1,.07-.17,.16-.23,.27-.06,.11-.09,.24-.09,.41,0,.16,.03,.29,.09,.39,.06,.11,.14,.19,.23,.25,.1,.06,.21,.1,.35,.13,.13,.02,.27,.04,.41,.04,.35,0,.61-.06,.8-.17,.19-.12,.33-.25,.42-.41,.09-.16,.15-.32,.17-.49,.02-.16,.03-.3,.03-.39v-.65c-.07,.06-.17,.12-.28,.15"/></g><g id="g428"><path id="path430" class="cls-4" d="M88.96,49.72v.89h.04c.22-.37,.51-.64,.86-.81,.35-.17,.72-.25,1.09-.25,.47,0,.85,.06,1.15,.19,.3,.13,.54,.3,.71,.53,.17,.23,.3,.5,.36,.83,.07,.33,.1,.68,.1,1.08v3.92h-1.75v-3.6c0-.53-.08-.92-.25-1.18-.16-.26-.46-.39-.88-.39-.48,0-.82,.14-1.04,.43-.21,.28-.32,.75-.32,1.4v3.34h-1.75v-6.38h1.66"/></g><g id="g432"><path id="path434" class="cls-4" d="M96.64,47.29v4.73l2.21-2.29h2.07l-2.41,2.34,2.68,4.04h-2.12l-1.75-2.85-.68,.65v2.2h-1.75v-8.81h1.75"/></g><g id="g436"><path id="path438" class="cls-4" d="M105.53,51.53c.16-.42,.38-.77,.67-1.06,.29-.29,.63-.52,1.04-.68,.4-.16,.85-.24,1.36-.24s.95,.08,1.36,.24,.75,.39,1.04,.68c.29,.29,.51,.64,.66,1.06,.16,.42,.23,.88,.23,1.39s-.08,.97-.23,1.38c-.16,.41-.38,.76-.66,1.05-.29,.29-.64,.52-1.04,.67-.41,.16-.86,.24-1.36,.24s-.95-.08-1.36-.24c-.4-.16-.75-.38-1.04-.67-.29-.29-.51-.64-.67-1.05-.16-.41-.23-.87-.23-1.38s.08-.97,.23-1.39Zm1.59,2.13c.05,.24,.13,.46,.25,.65,.12,.19,.28,.35,.48,.46,.2,.11,.45,.17,.74,.17s.55-.06,.75-.17c.2-.12,.36-.27,.48-.46,.12-.19,.2-.41,.25-.65,.05-.24,.07-.49,.07-.75s-.02-.51-.07-.75c-.05-.25-.13-.46-.25-.65-.12-.19-.28-.34-.48-.46-.2-.12-.45-.18-.75-.18s-.54,.06-.74,.18c-.2,.12-.36,.27-.48,.46-.12,.19-.2,.41-.25,.65-.05,.25-.07,.5-.07,.75s.02,.5,.07,.75"/></g><g id="g440"><path id="path442" class="cls-4" d="M112.5,50.9v-1.17h1.05v-.49c0-.57,.18-1.04,.53-1.4,.35-.36,.89-.54,1.6-.54,.16,0,.31,0,.47,.02,.16,.01,.31,.02,.46,.03v1.32c-.21-.03-.42-.04-.64-.04-.24,0-.41,.06-.51,.17-.1,.11-.16,.3-.16,.56v.38h1.21v1.17h-1.21v5.2h-1.75v-5.2s-1.05,0-1.05,0"/></g><path id="path444" class="cls-3" d="M121.12,47.29v8.81h1.94v-8.81h-1.94Z"/><g id="g446"><path id="path448" class="cls-4" d="M126.36,49.72v.89h.04c.22-.37,.51-.64,.86-.81,.35-.17,.72-.25,1.09-.25,.47,0,.85,.06,1.15,.19,.3,.13,.54,.3,.71,.53,.17,.23,.29,.5,.36,.83,.07,.33,.1,.68,.1,1.08v3.92h-1.75v-3.6c0-.53-.08-.92-.25-1.18-.16-.26-.46-.39-.88-.39-.48,0-.82,.14-1.04,.43-.22,.28-.32,.75-.32,1.4v3.34h-1.75v-6.38h1.66"/></g><g id="g450"><path id="path452" class="cls-4" d="M136.67,55.29c-.21,.35-.48,.6-.81,.75-.33,.15-.71,.23-1.13,.23-.48,0-.9-.09-1.26-.28-.36-.18-.66-.44-.89-.75-.23-.32-.41-.68-.53-1.09-.12-.41-.18-.84-.18-1.28s.06-.84,.18-1.24c.12-.4,.3-.75,.53-1.05,.23-.3,.53-.55,.88-.73,.35-.19,.76-.28,1.23-.28,.38,0,.74,.08,1.08,.24,.34,.16,.61,.4,.81,.71h.03v-3.21h1.75v8.81h-1.66v-.82h-.02Zm-.07-3.15c-.05-.24-.13-.46-.25-.64-.12-.18-.27-.33-.46-.45s-.43-.17-.72-.17-.53,.06-.73,.17c-.2,.12-.36,.27-.48,.46-.12,.19-.21,.4-.26,.65-.05,.24-.08,.5-.08,.76,0,.25,.03,.49,.09,.74s.15,.47,.28,.66c.13,.19,.29,.35,.48,.47,.19,.12,.43,.18,.7,.18,.29,0,.53-.06,.72-.17,.19-.12,.35-.27,.46-.46,.12-.19,.2-.41,.25-.66,.05-.25,.07-.5,.07-.77s-.02-.51-.07-.76"/></g><g id="g454"><path id="path456" class="cls-4" d="M139.85,48.73v-1.44h1.75v1.44h-1.75Zm1.75,1v6.38h-1.75v-6.38s1.75,0,1.75,0Z"/></g><g id="g458"><path id="path460" class="cls-4" d="M143.33,50.66c.18-.27,.41-.49,.69-.65,.28-.16,.59-.28,.94-.35,.35-.07,.7-.1,1.05-.1,.32,0,.65,.02,.98,.07,.33,.04,.63,.13,.9,.27,.27,.13,.49,.31,.67,.55,.17,.23,.26,.54,.26,.93v3.32c0,.29,.02,.56,.05,.83,.03,.26,.09,.46,.17,.59h-1.77c-.03-.1-.06-.2-.08-.3-.02-.1-.03-.21-.04-.32-.28,.29-.61,.49-.99,.61-.38,.12-.76,.17-1.16,.17-.3,0-.59-.04-.85-.11-.26-.07-.49-.19-.69-.35-.2-.16-.35-.35-.46-.59-.11-.24-.17-.52-.17-.85,0-.36,.06-.66,.19-.89,.13-.23,.29-.42,.49-.56,.2-.14,.43-.24,.69-.31,.26-.07,.52-.13,.78-.17,.26-.04,.52-.07,.78-.1,.26-.02,.48-.06,.68-.11,.2-.05,.35-.12,.47-.22,.12-.09,.17-.23,.16-.41,0-.19-.03-.34-.09-.45-.06-.11-.15-.2-.25-.26-.1-.06-.22-.1-.36-.12-.14-.02-.28-.03-.44-.03-.35,0-.62,.07-.82,.22-.2,.15-.31,.39-.35,.73h-1.75c.02-.41,.13-.75,.31-1.02Zm3.47,2.48c-.11,.04-.23,.07-.36,.09-.13,.02-.26,.04-.4,.06-.14,.02-.28,.04-.42,.06-.13,.03-.26,.06-.39,.1-.13,.04-.24,.1-.33,.17-.09,.07-.17,.16-.23,.27-.06,.11-.09,.24-.09,.41,0,.16,.03,.29,.09,.39,.06,.11,.14,.19,.23,.25,.1,.06,.21,.1,.35,.13,.13,.02,.27,.04,.41,.04,.35,0,.61-.06,.8-.17,.19-.12,.33-.25,.42-.41,.09-.16,.15-.32,.17-.49,.02-.16,.03-.3,.03-.39v-.65c-.07,.06-.17,.12-.28,.15"/></g></g></svg>