<?xml version="1.0" encoding="UTF-8"?><svg id="Layer_1" xmlns="http://www.w3.org/2000/svg" xmlns:xlink="http://www.w3.org/1999/xlink" viewBox="0 0 193.28 106.83"><defs><style>.cls-1{fill:#fff;}.cls-2{fill:#004a7f;}.cls-3{fill:#f06321;}.cls-4{fill:none;}.cls-5{fill:#ae282e;}</style><clipPath id="clippath"><polyline class="cls-4" points="266.18 159.35 266.18 164.03 269.89 164.03 269.89 159.35 266.18 159.35"/></clipPath><clipPath id="clippath-1"><polyline class="cls-4" points="266.18 163.37 266.18 163.21 266.24 163.06 266.47 163.11 266.76 162.61 267.19 162.4 266.4 159.72 266.47 159.66 266.61 159.57 266.82 159.57 267.33 160.71 267.79 159.82 267.79 159.43 268.04 159.35 268.22 159.35 268.37 159.39 268.51 159.66 268.43 159.95 268.53 160.21 268.86 160.59 268.68 160.85 268.94 161.56 269.28 161.49 269.63 161.87 269.67 162.55 269.5 163.04 269.5 163.11 269.79 163.11 269.91 163.27 269.87 163.41 269.5 163.79 269.09 163.75 269.07 163.99 268.86 164.03 268.72 163.89 268.53 164.03 268.33 163.99 268.24 163.75 268.16 163.99 267.87 163.99 267.73 163.79 267.31 163.95 267.09 163.75 266.73 163.75 266.34 163.58 266.18 163.37"/></clipPath></defs><g id="layer1"><g id="g651"><path id="path150" class="cls-2" d="M46.26,68.8h5.35l4.2-15.64h-5.3l-4.25,15.64Z"/><path id="path152" class="cls-2" d="M73.7,68.8h5.35l4.2-15.64h-5.35l-4.2,15.64Z"/><path id="path154" class="cls-2" d="M101.19,68.8h5.3l4.15-15.64h-5.35l-4.09,15.64Z"/><path id="path156" class="cls-2" d="M68.72,58.51h5.35c.73-3.51-1.52-5.3-6.77-5.3-6.09,0-10.18,2.99-11.59,8.08-1.21,4.72,1.26,7.56,6.98,7.56s9.18-1.78,10.6-5.82h-5.35c-.79,1.78-2.15,2.67-4.04,2.67-2.57,0-3.62-1.57-2.83-4.56,.84-3.1,2.83-4.83,5.4-4.83,1.68,0,2.41,.73,2.26,2.2"/><path id="path158" class="cls-2" d="M96.21,58.51h5.35c.73-3.51-1.58-5.3-6.82-5.3-6.03,0-10.18,2.99-11.54,8.08-1.26,4.72,1.21,7.56,6.93,7.56s9.13-1.78,10.6-5.82h-5.35c-.74,1.78-2.15,2.67-4.04,2.67-2.57,0-3.62-1.57-2.78-4.56,.79-3.1,2.78-4.83,5.35-4.83,1.68,0,2.47,.73,2.31,2.2"/><path id="path160" class="cls-3" d="M25.64,44.5c7.14-7.08,15.79-8.92,19.26-4.09,3.46,4.83,.42,14.59-6.72,21.67-7.14,7.14-15.79,8.97-19.31,4.09-3.41-4.88-.36-14.59,6.77-21.67"/><path id="path162" class="cls-5" d="M30.36,40.72c-.79,.58-1.57,1.26-2.36,2-6.24,6.19-8.87,14.69-5.77,18.94,3.2,4.25,10.86,2.67,17.26-3.57,3.46-3.36,5.77-7.24,6.72-10.86,.26-2.67-.1-5.04-1.31-6.82-2.73-3.78-8.6-3.46-14.53,.31"/><path id="path164" class="cls-1" d="M39.39,41.51v.16c-.05,.89-.58,1.99-1.52,2.94-1.42,1.36-3.3,1.89-4.09,1.1-.89-.84-.36-2.68,1.05-4.15,1.47-1.42,3.36-1.89,4.14-1.05,.26,.26,.42,.58,.42,1m-5.45,24.08c-3.36,2.52-6.82,3.78-10.18,3.25,1.42,.05,2.57-1.52,3.52-3.62,.94-2.15,1.47-4.14,1.94-6.03,.68-2.99,.73-5.09,.37-5.56-.58-.74-1.84-.58-3.31,.26-.73,.42-1.68,.16-.57-1.21,1.15-1.36,5.61-4.62,7.19-5.14,1.79-.47,3.78,.21,3.1,2.15-.47,1.42-6.66,17.58-2.05,15.9"/><path id="path166" class="cls-2" d="M118.67,66.33l1.21-4.51h2.94v-2.41h-2.26l1.05-3.83h1.21v-2.36h-3.99l-4.14,15.64h8.13v-2.52h-4.14Zm4.14-4.51h.58c2.68,0,3.94,.47,3.41,2.31-.42,1.63-1.73,2.2-3.99,2.2v2.52c2.21,0,3.83-.21,5.46-1.31,1.1-.73,1.89-1.84,2.21-3.09,.57-2.15-.37-3.62-2.83-3.93,2.31-.42,3.78-1.63,4.25-3.52,.42-1.42,.05-2.47-.94-3.15-.84-.58-2.26-.63-4.14-.63h-3.99v2.36h2.05c2.52,0,3.67,.31,3.3,1.89-.47,1.52-1.84,1.94-4.41,1.94h-.95v2.41Z"/><path id="path168" class="cls-2" d="M137.5,57.88v1.94c-.42,.21-.79,.58-.94,1.1h-3.15c.52-1.52,1.94-2.57,4.09-3.04m0,9.18c-.37,.1-.79,.16-1.21,.16-1.42,0-2.05-.58-1.73-1.63,.31-1.21,1.26-1.63,2.94-1.78v-1.84c-3.62,.26-5.61,1.21-6.24,3.57-.58,2.15,.79,3.57,3.62,3.57,.94,0,1.84-.16,2.62-.47v-1.57Zm3.04-3.25l-.05,.16c-.42,1.63-1.52,2.73-2.99,3.1v1.57c.79-.32,1.47-.73,2.1-1.31l-.26,1.52h3.15c.16-.74,.31-1.58,.52-2.42l1.21-4.41c.1-.37,.16-.73,.16-1.1v-.52c-.1-1.79-1.63-2.73-4.46-2.73-.89,0-1.68,.1-2.42,.21v1.94c.47-.26,1.05-.36,1.79-.36,1.62,0,2.26,.73,1.78,2.31l-.05,.16h-1.68c-.63,0-1.26,.05-1.84,.05v1.84h3.04Z"/><path id="path170" class="cls-2" d="M145.32,68.85h3.2l1.52-5.61c.52-1.99,2.36-3.41,4.3-3.41s2.57,1.1,1.94,3.31l-1.52,5.72h3.2l1.78-6.66c.73-2.83-.68-4.51-3.83-4.51-2.05,0-3.67,.73-5.09,2.2l.37-1.94h-3.2c-.31,1.73-.52,2.78-.63,3.2l-2.05,7.71Z"/><path id="path172" class="cls-2" d="M160.8,68.85h3.15l1.57-5.88,4.25,5.88h4.35l-4.83-6.24,6.51-4.67h-4.04l-6.03,4.36,2.41-9.08h-3.15l-4.2,15.64Z"/></g></g></svg>