<?xml version="1.0" encoding="UTF-8"?><svg id="Layer_1" xmlns="http://www.w3.org/2000/svg" xmlns:xlink="http://www.w3.org/1999/xlink" viewBox="0 0 193.28 106.83"><defs><style>.cls-1{fill:#005192;}.cls-2{fill:#fff;}.cls-3{fill:#c4261b;}.cls-4{fill:none;}</style><clipPath id="clippath"><polyline class="cls-4" points="-160.38 159.35 -160.38 164.03 -156.67 164.03 -156.67 159.35 -160.38 159.35"/></clipPath><clipPath id="clippath-1"><polyline class="cls-4" points="-160.38 163.37 -160.38 163.21 -160.32 163.06 -160.09 163.11 -159.8 162.61 -159.37 162.4 -160.15 159.72 -160.09 159.66 -159.95 159.57 -159.74 159.57 -159.22 160.71 -158.77 159.82 -158.77 159.43 -158.52 159.35 -158.33 159.35 -158.19 159.39 -158.05 159.66 -158.13 159.95 -158.02 160.21 -157.69 160.59 -157.88 160.85 -157.61 161.56 -157.28 161.49 -156.93 161.87 -156.89 162.55 -157.05 163.04 -157.05 163.11 -156.77 163.11 -156.64 163.27 -156.68 163.41 -157.05 163.79 -157.47 163.75 -157.49 163.99 -157.69 164.03 -157.84 163.89 -158.02 164.03 -158.23 163.99 -158.31 163.75 -158.4 163.99 -158.69 163.99 -158.83 163.79 -159.24 163.95 -159.47 163.75 -159.82 163.75 -160.21 163.58 -160.38 163.37"/></clipPath></defs><g id="g2998"><g id="gffffffff"><path id="path5" class="cls-2" d="M134.32,45.12c.35,.12,.6,.4,.84,.66,3.47,3.65,6.96,7.28,10.42,10.93,0-3.66,0-7.32,0-10.98,.94,0,1.87,.01,2.81-.02,.09,.33,.13,.67,.12,1.01-.02,5.56,0,11.13-.01,16.69-.07,.03-.21,.1-.28,.13-3.73-3.79-7.34-7.7-11.06-11.5-.04,3.65,.04,7.3-.04,10.95-.95-.04-1.89-.02-2.83-.02,0-5.95-.02-11.91,.01-17.86h0Z"/><path id="path7" class="cls-2" d="M59.98,45.57c2.18-.8,4.53-.22,6.66,.46,.03,1.36,.01,2.71,.01,4.06-1.31-.8-2.72-1.59-4.29-1.64-.79-.05-1.76,.43-1.78,1.32-.05,.65,.46,1.14,.95,1.48,1.9,1.19,4.1,2.02,5.56,3.79,1.77,2.43,.83,6.31-1.85,7.68-2.47,1.31-5.42,.78-7.97-.02-.15-1.53-.24-3.05-.3-4.59,1.48,.92,3.11,1.78,4.9,1.75,.76-.05,1.66-.28,2.03-1.02,.39-.66,.09-1.54-.49-1.98-1.67-1.34-3.83-1.99-5.3-3.58-.95-.99-1.43-2.41-1.3-3.78,.1-1.81,1.47-3.39,3.16-3.95Z"/><path id="path9" class="cls-2" d="M122.15,47.11c.34-.68,.59-1.42,1.05-2.03,2.77,5.94,5.45,11.93,8.16,17.9-1.04,0-2.08,0-3.11,.02-.49-1.01-.94-2.04-1.38-3.07-2.59-.01-5.19,0-7.78,0-.46,1.03-.91,2.06-1.41,3.07-1.01-.01-2.02,0-3.02,0,2.52-5.27,4.99-10.58,7.49-15.86m.7,4.32c-.88,1.99-1.73,4-2.64,5.98,1.86,.08,3.72,.02,5.58,.03-.89-2.11-1.82-4.2-2.71-6.31-.06,.07-.17,.22-.23,.3h0Z"/><path id="path11" class="cls-2" d="M24.13,45.74c1.61,0,3.22,.02,4.83-.01,1.26,1.8,2.39,3.67,3.63,5.48,1.3-1.84,2.61-3.67,3.95-5.47,1.42,.01,2.84,0,4.26,.01-2.15,3.01-4.46,5.92-6.56,8.96-.04,2.75,0,5.51-.01,8.26-1.35,0-2.69,0-4.04,0-.02-2.73,.04-5.47-.03-8.2-1.97-3.03-4.07-5.99-6.03-9.03Z"/><path id="path13" class="cls-2" d="M42.57,62.98c0-5.75-.01-11.49,.01-17.24,3.49,0,6.99,0,10.48,0,0,1.17-.01,2.35,.02,3.52-2.18,.09-4.38-.08-6.57,.07,0,1.03,0,2.07,0,3.1,1.87,0,3.75-.02,5.62,.01-.02,1.16,0,2.33,0,3.5-1.87,0-3.75,0-5.62,0,0,1.13,0,2.27,0,3.4,2.21,0,4.42-.02,6.63,0,0,1.21,.01,2.42,0,3.63-3.52-.01-7.05,0-10.57,0Z"/><path id="path15" class="cls-2" d="M101.56,45.74c2.18,.05,4.37-.11,6.54,.12,1.4,.16,2.93,.72,3.67,2.02,.78,1.43,.8,3.39-.28,4.68-.47,.58-1.17,.89-1.82,1.22,1.25,.34,2.37,1.25,2.77,2.52,.48,1.55,.34,3.39-.66,4.71-1.11,1.42-3.01,1.83-4.72,1.94-1.84,.05-3.67,.01-5.5,.03,.01-5.75,0-11.49,0-17.24m2.86,2.31c0,1.62,0,3.24,0,4.86,1.28-.04,2.7,.2,3.85-.51,1.37-.77,1.53-3.16,.08-3.93-1.21-.61-2.63-.39-3.94-.43m0,7.16c0,1.79,0,3.58,0,5.37,1.31-.05,2.71,.19,3.94-.37,1.64-.75,1.86-3.37,.41-4.41-1.28-.88-2.91-.5-4.36-.58h0Z"/><path id="path17" class="cls-2" d="M153.95,62.98c0-5.75-.04-11.5,.02-17.25,.96,.01,1.93,0,2.89,0,.04,2.57,0,5.15,.01,7.72,2.43-2.57,4.85-5.15,7.29-7.72,1.14,0,2.29,0,3.44,0-2.57,2.78-5.18,5.52-7.78,8.28,2.87,2.97,5.72,5.98,8.59,8.94-1.28,.03-2.56,0-3.84,.02-2.56-2.69-5.13-5.38-7.7-8.06-.01,2.68,0,5.36,0,8.05-.98,0-1.95,0-2.93,0h0Z"/></g><g id="gc4261bff"><path id="path20" class="cls-3" d="M102.19,27.58c.84-1.1,1.61-2.26,2.51-3.31-8.77,15.5-17.48,31.05-26.24,46.56-2.18,3.91-4.42,7.8-6.57,11.72-.19-.1-.36-.23-.51-.38-3.08-3.14-6.18-6.26-9.26-9.39,2.19-.02,4.38,0,6.57-.01,11.17-15.06,22.34-30.13,33.51-45.19Z"/></g><g id="g005192ff"><path id="path23" class="cls-1" d="M15.61,37.1c26.18-.04,52.36,0,78.54-.02-8.71,11.5-17.35,23.05-26.1,34.52-17.47-.01-34.95,0-52.42,0-.04-11.5,0-23-.02-34.5m44.37,8.47c-1.7,.56-3.06,2.13-3.16,3.95-.13,1.37,.35,2.78,1.3,3.78,1.47,1.6,3.63,2.25,5.3,3.58,.58,.44,.88,1.32,.49,1.98-.37,.74-1.27,.97-2.03,1.02-1.79,.03-3.42-.83-4.9-1.75,.06,1.53,.16,3.06,.3,4.59,2.55,.79,5.5,1.33,7.97,.02,2.68-1.37,3.62-5.25,1.85-7.68-1.46-1.77-3.66-2.61-5.56-3.79-.49-.33-1.01-.83-.95-1.48,.01-.89,.99-1.37,1.78-1.32,1.57,.04,2.98,.84,4.29,1.64,0-1.36,.01-2.71-.01-4.06-2.13-.69-4.48-1.26-6.66-.46m-35.85,.17c1.96,3.04,4.06,6,6.03,9.03,.07,2.73,0,5.47,.03,8.2,1.35,0,2.69,0,4.04,0,0-2.75-.03-5.51,.01-8.26,2.09-3.05,4.41-5.95,6.56-8.96-1.42-.02-2.84,0-4.26-.01-1.34,1.8-2.65,3.64-3.95,5.47-1.24-1.81-2.38-3.69-3.63-5.48-1.61,.03-3.22,0-4.83,.01m18.43,17.24c3.52,0,7.05,0,10.57,0,.02-1.21,0-2.42,0-3.63-2.21-.03-4.42,0-6.63,0,0-1.13,0-2.27,0-3.4,1.87,0,3.75,0,5.62,0,0-1.17-.01-2.33,0-3.5-1.87-.04-3.75-.02-5.62-.01-.01-1.03,0-2.07,0-3.1,2.19-.15,4.39,.01,6.57-.07-.03-1.17,0-2.35-.02-3.52-3.49,0-6.99,0-10.48,0-.02,5.75,0,11.49-.01,17.24Z"/><path id="path25" class="cls-1" d="M92.72,47.12c1.89-3.34,3.65-6.75,5.6-10.04,26.44,.02,52.87,.03,79.31,0,.08,11.51,.02,23.02,.03,34.53-32.81-.02-65.61,0-98.42,0,4.46-8.18,9-16.31,13.48-24.48m41.6-2c-.04,5.95-.01,11.91-.01,17.86,.94,0,1.89-.03,2.83,.02,.08-3.65,0-7.3,.04-10.95,3.72,3.8,7.33,7.71,11.06,11.5,.07-.03,.21-.1,.28-.13,.02-5.56,0-11.13,.01-16.69,0-.34-.03-.68-.12-1.01-.94,.03-1.87,.01-2.81,.02-.02,3.66,0,7.32,0,10.98-3.46-3.66-6.95-7.28-10.42-10.93-.25-.26-.49-.54-.84-.66m-12.17,1.99c-2.51,5.29-4.97,10.59-7.49,15.86,1.01,0,2.01,0,3.02,0,.5-1.01,.95-2.04,1.41-3.07,2.59,0,5.19,0,7.78,0,.45,1.03,.9,2.06,1.38,3.07,1.04-.03,2.08,0,3.11-.02-2.72-5.97-5.39-11.96-8.16-17.9-.46,.62-.7,1.35-1.05,2.03m-20.59-1.37c-.01,5.75,0,11.49,0,17.24,1.83-.01,3.67,.02,5.5-.03,1.71-.11,3.61-.51,4.72-1.94,1-1.32,1.13-3.16,.66-4.71-.4-1.26-1.52-2.17-2.77-2.52,.65-.33,1.35-.64,1.82-1.22,1.08-1.29,1.07-3.25,.28-4.68-.73-1.29-2.26-1.85-3.67-2.02-2.17-.23-4.36-.07-6.54-.12m52.39,17.24c.98,0,1.95,0,2.93,0,.01-2.68,0-5.37,0-8.05,2.57,2.68,5.14,5.36,7.7,8.06,1.28-.02,2.56,0,3.84-.02-2.88-2.97-5.72-5.97-8.59-8.94,2.6-2.76,5.21-5.51,7.78-8.28-1.15,0-2.29,0-3.44,0-2.44,2.56-4.86,5.14-7.29,7.72-.01-2.57,.03-5.15-.01-7.72-.96,0-1.93,0-2.89,0-.07,5.75-.02,11.5-.02,17.25h0Z"/><path id="path27" class="cls-1" d="M104.43,48.05c1.31,.04,2.72-.18,3.94,.43,1.45,.77,1.29,3.16-.08,3.93-1.15,.71-2.57,.48-3.85,.51,0-1.62,0-3.24,0-4.86Z"/><path id="path29" class="cls-1" d="M122.85,51.43c.06-.07,.17-.22,.23-.3,.89,2.11,1.82,4.2,2.71,6.31-1.86-.01-3.72,.05-5.58-.03,.92-1.98,1.76-3.99,2.64-5.98h0Z"/><path id="path31" class="cls-1" d="M104.43,55.21c1.45,.08,3.08-.3,4.36,.58,1.45,1.04,1.23,3.66-.41,4.41-1.23,.56-2.63,.33-3.94,.37,0-1.79,0-3.58,0-5.37h0Z"/></g></g></svg>