<svg width="155" height="55" viewBox="0 0 155 55" fill="none" xmlns="http://www.w3.org/2000/svg">
<path fill-rule="evenodd" clip-rule="evenodd" d="M23.2929 18.988C20.6838 17.9441 11.0928 16.5074 11.0928 12.5283C11.0928 9.59129 14.6819 8.74382 16.8346 8.74382C18.7928 8.74382 21.1401 9.33123 22.3801 10.506C23.1638 11.2899 23.4892 11.8118 23.751 12.4647C24.0765 13.3121 24.2729 14.2269 25.5129 14.2269H31.9074C33.4075 14.2269 33.8002 13.9668 33.8002 12.3992C33.8002 3.7845 24.731 0 16.4455 0C8.29095 0.325529 0.590912 4.50285 0.590912 12.9866C0.590912 21.274 6.65822 23.8855 13.2473 25.9732C18.7928 27.7354 24.6001 27.8009 24.6001 31.4545C24.6001 35.108 21.7292 35.8919 18.2056 35.8919C15.791 35.8919 13.1164 35.3045 11.811 33.7386C10.9637 32.7602 10.6364 31.9109 10.571 31.0635C10.4401 29.4322 9.72369 29.2358 8.22186 29.2358H1.89274C0.39273 29.2358 0 29.5613 0 31.0635C0 40.2001 9.3946 44.8976 17.551 44.8976C27.5983 44.8976 34.9057 40.4602 34.9057 31.1926C34.9057 22.316 27.9911 20.4247 23.2929 18.988ZM114.568 0.976587H107.522C106.022 0.976587 105.37 1.173 104.521 2.9334L97.1478 16.9639L89.515 2.9334C88.6023 1.17118 87.9496 0.976587 86.4478 0.976587H78.9441C77.7041 0.976587 77.5732 2.08593 77.9004 2.80428L91.8641 27.7973V42.0242C91.8641 43.5245 92.5169 43.9173 93.7569 43.9173H100.281C101.455 43.9173 102.173 43.5263 102.173 42.0242V27.7973L115.613 2.80428C115.939 2.08593 115.808 0.976587 114.568 0.976587ZM154.823 42.0896C155.15 42.8716 155.15 43.9173 153.714 43.9173H146.863C145.428 43.9173 144.906 43.5263 144.383 41.9605L142.555 36.8048H126.573L124.746 41.9605C124.224 43.5263 123.703 43.9173 122.266 43.9173H115.415C113.981 43.9173 113.981 42.8735 114.306 42.0896L128.79 3.00069C129.312 1.63128 130.03 0.978407 131.464 0.978407H137.728C139.163 0.978407 139.815 1.63128 140.403 3.00069L154.823 42.0896ZM129.704 27.6682H139.492L134.599 13.2467L129.704 27.6682Z" fill="white"/>
<path fill-rule="evenodd" clip-rule="evenodd" d="M73.3272 25.1586C71.0472 24.8785 68.1962 24.6803 64.9944 24.7694L59.7871 15.5582V0.971191L63.8471 8.26559L73.3272 25.1586Z" fill="#F5873E"/>
<path fill-rule="evenodd" clip-rule="evenodd" d="M83.686 43.921H75.5677L66.6641 27.9264C69.1077 27.3426 71.6059 26.928 74.1259 26.7479C74.1259 26.7461 74.1259 26.7461 74.1277 26.7479L83.686 43.921Z" fill="#F5873E"/>
<path fill-rule="evenodd" clip-rule="evenodd" d="M53.4323 27.163L59.7868 15.9677V1.58984L55.725 8.7824L37.5776 40.9207L35.8867 43.8304C35.8994 43.8213 35.9267 43.7959 35.9704 43.7632C36.6794 43.183 41.674 39.1803 48.9141 35.2176C53.9686 32.4478 60.1178 29.6999 66.6651 28.1559C69.1087 27.5794 71.6069 27.1721 74.1269 26.9938C74.1269 26.992 74.1269 26.992 74.1287 26.9938C75.7579 26.8775 77.396 26.8575 79.0324 26.952C79.0324 26.9502 66.9814 23.6131 53.4323 27.163Z" fill="#F9B640"/>
<path fill-rule="evenodd" clip-rule="evenodd" d="M68.916 25.5969C66.7778 25.4805 64.756 25.5041 62.8541 25.6314C59.9123 25.6587 57.2323 26.1206 54.8032 26.8808C46.8286 28.8631 42.4377 32.3112 42.4377 32.3112L37.8213 40.4276C36.514 42.4389 35.8867 43.8302 35.8867 43.8302C60.8341 24.4857 79.0324 26.9499 79.0324 26.9499C75.8724 26.0388 72.0233 25.7024 68.916 25.5969Z" fill="#CD1F26"/>
<path d="M55.975 52.563H0.00195312V53.5159H55.975V52.563Z" fill="white"/>
<path fill-rule="evenodd" clip-rule="evenodd" d="M63.7117 54.9349L62.7808 53.6128C63.299 53.4309 63.6408 52.9908 63.6408 52.4289C63.6408 51.6796 63.0354 51.1504 62.2135 51.1504H60.5117V54.9367H61.319V53.7073H61.919L62.7845 54.9367H63.7117V54.9349ZM61.319 51.8924H62.1226C62.5245 51.8924 62.8008 52.1015 62.8008 52.4271C62.8008 52.7526 62.5245 52.9617 62.1226 52.9617H61.319V51.8924Z" fill="white"/>
<path fill-rule="evenodd" clip-rule="evenodd" d="M68.2974 51.8813V51.1484H65.3828V54.9348H68.2974V54.2019H66.1974V53.369H68.0992V52.636H66.1974V51.8813H68.2974Z" fill="white"/>
<path fill-rule="evenodd" clip-rule="evenodd" d="M70.8419 54.1999V51.1465H70.0273V54.9328H72.7274V54.1999H70.8419Z" fill="white"/>
<path fill-rule="evenodd" clip-rule="evenodd" d="M77.1619 54.9348H78.0765L76.5328 51.1484H75.6237L74.0801 54.9348H74.9892L75.231 54.3401H76.9165L77.1619 54.9348ZM75.5146 53.649L76.0764 52.2651L76.6383 53.649H75.5146Z" fill="white"/>
<path fill-rule="evenodd" clip-rule="evenodd" d="M80.2777 54.9348H81.094V51.8813H82.2722V51.1484H79.0977V51.8813H80.2777V54.9348Z" fill="white"/>
<path fill-rule="evenodd" clip-rule="evenodd" d="M83.9668 54.9348H84.7832V51.1484H83.9668V54.9348Z" fill="white"/>
<path fill-rule="evenodd" clip-rule="evenodd" d="M88.5383 55.0001C89.6346 55.0001 90.5492 54.1017 90.5492 53.0379C90.5492 51.974 89.6346 51.0811 88.5383 51.0811C87.4528 51.0811 86.5273 51.974 86.5273 53.0379C86.5273 54.1017 87.4528 55.0001 88.5383 55.0001ZM88.5383 54.2618C87.9055 54.2618 87.3655 53.6998 87.3655 53.0379C87.3655 52.3814 87.9055 51.8194 88.5383 51.8194C89.1783 51.8194 89.7183 52.3814 89.7183 53.0379C89.7164 53.6998 89.1764 54.2618 88.5383 54.2618Z" fill="white"/>
<path fill-rule="evenodd" clip-rule="evenodd" d="M92.3184 54.9348H93.1275V52.4869L94.9511 54.9348H95.7675V51.1484H94.9511V53.5963L93.1275 51.1484H92.3184V54.9348Z" fill="white"/>
<path fill-rule="evenodd" clip-rule="evenodd" d="M99.1193 55.0001C100.045 55.0001 100.59 54.52 100.59 53.798C100.59 53.0979 100.05 52.856 99.2339 52.6741C98.6502 52.5414 98.4248 52.4541 98.4248 52.1777C98.4248 51.9522 98.6339 51.7703 98.9812 51.7703C99.3448 51.7703 99.7248 51.9194 100.061 52.1886L100.485 51.6048C100.099 51.2738 99.6193 51.0811 99.003 51.0811C98.1757 51.0811 97.603 51.5612 97.603 52.2595C97.603 52.9924 98.1702 53.2179 98.9684 53.3998C99.5466 53.5325 99.7684 53.6144 99.7684 53.8853C99.7684 54.1218 99.5593 54.3091 99.1521 54.3091C98.6721 54.3091 98.2648 54.1218 97.9066 53.8126L97.4375 54.3691C97.8793 54.7801 98.463 55.0001 99.1193 55.0001Z" fill="white"/>
<path fill-rule="evenodd" clip-rule="evenodd" d="M104.847 51.1484V52.636H103.122V51.1484H102.312V54.9348H103.122V53.369H104.847V54.9348H105.658V51.1484H104.847Z" fill="white"/>
<path fill-rule="evenodd" clip-rule="evenodd" d="M107.555 54.9348H108.371V51.1484H107.555V54.9348Z" fill="white"/>
<path fill-rule="evenodd" clip-rule="evenodd" d="M110.262 54.9348H111.073V53.7054H111.965C112.787 53.7054 113.393 53.1762 113.393 52.4269C113.393 51.6777 112.787 51.1484 111.965 51.1484H110.262V54.9348ZM111.073 52.9616V51.8922H111.876C112.278 51.8922 112.554 52.1014 112.554 52.4269C112.554 52.7524 112.278 52.9616 111.876 52.9616H111.073Z" fill="white"/>
<path fill-rule="evenodd" clip-rule="evenodd" d="M116.469 55.0001C117.394 55.0001 117.94 54.52 117.94 53.798C117.94 53.0979 117.4 52.856 116.583 52.6741C116 52.5414 115.774 52.4541 115.774 52.1777C115.774 51.9522 115.983 51.7703 116.331 51.7703C116.694 51.7703 117.074 51.9194 117.411 52.1886L117.834 51.6048C117.449 51.2738 116.969 51.0811 116.353 51.0811C115.525 51.0811 114.953 51.5612 114.953 52.2595C114.953 52.9924 115.52 53.2179 116.318 53.3998C116.896 53.5325 117.118 53.6144 117.118 53.8853C117.118 54.1218 116.909 54.3091 116.502 54.3091C116.022 54.3091 115.614 54.1218 115.256 53.8126L114.787 54.3691C115.229 54.7801 115.813 55.0001 116.469 55.0001Z" fill="white"/>
<path fill-rule="evenodd" clip-rule="evenodd" d="M124.983 51.8813V51.1484H122.068V54.9348H122.885V53.4362H124.787V52.7033H122.883V51.8813H124.983Z" fill="white"/>
<path fill-rule="evenodd" clip-rule="evenodd" d="M128.562 55.0001C129.658 55.0001 130.573 54.1017 130.573 53.0379C130.573 51.974 129.658 51.0811 128.562 51.0811C127.476 51.0811 126.551 51.974 126.551 53.0379C126.549 54.1017 127.476 55.0001 128.562 55.0001ZM128.562 54.2618C127.929 54.2618 127.389 53.6998 127.389 53.0379C127.389 52.3814 127.929 51.8194 128.562 51.8194C129.202 51.8194 129.742 52.3814 129.742 53.0379C129.74 53.6998 129.2 54.2618 128.562 54.2618Z" fill="white"/>
<path fill-rule="evenodd" clip-rule="evenodd" d="M135.51 54.9349L134.58 53.6128C135.098 53.4309 135.44 52.9908 135.44 52.4289C135.44 51.6796 134.834 51.1504 134.012 51.1504H132.309V54.9367H133.12V53.7073H133.72L134.585 54.9367H135.51V54.9349ZM133.12 51.8924H133.923C134.325 51.8924 134.601 52.1015 134.601 52.4271C134.601 52.7526 134.325 52.9617 133.923 52.9617H133.12V51.8924Z" fill="white"/>
<path fill-rule="evenodd" clip-rule="evenodd" d="M140.098 51.8813V51.1484H137.184V54.9348H140.098V54.2019H137.998V53.369H139.9V52.636H137.998V51.8813H140.098Z" fill="white"/>
<path fill-rule="evenodd" clip-rule="evenodd" d="M144.632 51.1484L143.547 53.8163L142.461 51.1484H141.547L143.091 54.9348H144L145.543 51.1484H144.632Z" fill="white"/>
<path fill-rule="evenodd" clip-rule="evenodd" d="M150.043 51.8813V51.1484H147.129V54.9348H150.043V54.2019H147.945V53.369H149.847V52.636H147.945V51.8813H150.043Z" fill="white"/>
<path fill-rule="evenodd" clip-rule="evenodd" d="M154.999 54.9349L154.068 53.6128C154.586 53.4309 154.928 52.9908 154.928 52.4289C154.928 51.6796 154.322 51.1504 153.501 51.1504H151.797V54.9367H152.608V53.7073H153.208L154.073 54.9367H154.999V54.9349ZM152.608 51.8924H153.411C153.813 51.8924 154.09 52.1015 154.09 52.4271C154.09 52.7526 153.813 52.9617 153.411 52.9617H152.608V51.8924Z" fill="white"/>
</svg>
