<svg width="25" height="25" viewBox="0 0 25 25" fill="none" xmlns="http://www.w3.org/2000/svg">
<path d="M15.0163 5.33343C16.0744 5.53987 17.0469 6.05737 17.8092 6.81969C18.5715 7.58201 19.089 8.55446 19.2955 9.61259M15.0163 1.00009C17.2147 1.24431 19.2647 2.22878 20.8297 3.79185C22.3948 5.35492 23.3818 7.40369 23.6288 9.60176M22.5455 18.2468V21.4968C22.5467 21.7985 22.4849 22.0971 22.364 22.3736C22.2431 22.65 22.0659 22.8981 21.8435 23.1021C21.6212 23.3061 21.3587 23.4614 21.0729 23.558C20.7871 23.6547 20.4843 23.6906 20.1838 23.6634C16.8502 23.3012 13.648 22.1621 10.8346 20.3376C8.21711 18.6743 5.99791 16.4551 4.33463 13.8376C2.50377 11.0114 1.36439 7.79367 1.00879 4.44509C0.981721 4.14551 1.01732 3.84358 1.11334 3.55852C1.20935 3.27345 1.36366 3.0115 1.56646 2.78935C1.76925 2.56719 2.01608 2.38969 2.29123 2.26816C2.56638 2.14662 2.86383 2.08371 3.16463 2.08342H6.41463C6.94038 2.07825 7.45007 2.26443 7.8487 2.60725C8.24734 2.95008 8.50771 3.42616 8.58129 3.94676C8.71847 4.98683 8.97286 6.00805 9.33963 6.99093C9.48538 7.37868 9.51693 7.80008 9.43053 8.20521C9.34412 8.61034 9.1434 8.98221 8.85213 9.27676L7.47629 10.6526C9.01848 13.3648 11.2641 15.6104 13.9763 17.1526L15.3521 15.7768C15.6467 15.4855 16.0185 15.2848 16.4237 15.1984C16.8288 15.112 17.2502 15.1435 17.638 15.2893C18.6208 15.656 19.6421 15.9104 20.6821 16.0476C21.2084 16.1218 21.689 16.3869 22.0325 16.7924C22.3761 17.1979 22.5586 17.7155 22.5455 18.2468Z" stroke="#515151" stroke-width="2" stroke-linecap="round" stroke-linejoin="round"/>
</svg>
