<svg width="14" height="14" viewBox="0 0 14 14" fill="none" xmlns="http://www.w3.org/2000/svg">
<path d="M13.5 10.065V12.7171C13.5 13.1108 13.1956 13.4375 12.8029 13.4653C12.4748 13.4884 12.2072 13.5 12 13.5C5.37255 13.5 0 8.12745 0 1.5C0 1.29278 0.0115875 1.02515 0.0347625 0.697125C0.0625275 0.30441 0.389205 0 0.782895 0H3.43508C3.62758 0 3.78882 0.145815 3.80815 0.33735C3.8255 0.509302 3.84163 0.647355 3.85655 0.751515C4.00826 1.81104 4.31815 2.81952 4.76152 3.75227C4.83269 3.90199 4.78628 4.08119 4.65139 4.17754L3.03266 5.33385C4.01814 7.63583 5.86417 9.48187 8.16615 10.4674L9.32032 8.85143C9.4179 8.71492 9.59925 8.66798 9.75075 8.7399C10.6834 9.18293 11.6918 9.49245 12.7512 9.6438C12.8547 9.65865 12.9919 9.67462 13.1626 9.69187C13.3542 9.71122 13.5 9.87247 13.5 10.065Z" fill="#515151"/>
</svg>
