<svg width="15" height="20" viewBox="0 0 15 20" fill="none" xmlns="http://www.w3.org/2000/svg">
<path d="M0.000383377 1.00057L0.000383377 19.0006C0.000954628 19.1828 0.051218 19.3615 0.145761 19.5173C0.240305 19.673 0.375548 19.8001 0.536936 19.8848C0.698323 19.9694 0.879744 20.0085 1.06167 19.9977C1.24359 19.9869 1.41913 19.9267 1.56938 19.8236L14.5694 10.8236C15.1084 10.4506 15.1084 9.55257 14.5694 9.17857L1.56938 0.178574C1.41944 0.0743986 1.24381 0.0133079 1.06159 0.00193892C0.879362 -0.00943004 0.697505 0.0293576 0.535776 0.114088C0.374047 0.198818 0.238629 0.32625 0.144239 0.482538C0.0498495 0.638826 9.53674e-05 0.817994 0.000383377 1.00057Z" fill="#515151"/>
</svg>
