<?xml version="1.0" standalone="no"?>
<!DOCTYPE svg PUBLIC "-//W3C//DTD SVG 1.1//EN" "http://www.w3.org/Graphics/SVG/1.1/DTD/svg11.dtd" >
<svg xmlns="http://www.w3.org/2000/svg">
<metadata>Generated by IcoMoon</metadata>
<defs>
<font id="icomoon" horiz-adv-x="1024">
<font-face units-per-em="1024" ascent="960" descent="-64" />
<missing-glyph horiz-adv-x="1024" />
<glyph unicode="&#x20;" horiz-adv-x="512" d="" />
<glyph unicode="&#xe900;" glyph-name="Arrow" d="M427.5 826.458l330.88-367.577-330.88-367.66 91.127-82.057 404.679 449.716-404.679 449.633-91.127-82.056zM59.75 826.458l330.88-367.577-330.88-367.66 91.128-82.057 404.681 449.716-404.681 449.633-91.128-82.056z" />
<glyph unicode="&#xe901;" glyph-name="bed-1" d="M565.755 396.278c0-10.632 8.652-19.281 19.284-19.281h115.697c10.632 0 19.281 8.649 19.281 19.281s-8.649 19.284-19.281 19.284h-53.605c-2.305-0.912-4.81-0.912-7.118 0h-54.974c-10.632 0-19.284-8.652-19.284-19.284zM643.562 547.34l54.532-54.529-54.532-54.532-54.532 54.532 54.532 54.529zM864.646 704.794c26.582 0 48.205 21.625 48.205 48.206s-21.624 48.207-48.205 48.207c-26.582 0-48.205-21.625-48.205-48.207s21.624-48.206 48.205-48.206zM392.926 547.306l54.532-54.532-54.532-54.532-54.532 54.532 54.532 54.532zM189.76 675.882c21.265 0 38.565 17.301 38.565 38.564 0 21.265-17.301 38.565-38.565 38.565s-38.565-17.3-38.565-38.565c0-21.264 17.3-38.564 38.565-38.564zM218.683 376.992h82.348c-14.86 25.598 3.694 57.849 33.347 57.849h34.574l-51.030 51.030c-3.766 3.766-3.766 9.87 0 13.634l68.173 68.173c3.761 3.766 9.87 3.766 13.632 0l68.173-68.173c3.766-3.764 3.766-9.87 0-13.634l-51.030-51.030h33.205c21.264 0 38.565-17.301 38.565-38.567 0-7.028-1.921-13.602-5.217-19.281h68.283c-14.86 25.598 3.694 57.849 33.347 57.849h34.574l-51.033 51.030c-3.766 3.766-3.766 9.87 0 13.634l68.173 68.173c3.764 3.766 9.873 3.766 13.634 0l68.173-68.173c3.766-3.764 3.766-9.87 0-13.634l-51.033-51.030h33.205c29.609 0 48.235-32.206 33.347-57.849h82.35v151.367c0 49.442-40.223 89.665-89.665 89.665h-418.434c-49.442 0-89.663-40.223-89.663-89.665v-151.367zM315.097 396.278c0-10.632 8.652-19.281 19.284-19.281h115.695c10.632 0 19.284 8.649 19.284 19.281s-8.652 19.284-19.284 19.284h-53.603c-2.308-0.912-4.813-0.912-7.118 0h-54.974c-10.632 0-19.284-8.652-19.284-19.284zM893.56 288.291c0 38.278-31.14 69.417-69.417 69.417-12.063 0-607.647 0-613.189 0-38.278 0-69.417-31.14-69.417-69.417v-4.166h752.023v4.166zM913.81 264.841c-43.383 0-751.529 0-792.516 0-10.1 0-18.318-8.217-18.318-18.32v-72h829.154v72c0 10.103-8.219 18.32-18.32 18.32zM102.976 105.764c0-10.1 8.218-18.317 18.318-18.317h792.516c10.1 0 18.32 8.217 18.32 18.317v49.479h-829.154v-49.479zM180.122 50.805c0-11.699 9.516-21.212 21.211-21.212h111.839c11.696 0 21.212 9.513 21.212 21.212v17.353h-154.262v-17.353zM720.024 50.805c0-11.699 9.516-21.212 21.212-21.212h111.838c11.696 0 21.212 9.513 21.212 21.212v17.353h-154.262v-17.353zM898.388 502.332c7.987 0 14.463 6.476 14.463 14.463 0 7.985-6.476 14.461-14.463 14.461s-14.461-6.476-14.461-14.461c0-7.987 6.474-14.463 14.461-14.463zM734.485 781.93c7.987 0 14.463 6.475 14.463 14.462s-6.476 14.462-14.463 14.462c-7.987 0-14.461-6.475-14.461-14.462s6.474-14.462 14.461-14.462zM532.023 685.516c7.987 0 14.461 6.474 14.461 14.461s-6.474 14.463-14.461 14.463c-7.987 0-14.461-6.475-14.461-14.463s6.474-14.461 14.461-14.461zM310.267 830.137c7.987 0 14.461 6.475 14.461 14.462s-6.474 14.462-14.461 14.462c-7.987 0-14.461-6.475-14.461-14.462s6.474-14.462 14.461-14.462zM107.803 521.613c7.987 0 14.462 6.474 14.462 14.461s-6.475 14.463-14.462 14.463c-7.987 0-14.462-6.476-14.462-14.463s6.475-14.461 14.462-14.461z" />
<glyph unicode="&#xe902;" glyph-name="booking-1" d="M194.677 48.926c0-62.268 50.658-112.926 112.924-112.926h408.781c62.268 0 112.926 50.658 112.926 112.926v27.154h-634.631v-27.154zM829.307 847.076c0 62.266-50.658 112.924-112.926 112.924h-408.781c-62.266 0-112.924-50.658-112.924-112.924v-710.995h634.628v710.995h0.003zM336.586 783.949h350.813v-60h-350.813v60zM511.991 257.126c-108.851 0-197.406 88.555-197.406 197.406s88.555 197.406 197.406 197.406c108.851 0 197.406-88.555 197.406-197.406s-88.555-197.406-197.406-197.406zM511.994 591.941c-75.767 0-137.406-61.639-137.406-137.406s61.639-137.406 137.406-137.406c75.767 0 137.406 61.639 137.406 137.406s-61.639 137.406-137.406 137.406zM495.908 366.571l-80.113 80.116 42.424 42.427 37.689-37.689 69.861 69.861 42.427-42.427-112.288-112.288z" />
<glyph unicode="&#xe903;" glyph-name="booking-2" d="M845.486 843.334h-80.671v5.216c0 15.904-12.897 28.8-28.8 28.8-15.908 0-28.8-12.896-28.8-28.8v-5.216h-166.4v5.216c0 15.904-12.897 28.8-28.8 28.8-15.905 0-28.802-12.896-28.802-28.8v-5.216h-166.4v5.216c0 15.904-12.896 28.8-28.8 28.8s-28.8-12.896-28.8-28.8v-5.216h-80.736c-79.040 0-143.328-64.288-143.328-143.328v-538.111c0-79.043 64.288-143.329 143.328-143.329h667.008c79.037 0 143.329 64.287 143.329 143.329v538.144c-0.036 79.040-64.292 143.296-143.329 143.296zM511.982 209.382c-112.8 0-204.608 91.776-204.608 204.575 0 112.801 91.776 204.577 204.608 204.577s204.608-91.776 204.608-204.577c0-112.799-91.807-204.575-204.608-204.575zM511.976 560.925c-81.024 0-146.976-65.952-146.976-146.978 0-81.055 65.952-146.975 146.976-146.975 81.022 0 146.978 65.951 146.978 146.975 0 81.058-65.956 146.978-146.978 146.978zM589.834 421.468l-85.826-69.151c-5.12-4.163-11.52-6.369-18.048-6.369-1.088 0-2.176 0.067-3.296 0.195-7.616 0.86-14.624 4.767-19.36 10.813l-33.76 43.008c-9.824 12.513-7.616 30.623 4.864 40.448 12.544 9.857 30.592 7.649 40.448-4.864l15.744-20.065 63.102 50.818c12.385 10.016 30.561 8 40.515-4.352 9.953-12.384 7.997-30.527-4.383-40.481z" />
<glyph unicode="&#xe904;" glyph-name="bubble-chat-1" d="M600.465 811.267c-59.35 36.605-129.681 56.733-202.331 56.733-197.766 0-364-147.341-364-336 0-66.146 20.548-129.554 59.58-184.317l-54.525-171.187c-5.761-18.077 7.784-36.495 26.684-36.495 4.322 0 8.671 0.997 12.684 3.038l165.82 84.316c6.714-2.895 13.513-5.584 20.38-8.083-38.392 59.924-58.89 128.711-58.89 200.727 0 214.475 180.466 379.359 394.598 391.267zM930.284 235.684c39.035 54.762 59.583 118.171 59.583 184.316 0 188.728-166.304 336-364 336-197.766 0-364-147.342-364-336 0-188.726 166.305-335.998 364-335.998 53.045 0 105.897 10.807 153.745 31.355l165.833-84.316c10.063-5.113 22.214-3.686 30.822 3.625 8.602 7.311 11.974 19.074 8.547 29.833l-54.531 171.185zM512 392c-15.464 0-28 12.536-28 28s12.536 28 28 28c15.464 0 28-12.536 28-28s-12.536-28-28-28zM624 392c-15.463 0-28 12.536-28 28s12.536 28 28 28c15.464 0 28-12.536 28-28s-12.536-28-28-28zM735.997 392c-15.462 0-27.996 12.536-27.996 28s12.534 28 27.996 28c15.469 0 28.003-12.536 28.003-28s-12.534-28-28.003-28z" />
<glyph unicode="&#xe905;" glyph-name="butter-1" d="M305.5 337.81c16.681 0 30.249 13.571 30.249 30.249v90.25h30.001c16.681 0 30.252 13.571 30.252 30.249v90.501h-120.75v-211c0-16.678 13.568-30.249 30.249-30.249zM0 81.567h50.866v-28.288l61.49-61.491h799.288l61.489 61.491v28.288h50.867v58.555h-1024v-58.555zM903.501 200.123v438.935h-342.881c-35.72 0.161-69.304 14.159-94.564 39.419-19.203 19.203-29.78 44.735-29.78 71.894s10.578 52.69 29.78 71.892c29.235 29.236 72.504 29.094 102.884-0.334 9.887-9.578 15.393-21.85 14.733-32.828-0.497-8.208-4.531-15.24-11.991-20.9-20.083-15.238-39.293 4.162-42.941 8.202l-44.539-40.204c28.298-31.35 79.094-49.673 123.743-15.798 21.42 16.25 34.066 39.366 35.617 65.090 1.728 28.632-10.255 57.622-32.876 79.536-54.070 52.376-134.487 52.232-187.057-0.336-30.536-30.536-47.352-71.134-47.352-114.318 0-43.186 16.817-83.787 47.352-114.32 34.186-34.189 78.922-54.106 126.976-56.701l0.003-0.292h-94.607v-90.501c0-39.252-25.19-72.73-60.25-85.125v-35.377c0-49.764-40.486-90.25-90.25-90.25s-90.25 40.486-90.25 90.25v211h-94.75v-378.936l783.001 0.003z" />
<glyph unicode="&#xe906;" glyph-name="calendar-5-1" d="M826.7-64h-628.9c-109.1 0-197.8 88.7-197.8 197.8v549.7c0 109.1 88.7 197.8 197.8 197.8h38.2v38.7c0 22.1 17.9 40 40 40s40-17.9 40-40v-38.7h392.5v38.7c0 22.1 17.9 40 40 40s40-17.9 40-40v-38.7h38.2c109.1 0 197.8-88.7 197.8-197.8v-549.8c0-109-88.8-197.7-197.8-197.7zM80 565.3v-431.5c0-65 52.8-117.8 117.8-117.8h628.9c64.9 0 117.8 52.8 117.8 117.8v431.5h-864.5zM80 645.3h864.5v38.2c0 64.9-52.8 117.8-117.8 117.8h-38.2v-78c0-22.1-17.9-40-40-40s-40 17.9-40 40v78h-392.5v-78c0-22.1-17.9-40-40-40s-40 17.9-40 40v78h-38.2c-65 0-117.8-52.8-117.8-117.8v-38.2zM787.8 132h-78.7c-22.1 0-40 17.9-40 40s17.9 40 40 40h78.7c22.1 0 40-17.9 40-40s-17.9-40-40-40zM551.3 132h-78.7c-22.1 0-40 17.9-40 40s17.9 40 40 40h78.7c22.1 0 40-17.9 40-40s-17.9-40-40-40zM315.3 132h-78.7c-22.1 0-40 17.9-40 40s17.9 40 40 40h78.7c22.1 0 40-17.9 40-40s-17.9-40-40-40zM787.8 368h-78.7c-22.1 0-40 17.9-40 40s17.9 40 40 40h78.7c22.1 0 40-17.9 40-40s-17.9-40-40-40zM551.3 368h-78.7c-22.1 0-40 17.9-40 40s17.9 40 40 40h78.7c22.1 0 40-17.9 40-40s-17.9-40-40-40zM315.3 368h-78.7c-22.1 0-40 17.9-40 40s17.9 40 40 40h78.7c22.1 0 40-17.9 40-40s-17.9-40-40-40z" />
<glyph unicode="&#xe907;" glyph-name="polygon" d="M942.874 445.414l-882.423-509.466v1018.933l882.423-509.468z" />
<glyph unicode="&#xe908;" glyph-name="calendar-6" d="M27.958 196.014h731.768c6.56 0 12.902 2.294 17.934 6.479 7.031 5.885 167.363 143.813 177.138 441.541h-785.904c-9.739-270.257-157.395-397.285-158.93-398.553-8.996-7.598-12.306-20.016-8.259-31.061 4.019-11.025 14.493-18.405 26.252-18.405zM927.703 812.031h-140.008v28.002c0 15.681-12.322 28.001-28.003 28.001s-28.003-12.32-28.003-28.001v-28.002h-141.87v28.002c0 15.681-12.321 28.001-28.002 28.001s-28.001-12.32-28.001-28.001v-28.002h-140.007v28.002c0 15.681-12.32 28.001-28.001 28.001s-28.002-12.32-28.002-28.001v-28.002h-140.006c-15.681 0-28.002-12.32-28.002-28.001v-84.004h785.9v84.004c0 15.681-12.315 28.001-27.996 28.001zM813.588 159.539c-15.203-12.663-34.29-19.558-53.897-19.558h-589.892v-84.002c0-15.476 12.524-28.003 28.002-28.003h729.902c15.476 0 27.996 12.527 27.996 28.003v313.888c-53.985-132.449-129.318-199.623-142.111-210.328z" />
<glyph unicode="&#xe909;" glyph-name="car-1" d="M865.248 126.707h-41.717c11.887 7.977 20.896 19.563 25.7 33.050 4.802 13.487 5.143 28.16 0.975 41.856-4.171 13.694-12.629 25.687-24.132 34.21s-25.44 13.122-39.757 13.122c-14.317 0-28.254-4.599-39.757-13.122s-19.964-20.516-24.132-34.21c-4.169-13.696-3.827-28.369 0.975-41.856s13.813-25.073 25.7-33.050h-253.79c11.893 7.97 20.909 19.552 25.717 33.037 4.811 13.485 5.158 28.158 0.994 41.856-4.166 13.698-12.623 25.694-24.126 34.219s-25.44 13.126-39.757 13.126c-14.317 0-28.254-4.602-39.757-13.126s-19.959-20.521-24.126-34.219c-4.164-13.698-3.817-28.371 0.992-41.856 4.811-13.485 13.826-25.067 25.719-33.037h-138.935v27.925c-0.017 11.919-4.759 23.343-13.186 31.772-8.429 8.427-19.853 13.169-31.772 13.186h-29.739v371.298c0.030 28.183 11.239 55.202 31.167 75.132 19.927 19.927 46.948 31.136 75.132 31.166h57.299c0.273 0.25 0-65.022 0.094-65.003-0.002-5.946 1.167-11.831 3.441-17.325s5.609-10.483 9.811-14.686c4.203-4.205 9.195-7.539 14.686-9.813 5.493-2.274 11.379-3.443 17.325-3.441h179.215c12.021-0.009 23.556 4.751 32.070 13.237 8.516 8.486 13.316 20.004 13.346 32.028v142.542c-0.030 12.022-4.83 23.54-13.346 32.027-8.514 8.486-20.049 13.247-32.070 13.237h-179.215c-5.946 0.002-11.831-1.168-17.325-3.441-5.491-2.274-10.483-5.608-14.686-9.812s-7.537-9.194-9.811-14.687c-2.274-5.493-3.443-11.379-3.441-17.324-0.094 0.009 0.177-47.092-0.094-46.851h-57.299c-36.32-0.041-71.138-14.485-96.819-40.166s-40.126-60.501-40.166-96.819v-371.298h-29.794c-11.91-0.043-23.321-4.794-31.743-13.216s-13.172-19.831-13.215-31.742v-27.925h-22.555c-4.070 0-7.972-1.617-10.85-4.495s-4.494-6.78-4.494-10.85c0-4.068 1.617-7.972 4.494-10.848 2.878-2.878 6.78-4.495 10.85-4.495h785.904c4.034 0.055 7.883 1.696 10.716 4.567s4.42 6.743 4.42 10.775c0 4.034-1.587 7.906-4.42 10.778s-6.682 4.512-10.716 4.567zM458.487 738.308c0.013 4.066 1.632 7.962 4.508 10.837 2.874 2.875 6.771 4.496 10.837 4.507h46.031c12.625-0.139 24.687-5.252 33.566-14.229s13.858-21.094 13.858-33.722c0-12.627-4.979-24.742-13.86-33.719-8.879-8.977-20.941-14.091-33.566-14.229h-30.686v-29.152c0-4.070-1.617-7.972-4.495-10.85s-6.78-4.495-10.85-4.495c-4.068 0-7.972 1.617-10.85 4.495-2.876 2.878-4.493 6.78-4.493 10.85v109.707zM458.112 164.299c-4.713 0.077-9.207 2.003-12.512 5.363s-5.156 7.885-5.156 12.597c0 4.713 1.852 9.237 5.156 12.597 3.307 3.358 7.799 5.284 12.512 5.361 4.713-0.077 9.205-2.003 12.512-5.363 3.305-3.36 5.156-7.883 5.156-12.597s-1.852-9.237-5.158-12.595c-3.305-3.36-7.797-5.286-12.51-5.363zM786.385 164.299c-4.715 0.070-9.214 1.995-12.523 5.355-3.311 3.362-5.165 7.889-5.165 12.606 0 4.715 1.854 9.244 5.165 12.604 3.309 3.36 7.808 5.284 12.523 5.355 4.717-0.070 9.216-1.995 12.525-5.355s5.165-7.889 5.165-12.604c0-4.717-1.856-9.244-5.165-12.606-3.309-3.36-7.808-5.284-12.525-5.355zM537.193 705.619c-0.021 4.593-1.854 8.99-5.101 12.237s-7.646 5.082-12.237 5.103h-30.688v-34.524h30.688c4.576-0.013 8.971 1.788 12.22 5.009 3.251 3.221 5.092 7.599 5.118 12.175zM913.444 381.312l-36.254 7.981c-27.392 3.874-47.095 40.053-63.027 59.036-7.789 10.146-17.777 18.394-29.212 24.126s-24.019 8.798-36.809 8.966l-155.654 1.997c-22.387-0.015-43.921-8.582-60.201-23.949l-86.308-83.479-92.962-17.961c-16.48-3.294-31.582-11.484-43.332-23.501-11.748-12.017-19.599-27.3-22.522-43.851l-5.323-31.597c-1.758-10.756-1.163-21.766 1.741-32.273s8.047-20.258 15.081-28.587c7.031-8.329 15.785-15.034 25.655-19.657s20.627-7.053 31.526-7.121h2.995c-0.476 3.582-0.698 7.194-0.666 10.807 0.006 13.583 2.78 27.023 8.149 39.499 5.372 12.476 13.229 23.725 23.091 33.065 9.862 9.338 21.525 16.57 34.274 21.252 12.751 4.683 26.321 6.718 39.885 5.982 13.562-0.734 26.833-4.226 39.002-10.259s22.98-14.483 31.776-24.832c8.796-10.351 15.39-22.385 19.381-35.369 3.991-12.981 5.295-26.643 3.831-40.145h129.38c-1.517 13.954-0.077 28.073 4.224 41.434s11.369 25.668 20.742 36.117c9.374 10.447 20.845 18.805 33.662 24.525 12.819 5.722 26.699 8.678 40.736 8.678s27.917-2.957 40.736-8.678c12.817-5.719 24.288-14.078 33.662-24.525 9.374-10.449 16.442-22.756 20.742-36.117s5.741-27.479 4.222-41.434h14.967c15.744 0.009 30.837 6.266 41.969 17.397s17.391 26.227 17.399 41.969v92.463c0.038 13.538-4.561 26.682-13.033 37.242-8.474 10.56-20.305 17.899-33.53 20.798z" />
<glyph unicode="&#xe90a;" glyph-name="car-wash-1" d="M676.262 816.491l8.832-23.595 8.832 23.595c3.689 9.853 9.449 18.801 16.891 26.238 7.439 7.438 16.392 13.193 26.245 16.876l23.468 8.832-23.468 8.832c-9.848 3.694-18.79 9.455-26.222 16.896-7.434 7.441-13.187 16.389-16.87 26.24l-8.832 23.595-8.876-23.595c-3.684-9.852-9.436-18.799-16.868-26.24-7.434-7.441-16.376-13.202-26.225-16.896l-23.596-8.832 23.596-8.832c9.848-3.689 18.788-9.446 26.222-16.883s13.187-16.382 16.87-26.231zM840.038 729.73l6.676-17.877 6.615 17.877c2.793 7.474 7.158 14.262 12.8 19.904s12.429 10.007 19.904 12.8l17.876 6.699-17.876 6.698c-7.475 2.793-14.262 7.158-19.904 12.8s-10.007 12.43-12.8 19.904l-6.7 17.877-6.676-17.877c-2.801-7.471-7.168-14.255-12.808-19.897-5.642-5.641-12.426-10.008-19.896-12.808l-17.9-6.698 17.9-6.699c7.485-2.789 14.287-7.151 19.942-12.793 5.658-5.642 10.038-12.431 12.846-19.911zM939.978 829.051l6.676-17.899 6.7 17.899c2.798 7.471 7.165 14.255 12.808 19.896 5.64 5.641 12.426 10.009 19.896 12.808l17.876 6.677-17.876 6.699c-7.475 2.793-14.262 7.158-19.904 12.8s-10.007 12.43-12.8 19.904l-6.7 17.877-6.676-17.877c-2.801-7.471-7.168-14.255-12.808-19.896-5.642-5.641-12.426-10.009-19.896-12.808l-17.9-6.699 17.9-6.677c7.465-2.807 14.246-7.176 19.886-12.817 5.642-5.64 10.012-12.421 12.818-19.887zM850.801 18.071v-44.436c0-2.849 0.563-5.673 1.656-8.302 1.093-2.632 2.696-5.023 4.716-7.032s4.419-3.602 7.055-4.682c2.637-1.080 5.46-1.631 8.31-1.615h83.2c5.737 0 11.241 2.278 15.296 6.336 4.058 4.055 6.336 9.559 6.336 15.296v85.652c-13.732-13.798-30.185-24.589-48.315-31.683-18.127-7.096-37.535-10.342-56.986-9.533h-21.268zM45.475 60.549v-86.912c0-5.737 2.279-11.238 6.336-15.296 4.057-4.055 9.559-6.336 15.296-6.336h83.2c5.737 0 11.239 2.281 15.296 6.336 4.057 4.058 6.336 9.559 6.336 15.296v44.439h-19.947c-19.748-0.852-39.453 2.493-57.814 9.815s-34.96 18.452-48.704 32.658zM46.1 147.205c0-61.312 42.667-97.044 105.899-97.044h720.022c63.145 0 105.9 35.732 105.9 97.044v17.708h-931.82v-17.708zM987.735 541.868l-53.335 9.26c-4.26 0.742-8.645 0.028-12.447-2.033s-6.797-5.343-8.502-9.316l-16.596-37.527-6.743 10.284-46.761 110.4c-7.544 17.91-19.52 33.605-34.803 45.606-15.283 12.004-33.37 19.919-52.557 23.002-80.745 12.26-162.322 18.215-243.991 17.813-81.661 0.381-163.231-5.597-243.968-17.877-19.205-3.067-37.313-10.977-52.615-22.979-15.303-12.004-27.297-27.707-34.85-45.629l-46.656-110.228-6.634-10.135-16.704 37.376c-1.704 3.976-4.699 7.258-8.501 9.318-3.802 2.058-8.188 2.775-12.448 2.033l-53.354-9.367c-4.929-0.796-9.412-3.323-12.646-7.127s-5.005-8.637-4.997-13.629v-10.476c0.001-4.808 1.645-9.469 4.66-13.215 3.015-3.743 7.219-6.344 11.916-7.37l73.045-16.707-34.986-53.332c-17.706-27.003-27.138-58.591-27.136-90.88v-132.265h931.796v132.265c-0.005 32.292-9.444 63.88-27.156 90.88l-35.116 53.591 73.175 16.489c4.695 1.027 8.901 3.628 11.914 7.373 3.016 3.745 4.659 8.407 4.662 13.215v10.476c-0.003 4.987-1.782 9.812-5.020 13.606-3.236 3.796-7.718 6.316-12.644 7.107zM210.113 610.371c5.39 12.943 14.006 24.289 25.027 32.957s24.078 14.367 37.928 16.556c79.073 12.001 158.956 17.843 238.932 17.472 79.977 0.371 159.862-5.471 238.935-17.472 13.837-2.194 26.885-7.895 37.896-16.558 11.013-8.663 19.625-20.001 25.016-32.934l35.945-84.78h-675.626l35.947 84.759zM142.252 301.036c-6.271 0.914-12.124 3.692-16.798 7.969-4.675 4.28-7.957 9.864-9.42 16.031-1.928 7.191-2.685 14.648-2.24 22.080 1.728 19.2 7.765 28.652 19.968 28.652 0 0 83.669-5.204 94.976-8.684 11.307-3.476 54.698-85.972 54.698-85.972l-141.184 19.924zM678.231 269.036l-167.255-9.556-165.204 9.321-42.132 89.367c0 0 148.416-12.928 208.34-12.928s208.384 12.928 208.384 12.928l-42.132-89.132zM907.948 324.951c-1.464-6.167-4.746-11.75-9.421-16.031-4.675-4.278-10.527-7.055-16.799-7.969l-141.184-19.924c0 0 43.415 82.493 54.72 85.972 11.308 3.476 94.956 8.681 94.956 8.681 12.224 0 18.24-9.533 19.968-28.649 0.445-7.434-0.312-14.889-2.24-22.080z" />
<glyph unicode="&#xe90b;" glyph-name="customer-service-1" d="M1000.475 609.48c-10.398 34.66-41.46 63.7-69.42 64.88-12.025 0.466-24.066-0.076-35.998-1.619-48.92 165.799-202.121 287.119-383.061 287.119-180.938 0-334.139-121.32-383.119-287.119-11.934 1.543-23.976 2.085-36 1.619-28-1.18-59.020-30.22-69.42-64.88-9-20.419-26.28-142.599-23.060-182.899-3.22-40.302 14-162.482 23.12-182.901 10.48-34.66 41.46-63.681 69.42-64.88 23.162-0.719 46.304 1.975 68.68 7.999 22.376 5.695 43.99 14.048 64.38 24.881 24.199 13.561 40.581 45.78 40.559 73.46-1.219 17.179-5.398 111.099-4.318 141.441-1.080 30.34 3.099 124.26 4.318 141.439 0 27.68-16.36 59.999-40.559 73.46l-5.44 2.801c36.839 126.719 153.541 219.579 291.439 219.579 137.901 0 254.601-92.86 291.421-219.579l-5.439-2.801c-24.201-13.48-40.58-45.78-40.56-73.479 1.219-17.181 5.4-111.102 4.32-141.441 1.080-30.34-3.101-124.26-4.32-141.439 0-27.68 16.36-59.902 40.56-73.46l4.52-2.341c-19.166-39.877-47.087-74.913-81.676-102.5-34.592-27.585-74.964-47.009-118.104-56.82-8.867 14.509-22.406 25.571-38.39 31.366-15.987 5.798-33.468 5.983-49.574 0.529s-29.876-16.226-39.049-30.544c-9.175-14.316-13.202-31.33-11.427-48.24s9.25-32.714 21.197-44.815c11.949-12.1 27.655-19.775 44.542-21.767 16.889-1.989 33.95 1.824 48.384 10.813 14.431 8.992 25.378 22.623 31.037 38.658 112.499 22.779 206 98.84 253.121 200.699 22.321-5.978 45.402-8.633 68.498-7.88 28.002 1.18 59.021 30.22 69.42 64.88 9.060 20.421 26.341 142.599 23.12 182.901 3.221 40.28-14.080 162.46-23.12 182.879zM473.071 436.782c6.988 6.905 12.588 15.087 16.499 24.098 3.721 8.721 5.573 19.695 5.561 32.922 0 17.92-3.955 33.68-11.859 47.28-7.704 13.4-18.966 24.408-32.541 31.8-14.373 7.748-30.493 11.674-46.819 11.401-19.042 0-35.708-3.647-50-10.942-18.522-9.109-32.841-24.981-40.002-44.339-1.402-3.838-1.86-7.956-1.331-12.008 0.532-4.052 2.031-7.914 4.372-11.262 2.343-3.348 5.459-6.081 9.084-7.968 3.625-1.885 7.651-2.867 11.737-2.862h1.638c5.125 0.066 10.111 1.658 14.324 4.574 4.215 2.914 7.465 7.017 9.338 11.786 0.624 1.477 1.334 2.921 2.119 4.32 3.591 6.371 8.802 11.683 15.102 15.399 6.834 3.979 14.633 5.998 22.54 5.842 7.475 0.171 14.853-1.726 21.319-5.481 5.971-3.611 10.818-8.811 14-15.021 3.433-6.739 5.157-14.217 5.020-21.78-0.215-6.451-1.999-12.754-5.2-18.359-3.452-6.561-9.387-13.541-17.798-20.941l-101.842-90.38c-3.191-2.833-5.744-6.31-7.492-10.201-1.748-3.894-2.65-8.112-2.648-12.378-0.015-3.979 0.756-7.919 2.27-11.598s3.74-7.019 6.551-9.835c2.809-2.814 6.149-5.044 9.826-6.563s7.617-2.294 11.593-2.284h132.981c6.29 0 12.325 2.499 16.772 6.949 4.45 4.447 6.949 10.481 6.949 16.772 0.002 3.116-0.61 6.203-1.799 9.084-1.192 2.879-2.938 5.498-5.142 7.702-2.202 2.204-4.818 3.955-7.697 5.147s-5.966 1.807-9.082 1.807h-84.841l59.621 52.28c10.64 9.348 19.6 17.693 26.88 25.042zM692.009 400.34v41.179c-0.005 6.788-2.704 13.292-7.504 18.091-4.801 4.796-11.31 7.49-18.096 7.49s-13.29-2.694-18.088-7.492c-4.796-4.796-7.492-11.303-7.492-18.088v-41.179h-58.18l66.56 141.061c1.882 3.986 2.723 8.385 2.45 12.783-0.273 4.401-1.655 8.66-4.016 12.383s-5.622 6.79-9.487 8.914c-3.862 2.126-8.199 3.24-12.607 3.24-4.957-0.002-9.811-1.414-13.997-4.069s-7.531-6.446-9.643-10.932l-73.421-155.58c-2.423-5.135-3.679-10.742-3.679-16.421 0-10.199 4.052-19.983 11.264-27.195 7.214-7.212 16.996-11.264 27.197-11.264h77.6v-16.001c0-6.783 2.694-13.29 7.492-18.086 4.796-4.798 11.303-7.492 18.086-7.492 6.788 0.010 13.292 2.714 18.083 7.519 4.793 4.803 7.483 11.313 7.478 18.1v15.999h0.18c6.244 0 12.229 2.482 16.645 6.895 4.415 4.415 6.895 10.403 6.895 16.645 0 6.244-2.48 12.232-6.895 16.647-4.415 4.413-10.401 6.892-16.645 6.892l-0.18-0.039z" />
<glyph unicode="&#xe90c;" glyph-name="door-lock-1" d="M820.122 599.225c-0.046 16.784-6.732 32.864-18.6 44.73-11.865 11.867-27.945 18.554-44.729 18.6h-272.668c-17.808 0.067-56.568-0.048-74.633 0-23.803 0.014-92.363-0.010-117.059 0-17.586-0.055-34.434-7.076-46.855-19.526s-19.402-29.313-19.416-46.9c-0.004-7.911 1.551-15.746 4.577-23.057 3.025-7.307 7.462-13.95 13.056-19.545 5.594-5.592 12.235-10.029 19.545-13.054s15.144-4.582 23.055-4.578c25.697-0.007 98.825 0.010 123.253 0 18.158 0.116 56.601-0.083 74.478 0h272.668c16.79 0.023 32.887 6.702 44.759 18.574s18.551 27.968 18.571 44.755zM387.974 504.931c-83.628-91.612-240.877-30.773-240.153 94.297 0.059 24.226 6.449 48.014 18.535 69.008s29.449 38.465 50.367 50.681c3.527 1.987 7.693 2.509 11.602 1.455s7.247-3.601 9.297-7.091c2.050-3.491 2.647-7.647 1.664-11.574s-3.47-7.31-6.923-9.423c-119.345-74.51-19.337-251.268 105.603-187.354h-51.564c-126.391 5.89-116.75 185.707 6.041 188.593h45.521c-15.794 8.686-33.537 13.214-51.561 13.161-6.362-0.74-12.671-1.877-18.89-3.407-3.994-0.783-8.135 0.034-11.532 2.274s-5.779 5.726-6.631 9.705c-0.853 3.979-0.108 8.134 2.072 11.57s5.624 5.877 9.588 6.799c8.311 2.178 16.817 3.527 25.393 4.026 19.035 0.040 37.872-3.86 55.326-11.455s33.147-18.719 46.093-32.674h96.312v99.716c-0.023 19.951-7.957 39.079-22.066 53.187s-33.237 22.043-53.189 22.065h-245.109c-19.951-0.022-39.079-7.957-53.187-22.065s-22.043-33.236-22.064-53.187v-716.592c0.021-19.951 7.956-39.080 22.064-53.189s33.236-22.042 53.187-22.066h245.109c19.951 0.023 39.080 7.957 53.189 22.066s22.042 33.237 22.066 53.189v428.283c-19.466 0.013-75.835-0.010-96.157 0zM286.4 354.581c10.791-0.119 21.3-3.455 30.182-9.583s15.733-14.769 19.674-24.814c3.941-10.045 4.794-21.042 2.45-31.572-2.345-10.534-7.78-20.127-15.611-27.552l0.002-50.014c0-9.731-3.866-19.066-10.748-25.947-6.882-6.884-16.216-10.749-25.948-10.749s-19.067 3.865-25.948 10.749c-6.882 6.881-10.748 16.216-10.748 25.947v50.014c-7.839 7.422-13.282 17.015-15.631 27.552-2.349 10.534-1.498 21.534 2.445 31.582s10.798 18.69 19.686 24.817c8.888 6.127 19.403 9.46 30.197 9.569zM921.719 174.037l-159.486 196.955c-10.366 12.744-25.362 20.86-41.7 22.574-16.338 1.711-32.689-3.122-45.472-13.438l-73.55-59.613c-12.757-10.316-20.903-25.273-22.644-41.588-1.744-16.315 3.059-32.652 13.355-45.433l159.483-197.107c10.408-12.681 25.395-20.748 41.713-22.459 16.315-1.708 32.649 3.079 45.459 13.322l73.55 59.613c12.694 10.392 20.787 25.365 22.525 41.68 1.741 16.315-3.016 32.659-13.233 45.492zM850.336 91.044c-4.681-4.42-10.223-7.835-16.278-10.032s-12.496-3.128-18.924-2.735c-6.428 0.39-12.708 2.098-18.452 5.014-5.744 2.913-10.828 6.976-14.937 11.935l-11.304 14.092c-6.286 7.736-9.906 17.292-10.323 27.252-0.42 9.959 2.385 19.786 8 28.025-0.522 0.667-55.815 69.533-56.515 69.833-7.885 10.435-25.732 31.82-33.756 41.806-1.268 1.632-2.197 3.501-2.728 5.497-0.532 1.998-0.661 4.083-0.373 6.127 0.284 2.048 0.978 4.017 2.038 5.791s2.468 3.316 4.132 4.539c1.668 1.222 3.561 2.098 5.573 2.573s4.096 0.545 6.134 0.201c2.038-0.344 3.987-1.090 5.731-2.2s3.247-2.557 4.423-4.258l14.399 11.614c3.204 2.573 7.3 3.772 11.386 3.333 4.086-0.443 7.832-2.484 10.415-5.682s3.792-7.29 3.363-11.376c-0.429-4.089-2.464-7.839-5.655-10.432l-14.399-11.611 3.561-4.492 7.277 5.886c3.191 2.494 7.234 3.637 11.261 3.184 4.027-0.456 7.713-2.471 10.27-5.615 2.553-3.145 3.772-7.165 3.396-11.198s-2.322-7.759-5.417-10.372l-7.277-5.883 46.76-57.757c12.879 6.197 37.772 5.886 36.233-13.781-0.211-2.022-0.819-3.984-1.79-5.774-0.971-1.787-2.286-3.366-3.868-4.648-1.582-1.278-3.399-2.233-5.351-2.811-1.952-0.575-3.997-0.76-6.022-0.545-2.015 0.215-4.056 0.026-5.995-0.558-1.942-0.585-3.746-1.556-5.308-2.847-2.117-1.083-3.974-2.613-5.437-4.489-1.46-1.876-2.494-4.050-3.026-6.365-0.532-2.319-0.548-4.724-0.050-7.049s1.503-4.512 2.94-6.408l11.3-14.088c1.582-1.78 3.525-3.201 5.701-4.162 2.177-0.965 4.532-1.447 6.914-1.417 2.378 0.030 4.724 0.571 6.877 1.586 2.15 1.017 4.060 2.484 5.592 4.304 3.174 2.606 5.196 6.355 5.632 10.438 0.433 4.083-0.753 8.175-3.31 11.39-2.517 3.191-3.676 7.244-3.227 11.281 0.446 4.037 2.464 7.736 5.615 10.299s7.185 3.782 11.231 3.396c4.043-0.386 7.772-2.352 10.382-5.464 7.726-9.583 11.347-21.834 10.068-34.076-1.275-12.245-7.346-23.486-16.883-31.268zM613.971 380.383c-2.487-2.084-4.053-5.061-4.364-8.291-0.314-3.227 0.657-6.451 2.695-8.972 2.041-2.52 4.991-4.139 8.215-4.509 3.221-0.367 6.461 0.545 9.018 2.543 2.484 2.084 4.053 5.061 4.364 8.288 0.311 3.231-0.657 6.451-2.699 8.975-2.041 2.52-4.988 4.139-8.212 4.506-3.224 0.37-6.461-0.545-9.018-2.54zM591.036 373.539c1.011 8.205 5.127 15.713 11.499 20.985 6.524 5.080 14.713 7.528 22.954 6.867 2.028-0.225 4.083-0.036 6.038 0.548s3.776 1.556 5.351 2.854c1.572 1.301 2.871 2.904 3.815 4.71 0.945 1.81 1.519 3.792 1.685 5.827 0.558 25.233-37.062 20.447-59.326 3.267-12.714-10.382-20.886-25.309-22.789-41.614-0.386-4.043 0.832-8.076 3.392-11.231 2.563-3.155 6.26-5.176 10.296-5.629 4.040-0.453 8.093 0.7 11.287 3.211 3.198 2.507 5.279 6.174 5.797 10.204zM572.875 431.18c16.83 13.619 37.079 22.36 58.533 25.266 4.020 0.611 7.637 2.775 10.075 6.028 2.434 3.254 3.495 7.336 2.95 11.366-0.545 4.027-2.652 7.68-5.87 10.167-3.214 2.487-7.277 3.614-11.314 3.131-48.178-2.97-107.54-51.025-120.436-97.472-1.387-3.865-1.183-8.119 0.568-11.832s4.905-6.58 8.77-7.967c3.861-1.384 8.119-1.183 11.832 0.571 3.713 1.751 6.577 4.905 7.964 8.767 7.323 20.378 20.094 38.354 36.927 51.973z" />
<glyph unicode="&#xe90d;" glyph-name="fast-food-1" d="M309.379 247.891c-27.077 15.531-45.375 44.711-45.375 78.108 0 137.851 112.149 250 250 250h103.024l4.851 80.001h-583.749l41.93-691.813c0.961-15.836 14.078-28.188 29.945-28.188h184.079c-18.876 25.086-30.079 56.257-30.079 90 0 38.899 24.813 72.109 59.438 84.649-12.273 18.821-19.437 41.258-19.437 65.35 0 24.119 7.179 46.579 19.477 65.415-9.781 2.203-15.212 4.367-14.103 6.478zM329.969 715.992c0.023 0 0.047 0.008 0.070 0.008h299.962c16.57 0 29.999 13.43 29.999 29.999 0 16.572-13.43 30.001-29.999 30.001h-244.618l80.868 124h103.75c16.57 0 29.999 13.43 29.999 30s-13.43 30-29.999 30h-120c-10.141 0-19.594-5.117-25.126-13.609l-111.125-170.391h-283.75c-16.57 0-30-13.429-30-30.001 0-16.57 13.43-29.999 30-29.999h299.859c0.040 0 0.078-0.008 0.11-0.008zM323.999 326c0-16.57 13.43-29.999 30.001-29.999h640c16.57 0 29.999 13.43 29.999 29.999 0 104.767-85.235 189.999-189.999 189.999h-320c-104.767 0-190.001-85.233-190.001-189.999zM424 236c-33.142 0-60.001-26.859-60.001-60.001 0-33.14 26.859-59.999 60.001-59.999h500c33.14 0 59.999 26.859 59.999 59.999 0 33.142-26.859 60.001-59.999 60.001h-500zM994.001 56h-640c-16.572 0-30.001-13.43-30.001-29.999 0-49.624 40.376-90 90-90h520c49.624 0 90 40.376 90 90 0 16.57-13.43 29.999-29.999 29.999z" />
<glyph unicode="&#xe90e;" glyph-name="Heart" d="M752 928c-55.565 0-106.509-18.699-151.414-55.578-43.050-35.356-71.712-80.389-88.586-113.136-16.874 32.748-45.536 77.779-88.586 113.136-44.904 36.879-95.848 55.578-151.414 55.578-155.064 0-272-134.691-272-313.304 0-192.964 145.886-324.988 366.738-524.852 37.504-33.939 80.014-72.416 124.198-113.446 5.824-5.414 13.304-8.397 21.064-8.397s15.24 2.982 21.064 8.397c44.188 41.037 86.696 79.507 124.222 113.466 220.826 199.846 366.714 331.869 366.714 524.833 0 178.613-116.934 313.304-272 313.304z" />
<glyph unicode="&#xe90f;" glyph-name="hotel-1" d="M918.961 411.039l-32 26.962v184.32h32v-211.282zM1006.72 676.641l-52.081 121.679c-1.249 2.868-3.305 5.311-5.919 7.030s-5.673 2.64-8.801 2.65h-73.92c-3.121-0.001-6.172-0.919-8.773-2.64-2.604-1.721-4.644-4.169-5.868-7.039l-52.078-121.679c-1.042-2.437-1.462-5.092-1.226-7.731 0.238-2.639 1.126-5.176 2.583-7.388 1.459-2.212 3.443-4.027 5.775-5.284s4.938-1.915 7.588-1.917h177.999c2.65 0.003 5.256 0.66 7.588 1.917s4.316 3.072 5.773 5.284c1.459 2.212 2.348 4.749 2.583 7.388 0.238 2.639-0.182 5.294-1.224 7.731zM258.401 491.2v17.121c0.026 11.364 4.552 22.254 12.588 30.29s18.926 12.562 30.292 12.588h101.519c11.366-0.013 22.264-4.536 30.303-12.575s12.562-18.936 12.577-30.303v-17.121h68.639v17.121c0.015 11.366 4.539 22.264 12.577 30.303s18.936 12.562 30.303 12.575h101.519c11.366-0.026 22.257-4.552 30.292-12.588s12.562-18.926 12.588-30.29v-17.121h82.401v83.681c-0.031 23.391-9.339 45.816-25.879 62.359-16.543 16.54-38.968 25.848-62.362 25.879h-431.519c-23.394-0.031-45.819-9.339-62.361-25.879-16.541-16.543-25.848-38.968-25.88-62.359v-83.681h82.401zM884.081 356.8h49.759l-121.92 102.4h-663.839l-121.92-102.4h857.921zM88 141.681h-32v-37.681c0.013-4.239 1.702-8.302 4.7-11.3s7.060-4.687 11.3-4.7h77.92c4.24 0.013 8.302 1.702 11.3 4.7s4.688 7.060 4.7 11.3v37.681h-77.92zM826.081 141.681h-32v-37.681c0.010-4.239 1.702-8.302 4.7-11.3s7.058-4.687 11.3-4.7h77.919c4.239 0.013 8.302 1.702 11.3 4.7s4.687 7.060 4.7 11.3v37.681h-77.919zM48 324.8h-32v-135.119c0.013-4.239 1.702-8.302 4.7-11.3s7.060-4.687 11.3-4.7h896c4.239 0.013 8.302 1.702 11.3 4.7s4.687 7.060 4.7 11.3v135.119h-896z" />
<glyph unicode="&#xe910;" glyph-name="hotel-key-1" d="M475.478 277.976h341.192v-37.909h-341.192v37.909zM229.047 722.86c31.356 0 56.865 25.509 56.865 56.865s-25.509 56.866-56.865 56.866c-31.356 0-56.866-25.51-56.866-56.866s25.51-56.865 56.866-56.865zM740.843 97.329c-20.904 0-37.911-17.005-37.911-37.909s17.008-37.911 37.911-37.911c20.904 0 37.909 17.008 37.909 37.911s-17.005 37.909-37.909 37.909zM475.478 221.114h341.192v-37.911h-341.192v37.911zM878.262 798.681c7.852 0 14.217 6.365 14.217 14.216s-6.365 14.216-14.217 14.216c-7.852 0-14.215-6.365-14.215-14.216s6.363-14.216 14.215-14.216zM593.943 827.101c7.852 0 14.217 6.365 14.217 14.216s-6.365 14.216-14.217 14.216c-7.852 0-14.215-6.365-14.215-14.216s6.363-14.216 14.215-14.216zM120.057 637.545c7.852 0 14.216 6.365 14.216 14.217 0 7.85-6.365 14.215-14.216 14.215s-14.216-6.365-14.216-14.215c0-7.852 6.365-14.217 14.216-14.217zM129.535 372.18c7.852 0 14.216 6.365 14.216 14.217s-6.365 14.217-14.216 14.217c-7.852 0-14.216-6.365-14.216-14.217s6.365-14.217 14.216-14.217zM385.422 116.282c7.85 0 14.215 6.365 14.215 14.217s-6.365 14.217-14.215 14.217c-7.852 0-14.217-6.365-14.217-14.217s6.365-14.217 14.217-14.217zM518.102 59.432c7.852 0 14.217 6.365 14.217 14.215 0 7.852-6.365 14.217-14.217 14.217-7.85 0-14.215-6.365-14.215-14.217 0-7.85 6.365-14.215 14.215-14.215zM925.647 163.67c7.852 0 14.217 6.365 14.217 14.215 0 7.852-6.365 14.217-14.217 14.217-7.85 0-14.215-6.365-14.215-14.217 0-7.85 6.365-14.215 14.215-14.215zM404.375 722.851c7.852 0 14.217 6.365 14.217 14.217s-6.365 14.216-14.217 14.216c-7.852 0-14.217-6.365-14.217-14.216s6.365-14.217 14.217-14.217zM646.053 723.433c-76.065 0-142.587-50.157-163.738-122.64 25.402-24.469 39.536-57.872 40.49-92.086 42.126 8.816 71.636 37.267 92.274 74.668-10.042 8.692-16.414 21.511-16.414 35.803 0 26.131 21.257 47.388 47.388 47.388 26.128 0 47.388-21.257 47.388-47.388 0-15.465-7.473-29.189-18.97-37.839 0.012-4.301-0.931-8.581-2.874-12.556-27.543-56.357-66.749-93.426-116.524-110.166-14.131-4.752-29.026-7.778-44.451-9.081-8.332-18.001-20.252-33.496-35.167-46.024v-106.57h341.192v255.893c0.002 94.068-76.528 170.598-170.594 170.598zM667.213 600.253c4.503 5.032 7.266 11.65 7.266 18.916 0 15.679-12.753 28.435-28.432 28.435s-28.432-12.756-28.432-28.435c0-7.275 2.772-13.903 7.284-18.937 11.569 12.816 31.218 12.383 42.314 0.021zM488.955 448.822c-14.708 0.284-28.477 2.022-40.802 4.436-14.659-16.419-35.859-26.17-58.335-26.17-13.552 0-26.961 3.582-38.777 10.359-37.341 21.416-50.297 69.218-28.881 106.559 13.882 24.206 39.855 39.24 67.784 39.24 13.552 0 26.961-3.582 38.777-10.359 18.088-10.375 31.055-27.173 36.51-47.299 1.601-5.907 2.479-11.89 2.681-17.857 13.347-2.001 25.090-2.355 35.954-1.62-0.358 39.734-21.225 77.254-57.274 97.932-17.257 9.898-36.827 15.13-56.595 15.13-40.79 0-78.72-21.955-98.988-57.295-24.301-42.37-18.951-95.441 13.312-132.068 2.683-3.044 3.128-7.461 1.11-10.978l-135.613-236.446 4.532-36.72 108.702 189.531c2.607 4.541 8.397 6.109 12.937 3.505 4.541-2.602 6.109-8.394 3.507-12.935l-108.703-189.531 33.983 14.632 18.903 32.959c1.25 2.181 3.316 3.775 5.741 4.436l28.302 7.668-7.671 28.304c-1.368 5.050 1.617 10.256 6.67 11.627l28.302 7.668-7.671 28.304c-0.656 2.425-0.323 5.013 0.926 7.194l62.587 109.126c1.978 3.451 5.9 5.299 9.816 4.627 6.281-1.071 12.7-1.615 19.086-1.615 40.788 0 78.72 21.953 98.988 57.295 0.067 0.119 0.128 0.242 0.198 0.363zM389.911 530.274c4.366 0 8.681-1.154 12.481-3.33 0.635-0.368 1.245-0.763 1.839-1.175 4.157-0.112 8.294-1.119 12.016-2.993 0.14-0.067 12.968-6.267 32.393-11.169-0.337 3.016-0.88 6.030-1.69 9.016-4.131 15.241-13.947 27.96-27.646 35.814-8.951 5.132-19.098 7.848-29.345 7.848-21.157 0-40.83-11.387-51.342-29.715-16.214-28.276-6.407-64.47 21.869-80.687 8.951-5.134 19.098-7.845 29.345-7.845 13.361 0 26.105 4.571 36.34 12.542-19.91 5.765-33.040 12.165-35.526 13.419-4.738 2.392-8.604 5.993-11.327 10.396-0.649 0.303-1.294 0.624-1.918 0.982-5.821 3.337-9.991 8.739-11.746 15.213-1.752 6.477-0.882 13.245 2.455 19.065 4.468 7.782 12.819 12.618 21.8 12.618zM543.155 494.601c-66.695-22.514-134.602 10.843-135.438 11.257-4.666 2.351-10.366 0.477-12.721-4.194-2.36-4.673-0.482-10.373 4.189-12.73 2.264-1.143 42.789-21.197 93.968-21.197 17.734 0 36.75 2.411 55.889 8.848 44.793 15.062 80.298 48.884 105.535 100.522 2.299 4.703 0.351 10.377-4.352 12.677-4.708 2.299-10.38 0.349-12.679-4.354-22.898-46.855-54.656-77.414-94.392-90.829z" />
<glyph unicode="&#xe911;" glyph-name="hotel-service-1" d="M505.598 4.687c16.42 0 29.729 13.309 29.729 29.729s-13.309 29.729-29.729 29.729c-16.417 0-29.729-13.309-29.729-29.729s13.312-29.729 29.729-29.729zM922.244 4.687c16.42 0 29.729 13.309 29.729 29.729s-13.309 29.729-29.729 29.729c-16.417 0-29.729-13.309-29.729-29.729s13.312-29.729 29.729-29.729zM898.378 273.491h-364.874c-9.513 0-17.441-7.73-17.441-17.441v-103.061c0-9.711 7.928-17.441 17.441-17.441h364.874c9.711 0 17.441 7.73 17.441 17.441v103.061c0 9.711-7.73 17.441-17.441 17.441zM776.291 192.429c0-16.45-13.279-29.729-29.729-29.729h-61.242c-16.252 0-29.729 13.279-29.729 29.729v29.729h14.865v-29.729c0-8.126 6.739-14.865 14.865-14.865h61.242c8.126 0 14.865 6.739 14.865 14.865v29.729h14.865v-29.729zM893.225 237.023h-35.873v-23.585h-17.243v23.585h-248.138v-23.585h-17.438v23.585h-35.675v9.315h354.37l-0.003-9.315zM516.063 415.433v-103.061c0-9.711 7.928-17.441 17.441-17.441h364.874c9.711 0 17.441 7.73 17.441 17.441v103.061c0 9.711-7.73 17.441-17.441 17.441h-364.874c-9.513 0-17.441-7.73-17.441-17.441zM776.291 351.813c0-16.45-13.279-29.729-29.729-29.729h-61.242c-16.252 0-29.729 13.279-29.729 29.729v29.729h14.865v-29.729c0-8.126 6.739-14.865 14.865-14.865h61.242c8.126 0 14.865 6.739 14.865 14.865v29.729h14.865v-29.729zM538.855 405.722h354.37v-9.315h-35.873v-23.585h-17.243v23.585h-248.138v-23.585h-17.441v23.585h-35.675v9.315zM679.004 453.933h180.852c4.222 0 7.64 3.419 7.64 7.637v69.368c0 4.218-3.419 7.64-7.64 7.64h-180.852c-4.215 0-7.637-3.419-7.637-7.64v-23.74h-38.4v-21.884h38.4v-23.744c0.003-4.218 3.422-7.637 7.637-7.637zM955.369 119.494v434.837c0 121.491-92.16 221.777-211.076 237.238v21.999h-60.647v-21.801c-120.303-14.072-213.851-115.15-213.851-237.437v-41.621c3.766 0.793 7.333 1.189 11.297 1.189 2.775 0 5.748-0.198 8.522-0.793v41.224c0 121.295 100.088 219.797 222.968 219.797 123.078 0 222.968-98.502 222.968-219.797v-434.837h-445.935v275.885c-6.739-1.387-13.279-2.775-19.819-3.766v-272.12h-29.729v-34.287h547.609v34.287h-32.306zM713.896 834.207c15.049 0 27.252 12.201 27.252 27.252s-12.202 27.252-27.252 27.252c-15.049 0-27.252-12.201-27.252-27.252s12.202-27.252 27.252-27.252zM244.641 419.361c-0.198 0-0.198 0.198-0.396 0.198-54.305 35.873-66.197 84.232-67.98 93.547-6.342 32.306 14.666 63.422 46.972 69.764 3.766 0.793 7.531 1.192 11.297 1.192 27.747 0 52.125-19.624 58.071-46.774 0 0 0.595-1.387 1.784-3.369-1.189 19.225-10.504 37.855-26.954 50.539-30.324 23.387-73.728 17.837-97.313-12.486-109.205-141.51-62.827-285.597-60.845-291.741 4.794-14.283 13.86-25.973 25.27-34.185-8.693-74.009-65.455-167.589-90.521-201.794-12.928-17.652-9.125-42.456 8.507-55.402 17.701-12.982 42.497-9.081 55.383 8.466 11.236 15.281 85.055 118.797 103.122 223.179 24.697-38.962 49.82-101.198 59.623-198.715 2.188-21.775 21.484-37.733 43.402-35.47 21.774 2.187 37.664 21.62 35.467 43.401-14.923 148.53-63.861 231.649-105.493 276.668-1.157 19.823-17.717 52.647 0.606 112.98zM519.753 462.775c-4.654 21.395-25.858 34.981-47.157 30.297-174.668-38.030-198.010 35.12-199.365 39.999-4.616 20.942-25.113 34.453-46.278 30.376-21.494-4.188-35.526-24.996-31.344-46.48 0.957-4.899 10.712-48.726 59.565-80.886 65.713-43.246 157.165-37.264 234.282-20.467 21.395 4.658 34.955 25.772 30.297 47.16zM293.987 635.199c43.784 0 79.277 35.494 79.277 79.277s-35.494 79.277-79.277 79.277c-43.784 0-79.277-35.493-79.277-79.277s35.494-79.277 79.277-79.277z" />
<glyph unicode="&#xe912;" glyph-name="location-1" d="M358.47 369.579c0 5.327 4.318 9.643 9.643 9.643h146.332l-61.385 96.411h-153.855l-33.937-212.108h93.201v106.054zM225.171 12.847h94.747v173.543h-66.98l-27.767-173.543zM175.304 570.231c-26.581 0-48.206-21.624-48.206-48.205s21.625-48.208 48.206-48.208c26.581 0 48.207 21.626 48.207 48.208s-21.625 48.205-48.207 48.205zM397.050 186.39h163.902v-173.543h-163.902v173.543zM549.586 379.222h230.667l-15.425 96.411h-153.852l-61.39-96.411zM818.825 138.183l-26.227 163.902h-356.989v-38.565h192.827c5.325 0 9.641-4.316 9.641-9.641v-115.697h180.748zM451.894 510.486c1.691-0.774 3.124-2.021 4.123-3.589l76.011-119.376 76.011 119.373c0.999 1.568 2.43 2.817 4.121 3.589 68.466 31.324 112.7 100.19 112.7 175.441 0 106.327-86.503 192.831-192.832 192.831s-192.832-86.504-192.832-192.831c0-75.252 44.234-144.114 112.697-175.439zM532.028 811.165c64.732 0 117.4-52.667 117.4-117.4s-52.666-117.4-117.4-117.4-117.4 52.666-117.4 117.4c0 64.733 52.666 117.4 117.4 117.4zM898.385 734.137c0 15.949-12.975 28.924-28.924 28.924s-28.924-12.975-28.924-28.924c0-15.949 12.975-28.923 28.924-28.923s28.924 12.975 28.924 28.923zM821.917 118.906h-193.476c-5.325 0-9.641 4.316-9.641 9.641v115.697h-192.827c-5.325 0-9.641 4.316-9.641 9.641v57.849c0 5.325 4.316 9.641 9.641 9.641h363.547l-6.169 38.565h-405.586v-106.054c0-5.325-4.313-9.641-9.641-9.641h-105.932l-6.169-38.565h73.536c5.325 0 9.641-4.316 9.641-9.643v-183.184h38.565v183.184c0 5.327 4.318 9.643 9.643 9.643h183.184c5.327 0 9.643-4.316 9.643-9.643v-183.184h38.565v57.846c0 5.327 4.316 9.643 9.641 9.643h199.645l-6.169 38.565zM638.074 61.048v-48.205h200.801l-7.712 48.205h-193.089zM903.218 232.783c7.987 0 14.461 6.476 14.461 14.463s-6.474 14.461-14.461 14.461c-7.987 0-14.461-6.474-14.461-14.461s6.474-14.463 14.461-14.463zM826.071 570.236c7.987 0 14.463 6.474 14.463 14.461s-6.476 14.461-14.463 14.461c-7.987 0-14.461-6.474-14.461-14.461s6.474-14.461 14.461-14.461zM199.389 734.137c7.987 0 14.462 6.475 14.462 14.462s-6.475 14.462-14.462 14.462c-7.987 0-14.462-6.475-14.462-14.462s6.475-14.462 14.462-14.462zM122.267 309.917c7.987 0 14.462 6.476 14.462 14.463 0 7.985-6.475 14.461-14.462 14.461s-14.462-6.476-14.462-14.461c0-7.987 6.475-14.463 14.462-14.463zM170.462 146.015c7.987 0 14.462 6.476 14.462 14.463 0 7.985-6.475 14.461-14.462 14.461s-14.462-6.476-14.462-14.461c0-7.987 6.475-14.463 14.462-14.463z" />
<glyph unicode="&#xe913;" glyph-name="luggage-2" d="M639.113 850.935c0 9.556 7.775 17.333 17.332 17.333h100.147c9.557 0 17.332-7.777 17.332-17.333v-103.259h57.78v103.259c0 41.417-33.693 75.111-75.112 75.111h-100.147c-41.419 0-75.112-33.694-75.112-75.111v-103.259h57.78v103.259zM370.132-2.257c-12.623 19.615-19.91 42.834-19.91 67.41v433.11h-263.852c-37.168 0-67.407-30.238-67.407-67.406v-365.705c0-33.898 25.155-62.020 57.778-66.708v-29.582c0-15.955 12.934-28.888 28.889-28.888s28.889 12.933 28.889 28.888v28.884l235.614-0.004zM134.519 392.336c0 15.955 12.934 28.892 28.889 28.892s28.889-12.937 28.889-28.892v-288.666c0-15.955-12.934-28.888-28.889-28.888s-28.889 12.933-28.889 28.888v288.666zM288.593 601.528c0 9.556 7.777 17.333 17.333 17.333h44.296v3.63c0 19.384 4.429 37.752 12.33 54.147h-56.626c-41.417 0-75.111-33.694-75.111-75.111v-45.481h57.778v45.481zM937.631 689.893h-462.222c-37.171 0-67.41-30.239-67.41-67.407v-557.333c0-33.898 25.156-62.020 57.776-66.708v-29.582c0-15.955 12.937-28.888 28.892-28.888 15.952 0 28.888 12.933 28.888 28.888v28.884h365.925v-28.884c0-15.955 12.937-28.888 28.888-28.888 15.955 0 28.892 12.933 28.892 28.888v29.582c32.62 4.688 57.776 32.81 57.776 66.708v557.333c0 37.17-30.238 67.407-67.406 67.407zM581.332 103.671c0-15.955-12.933-28.888-28.888-28.888s-28.888 12.933-28.888 28.888v480.297c0 15.954 12.933 28.889 28.888 28.889s28.888-12.935 28.888-28.889v-480.297zM860.592 74.782c-15.955 0-28.888 12.933-28.888 28.888v480.297c0 15.954 12.933 28.889 28.888 28.889s28.888-12.935 28.888-28.889v-480.297c0-15.955-12.933-28.888-28.888-28.888z" />
<glyph unicode="&#xe914;" glyph-name="paper-plane-solid-1" d="M963.939 892.073c18.855-13.067 28.747-35.653 25.197-58.24l-119.467-776.537c-2.799-18.104-13.81-33.969-29.867-42.933-16.049-8.957-35.273-10.076-52.265-2.983l-223.252 92.774-127.867-138.322c-16.613-18.104-42.747-24.078-65.707-15.121-22.959 8.963-37.893 31.177-37.893 55.815v156.051c0 7.468 2.8 14.561 7.84 19.975l312.853 341.415c10.826 11.76 10.454 29.867-0.747 41.066s-29.306 11.947-41.066 1.307l-379.68-337.305-164.827 82.505c-19.787 9.893-32.48 29.68-33.040 51.707s11.013 42.56 30.053 53.573l836.265 477.867c19.975 11.387 44.612 10.267 63.468-2.613z" />
<glyph unicode="&#xe915;" glyph-name="photo-camera-1" d="M878.618 699.411h-100.569l-55.521 83.806c-20.952 31.427-57.617 50.284-95.329 50.284h-230.466c-37.712 0-74.377-18.856-95.328-50.284l-55.521-83.806h-100.567c-63.902 0-115.233-51.331-115.233-115.232v-406.457c0-63.902 51.331-115.232 115.233-115.232h733.302c63.898 0 115.234 51.33 115.234 115.232v406.457c0 63.902-51.337 115.232-115.234 115.232zM511.966 156.769c-143.517 0-259.797 116.28-259.797 259.797s116.28 258.75 259.797 258.75c143.517 0 259.797-116.28 259.797-259.797 0-142.47-116.28-258.75-259.797-258.75zM863.949 537.038c-1.050 0-2.091 0-4.19 0h-41.903c-18.856 1.048-33.522 16.761-32.474 35.617 1.048 17.809 14.666 31.427 32.474 32.474h41.903c18.859 1.048 34.569-13.618 35.618-32.474s-12.57-34.569-31.428-35.617zM511.981 560.084c-79.615 0-144.565-64.95-144.565-144.565s64.95-143.517 144.565-143.517c79.615 0 144.565 64.949 144.565 144.564s-64.95 143.518-144.565 143.518z" />
<glyph unicode="&#xe916;" glyph-name="pin-2" d="M512.014 739.875c-104.823 0-190.105-85.282-190.105-190.106 0-104.822 85.282-190.107 190.105-190.107 104.825 0 190.106 85.285 190.106 190.107 0 104.824-85.281 190.106-190.106 190.106zM512.014 439.706c-60.687 0-110.061 49.375-110.061 110.063s49.374 110.062 110.061 110.062c60.691 0 110.061-49.374 110.061-110.062s-49.371-110.063-110.061-110.063zM512.005 960c-226.204 0-410.232-184.030-410.232-410.23v-11.34c0-114.401 65.588-247.712 194.948-396.224 93.776-107.664 186.244-182.737 190.131-185.884l25.153-20.322 25.149 20.322c3.891 3.146 96.358 78.215 190.134 185.879 129.354 148.517 194.946 281.828 194.946 396.227v11.34c0 226.202-184.027 410.232-410.228 410.232zM842.189 538.428c0-193.331-249.102-427.361-330.184-498.404-81.108 71.066-330.188 305.087-330.188 498.404v11.34c0 182.064 148.122 330.186 330.188 330.186 182.063 0 330.184-148.122 330.184-330.186v-11.34z" />
<glyph unicode="&#xe917;" glyph-name="right-arrow-1" d="M921.6 550.4l-71.68-71.68-286.72 286.72v-829.44h-102.4v829.44l-286.72-286.72-71.68 71.68 409.6 409.6 409.6-409.6z" />
<glyph unicode="&#xe918;" glyph-name="shield-1" d="M584.674 490.913l-126.429-126.434c-3.766-3.769-9.88-3.759-13.637 0l-26.027 26.032c-5.132 5.132-11.956 7.957-19.214 7.957-15.048 0-27.173-12.181-27.173-27.171 0-7.258 2.827-14.079 7.96-19.211l71.273-71.273 171.675 171.672c10.622 10.622 10.625 27.805 0 38.427-10.615 10.617-27.805 10.622-38.427 0zM720.839 585.273c-69.487 3.644-126.312 34.049-162.287 59.484-27.571 19.491-47.034 38.705-56.942 49.339-9.905-10.635-29.371-29.848-56.939-49.339-35.977-25.435-92.802-55.84-162.289-59.484l-11.813-126.954c-7.545-81.128 28.747-161.235 94.715-209.061l136.327-98.846 136.329 98.846c65.966 47.826 102.255 127.935 94.708 209.061l-11.808 126.954zM520.891 556.424c10.647 0 19.284-8.632 19.284-19.281s-8.637-19.284-19.284-19.284c-10.65 0-19.281 8.634-19.281 19.284 0 10.647 8.632 19.281 19.281 19.281zM347.348 546.784h115.695c5.327 0 9.643-4.316 9.643-9.641 0-5.327-4.316-9.641-9.643-9.641h-115.695c-5.325 0-9.641 4.313-9.641 9.641 0 5.322 4.316 9.641 9.641 9.641zM337.708 479.294c0 5.325 4.316 9.641 9.641 9.641h77.13c5.327 0 9.643-4.316 9.643-9.641s-4.316-9.641-9.643-9.641h-77.13c-5.325 0-9.641 4.316-9.641 9.641zM636.718 438.859l-178.491-178.491c-1.883-1.883-4.351-2.825-6.818-2.825s-4.935 0.942-6.818 2.825l-78.091 78.091c-18.15 18.152-18.157 47.536 0.002 65.696 18.147 18.147 47.536 18.152 65.693 0l19.214-19.216 119.613 119.616c18.155 18.155 47.539 18.16 65.696 0 8.774-8.774 13.609-20.44 13.609-32.848s-4.835-24.071-13.609-32.848zM752.305 778.16c26.579 0 48.205 21.625 48.205 48.206s-21.626 48.207-48.205 48.207c-26.582 0-48.208-21.625-48.208-48.207s21.626-48.206 48.208-48.206zM347.356 845.654c10.65 0 19.284 8.633 19.284 19.283s-8.634 19.283-19.284 19.283c-10.65 0-19.284-8.633-19.284-19.283s8.634-19.283 19.284-19.283zM115.966 729.959c10.65 0 19.283 8.633 19.283 19.283s-8.633 19.283-19.283 19.283c-10.649 0-19.283-8.633-19.283-19.283s8.633-19.283 19.283-19.283zM906.55 691.397c10.65 0 19.284 8.634 19.284 19.283s-8.634 19.283-19.284 19.283c-10.647 0-19.281-8.633-19.281-19.283s8.634-19.283 19.281-19.283zM826.87 689.739c-0.452 4.885-4.503 8.649-9.411 8.746l-85.706 1.693c-81.743 1.613-143.842 70.182-148.463 75.415l-73.026 95.22c-3.816 4.975-11.319 5.050-15.225 0.098l-74.989-95.216c-4.273-4.859-66.458-73.894-148.557-75.517l-85.708-1.693c-4.905-0.097-8.955-3.861-9.41-8.746l-20.536-220.747c-11.298-121.474 43.043-241.422 141.814-313.032l198.314-143.785c3.374-2.448 7.942-2.448 11.316 0l198.316 143.785c98.766 71.61 153.1 191.558 141.807 313.034l-20.535 220.744zM649.271 233.649l-141.991-102.947c-1.688-1.226-3.671-1.836-5.657-1.836s-3.974 0.609-5.659 1.836l-141.991 102.947c-71.455 51.804-110.766 138.577-102.595 226.456l12.598 135.39c0.455 4.885 4.506 8.649 9.411 8.744 131.112 2.592 219.883 109.401 220.764 110.479 1.831 2.243 4.573 3.544 7.468 3.544h0.007c2.897-0.002 5.642-1.303 7.47-3.55 0.877-1.072 89.645-107.88 220.759-110.473 4.905-0.095 8.956-3.861 9.411-8.746l12.59-135.388c8.18-87.877-31.132-174.649-102.585-226.456z" />
<glyph unicode="&#xe919;" glyph-name="spa-1" d="M308 752.002c0 44.64 48 115.68 50.080 118.72 1.165 1.526 2.666 2.762 4.386 3.614 1.722 0.851 3.614 1.294 5.534 1.294s3.813-0.443 5.534-1.294c1.72-0.851 3.221-2.088 4.386-3.614 2.080-3.040 50.080-74.080 50.080-118.72 0-15.914-6.322-31.174-17.573-42.427-11.253-11.251-26.514-17.573-42.427-17.573s-31.174 6.322-42.427 17.573c-11.251 11.253-17.573 26.514-17.573 42.427zM448 500.002c-20.157 0-39.488-8.008-53.741-22.259-14.253-14.253-22.259-33.584-22.259-53.741s8.006-39.488 22.259-53.741c14.253-14.253 33.584-22.259 53.741-22.259h320c11.643 0.083 22.787 4.746 31.021 12.979s12.896 19.378 12.979 31.021c-0.066 6.963-1.763 13.813-4.96 20h-309.76c-3.182 0-6.235 1.264-8.485 3.515s-3.515 5.302-3.515 8.485 1.264 6.235 3.515 8.485c2.25 2.251 5.302 3.515 8.485 3.515h309.76c3.197 6.187 4.894 13.037 4.96 20 0 11.669-4.635 22.861-12.888 31.112-8.251 8.253-19.443 12.888-31.112 12.888h-320zM497.28 272.002h311.36c4.786 5.56 7.4 12.664 7.36 20 0 8.486-3.371 16.626-9.373 22.627s-14.141 9.373-22.627 9.373h-348c-16.974 0-33.253-6.742-45.254-18.746-12.003-12.002-18.746-28.28-18.746-45.254s6.742-33.253 18.746-45.254c12.002-12.003 28.28-18.746 45.254-18.746h348c6.013 0.034 11.896 1.762 16.973 4.984 5.077 3.224 9.142 7.813 11.731 13.24 2.589 5.429 3.595 11.475 2.906 17.45-0.691 5.974-3.051 11.632-6.81 16.326h-311.52c-3.182 0-6.235 1.264-8.485 3.515s-3.515 5.302-3.515 8.485 1.264 6.235 3.515 8.485c2.25 2.251 5.302 3.515 8.485 3.515zM704 656.002c-6.549 11.723-14.678 22.491-24.16 32-2.2 1.968-5.048 3.056-8 3.056s-5.8-1.088-8-3.056c-9.368-9.53-17.389-20.296-23.84-32 11.822-5.109 22.654-12.258 32-21.12 9.346 8.862 20.178 16.011 32 21.12zM668.8 524.002h6.4c28.12-0.622 55.475 9.181 76.8 27.52 29.92 29.92 27.52 79.040 27.52 81.12-0.189 2.95-1.446 5.733-3.538 7.822-2.090 2.091-4.872 3.349-7.822 3.538-29.219 1.155-57.813-8.662-80.16-27.52-6.536-6.408-11.946-13.874-16-22.080-4.054 8.206-9.464 15.672-16 22.080-29.92 29.92-79.040 27.52-81.12 27.52-2.95-0.189-5.733-1.446-7.822-3.538-2.091-2.090-3.349-4.872-3.538-7.822 0-2.080-2.4-51.2 27.52-81.12 21.573-18.565 49.312-28.382 77.76-27.52zM288 20.002h448c13.666 0.067 27.061 3.818 38.774 10.858 11.714 7.038 21.312 17.107 27.786 29.142h-581.12c6.474-12.035 16.072-22.104 27.786-29.142 11.714-7.040 25.109-10.79 38.774-10.858zM348 260.002c-0.221 16.347 4.261 32.413 12.914 46.285 8.651 13.87 21.109 24.963 35.886 31.955-18.739 11.238-33.283 28.306-41.405 48.592s-9.376 42.674-3.57 63.739c5.806 21.067 18.354 39.651 35.722 52.912 17.368 13.259 38.602 20.466 60.453 20.517h76v84c0 11.669-4.635 22.861-12.888 31.112-8.251 8.253-19.443 12.888-31.112 12.888h-100v17.28c-3.958-0.75-7.971-1.179-12-1.28-4.029 0.101-8.042 0.53-12 1.28v-17.28h-100c-11.669 0-22.861-4.635-31.112-12.888-8.253-8.251-12.888-19.443-12.888-31.112v-412h163.84c-8.79 8.181-15.798 18.088-20.589 29.099s-7.259 22.893-7.251 34.901zM928 172.002h-832c-3.17-0.042-6.198-1.318-8.44-3.56s-3.519-5.27-3.56-8.44v-32c0-11.67 4.636-22.861 12.887-31.112 8.252-8.253 19.443-12.888 31.113-12.888h768c11.669 0 22.861 4.635 31.112 12.888 8.253 8.251 12.888 19.442 12.888 31.112v32c-0.042 3.17-1.318 6.198-3.56 8.44s-5.27 3.518-8.44 3.56z" />
<glyph unicode="&#xe91a;" glyph-name="sun-umbrella-1" d="M365.747 417.548l74.211 39.057-74.211 39.057 44.739 70.932-83.797-3.28 3.28 83.797-70.932-44.74-39.057 74.213-39.057-74.213-70.932 44.74 3.28-83.797-83.798 3.28 44.74-70.932-74.212-39.057 74.212-39.059-44.74-70.931 83.798 3.279-3.28-83.796 70.932 44.74 39.057-74.214 39.057 74.213 70.932-44.739-3.28 83.799 83.797-3.28-44.739 70.931zM219.979 346.615c-60.746 0-109.99 49.244-109.99 109.99 0 60.744 49.244 109.99 109.99 109.99s109.99-49.246 109.99-109.99c0-60.745-49.244-109.99-109.99-109.99zM921.318 21.187c-20.26-14.247-34.898-24.54-68.074-24.54s-47.816 10.293-68.077 24.54c-22.467 15.795-50.429 35.453-102.581 35.453s-80.113-19.659-102.579-35.453c-20.26-14.247-34.898-24.54-68.069-24.54s-47.811 10.291-68.070 24.54c-22.467 15.793-50.425 35.453-102.576 35.453-52.154 0-80.111-19.659-102.577-35.453-20.26-14.247-34.898-24.54-68.070-24.54s-47.808 10.291-68.068 24.54c-22.466 15.795-50.424 35.454-102.578 35.454v-59.993c33.17 0 47.81-10.293 68.070-24.54 22.466-15.793 50.426-35.454 102.576-35.454 52.153 0 80.112 19.661 102.578 35.454 20.26 14.246 34.898 24.54 68.069 24.54s47.809-10.293 68.069-24.54c22.465-15.793 50.425-35.454 102.574-35.454 52.151 0 80.113 19.659 102.579 35.454 20.26 14.246 34.898 24.54 68.070 24.54 33.174 0 47.814-10.293 68.076-24.54 22.467-15.795 50.429-35.454 102.583-35.454s80.113 19.659 102.579 35.454c20.263 14.244 34.901 24.54 68.077 24.54v59.993c-52.152 0-80.113-19.657-102.581-35.454zM992.901 740.883c-32.99 70.746-88.643 126.345-158.474 159.081l14.145 38.858-56.381 20.524-14.148-38.878c-163.011 43.144-335.495-44.71-394.266-206.178l-12.109-33.275 34.811-6.475c56.259-10.467 110.042-30.042 159.86-58.187l7.004-3.956 8.042 0.079c1.012 0.010 2.024 0.014 3.033 0.014 26.481 0 52.647-3.386 77.92-9.914l-139.786-384.058c-3.536 0.044-7.069 0.108-10.609 0.108-92.689 0-183.719-15.177-270.561-45.111-54.709-18.859-107.075-43.36-156.531-73.11 22.85-9.506 39.686-21.328 52.22-30.14 17.542-12.336 19.376-13.624 33.566-13.624 14.191 0 16.024 1.29 33.56 13.621 24.675 17.35 65.959 46.374 137.086 46.374 71.129 0 112.413-29.029 137.078-46.37 17.543-12.336 19.376-13.624 33.567-13.624s16.024 1.29 33.558 13.621c24.677 17.347 65.961 46.374 137.091 46.374 71.137 0 112.422-29.030 137.088-46.372 17.541-12.332 19.374-13.623 33.568-13.623s16.029 1.29 33.562 13.621c12.539 8.815 29.38 20.639 52.234 30.147-49.456 29.751-101.82 54.253-156.532 73.11-63.817 21.997-129.901 35.992-197.238 41.883l133.455 366.662c24.458-11.677 47.473-26.573 68.378-44.462l6.112-5.231 7.909-1.469c56.259-10.465 110.042-30.042 159.862-58.185l30.831-17.417 12.112 33.277c30.145 82.823 26.235 172.428-11.015 252.308z" />
<glyph unicode="&#xe91b;" glyph-name="swimming-pool-1" d="M970.659 211.846c0 12.631-7.379 24.022-18.857 29.184 0 0-42.625 19.2-81.239 36.566-47.743 21.504-103.039 18.263-147.968-8.704l-18.986-11.391c-30.422-18.263-68.394-18.263-98.774 0l-10.538 6.271c-50.646 30.422-113.962 30.422-164.608 0l-10.538-6.271c-30.379-18.263-68.352-18.263-98.774 0l-18.986 11.391c-44.927 26.967-100.224 30.208-147.968 8.704-38.613-17.366-81.237-36.566-81.237-36.566-11.477-5.162-18.859-16.553-18.859-29.184v-128.042c0-17.664 14.336-32 32-32h853.332c17.664 0 32 14.336 32 32v128.042zM885.319 662.873v64c0 31.104-12.375 60.971-34.346 82.987-22.016 21.973-51.883 34.347-82.989 34.347-64.81 0-117.333-52.523-117.333-117.333v-512c0-17.664 14.336-32 32-32s32 14.336 32 32v512c0 29.44 23.893 53.333 53.333 53.333 14.167 0 27.693-5.632 37.719-15.616 9.984-10.027 15.616-23.552 15.616-37.717v-64c0-17.664 14.336-32 32-32s32 14.336 32 32zM543.993 662.873v64c0 31.104-12.375 60.971-34.346 82.987-22.016 21.973-51.883 34.347-82.989 34.347-64.81 0-117.333-52.523-117.333-117.333v-512c0-17.664 14.336-32 32-32s32 14.336 32 32v512c0 29.44 23.893 53.333 53.333 53.333 14.167 0 27.693-5.632 37.719-15.616 9.984-10.027 15.616-23.552 15.616-37.717v-64c0-17.664 14.336-32 32-32s32 14.336 32 32zM682.659 566.869h-341.333c-17.664 0-32-14.336-32-32s14.336-32 32-32h341.333c17.664 0 32 14.336 32 32s-14.336 32-32 32zM682.659 417.543h-341.333c-17.664 0-32-14.336-32-32s14.336-32 32-32h341.333c17.664 0 32 14.336 32 32s-14.336 32-32 32zM938.659 694.869h-853.332c-17.664 0-32-14.336-32-32s14.336-32 32-32h853.332c17.664 0 32 14.336 32 32s-14.336 32-32 32z" />
<glyph unicode="&#xe91c;" glyph-name="tour-guide-1" d="M353.792 35.055h149.76v179.968h-149.76v-179.968zM398.848 184.303h59.904c5.888 0 10.496-4.864 10.496-10.496 0-5.888-4.864-10.496-10.496-10.496h-59.904c-5.888 0-10.496 4.864-10.496 10.496-0.256 5.632 4.608 10.496 10.496 10.496zM398.848 135.663h59.904c5.888 0 10.496-4.864 10.496-10.496 0-5.888-4.864-10.496-10.496-10.496h-59.904c-5.888 0-10.496 4.864-10.496 10.496-0.256 5.632 4.608 10.496 10.496 10.496zM398.848 87.023h59.904c5.888 0 10.496-4.864 10.496-10.496 0-5.888-4.864-10.5-10.496-10.5h-59.904c-5.888 0-10.496 4.868-10.496 10.5-0.256 5.888 4.608 10.496 10.496 10.496zM769.284 305.122c-8.96 13.568-35.072 47.872-81.664 71.68-20.48 10.24-40.192 16.64-58.624 19.968l-104.448-174.080v-198.144c0-5.888-4.864-10.496-10.496-10.496h-170.752c-5.888 0-10.496 4.864-10.496 10.496v198.144l-103.424 172.544c-16.128-3.584-33.536-9.472-51.2-18.432-46.848-23.808-72.704-58.112-81.664-71.68-10.752-16.384-18.688-33.536-25.6-55.808-26.112-83.2-29.952-212.224-30.208-273.664h134.656v178.944c0 5.888 4.864 10.496 10.496 10.496 5.888 0 10.496-4.864 10.496-10.496v-178.944h485.632v178.944c0 5.888 4.864 10.496 10.496 10.496 5.888 0 10.496-4.864 10.496-10.496v-178.944h121.344c-0.256 61.44-3.84 190.464-29.696 273.664-6.4 22.272-14.336 39.424-25.344 55.808zM508.177 236.254l98.304 163.84c-9.472 0.768-18.176 1.024-25.6 0.768l-144.384-128.768c-4.096-3.584-10.238-3.584-14.334 0.256l-136.96 128.512c-9.728 0.256-20.992-0.256-33.536-1.792l97.792-163.072h158.718v0.256zM489.993 443.371c-8.448-3.84-18.432-7.68-30.208-10.496-7.68-1.792-19.968-3.84-35.329-3.84-10.752 0-22.784 1.024-35.84 3.84-6.144 1.28-17.664 4.352-31.744 10.752 0.512-3.328 0.768-7.168 0.512-11.776-0.512-23.808-8.96-45.056-14.592-56.32l86.273-81.152 80.384 71.68c-9.216 16.384-19.456 40.192-19.968 67.072 0 3.84 0.256 7.168 0.512 10.24zM587.785 716.775c-5.632 11.008-15.872 31.488-37.12 58.368-8.96 11.264-12.544 15.104-15.104 17.664-2.304 2.304-8.704 8.192-17.664 14.592l-0.512 0.256c-0.256 0.256-0.512 0.256-0.768 0.512-5.632-7.68-12.288-13.824-20.224-18.688-18.688-11.776-37.632-11.264-52.736-10.752h-1.024c-0.512 0-49.407 1.024-101.631-2.56-37.888-2.56-49.408-7.424-57.856-12.032-7.68-4.352-22.272-12.288-29.184-27.648-3.072-6.656-3.84-13.056-4.608-17.92-0.256-2.304-0.512-4.352-1.024-6.144-1.28-4.352-3.328-6.656-5.632-7.936-23.296-20.992-22.272-44.8-19.456-57.088 4.864-22.016 21.76-40.96 41.728-46.848 4.096-1.28 6.912-4.608 7.424-8.704 1.28-9.472 4.352-24.832 8.704-37.12 13.568-38.144 38.656-61.44 48.896-69.888 26.368-21.504 52.736-28.928 62.72-31.232 28.928-6.4 52.735-2.048 61.695 0 24.32 5.632 40.704 16.896 47.616 21.76 5.12 3.584 18.176 13.312 31.488 28.928 19.456 23.040 33.28 52.992 40.96 89.344 1.024 4.352 4.352 7.424 8.704 8.192 18.944 3.072 37.376 30.72 39.424 58.88 0.768 12.288-1.024 34.048-23.040 41.728-2.304 0.512-4.352 1.536-5.888 3.328-1.536 2.304-3.072 5.376-5.888 11.008zM236.805 748.521c10.24 19.456 27.648 29.184 36.352 33.792 13.056 7.168 28.416 12.032 66.56 14.592 53.248 3.584 103.168 2.56 103.68 2.56h1.024c13.568-0.256 27.648-0.768 40.96 7.68 6.912 4.352 12.8 10.496 17.664 18.176 1.792 3.072 4.608 5.12 8.192 5.888 1.024 0.256 2.048 0.256 2.816 0.256 5.376 0 10.496-3.072 15.616-6.656l0.512-0.256c9.984-6.912 17.152-13.568 20.48-16.64 3.584-3.584 7.936-8.192 16.896-19.712 17.408-22.016 27.904-40.192 34.56-52.48 4.096 10.496 8.192 23.040 8.96 28.16 1.792 13.056 2.56 18.944 1.024 25.6-2.56 11.264-8.704 18.944-13.056 24.064-5.376 6.4-10.24 10.24-19.968 17.408-7.168 5.376-11.264 7.936-14.592 9.728-4.096 2.304-7.68 4.608-12.544 9.728-8.192 8.448-12.544 16.64-18.688 28.416-2.56 4.864-4.096 8.448-5.376 11.264-1.792 4.352-2.56 5.888-4.864 8.448-2.56 2.816-6.656 6.656-16.384 10.496-17.664 7.168-35.328 7.936-51.968 7.424-23.296-0.512-40.192-1.28-65.28-6.4-31.488-6.4-74.24-15.36-110.080-49.92-20.736-20.224-30.464-40.704-33.024-46.592-4.864-11.52-12.544-35.328-9.216-64-0.256-0.512-0.256-0.768-0.256-1.024zM769.532 842.734v62.208c0 5.888-4.864 10.496-10.496 10.496-5.888 0-10.496-4.864-10.496-10.496v-465.663c0-5.888 4.864-10.496 10.496-10.496 5.888 0 10.496 4.864 10.496 10.496v237.823h215.040l-215.040 165.632z" />
<glyph unicode="&#xe91d;" glyph-name="travelling-1" d="M931.994-64c-44 1.999-64 44-67.999 65.999l-40.001 178.001c-22 13.999-70.001 50.001-114.001 87.999-94.001 80.001-94.001 106-94.001 114.001v200.001l-12-6.001-3.999-23.999v-1.999c-10-52-23.999-86.003-40.001-100.002-15.999-12-35.999-12-50.001-1.999-15.999 10-27.998 32-19.998 65.999l33.999 124.001c0 1.999 1.999 3.999 3.999 5.998l134.001 92.001c27.998 16 64 16 94.001 0 23.999-14 39.998-36 39.998-57.999v-296.001l152.002-138c1.999-1.999 1.999-4.002 1.999-6.001l45.999-236v-1.999c0-18.001-6.001-33.999-15.999-45.999-18.001-16.001-42-18.001-48.001-18.001zM521.987-60.001c-7.998 0-17.998 2.002-25.999 6.001-16.001 8.001-28.001 20-33.999 37.998-6.001 16.001-6.001 34.002 1.999 48.001l141.999 310c0-1.999 0-1.999 1.999-3.999 20-32 56.002-64 86-88.002l8.001-7.998-119.999-264.001c-12-23.999-33.999-38.001-60.001-38.001zM883.987 490c-1.999 0-1.999 0-1.999 0l-62.001 1.999v114.001l68.002-1.999c15.999 0 29.998-6.001 39.998-18.001s16.001-26.002 14.002-42c-2.002-30.001-28.001-54-58.002-54zM729.999 768c-51.998 0-96 42-96 96 0 52 44.002 96 96 96 54.003 0 96-44 96-96 0-54-41.997-96-96-96zM265.989-23.999c12 0 23.999 5.998 32 15.999l210.001 274.001c5.998 8.001 7.998 18.001 5.998 28.001 0 9.997-5.998 19.998-13.999 25.999l-202 153.999c-6.001 4.002-13.999 8.001-22 8.001-12 0-24-5.998-30-15.999l-210-274.001c-10-12-10-28.001-4-42 10 8.001 24 12 36 12 16 0 30-3.999 40-13.999 14-10 24-26.002 26-44 2-10 0-22-4-32l26-20c12 8.001 26 12 40 12s28-3.999 40-13.999c14-10 22-26.002 26-42 0-10 0-20-4-30.001 4 0 6-1.999 8-1.999zM149.99 182c-2 0-6 1.999-8 3.999-4 4.002-6 10-2 16.001l124 160c4 5.998 10.001 5.998 15.999 1.999 6.001-3.999 6.001-10 2.002-15.999l-122.001-160c-4-4.002-6-6.001-10-6.001zM269.988 89.999c-1.999 0-5.999 2.002-7.999 2.002-4 5.998-6 12-2 17.998l124 160c3.999 6.001 12 6.001 16.001 2.002 5.998-4.002 5.998-10 1.999-16.001l-122.002-160c-1.999-3.999-5.998-6.001-10-6.001zM209.99 136.001c-2 0-6 1.999-8 3.999-4 4.002-6 10-2 16.001l123.999 160c4.002 5.998 10 5.998 16.001 1.999 6.001-4.002 6.001-10 1.999-16.001l-122-160c-2-3.999-6-5.998-10-5.998zM67.998 54c-8 0-18 3.999-24 10-18 13.999-22 40.001-8 57.999 8 10 20 16.001 32 16.001 10 0 18-3.999 26-8.001 8-8.001 14-18.001 16-27.998 2-12.002-2-22-8-32-8-10-20-16.001-34-16.001zM195.998-42c-8 0-18 1.999-26 8.001-18 13.999-20 40.001-6 57.999 8 10 20 16.001 32 16.001 10 0 18-1.999 26-8.001s14-15.999 16-28.001c0-10-2-22-8-29.998-8-10-20-16.001-34-16.001zM353.999 459.997l58.002 78.002c7.998 10 23.999 12 33.999 3.999l82.001-62.001c9.997-10 12-23.999 3.999-33.999l-58.002-76-37.998 28.001 44 57.999-44 32-42-55.999-40.001 27.998z" />
<glyph unicode="&#xe91e;" glyph-name="travelling-2" d="M931.992-64c-44.002 2.001-64 44-68.001 66.001l-40 178c-21.999 14-70 50-114 88-93.999 80.001-93.999 106.001-93.999 114v200l-12-6-4.001-24v-2.001c-9.999-52-24-86.001-39.999-99.999-16.001-12-36.001-12-50.002-2.001-15.999 9.999-27.999 32-19.998 66.001l33.999 123.999c0 2.001 2.001 4.001 4.001 6l134 92.001c27.999 16.001 64 16.001 93.999 0 24-14 40-35.999 40-58v-296l152-137.999c2.001-2.001 2.001-4.001 2.001-6l46-236v-2.001c0-18-6.002-34.001-16.001-46-18-15.999-41.999-18-47.999-18zM521.98-60.001c-8 0-18 2.001-26 6-15.999 8-27.999 20-33.999 38-6 16.001-6 34.001 1.999 48.001l142 310.001c0-2.001 0-2.001 2.001-4.001 20-32 56-64 85.999-88l8-8-120-264c-12-24-34.001-38-60.001-38zM883.981 489.999c-2.001 0-2.001 0-2.001 0l-61.999 2.001v114l67.999-1.999c16.001 0 29.999-6 40-18.002 9.999-12 15.999-26 14-41.999-2.001-29.999-28.001-54.001-58-54.001zM730 768c-52 0-96 42-96 96 0 52 44 96 96 96 54.001 0 96-44 96-96 0-54-41.999-96-96-96zM265.984-24c12 0 24 6 32 15.999l210 274c6 8 8 18.002 6 28.001 0 9.999-6 20-14 26l-201.999 154c-6 3.999-14 8-22.001 8-12 0-24-6-29.999-16.001l-210-274c-10-12-10-28.001-4-41.999 10 7.999 24 12 36 12 16 0 30-4.001 40-14 14-10.001 24-26 26-44 2-10.001 0-22.001-4-32l26-20c12 8 26 12 40 12s27.999-3.999 40-14c13.998-9.999 21.999-26 25.998-41.999 0-10.001 0-20-3.999-30.001 3.999 0 6-1.999 8-1.999zM149.984 182.001c-2 0-6 1.999-8 3.999-4 3.999-6 9.999-2 15.999l124 160c4.001 6 10.001 6 16.001 2.001s6-9.999 1.999-15.999l-121.999-160c-4-4.001-6-6-10-6zM269.983 90c-1.999 0-6 2.001-8 2.001-3.999 6-6 12-1.999 18l123.999 160c4.001 6 12.002 6 16.001 2.001 6-4.001 6-10.001 2.001-16.001l-122-160c-2.001-3.999-6-6-10.001-6zM209.984 136c-2.001 0-6 1.999-8 3.999-4.001 4.001-6 10.001-2.001 16.001l124.001 160c3.999 6 9.999 6 15.999 1.999 6-3.999 6-9.999 2.001-15.999l-122-160c-2.001-4.001-6-6-9.999-6zM67.993 54.001c-8 0-18 3.999-24 9.999-18 14-22 40-8 58 8 9.999 20 15.999 32 15.999 10 0 18-3.999 26-7.999 8-8 14-18.002 16-28.001 2-12-2-21.999-8-32-8-9.999-20-15.999-34-15.999zM195.994-41.999c-8.001 0-18.001 1.999-26.001 7.999-18 14-20 40-6 58 8 10.001 20 16.001 32.001 16.001 9.999 0 18-2.001 25.998-8 8-6 14-15.999 16.001-28.001 0-9.999-2.001-21.999-8-29.999-8-9.999-20-15.999-33.999-15.999zM354.001 460l58 77.998c7.999 10.001 24 12 33.999 4.001l82.002-62.001c9.999-9.999 12-24 3.999-33.999l-58-76-38 27.999 44 58-44 32-42.001-56-39.999 28.001z" />
<glyph unicode="&#xe91f;" glyph-name="trolley-cart_4175270" d="M79.347 851.757h99.156l109.263-464.44c-23.828-1.95-45.976-13.053-61.795-30.979s-24.083-41.279-23.055-65.164c1.027-23.891 11.265-46.451 28.566-62.95s40.319-25.658 64.227-25.555h525.455c8.198 0 16.058 3.258 21.856 9.050 5.798 5.798 9.056 13.658 9.056 21.856s-3.258 16.064-9.056 21.856c-5.798 5.798-13.658 9.056-21.856 9.056h-525.455c-8.198 0-16.060 3.258-21.856 9.050-5.796 5.798-9.053 13.658-9.053 21.856s3.256 16.064 9.053 21.856c5.796 5.799 13.658 9.055 21.856 9.055h521.807c20.915-0.054 41.229 6.988 57.619 19.974 16.397 12.986 27.898 31.148 32.634 51.519l65.498 278.182c3.206 13.613 3.283 27.773 0.243 41.423-3.046 13.649-9.139 26.433-17.824 37.394s-19.731 19.816-32.326 25.903c-12.589 6.086-26.394 9.246-40.378 9.243h-626.434l-23.46 99.805c-1.596 6.785-5.439 12.831-10.904 17.157s-12.232 6.678-19.202 6.674h-123.636c-8.198 0-16.059-3.257-21.856-9.053s-9.053-13.658-9.053-21.856c0-8.198 3.256-16.060 9.053-21.856s13.658-9.053 21.856-9.053zM882.982 728.122c4.634-0.088 9.19-1.201 13.338-3.257 4.154-2.056 7.795-5.005 10.675-8.636s4.915-7.853 5.971-12.365c1.050-4.511 1.094-9.2 0.122-13.729l-65.53-278.182c-1.562-6.79-5.382-12.847-10.842-17.178s-12.23-6.676-19.2-6.653h-466.417l-80.116 340h611.999zM635.688 79.034c0-18.342 5.439-36.269 15.628-51.52s24.672-27.136 41.613-34.15c16.947-7.021 35.59-8.858 53.574-5.28 17.99 3.578 34.515 12.41 47.482 25.382 12.966 12.966 21.798 29.485 25.376 47.475 3.578 17.984 1.741 36.634-5.274 53.574-7.021 16.947-18.906 31.424-34.157 41.613-15.245 10.189-33.178 15.629-51.514 15.629-24.595 0-48.179-9.766-65.568-27.155-17.389-17.395-27.16-40.979-27.16-65.568zM759.322 79.034c0-6.118-1.811-12.090-5.21-17.178-3.392-5.082-8.224-9.043-13.869-11.379-5.645-2.342-11.866-2.957-17.856-1.76-5.997 1.19-11.507 4.134-15.827 8.461-4.326 4.32-7.27 9.824-8.461 15.821s-0.582 12.211 1.76 17.862c2.336 5.645 6.298 10.47 11.386 13.869 5.082 3.398 11.059 5.21 17.171 5.21 8.198 0 16.058-3.258 21.856-9.050 5.798-5.798 9.050-13.664 9.050-21.856zM295.688 79.034c0-18.342 5.438-36.269 15.627-51.52s24.671-27.136 41.615-34.15c16.944-7.021 35.588-8.858 53.576-5.28s34.51 12.41 47.478 25.382c12.968 12.966 21.8 29.485 25.378 47.475 3.578 17.984 1.741 36.634-5.277 53.574-7.018 16.947-18.904 31.424-34.152 41.613s-33.177 15.629-51.517 15.629c-24.593 0-48.179-9.766-65.568-27.155-17.39-17.395-27.159-40.979-27.159-65.568zM419.324 79.034c0-6.118-1.813-12.090-5.21-17.178-3.396-5.082-8.223-9.043-13.871-11.379-5.648-2.342-11.862-2.957-17.859-1.76-5.996 1.19-11.503 4.134-15.826 8.461-4.323 4.32-7.267 9.824-8.459 15.821s-0.58 12.211 1.759 17.862c2.339 5.645 6.301 10.47 11.384 13.869s11.059 5.21 17.172 5.21c8.198 0 16.060-3.258 21.856-9.050 5.796-5.798 9.053-13.664 9.053-21.856z" />
<glyph unicode="&#xe920;" glyph-name="vacuum-cleaner-1" d="M856.606 158.7v-87.641c-0.007-8.612-3.429-16.866-9.513-22.961-6.085-6.091-14.339-9.523-22.951-9.543h-338.197c-8.615 0.010-16.873 3.439-22.964 9.53s-9.517 14.349-9.53 22.964v87.651c-0.026 104.527 15.261 208.493 45.376 308.587v-222.363c0-86.135 70.071-156.206 156.196-156.206s156.236 70.071 156.236 156.206v222.373c30.112-100.098 45.39-204.067 45.347-308.597zM518.646 520.166v-275.241c0-75.205 61.182-136.387 136.377-136.387s136.417 61.182 136.417 136.387v275.241h-272.794zM577.113 395.621c-0.003 18.951 6.9 37.254 19.42 51.481s29.792 23.403 48.59 25.815v-154.591c-18.799 2.411-36.075 11.588-48.594 25.818s-19.423 32.533-19.416 51.487v-0.010zM655.033 155.153c-9.437 0-18.66 2.798-26.505 8.040s-13.959 12.691-17.57 21.408c-3.61 8.717-4.555 18.31-2.715 27.562 1.84 9.256 6.385 17.755 13.058 24.427 6.669 6.673 15.172 11.214 24.424 13.054 9.256 1.843 18.848 0.898 27.562-2.712 8.717-3.61 16.169-9.728 21.412-17.573s8.040-17.068 8.040-26.502c-0.003-12.651-5.031-24.781-13.976-33.726-8.948-8.945-21.081-13.969-33.729-13.969v-0.010zM664.943 318.355v154.551c18.835-2.362 36.16-11.518 48.723-25.749 12.559-14.234 19.492-32.563 19.492-51.547s-6.933-37.313-19.492-51.547c-12.562-14.23-29.888-23.39-48.723-25.749v0.040zM605.518 689.581h99.077v-149.586h-99.077v149.586zM236.279 143.343h87.205c18.271 0 35.794-7.26 48.713-20.179 12.922-12.919 20.179-30.443 20.179-48.713v-19.175h-224.99v19.175c0 18.27 7.259 35.794 20.178 48.713s30.443 20.179 48.714 20.179zM620.623 709.442h68.654c-1.982 67.574-57.605 121.889-125.655 121.889h-192.337c-69.309 0-125.705-56.396-125.705-125.724v-476.786h68.565v476.776c0.016 15.15 6.041 29.676 16.753 40.39s25.236 16.741 40.388 16.76h192.337c14.485-0.017 28.421-5.528 39.001-15.421s17.012-23.432 17.999-37.883zM236.285 163.163h87.205c7.352 0.007 14.676-0.905 21.801-2.715v48.557h-130.808v-48.557c7.126 1.81 14.45 2.722 21.801 2.715z" />
<glyph unicode="&#xe921;" glyph-name="video-camera-1-1" d="M575.233 731.104h-439.705c-57.995 0-105.445-47.45-105.445-105.445v-355.349c0-57.994 47.45-105.445 105.445-105.445h439.705c57.994 0 105.445 47.45 105.445 105.445v355.349c0 59.049-47.45 105.445-105.445 105.445zM915.84 673.114c-6.332-1.055-12.655-4.218-17.929-7.381l-164.495-94.9v-244.632l165.544-94.901c30.583-17.925 68.54-7.38 86.468 23.198 5.274 9.491 8.439 20.035 8.439 31.634v325.824c0 39.014-36.907 70.648-78.029 61.158z" />
<glyph unicode="&#xe922;" glyph-name="wedding-1" d="M890.403-14.201v74.801c7.002-2 14.4-3.001 21.601-4.401v-70.199h-21.601v-0.201zM943.203 429.599c-84.8 43.401-142.199 134.001-145.2 229.402h-92.999c2.999-92.401 62.8-179.802 147.399-216.4 28.601-12.8 59.401-19.8 90.6-21.601v8.6h0.199zM943.203 658.8h-122.8c3.001-82.999 51.001-162.399 122.8-203.8v203.8zM913.203 401.401c-18.399 2.999-36.4 7.6-54 14v-317.8c24.199-14.4 54.8-21.8 83.001-21.2l-29.001 325.001zM836.804 425c-4.601 2.2-9.401 4.4-13.601 7-13.199 7.199-25.6 15.6-37.199 24.6 0 0 0 0.199-0.201 0.199-5.4-61.199-15.6-178.399-20.999-239.398 20.999-18.801 45.2-33 72-41.801v249.401zM705.203 396.8c6.201-23.801 27.8-48.4 47.6-58.2l11.2 128.6 0.801 8c-12.8 12.2-23.801 26.2-34.401 40.4 0.201 0-25.2-118.8-25.2-118.8zM520.004 306.401c-4.001-4.401-11.8-4.401-16 0l-12.999 12.999c-39.601 41-111.801 10.8-110.8-46 0-17.401 6.8-33.6 18.999-46.001l112.801-112.799 112.799 112.799c41 39.201 10.6 112-46 110.8-23.799 1.2-43.8-14.599-58.8-31.799zM37.804-36.8v-25.2h948.4v25.2h-948.4zM133.404-14.201v74.801c-7-2-14.4-3.001-21.6-4.401v-70.199h21.6v-0.201zM271.003 338.6c20.2 10.2 41.2 34.6 47.6 58.2l-25.2 118.8c-10.6-14.201-21.4-28.2-34.399-40.4 2.598-29.4 9.399-106.401 11.999-136.6zM187.204 425v-249.2c26.8 9 51.001 22.799 71.801 41.799-5.8 67.6-15.201 171.999-20.8 239.4-16-12.4-32.801-23.6-51.001-32zM164.803 160.801c-0.2 0.199-0.2 254.599-0.2 254.599-17.6-6.4-35.6-11.2-54-14l-28.8-324.8c29.2-0.4 57.8 6.4 83 21.199v63.002zM80.604 658.8v-203.8c72.2 41.6 119.801 120.6 122.799 203.8h-122.799zM225.803 658.8c-2.999-95.4-60.199-185.799-145.199-229.4v-8.6c125.4 3.6 235.001 112.199 237.999 238h-92.8zM948.604 745.799h-873.401l436.8 212.201 436.601-212.201zM709.403 812l-192.6 93.6c-3.001 1.4-6.8 1.4-9.799 0l-192.602-93.6c-10.598-4.8-6.599-21.6 5.001-21.4h385.2c11.6-0.2 15.4 16.8 4.8 21.4zM986.203 723.399h-948.4v-41.999h948.4v41.999zM368.004 813.2h287.6l-143.799 70-143.801-70z" />
<glyph unicode="&#xe923;" glyph-name="wifi-1" d="M605.971 138.615c8.429 51.995-26.888 100.977-78.883 109.406-51.995 8.426-100.977-26.888-109.406-78.883-8.426-51.995 26.888-100.977 78.883-109.406s100.977 26.888 109.406 78.883zM995.53 637.311c-137.459 137.456-314.231 200.298-483.53 200.298s-346.072-62.842-483.53-200.298c-37.988-38.031-37.814-96.924-0.354-134.543 46.78-47.298 108.028-28.473 135.454-0.127 93.108 92.985 216.838 144.193 348.43 144.193s255.321-51.208 348.429-144.193c27.427-28.346 88.676-47.171 135.454 0.127 37.462 37.619 37.635 96.512-0.353 134.543zM511.987 543.394c-94.841 0-196.608-35.258-275.465-114.098-38.474-38.473-37.708-97.638 0.384-135.327 37.823-37.565 96.667-37.406 134.48 0.407 37.557 37.554 87.487 58.236 140.601 58.236 53.111 0 103.044-20.682 140.601-58.236 37.81-37.813 96.658-37.972 134.478-0.407 38.093 37.689 38.858 96.854 0.385 135.327-78.856 78.837-180.62 114.098-275.464 114.098z" />
<glyph unicode="&#xe924;" glyph-name="search" d="M73.376 54.624l232.288 232.294c-50.928 61.066-81.664 139.53-81.664 225.082 0 194.096 157.904 352 352 352 194.093 0 352-157.904 352-352 0-194.093-157.907-352-352-352-85.552 0-164.016 30.739-225.080 81.664l-232.296-232.294c-6.248-6.246-14.44-9.376-22.624-9.376s-16.376 3.13-22.624 9.376c-12.504 12.506-12.504 32.762 0 45.254zM864 512c0 158.8-129.184 288-288 288s-288-129.2-288-288c0-158.8 129.184-288 288-288s288 129.2 288 288z" />
<glyph unicode="&#xe925;" glyph-name="envelope1" horiz-adv-x="1331" d="M55.858 834.025c168.648-142.826 464.573-394.102 551.549-472.449 11.676-10.575 24.199-15.951 37.2-15.951 12.975 0 25.476 5.326 37.126 15.849 87.050 78.425 382.971 329.724 551.624 472.55 10.506 8.875 12.104 24.475 3.604 35.326-19.651 25.073-48.957 39.449-80.353 39.449h-1024c-31.399 0-60.701-14.376-80.35-39.451-8.501-10.848-6.9-26.448 3.6-35.323zM1244.15 756.625c-9.073 4.224-19.753 2.75-27.3-3.701-187.023-158.548-425.725-361.776-500.826-429.448-42.151-38.050-100.651-38.050-142.9 0.050-80.050 72.124-348.102 300-500.775 429.401-7.601 6.451-18.3 7.875-27.3 3.701-9.048-4.202-14.849-13.253-14.849-23.227v-643.8c0-56.477 45.924-102.401 102.401-102.401h1023.997c56.474 0 102.4 45.924 102.4 102.401v643.8c0 9.975-5.796 19.048-14.848 23.224z" />
<glyph unicode="&#xe926;" glyph-name="map-pin" d="M536.5 960c-101.802-0.135-199.395-40.635-271.38-112.62s-112.486-169.578-112.62-271.38c0-275.68 357.76-620.962 372.96-635.52 2.957-2.876 6.917-4.48 11.040-4.48s8.084 1.604 11.040 4.48c15.2 14.558 372.96 359.84 372.96 635.52-0.137 101.802-40.636 199.395-112.62 271.38s-169.578 112.485-271.38 112.62v0zM536.5 400c-34.809 0-68.838 10.322-97.78 29.661s-51.502 46.827-64.823 78.987c-13.321 32.16-16.806 67.547-10.016 101.687s23.554 65.501 48.167 90.115c24.614 24.614 55.974 41.376 90.115 48.167s69.528 3.306 101.687-10.016c32.16-13.321 59.647-35.879 78.987-64.823s29.661-62.971 29.661-97.78c-0.028-46.67-18.58-91.419-51.58-124.42s-77.751-51.552-124.42-51.58z" />
<glyph unicode="&#xe927;" glyph-name="phone" d="M594.299 649.13c30.254 0 60.846-11.478 84.096-34.73 23.255-23.254 34.734-53.846 34.734-84.096 0-17.664 14.336-32 32-32s32 14.336 32 32c0 46.549-17.664 93.568-53.463 129.365-35.799 35.755-82.816 53.462-129.367 53.462-17.664 0-32-14.336-32-32s14.336-32 32-32zM594.427 800c68.992 0.298 137.943-26.112 190.72-78.848 52.736-52.779 79.15-121.729 78.848-190.721-0.082-17.664 14.208-32.042 31.831-32.128 17.664-0.085 32.087 14.166 32.169 31.83 0.384 85.462-32.256 170.923-97.618 236.246-65.326 65.366-150.784 98.006-236.247 97.622-17.664-0.086-31.913-14.507-31.831-32.171 0.087-17.621 14.464-31.914 32.128-31.829zM543.063 209.705c8.146-4.864 18.514-4.096 25.856 2.007 23.040 19.2 73.385 61.143 101.76 84.777 12.498 10.414 29.696 13.23 44.841 7.296 66.217-25.385 132.48-37.929 198.697-37.417 11.991 0.256 23.552-4.311 32.128-12.672 8.576-8.407 13.399-19.84 13.399-31.831 0.256-49.49 0.256-126.802 0.256-174.546 0-23.767-18.601-43.392-42.327-44.718-23.209-1.28-47.273-2.601-47.273-2.601-445.056 0-806.4 361.344-806.4 806.4 0 0 1.322 24.064 2.602 47.274 1.323 23.723 20.95 42.326 44.715 42.326h176.128c24.576 0 44.544-19.84 44.757-44.416 1.28-66.902 14.038-133.802 36.864-200.704 5.163-14.806 2.134-31.232-7.893-43.264-23.424-28.246-66.048-79.402-85.462-102.698-6.144-7.296-6.954-17.707-2.048-25.899 67.456-111.362 157.994-201.898 269.399-269.314z" />
<glyph unicode="&#xe928;" glyph-name="youtube" d="M960.749 661.25c20.998-73.5 20.998-231 20.998-231s0-155.75-20.998-231c-10.496-42.002-43.75-73.503-84-83.999-75.251-19.251-372.749-19.251-372.749-19.251s-299.25 0-374.5 19.251c-40.25 10.496-73.5 41.997-84 83.999-21 75.25-21 231-21 231s0 157.5 21 231c10.5 42 43.75 75.25 84 85.75 75.25 21 374.5 21 374.5 21s297.498 0 372.749-21c40.25-10.5 73.504-43.75 84-85.75zM406 288.5l248.502 141.75-248.502 141.75v-283.5z" />
<glyph unicode="&#xe929;" glyph-name="pinterest-p" d="M517.333 895.733c175.467 0 336-121.333 336-306.133 0-173.6-89.6-367.733-287.467-367.733-48.534 0-106.4 24.269-130.666 67.2-41.066-168.003-39.2-194.135-132.534-322.934-9.333-3.734-7.466-3.734-13.066 3.734-3.734 35.465-7.467 69.065-7.467 104.53 0 113.869 52.267 280.003 78.4 390.136-14.933 29.867-18.667 63.467-18.667 95.2 0 149.333 175.466 171.733 175.466 48.534 0-72.8-50.4-141.867-50.4-212.8 0-46.666 41.067-80.267 87.734-80.267 128.8 0 168 184.8 168 283.733 0 132.533-93.334 205.333-222.134 205.333-147.466 0-261.333-106.4-261.333-255.733 0-72.8 44.8-110.133 44.8-126.934 0-14.933-11.201-65.333-29.867-65.333-44.8 0-117.6 74.667-117.6 205.333 0 207.2 188.533 334.134 380.8 334.134z" />
<glyph unicode="&#xe92a;" glyph-name="x-twitter" d="M777.999 882.286h140.003l-308.002-354 364-478h-284l-224 290-254-290h-142l330 376-348 456h292l200-266 233.999 266zM728 134.283h77.998l-503.997 668.003h-84l510-668.003z" />
<glyph unicode="&#xe92b;" glyph-name="facebook-f" d="M725.6 371.2h-140.001v-418.133h-186.666v418.133h-153.067v171.733h153.067v132.534c0 149.333 89.6 233.333 225.866 233.333 65.334 0 134.4-13.067 134.4-13.067v-147.467h-76.533c-74.667 0-97.067-44.8-97.067-93.334v-112h166.134l-26.133-171.733z" />
<glyph unicode="&#xe92c;" glyph-name="telephone-call" d="M940.576 212.48c-27.968 23.456-192 127.328-219.264 122.56-12.8-2.272-22.592-13.184-48.8-44.448-12.122-15.386-25.427-29.798-39.808-43.104-26.343 6.362-51.842 15.814-75.968 28.16-94.615 46.064-171.052 122.524-217.088 217.152-12.344 24.126-21.796 49.625-28.16 75.968 13.303 14.378 27.716 27.688 43.104 39.808 31.232 26.208 42.176 35.936 44.448 48.8 4.768 27.328-99.2 191.296-122.56 219.264-9.792 11.584-18.688 19.36-30.080 19.36-33.024 0-182.4-184.704-182.4-208.64 0-1.952 3.2-194.24 246.048-441.312 247.072-242.848 439.36-246.048 441.312-246.048 23.936 0 208.64 149.376 208.64 182.4 0 11.392-7.776 20.288-19.424 30.080zM736 480h64c-0.077 67.872-27.072 132.942-75.066 180.935s-113.062 74.989-180.934 75.065v-64c50.906-0.051 99.712-20.296 135.706-56.292 36-35.996 56.243-84.802 56.294-135.708zM896 480h64c-0.128 110.291-43.994 216.029-121.984 294.016s-183.725 121.857-294.016 121.984v-64c93.322-0.11 182.79-37.231 248.781-103.22s103.11-155.458 103.219-248.78z" />
<glyph unicode="&#xe92d;" glyph-name="call" d="M941.836 287.861c-62.692 0-124.251 9.805-182.586 29.082-28.584 9.749-63.722 0.806-81.168-17.112l-115.139-86.917c-133.528 71.277-215.779 153.502-286.083 286.027l84.36 112.138c21.918 21.888 29.779 53.862 20.359 83.862-19.36 58.64-29.194 120.168-29.194 182.888 0.002 45.309-36.858 82.17-82.166 82.17h-188.053c-45.307 0-82.168-36.861-82.168-82.168 0-519.333 422.502-941.832 941.836-941.832 45.308 0 82.164 36.864 82.164 82.164v187.531c0 45.304-36.864 82.166-82.164 82.166z" />
<glyph unicode="&#xe92e;" glyph-name="envelope" horiz-adv-x="1331" d="M55.858 834.025c168.648-142.826 464.573-394.102 551.549-472.449 11.676-10.575 24.199-15.951 37.2-15.951 12.975 0 25.476 5.326 37.126 15.849 87.050 78.425 382.971 329.724 551.624 472.55 10.506 8.875 12.104 24.475 3.604 35.326-19.651 25.073-48.957 39.449-80.353 39.449h-1024c-31.399 0-60.701-14.376-80.35-39.451-8.501-10.848-6.9-26.448 3.6-35.323zM1244.15 756.625c-9.073 4.224-19.753 2.75-27.3-3.701-187.023-158.548-425.725-361.776-500.826-429.448-42.151-38.050-100.651-38.050-142.9 0.050-80.050 72.124-348.102 300-500.775 429.401-7.601 6.451-18.3 7.875-27.3 3.701-9.048-4.202-14.849-13.253-14.849-23.227v-643.8c0-56.477 45.924-102.401 102.401-102.401h1023.997c56.474 0 102.4 45.924 102.4 102.401v643.8c0 9.975-5.796 19.048-14.848 23.224z" />
<glyph unicode="&#xe92f;" glyph-name="pin" horiz-adv-x="853" d="M451.167 960c-101.802-0.135-199.395-40.635-271.38-112.62s-112.485-169.578-112.62-271.38c0-275.68 357.76-620.962 372.96-635.52 2.957-2.876 6.917-4.48 11.040-4.48s8.084 1.604 11.040 4.48c15.2 14.558 372.96 359.84 372.96 635.52-0.135 101.802-40.636 199.395-112.62 271.38s-169.578 112.485-271.38 112.62v0zM451.167 400c-34.809 0-68.838 10.322-97.78 29.661s-51.502 46.827-64.823 78.987c-13.321 32.16-16.806 67.547-10.016 101.687s23.554 65.501 48.167 90.115c24.614 24.614 55.974 41.376 90.115 48.167s69.528 3.306 101.687-10.016c32.16-13.321 59.647-35.879 78.987-64.823s29.661-62.971 29.661-97.78c-0.028-46.67-18.58-91.419-51.58-124.42s-77.751-51.552-124.42-51.58z" />
<glyph unicode="&#xe930;" glyph-name="right-arrow1" d="M796.453 487.956l-455.692 455.685c-10.54 10.548-24.61 16.359-39.611 16.359s-29.071-5.811-39.611-16.359l-33.559-33.55c-21.837-21.862-21.837-57.394 0-79.222l382.657-382.656-383.081-383.078c-10.54-10.547-16.359-24.613-16.359-39.607 0-15.009 5.819-29.067 16.359-39.629l33.559-33.536c10.548-10.555 24.609-16.362 39.611-16.362s29.071 5.808 39.611 16.362l456.117 456.098c10.565 10.582 16.367 24.709 16.334 39.728 0.033 15.077-5.77 29.196-16.334 39.769z" />
<glyph unicode="&#xe931;" glyph-name="left-arrow" d="M227.547 408.044l455.692-455.681c10.54-10.555 24.61-16.362 39.611-16.362s29.071 5.808 39.611 16.362l33.559 33.551c21.837 21.855 21.837 57.388 0 79.221l-382.656 382.654 383.081 383.081c10.54 10.548 16.359 24.61 16.359 39.603 0 15.010-5.819 29.071-16.359 39.627l-33.559 33.542c-10.548 10.548-24.609 16.359-39.611 16.359s-29.071-5.811-39.611-16.359l-456.117-456.101c-10.565-10.582-16.367-24.709-16.334-39.728-0.033-15.077 5.769-29.196 16.334-39.769z" />
<glyph unicode="&#xe932;" glyph-name="comma" d="M434.24 428.8v-307.52h-307.521v323.52c0 156.16 122.88 284.161 276.801 292.481v-71.040c-114.881-8.32-205.761-104.321-205.761-221.441 0-8.96 7.040-16 16-16h220.481zM913.926 428.8v-307.52h-307.52v323.52c0 156.16 122.88 284.161 277.12 292.481v-71.040c-115.2-8.32-206.080-104.321-206.080-221.441 0-8.96 7.040-16 16-16h220.48z" />
<glyph unicode="&#xe933;" glyph-name="bottom-arrow" d="M512.216 349.365l-383.092 383.076c-10.524 10.547-24.593 16.35-39.595 16.35-15.010 0-29.072-5.803-39.611-16.35l-33.551-33.568c-10.556-10.531-16.367-24.609-16.367-39.611s5.811-29.063 16.367-39.603l456.104-456.112c10.574-10.582 24.701-16.376 39.72-16.335 15.086-0.041 29.196 5.745 39.778 16.335l455.663 455.688c10.556 10.54 16.368 24.601 16.368 39.611 0 15.002-5.811 29.063-16.368 39.611l-33.55 33.559c-21.837 21.837-57.386 21.837-79.215 0l-382.651-382.651z" />
<glyph unicode="&#xe934;" glyph-name="star1" d="M512 931.556l151.074-304.064 335.866-49.72-242.495-237.645 56.502-334.791-300.948 157.195-300.946-157.195 56.501 334.791-242.496 237.645 335.866 49.72 151.075 304.064z" />
<glyph unicode="&#xe935;" glyph-name="right-arrow2" d="M614.4 857.604l-71.68-71.68 286.72-286.72h-829.44v-102.4h829.44l-286.72-286.72 71.68-71.684 409.6 409.604-409.6 409.6z" />
<glyph unicode="&#xe936;" glyph-name="share" d="M989.069 615.972l-231.802 231.798c-19.123 19.126-38.528 28.824-57.658 28.824-26.272 0-56.941-19.98-56.941-76.292v-78.915c-168.411-7.34-325.681-76.406-445.633-196.352-127.048-127.040-197.024-295.948-197.036-475.615 0-12.909 8.256-24.378 20.5-28.461 3.126-1.043 6.326-1.542 9.496-1.542 9.254 0 18.212 4.294 23.988 11.981 141.638 188.531 354.878 299.949 588.685 308.746v-77.699c0-56.307 30.669-76.294 56.941-76.294h0.006c19.13 0 38.528 9.702 57.651 28.826l231.795 231.8c22.534 22.522 34.938 52.566 34.938 84.598 0 32.026-12.403 62.072-34.931 84.598z" />
<glyph unicode="&#xe937;" glyph-name="selection" d="M1024 755.201v102.398h-102.4v102.401h-102.4v-102.401h-614.401v102.401h-102.398v-102.401h-102.401v-102.401h102.401v-614.398h-102.401v-102.4h102.401v-102.4h102.401v102.4h614.398v-102.4h102.4v102.4h102.4v102.4h-102.4v614.401h102.4zM819.2 140.8h-614.401v614.401h614.401v-614.401zM716.8 652.8h-409.6v-409.6h409.6v409.6z" />
<glyph unicode="&#xe938;" glyph-name="clock" d="M512 960c-282.328 0-512-229.672-512-512s229.672-512 512-512c282.327 0 512 229.673 512 512s-229.673 512-512 512zM755.502 183.174c-8.324-8.324-19.246-12.512-30.164-12.512-10.923 0-21.855 4.189-30.164 12.512l-213.338 213.324c-8.023 7.977-12.5 18.822-12.5 30.164v277.338c0 23.594 19.107 42.664 42.664 42.664s42.662-19.070 42.662-42.664v-259.672l200.841-200.826c16.677-16.691 16.677-43.652 0-60.328z" />
<glyph unicode="&#xe939;" glyph-name="audience" horiz-adv-x="1609" d="M1001.706 331.508c-40.448 22.094-86.835 34.635-136.148 34.635h-117.197c-50.692 0-98.275-13.263-139.478-36.489-86.649-48.777-145.169-141.648-145.169-248.158v-87.815h686.494v87.815c0 107.893-60.028 201.738-148.502 250.013zM1325.232 444.152h-97.426c-56.883 0-109.904-16.815-154.375-45.792 21.372-14.017 41.45-30.392 59.963-48.903 71.563-71.563 110.98-166.732 110.98-267.962v-41.296h364.661v120.152c0 156.483-127.312 283.801-283.802 283.801zM381.229 444.152h-97.428c-156.483 0-283.8-127.318-283.8-283.801v-120.152h369.412v41.296c0 101.23 39.442 196.399 111.005 267.962 17.821 17.82 37.086 33.66 57.577 47.331-44.943 29.92-98.843 47.363-156.766 47.363zM1276.562 870.982c-0.497 0-1.017-0.003-1.521-0.010-105.465-0.87-190.523-92.029-189.608-203.201 0.914-110.645 86.638-200.049 191.422-200.049 0.505 0 1.017 0.003 1.521 0.010 51.712 0.427 99.972 22.213 135.892 61.351 35.079 38.23 54.155 88.604 53.716 141.85-0.914 110.645-86.63 200.049-191.422 200.049zM332.28 870.982c-0.5 0-1.018-0.003-1.521-0.010-105.468-0.87-190.526-92.029-189.608-203.201 0.911-110.645 86.633-200.049 191.419-200.049 0.503 0 1.018 0.003 1.521 0.010 51.713 0.427 99.975 22.213 135.891 61.351 35.084 38.23 54.161 88.604 53.721 141.85-0.915 110.645-86.633 200.049-191.422 200.049zM807.073 902.321c-121.596 0-220.502-104.5-220.502-232.98 0-92.839 51.669-173.172 126.249-210.571 28.6-14.363 60.563-22.377 94.253-22.377s65.653 8.014 94.259 22.377c74.576 37.399 126.245 117.731 126.245 210.571 0 128.48-98.904 232.98-220.504 232.98z" />
<glyph unicode="&#xe93a;" glyph-name="close" d="M97.070-57.607c-25.106-1.459-49.796 6.887-68.865 23.279-37.607 37.832-37.607 98.932 0 136.762l823.478 823.481c39.115 36.601 100.492 34.567 137.094-4.548 33.097-35.372 35.026-89.738 4.516-127.365l-828.329-828.33c-18.823-16.156-43.118-24.486-67.894-23.279zM919.501-57.596c-25.444 0.109-49.832 10.208-67.897 28.127l-823.481 823.483c-34.841 40.687-30.104 101.917 10.582 136.762 36.314 31.098 89.87 31.098 126.18 0l828.33-823.481c39.1-36.611 41.128-97.992 4.516-137.097-1.456-1.555-2.96-3.060-4.516-4.516-20.283-17.638-46.976-26.068-73.714-23.279z" />
<glyph unicode="&#xe93b;" glyph-name="mark" horiz-adv-x="1434" d="M476.681 125.363l772.793 782.822c22.764 23.071 60.15 22.835 82.698 0l74.609-75.581c22.538-22.835 22.538-60.94 0-83.766l-772.787-782.831c-22.542-22.835-59.926-23.071-82.701 0l-74.612 75.58c-22.775 23.072-22.775 60.705 0 83.775zM235.088 602.479l470.747-476.861c22.767-23.071 22.499-60.984 0-83.775l-74.612-75.58c-22.499-22.783-60.202-22.783-82.701 0l-470.747 476.861c-22.499 22.791-22.767 60.704 0 83.774l74.612 75.581c22.776 23.063 59.926 23.063 82.701 0z" />
<glyph unicode="&#xe93c;" glyph-name="bubble-chat" horiz-adv-x="1088" d="M658.035 837.214c-63.591 39.22-138.945 60.786-216.785 60.786-211.892 0-390-157.866-390-360 0-70.87 22.016-138.808 63.836-197.482l-58.42-183.411c-6.172-19.373 8.34-39.104 28.59-39.104 4.63 0 9.29 1.069 13.59 3.258l177.664 90.33c7.194-3.098 14.478-5.978 21.836-8.653-41.134 64.205-63.096 137.902-63.096 215.062 0 229.794 193.356 406.456 422.785 419.214zM1011.411 220.518c41.824 58.675 63.84 126.612 63.84 197.482 0 202.208-178.182 360-390.003 360-211.89 0-389.998-157.866-389.998-360 0-202.211 178.184-360.003 389.998-360.003 56.838 0 113.466 11.584 164.73 33.6l177.677-90.336c10.784-5.485 23.808-3.955 33.024 3.878s12.832 20.442 9.158 31.968l-58.426 183.411zM563.25 388c-16.568 0-30 13.432-30 30s13.432 30 30 30c16.568 0 30-13.432 30-30s-13.432-30-30-30zM683.251 388c-16.57 0-30.003 13.432-30.003 30s13.434 30 30.003 30c16.57 0 29.997-13.432 29.997-30s-13.427-30-29.997-30zM803.251 388c-16.57 0-30.003 13.432-30.003 30s13.434 30 30.003 30c16.57 0 29.997-13.432 29.997-30s-13.427-30-29.997-30z" />
<glyph unicode="&#xe93d;" glyph-name="user" horiz-adv-x="956" d="M470.998 436.776c134.584 0 244.601 110.016 244.601 244.599s-110.017 244.599-244.601 244.599c-134.584 0-244.597-110.016-244.597-244.599s110.015-244.599 244.597-244.599zM890.675 241.357c-6.41 16.022-14.957 30.973-24.569 44.861-49.132 72.633-124.969 120.698-210.417 132.448-10.68 1.067-22.43-1.067-30.975-7.477-44.861-33.112-98.266-50.201-153.81-50.201s-108.949 17.089-153.81 50.201c-8.546 6.41-20.296 9.613-30.975 7.477-85.45-11.749-162.354-59.815-210.418-132.448-9.613-13.889-18.159-29.911-24.566-44.861-3.204-6.41-2.136-13.885 1.067-20.296 8.546-14.95 19.226-29.908 28.839-42.721 14.953-20.296 30.975-38.455 49.134-55.542 14.953-14.957 32.042-28.843 49.134-42.728 84.38-63.017 185.852-96.126 290.528-96.126s206.147 33.109 290.531 96.126c17.087 12.82 34.174 27.771 49.132 42.728 17.087 17.087 34.181 35.246 49.132 55.542 10.684 13.885 20.296 27.771 28.843 42.721 5.338 6.41 6.403 13.885 3.202 20.296z" />
<glyph unicode="&#xe93e;" glyph-name="telephone" d="M778.502 282.605c-33.453 33.024-75.219 33.024-108.461 0-25.357-25.146-50.714-50.291-75.645-75.859-6.819-7.034-12.572-8.525-20.883-3.834-16.407 8.947-33.88 16.192-49.649 25.997-73.514 46.234-135.096 105.687-189.645 172.595-27.062 33.242-51.14 68.827-67.974 108.886-3.409 8.097-2.77 13.425 3.836 20.030 25.357 24.505 50.075 49.649 75.005 74.793 34.733 34.946 34.733 75.858-0.212 111.017-19.817 20.030-39.634 39.634-59.451 59.664-20.456 20.456-40.7 41.125-61.368 61.368-33.455 32.602-75.219 32.602-108.46-0.213-25.571-25.144-50.075-50.927-76.071-75.645-24.079-22.8-36.224-50.714-38.781-83.316-4.049-53.058 8.95-103.133 27.275-151.93 37.503-101.002 94.61-190.711 163.862-272.962 93.544-111.232 205.201-199.232 335.821-262.733 58.812-28.55 119.756-50.502 186.021-54.125 45.6-2.554 85.235 8.954 116.986 44.538 21.734 24.288 46.24 46.451 69.254 69.677 34.093 34.522 34.304 76.282 0.422 110.381-40.486 40.698-81.184 81.184-121.882 121.67zM737.856 452.431l78.63 13.425c-12.358 72.236-46.451 137.652-98.234 189.645-54.758 54.763-124.013 89.283-200.298 99.937l-11.080-79.054c59.025-8.31 112.722-34.946 155.128-77.35 40.058-40.060 66.266-90.774 75.853-146.603zM860.742 794.22c-90.771 90.774-205.626 148.094-332.412 165.78l-11.080-79.055c109.526-15.342 208.824-64.991 287.236-143.193 74.368-74.366 123.168-168.337 140.851-271.683l78.63 13.424c-20.672 119.754-77.139 228.427-163.226 314.726z" />
<glyph unicode="&#xe93f;" glyph-name="email" d="M541.62 318.643c-9.672-6.048-20.552-8.467-30.224-8.467s-20.553 2.419-30.225 8.467l-481.171 293.779v-390.495c0-83.424 67.702-151.123 151.122-151.123h721.755c83.418 0 151.123 67.699 151.123 151.123v390.495l-482.38-293.779zM872.794 825.203h-721.758c-71.329 0-131.778-50.777-146.286-118.479l507.768-309.497 506.56 309.497c-14.509 67.702-74.957 118.479-146.285 118.479z" />
<glyph unicode="&#xe940;" glyph-name="portfolio" d="M422 418h180v-60h-180v60zM830.758 358h-168.755v-30c0-16.576-13.427-30.003-30.003-30.003h-240c-16.578 0-30 13.427-30 30.003v30h-168.758c-38.789 0-73.094 24.726-85.375 61.523l-107.867 323.656v-655.18c0-49.626 40.375-89.997 90-89.997h844.003c49.619 0 89.997 40.371 89.997 89.997v655.156l-107.872-323.633c-12.275-36.797-46.579-61.523-85.37-61.523zM632.008 898h-240c-49.625 0-90-40.375-90-90v-30h-250.383l113.148-339.492c4.102-12.273 15.555-20.508 28.477-20.508h168.758v30c0 16.578 13.422 30 30 30h240c16.581 0 30.002-13.422 30.002-30v-30h168.755c12.922 0 24.378 8.234 28.48 20.508l113.152 339.492h-250.387v30c0 49.625-40.378 90-90.002 90zM362.008 778v30c0 16.555 13.446 30 30 30h240c16.556 0 30.002-13.445 30.002-30v-30h-300.002z" />
<glyph unicode="&#xe941;" glyph-name="store" d="M1023.818 618.665h-1023.818v-42.667c0-22.632 8.99-44.337 24.994-60.34s37.708-24.995 60.34-24.995h128c22.632 0 44.337 8.992 60.34 24.995s24.994 37.708 24.994 60.34c0-22.632 8.99-44.337 24.994-60.34s37.708-24.995 60.34-24.995h256c22.63 0 44.335 8.992 60.342 24.995 16.002 16.003 24.99 37.708 24.99 60.34 0-22.632 8.993-44.337 24.995-60.34s37.706-24.995 60.342-24.995h128c22.63 0 44.335 8.992 60.337 24.995s24.995 37.708 24.995 60.34v42.667h-0.182zM1013.667 661.333l-76.493 267.734c-2.546 8.913-7.931 16.753-15.332 22.334s-16.421 8.6-25.688 8.599h-195.426l59.732-298.667h253.207zM323.484 960h-195.424c-9.27 0.001-18.288-3.018-25.69-8.599s-12.784-13.421-15.333-22.334l-76.491-267.734h253.205l59.733 298.667zM613.576 960h-203.116l-59.733-298.667h322.58l-59.732 298.667zM810.729 448.005c-31.507-0.028-61.905 11.613-85.336 32.67-23.431-21.057-53.83-32.698-85.332-32.67h-256c-31.504-0.028-61.902 11.613-85.333 32.67-23.431-21.057-53.829-32.698-85.333-32.67h-128c-14.545 0.028-28.976 2.555-42.667 7.466v-476.798c0-11.32 4.495-22.17 12.497-30.171s18.854-12.497 30.17-12.497h85.333v384c0 11.315 4.495 22.17 12.497 30.171s18.854 12.497 30.17 12.497h213.333c11.316 0 22.168-4.496 30.17-12.497s12.495-18.856 12.495-30.171v-384h469.336c11.315 0 22.165 4.496 30.171 12.497 8.001 8.001 12.493 18.851 12.493 30.171v476.798c-13.689-4.911-28.123-7.438-42.664-7.466h-128zM853.392 192.005c0-11.315-4.492-22.17-12.493-30.171-8.006-8.001-18.856-12.497-30.171-12.497h-213.336c-11.315 0-22.165 4.496-30.166 12.497-8.006 8.001-12.497 18.856-12.497 30.171v128c0 11.315 4.492 22.17 12.497 30.171 8.001 8.001 18.851 12.497 30.166 12.497h213.336c11.315 0 22.165-4.496 30.171-12.497 8.001-8.001 12.493-18.856 12.493-30.171v-128z" />
<glyph unicode="&#xe942;" glyph-name="food" d="M857.585 422.684c-4.65 5.317-8.586 11.12-11.837 17.249-1.597-164.671-136.029-298.151-301.071-298.151-166.032 0-301.111 135.077-301.111 301.109s135.079 301.109 301.111 301.109c142.829 0 262.747-99.969 293.475-233.605l27.883 207.266c-77.646 90.679-192.899 148.251-321.358 148.251-100.223 0-192.399-35.056-264.957-93.521v-97.519c0-57.35-29.724-109.707-76.758-139.627v-341.394c77.010-105.377 201.491-173.974 341.714-173.974 147.346 0 277.318 75.742 353.083 190.324v185.958c-15.371 5.002-29.302 14.089-40.175 26.525zM544.753 692.824c-137.815 0-249.938-112.121-249.938-249.94 0-137.815 112.119-249.936 249.938-249.936s249.939 112.12 249.939 249.936c0 137.819-112.124 249.94-249.939 249.94zM1022.855 910.618c0 21.779-17.655 39.433-39.435 39.433-19.744 0-36.447-14.604-39.079-34.176l-57.617-428.303c-1.517-11.275 1.911-22.649 9.394-31.213 7.49-8.564 18.307-13.471 29.685-13.471h23.135v-459.408c0-20.727 16.801-37.528 37.528-37.528 20.723 0 37.524 16.801 37.524 37.528l-1.134 927.139zM228.566 902.289c0 14.133-11.452 25.586-25.586 25.586s-25.586-11.452-25.586-25.586v-141.571h-37.526v141.571c0 14.133-11.452 25.586-25.586 25.586s-25.586-11.452-25.586-25.586v-141.571h-37.526v141.571c0 14.133-11.452 25.586-25.586 25.586s-25.586-11.452-25.586-25.586v-230.838c0-49.872 32.125-92.356 76.757-107.925v-580.050c0-20.723 16.802-37.524 37.526-37.524s37.526 16.801 37.526 37.524v580.050c44.632 15.569 76.758 58.053 76.758 107.925v230.838z" />
<glyph unicode="&#xe943;" glyph-name="tray" d="M196.967 763.079c16.287 0 29.538 13.251 29.538 29.538s-13.251 29.538-29.538 29.538c-16.287 0-29.539-13.251-29.539-29.538s13.251-29.538 29.539-29.538zM511.945 684.311c27.147 0 49.232 22.085 49.232 49.231s-22.085 49.231-49.232 49.231c-27.147 0-49.232-22.085-49.232-49.231s22.085-49.231 49.232-49.231zM905.823 802.463c16.289 0 29.539 13.251 29.539 29.539s-13.25 29.538-29.539 29.538c-16.285 0-29.539-13.251-29.539-29.538s13.253-29.539 29.539-29.539zM876.328 300.31c0 200.876-163.427 364.306-364.306 364.306-197.587 0-358.934-158.117-364.17-354.461h639.864c5.435 0 9.845-4.407 9.845-9.845 0-5.442-4.411-9.849-9.845-9.849h-640.001v-78.768h728.614v88.616zM433.254 566.155c-92.298 0-167.386-75.088-167.386-167.384 0-5.442-4.409-9.849-9.846-9.849s-9.846 4.407-9.846 9.849c0 103.153 83.921 187.074 187.079 187.074 5.435 0 9.845-4.407 9.845-9.845s-4.411-9.845-9.845-9.845zM374.089 152.62h580.923v39.384h-886.155v-98.461h886.155v39.384h-580.923c-5.438 0-9.847 4.407-9.847 9.849 0 5.438 4.409 9.845 9.847 9.845zM223.222-4.915h577.436l31.506 78.768h-640.45l31.508-78.768zM763.579 744.394c1.397-0.685 2.871-1.008 4.33-1.008 3.639 0 7.139 2.026 8.847 5.514 2.395 4.882 0.377 10.782-4.506 13.174-8.697 4.265-27.037 16.764-28.215 28.178-0.538 5.232 2.904 10.775 10.233 16.474 13.133 10.217 20.436 22.749 21.698 37.25 2.443 28.089-19.511 52.679-20.447 53.713-3.65 4.029-9.878 4.338-13.908 0.687-4.027-3.651-4.337-9.878-0.688-13.909 0.172-0.189 17.104-19.474 15.422-38.784-0.779-8.946-5.413-16.605-14.168-23.414-16.252-12.638-18.615-25.484-17.733-34.036 2.6-25.232 35.401-42.010 39.135-43.839zM350.008 744.394c1.394-0.685 2.871-1.008 4.328-1.008 3.639 0 7.138 2.026 8.848 5.514 2.395 4.882 0.376 10.782-4.506 13.174-8.698 4.265-27.039 16.764-28.215 28.178-0.538 5.232 2.905 10.775 10.232 16.474 13.135 10.217 20.435 22.749 21.697 37.25 2.446 28.089-19.509 52.679-20.447 53.713-3.647 4.029-9.876 4.338-13.907 0.687-4.029-3.651-4.338-9.878-0.687-13.909 0.171-0.189 17.105-19.474 15.421-38.784-0.778-8.946-5.414-16.605-14.169-23.414-16.25-12.638-18.613-25.484-17.731-34.036 2.598-25.232 35.401-42.010 39.135-43.839zM127.866 567.164c1.396-0.684 2.873-1.009 4.326-1.009 3.641 0 7.138 2.026 8.848 5.515 2.395 4.882 0.376 10.781-4.506 13.177-8.698 4.264-27.038 16.764-28.213 28.178-0.54 5.232 2.905 10.776 10.232 16.475 13.133 10.216 20.433 22.749 21.697 37.25 2.446 28.089-19.507 52.679-20.445 53.713-3.651 4.029-9.876 4.336-13.909 0.687-4.031-3.651-4.338-9.878-0.687-13.908 0.172-0.189 17.103-19.474 15.421-38.784-0.78-8.946-5.413-16.605-14.169-23.414-16.25-12.638-18.611-25.484-17.733-34.036 2.601-25.234 35.405-42.013 39.137-43.841zM895.861 547.471c1.397-0.684 2.875-1.006 4.326-1.006 3.643 0 7.139 2.026 8.85 5.511 2.395 4.886 0.377 10.781-4.506 13.177-8.7 4.268-27.037 16.764-28.215 28.178-0.538 5.233 2.904 10.776 10.233 16.475 13.133 10.217 20.432 22.749 21.698 37.25 2.447 28.089-19.507 52.679-20.443 53.712-3.653 4.029-9.878 4.338-13.912 0.688-4.027-3.651-4.334-9.878-0.684-13.909 0.172-0.189 17.104-19.474 15.422-38.784-0.783-8.946-5.416-16.605-14.171-23.414-16.245-12.638-18.611-25.484-17.73-34.037 2.597-25.234 35.401-42.010 39.131-43.842z" />
</font>
</defs>
</svg>
