<?xml version="1.0" standalone="no"?>
<!DOCTYPE svg PUBLIC "-//W3C//DTD SVG 1.1//EN" "http://www.w3.org/Graphics/SVG/1.1/DTD/svg11.dtd" >
<svg xmlns="http://www.w3.org/2000/svg" xmlns:xlink="http://www.w3.org/1999/xlink" version="1.1">
<metadata>
Created by FontForge 20201107 at (null) By Jimmy Wärting
Nicholas is a trademark of Shinn Type Foundry. Copyright (c) 2005 by Nick Shinn. Published 2005 by Shinn Type Foundry.
</metadata>
<defs>
<font id="NicholasBold" horiz-adv-x="434" >
  <font-face 
    font-family="Nicholas"
    font-weight="700"
    font-stretch="normal"
    units-per-em="1000"
    panose-1="0 0 7 0 0 0 0 0 0 0"
    ascent="800"
    descent="-200"
    x-height="467"
    cap-height="673"
    bbox="-218 -267 1003 885"
    underline-thickness="74"
    underline-position="-150"
    unicode-range="U+0020-F002"
  />
<missing-glyph horiz-adv-x="500" 
d="M63 0v746h375v-746h-375zM125 63h250v621h-250v-621z" />
    <glyph glyph-name=".notdef" horiz-adv-x="500" 
d="M63 0v746h375v-746h-375zM125 63h250v621h-250v-621z" />
    <glyph glyph-name="glyph1" horiz-adv-x="0" 
 />
    <glyph glyph-name="nonmarkingreturn" horiz-adv-x="188" 
 />
    <glyph glyph-name="space" unicode=" " horiz-adv-x="188" 
 />
    <glyph glyph-name="exclam" unicode="!" horiz-adv-x="271" 
d="M228 604q0 -35 -26 -155q-20 -94 -41 -187l-19 -94h-11l-19 94q-21 93 -41 187q-26 120 -26 155q0 37 27 64t65 27t64.5 -27t26.5 -64zM216 63q0 -35 -21.5 -56.5t-57.5 -21.5q-79 0 -79 76q0 77 79 77q36 0 57.5 -20t21.5 -55z" />
    <glyph glyph-name="quotedbl" unicode="&#x22;" horiz-adv-x="360" 
d="M340 648q0 -15 -13 -65l-48 -184h-11l-51 185q-12 44 -12 63q0 28 19 47.5t48 19.5t48.5 -19t19.5 -47zM160 648q0 -15 -13 -65l-48 -184h-11l-51 185q-12 44 -12 63q0 28 19 47.5t48 19.5t48.5 -19t19.5 -47z" />
    <glyph glyph-name="numbersign" unicode="#" horiz-adv-x="580" 
d="M558 170h-146l-40 -192h-41l41 192h-216l-39 -192h-40l40 192h-92v37h100l39 192h-139v37h147l40 193h40l-40 -193h212l40 193h41l-40 -193h93v-37h-100l-40 -192h140v-37zM418 399h-213l-41 -192h215z" />
    <glyph glyph-name="dollar" unicode="$" horiz-adv-x="466" 
d="M452 195q0 -83 -53 -140.5t-145 -64.5v-67h-36v66q-112 4 -182 52l-21 130l14 5l28 -51q54 -97 161 -105v256q-93 41 -126 68q-60 49 -60 125q0 72 53 127.5t133 62.5v63h36v-62q81 -4 153 -53l10 -109l-14 -5l-25 48q-41 79 -124 88v-227q100 -43 134 -71
q64 -52 64 -136zM218 418v210q-42 -5 -69.5 -32.5t-27.5 -64.5q0 -67 97 -113zM361 131q0 76 -107 129v-238q47 6 77 35.5t30 73.5z" />
    <glyph glyph-name="percent" unicode="%" horiz-adv-x="593" 
d="M275 496q0 -75 -34 -130q-37 -60 -97 -60q-61 0 -99 60q-33 54 -33 129t33 129q37 61 99 61t99 -61q32 -55 32 -128zM516 685l-380 -697h-49l379 697h50zM591 175q0 -75 -33 -129q-37 -61 -99 -61t-98 62q-33 54 -33 127q0 75 34 130q37 60 97 60q61 0 99 -60
q33 -54 33 -129zM193 483q0 104 -13 144q-12 35 -39 35q-47 0 -47 -159q0 -98 13 -138q12 -36 39 -36q25 0 36 33.5t11 120.5zM509 167q0 98 -13 138q-12 36 -39 36q-25 0 -36 -33.5t-11 -120.5q0 -104 13 -144q12 -35 39 -35q47 0 47 159z" />
    <glyph glyph-name="ampersand" unicode="&#x26;" horiz-adv-x="736" 
d="M730 81q-76 -96 -161 -96q-84 0 -148 123q-117 -123 -220 -123q-78 0 -122.5 45.5t-44.5 128.5q0 120 163 203q-75 61 -75 146q0 69 49 121t124 52q61 0 98.5 -34t37.5 -84q0 -80 -104 -144q131 -88 179 -160q60 89 90 167q19 49 19 72q0 38 -40 42v15h151v-15
q-32 -10 -48.5 -37.5t-31.5 -55.5q-39 -72 -123 -215q37 -74 57 -109q37 -64 74 -64q26 0 64 34zM333 506q0 52 -34 85q-31 29 -70 29q-27 0 -45 -16.5t-18 -45.5q0 -51 92 -98q30 -15 47 -25q28 25 28 71zM408 138q-46 110 -145 179q-19 13 -45 30q-61 -40 -61 -140
q0 -61 37 -96q34 -31 86 -31q76 0 128 58z" />
    <glyph glyph-name="quotesingle" unicode="'" horiz-adv-x="203" 
d="M165 648q0 -15 -13 -65l-48 -184h-11l-51 185q-12 44 -12 63q0 28 19 47.5t48 19.5t48.5 -19t19.5 -47z" />
    <glyph glyph-name="parenleft" unicode="(" horiz-adv-x="275" 
d="M274 -235h-20q-233 216 -233 475t233 475h20q-121 -185 -121 -475t121 -475z" />
    <glyph glyph-name="parenright" unicode=")" horiz-adv-x="275" 
d="M247 240q0 -259 -233 -475h-20q121 185 121 475t-121 475h20q233 -216 233 -475z" />
    <glyph glyph-name="asterisk" unicode="*" horiz-adv-x="325" 
d="M327 610l-111 -68l54 -120l-11 -8l-95 89l-95 -89l-11 8l54 120l-111 68l4 13l127 -16l25 131h14l25 -131l127 16z" />
    <glyph glyph-name="plus" unicode="+" horiz-adv-x="563" 
d="M543 240h-238v-240h-45v240h-237v43h237v238h45v-238h238v-43z" />
    <glyph glyph-name="comma" unicode="," horiz-adv-x="201" 
d="M193 37q0 -125 -157 -204l-9 14q31 17 60 55.5t29 68.5q0 34 -33 43q-64 18 -64 69q0 29 21 47.5t52 18.5q41 0 71 -31t30 -81z" />
    <glyph glyph-name="hyphen" unicode="-" horiz-adv-x="230" 
d="M230 240h-229v43h229v-43z" />
    <glyph glyph-name="hyphen" unicode="&#x2010;" horiz-adv-x="230" 
d="M230 240h-229v43h229v-43z" />
    <glyph glyph-name="period" unicode="." horiz-adv-x="201" 
d="M191 68q0 -39 -25 -61t-59 -22t-56 21q-26 23 -26 62t26 62q22 20 56 20t59 -21.5t25 -60.5z" />
    <glyph glyph-name="slash" unicode="/" horiz-adv-x="377" 
d="M379 692l-330 -710h-47l329 710h48z" />
    <glyph glyph-name="zero" unicode="0" horiz-adv-x="512" 
d="M494 343q0 -148 -65 -250q-68 -105 -173 -105q-118 0 -183 115q-55 97 -55 228q0 146 68 250.5t170 104.5q119 0 184 -115q54 -96 54 -228zM345 312q0 348 -89 348t-89 -298q0 -348 89 -348t89 298z" />
    <glyph glyph-name="one" unicode="1" horiz-adv-x="278" 
d="M273 0h-264v15l26 6q37 9 37 51v493l-98 -22v15q158 77 224 132h15q-4 -62 -4 -152v-466q0 -45 37 -52l27 -5v-15z" />
    <glyph glyph-name="two" unicode="2" horiz-adv-x="443" 
d="M430 146q-25 -105 -34 -146h-390v15l62 60q193 187 193 378q0 64 -27 107q-31 51 -90 51q-74 0 -119 -94l-15 6q18 73 78 117.5t136 44.5q83 0 133 -51t50 -134q0 -154 -276 -399h216q47 0 61 30l7 15h15z" />
    <glyph glyph-name="three" unicode="3" horiz-adv-x="404" 
d="M385 196q0 -94 -65 -153t-167 -59q-101 0 -167 63l6 14q41 -34 105 -34t102 39q42 43 42 119q0 57 -27 101q-30 50 -78 50q-16 0 -36 -7l-5 15q66 25 92.5 61t26.5 94q0 57 -31 90q-28 30 -71 30q-60 0 -107 -52l-11 11q68 109 190 109q79 0 123 -44q40 -38 40 -97
q0 -55 -35 -102q-39 -52 -107 -71v-2h5q75 0 125 -49.5t50 -125.5z" />
    <glyph glyph-name="four" unicode="4" horiz-adv-x="473" 
d="M456 247l-9 -59h-78v-188l-137 -14v202h-229l-5 10l319 480h52v-436h16q41 0 71 5zM232 242v245l-164 -245h164z" />
    <glyph glyph-name="five" unicode="5" horiz-adv-x="399" 
d="M383 200q0 -88 -62 -148q-69 -65 -185 -65q-87 0 -138 47l10 12q40 -25 98 -25q66 0 104 48q34 43 34 105q0 60 -32 101q-35 45 -95 45q-46 0 -80 -23l-13 5l24 268q3 34 3 103h214q59 0 69 24h15l-11 -135h-257l-17 -192q60 19 113 19q99 0 155 -58q51 -52 51 -131z" />
    <glyph glyph-name="six" unicode="6" horiz-adv-x="483" 
d="M468 215q0 -99 -63 -164.5t-162 -65.5q-112 0 -172 83q-52 73 -52 188q0 153 90 272q97 130 266 167l7 -17q-121 -63 -170 -176q-44 -101 -44 -284q0 -203 80 -203q41 0 58 43q15 39 15 124q0 72 -15 126q-22 81 -73 81q-11 0 -28 -7l-3 17q35 19 74 19q86 0 139 -58
t53 -145z" />
    <glyph glyph-name="seven" unicode="7" horiz-adv-x="408" 
d="M408 666q-35 -76 -105 -282l-55 -162q-33 -99 -43 -232h-14l-66 16l208 556h-243q-48 0 -62 -30l-13 -27l-14 4l20 168q56 -4 66 -4h316z" />
    <glyph glyph-name="eight" unicode="8" horiz-adv-x="459" 
d="M450 185q0 -85 -61.5 -142.5t-159.5 -57.5q-104 0 -161 47q-56 44 -56 121q0 106 135 165q-110 76 -110 184q0 84 61 136q57 49 142 49q77 0 129 -38q56 -41 56 -108q0 -99 -131 -146q156 -93 156 -210zM317 533q0 52 -22 87q-25 38 -70 38q-34 0 -57 -24.5t-23 -64.5
q0 -48 38 -91q28 -30 90 -71q44 44 44 126zM330 120q0 52 -37 92q-33 35 -126 91q-43 -50 -43 -140q0 -63 25 -103q29 -46 83 -46q39 0 68.5 29.5t29.5 76.5z" />
    <glyph glyph-name="nine" unicode="9" horiz-adv-x="483" 
d="M468 416q0 -153 -90 -272q-97 -130 -266 -167l-7 17q121 63 170 176q44 101 44 284q0 203 -80 203q-41 0 -58 -43q-15 -39 -15 -124q0 -72 15 -126q22 -81 73 -81q11 0 28 7l3 -17q-42 -19 -74 -19q-86 0 -139 58t-53 145q0 99 63 164.5t162 65.5q112 0 172 -83
q52 -73 52 -188z" />
    <glyph glyph-name="colon" unicode=":" horiz-adv-x="249" 
d="M209 365q0 -39 -25 -61t-59 -22t-56 21q-26 23 -26 62t26 62q22 20 56 20t59 -21.5t25 -60.5zM209 68q0 -39 -25 -61t-59 -22t-56 21q-26 23 -26 62t26 62q22 20 56 20t59 -21.5t25 -60.5z" />
    <glyph glyph-name="semicolon" unicode=";" horiz-adv-x="249" 
d="M199 365q0 -39 -23.5 -61t-55.5 -22q-31 0 -54 22t-23 61t24 62q21 20 53 20t55.5 -21.5t23.5 -60.5zM216 37q0 -125 -157 -204l-9 14q31 17 60 55.5t29 68.5q0 34 -33 43q-64 18 -64 69q0 29 23 47.5t55 18.5q41 0 68.5 -30.5t27.5 -81.5z" />
    <glyph glyph-name="less" unicode="&#x3c;" horiz-adv-x="573" 
d="M529 18l-492 223v40l492 222v-48l-431 -194l431 -195v-48z" />
    <glyph glyph-name="equal" unicode="=" horiz-adv-x="573" 
d="M543 340h-520v43h520v-43zM543 140h-520v43h520v-43z" />
    <glyph glyph-name="greater" unicode="&#x3e;" horiz-adv-x="573" 
d="M529 240l-492 -222v48l431 194l-431 195v48l492 -223v-40z" />
    <glyph glyph-name="question" unicode="?" horiz-adv-x="386" 
d="M377 503q0 -78 -53 -134q-50 -39 -100 -79q-53 -42 -53 -89v-33h-17q-12 19 -27 59q-18 45 -18 65q0 70 58 124q16 16 107 75q58 37 58 69q0 52 -79 52h-2q-104 0 -196 -107l-12 8q36 122 50 160q47 15 93 15q84 0 137.5 -50.5t53.5 -134.5zM248 62q0 -36 -23.5 -56.5
t-55.5 -20.5t-54 19q-25 22 -25 58t25 56q22 19 54 19t55.5 -19.5t23.5 -55.5z" />
    <glyph glyph-name="at" unicode="@" horiz-adv-x="816" 
d="M771 312q0 -137 -65 -222t-169 -85q-100 0 -100 67q0 10 2 22l10 60q-57 -78 -93 -109q-46 -41 -93 -41q-75 0 -75 133q0 106 67 195q77 103 195 103q55 0 98 -17l44 19h17l-56 -310q-6 -33 -6 -54q0 -33 18 -33q62 0 112 71q56 79 56 200q0 130 -89 209q-81 70 -195 70
q-143 0 -251 -105q-122 -118 -122 -308q0 -157 91 -243q83 -79 215 -79q145 0 267 82l14 -21q-123 -93 -281 -93q-147 0 -241 89q-103 96 -103 265q0 196 124 323q118 121 287 121q135 0 224 -78q98 -86 98 -231zM488 382q-23 21 -56 21q-45 0 -87 -80q-44 -83 -44 -178
q0 -75 26 -75q28 0 93 83q34 43 44 98z" />
    <glyph glyph-name="A" unicode="A" horiz-adv-x="697" 
d="M701 0h-285v15l20 3q29 4 29 41q0 16 -6 32l-56 152h-225l-46 -125q-12 -33 -12 -55q0 -36 32 -43l22 -5v-15h-163v15l5 2q40 16 70 95l161 423q17 45 43 138h123q12 -42 46 -133l166 -444q27 -72 76 -81v-15zM390 278l-101 272l-99 -272h200z" />
    <glyph glyph-name="B" unicode="B" horiz-adv-x="638" 
d="M615 190q0 -71 -55 -122q-71 -68 -214 -68h-325v15l20 3q37 6 46 26q4 10 4 53v479q0 43 -11 59.5t-41 19.5l-28 3v15h93q32 0 138 6q53 3 94 3q78 0 119 -13q123 -39 123 -143q0 -60 -47.5 -107t-116.5 -52v-3q97 -12 149 -58.5t52 -115.5zM428 517q0 60 -28 97
q-31 40 -90 40q-8 0 -29 -2q-24 -2 -36 -2v-272h65q118 0 118 139zM455 190q0 161 -143 161h-67v-226q0 -59 15 -78t58 -19h24q59 0 88 51q25 42 25 111z" />
    <glyph glyph-name="C" unicode="C" horiz-adv-x="628" 
d="M620 171q-7 -35 -39 -143q-45 -22 -102.5 -33t-124.5 -11q-149 0 -237 84q-98 92 -98 266q0 159 104 255q100 94 255 94q110 0 184 -41l35 33h11v-229h-18q-33 113 -63 150q-45 56 -143 56q-109 0 -159 -103q-37 -78 -37 -204q0 -136 44 -219q55 -103 171 -103
q57 0 112 24q46 48 91 131z" />
    <glyph glyph-name="D" unicode="D" horiz-adv-x="721" 
d="M703 347q0 -158 -95.5 -252.5t-257.5 -94.5h-337v15l31 7q28 6 35 18q6 9 6 39v511q0 36 -8 48.5t-42 16.5l-24 3v15h138q33 0 98.5 4t98.5 4q166 0 259 -83q98 -88 98 -251zM539 333q0 153 -57.5 236t-162.5 83q-15 0 -37 -2q-30 -3 -41 -4v-595q0 -24 22 -24h48
q228 0 228 306z" />
    <glyph glyph-name="E" unicode="E" horiz-adv-x="574" 
d="M564 193l-28 -193h-509v15l26 6q29 7 38 23q8 13 8 47v496q0 38 -10.5 49.5t-49.5 17.5l-28 4v15h523l-9 -169h-18l-20 67q-13 45 -38 60q-20 12 -67 12h-127v-287h131q42 0 58.5 8.5t31.5 44.5l9 22h18v-190h-18l-9 26q-13 37 -31 47t-59 10h-131v-249q0 -27 10.5 -36
t38.5 -9h74q49 0 78 20q38 27 70 100l19 43h19z" />
    <glyph glyph-name="F" unicode="F" horiz-adv-x="557" 
d="M534 488h-18l-20 59q-19 55 -46.5 76t-81.5 21h-107v-288h141q42 0 58.5 8.5t31.5 44.5l9 22h18v-190h-18l-9 26q-13 37 -31 47t-59 10h-141v-237q0 -37 7 -47q7 -13 37 -18l35 -6v-16h-315v15l37 6q29 5 36 16.5t7 53.5v496q0 42 -8.5 52t-47.5 15l-34 4v15h519v-185z
" />
    <glyph glyph-name="G" unicode="G" horiz-adv-x="699" 
d="M703 291l-16 -3q-30 -6 -39 -24q-6 -13 -6 -47v-185q-105 -48 -283 -48q-150 0 -244.5 93.5t-94.5 244.5q0 163 111 264q108 97 274 97q103 0 177 -41l35 33h11l17 -229h-18q-29 100 -67 144q-53 62 -152 62q-104 0 -163.5 -84.5t-59.5 -227.5q0 -323 235 -323q38 0 73 7
v182q0 37 -8 54q-12 24 -45 28l-24 3v15h287v-15z" />
    <glyph glyph-name="H" unicode="H" horiz-adv-x="749" 
d="M751 0h-304v15l23 3q34 4 43 24q5 11 5 50v235h-275v-235q0 -42 9 -56t44 -18l24 -3v-15h-305v15l23 3q35 5 44 23q5 12 5 51v480q0 42 -5 55q-9 23 -44 28l-23 3v15h305v-15l-23 -3q-36 -5 -45 -18.5t-9 -57.5v-219h275v212q0 48 -8.5 63.5t-39.5 19.5l-23 3v15h304v-15
l-23 -3q-36 -5 -44.5 -19t-8.5 -64v-480q0 -44 10 -57t41 -17l25 -3v-15z" />
    <glyph glyph-name="I" unicode="I" horiz-adv-x="318" 
d="M320 0h-305v15l23 3q35 5 44 23q5 12 5 51v480q0 42 -5 55q-9 23 -44 28l-23 3v15h305v-15l-23 -3q-36 -5 -45 -19t-9 -64v-480q0 -46 8.5 -57.5t45.5 -16.5l23 -3v-15z" />
    <glyph glyph-name="J" unicode="J" horiz-adv-x="316" 
d="M318 658l-23 -3q-37 -5 -47 -26q-6 -13 -6 -56v-173q0 -63 1 -155t1 -117q0 -111 -14 -151q-19 -54 -106 -111q-73 -47 -141 -67l-5 3v37q45 0 62 17q26 26 35 75q6 37 9 135q1 37 1 100v407q0 43 -10.5 60.5t-38.5 21.5l-23 3v15h305v-15z" />
    <glyph glyph-name="K" unicode="K" horiz-adv-x="713" 
d="M719 0h-303v15q11 1 23 3q26 3 26 17q0 12 -25 44l-179 230l-18 -18v-187q0 -46 11 -64t41 -22l25 -3v-15h-305v15l23 3q34 4 43 30q6 15 6 56v468q0 53 -7 65.5t-42 17.5l-23 3v15h305v-15l-23 -3q-39 -5 -46.5 -16.5t-7.5 -66.5v-235l236 243q19 20 19 38q0 31 -55 37
l-26 3v15h276v-15q-101 -14 -179 -93l-146 -149l269 -341q34 -43 82 -60v-15z" />
    <glyph glyph-name="L" unicode="L" horiz-adv-x="564" 
d="M542 193l-28 -193h-497v15l26 6q31 7 40 24q6 12 6 46v506q0 33 -9.5 43.5t-43.5 14.5l-25 3v15h315v-15l-24 -3q-38 -5 -47.5 -19.5t-9.5 -63.5v-485q0 -33 11 -45t43 -12h57q49 0 72 15q31 21 67 92l28 56h19z" />
    <glyph glyph-name="M" unicode="M" horiz-adv-x="858" 
d="M860 0h-304v15l23 3q35 5 43 22q5 10 5 49v444l-244 -544h-23l-239 548v-432q0 -42 17 -62q13 -17 45 -24l17 -4v-15h-189v15l14 3q31 7 44.5 25.5t13.5 63.5v476q0 34 -6 47q-9 19 -39 24l-23 4v15h284v-14l-11 -2q-31 -6 -31 -30q0 -14 14 -46l168 -381l173 386
q10 22 10 36q0 29 -35 33l-24 3v15h297v-15l-23 -3q-35 -5 -45 -25q-8 -16 -8 -68v-473q0 -44 9.5 -55.5t41.5 -15.5l25 -3v-15z" />
    <glyph glyph-name="N" unicode="N" horiz-adv-x="720" 
d="M726 658l-17 -4q-32 -8 -43.5 -26t-11.5 -62v-577h-65l-463 570v-456q0 -43 12.5 -59.5t49.5 -24.5l19 -4v-15h-196v15l21 5q29 7 41 24.5t12 60.5v467q0 41 -9 58q-8 14 -31 22l-18 6v15h200l386 -476v368q0 45 -11.5 62.5t-44.5 25.5l-20 5v15h189v-15z" />
    <glyph glyph-name="O" unicode="O" horiz-adv-x="743" 
d="M725 340q0 -154 -100.5 -253t-255.5 -99q-157 0 -253 93t-96 250q0 159 100.5 256.5t260.5 97.5q155 0 249.5 -95.5t94.5 -249.5zM561 296q0 137 -34 227q-49 131 -162 131q-97 0 -144 -98q-37 -76 -37 -186q0 -133 36 -224q52 -127 164 -127q95 0 141 96q36 73 36 181z
" />
    <glyph glyph-name="P" unicode="P" horiz-adv-x="618" 
d="M603 475q0 -106 -87 -162q-73 -47 -185 -47q-44 0 -88 7v-181q0 -45 10 -57.5t53 -16.5l33 -3v-15h-324v15l23 3q35 5 44 23q5 12 5 51v481q0 47 -3 56q-9 24 -46 27l-23 2v15h99q37 0 110 4.5t110 4.5q117 0 186 -44q83 -53 83 -163zM444 471q0 85 -39 135t-105 50
q-36 0 -57 -7v-346q30 -5 45 -5q156 0 156 173z" />
    <glyph glyph-name="Q" unicode="Q" horiz-adv-x="741" 
d="M858 -125q-128 -52 -243 -52q-205 0 -337 171q-119 25 -188.5 114t-69.5 220q0 159 100.5 256t260.5 98q155 1 249.5 -94.5t94.5 -250.5q0 -115 -62 -206q-64 -95 -174 -129q81 -129 239 -130h1q59 0 122 21zM561 293q0 136 -34 227q-50 131 -162 131q-97 0 -144 -98
q-37 -76 -37 -186q0 -133 36 -224q52 -127 164 -127q95 0 141 95q36 74 36 182z" />
    <glyph glyph-name="R" unicode="R" horiz-adv-x="705" 
d="M425 485q0 72 -32 121q-36 52 -95 52q-31 0 -55 -6v-330h30q79 0 115.5 35.5t36.5 127.5zM729 0q-93 -3 -119 -3q-72 0 -98 9q-45 15 -121 126q-62 90 -93 161h-55v-201q0 -43 10 -57t40 -17l26 -3v-15h-304v15l23 3q35 5 44 23q5 12 5 51v481q0 44 -6 58q-10 22 -47 25
l-23 2v15h90q37 0 110.5 4.5t110.5 4.5q263 0 263 -187q0 -120 -134 -174q74 -158 162 -244q51 -49 116 -62v-15z" />
    <glyph glyph-name="S" unicode="S" horiz-adv-x="501" 
d="M482 191q0 -92 -61 -148q-64 -58 -176 -58q-105 0 -173 30l-26 -23h-11l-25 226l17 5l39 -74q35 -65 69 -96q45 -41 108 -41q55 0 87 34q29 30 29 74q0 67 -87 121q-80 48 -161 95q-87 64 -87 153q0 76 56 132q64 63 171 63q74 0 140 -30l32 24h12l16 -223l-18 -3l-19 44
q-42 98 -79 132q-32 29 -85 29q-45 0 -77 -30t-32 -72q0 -63 88 -115q82 -45 165 -91q88 -64 88 -158z" />
    <glyph glyph-name="T" unicode="T" horiz-adv-x="628" 
d="M618 686l-21 -183h-18l-9 32q-30 108 -72 108h-112v-551q0 -40 13.5 -55t49.5 -19l27 -3v-15h-322v15l28 3q33 4 45 19t12 55v551h-97q-29 0 -54 -38q-2 -3 -44 -83l-10 -19h-20l26 183h11q13 -13 41 -13h475q25 0 41 13h10z" />
    <glyph glyph-name="U" unicode="U" horiz-adv-x="664" 
d="M670 658l-17 -4q-32 -7 -43.5 -25.5t-11.5 -62.5v-338q0 -116 -64 -179t-182 -63q-266 0 -266 247v330q0 51 -8 69t-37 22l-26 4v15h304v-15l-32 -5q-30 -5 -37.5 -19.5t-7.5 -68.5v-344q0 -87 40.5 -136.5t116.5 -49.5q73 0 115 52t42 130v348q0 42 -13 61t-44 27l-19 5
v15h190v-15z" />
    <glyph glyph-name="V" unicode="V" horiz-adv-x="673" 
d="M679 658l-11 -4q-20 -7 -32 -19q-21 -22 -41 -71l-235 -575h-60l-228 602q-10 26 -17 38q-13 19 -31 25l-13 4v15h286v-15l-12 -2q-51 -8 -51 -37q0 -10 5 -23l157 -417l151 375q12 30 12 54q0 40 -35 47l-16 3v15h171v-15z" />
    <glyph glyph-name="W" unicode="W" horiz-adv-x="1002" 
d="M1003 658l-12 -4q-38 -13 -68 -96l-202 -569h-67l-139 384l-152 -384h-67l-212 596q-14 39 -27 53q-12 11 -38 18l-8 2v15h284v-15l-13 -2q-42 -6 -42 -42q0 -12 4 -23l150 -425l102 258l-63 162q-21 55 -63 69l-9 3v15h290v-15l-23 -2q-40 -3 -40 -35q0 -14 6 -30
l155 -417l129 379q10 29 10 51q0 44 -43 51l-13 2v16h171v-15z" />
    <glyph glyph-name="X" unicode="X" horiz-adv-x="711" 
d="M717 0h-307v15q12 1 14 3q40 9 40 34q0 16 -16 40l-123 183l-170 -194q-14 -16 -14 -29q0 -24 37 -32l24 -5v-15h-187v15q39 9 94 72l195 222l-175 259q-53 79 -104 90v15h305v-15q-11 -1 -26 -4q-25 -4 -25 -23q0 -15 17 -41l109 -165l140 159q17 19 17 37q0 29 -38 34
l-24 3v15h200v-15q-50 -11 -108 -77l-165 -189l198 -298q43 -64 92 -79v-15z" />
    <glyph glyph-name="Y" unicode="Y" horiz-adv-x="673" 
d="M679 658l-14 -3q-42 -9 -70 -60l-171 -311v-193q0 -41 6 -52q9 -17 46 -22l24 -3v-14h-304v14l23 3q28 4 38 18t10 56v193l-170 301q-21 37 -34.5 50.5t-38.5 19.5l-13 3v15h312v-15l-19 -3q-43 -7 -43 -33q0 -14 13 -38l136 -249l126 231q13 24 13 43q0 38 -41 46l-16 3
v15h187v-15z" />
    <glyph glyph-name="Z" unicode="Z" horiz-adv-x="682" 
d="M664 193l-50 -206h-11q-15 13 -24 13h-567l-8 14q47 58 104 142l235 343q36 52 97 146h-203q-123 0 -169 -84l-32 -58h-23l57 183h11q11 -13 77 -13h487l5 -7q-60 -76 -117 -159l-233 -339q-35 -51 -94 -140h258q93 0 158 126l20 39h22z" />
    <glyph glyph-name="bracketleft" unicode="[" horiz-adv-x="323" 
d="M316 -235h-244v950h244v-15l-71 -9q-56 -7 -56 -53v-794q0 -29 16 -41q11 -9 39 -13l72 -10v-15z" />
    <glyph glyph-name="backslash" unicode="\" horiz-adv-x="372" 
d="M374 -18h-48l-329 710h47z" />
    <glyph glyph-name="bracketright" unicode="]" horiz-adv-x="323" 
d="M245 -235h-245v15l73 10q28 4 39 13q15 11 15 41v794q0 46 -55 53l-72 9v15h245v-950z" />
    <glyph glyph-name="asciicircum" unicode="^" horiz-adv-x="718" 
d="M608 269h-91l-163 273l-160 -273h-91l229 392h49z" />
    <glyph glyph-name="underscore" unicode="_" horiz-adv-x="499" 
d="M513 -134h-534v43h534v-43z" />
    <glyph glyph-name="grave" unicode="`" 
d="M317 521l-11 -10l-217 169l6 11h125z" />
    <glyph glyph-name="a" unicode="a" horiz-adv-x="463" 
d="M491 40q-23 -23 -60.5 -39.5t-71.5 -16.5q-67 0 -85 48q-70 -44 -136 -44q-41 0 -71 16q-57 30 -57 96q0 80 89 109q44 14 172 37v41q0 75 -9 112q-12 48 -53 48q-52 0 -52 -88v-18l-134 -31q-2 8 -2 16q0 40 35 78t94 59q49 17 109 17q98 0 132 -63q17 -33 17 -119v-215
q0 -44 32 -44q20 0 44 18zM271 54v166q-61 -12 -87 -26q-43 -24 -43 -71q0 -39 19.5 -61.5t50.5 -22.5q25 0 60 15z" />
    <glyph glyph-name="b" unicode="b" horiz-adv-x="518" 
d="M504 265q0 -133 -72.5 -205.5t-199.5 -72.5q-90 0 -182 24v565q0 41 -24 63l-25 23v11l187 73l11 -8q-8 -56 -8 -126v-195q50 32 71 42q41 19 80 19q72 0 117 -61t45 -152zM361 207q0 84 -27.5 145.5t-71.5 61.5q-27 0 -71 -22v-286q0 -93 64 -93q48 0 77 52.5t29 141.5z
" />
    <glyph glyph-name="c" unicode="c" horiz-adv-x="397" 
d="M418 72q-81 -89 -189 -89q-105 0 -165 67q-53 61 -53 153q0 95 55 168q53 70 140 98q44 14 93 14q66 0 104 -26v-3l-34 -107h-12q-73 91 -124 91q-43 0 -66 -49q-19 -43 -19 -109q0 -84 32 -149q42 -84 123 -84q35 0 58 9q19 8 49 31z" />
    <glyph glyph-name="d" unicode="d" horiz-adv-x="526" 
d="M533 8l-189 -28l-7 53q-85 -43 -145 -43q-83 0 -132 64q-44 59 -44 146q0 125 73 200.5t194 75.5q25 0 51 -3v111q0 43 -23 63l-26 23v11l187 69l11 -8q-7 -49 -7 -122v-554q0 -43 33 -43q13 0 24 1v-16zM334 53v313q0 83 -62 83q-46 0 -77 -44q-36 -51 -36 -145
q0 -99 35 -159.5t94 -60.5q23 0 46 13z" />
    <glyph glyph-name="e" unicode="e" horiz-adv-x="439" 
d="M444 74q-85 -90 -207 -90q-92 0 -152 56q-67 61 -67 168q0 119 73 199q68 76 159 76q71 0 119 -40q45 -38 61 -105l11 -9v-10l-286 -84q0 -90 45 -141q41 -48 109 -48q64 0 129 43zM297 304v13q0 40 -15 84q-19 57 -51 57q-76 0 -76 -196z" />
    <glyph glyph-name="f" unicode="f" horiz-adv-x="299" 
d="M336 639l-12 -5q-23 19 -47.5 32.5t-40.5 13.5q-18 0 -27 -14q-20 -30 -20 -169v-30h106v-43h-106v-357q0 -36 39 -44l38 -8v-15h-252v15l16 6q19 7 24 19q4 9 4 32v352h-65v20q13 2 46 11q20 5 24 27q13 70 50 130q63 101 148 119q28 6 75 6v-98z" />
    <glyph glyph-name="g" unicode="g" horiz-adv-x="469" 
d="M484 -51q0 -89 -106 -147q-82 -45 -197 -45q-64 0 -112 18q-68 26 -68 80q0 40 46 72q37 25 84 35v3q-36 3 -64 22q-32 22 -32 56q0 22 41 51q34 24 76 40q-46 9 -78 36q-60 52 -60 127q0 56 32 100t84 67q41 18 102 18q70 0 113 -21l132 8v-45h-80q42 -45 42 -116
q0 -76 -64 -127q-58 -46 -138 -51q-19 0 -47 -3q-58 -24 -58 -46q0 -11 20 -20q14 -6 75 -6h74q66 0 97 -9q86 -25 86 -97zM299 292q0 67 -21 113q-23 52 -63 52q-65 0 -65 -128q0 -65 23 -116q25 -56 63 -56q63 0 63 135zM376 -110q0 33 -28 49q-21 12 -79 12h-12
q-79 0 -100 -5q-58 -14 -58 -68q0 -90 137 -90q50 0 92 25q48 30 48 77z" />
    <glyph glyph-name="h" unicode="h" horiz-adv-x="536" 
d="M541 0h-226v15l13 4q25 8 25 55v203q0 59 -7 83q-14 46 -59 46q-27 0 -88 -34v-311q0 -36 32 -42l23 -4v-15h-238v15l15 5q27 9 27 51v505q0 41 -24 63l-25 23v11l187 73l11 -8q-8 -56 -8 -122v-217q98 81 177 81q119 0 119 -157v-262q0 -34 31 -42l15 -4v-15z" />
    <glyph glyph-name="i" unicode="i" horiz-adv-x="252" 
d="M196 639q0 -35 -22.5 -55t-52.5 -20t-52.5 20t-22.5 55q0 36 22.5 56t52.5 20t52.5 -20t22.5 -56zM256 0h-241v15l15 5q19 6 23.5 23t4.5 78v212q0 30 -24 53l-25 24v11l191 69l7 -7q-8 -53 -8 -123v-296q0 -35 37 -44l20 -5v-15z" />
    <glyph glyph-name="j" unicode="j" horiz-adv-x="249" 
d="M196 639q0 -35 -22.5 -55t-52.5 -20t-52.5 20t-22.5 55q0 36 22.5 56t52.5 20t52.5 -20t22.5 -56zM207 483q-8 -53 -8 -123v-202q0 -45 3 -112.5t3 -74.5v-2q0 -53 -32 -102q-29 -45 -73.5 -76.5t-82.5 -31.5q-28 0 -47 11l7 35l8 5l15 -11q11 -8 22 -8q28 0 33 37
q3 21 3 61v445q0 28 -24 51l-25 24v12l191 69z" />
    <glyph glyph-name="k" unicode="k" horiz-adv-x="544" 
d="M564 0q-132 -4 -129 -4q-71 0 -110 55l-121 171l-5 -5v-155q0 -34 37 -42l22 -5v-15h-242v15l14 5q28 10 28 51v505q0 41 -24 63l-25 23v11l187 73l11 -8q-8 -56 -8 -122v-368l138 125q23 21 23 42q0 29 -44 35l-15 2v15h235v-15l-32 -8q-58 -15 -97 -48l-100 -86
l141 -191q36 -49 77 -81q29 -22 39 -23v-15z" />
    <glyph glyph-name="l" unicode="l" horiz-adv-x="250" 
d="M254 0h-239v15l15 5q27 9 27 51v505q0 41 -24 63l-25 23v11l187 73l11 -8q-8 -56 -8 -122v-552q0 -33 32 -42l24 -7v-15z" />
    <glyph glyph-name="m" unicode="m" horiz-adv-x="815" 
d="M817 0h-227v15l13 4q26 8 26 55v201q0 66 -7 89q-13 42 -50 42q-34 0 -87 -37v-307q0 -37 32 -43l22 -4v-15h-234v15l13 4q25 8 25 55v201q0 58 -4 78q-11 53 -53 53q-34 0 -87 -37v-304q0 -40 32 -46l23 -4v-15h-238v15l14 4q28 8 28 55v263q0 33 -24 52l-25 20v11
l182 70l8 -7v-87q53 42 74 55q49 30 88 30h1q88 0 117 -89q55 43 79 58q51 31 90 31q107 0 120 -109q3 -25 3 -52v-258q0 -29 14 -38q6 -5 32 -9v-15z" />
    <glyph glyph-name="n" unicode="n" horiz-adv-x="539" 
d="M540 0h-225v15l13 4q25 8 25 55v201q0 74 -12 97q-18 35 -48 35q-34 0 -94 -38v-304q0 -40 32 -46l23 -4v-15h-238v15l14 4q28 8 28 55v263q0 33 -24 52l-25 20v11l182 70l8 -7v-87q53 41 81 57q49 28 93 28q122 0 122 -161v-258q0 -39 45 -47v-15z" />
    <glyph glyph-name="o" unicode="o" horiz-adv-x="525" 
d="M511 237q0 -111 -72.5 -181.5t-183.5 -70.5q-110 0 -176.5 66.5t-66.5 176.5q0 111 72.5 181.5t183.5 70.5q110 0 176.5 -66.5t66.5 -176.5zM362 188q0 95 -18 161q-28 106 -97 106q-86 0 -86 -179q0 -95 18 -161q28 -105 97 -105q86 0 86 178z" />
    <glyph glyph-name="p" unicode="p" horiz-adv-x="526" 
d="M512 256q0 -82 -39 -148q-44 -73 -125 -100q-42 -14 -95 -14q-29 0 -54 4v-169q0 -32 51 -41l33 -6v-17h-274v17l17 4q32 8 32 50v486q0 38 -24 62l-25 25v11l182 70l8 -7v-71q83 60 147 60q70 0 118 -64.5t48 -151.5zM369 208q0 85 -29.5 141t-80.5 56q-20 0 -60 -18
v-274q0 -94 74 -94q48 0 74 61q22 52 22 128z" />
    <glyph glyph-name="q" unicode="q" horiz-adv-x="513" 
d="M546 -235h-274v14l17 5q37 11 37 56v208q-75 -56 -144 -56q-75 0 -122.5 62t-47.5 150q0 117 64 194q67 82 180 82q81 0 146 -35q15 10 54 40h15q-3 -45 -3 -133v-519q0 -37 42 -46l36 -8v-14zM326 74v301q0 35 -18.5 57t-52.5 22q-50 0 -79 -59q-26 -53 -26 -135
q0 -98 33 -155q31 -53 80 -53q26 0 63 22z" />
    <glyph glyph-name="r" unicode="r" horiz-adv-x="385" 
d="M382 415l-27 -82l-3 -1l-37 23q-27 17 -50 17q-28 0 -66 -38v-266q0 -36 44 -46l31 -7v-15h-258v15l15 5q27 9 27 54v262q0 34 -24 53l-25 20v11l182 70l8 -6v-119l17 21q83 103 102 103q18 0 49 -50z" />
    <glyph glyph-name="s" unicode="s" horiz-adv-x="378" 
d="M363 146q0 -90 -72 -134q-43 -26 -114 -26q-37 0 -110 12l-41 -3l-7 161l15 1l21 -46q22 -48 59 -75q33 -24 65 -24t56.5 19t24.5 52q0 38 -61 74q-57 34 -114 67q-61 47 -61 111q0 101 106 135q37 12 87 12q54 0 110 -13l11 -130l-15 -4q-30 64 -57 90q-30 31 -70 31
q-76 0 -76 -63q0 -34 63 -70q112 -65 117 -69q63 -47 63 -108z" />
    <glyph glyph-name="t" unicode="t" horiz-adv-x="306" 
d="M315 424h-123v-307q0 -82 54 -82q34 0 56 12l8 -17q-46 -46 -136 -46q-47 0 -84 23q-43 26 -43 71q0 6 2 69t2 98v179h-49v15q52 35 174 150l22 -3q-6 -81 -6 -109v-10h123v-43z" />
    <glyph glyph-name="u" unicode="u" horiz-adv-x="540" 
d="M548 17l-183 -38q-6 23 -15 78q-97 -70 -165 -70q-62 0 -97 43q-30 36 -30 87v269q0 34 -36 45l-19 6v16l197 24l-1 -79v-244q0 -104 57 -104q32 0 91 31v305q0 38 -37 46l-28 6v15l205 25l1 -1l-1 -95v-293q0 -57 33 -57q5 0 28 3v-18z" />
    <glyph glyph-name="v" unicode="v" horiz-adv-x="473" 
d="M495 452l-11 -7q-38 -24 -66 -91l-153 -365h-63l-153 383q-27 68 -51 79v16h236v-16l-21 -2q-27 -3 -27 -29q0 -12 7 -30l101 -259l95 230q10 24 10 42q0 35 -36 45l-11 3v16h143v-15z" />
    <glyph glyph-name="w" unicode="w" horiz-adv-x="759" 
d="M781 454l-8 -6q-32 -24 -75 -131l-132 -326h-63l-120 281l-128 -281h-63l-147 385q-8 22 -16 43q-12 26 -31 32v16h226v-15l-13 -2q-24 -4 -24 -33q0 -13 5 -27l93 -264l81 184l-43 97q-14 32 -30 41l-7 4v15h236v-15l-22 -2q-26 -2 -26 -30q0 -15 7 -31l111 -260l75 195
q21 55 21 77q0 39 -34 48l-11 3v15h138v-13z" />
    <glyph glyph-name="x" unicode="x" horiz-adv-x="520" 
d="M525 0h-260v15l10 2q29 6 29 25q0 14 -16 37l-62 90l-84 -96q-14 -16 -14 -32q0 -21 28 -24l21 -2v-15h-166v15l10 2q38 8 93 70l95 107l-133 193q-38 55 -55 60l-17 5v15h252v-15l-13 -1q-31 -2 -31 -23q0 -11 11 -27l74 -106l85 97q14 16 14 32q0 23 -27 26l-17 2v15
h167v-15l-11 -3q-46 -12 -77 -48l-116 -132l136 -197q28 -41 60 -52l14 -5v-15z" />
    <glyph glyph-name="y" unicode="y" horiz-adv-x="482" 
d="M504 455l-13 -10q-39 -30 -69 -98l-164 -368q-47 -105 -93 -218h-54l-10 20q41 66 64 110l44 84l-164 416q-18 45 -29 51l-18 10v15h240v-16q-49 -8 -49 -34q0 -13 8 -33l98 -250l100 228q7 16 7 33q0 49 -46 57v15h148v-12z" />
    <glyph glyph-name="z" unicode="z" horiz-adv-x="429" 
d="M430 155l-35 -172h-14l-2 9q-2 8 -8 8h-351v12l268 339h-187q-38 0 -48.5 -6.5t-27.5 -42.5h-15l36 178h15l1 -5q2 -8 12 -8h333l5 -9l-270 -342h213q28 0 38 6t22 33h15z" />
    <glyph glyph-name="braceleft" unicode="{" horiz-adv-x="404" 
d="M363 -231q-100 10 -160 53q-68 47 -68 125q0 32 6 87t6 87q0 89 -102 112v15q102 20 102 117q0 36 -6 91t-6 83q0 78 67 125q61 43 161 53v-15q-50 -13 -72 -40.5t-22 -82.5q0 -31 5.5 -86t5.5 -87q0 -45 -46 -89q-54 -50 -149 -75q195 -49 195 -162q0 -31 -5.5 -85.5
t-5.5 -86.5v-3q0 -46 12 -68q20 -37 82 -53v-15z" />
    <glyph glyph-name="bar" unicode="|" horiz-adv-x="510" 
d="M278 -231h-48v940h48v-940z" />
    <glyph glyph-name="braceright" unicode="}" horiz-adv-x="405" 
d="M363 233q-102 -23 -102 -112q0 -32 5.5 -87t5.5 -87q0 -78 -67 -125q-60 -43 -160 -53v15q62 16 82 53q12 22 12 68v3q0 32 -5.5 86.5t-5.5 85.5q0 113 195 162q-92 23 -147 74q-48 45 -48 90q0 32 5.5 87t5.5 86q0 55 -22 82.5t-72 40.5v15q100 -10 160 -53
q67 -47 67 -125q0 -28 -5.5 -83t-5.5 -91q0 -97 102 -117v-15z" />
    <glyph glyph-name="asciitilde" unicode="~" horiz-adv-x="718" 
d="M650 414q-2 -116 -46.5 -181.5t-116.5 -65.5q-51 0 -148.5 61t-138.5 61t-72 -34t-41 -88h-26q3 117 48 184q42 63 111 63q57 0 154.5 -61t137.5 -61q41 0 73.5 34t39.5 88h25z" />
    <glyph glyph-name="dagger" unicode="&#x2020;" horiz-adv-x="554" 
d="M525 453q0 -41 -5 -71q-81 20 -235 59q2 -62 23 -250q10 -96 21 -191l-46 -267h-19l-46 267q21 168 44 441q-92 -24 -235 -59q-5 27 -5 71q0 45 5 75q73 -22 235 -65q-11 60 -65 281q40 6 77 6q53 0 76 -5q-28 -118 -65 -282q72 17 235 65q5 -25 5 -75z" />
    <glyph glyph-name="cent" unicode="&#xa2;" horiz-adv-x="372" 
d="M376 64q-35 -36 -84 -59t-91 -23q-13 0 -19 1l-48 -171h-33l49 176q-69 17 -106 82q-32 56 -32 127q0 126 77 207q74 79 185 79h16l32 115h32l-33 -119q31 -6 55 -19l-45 -95h-3q-16 16 -31 28l-94 -335q24 -16 52 -16q60 0 114 34zM270 412q-36 23 -60 23q-41 0 -63 -48
q-18 -41 -18 -108q0 -132 48 -196z" />
    <glyph glyph-name="sterling" unicode="&#xa3;" horiz-adv-x="517" 
d="M509 103q-31 -71 -62 -95t-85 -24q-74 0 -193 49q-27 11 -55 11q-12 0 -26 -12q-39 -33 -80 -47l-9 10q26 40 61 64q10 6 20 12.5t15 17.5q19 42 23 210h-111v35h112q12 350 238 350q71 0 106 -30v-125h-15l-14 52q-21 78 -73 78q-58 0 -77 -102q-8 -43 -16 -223h125v-35
h-128q-5 -61 -34 -108q-31 -50 -103 -109l2 -3l40 18q32 14 52 14q30 0 99.5 -23t95.5 -23q33 0 51 13q11 7 28 32z" />
    <glyph glyph-name="section" unicode="&#xa7;" horiz-adv-x="508" 
d="M464 41q0 -109 -72 -189q-73 -83 -178 -83q-92 0 -139 50l19 78h16q45 -95 130 -95q41 0 69 28t28 75q0 52 -53 120q-10 13 -117 131q-127 140 -127 259q0 109 68 192q71 88 174 88q50 0 92 -17q38 -15 51 -35l-23 -76h-13q-21 45 -61 71q-37 23 -75 23q-37 0 -61.5 -25
t-24.5 -72q0 -70 89 -165l53 -57q74 -78 106 -132q49 -82 49 -169zM422 32q0 98 -84 201q-75 84 -150 167q-57 73 -57 142q0 31 7 50l-3 1q-24 -26 -40 -81q-14 -49 -14 -88q0 -62 38 -124q26 -41 87 -106q82 -87 109 -125q58 -81 58 -151q0 -26 -9 -51l3 -2q55 69 55 167z
" />
    <glyph glyph-name="bullet" unicode="&#x2022;" horiz-adv-x="367" 
d="M320 271q0 -58 -35 -98q-39 -44 -104 -44q-67 0 -106 44q-35 40 -35 98q0 57 35 96q39 44 106 44q66 0 104 -44q35 -39 35 -96z" />
    <glyph glyph-name="paragraph" unicode="&#xb6;" horiz-adv-x="533" 
d="M507 658q-20 -2 -54 -7q-27 -6 -27 -23v-863h-43v873h-99v-873h-43v459q-114 3 -179 73q-58 62 -58 153t58 154q65 69 179 69h266v-15z" />
    <glyph glyph-name="germandbls" unicode="&#xdf;" horiz-adv-x="604" 
d="M590 160q0 -68 -49 -119q-52 -52 -125 -52q-88 0 -152 21l-10 134l15 4q52 -134 140 -134q31 0 52.5 23t21.5 55q0 49 -60 88q-56 32 -113 65q-60 42 -60 96q0 45 51 83l74 54q33 32 33 84q0 53 -27 92q-31 44 -84 44q-96 0 -96 -165v-533h-190v15l17 5q32 9 32 51v353
h-60v15l26 10q26 10 41 49t30 79q74 152 233 152q77 0 131 -29q67 -37 67 -108q0 -72 -68 -108l-53 -28q-31 -17 -45.5 -26.5t-14.5 -22.5q0 -22 63 -58q91 -52 117 -74q63 -52 63 -115z" />
    <glyph glyph-name="acute" unicode="&#xb4;" 
d="M375 680l-217 -169l-11 10l97 170h125z" />
    <glyph glyph-name="dieresis" unicode="&#xa8;" 
d="M370 598q0 -29 -18 -45t-42 -16t-42 16t-18 45q0 30 18 46.5t42 16.5t42 -16.5t18 -46.5zM178 598q0 -29 -18 -45t-42 -16t-42 16t-18 45q0 30 18 46.5t42 16.5t42 -16.5t18 -46.5z" />
    <glyph glyph-name="AE" unicode="&#xc6;" horiz-adv-x="934" 
d="M924 193l-28 -193h-509v15l26 6q29 7 38 23q8 13 8 47l1 155h-227l-70 -117q-27 -45 -27 -73q0 -21 16 -30l19 -11v-15h-160v15q48 16 102 107l283 480q9 15 9 30q0 19 -19 22l-28 4v15h536l-9 -169h-18l-20 67q-13 45 -38 60q-20 12 -67 12h-127v-287h131q42 0 58.5 8.5
t31.5 44.5l9 22h18v-190h-18l-9 26q-13 37 -31 47t-59 10h-131v-249q0 -27 10.5 -36t38.5 -9h74q49 0 78 20q38 27 70 100l19 43h19zM460 278v358l-208 -358h208z" />
    <glyph glyph-name="Oslash" unicode="&#xd8;" horiz-adv-x="743" 
d="M725 337q0 -154 -100.5 -253t-255.5 -99q-144 0 -237 78l-73 -78l-27 26l73 78q-85 92 -85 239q0 159 100.5 256.5t260.5 97.5q127 0 216 -66q30 32 66 72l27 -26l-65 -70q100 -96 100 -255zM521 535q-50 116 -156 116q-97 0 -144 -98q-37 -76 -37 -186q0 -94 20 -172z
M561 293q0 120 -25 203l-320 -342q51 -138 168 -138q95 0 141 95q36 74 36 182z" />
    <glyph glyph-name="yen" unicode="&#xa5;" horiz-adv-x="603" 
d="M609 657q-49 -12 -83 -65l-147 -231h172v-38h-174v-68h174v-38h-174v-129q0 -39 10.5 -53t37.5 -17l28 -3v-15h-276v15l21 3q31 4 40.5 16.5t9.5 53.5v129h-178v38h178v68h-178v38h178l-139 213q-48 73 -98 84v15h275v-14l-17 -3q-35 -6 -35 -29q0 -20 22 -55l112 -176
l112 183q13 21 13 40q0 32 -40 38l-14 2v14h170v-16z" />
    <glyph glyph-name="ordfeminine" unicode="&#xaa;" horiz-adv-x="271" 
d="M305 405q-50 -39 -89 -39q-41 0 -51 36q-50 -32 -89 -32q-31 0 -51 18t-20 51q0 53 62 72q20 6 98 21v53q0 73 -39 73t-39 -64l-75 -16q-2 8 -2 20q0 42 83 73q30 11 70 11q89 0 89 -97v-150q0 -27 18 -27q13 0 31 11zM165 419v96l-33 -7q-48 -10 -48 -54q0 -47 46 -47
q13 0 35 12z" />
    <glyph glyph-name="ordmasculine" unicode="&#xba;" horiz-adv-x="328" 
d="M317 527q0 -68 -41 -113q-44 -48 -119 -48q-67 0 -110 42.5t-43 113.5q0 67 44 114t115 47q70 0 112 -43t42 -113zM220 493q0 166 -68 166q-52 0 -52 -103q0 -166 71 -166q49 0 49 103z" />
    <glyph glyph-name="ae" unicode="&#xe6;" horiz-adv-x="693" 
d="M698 74q-38 -40 -98 -65t-120 -25q-109 0 -162 75q-96 -71 -176 -71q-56 0 -92 28q-39 30 -39 79q0 76 86 110q33 13 86 24l88 18v42q0 52 -3 79q-9 79 -59 79q-23 0 -38 -29.5t-15 -74.5l-132 -34q-1 5 -1 15q0 50 40 89q32 31 79 47q58 20 113 20q79 0 118 -42
q53 45 131 45q65 0 116 -46q48 -43 64 -110l11 -9v-10l-286 -60v-26q0 -89 46 -136q41 -42 109 -42q60 0 128 45zM551 303v14q0 50 -20 92q-22 49 -56 49q-30 0 -48 -49.5t-18 -136.5zM304 81q-30 64 -33 139l-42 -10q-53 -13 -70.5 -32t-17.5 -64q0 -29 19.5 -52.5
t47.5 -23.5q38 0 96 43z" />
    <glyph glyph-name="oslash" unicode="&#xf8;" horiz-adv-x="525" 
d="M511 237q0 -111 -72.5 -181.5t-183.5 -70.5q-91 0 -153 46l-49 -55l-25 22l49 55q-65 66 -65 175q0 111 72.5 181.5t183.5 70.5q88 0 150 -44l45 50l24 -21l-44 -50q68 -66 68 -178zM343 352q-29 103 -96 103q-86 0 -86 -179q0 -64 9 -119zM362 188q0 69 -10 125
l-174 -196q28 -107 98 -107q86 0 86 178z" />
    <glyph glyph-name="questiondown" unicode="&#xbf;" horiz-adv-x="377" 
d="M314 402q0 -36 -23.5 -55.5t-55.5 -19.5t-54 19q-25 20 -25 56t25 58q22 19 54 19t54 -19q25 -22 25 -58zM361 -61q-36 -122 -50 -160q-47 -15 -93 -15q-84 0 -137.5 50.5t-53.5 134.5q0 78 53 135q50 41 101.5 83.5t51.5 89.5v33h17q12 -19 27 -59q18 -45 18 -65
q0 -70 -58 -126q-16 -16 -107 -77q-58 -39 -58 -71q0 -52 81 -52q104 0 196 107z" />
    <glyph glyph-name="exclamdown" unicode="&#xa1;" horiz-adv-x="271" 
d="M210 404q0 -77 -79 -77q-36 0 -57.5 20t-21.5 55t21.5 56.5t57.5 21.5q79 0 79 -76zM223 -159q0 -37 -27 -64t-65 -27t-64.5 27t-26.5 64q0 36 26 165q20 99 41 197l19 94h11l19 -94q21 -98 41 -197q26 -129 26 -165z" />
    <glyph glyph-name="florin" unicode="&#x192;" horiz-adv-x="500" 
d="M523 663l-48 -88h-3q-17 21 -34 43q-19 19 -43 19q-31 0 -50 -35q-20 -39 -38 -145l-10 -58h117l-7 -36h-116l-42 -256q-18 -108 -95 -183q-83 -80 -190 -80q-41 0 -69 19l48 88h3q26 -38 33 -44q16 -16 40 -16q73 0 102 178l48 294h-58l4 14l18 9q45 23 48 33
q73 263 273 263q41 0 69 -19z" />
    <glyph glyph-name="guillemotleft" unicode="&#xab;" horiz-adv-x="532" 
d="M471 60l-10 -6l-215 202l217 202l8 -7l-81 -195zM263 60l-10 -6l-215 202l217 202l8 -7l-81 -195z" />
    <glyph glyph-name="guillemotright" unicode="&#xbb;" horiz-adv-x="532" 
d="M487 256l-215 -202l-11 6l82 196l-82 195l9 7zM279 256l-215 -202l-11 6l82 196l-82 195l9 7z" />
    <glyph glyph-name="ellipsis" unicode="&#x2026;" horiz-adv-x="603" 
d="M593 68q0 -39 -25 -61t-59 -22t-56 21q-26 23 -26 62t26 62q22 20 56 20t59 -21.5t25 -60.5zM392 68q0 -39 -25 -61t-59 -22t-56 21q-26 23 -26 62t26 62q22 20 56 20t59 -21.5t25 -60.5zM191 68q0 -39 -25 -61t-59 -22t-56 21q-26 23 -26 62t26 62q22 20 56 20t59 -21.5
t25 -60.5z" />
    <glyph glyph-name="OE" unicode="&#x152;" horiz-adv-x="963" 
d="M953 193l-28 -193h-457q-48 -12 -99 -12q-157 0 -253 93t-96 250q0 159 100.5 256.5t260.5 97.5q53 0 100 -12h442l-9 -169h-18l-20 67q-13 45 -38 60q-20 12 -67 12h-127v-287h131q42 0 58.5 8.5t31.5 44.5l9 22h18v-190h-18l-9 26q-13 37 -31 47t-59 10h-131v-249
q0 -27 10.5 -36t38.5 -9h74q49 0 78 20q38 27 70 100l19 43h19zM488 121v406q0 67 -25 95q-27 32 -98 32q-97 0 -144 -98q-37 -76 -37 -186q0 -133 36 -224q52 -127 164 -127q104 0 104 102z" />
    <glyph glyph-name="oe" unicode="&#x153;" horiz-adv-x="787" 
d="M792 74q-38 -40 -98 -65t-120 -25q-96 0 -152 62q-65 -61 -167 -61q-110 0 -176.5 66.5t-66.5 176.5q0 111 72.5 181.5t183.5 70.5q109 0 170 -67q64 70 160 70q67 0 115.5 -40t64.5 -105l11 -9v-10l-286 -84q0 -191 155 -191q60 0 128 45zM645 304v13q0 50 -20 92
q-22 49 -56 49q-32 0 -50 -58q-16 -53 -16 -138zM362 188q0 95 -18 161q-28 106 -97 106q-86 0 -86 -179q0 -95 18 -161q28 -105 97 -105q86 0 86 178z" />
    <glyph glyph-name="endash" unicode="&#x2013;" horiz-adv-x="405" 
d="M389 240h-380v43h380v-43z" />
    <glyph glyph-name="emdash" unicode="&#x2014;" horiz-adv-x="845" 
d="M829 240h-820v43h820v-43z" />
    <glyph glyph-name="quotedblleft" unicode="&#x201c;" horiz-adv-x="415" 
d="M390 496q0 -29 -20 -45.5t-49 -16.5q-38 0 -66 26q-31 29 -31 79q0 117 150 191l8 -14q-33 -17 -58.5 -51.5t-25.5 -63.5q0 -31 31 -40q61 -17 61 -65zM197 496q0 -29 -20 -45.5t-49 -16.5q-38 0 -66 26q-31 29 -31 79q0 117 150 191l8 -14q-33 -17 -58.5 -51.5
t-25.5 -63.5q0 -31 31 -40q61 -17 61 -65z" />
    <glyph glyph-name="quotedblright" unicode="&#x201d;" horiz-adv-x="425" 
d="M397 619q0 -117 -150 -191l-8 14q33 17 58.5 51.5t25.5 63.5q0 31 -31 40q-61 17 -61 65q0 29 20 45.5t49 16.5q38 0 66 -26q31 -29 31 -79zM204 619q0 -117 -150 -191l-8 14q33 17 58.5 51.5t25.5 63.5q0 31 -31 40q-61 17 -61 65q0 29 20 45.5t49 16.5q38 0 66 -26
q31 -29 31 -79z" />
    <glyph glyph-name="quoteleft" unicode="&#x2018;" horiz-adv-x="241" 
d="M197 496q0 -29 -20 -45.5t-49 -16.5q-38 0 -66 26q-31 29 -31 79q0 117 150 191l8 -14q-33 -17 -58.5 -51.5t-25.5 -63.5q0 -31 31 -40q61 -17 61 -65z" />
    <glyph glyph-name="quoteright" unicode="&#x2019;" horiz-adv-x="215" 
d="M192 619q0 -50 -36 -102t-94 -89l-8 13q64 66 64 116q0 31 -31 40q-61 17 -61 65q0 29 20 45.5t49 16.5q38 0 66 -26q31 -29 31 -79z" />
    <glyph glyph-name="fraction" unicode="&#x2044;" horiz-adv-x="60" 
d="M271 724l-447 -749h-42l448 749h41z" />
    <glyph glyph-name="currency" unicode="&#xa4;" horiz-adv-x="613" 
d="M557 78l-31 -32l-68 69q-76 -56 -155 -56q-76 0 -154 56l-68 -69l-32 33l68 68q-55 78 -55 157t55 157l-68 68l32 33l68 -68q77 56 154 56q76 0 155 -57l68 69l31 -33l-67 -69q55 -78 55 -157q0 -75 -56 -155zM499 304q0 82 -58 140.5t-138 58.5q-81 0 -138 -58t-57 -141
q0 -82 57 -140.5t138 -58.5q80 0 138 58.5t58 140.5z" />
    <glyph glyph-name="guilsinglleft" unicode="&#x2039;" horiz-adv-x="341" 
d="M261 60l-8 -6l-215 202l217 202l6 -7l-79 -195z" />
    <glyph glyph-name="guilsinglright" unicode="&#x203a;" horiz-adv-x="341" 
d="M296 256l-215 -202l-8 6l79 196l-79 195l6 7z" />
    <glyph glyph-name="fi" unicode="&#xf001;" horiz-adv-x="555" 
d="M486 639q0 -35 -22.5 -55t-52.5 -20t-52.5 20t-22.5 55q0 36 22.5 56t52.5 20t52.5 -20t22.5 -56zM546 0h-241v15l15 5q19 6 23.5 23t4.5 78v254q0 26 -1 33q-5 19 -21 19h-137v-360q0 -36 39 -44l38 -8v-15h-252v15l16 6q18 7 24 19q4 9 4 32v352h-65v20q13 2 46 11
q20 5 24 27q13 70 50 130q43 68 90 96.5t123 28.5v-98l-12 -5q-56 46 -78 46q-18 0 -27 -14q-20 -30 -20 -169v-32h213q37 0 88 20l7 -7q-8 -53 -8 -118v-296q0 -35 37 -44l20 -5v-15z" />
    <glyph glyph-name="fl" unicode="&#xf002;" horiz-adv-x="543" 
d="M543 0h-239v15l15 5q27 9 27 51v355h-157v-359q0 -36 39 -44l38 -8v-15h-252v15l16 6q18 7 24 19q4 9 4 32v352h-65v20q13 2 46 11q20 5 24 27q13 70 50 130q63 101 148 119q28 6 72 6v-50l151 59l11 -8q-8 -56 -8 -122v-552q0 -33 32 -42l24 -7v-15zM346 464v122
q0 36 -24 56l-24 20q-24 20 -52 20q-34 0 -45 -34q-12 -39 -12 -151v-33h157z" />
    <glyph glyph-name="daggerdbl" unicode="&#x2021;" horiz-adv-x="554" 
d="M525 63q0 -45 -5 -75q-73 23 -237 67q13 -74 35 -162q16 -60 32 -121q-40 -6 -77 -6q-53 0 -76 5q20 82 67 284q-49 -11 -237 -67q-5 25 -5 75q0 41 5 71q82 -20 237 -61q-3 96 -36 185q10 25 17 53q18 66 19 132q-93 -25 -237 -61q-5 27 -5 71q0 45 5 75q74 -23 237 -67
q-13 74 -35 162q-16 60 -32 121q40 6 77 6q53 0 76 -5q-20 -82 -67 -284q49 11 237 67q5 -25 5 -75q0 -41 -5 -71q-82 21 -237 61q3 -96 36 -185q-10 -25 -17 -53q-18 -66 -19 -132q93 25 237 61q5 -27 5 -71z" />
    <glyph glyph-name="periodcentered" unicode="&#xb7;" horiz-adv-x="249" 
d="M209 261q0 -39 -25 -61t-59 -22t-56 21q-26 23 -26 62t26 62q22 20 56 20t59 -21.5t25 -60.5z" />
    <glyph glyph-name="periodcentered" unicode="&#x2219;" horiz-adv-x="249" 
d="M209 261q0 -39 -25 -61t-59 -22t-56 21q-26 23 -26 62t26 62q22 20 56 20t59 -21.5t25 -60.5z" />
    <glyph glyph-name="quotesinglbase" unicode="&#x201a;" horiz-adv-x="242" 
d="M204 45q0 -122 -150 -186l-8 14q82 40 82 114q0 28 -29 36q-61 17 -61 65q0 29 20 45.5t49 16.5q38 0 66 -26q31 -29 31 -79z" />
    <glyph glyph-name="quotedblbase" unicode="&#x201e;" horiz-adv-x="433" 
d="M397 45q0 -122 -150 -186l-8 14q82 40 82 114q0 28 -29 36q-61 17 -61 65q0 29 20 45.5t49 16.5q38 0 66 -26q31 -29 31 -79zM204 45q0 -122 -150 -186l-8 14q82 40 82 114q0 28 -29 36q-61 17 -61 65q0 29 20 45.5t49 16.5q38 0 66 -26q31 -29 31 -79z" />
    <glyph glyph-name="perthousand" unicode="&#x2030;" horiz-adv-x="894" 
d="M892 175q0 -75 -33 -129q-37 -61 -99 -61t-98 62q-33 54 -33 127q0 75 34 130q37 60 97 60q61 0 99 -60q33 -54 33 -129zM275 496q0 -75 -34 -130q-37 -60 -97 -60q-61 0 -99 60q-33 54 -33 129t33 129q37 61 99 61t99 -61q32 -55 32 -128zM516 685l-380 -697h-49
l379 697h50zM591 175q0 -75 -33 -129q-37 -61 -99 -61t-98 62q-33 54 -33 127q0 75 34 130q37 60 97 60q61 0 99 -60q33 -54 33 -129zM810 167q0 98 -13 138q-12 36 -39 36q-25 0 -36 -33.5t-11 -120.5q0 -104 13 -144q12 -35 39 -35q47 0 47 159zM193 483q0 104 -13 144
q-12 35 -39 35q-47 0 -47 -159q0 -98 13 -138q12 -36 39 -36q25 0 36 33.5t11 120.5zM509 167q0 98 -13 138q-12 36 -39 36q-25 0 -36 -33.5t-11 -120.5q0 -104 13 -144q12 -35 39 -35q47 0 47 159z" />
    <glyph glyph-name="dotlessi" unicode="&#x131;" horiz-adv-x="252" 
d="M256 0h-241v15l15 5q19 6 23.5 23t4.5 78v212q0 30 -24 53l-25 24v11l191 69l7 -7q-8 -53 -8 -123v-296q0 -35 37 -44l20 -5v-15z" />
    <glyph glyph-name="circumflex" unicode="&#x2c6;" 
d="M353 519l-9 -8l-132 111l-128 -111l-10 8l104 172h70z" />
    <glyph glyph-name="tilde" unicode="&#x2dc;" 
d="M382 656q0 -60 -26.5 -94.5t-67.5 -34.5q-33 0 -90 35.5t-80 35.5q-20 0 -36 -17q-18 -20 -22 -53h-15q3 142 97 142q33 0 89.5 -35t79.5 -35q53 0 58 69h13v-13z" />
    <glyph glyph-name="macron" unicode="&#xaf;" 
d="M357 572h-287v62h287v-62z" />
    <glyph glyph-name="macron" unicode="&#x2c9;" 
d="M357 572h-287v62h287v-62z" />
    <glyph glyph-name="breve" unicode="&#x2d8;" 
d="M347 690q-2 -76 -37 -118.5t-98 -42.5q-53 0 -87 33q-42 42 -45 128h15q8 -38 40.5 -60.5t76.5 -22.5q93 0 119 83h16z" />
    <glyph glyph-name="dotaccent" unicode="&#x2d9;" 
d="M274 598q0 -29 -18 -45t-42 -16t-42 16t-18 45q0 30 18 46.5t42 16.5t42 -16.5t18 -46.5z" />
    <glyph glyph-name="ring" unicode="&#x2da;" 
d="M294 610q0 -33 -23.5 -57t-56.5 -24t-57 23.5t-24 57.5t24 57.5t57 23.5t56.5 -23.5t23.5 -57.5zM259 610q0 19 -13.5 32.5t-31.5 13.5q-19 0 -31.5 -13.5t-12.5 -32.5t12.5 -32t31.5 -13q18 0 31.5 13t13.5 32z" />
    <glyph glyph-name="cedilla" unicode="&#xb8;" 
d="M308 -133q0 -41 -38 -69q-42 -32 -116 -32q-7 0 -27 2l1 15h21q39 0 63 20q22 17 22 41q0 46 -66 46q-5 0 -17 -1h-16l68 125h23l-25 -61q50 -3 80 -29q27 -24 27 -57z" />
    <glyph glyph-name="hungarumlaut" unicode="&#x2dd;" 
d="M432 682l-214 -171h-15l111 180h118v-9zM238 682l-214 -171h-15l111 180h118v-9z" />
    <glyph glyph-name="ogonek" unicode="&#x2db;" 
d="M312 -167q-42 -25 -90 -25q-51 0 -82 28q-26 25 -26 55q0 54 66 117h23q-17 -34 -17 -72t26 -66t74 -28q11 0 23 3z" />
    <glyph glyph-name="caron" unicode="&#x2c7;" 
d="M353 693l-105 -172h-70l-104 172l10 8l128 -111l132 111z" />
    <glyph glyph-name="Lslash" unicode="&#x141;" horiz-adv-x="555" 
d="M542 193l-28 -193h-497v15l26 6q31 7 40 24q6 12 6 46v195l-77 -51v35l77 51v276q0 33 -9.5 43.5t-43.5 14.5l-25 3v15h315v-15l-24 -3q-38 -5 -47.5 -19.5t-9.5 -63.5v-146l92 61v-35l-92 -61v-304q0 -33 11 -45t43 -12h57q49 0 72 15q31 21 67 92l28 56h19z" />
    <glyph glyph-name="lslash" unicode="&#x142;" horiz-adv-x="257" 
d="M257 458l-59 -44v-350q0 -33 32 -42l24 -7v-15h-239v15l15 5q27 9 27 51v239l-57 -42v34l57 42v232q0 41 -24 63l-25 23v11l187 73l11 -8q-8 -56 -8 -122v-168l59 44v-34z" />
    <glyph glyph-name=".null" horiz-adv-x="247" 
 />
    <glyph glyph-name="Eth" unicode="&#xd0;" horiz-adv-x="715" 
d="M703 347q0 -158 -95.5 -252.5t-257.5 -94.5h-337v15l31 7q28 6 35 18q6 9 6 39v245h-76v27h76v239q0 36 -8 48.5t-42 16.5l-24 3v15h138q33 0 98.5 4t98.5 4q166 0 259 -83q98 -88 98 -251zM539 333q0 153 -57.5 236t-162.5 83q-15 0 -37 -2q-30 -3 -41 -4v-295h126v-27
h-126v-273q0 -24 22 -24h48q228 0 228 306z" />
    <glyph glyph-name="eth" unicode="&#xf0;" horiz-adv-x="510" 
d="M511 254q0 -120 -67 -193q-69 -76 -189 -76q-110 0 -176.5 66.5t-66.5 176.5q0 111 72.5 181.5t183.5 70.5q26 0 46 -3q-27 68 -66 132l-136 -53l-8 22l129 52q-41 60 -77 91l9 11q81 -22 151 -71l114 47l9 -24l-102 -40q73 -62 123 -171q51 -113 51 -219zM362 188
q0 95 -18 161q-28 106 -97 106q-86 0 -86 -179q0 -95 18 -161q28 -105 97 -105q86 0 86 178z" />
    <glyph glyph-name="Scaron" unicode="&#x160;" horiz-adv-x="501" 
d="M387 876l-105 -172h-70l-104 172l10 8l128 -111l132 111zM482 191q0 -92 -61 -148q-64 -58 -176 -58q-105 0 -173 30l-26 -23h-11l-25 226l17 5l39 -74q35 -65 69 -96q45 -41 108 -41q55 0 87 34q29 30 29 74q0 67 -87 121q-80 48 -161 95q-87 64 -87 153q0 76 56 132
q64 63 171 63q74 0 140 -30l32 24h12l16 -223l-18 -3l-19 44q-42 98 -79 132q-32 29 -85 29q-45 0 -77 -30t-32 -72q0 -63 88 -115q82 -45 165 -91q88 -64 88 -158z" />
    <glyph glyph-name="scaron" unicode="&#x161;" horiz-adv-x="378" 
d="M329 693l-105 -172h-70l-104 172l10 8l128 -111l132 111zM363 146q0 -90 -72 -134q-43 -26 -114 -26q-37 0 -110 12l-41 -3l-7 161l15 1l21 -46q22 -48 59 -75q33 -24 65 -24t56.5 19t24.5 52q0 38 -61 74q-57 34 -114 67q-61 47 -61 111q0 101 106 135q37 12 87 12
q54 0 110 -13l11 -130l-15 -4q-30 64 -57 90q-30 31 -70 31q-76 0 -76 -63q0 -34 63 -70q112 -65 117 -69q63 -47 63 -108z" />
    <glyph glyph-name="Yacute" unicode="&#xdd;" horiz-adv-x="673" 
d="M564 863l-217 -169l-11 10l97 170h125zM679 658l-14 -3q-42 -9 -70 -60l-171 -311v-193q0 -41 6 -52q9 -17 46 -22l24 -3v-14h-304v14l23 3q28 4 38 18t10 56v193l-170 301q-21 37 -34.5 50.5t-38.5 19.5l-13 3v15h312v-15l-19 -3q-43 -7 -43 -33q0 -14 13 -38l136 -249
l126 231q13 24 13 43q0 38 -41 46l-16 3v15h187v-15z" />
    <glyph glyph-name="yacute" unicode="&#xfd;" horiz-adv-x="482" 
d="M443 680l-217 -169l-11 10l97 170h125zM504 455l-13 -10q-39 -30 -69 -98l-164 -368q-47 -105 -93 -218h-54l-10 20q39 63 64 110l44 84l-164 416q-18 45 -29 51l-18 10v15h240v-16q-49 -8 -49 -34q0 -13 8 -33l98 -250l100 228q7 16 7 33q0 49 -46 57v15h148v-12z" />
    <glyph glyph-name="Thorn" unicode="&#xde;" horiz-adv-x="614" 
d="M599 349q0 -93 -69 -154q-75 -65 -199 -65q-24 0 -92 8v-46q0 -42 11.5 -56.5t41.5 -17.5l28 -3v-15h-313v15l23 3q32 4 42.5 17.5t10.5 56.5v471q0 42 -7 60q-11 27 -46 32l-23 3v15h313v-15l-23 -3q-39 -5 -51 -31q-7 -16 -7 -61v-10q50 3 96 3q264 0 264 -207z
M435 345q0 183 -131 183q-44 0 -65 -7v-359q30 -5 49 -5q72 0 109.5 50t37.5 138z" />
    <glyph glyph-name="thorn" unicode="&#xfe;" horiz-adv-x="526" 
d="M512 256q0 -82 -39 -148q-44 -73 -125 -100q-42 -14 -95 -14q-29 0 -54 4v-169q0 -32 51 -41l33 -6v-17h-274v17l17 4q32 8 32 50v740q0 41 -24 63l-25 23v11l187 73l11 -8q-8 -56 -8 -122v-204q83 60 147 60q70 0 118 -64.5t48 -151.5zM369 208q0 85 -29.5 141t-80.5 56
q-20 0 -60 -18v-274q0 -94 74 -94q48 0 74 61q22 52 22 128z" />
    <glyph glyph-name="Zcaron" unicode="&#x17d;" horiz-adv-x="689" 
d="M476 875l-105 -172h-70l-104 172l10 8l128 -111l132 111zM664 193l-50 -206h-11q-15 13 -24 13h-567l-8 14q47 58 104 142l235 343q36 52 97 146h-203q-123 0 -169 -84l-32 -58h-23l57 183h11q11 -13 77 -13h487l5 -7q-60 -76 -117 -159l-233 -339q-35 -51 -94 -140h258
q93 0 158 126l20 39h22z" />
    <glyph glyph-name="zcaron" unicode="&#x17e;" horiz-adv-x="429" 
d="M356 693l-105 -172h-70l-104 172l10 8l128 -111l132 111zM430 155l-35 -172h-14l-2 9q-2 8 -8 8h-351v12l268 339h-187q-38 0 -48.5 -6.5t-27.5 -42.5h-15l36 178h15l1 -5q2 -8 12 -8h333l5 -9l-270 -342h213q28 0 38 6t22 33h15z" />
    <glyph glyph-name="DC1" horiz-adv-x="990" 
 />
    <glyph glyph-name="DC2" horiz-adv-x="482" 
 />
    <glyph glyph-name="onehalf" unicode="&#xbd;" horiz-adv-x="592" 
d="M586 90q-3 -11 -21 -90h-229v15l49 48q105 103 105 192q0 35 -21.5 57t-50.5 22q-46 0 -65 -50l-16 8q15 45 50 69q31 22 70 22q47 0 81 -30t34 -79q0 -55 -49 -109q-45 -50 -106 -107h110q30 0 44 32h15zM208 311h-162v15l22 4q20 4 20 25v257l-59 -15v15q67 35 123 80
h16q-3 -51 -3 -90v-247q0 -22 21 -25l22 -3v-16zM512 685l-418 -697h-42l419 697h41z" />
    <glyph glyph-name="onequarter" unicode="&#xbc;" horiz-adv-x="574" 
d="M208 311h-162v15l22 4q20 4 20 25v257l-59 -15v15q67 35 123 80h16q-3 -51 -3 -90v-247q0 -22 21 -25l22 -3v-16zM512 685l-418 -697h-42l419 697h41zM566 140l-7 -50h-50v-90l-77 -9v99h-144l-9 14l199 290h31v-258h10q37 0 47 4zM432 136v147l-101 -147h101z" />
    <glyph glyph-name="onesuperior" unicode="&#xb9;" horiz-adv-x="191" 
d="M188 309h-162v15l22 4q20 4 20 25v257l-59 -15v15q67 35 123 80h16q-3 -51 -3 -90v-247q0 -22 21 -25l22 -3v-16z" />
    <glyph glyph-name="threequarters" unicode="&#xbe;" horiz-adv-x="615" 
d="M552 685l-418 -697h-42l419 697h41zM606 140l-7 -50h-50v-90l-77 -9v99h-144l-9 14l199 290h31v-258h10q37 0 47 4zM250 417q0 -54 -41 -89t-94 -35q-64 0 -102 51l10 11q26 -29 67 -29q31 0 53 20t22 57q0 33 -17 58t-45 25q-12 0 -23 -4l-4 13q70 31 70 81q0 65 -56 65
q-35 0 -62 -29l-10 10q37 64 110 64q40 0 68.5 -22.5t28.5 -58.5q0 -57 -67 -88v-3q44 -4 68 -31.5t24 -65.5zM472 136v147l-101 -147h101z" />
    <glyph glyph-name="threesuperior" unicode="&#xb3;" horiz-adv-x="261" 
d="M250 415q0 -54 -41 -89t-94 -35q-64 0 -102 51l10 11q26 -29 67 -29q31 0 53 20t22 57q0 33 -17 58t-45 25q-12 0 -23 -4l-4 13q70 31 70 81q0 65 -56 65q-35 0 -62 -29l-10 10q37 64 110 64q40 0 68.5 -22.5t28.5 -58.5q0 -57 -67 -88v-3q44 -4 68 -31.5t24 -65.5z" />
    <glyph glyph-name="twosuperior" unicode="&#xb2;" horiz-adv-x="277" 
d="M266 391q-3 -11 -21 -90h-229v15l49 48q105 103 105 192q0 35 -21.5 57t-50.5 22q-46 0 -65 -50l-16 8q15 45 50 69q31 22 70 22q47 0 81 -30t34 -79q0 -55 -49 -109q-45 -50 -106 -107h110q30 0 44 32h15z" />
    <glyph glyph-name="brokenbar" unicode="&#xa6;" horiz-adv-x="510" 
d="M273 368h-43v342h43v-342zM273 -231h-43v342h43v-342z" />
    <glyph glyph-name="minus" unicode="&#xad;" horiz-adv-x="573" 
d="M543 240h-520v43h520v-43z" />
    <glyph glyph-name="minus" unicode="&#x2212;" horiz-adv-x="573" 
d="M543 240h-520v43h520v-43z" />
    <glyph glyph-name="multiply" unicode="&#xd7;" horiz-adv-x="573" 
d="M489 436l-176 -177l175 -175l-31 -32l-176 176l-174 -174l-33 32l175 174l-174 174l31 31l174 -174l177 177z" />
    <glyph glyph-name="Adieresis" unicode="&#xc4;" horiz-adv-x="695" 
d="M517 790q0 -29 -18 -45t-42 -16t-42 16t-18 45q0 30 18 46.5t42 16.5t42 -16.5t18 -46.5zM305 790q0 -29 -18 -45t-42 -16t-42 16t-18 45q0 30 18 46.5t42 16.5t42 -16.5t18 -46.5zM701 0h-285v15l20 3q29 4 29 41q0 16 -6 32l-56 152h-225l-46 -125q-12 -33 -12 -55
q0 -36 32 -43l22 -5v-15h-163v15l5 2q40 16 70 95l161 423q17 45 43 138h123q12 -42 46 -133l166 -444q27 -72 76 -81v-15zM390 278l-101 272l-99 -272h200z" />
    <glyph glyph-name="Aring" unicode="&#xc5;" horiz-adv-x="697" 
d="M427 784q0 -33 -23.5 -57t-56.5 -24t-57 23.5t-24 57.5t24 57.5t57 23.5t56.5 -23.5t23.5 -57.5zM701 0h-285v15l20 3q29 4 29 41q0 16 -6 32l-56 152h-225l-46 -125q-12 -33 -12 -55q0 -36 32 -43l22 -5v-15h-163v15l5 2q40 16 70 95l161 423q17 45 43 138h123
q12 -42 46 -133l166 -444q27 -72 76 -81v-15zM392 784q0 19 -13.5 32.5t-31.5 13.5q-19 0 -31.5 -13.5t-12.5 -32.5t12.5 -32t31.5 -13q18 0 31.5 13t13.5 32zM390 278l-101 272l-99 -272h200z" />
    <glyph glyph-name="Ccedilla" unicode="&#xc7;" horiz-adv-x="628" 
d="M620 171q-9 -46 -38 -143q-86 -42 -216 -44l-13 -32q50 -3 80 -29q27 -24 27 -57q0 -41 -38 -69q-42 -32 -116 -32q-7 0 -27 2l1 15h21q39 0 63 20q22 17 22 41q0 46 -66 46q-5 0 -17 -1h-16l52 96q-154 6 -238 101q-82 92 -82 249v1q0 156 101.5 252t258.5 96
q107 0 181 -40q24 19 37 32h12l-1 -229h-18q-25 87 -43 120q-27 52 -73 71q-36 15 -92 15q-108 0 -157 -105q-37 -79 -37 -202q0 -135 42 -216q55 -106 175 -106q55 0 110 24q46 48 91 131z" />
    <glyph glyph-name="Eacute" unicode="&#xc9;" horiz-adv-x="574" 
d="M425 873l-217 -169l-11 10l97 170h125zM564 193l-28 -193h-509v15l26 6q29 7 38 23q8 13 8 47v496q0 38 -10.5 49.5t-49.5 17.5l-28 4v15h523l-9 -169h-18l-20 67q-13 45 -38 60q-20 12 -67 12h-127v-287h131q42 0 58.5 8.5t31.5 44.5l9 22h18v-190h-18l-9 26
q-13 37 -31 47t-59 10h-131v-249q0 -27 10.5 -36t38.5 -9h74q49 0 78 20q38 27 70 100l19 43h19z" />
    <glyph glyph-name="Ntilde" unicode="&#xd1;" horiz-adv-x="720" 
d="M541 848q0 -60 -26.5 -94.5t-67.5 -34.5q-32 0 -89.5 35.5t-80.5 35.5q-20 0 -36 -17q-18 -20 -22 -53h-15q3 142 97 142q33 0 89.5 -35t79.5 -35q53 0 58 69h13v-13zM726 658l-17 -4q-32 -8 -43.5 -26t-11.5 -62v-577h-65l-463 570v-456q0 -43 12.5 -59.5t49.5 -24.5
l19 -4v-15h-196v15l21 5q29 7 41 24.5t12 60.5v467q0 41 -9 58q-8 14 -31 22l-18 6v15h200l386 -476v368q0 45 -11.5 62.5t-44.5 25.5l-20 5v15h189v-15z" />
    <glyph glyph-name="Odieresis" unicode="&#xd6;" horiz-adv-x="743" 
d="M533 790q0 -29 -18 -45t-42 -16t-42 16t-18 45q0 30 18 46.5t42 16.5t42 -16.5t18 -46.5zM321 790q0 -29 -18 -45t-42 -16t-42 16t-18 45q0 30 18 46.5t42 16.5t42 -16.5t18 -46.5zM725 340q0 -154 -100.5 -253t-255.5 -99q-157 0 -253 93t-96 250q0 159 100.5 256.5
t260.5 97.5q155 0 249.5 -95.5t94.5 -249.5zM561 296q0 137 -34 227q-49 131 -162 131q-97 0 -144 -98q-37 -76 -37 -186q0 -133 36 -224q52 -127 164 -127q95 0 141 96q36 73 36 181zM363 -15z" />
    <glyph glyph-name="Udieresis" unicode="&#xdc;" horiz-adv-x="664" 
d="M523 790q0 -29 -18 -45t-42 -16t-42 16t-18 45q0 30 18 46.5t42 16.5t42 -16.5t18 -46.5zM311 790q0 -29 -18 -45t-42 -16t-42 16t-18 45q0 30 18 46.5t42 16.5t42 -16.5t18 -46.5zM670 658l-17 -4q-32 -7 -43.5 -25.5t-11.5 -62.5v-338q0 -116 -64 -179t-182 -63
q-266 0 -266 247v330q0 51 -8 69t-37 22l-26 4v15h304v-15l-32 -5q-30 -5 -37.5 -19.5t-7.5 -68.5v-344q0 -87 40.5 -136.5t116.5 -49.5q73 0 115 52t42 130v348q0 42 -13 61t-44 27l-19 5v15h190v-15z" />
    <glyph glyph-name="aacute" unicode="&#xe1;" horiz-adv-x="463" 
d="M343 680l-217 -169l-11 10l97 170h125zM491 40q-23 -23 -60.5 -39.5t-71.5 -16.5q-67 0 -85 48q-70 -44 -136 -44q-41 0 -71 16q-57 30 -57 96q0 80 89 109q44 14 172 37v41q0 75 -9 112q-12 48 -53 48q-52 0 -52 -88v-18l-134 -31q-2 8 -2 16q0 40 35 78t94 59
q49 17 109 17q98 0 132 -63q17 -33 17 -119v-215q0 -44 32 -44q20 0 44 18zM271 54v166q-61 -12 -87 -26q-43 -24 -43 -71q0 -39 19.5 -61.5t50.5 -22.5q25 0 60 15zM359 -16z" />
    <glyph glyph-name="agrave" unicode="&#xe0;" horiz-adv-x="463" 
d="M334 520l-11 -10l-217 169l6 11h125zM491 40q-23 -23 -60.5 -39.5t-71.5 -16.5q-67 0 -85 48q-70 -44 -136 -44q-41 0 -71 16q-57 30 -57 96q0 80 89 109q44 14 172 37v41q0 75 -9 112q-12 48 -53 48q-52 0 -52 -88v-18l-134 -31q-2 8 -2 16q0 40 35 78t94 59
q49 17 109 17q98 0 132 -63q17 -33 17 -119v-215q0 -44 32 -44q20 0 44 18zM271 54v166q-61 -12 -87 -26q-43 -24 -43 -71q0 -39 19.5 -61.5t50.5 -22.5q25 0 60 15z" />
    <glyph glyph-name="acircumflex" unicode="&#xe2;" horiz-adv-x="463" 
d="M368 519l-9 -8l-132 111l-128 -111l-10 8l104 172h70zM491 40q-23 -23 -60.5 -39.5t-71.5 -16.5q-67 0 -85 48q-70 -44 -136 -44q-41 0 -71 16q-57 30 -57 96q0 80 89 109q44 14 172 37v41q0 75 -9 112q-12 48 -53 48q-52 0 -52 -88v-18l-134 -31q-2 8 -2 16q0 40 35 78
t94 59q49 17 109 17q98 0 132 -63q17 -33 17 -119v-215q0 -44 32 -44q20 0 44 18zM271 54v166q-61 -12 -87 -26q-43 -24 -43 -71q0 -39 19.5 -61.5t50.5 -22.5q25 0 60 15z" />
    <glyph glyph-name="adieresis" unicode="&#xe4;" horiz-adv-x="463" 
d="M385 598q0 -29 -18 -45t-42 -16t-42 16t-18 45q0 30 18 46.5t42 16.5t42 -16.5t18 -46.5zM193 598q0 -29 -18 -45t-42 -16t-42 16t-18 45q0 30 18 46.5t42 16.5t42 -16.5t18 -46.5zM491 40q-23 -23 -60.5 -39.5t-71.5 -16.5q-67 0 -85 48q-70 -44 -136 -44q-41 0 -71 16
q-57 30 -57 96q0 80 89 109q44 14 172 37v41q0 75 -9 112q-12 48 -53 48q-52 0 -52 -88v-18l-134 -31q-2 8 -2 16q0 40 35 78t94 59q49 17 109 17q98 0 132 -63q17 -33 17 -119v-215q0 -44 32 -44q20 0 44 18zM271 54v166q-61 -12 -87 -26q-43 -24 -43 -71q0 -39 19.5 -61.5
t50.5 -22.5q25 0 60 15z" />
    <glyph glyph-name="atilde" unicode="&#xe3;" horiz-adv-x="463" 
d="M399 656q0 -60 -26.5 -94.5t-67.5 -34.5q-32 0 -89.5 35.5t-80.5 35.5q-20 0 -36 -17q-18 -20 -22 -53h-15q3 142 97 142q33 0 89.5 -35t79.5 -35q53 0 58 69h13v-13zM491 40q-23 -23 -60.5 -39.5t-71.5 -16.5q-67 0 -85 48q-70 -44 -136 -44q-41 0 -71 16q-57 30 -57 96
q0 80 89 109q44 14 172 37v41q0 75 -9 112q-12 48 -53 48q-52 0 -52 -88v-18l-134 -31q-2 8 -2 16q0 40 35 78t94 59q49 17 109 17q98 0 132 -63q17 -33 17 -119v-215q0 -44 32 -44q20 0 44 18zM271 54v166q-61 -12 -87 -26q-43 -24 -43 -71q0 -39 19.5 -61.5t50.5 -22.5
q25 0 60 15z" />
    <glyph glyph-name="aring" unicode="&#xe5;" horiz-adv-x="463" 
d="M304 609q0 -33 -23.5 -57t-56.5 -24t-57 23.5t-24 57.5t24 57.5t57 23.5t56.5 -23.5t23.5 -57.5zM491 40q-23 -23 -60.5 -39.5t-71.5 -16.5q-67 0 -85 48q-70 -44 -136 -44q-41 0 -71 16q-57 30 -57 96q0 80 89 109q44 14 172 37v41q0 75 -9 112q-12 48 -53 48
q-52 0 -52 -88v-18l-134 -31q-2 8 -2 16q0 40 35 78t94 59q49 17 109 17q98 0 132 -63q17 -33 17 -119v-215q0 -44 32 -44q20 0 44 18zM269 609q0 19 -13.5 32.5t-31.5 13.5q-19 0 -31.5 -13.5t-12.5 -32.5t12.5 -32t31.5 -13q18 0 31.5 13t13.5 32zM271 54v166
q-61 -12 -87 -26q-43 -24 -43 -71q0 -39 19.5 -61.5t50.5 -22.5q25 0 60 15z" />
    <glyph glyph-name="ccedilla" unicode="&#xe7;" horiz-adv-x="397" 
d="M418 72q-80 -88 -185 -89l-13 -30q50 -3 80 -29q27 -24 27 -57q0 -41 -38 -69q-42 -32 -116 -32q-7 0 -27 2l1 15h21q39 0 63 20q22 17 22 41q0 46 -66 46q-5 0 -17 -1h-16l51 95q-94 8 -146 73q-48 60 -48 146q0 95 55 168q53 70 140 98q44 14 93 14q66 0 104 -26v-3
l-34 -107h-12q-73 91 -124 91q-43 0 -66 -49q-19 -43 -19 -109q0 -84 32 -149q42 -84 123 -84q35 0 58 9q19 8 49 31z" />
    <glyph glyph-name="eacute" unicode="&#xe9;" horiz-adv-x="439" 
d="M403 680l-217 -169l-11 10l97 170h125zM444 74q-38 -40 -98 -65t-120 -25q-97 0 -152.5 62t-55.5 162q0 117 64.5 196t167.5 79q67 0 115.5 -40t64.5 -105l11 -9v-10l-286 -84q0 -191 155 -191q60 0 128 45zM297 304v13q0 50 -20 92q-22 49 -56 49q-32 0 -50 -58
q-16 -53 -16 -138z" />
    <glyph glyph-name="egrave" unicode="&#xe8;" horiz-adv-x="439" 
d="M304 521l-11 -10l-217 169l6 11h115zM444 74q-38 -40 -98 -65t-120 -25q-97 0 -152.5 62t-55.5 162q0 117 64.5 196t167.5 79q67 0 115.5 -40t64.5 -105l11 -9v-10l-286 -84q0 -191 155 -191q60 0 128 45zM297 304v13q0 50 -20 92q-22 49 -56 49q-32 0 -50 -58
q-16 -53 -16 -138z" />
    <glyph glyph-name="ecircumflex" unicode="&#xea;" horiz-adv-x="439" 
d="M380 519l-9 -8l-132 111l-128 -111l-10 8l104 172h70zM444 74q-38 -40 -98 -65t-120 -25q-97 0 -152.5 62t-55.5 162q0 117 64.5 196t167.5 79q67 0 115.5 -40t64.5 -105l11 -9v-10l-286 -84q0 -191 155 -191q60 0 128 45zM297 304v13q0 50 -20 92q-22 49 -56 49
q-32 0 -50 -58q-16 -53 -16 -138z" />
    <glyph glyph-name="edieresis" unicode="&#xeb;" horiz-adv-x="439" 
d="M387 598q0 -29 -18 -45t-42 -16t-42 16t-18 45q0 30 18 46.5t42 16.5t42 -16.5t18 -46.5zM195 598q0 -29 -18 -45t-42 -16t-42 16t-18 45q0 30 18 46.5t42 16.5t42 -16.5t18 -46.5zM444 74q-38 -40 -98 -65t-120 -25q-97 0 -152.5 62t-55.5 162q0 117 64.5 196t167.5 79
q67 0 115.5 -40t64.5 -105l11 -9v-10l-286 -84q0 -191 155 -191q60 0 128 45zM297 304v13q0 50 -20 92q-22 49 -56 49q-32 0 -50 -58q-16 -53 -16 -138z" />
    <glyph glyph-name="iacute" unicode="&#xed;" horiz-adv-x="252" 
d="M245 679l-217 -169l-11 10l97 170h125zM256 0h-241v15l15 5q19 6 23.5 23t4.5 78v212q0 30 -24 53l-25 24v11l191 69l7 -7q-8 -53 -8 -123v-296q0 -35 37 -44l20 -5v-15z" />
    <glyph glyph-name="igrave" unicode="&#xec;" horiz-adv-x="252" 
d="M231 519l-11 -10l-217 169l6 11h125zM256 0h-241v15l15 5q19 6 23.5 23t4.5 78v212q0 30 -24 53l-25 24v11l191 69l7 -7q-8 -53 -8 -123v-296q0 -35 37 -44l20 -5v-15z" />
    <glyph glyph-name="icircumflex" unicode="&#xee;" horiz-adv-x="252" 
d="M261 519l-9 -8l-132 111l-128 -111l-10 8l104 172h70zM256 0h-241v15l15 5q19 6 23.5 23t4.5 78v212q0 30 -24 53l-25 24v11l191 69l7 -7q-8 -53 -8 -123v-296q0 -35 37 -44l20 -5v-15zM246 0h-237h237z" />
    <glyph glyph-name="idieresis" unicode="&#xef;" horiz-adv-x="252" 
d="M279 597q0 -29 -18 -45t-42 -16t-42 16t-18 45q0 30 18 46.5t42 16.5t42 -16.5t18 -46.5zM87 597q0 -29 -18 -45t-42 -16t-42 16t-18 45q0 30 18 46.5t42 16.5t42 -16.5t18 -46.5zM256 0h-241v15l15 5q19 6 23.5 23t4.5 78v212q0 30 -24 53l-25 24v11l191 69l7 -7
q-8 -53 -8 -123v-296q0 -35 37 -44l20 -5v-15z" />
    <glyph glyph-name="ntilde" unicode="&#xf1;" horiz-adv-x="539" 
d="M439 656q0 -60 -26.5 -94.5t-67.5 -34.5q-32 0 -89.5 35.5t-80.5 35.5q-20 0 -36 -17q-18 -20 -22 -53h-15q3 142 97 142q33 0 89.5 -35t79.5 -35q53 0 58 69h13v-13zM540 0h-225v15l13 4q25 8 25 55v201q0 74 -12 97q-18 35 -48 35q-34 0 -94 -38v-304q0 -40 32 -46
l23 -4v-15h-238v15l14 4q28 8 28 55v263q0 33 -24 52l-25 20v11l182 70l8 -7v-87q53 41 81 57q49 28 93 28q122 0 122 -161v-258q0 -39 45 -47v-15z" />
    <glyph glyph-name="oacute" unicode="&#xf3;" horiz-adv-x="525" 
d="M413 678l-217 -169l-11 10l97 170h125zM511 237q0 -111 -72.5 -181.5t-183.5 -70.5q-110 0 -176.5 66.5t-66.5 176.5q0 111 72.5 181.5t183.5 70.5q110 0 176.5 -66.5t66.5 -176.5zM362 188q0 95 -18 161q-28 106 -97 106q-86 0 -86 -179q0 -95 18 -161q28 -105 97 -105
q86 0 86 178z" />
    <glyph glyph-name="ograve" unicode="&#xf2;" horiz-adv-x="525" 
d="M361 519l-11 -10l-217 169l6 11h125zM511 237q0 -111 -72.5 -181.5t-183.5 -70.5q-110 0 -176.5 66.5t-66.5 176.5q0 111 72.5 181.5t183.5 70.5q110 0 176.5 -66.5t66.5 -176.5zM362 188q0 95 -18 161q-28 106 -97 106q-86 0 -86 -179q0 -95 18 -161q28 -105 97 -105
q86 0 86 178z" />
    <glyph glyph-name="ocircumflex" unicode="&#xf4;" horiz-adv-x="525" 
d="M395 518l-9 -8l-132 111l-128 -111l-10 8l104 172h70zM511 237q0 -111 -72.5 -181.5t-183.5 -70.5q-110 0 -176.5 66.5t-66.5 176.5q0 111 72.5 181.5t183.5 70.5q110 0 176.5 -66.5t66.5 -176.5zM362 188q0 95 -18 161q-28 106 -97 106q-86 0 -86 -179q0 -95 18 -161
q28 -105 97 -105q86 0 86 178z" />
    <glyph glyph-name="odieresis" unicode="&#xf6;" horiz-adv-x="525" 
d="M409 596q0 -29 -18 -45t-42 -16t-42 16t-18 45q0 30 18 46.5t42 16.5t42 -16.5t18 -46.5zM217 596q0 -29 -18 -45t-42 -16t-42 16t-18 45q0 30 18 46.5t42 16.5t42 -16.5t18 -46.5zM511 237q0 -111 -72.5 -181.5t-183.5 -70.5q-110 0 -176.5 66.5t-66.5 176.5
q0 111 72.5 181.5t183.5 70.5q110 0 176.5 -66.5t66.5 -176.5zM362 188q0 95 -18 161q-28 106 -97 106q-86 0 -86 -179q0 -95 18 -161q28 -105 97 -105q86 0 86 178z" />
    <glyph glyph-name="otilde" unicode="&#xf5;" horiz-adv-x="525" 
d="M427 655q0 -60 -26.5 -94.5t-67.5 -34.5q-32 0 -89.5 35.5t-80.5 35.5q-20 0 -36 -17q-18 -20 -22 -53h-15q3 142 97 142q33 0 89.5 -35t79.5 -35q53 0 58 69h13v-13zM511 237q0 -111 -72.5 -181.5t-183.5 -70.5q-110 0 -176.5 66.5t-66.5 176.5q0 111 72.5 181.5
t183.5 70.5q110 0 176.5 -66.5t66.5 -176.5zM362 188q0 95 -18 161q-28 106 -97 106q-86 0 -86 -179q0 -95 18 -161q28 -105 97 -105q86 0 86 178z" />
    <glyph glyph-name="uacute" unicode="&#xfa;" horiz-adv-x="540" 
d="M422 678l-217 -169l-11 10l97 170h125zM548 17l-183 -38q-6 23 -15 78q-97 -70 -165 -70q-62 0 -97 43q-30 36 -30 87v269q0 34 -36 45l-19 6v16l197 24l-1 -79v-244q0 -104 57 -104q32 0 91 31v305q0 38 -37 46l-28 6v15l205 25l1 -1l-1 -95v-293q0 -57 33 -57q5 0 28 3
v-18z" />
    <glyph glyph-name="ugrave" unicode="&#xf9;" horiz-adv-x="540" 
d="M366 521l-11 -10l-217 169l6 11h125zM548 17l-183 -38q-6 23 -15 78q-97 -70 -165 -70q-62 0 -97 43q-30 36 -30 87v269q0 34 -36 45l-19 6v16l197 24l-1 -79v-244q0 -104 57 -104q32 0 91 31v305q0 38 -37 46l-28 6v15l205 25l1 -1l-1 -95v-293q0 -57 33 -57q5 0 28 3
v-18z" />
    <glyph glyph-name="ucircumflex" unicode="&#xfb;" horiz-adv-x="540" 
d="M404 518l-9 -8l-132 111l-128 -111l-10 8l104 172h70zM548 17l-183 -38q-6 23 -15 78q-97 -70 -165 -70q-62 0 -97 43q-30 36 -30 87v269q0 34 -36 45l-19 6v16l197 24l-1 -79v-244q0 -104 57 -104q32 0 91 31v305q0 38 -37 46l-28 6v15l205 25l1 -1l-1 -95v-293
q0 -57 33 -57q5 0 28 3v-18z" />
    <glyph glyph-name="udieresis" unicode="&#xfc;" horiz-adv-x="540" 
d="M421 597q0 -29 -18 -45t-42 -16t-42 16t-18 45q0 30 18 46.5t42 16.5t42 -16.5t18 -46.5zM229 597q0 -29 -18 -45t-42 -16t-42 16t-18 45q0 30 18 46.5t42 16.5t42 -16.5t18 -46.5zM548 17l-183 -38q-6 23 -15 78q-97 -70 -165 -70q-62 0 -97 43q-30 36 -30 87v269
q0 34 -36 45l-19 6v16l197 24l-1 -79v-244q0 -104 57 -104q32 0 91 31v305q0 38 -37 46l-28 6v15l205 25l1 -1l-1 -95v-293q0 -57 33 -57q5 0 28 3v-18z" />
    <glyph glyph-name="degree" unicode="&#xb0;" horiz-adv-x="301" 
d="M282 552q0 -56 -39.5 -95.5t-95.5 -39.5t-95.5 39.5t-39.5 95.5t39.5 95.5t95.5 39.5t95.5 -39.5t39.5 -95.5zM238 552q0 39 -26.5 66.5t-64.5 27.5q-39 0 -65 -27.5t-26 -66.5t26 -66.5t65 -27.5t65 27.5t26 66.5z" />
    <glyph glyph-name="registered" unicode="&#xae;" horiz-adv-x="270" 
d="M259 558q0 -52 -36 -88t-88 -36t-88 36t-36 88t36 88.5t88 36.5t88 -36.5t36 -88.5zM241 558q0 45 -31 77t-75 32t-75 -32t-31 -77q0 -44 31 -76t75 -32t75 32t31 76zM204 494l-5 -7h-9q-14 0 -20 2q-14 5 -40 60h-6v-41q0 -10 15 -14v-7h-61v7q13 2 13 14v101
q0 14 -13 14v9h20q7 0 18.5 1t18.5 1q55 0 55 -39q0 -32 -30 -37q16 -33 44 -64zM156 593q0 30 -26 30h-6v-64q32 0 32 34z" />
    <glyph glyph-name="copyright" unicode="&#xa9;" horiz-adv-x="270" 
d="M259 559q0 -52 -36 -89t-88 -37q-51 0 -87.5 37t-36.5 89t36 89t88 37t88 -37t36 -89zM241 559q0 45 -31 77.5t-75 32.5t-75 -32.5t-31 -77.5q0 -44 31 -76t75 -32t75 32t31 76zM195 524q-4 -15 -10 -32q-23 -11 -48 -11q-32 0 -54 21t-22 55q0 33 23 55.5t56 22.5
q15 0 36 -9l5 7h9v-44l-9 -2q-19 36 -39 36q-41 0 -41 -62q0 -64 41 -64q19 0 28 5q6 8 16 25z" />
    <glyph glyph-name="trademark" unicode="&#x2122;" horiz-adv-x="719" 
d="M554 423h-106v12l10 1q16 2 16 26v146l-84 -188h-12l-84 188v-140q0 -27 21 -31l5 -1v-13h-72v12l6 2q19 6 19 32v163q0 24 -14 27l-10 2v12h100v-12l-6 -1q-12 -2 -12 -8q0 -2 5 -14l64 -148l67 146q4 9 4 13q0 8 -13 10l-8 1v13h104v-13q-3 0 -8 -2q-14 -4 -17 -8
t-3 -23v-165q0 -24 18 -26l10 -1v-12zM238 678l-8 -64h-10l-4 10q-4 10 -8 21q-4 8 -13 8h-46v-191q0 -15 4 -19t19 -6l10 -1v-13h-117v13l9 1q15 2 19 6t4 19v191h-46q-14 0 -27 -28l-5 -11h-11l12 64h9q5 -5 16 -5h168q11 0 16 5h9z" />
    <glyph glyph-name="infinity" unicode="&#x221e;" horiz-adv-x="743" 
 />
    <glyph glyph-name="plusminus" unicode="&#xb1;" horiz-adv-x="573" 
d="M543 340h-238v-240h-45v240h-237v43h237v238h45v-238h238v-43zM543 0h-520v43h520v-43z" />
    <glyph glyph-name="mu" unicode="&#xb5;" horiz-adv-x="511" 
d="M539 37q-79 -18 -173 -50l-6 1q-12 46 -14 85q-53 -39 -88 -58q-47 -26 -83 -26q-42 0 -84 36v-28q0 -36 8 -73q20 -92 20 -111q0 -26 -14.5 -40.5t-33.5 -14.5q-45 0 -45 55q0 20 7 58q11 54 12 59q13 87 13 175v362h131v-300q0 -52 9 -73q11 -30 44 -30q44 0 104 34
l1 369h130v-370q0 -24 3 -32q5 -15 24 -15q7 0 21 2l14 2v-17z" />
    <glyph glyph-name="mu" unicode="&#x3bc;" horiz-adv-x="511" 
d="M539 37q-79 -18 -173 -50l-6 1q-12 46 -14 85q-53 -39 -88 -58q-47 -26 -83 -26q-42 0 -84 36v-28q0 -36 8 -73q20 -92 20 -111q0 -26 -14.5 -40.5t-33.5 -14.5q-45 0 -45 55q0 20 7 58q11 54 12 59q13 87 13 175v362h131v-300q0 -52 9 -73q11 -30 44 -30q44 0 104 34
l1 369h130v-370q0 -24 3 -32q5 -15 24 -15q7 0 21 2l14 2v-17z" />
    <glyph glyph-name="Omega" unicode="&#x3a9;" horiz-adv-x="510" 
 />
    <glyph glyph-name="Omega" unicode="&#x2126;" horiz-adv-x="510" 
 />
    <glyph glyph-name="logicalnot" unicode="&#xac;" horiz-adv-x="573" 
d="M504 138h-44v173h-398v43h442v-216z" />
    <glyph glyph-name="radical" unicode="&#x221a;" horiz-adv-x="718" 
 />
    <glyph glyph-name="nonbreakingspace" unicode="&#xa0;" horiz-adv-x="164" 
 />
    <glyph glyph-name="Agrave" unicode="&#xc0;" horiz-adv-x="697" 
d="M444 714l-11 -10l-217 169l6 11h125zM701 0h-285v15l20 3q29 4 29 41q0 16 -6 32l-56 152h-225l-46 -125q-12 -33 -12 -55q0 -36 32 -43l22 -5v-15h-163v15l5 2q40 16 70 95l161 423q17 45 43 138h123q12 -42 46 -133l166 -444q27 -72 76 -81v-15zM390 278l-101 272
l-99 -272h200z" />
    <glyph glyph-name="Atilde" unicode="&#xc3;" horiz-adv-x="697" 
d="M512 849q0 -60 -26.5 -94.5t-67.5 -34.5q-33 0 -90 35.5t-80 35.5q-20 0 -36 -17q-18 -20 -22 -53h-15q3 142 97 142q33 0 89.5 -35t79.5 -35q53 0 58 69h13v-13zM701 0h-285v15l20 3q29 4 29 41q0 16 -6 32l-56 152h-225l-46 -125q-12 -33 -12 -55q0 -36 32 -43l22 -5
v-15h-163v15l5 2q40 16 70 95l161 423q17 45 43 138h123q12 -42 46 -133l166 -444q27 -72 76 -81v-15zM390 278l-101 272l-99 -272h200z" />
    <glyph glyph-name="Otilde" unicode="&#xd5;" horiz-adv-x="743" 
d="M531 849q0 -60 -26.5 -94.5t-67.5 -34.5q-33 0 -90 35.5t-80 35.5q-20 0 -36 -17q-18 -20 -22 -53h-15q3 142 97 142q33 0 89.5 -35t79.5 -35q53 0 58 69h13v-13zM725 340q0 -154 -100.5 -253t-255.5 -99q-157 0 -253 93t-96 250q0 159 100.5 256.5t260.5 97.5
q155 0 249.5 -95.5t94.5 -249.5zM561 296q0 137 -34 227q-49 131 -162 131q-97 0 -144 -98q-37 -76 -37 -186q0 -133 36 -224q52 -127 164 -127q95 0 141 95q36 74 36 182z" />
    <glyph glyph-name="divide" unicode="&#xf7;" horiz-adv-x="573" 
d="M320 459q0 -15 -11 -26t-26 -11t-26 11t-11 26t11 26t26 11t26 -11t11 -26zM543 240h-520v43h520v-43zM320 64q0 -15 -11 -26t-26 -11t-26 11t-11 26t11 26t26 11t26 -11t11 -26z" />
    <glyph glyph-name="ydieresis" unicode="&#xff;" horiz-adv-x="482" 
d="M415 598q0 -29 -18 -45t-42 -16t-42 16t-18 45q0 30 18 46.5t42 16.5t42 -16.5t18 -46.5zM223 598q0 -29 -18 -45t-42 -16t-42 16t-18 45q0 30 18 46.5t42 16.5t42 -16.5t18 -46.5zM504 455l-13 -10q-39 -30 -69 -98l-164 -368q-47 -105 -93 -218h-54l-10 20
q39 63 64 110l44 84l-164 416q-18 45 -29 51l-18 10v15h240v-16q-49 -8 -49 -34q0 -13 8 -33l98 -250l100 228q7 16 7 33q0 49 -46 57v15h148v-12z" />
    <glyph glyph-name="Ydieresis" unicode="&#x178;" horiz-adv-x="673" 
d="M546 790q0 -29 -18 -45t-42 -16t-42 16t-18 45q0 30 18 46.5t42 16.5t42 -16.5t18 -46.5zM334 790q0 -29 -18 -45t-42 -16t-42 16t-18 45q0 30 18 46.5t42 16.5t42 -16.5t18 -46.5zM679 658l-14 -3q-42 -9 -70 -60l-171 -311v-193q0 -41 6 -52q9 -17 46 -22l24 -3v-14
h-304v14l23 3q28 4 38 18t10 56v193l-170 301q-21 37 -34.5 50.5t-38.5 19.5l-13 3v15h312v-15l-19 -3q-43 -7 -43 -33q0 -14 13 -38l136 -249l126 231q13 24 13 43q0 38 -41 46l-16 3v15h187v-15z" />
    <glyph glyph-name="Acircumflex" unicode="&#xc2;" horiz-adv-x="697" 
d="M486 713l-9 -8l-132 111l-128 -111l-10 8l104 172h70zM701 0h-285v15l20 3q29 4 29 41q0 16 -6 32l-56 152h-225l-46 -125q-12 -33 -12 -55q0 -36 32 -43l22 -5v-15h-163v15l5 2q40 16 70 95l161 423q17 45 43 138h123q12 -42 46 -133l166 -444q27 -72 76 -81v-15z
M390 278l-101 272l-99 -272h200z" />
    <glyph glyph-name="Ecircumflex" unicode="&#xca;" horiz-adv-x="574" 
d="M424 713l-9 -8l-132 111l-128 -111l-10 8l104 172h70zM564 193l-28 -193h-509v15l26 6q29 7 38 23q8 13 8 47v496q0 38 -10.5 49.5t-49.5 17.5l-28 4v15h523l-9 -169h-18l-20 67q-13 45 -38 60q-20 12 -67 12h-127v-287h131q42 0 58.5 8.5t31.5 44.5l9 22h18v-190h-18
l-9 26q-13 37 -31 47t-59 10h-131v-249q0 -27 10.5 -36t38.5 -9h74q49 0 78 20q38 27 70 100l19 43h19z" />
    <glyph glyph-name="Aacute" unicode="&#xc1;" horiz-adv-x="697" 
d="M465 873l-217 -169l-11 10l97 170h125zM701 0h-285v15l20 3q29 4 29 41q0 16 -6 32l-56 152h-225l-46 -125q-12 -33 -12 -55q0 -36 32 -43l22 -5v-15h-163v15l5 2q40 16 70 95l161 423q17 45 43 138h123q12 -42 46 -133l166 -444q27 -72 76 -81v-15zM390 278l-101 272
l-99 -272h200z" />
    <glyph glyph-name="Edieresis" unicode="&#xcb;" horiz-adv-x="574" 
d="M443 790q0 -27 -17 -42t-40 -15t-38 14q-18 16 -18 43q0 28 18 44q15 15 38 15t40 -15.5t17 -43.5zM242 790q0 -27 -16.5 -42t-39.5 -15t-40 15t-17 42q0 28 17 43.5t40 15.5t39.5 -15.5t16.5 -43.5zM564 193l-28 -193h-509v15l26 6q29 7 38 23q8 13 8 47v496
q0 38 -10.5 49.5t-49.5 17.5l-28 4v15h523l-9 -169h-18l-20 67q-13 45 -38 60q-20 12 -67 12h-127v-287h131q42 0 58.5 8.5t31.5 44.5l9 22h18v-190h-18l-9 26q-13 37 -31 47t-59 10h-131v-249q0 -27 10.5 -36t38.5 -9h74q49 0 78 20q38 27 70 100l19 43h19z" />
    <glyph glyph-name="Egrave" unicode="&#xc8;" horiz-adv-x="574" 
d="M399 715l-11 -10l-217 169l6 11h115zM564 193l-28 -193h-509v15l26 6q29 7 38 23q8 13 8 47v496q0 38 -10.5 49.5t-49.5 17.5l-28 4v15h523l-9 -169h-18l-20 67q-13 45 -38 60q-20 12 -67 12h-127v-287h131q42 0 58.5 8.5t31.5 44.5l9 22h18v-190h-18l-9 26
q-13 37 -31 47t-59 10h-131v-249q0 -27 10.5 -36t38.5 -9h74q49 0 78 20q38 27 70 100l19 43h19z" />
    <glyph glyph-name="Iacute" unicode="&#xcd;" horiz-adv-x="318" 
d="M299 874l-217 -169l-11 10l97 170h125zM320 0h-305v15l23 3q35 5 44 23q5 12 5 51v480q0 42 -5 55q-9 23 -44 28l-23 3v15h305v-15l-23 -3q-36 -5 -45 -19t-9 -64v-480q0 -46 8.5 -57.5t45.5 -16.5l23 -3v-15z" />
    <glyph glyph-name="Icircumflex" unicode="&#xce;" horiz-adv-x="318" 
d="M305 713l-9 -8l-132 111l-128 -111l-10 8l104 172h70zM320 0h-305v15l23 3q35 5 44 23q5 12 5 51v480q0 42 -5 55q-9 23 -44 28l-23 3v15h305v-15l-23 -3q-36 -5 -45 -19t-9 -64v-480q0 -46 8.5 -57.5t45.5 -16.5l23 -3v-15z" />
    <glyph glyph-name="Idieresis" unicode="&#xcf;" horiz-adv-x="318" 
d="M324 790q0 -29 -18 -45t-42 -16t-42 16t-18 45q0 30 18 46.5t42 16.5t42 -16.5t18 -46.5zM132 790q0 -29 -18 -45t-42 -16t-42 16t-18 45q0 30 18 46.5t42 16.5t42 -16.5t18 -46.5zM320 0h-305v15l23 3q35 5 44 23q5 12 5 51v480q0 42 -5 55q-9 23 -44 28l-23 3v15h305
v-15l-23 -3q-36 -5 -45 -19t-9 -64v-480q0 -46 8.5 -57.5t45.5 -16.5l23 -3v-15z" />
    <glyph glyph-name="Igrave" unicode="&#xcc;" horiz-adv-x="318" 
d="M261 714l-11 -10l-217 169l6 11h125zM320 0h-305v15l23 3q35 5 44 23q5 12 5 51v480q0 42 -5 55q-9 23 -44 28l-23 3v15h305v-15l-23 -3q-36 -5 -45 -19t-9 -64v-480q0 -46 8.5 -57.5t45.5 -16.5l23 -3v-15z" />
    <glyph glyph-name="Oacute" unicode="&#xd3;" horiz-adv-x="743" 
d="M485 873l-217 -169l-11 10l97 170h125zM725 340q0 -154 -100.5 -253t-255.5 -99q-157 0 -253 93t-96 250q0 159 100.5 256.5t260.5 97.5q155 0 249.5 -95.5t94.5 -249.5zM561 296q0 137 -34 227q-49 131 -162 131q-97 0 -144 -98q-37 -76 -37 -186q0 -133 36 -224
q52 -127 164 -127q95 0 141 95q36 74 36 182z" />
    <glyph glyph-name="Ocircumflex" unicode="&#xd4;" horiz-adv-x="743" 
d="M506 712l-9 -8l-132 111l-128 -111l-10 8l104 172h70zM725 340q0 -154 -100.5 -253t-255.5 -99q-157 0 -253 93t-96 250q0 159 100.5 256.5t260.5 97.5q155 0 249.5 -95.5t94.5 -249.5zM561 296q0 137 -34 227q-49 131 -162 131q-97 0 -144 -98q-37 -76 -37 -186
q0 -133 36 -224q52 -127 164 -127q95 0 141 95q36 74 36 182z" />
    <glyph glyph-name="Ograve" unicode="&#xd2;" horiz-adv-x="743" 
d="M481 714l-11 -10l-217 169l6 11h125zM725 340q0 -154 -100.5 -253t-255.5 -99q-157 0 -253 93t-96 250q0 159 100.5 256.5t260.5 97.5q155 0 249.5 -95.5t94.5 -249.5zM561 296q0 137 -34 227q-49 131 -162 131q-97 0 -144 -98q-37 -76 -37 -186q0 -133 36 -224
q52 -127 164 -127q95 0 141 95q36 74 36 182z" />
    <glyph glyph-name="Uacute" unicode="&#xda;" horiz-adv-x="664" 
d="M532 873l-217 -169l-11 10l97 170h125zM670 658l-17 -4q-32 -7 -43.5 -25.5t-11.5 -62.5v-338q0 -116 -64 -179t-182 -63q-266 0 -266 247v330q0 51 -8 69t-37 22l-26 4v15h304v-15l-32 -5q-30 -5 -37.5 -19.5t-7.5 -68.5v-344q0 -87 40.5 -136.5t116.5 -49.5
q73 0 115 52t42 130v348q0 42 -13 61t-44 27l-19 5v15h190v-15z" />
    <glyph glyph-name="Ucircumflex" unicode="&#xdb;" horiz-adv-x="664" 
d="M515 712l-9 -8l-132 111l-128 -111l-10 8l104 172h70zM670 658l-17 -4q-32 -7 -43.5 -25.5t-11.5 -62.5v-338q0 -116 -64 -179t-182 -63q-266 0 -266 247v330q0 51 -8 69t-37 22l-26 4v15h304v-15l-32 -5q-30 -5 -37.5 -19.5t-7.5 -68.5v-344q0 -87 40.5 -136.5
t116.5 -49.5q73 0 115 52t42 130v348q0 42 -13 61t-44 27l-19 5v15h190v-15z" />
    <glyph glyph-name="Ugrave" unicode="&#xd9;" horiz-adv-x="664" 
d="M441 714l-11 -10l-217 169l6 11h125zM670 658l-17 -4q-32 -7 -43.5 -25.5t-11.5 -62.5v-338q0 -116 -64 -179t-182 -63q-266 0 -266 247v330q0 51 -8 69t-37 22l-26 4v15h304v-15l-32 -5q-30 -5 -37.5 -19.5t-7.5 -68.5v-344q0 -87 40.5 -136.5t116.5 -49.5q73 0 115 52
t42 130v348q0 42 -13 61t-44 27l-19 5v15h190v-15z" />
    <glyph glyph-name="Euro" unicode="&#x20ac;" horiz-adv-x="613" 
d="M597 599l-50 -88l-13 7l6 59q-18 37 -57.5 59t-81.5 22q-76 0 -125 -78q-43 -68 -58 -180h292l-22 -38h-273q-1 -13 -1 -40q0 -30 3 -59h217l-22 -36h-189q40 -205 187 -205q61 0 110 29q19 18 57 90l13 -7q-1 -7 -28 -105q-81 -42 -204 -42q-118 0 -195 71
q-69 63 -90 169h-97l22 36h70q-2 15 -2 45q0 27 3 54h-93l22 38h77q26 122 105 200q87 86 212 86q128 0 205 -87z" />
    </font>
</defs>
</svg>
