<svg id="Layer_1" data-name="Layer 1" xmlns="http://www.w3.org/2000/svg" viewBox="0 0 502.13 309.76"><defs><style>.cls-1,.cls-5{fill:#fff;}.cls-2{fill:#957a4b;}.cls-3{fill:#e21f26;}.cls-3,.cls-4,.cls-5{fill-rule:evenodd;}.cls-4{fill:#ef1b2b;}</style></defs><g id="Layer_1-2" data-name="Layer 1-2"><path class="cls-1" d="M356.18,281.19l2.48,2.34c1.53-3.3,2.89-6.74,4.41-9.81l-.18-.45a95.49,95.49,0,0,1-6.71,7.92m-15.33-19.85c1.33,2.3,2.75,4.52,4.26,6.68l.5-.41,2.72-2.37c-.88-1.28-1.73-2.57-2.55-3.9Zm9.6-12.86a95.72,95.72,0,0,0,5.22,10.91q-2.32,3.92-5,7.56l2.81,3.31q2.7-3.57,5.06-7.4l-7.72-18.39a4.42,4.42,0,0,0-.36-.68Zm-17.75-5.33a96,96,0,0,0,7,16.08v-9.65q-1.21-2.82-2.25-5.75a14.47,14.47,0,0,0-4.38-.68h-.33m33.91-.16.63,1.67c.2-.55.39-1.11.57-1.67Zm-102.23-4.72a22,22,0,0,1,4,3.83l1.25-.17,5.84-5.29a95.72,95.72,0,0,1-11.06,1.63M455,236.57q.25,2.84.33,5.69l4.22-.13h0q-.09-3-.36-6.08c-1.39.24-2.8.41-4.2.51m-163.16-4.84a15,15,0,0,1,6.08.35,28.74,28.74,0,0,1-2.79-1.73c-1.09.48-2.19.94-3.29,1.38m-9.1-7.22c1.8-.63,3.58-1.31,5.35-2.06q-.3-.6-.57-1.23c-.23-.52-.43-1.06-.62-1.59a35.87,35.87,0,0,1-4.16,4.88m62.4-6.49a25.84,25.84,0,0,1-1.27,3.19c.05.6.11,1.2.17,1.79h4.27c-.15-1.28-.27-2.58-.36-3.88a21,21,0,0,1-2.6-1.79Zm23.16,1.27c0,.52-.09,1-.13,1.55.16,1,.43,1.84.84,2.07h3.21c.25-2.3.43-4.63.52-7a20.2,20.2,0,0,1-4.44,3.36m26.85-1.17a17.29,17.29,0,0,0,.41,3.44c.58.46,1.16.91,1.75,1.35h6.53v4.51a95.48,95.48,0,0,0,37.75,13.9H442l4.23.5h.06l-.46-4.29h0l-.19-1.38-.9-.15c-1.21-.22-2.39-.5-3.53-.82.1.6.19,1.2.27,1.81a91.74,91.74,0,0,1-46.34-21.31Zm-96.36-5.9a10,10,0,0,0,1.18,4.24c.86-.51,1.7-1,2.54-1.56a6.76,6.76,0,0,1,0-5.08q-1.83,1.25-3.72,2.4m26.66-2.67A100.83,100.83,0,0,1,308.85,223a27.54,27.54,0,0,0,5.75,1.16h.09a105.09,105.09,0,0,0,13.19-11q0,3.26.23,6.45a7.51,7.51,0,0,0,1.79-7.11,9,9,0,0,0-3.35-4Zm75.24-4.7H400A96.91,96.91,0,0,0,421.32,220a39,39,0,0,1-3.18-6.65,92.86,92.86,0,0,1-12.55-9.13,20.32,20.32,0,0,1-4.91.67m37.23,5.61.7,1q-1.94-4.42-4.3-8.65a28.25,28.25,0,0,0,3.6,7.66m.63-20.22A98.45,98.45,0,0,1,452.32,221c.63.16,1.27.3,1.92.41a25.4,25.4,0,0,0,2.61.29,102.35,102.35,0,0,0-13.27-31.41Zm-167-.18A95.52,95.52,0,0,0,260,221.58a21.18,21.18,0,0,0,4.46-.86A91.6,91.6,0,0,1,276.56,190Zm20.58-2.49.81,2.37h-2.72a96.43,96.43,0,0,0-12.07,20.16c.57-.81,1.12-1.64,1.63-2.51L282,204l3.06,1.78A92.74,92.74,0,0,1,296.53,189a17.25,17.25,0,0,1-1.45-4.76q-1.5,1.65-2.91,3.35M419.39,167.5v4.1l.18.83c1.32.14,2.64.25,4,.33.52.48,1,1,1.55,1.47a34,34,0,0,1,6.52-5.56h-2.07q-2.15,0-4.26-.09c-1-1-2.12-1.87-3.2-2.77-.88.58-1.77,1.14-2.69,1.67m-128.15-1.32c-1.26.05-2.51.07-3.77.07A102,102,0,0,1,271.7,165a35.93,35.93,0,0,1,9.37,5.28c1.86.12,3.72.18,5.6.2-.85.85-1.68,1.72-2.5,2.6a29.65,29.65,0,0,1,2.76,3.27q1.43-1.56,2.94-3.06c1-1,2-2,3.08-2.95,1.4-.08,2.8-.18,4.19-.3.28-1.35.6-2.7,1-4h-.48c-1.16-.67-2.29-1.37-3.4-2.11q-1.5,1.24-3,2.55m-74.53-23.62h0A101.87,101.87,0,0,0,248,163a47.61,47.61,0,0,1,11.5-.45,98,98,0,0,1-39.82-22.78Zm219.28-10A92.13,92.13,0,0,1,471.73,143a92,92,0,0,1-35.88,10.18,20.79,20.79,0,0,1-3,3.92l-.51.52a96.45,96.45,0,0,0,43.74-12.17,87.33,87.33,0,0,1,8.31,5.58A90.91,90.91,0,0,1,462.5,163a44.07,44.07,0,0,1,7,1.69,94.68,94.68,0,0,0,18-10.68l.33-.26,3.34-2.64h0l-3.3-3.12h0a96,96,0,0,0-55.23-20,20.72,20.72,0,0,1,3.35,4.44M454.28,55h0a96,96,0,0,0-53.19,25,21,21,0,0,1,5.52.76,92.12,92.12,0,0,1,32.47-18.08,92.12,92.12,0,0,1-18.2,32.59,20.33,20.33,0,0,1,.68,4.91v.68A96.33,96.33,0,0,0,443.9,61.25a89.11,89.11,0,0,1,9.84-1.94,92.08,92.08,0,0,1-26.1,51.51q-1.51,1.52-3.09,3c-1.4.07-2.8.17-4.18.3-.28,1.34-.61,2.69-1,4h.48c1.16.67,2.29,1.37,3.4,2.11q1.51-1.24,3-2.55c1.25,0,2.51-.07,3.77-.07a98.52,98.52,0,0,1,67.85,26.76l2.9-3.07h0a102.7,102.7,0,0,0-70-27.92A96.13,96.13,0,0,0,458,59.22l.05-.41.49-4.23v-.06ZM258,42h0a102.75,102.75,0,0,0,29.73,69.21A96.2,96.2,0,0,0,230,130.42l-.32.26-3.35,2.64h0l3.35,2.72h0a96,96,0,0,0,55.24,20,20.2,20.2,0,0,1-3.36-4.44,92.13,92.13,0,0,1-35.72-10.17,92,92,0,0,1,35.89-10.18,20.72,20.72,0,0,1,3-3.91l.5-.53A96.14,96.14,0,0,0,241.41,139a93,93,0,0,1-8.32-5.59,92,92,0,0,1,54.87-18q2.15,0,4.26.09c1.06,1,2.12,1.88,3.2,2.77,1.16-.77,2.36-1.5,3.59-2.19h0v-.42h0c-.36-1.32-.67-2.64-.95-4-1.31-.14-2.64-.24-4-.32-.92-.86-1.82-1.73-2.72-2.62a98.63,98.63,0,0,1-29.06-66.9ZM364.77,13h0a96,96,0,0,0-20,55.23,20.38,20.38,0,0,1,4.43-3.36,91.92,91.92,0,0,1,10.18-35.71A92.16,92.16,0,0,1,369.57,65a20.72,20.72,0,0,1,3.91,3l.52.5a96.19,96.19,0,0,0-12.17-43.8,92.85,92.85,0,0,1,5.58-8.32,92,92,0,0,1,18,54.87c0,1.43,0,2.86-.1,4.27-.94,1-1.86,2.12-2.76,3.2.76,1.16,1.49,2.36,2.18,3.58h.44c1.31-.36,2.63-.68,4-1,.13-1.32.24-2.64.32-4,.85-.92,1.73-1.83,2.62-2.72A98.5,98.5,0,0,1,459,45.48l-.12-4.22h0A102.84,102.84,0,0,0,389.62,71a96.14,96.14,0,0,0-19.24-57.7l-.26-.32-2.64-3.34h0Zm-34.4,57A96,96,0,0,0,276,42.81l-.41-.05-4.23-.49h0l.45,4.29h0a96,96,0,0,0,25,53.19,20.2,20.2,0,0,1,.76-5.52,91.81,91.81,0,0,1-18.08-32.47A92.21,92.21,0,0,1,312,80a20.82,20.82,0,0,1,4.91-.67h.69A96.33,96.33,0,0,0,278,56.89a91.53,91.53,0,0,1-2-9.83,92,92,0,0,1,51.5,26.1c1,1,2,2,3,3.08.07,1.41.17,2.8.3,4.19,1.35.28,2.7.61,4,1h0V81h0c.66-1.16,1.37-2.29,2.1-3.41-.82-1-1.67-2-2.54-3-.05-1.25-.07-2.51-.07-3.77a98.57,98.57,0,0,1,27-67.92L358.25,0h0a102.76,102.76,0,0,0-27.92,70"/><path class="cls-2" d="M327.71,110.66a36.36,36.36,0,0,0,23.68,23.67,36.4,36.4,0,0,0-23.68-23.67m28.66,22.5a36.28,36.28,0,0,0-29.95-28.23,36.2,36.2,0,0,0,.76,3.84,38,38,0,0,1,26,25.93,9.07,9.07,0,0,0-1.52,1.45,37.92,37.92,0,0,1-27-31.43h0l-.18-1.67h0l1.65.19h.16A37.91,37.91,0,0,1,358,132.88a8.18,8.18,0,0,0-1.63.28M321,102.89a38.91,38.91,0,0,0,29,36.28,9.88,9.88,0,0,0-.37,1.61,40.58,40.58,0,0,1-30.28-37.85h0Zm-6.41,38.91a36.38,36.38,0,0,0,33.48,0,36.38,36.38,0,0,0-33.48,0m36.17-4.35a36.25,36.25,0,0,0-41.13,1.21,35.42,35.42,0,0,0,3.25,2.18,38,38,0,0,1,36.74-.08,9.32,9.32,0,0,0-.09,1.29v.82a38,38,0,0,1-41.3-3.16h0l-1.3-1.06h0l1.31-1,.12-.1a37.89,37.89,0,0,1,43.31-1.4,9.43,9.43,0,0,0-1,1.35M304.38,141a38.9,38.9,0,0,0,46.16,5.15,8.54,8.54,0,0,0,.88,1.41,40.6,40.6,0,0,1-48.18-5.36h0Zm19.07,22.08c.27-.55.55-1.09.85-1.63v1.94ZM321.63,176h-.21l-1.67.18h0l.18-1.6a5.29,5.29,0,0,1,1.7,1.42m11.89-17.14c.52-.58,1.06-1.16,1.62-1.72a37.7,37.7,0,0,1,16.26-9.61,9.55,9.55,0,0,0,1.46,1.52,38.14,38.14,0,0,1-16.69,21.79v-2A36.59,36.59,0,0,0,351,149.41a36.1,36.1,0,0,0-14.73,9l-.57.58Zm16.35-14.48A36.35,36.35,0,0,0,328,158.81h-2a38,38,0,0,1,23.61-16,9.94,9.94,0,0,0,.29,1.63m-13.7,31a39.67,39.67,0,0,0,9.57-7,38.75,38.75,0,0,0,10.14-17.64,9.88,9.88,0,0,0,1.61.37,40.72,40.72,0,0,1-21.32,26.15Zm-16.58,4.32a36.19,36.19,0,0,0,3.75-.29,15.19,15.19,0,0,1,.41,1.61,40.4,40.4,0,0,1-4.11.33h0ZM354.15,150a36.06,36.06,0,0,0-5.8,19.7c0,1.24.06,2.47.18,3.68l-1.5,1.46a40.09,40.09,0,0,1-.34-5.14,37.58,37.58,0,0,1,6.11-20.65,9.11,9.11,0,0,0,1.35.95m13.08,11.18a38.51,38.51,0,0,0-4.33-10.93,9.68,9.68,0,0,0,1.4-.88,40.37,40.37,0,0,1,5,13.51Zm11.95,8.87a38,38,0,0,1-14.9-20.67,8.76,8.76,0,0,0,1.53-1.45,38,38,0,0,1,20.68,15l-1.2,1.17a37.06,37.06,0,0,0-4.45-5.39,36,36,0,0,0-14.72-9,36,36,0,0,0,8.95,14.72,35.53,35.53,0,0,0,5.32,4.4Zm-8.62-1.5.4.4a36,36,0,0,0,5,4.21l-1.21,1.18a39.37,39.37,0,0,1-5-4.21l-.36-.37-1.24,1.31a31.16,31.16,0,0,1-.27,3.63v7.68c.11-.34.21-.68.31-1l-.28-.34.52-.51a40.89,40.89,0,0,0,1.4-10.61v-.59Zm-9.42-17.63a35.61,35.61,0,0,0,2.55,7.67l-.8.78a37,37,0,0,0-3.32-8.17h-.82a9.07,9.07,0,0,1-1.28-.09,37.7,37.7,0,0,0-4.7,18.1l1.7-1.66a36,36,0,0,1,4-14.88,35.73,35.73,0,0,1,3,8l.91-.89a36.93,36.93,0,0,1-2.93-8.61,9,9,0,0,0,1.63-.28m28.25,9.17a39.11,39.11,0,0,0-21.9-15.18,8.75,8.75,0,0,0,.37-1.61,40.24,40.24,0,0,1,18.44,10.58,40.86,40.86,0,0,1,4.29,5Zm7.1,21.11c0-.66-.06-1.32-.11-2a18.39,18.39,0,0,1,1.52-1.41c.13,1.11.21,2.22.24,3.34h0Zm6.4-38.92a36.36,36.36,0,0,0-33.47,0,36.36,36.36,0,0,0,33.47,0m-36.17,4.35a36.27,36.27,0,0,0,41.14-1.21,37.58,37.58,0,0,0-3.25-2.18,38,38,0,0,1-36.75.08,9.07,9.07,0,0,0,.09-1.28,5.61,5.61,0,0,0,0-.82,37.93,37.93,0,0,1,41.3,3.15h0l1.31,1.06h0l-1.3,1-.13.1a37.87,37.87,0,0,1-43.3,1.4,9.43,9.43,0,0,0,1-1.35M413.18,143A39,39,0,0,0,367,137.9a9.62,9.62,0,0,0-.87-1.4,40.55,40.55,0,0,1,48.17,5.35h0Zm-23-32a36.34,36.34,0,0,0-23.67,23.67A36.39,36.39,0,0,0,390.14,111m-22.5,28.65a36.28,36.28,0,0,0,28.23-29.94,36.15,36.15,0,0,0-3.84.75,38,38,0,0,1-25.93,26,9.07,9.07,0,0,0-1.45-1.52,37.88,37.88,0,0,1,31.43-27h0l1.68-.18h0l-.2,1.66v.16a37.87,37.87,0,0,1-29.62,31.61,9.92,9.92,0,0,0-.28-1.63m30.27-35.35a38.89,38.89,0,0,0-36.28,29,8.29,8.29,0,0,0-1.62-.38,40.57,40.57,0,0,1,37.85-30.27h0ZM359,97.9a36.38,36.38,0,0,0,0,33.48,36.38,36.38,0,0,0,0-33.48m4.35,36.18a36.27,36.27,0,0,0-1.21-41.14A32,32,0,0,0,360,96.19a38,38,0,0,1,.08,36.75,9.32,9.32,0,0,0-1.29-.09H358a37.88,37.88,0,0,1,3.16-41.29h0l1.06-1.31h0l1,1.3.09.13A37.85,37.85,0,0,1,364.7,135a9.11,9.11,0,0,0-1.35-.95m-3.59-46.41a38.9,38.9,0,0,0-5.15,46.16,9.26,9.26,0,0,0-1.41.88,40.55,40.55,0,0,1,5.36-48.17h0Z"/><path class="cls-3" d="M358.75,136.27a5.78,5.78,0,1,1-5.77,5.79h0a5.77,5.77,0,0,1,5.76-5.78h0"/><path class="cls-1" d="M102.77,302.22v3H91.62A7.84,7.84,0,0,1,92.7,302a21.62,21.62,0,0,1,3.58-4,21.88,21.88,0,0,0,2.64-2.72,3.46,3.46,0,0,0,.66-1.94A2.25,2.25,0,0,0,99,291.7a2.15,2.15,0,0,0-1.58-.57,2.18,2.18,0,0,0-1.59.59,3.17,3.17,0,0,0-.68,2L92,293.43a5.24,5.24,0,0,1,1.78-3.78,6,6,0,0,1,3.73-1.14,5.44,5.44,0,0,1,3.87,1.33,4.33,4.33,0,0,1,1.4,3.29,5.56,5.56,0,0,1-.4,2.13,8.83,8.83,0,0,1-1.27,2.13A23.45,23.45,0,0,1,99,299.51c-1,.92-1.64,1.53-1.9,1.84a5.54,5.54,0,0,0-.66.87Z"/><path class="cls-1" d="M116.85,297.58h0a4.49,4.49,0,0,0-1.65,1.34,2.83,2.83,0,0,0-.53,1.59,2.27,2.27,0,0,0,.67,1.69,2.53,2.53,0,0,0,1.8.64,3.56,3.56,0,0,0,1.44-.29,6.39,6.39,0,0,0,1.51-1Zm1.24-3.45h0l.87-.66a2,2,0,0,0,1-1.46,1.38,1.38,0,0,0-.46-1,1.72,1.72,0,0,0-1.24-.43,1.76,1.76,0,0,0-1.19.37,1.18,1.18,0,0,0-.44.88,2.38,2.38,0,0,0,.73,1.43Zm8.67,9-1.93,2.46a11.12,11.12,0,0,1-2.71-1.9A7.07,7.07,0,0,1,120,305a7.69,7.69,0,0,1-2.69.42,6,6,0,0,1-4.66-1.74,4.52,4.52,0,0,1-1.22-3.1,4.71,4.71,0,0,1,.95-2.87,8,8,0,0,1,2.84-2.22,8.76,8.76,0,0,1-1.27-1.92,3.94,3.94,0,0,1-.43-1.72,3.26,3.26,0,0,1,1.2-2.56,5.11,5.11,0,0,1,3.44-1,4.82,4.82,0,0,1,3.36,1.09,3.47,3.47,0,0,1,1.21,2.69,3.35,3.35,0,0,1-.6,1.91,8.36,8.36,0,0,1-2.42,2.05l2.31,3a7.55,7.55,0,0,0,.7-1.89l2.88.65a17.84,17.84,0,0,1-.75,2.24,5.32,5.32,0,0,1-.68,1.18,11.21,11.21,0,0,0,1.38,1.09,10,10,0,0,0,1.24.79"/><path class="cls-1" d="M134.45,300.77l3.08-.37a3,3,0,0,0,.79,1.8,2.17,2.17,0,0,0,1.56.62,2.15,2.15,0,0,0,1.66-.74,2.92,2.92,0,0,0,.68-2,2.64,2.64,0,0,0-.65-1.9,2,2,0,0,0-1.57-.71,6,6,0,0,0-1.46.24l.34-2.59a2.77,2.77,0,0,0,2-.56,2,2,0,0,0,.67-1.58,1.69,1.69,0,0,0-1.81-1.83,1.85,1.85,0,0,0-1.4.57,2.59,2.59,0,0,0-.7,1.64l-2.94-.49a6.75,6.75,0,0,1,.93-2.41,4.17,4.17,0,0,1,1.72-1.42,5.9,5.9,0,0,1,2.48-.51,5,5,0,0,1,3.76,1.49,4,4,0,0,1,1.17,2.77,3.91,3.91,0,0,1-2.4,3.48,3.93,3.93,0,0,1,2.28,1.37,4,4,0,0,1,.86,2.58,5,5,0,0,1-1.6,3.72,6,6,0,0,1-7.71.25,5.1,5.1,0,0,1-1.72-3.4"/><path class="cls-1" d="M158,297.94h0v4.44h3.1a14.71,14.71,0,0,0,2.3-.1,2,2,0,0,0,1.69-2.07,2.21,2.21,0,0,0-.36-1.27,2.09,2.09,0,0,0-1-.76,11.59,11.59,0,0,0-3-.24Zm0-6.6h0v3.84h2.2a21.61,21.61,0,0,0,2.44-.06,2.16,2.16,0,0,0,1.35-.59,1.74,1.74,0,0,0,.48-1.3A1.77,1.77,0,0,0,164,292a1.93,1.93,0,0,0-1.26-.58c-.33,0-1.29-.06-2.87-.06Zm-3.36-2.76h6.64a19.25,19.25,0,0,1,2.94.16,4.39,4.39,0,0,1,1.74.69,4.44,4.44,0,0,1,1.27,1.39,3.78,3.78,0,0,1,.51,1.94,4,4,0,0,1-2.33,3.6,4.33,4.33,0,0,1,2.33,1.5,4.05,4.05,0,0,1,.81,2.51,4.79,4.79,0,0,1-.53,2.2,4.47,4.47,0,0,1-1.43,1.71,4.8,4.8,0,0,1-2.25.79c-.55.06-1.9.1-4,.11h-5.66Z"/><polygon class="cls-1" points="171.37 305.18 171.37 288.58 174.72 288.58 174.72 295.11 181.29 295.11 181.29 288.58 184.63 288.58 184.63 305.18 181.29 305.18 181.29 297.92 174.72 297.92 174.72 305.18 171.37 305.18"/><polygon class="cls-1" points="188.15 305.18 188.15 288.58 191.5 288.58 191.5 295.95 198.27 288.58 202.78 288.58 196.53 295.05 203.12 305.18 198.79 305.18 194.22 297.39 191.5 300.16 191.5 305.18 188.15 305.18"/><path class="cls-1" d="M219.23,298.61h0L217,292.45l-2.25,6.16Zm6.18,6.57h-3.65l-1.45-3.78h-6.64l-1.36,3.78h-3.56l6.47-16.6h3.54Z"/><path class="cls-1" d="M230.22,299h0a4.59,4.59,0,0,0,.81,3,2.44,2.44,0,0,0,2,1,2.31,2.31,0,0,0,1.84-.89,4.61,4.61,0,0,0,.73-2.91,4.41,4.41,0,0,0-.75-2.82,2.37,2.37,0,0,0-1.88-.92,2.44,2.44,0,0,0-1.94.91,4,4,0,0,0-.77,2.66m-3.15-5.8h3V295a4.39,4.39,0,0,1,1.56-1.47,4.32,4.32,0,0,1,2.19-.57,4.58,4.58,0,0,1,3.55,1.64,6.65,6.65,0,0,1,1.46,4.58,6.93,6.93,0,0,1-1.46,4.68,4.61,4.61,0,0,1-3.57,1.67,4.09,4.09,0,0,1-1.82-.39,6.37,6.37,0,0,1-1.7-1.36v6.06h-3.18Z"/><path class="cls-1" d="M248,299.41h0c-.41.13-1.06.3-1.94.49a5.55,5.55,0,0,0-1.73.55,1.33,1.33,0,0,0-.63,1.11,1.59,1.59,0,0,0,.5,1.16,1.72,1.72,0,0,0,1.27.49,2.79,2.79,0,0,0,1.64-.57,1.88,1.88,0,0,0,.76-1.05A6.53,6.53,0,0,0,248,300Zm-4.27-2.59-2.88-.52a4.53,4.53,0,0,1,1.67-2.58,6.26,6.26,0,0,1,3.54-.84,7.47,7.47,0,0,1,3.17.51,3.16,3.16,0,0,1,1.47,1.28,6.53,6.53,0,0,1,.42,2.84v3.72a13.08,13.08,0,0,0,.15,2.34,7,7,0,0,0,.57,1.61H248.7c-.09-.21-.19-.53-.32-.94a2.36,2.36,0,0,0-.1-.38,5.87,5.87,0,0,1-1.75,1.2,4.89,4.89,0,0,1-2,.39,4.13,4.13,0,0,1-2.93-1,3.35,3.35,0,0,1-1.07-2.56,3.4,3.4,0,0,1,.49-1.81,3.15,3.15,0,0,1,1.36-1.22,11.24,11.24,0,0,1,2.54-.75,16.46,16.46,0,0,0,3.09-.78V297a1.64,1.64,0,0,0-.46-1.31,2.7,2.7,0,0,0-1.71-.39,2.28,2.28,0,0,0-1.32.33,2.41,2.41,0,0,0-.78,1.17"/><path class="cls-1" d="M257.28,305.18H254.1v-12h3v1.7a5.07,5.07,0,0,1,1.36-1.59,2.48,2.48,0,0,1,1.37-.39,4,4,0,0,1,2.1.6l-1,2.77a2.79,2.79,0,0,0-1.5-.51,1.75,1.75,0,0,0-1.12.36,2.49,2.49,0,0,0-.74,1.33,19.13,19.13,0,0,0-.26,4Z"/><path class="cls-1" d="M268.77,293.16v2.53H266.6v4.85a12.36,12.36,0,0,0,.06,1.72.67.67,0,0,0,.28.4.91.91,0,0,0,.53.15,4.11,4.11,0,0,0,1.29-.3L269,305a6.59,6.59,0,0,1-2.52.47,3.91,3.91,0,0,1-1.55-.28,2.47,2.47,0,0,1-1-.75,3.14,3.14,0,0,1-.45-1.25,16.72,16.72,0,0,1-.1-2.24v-5.24h-1.46v-2.53h1.46v-2.4l3.2-1.85v4.25Z"/><path class="cls-1" d="M270.74,293.16h2.93v1.63a4.74,4.74,0,0,1,3.76-1.91,4,4,0,0,1,2,.48,3.61,3.61,0,0,1,1.39,1.43,5.36,5.36,0,0,1,1.71-1.43,4.22,4.22,0,0,1,2-.48,4.37,4.37,0,0,1,2.24.54A3.31,3.31,0,0,1,288.1,295a7,7,0,0,1,.33,2.49v7.69h-3.18V298.3a5,5,0,0,0-.33-2.3,1.48,1.48,0,0,0-1.36-.68,2.19,2.19,0,0,0-1.26.4,2.4,2.4,0,0,0-.85,1.2,8.69,8.69,0,0,0-.26,2.49v5.77H278v-6.59a9,9,0,0,0-.17-2.26,1.33,1.33,0,0,0-.53-.76,1.61,1.61,0,0,0-1-.25,2.37,2.37,0,0,0-1.32.39,2.23,2.23,0,0,0-.85,1.15,9,9,0,0,0-.25,2.48v5.84H270.7Z"/><path class="cls-1" d="M298.75,298.14h0A3.1,3.1,0,0,0,298,296a2.29,2.29,0,0,0-3.37,0,3,3,0,0,0-.67,2.06Zm-.19,3.22,3.18.52a5.18,5.18,0,0,1-1.94,2.66,5.66,5.66,0,0,1-3.3.91,5.36,5.36,0,0,1-4.64-2.05,6.86,6.86,0,0,1-1.19-4.14,6.61,6.61,0,0,1,1.57-4.68,5.1,5.1,0,0,1,3.94-1.7,5.33,5.33,0,0,1,4.24,1.77c1,1.19,1.52,3,1.49,5.44h-8a3.25,3.25,0,0,0,.77,2.19,2.39,2.39,0,0,0,1.84.79,1.89,1.89,0,0,0,1.25-.4,2.45,2.45,0,0,0,.77-1.31"/><path class="cls-1" d="M315.44,305.18h-3.19V299a9.27,9.27,0,0,0-.2-2.52,1.78,1.78,0,0,0-.66-.89,2,2,0,0,0-1.11-.31,2.53,2.53,0,0,0-1.48.45,2.35,2.35,0,0,0-.9,1.2,10.67,10.67,0,0,0-.24,2.76v5.45h-3.18v-12h2.95v1.76a4.93,4.93,0,0,1,5.89-1.66,3.19,3.19,0,0,1,1.32,1,3.5,3.5,0,0,1,.62,1.34,9.57,9.57,0,0,1,.18,2.14Z"/><path class="cls-1" d="M324.18,293.16v2.53H322v4.85a12.36,12.36,0,0,0,.06,1.72.76.76,0,0,0,.28.4,1,1,0,0,0,.54.15,4.11,4.11,0,0,0,1.29-.3l.26,2.47a6.54,6.54,0,0,1-2.51.47,3.91,3.91,0,0,1-1.55-.28,2.47,2.47,0,0,1-1-.75,2.93,2.93,0,0,1-.44-1.25,15.21,15.21,0,0,1-.11-2.24v-5.24h-1.46v-2.53h1.46v-2.4l3.2-1.85v4.25Z"/><path class="cls-1" d="M325.27,301.75l3.19-.48a2.31,2.31,0,0,0,.83,1.4,2.76,2.76,0,0,0,1.74.48,3.13,3.13,0,0,0,1.86-.45,1,1,0,0,0,.42-.85.84.84,0,0,0-.23-.6,2.57,2.57,0,0,0-1.06-.42,17.05,17.05,0,0,1-4.88-1.55,3.12,3.12,0,0,1-1.43-2.71,3.32,3.32,0,0,1,1.23-2.62,5.76,5.76,0,0,1,3.83-1.07,6.7,6.7,0,0,1,3.67.8,4.1,4.1,0,0,1,1.65,2.38l-3,.56a1.85,1.85,0,0,0-.73-1.08,2.57,2.57,0,0,0-1.53-.37,3.4,3.4,0,0,0-1.8.35.75.75,0,0,0-.36.65.69.69,0,0,0,.31.57,11.66,11.66,0,0,0,3,.9,9,9,0,0,1,3.55,1.41,3,3,0,0,1,1,2.37,3.64,3.64,0,0,1-1.38,2.85,6.12,6.12,0,0,1-4.09,1.18,6.66,6.66,0,0,1-3.89-1,4.62,4.62,0,0,1-1.87-2.7"/><rect class="cls-1" x="371.43" y="288.58" width="3.35" height="16.6"/><path class="cls-1" d="M388.89,305.18h-3.18V299a9.68,9.68,0,0,0-.2-2.52,1.74,1.74,0,0,0-1.77-1.2,2.51,2.51,0,0,0-1.48.45,2.21,2.21,0,0,0-.9,1.2,9.83,9.83,0,0,0-.25,2.76v5.45h-3.18v-12h2.95v1.76a4.83,4.83,0,0,1,4-2,4.7,4.7,0,0,1,1.92.38,3.25,3.25,0,0,1,1.32,1,3.52,3.52,0,0,1,.63,1.34,10.25,10.25,0,0,1,.17,2.14Z"/><path class="cls-1" d="M394.65,298.91h0a5.5,5.5,0,0,0,.54,2.79,2.4,2.4,0,0,0,2.15,1.24,2.33,2.33,0,0,0,1.87-.94,4.32,4.32,0,0,0,.77-2.79,4.74,4.74,0,0,0-.75-3,2.35,2.35,0,0,0-1.92-.91,2.4,2.4,0,0,0-1.89.9,4.05,4.05,0,0,0-.77,2.69m8.5,6.27H400.2v-1.77a4.87,4.87,0,0,1-1.74,1.54,4.49,4.49,0,0,1-2,.5,4.6,4.6,0,0,1-3.55-1.67,6.84,6.84,0,0,1-1.48-4.66,6.68,6.68,0,0,1,1.44-4.65,4.69,4.69,0,0,1,3.64-1.59,4.5,4.5,0,0,1,3.49,1.68v-6h3.18Z"/><path class="cls-1" d="M406.28,305.18h0v-12h3.19v12Zm0-16.6h3.19v2.95h-3.19Z"/><path class="cls-1" d="M428.15,299.41h0a17.92,17.92,0,0,1-1.94.49,5.49,5.49,0,0,0-1.72.55,1.33,1.33,0,0,0-.63,1.11,1.59,1.59,0,0,0,.5,1.16,1.72,1.72,0,0,0,1.27.49,2.79,2.79,0,0,0,1.64-.57,1.88,1.88,0,0,0,.76-1.05,5.77,5.77,0,0,0,.12-1.55Zm-4.25-2.59-2.9-.52a4.53,4.53,0,0,1,1.67-2.58,6.17,6.17,0,0,1,3.53-.84,7.52,7.52,0,0,1,3.18.51,3.13,3.13,0,0,1,1.46,1.28,6.39,6.39,0,0,1,.43,2.84v3.72a12.23,12.23,0,0,0,.16,2.34,6.21,6.21,0,0,0,.58,1.61h-3.16c-.08-.21-.18-.53-.3-.94a1,1,0,0,0-.11-.38,5.87,5.87,0,0,1-1.75,1.2,5.06,5.06,0,0,1-2,.39,4.1,4.1,0,0,1-2.92-1,3.31,3.31,0,0,1-1.08-2.56,3.37,3.37,0,0,1,.49-1.81,3.06,3.06,0,0,1,1.37-1.22,11.07,11.07,0,0,1,2.52-.75,16.46,16.46,0,0,0,3.09-.78V297a1.67,1.67,0,0,0-.45-1.31,2.7,2.7,0,0,0-1.71-.39,2.28,2.28,0,0,0-1.32.33,2.32,2.32,0,0,0-.77,1.17"/><path class="cls-1" d="M437.48,299h0a4.7,4.7,0,0,0,.8,3,2.44,2.44,0,0,0,2,1,2.28,2.28,0,0,0,1.84-.89,4.54,4.54,0,0,0,.74-2.91,4.34,4.34,0,0,0-.76-2.82,2.32,2.32,0,0,0-1.88-.92,2.42,2.42,0,0,0-1.93.91,4,4,0,0,0-.77,2.66m-3.15-5.8h3V295a4.45,4.45,0,0,1,1.55-1.47,4.35,4.35,0,0,1,2.2-.57,4.58,4.58,0,0,1,3.55,1.64,6.67,6.67,0,0,1,1.46,4.58,6.88,6.88,0,0,1-1.47,4.68,4.61,4.61,0,0,1-3.57,1.67,4.21,4.21,0,0,1-1.81-.39,6.41,6.41,0,0,1-1.71-1.36v6.06H434.4Z"/><path class="cls-1" d="M456.5,305.18v-1.8a4.78,4.78,0,0,1-1.73,1.52,4.93,4.93,0,0,1-2.26.55,4.44,4.44,0,0,1-2.17-.53,3.12,3.12,0,0,1-1.39-1.5,6.53,6.53,0,0,1-.44-2.66v-7.6h3.19v5.52a16.19,16.19,0,0,0,.17,3.11,1.78,1.78,0,0,0,.64.91,2,2,0,0,0,1.18.32,2.46,2.46,0,0,0,1.46-.44,2.4,2.4,0,0,0,.89-1.1,13.71,13.71,0,0,0,.24-3.26v-5.06h3.18v12Z"/><path class="cls-1" d="M465.8,305.18h-3.18v-12h2.95v1.7a5.07,5.07,0,0,1,1.36-1.59,2.49,2.49,0,0,1,1.38-.39,4,4,0,0,1,2.1.6l-1,2.77a2.75,2.75,0,0,0-1.49-.51,1.76,1.76,0,0,0-1.13.36,2.48,2.48,0,0,0-.73,1.33,19.14,19.14,0,0,0-.27,4Z"/><path class="cls-1" d="M415.1,305.18h-3.18v-12h2.95v1.7a5.11,5.11,0,0,1,1.37-1.59,2.45,2.45,0,0,1,1.37-.39,4,4,0,0,1,2.1.6l-1,2.77a2.75,2.75,0,0,0-1.49-.51,1.76,1.76,0,0,0-1.13.36,2.54,2.54,0,0,0-.73,1.33,19.14,19.14,0,0,0-.27,4Z"/><path class="cls-1" d="M478.41,299.41h0c-.41.13-1.05.3-1.94.49a5.83,5.83,0,0,0-1.73.55,1.32,1.32,0,0,0-.62,1.11,1.59,1.59,0,0,0,.5,1.16,1.72,1.72,0,0,0,1.27.49,2.79,2.79,0,0,0,1.64-.57,1.88,1.88,0,0,0,.76-1.05,5.77,5.77,0,0,0,.12-1.55Zm-4.25-2.59-2.89-.52a4.53,4.53,0,0,1,1.67-2.58,6.17,6.17,0,0,1,3.53-.84,7.52,7.52,0,0,1,3.18.51,3.13,3.13,0,0,1,1.46,1.28,6.39,6.39,0,0,1,.43,2.84v3.72a13.08,13.08,0,0,0,.15,2.34,7,7,0,0,0,.57,1.61h-3.14c-.12-.31-.23-.62-.32-.94,0-.13-.07-.26-.11-.38a5.64,5.64,0,0,1-1.74,1.2,5.06,5.06,0,0,1-2,.39,4.13,4.13,0,0,1-2.93-1,3.59,3.59,0,0,1-.58-4.37,3.06,3.06,0,0,1,1.37-1.22,11.07,11.07,0,0,1,2.52-.75,16.46,16.46,0,0,0,3.09-.78V297a1.67,1.67,0,0,0-.45-1.31,2.76,2.76,0,0,0-1.71-.39,2.3,2.3,0,0,0-1.33.33,2.41,2.41,0,0,0-.76,1.17"/><path class="cls-1" d="M484.43,293.16h2.94v1.63a4.74,4.74,0,0,1,3.75-1.91,4,4,0,0,1,2,.48,3.61,3.61,0,0,1,1.39,1.43,5.36,5.36,0,0,1,1.71-1.43,4.1,4.1,0,0,1,2-.48,4.37,4.37,0,0,1,2.24.54A3.34,3.34,0,0,1,501.8,295a7,7,0,0,1,.33,2.49v7.69H499V298.3a5,5,0,0,0-.33-2.3,1.48,1.48,0,0,0-1.36-.68,2.14,2.14,0,0,0-1.25.4,2.25,2.25,0,0,0-.85,1.2,8,8,0,0,0-.27,2.49v5.77h-3.18v-6.59a9,9,0,0,0-.17-2.26,1.49,1.49,0,0,0-.52-.76,1.68,1.68,0,0,0-1-.25,2.33,2.33,0,0,0-1.33.39,2.23,2.23,0,0,0-.85,1.15,9,9,0,0,0-.25,2.48v5.84h-3.19Z"/><path class="cls-1" d="M339.21,302h3.18v2.28a8.42,8.42,0,0,1-.23,2.18,3.26,3.26,0,0,1-.9,1.43,4.68,4.68,0,0,1-1.69,1l-.62-1.31a2.64,2.64,0,0,0,1.37-.87,2.56,2.56,0,0,0,.43-1.52h-1.54Z"/><path class="cls-4" d="M139.19,142.82h0l.44,81.08c25,10.38,59.64-1,57.94-44.85-1.5-38.51-40.29-45.47-58.38-36.23M431,182.59h0c7.22-13.78,32.14-14.94,41,0Zm-57.32-1.25h0l17.68-17.26,2.72,2.28-3.15,3.33v3.59a32.86,32.86,0,0,1,8.46-6.3c3.74-1.88,8-1.3,12.07.14l.08-5.17h3.64v26.66H412c-.23-6.07-1.08-14.22-5.42-16.61-4.81-2.64-11.61,1.3-15.63,7.18v38.94c0,6.53,2.7,9,5.32,9h3.36v3.15H375.18v-3.06h5.32V179.93l-4.88,3.79Zm-27.24,0h0l17.69-17.26,2.71,2.28-3.15,3.33v48.43c0,6.53,2.7,9,5.32,9h3.36v3.15H348v-3.06h5.31V179.93l-4.88,3.79Zm-17.91-18.29h0v6.56c-4.64-1.72-7.49-3.38-11.75-3.58-5.11-.25-10.24,1.19-13.68,5.07-5,5.63-5.71,14.64.14,19.92,5.4,4.87,15,7.44,22.27,11.74,4.05,2.39,7.1,4.6,8.38,8.3A11.63,11.63,0,0,1,331,222.64c-3.68,3.8-9.21,6.41-16.81,5.68-10.92-1-20.92-7.36-19.53-18.77,1-8.56,16.3-7.46,11.93,1.41-1.69,3.44,2.7,5.32,4.89,3.58s3.79-4.18,3.94-6.48c.4-5.87-6-11.51-14.36-9.15-9.66,2.75-13.5,11.66-9.68,20.67,6.82,16.09,42.75,18.71,49.72-2.87,2.3-7.11,1.34-13-2.67-17.57-6.9-7.92-19.51-9-26.75-14.51-8.21-6.21-3.71-16.87,7.69-14.63,5.17,1,9.39,6.64,9,16.87H332V163.1ZM231.4,182.59h0c7.22-13.78,32.14-14.94,41,0Zm-1.57,3.47h0l57.27-.31c-6-17.51-28.61-23.53-46.39-16.8-30.12,11.41-25.57,57.33,5.2,62.94,16,2.9,34.42-5.44,40.68-20.31l-3.12-1.82c-19,32-60,12.26-53.64-23.7M116,135.31h0l27.77-.7c38.6-5.11,67.23,13.15,68.36,44.39,1.37,37-29.67,58.13-68.2,52.24H116.68v-3.83h10.24q-.26-41-.52-81.9c0-2.58-2.62-5.73-5.2-5.73h-5Zm313.43,50.75,57.26-.31c-6-17.51-28.61-23.53-46.38-16.8-30.13,11.41-25.58,57.33,5.2,62.94,15.95,2.9,34.41-5.44,40.67-20.31l-3.12-1.82c-19,32-60.05,12.26-53.63-23.7"/><path class="cls-5" d="M208.22,246.66h0v26c-13.13,8.22-23.79,3.08-28.38-6.08a22.56,22.56,0,0,1-.72-18.29A14.58,14.58,0,0,1,190.83,239c5.61-.93,12,1.24,17.39,7.61m135.67-3.91h0V257.1h2.33V233h-2.51v3.47c-12.36-1.38-18.46,0-24.36,4.92-10.66,8.85-11.91,25.71-.74,34.36,9.48,7.33,24.72,3.6,31.25-3.2l-1.47-1.73c-5.82,5.08-14,6.2-20.18,3.46-15-6.67-17.09-32.4,2.46-35.16,4.46-.63,9.86.55,13.22,3.66m-59.73-8.31h0l-12.9,11.68,1.47,1.56,3.47-3.12V276.8h-3.82V279h16.28v-2.34c-2.51-.18-5.45-1.31-5.45-4.24V246.36c0-6.75,12.72-9.29,12.72-1.77v31.57h-3.22V279h16.2v-2.2c-3.36-.44-5.88-1.33-5.88-4.56V245.46c0-11.31-13-12.89-19.73-4-.51-2.6.05-3.43,1.91-5.27ZM231,247.9h27.18c-5.86-9.91-22.38-9.14-27.18,0m-1,2.31h0c-4.27,23.85,23,36.93,35.57,15.72l2.07,1.2c-4.15,9.87-16.4,15.4-27,13.48-20.41-3.72-23.43-34.19-3.45-41.75C249,234.4,264,238.39,267.94,250ZM203,219h0l1.21,1.47,3.12-2.59v22.94c-4.91-5.29-16.6-6-23.46-2.87-21.52,9.9-15.71,41.9,8.14,42.6a25.36,25.36,0,0,0,16.18-5.2v3.38h12v-1.9c-3.33,0-5.46-1.52-5.46-5.2V211.41l2-2.25-1.47-1.56Zm-51.66,28h0L163,235.55l1.8,1.52-2.08,2.2V271.4c0,4.33,1.79,6,3.53,6h2.23v2.09h-16.2v-2h3.53V246.06l-3.25,2.52Zm-12-12.33h0v4.38c-3.09-1.14-5-2.25-7.84-2.39a11.17,11.17,0,0,0-9.11,3.38c-3.33,3.76-3.81,9.76.09,13.27,3.6,3.25,10,5,14.84,7.83,2.7,1.59,4.74,3.07,5.59,5.53a7.75,7.75,0,0,1-1.92,7.72,13.17,13.17,0,0,1-11.2,3.78c-7.28-.69-13.94-4.9-13-12.51.69-5.7,10.86-5,8,.95-1.13,2.29,1.79,3.54,3.25,2.38a6.35,6.35,0,0,0,2.64-4.32c.26-3.91-4-7.67-9.58-6.09-6.43,1.82-9,7.76-6.45,13.77,4.55,10.72,28.49,12.46,33.14-1.91,1.53-4.74.89-8.64-1.78-11.71-4.6-5.29-13-6-17.83-9.67-5.47-4.14-2.47-11.24,5.12-9.75,3.46.67,6.26,4.43,6,11.24h2.35V234.71ZM74.43,247.9H101.6c-5.85-9.91-22.37-9.14-27.17,0m-1,2.31h0c-4.25,23.85,23,36.93,35.58,15.72l2.07,1.2c-4.15,9.87-16.4,15.4-27,13.48-20.42-3.72-23.44-34.19-3.45-41.75,11.79-4.46,26.81-.47,30.77,11.14ZM0,216H0l.11,3.09h4C5.81,219,7,220.71,7,222.77V273c0,3,.53,4.55-1.35,4.55H.79v3.29H24.88v-3.78H21.29c-2.63,0-5.37-.65-5.36-4.22l.16-48.45c11.38-11.11,30.85-7,35.06,12.36,5.5,25.27-15.3,34.33-32.61,21.78l-3.91,5L42.76,278c5.7,2.94,15.4,4.56,21.07-.07.75-.61-.69-2.62-1.58-2.24A13.44,13.44,0,0,1,51,275.63l-15.44-7.8C54.85,265.31,63,249.94,59.68,235c-4.06-18.07-26.54-28-43.55-15.45v-3.77Zm365.52,20.81v2h-5l10,26.57q3.51-9.94,7-19.91c.94-2.63,1-6.58-1.73-6.58H373.4v-2.26h14.2v1.93h-4.68c-6.06,16-10.95,32.61-18.26,48.11-4.8,10.18-12,19.32-20.17,19v-10.3h2.34c.84,3.55,6.69,2.87,8.74.79,5.93-6.06,8.06-14.84,12.16-22.25l-13-31.07c-.87-2.09-2.62-4-5.11-4H347v-2.16Z"/><path class="cls-5" d="M159.19,224.85a3.75,3.75,0,1,0-3.75-3.75h0a3.75,3.75,0,0,0,3.75,3.74"/></g></svg>