<?xml version="1.0" encoding="UTF-8"?><svg xmlns="http://www.w3.org/2000/svg" viewBox="0 0 151.75 45.23"><defs><style>.d{fill-rule:evenodd;}.d,.e{fill:#231f20;}</style></defs><g id="a"/><g id="b"><g id="c"><g><g><path class="e" d="M51.64,35.32c1.69,.94,4.63,1.63,6.95,1.63,3.82,0,5.76-2,5.76-4.76,0-3.07-1.88-4.57-5.45-6.89-5.76-3.51-7.95-7.95-7.95-11.77,0-6.76,4.51-12.4,13.27-12.4,2.82,0,5.45,.75,6.64,1.5l-1.32,7.08c-1.19-.75-3.01-1.44-5.32-1.44-3.51,0-5.2,2.13-5.2,4.38,0,2.5,1.25,3.82,5.76,6.57,5.64,3.38,7.64,7.64,7.64,12.08,0,7.7-5.7,12.77-13.9,12.77-3.38,0-6.64-.88-8.08-1.69l1.19-7.08Z"/><path class="e" d="M83.6,34.28l-1.91,9.81h-8.09L82.9,1.14h10.01l8.35,42.95h-8.09l-1.85-9.81h-7.71Zm6.95-6.5l-1.4-8.99c-.45-2.61-1.02-6.95-1.4-9.75h-.19c-.45,2.87-1.08,7.27-1.53,9.75l-1.59,8.99h6.12Z"/><path class="e" d="M108.85,44.09V27.65L99.42,1.14h8.92l2.87,10.26c.83,2.74,1.66,5.93,2.29,9.11h.13c.51-3.12,1.21-6.25,1.98-9.3l2.55-10.07h8.67l-9.62,26.19v16.76h-8.35Z"/><path class="e" d="M134.1,34.28l-1.91,9.81h-8.09L133.4,1.14h10.01l8.35,42.95h-8.09l-1.85-9.81h-7.71Zm6.95-6.5l-1.4-8.99c-.45-2.61-1.02-6.95-1.4-9.75h-.19c-.45,2.87-1.08,7.27-1.53,9.75l-1.59,8.99h6.12Z"/></g><g><path class="d" d="M21.25,44.11c7.32-5.15,15.44-15.15,17.06-28.43l.06-.47-.46-.14c-2.52-.78-5.05-1.18-7.53-1.18-3.45,0-6.95,.75-10.67,2.31-1.26-1.57-2.82-4.3-3.57-6.69,2.79-.89,7.03-1.87,12.23-1.87,5.85,0,11.51,1.26,16.83,3.74-1.36,7.72-4.23,14.71-8.54,20.78-3.67,5.16-8.29,9.56-13.74,13.08l-1.66-1.12Z"/><path class="d" d="M18.2,29.3c-3.8-3.45-11.71-12.21-12.92-26.09C11.11,1.08,17.06,0,22.96,0c7.8,0,15.67,1.93,22.79,5.57l-.14,2c-3.33-1.55-9.47-3.74-17.39-3.74-5.49,0-10.79,1.07-15.76,3.19l-.44,.19,.11,.47c1.4,6.16,4.6,11,10.07,15.2-.72,1.86-2.3,4.57-4,6.43Z"/><path class="d" d="M18.18,41.85c-6.01-5.04-10.63-11.02-13.72-17.79C1.81,18.29,.32,12.09,0,5.62l1.79-.87c.79,8.91,5.39,20.95,16.1,28.99l.38,.29,.35-.32c4.64-4.31,7.23-9.5,8.12-16.32,.83-.13,1.87-.2,2.96-.2,1.67,0,3.29,.16,4.62,.45-1.1,5.02-4.73,16.24-16.14,24.23Z"/></g></g></g></g></svg>