<?xml version="1.0" encoding="utf-8"?>
<!-- Generator: Adobe Illustrator 26.2.1, SVG Export Plug-In . SVG Version: 6.00 Build 0)  -->
<svg version="1.1" id="Layer_1" xmlns="http://www.w3.org/2000/svg" xmlns:xlink="http://www.w3.org/1999/xlink" x="0px" y="0px"
	 viewBox="0 0 400 285.1" style="enable-background:new 0 0 400 285.1;" xml:space="preserve">
<style type="text/css">
	.st0{fill:none;stroke:#000000;stroke-width:0.5;stroke-miterlimit:10;}
	.st1{display:none;}
	.st2{display:inline;fill:#F5873D;}
	.st3{display:none;fill:#F8B641;}
	.st4{display:none;fill:#C5303B;}
</style>
<path class="st0" d="M398.1,283.7l-78.9-112.6c13.5-0.8,27-0.9,40.5-0.3c-0.1,0.1-99.5-22.1-211.2,1.5l52.4-74.5l42.9,60.4
	c26.4-0.6,49.9,0.7,68.7,2.5L234.3,50L200.9,2.1v0.1L167.4,50L17.7,263.8L3.8,283.1c0.1-0.1,0.3-0.2,0.7-0.5
	c5.8-3.9,47-30.5,106.8-56.8c41.7-18.4,92.4-36.7,146.4-46.9l73.4,104.8H398.1z"/>
<g class="st1">
	<path class="st2" d="M308.2,159.8c-18.2-1.8-41-3-66.6-2.5L200,98.8V6.1l32.4,46.3L308.2,159.8z"/>
	<path class="st2" d="M391,279h-64.9L255,177.4c19.5-3.7,39.5-6.3,59.7-7.5c0,0,0,0,0,0L391,279z"/>
</g>
<path class="st3" d="M149.2,172.5l50.8-71.1V10l-32.5,45.7L22.5,259.9L8.9,278.4c0.1-0.1,0.3-0.2,0.7-0.4
	c5.7-3.7,45.6-29.1,103.5-54.3c40.4-17.6,89.6-35.1,141.9-44.9c19.5-3.7,39.5-6.2,59.6-7.4c0,0,0,0,0,0c13-0.7,26.1-0.9,39.2-0.3
	C353.8,171.2,257.5,149.9,149.2,172.5z"/>
<path class="st4" d="M273,162.6c-17.1-0.7-33.2-0.6-48.5,0.2c-23.5,0.2-44.9,3.1-64.4,7.9c-63.8,12.6-98.8,34.5-98.8,34.5
	l-36.9,51.6C14,269.6,9,278.4,9,278.4c199.4-122.9,344.9-107.3,344.9-107.3C328.6,165.4,297.8,163.2,273,162.6z"/>
</svg>
