<?xml version="1.0" encoding="utf-8"?>
<!-- Generator: Adobe Illustrator 24.0.1, SVG Export Plug-In . SVG Version: 6.00 Build 0)  -->
<svg version="1.1" id="Layer_1" xmlns="http://www.w3.org/2000/svg" xmlns:xlink="http://www.w3.org/1999/xlink" x="0px" y="0px"
	 viewBox="0 0 347.1 108.9" style="enable-background:new 0 0 347.1 108.9;" xml:space="preserve">
<style type="text/css">
	.st0{display:none;}
	.st1{display:inline;fill:#6D6E71;}
	.st2{display:inline;fill:#22356C;}
	.st3{display:inline;}
	.st4{fill:#B72726;}
	.st5{fill:#87171A;}
	.st6{fill:none;}
	.st7{fill:#22356C;}
	.st8{fill:#F5873D;}
	.st9{fill:#F8B641;}
	.st10{fill:#C5303B;}
</style>
<g class="st0">
	<path class="st1" d="M137.1,106.7v-8.4h3.3c0.7,0,1.4,0.1,1.9,0.3c0.5,0.2,0.9,0.6,1.2,1s0.4,1,0.4,1.6s-0.1,1.1-0.4,1.6
		c-0.3,0.4-0.7,0.8-1.2,1s-1.2,0.3-1.9,0.3h-2.6l0.5-0.6v3.1h-1.2V106.7z M138.3,103.7l-0.5-0.6h2.6c0.8,0,1.4-0.2,1.8-0.5
		c0.4-0.3,0.6-0.8,0.6-1.4s-0.2-1.1-0.6-1.4c-0.4-0.3-1-0.5-1.8-0.5h-2.6l0.5-0.6V103.7z M142.8,106.7l-2.1-3.1h1.3l2.2,3.1H142.8z"
		/>
	<path class="st1" d="M149.4,105.7h4.9v1h-6.1v-8.4h5.9v1h-4.7L149.4,105.7L149.4,105.7z M149.3,101.9h4.3v1h-4.3V101.9z"/>
	<polygon class="st1" points="158.6,106.7 158.6,98.3 159.8,98.3 159.8,105.7 164.4,105.7 164.4,106.7 	"/>
	<path class="st1" d="M166.8,106.7l3.8-8.4h1.2l3.8,8.4h-1.3l-3.4-7.7h0.5l-3.4,7.7H166.8z M168.4,104.6l0.3-1h4.7l0.3,1H168.4z"/>
	<polygon class="st1" points="180.4,106.7 180.4,99.3 177.5,99.3 177.5,98.3 184.5,98.3 184.5,99.3 181.6,99.3 181.6,106.7 	"/>
	<rect x="188.1" y="98.3" class="st1" width="1.2" height="8.4"/>
	<path class="st1" d="M198,106.8c-0.6,0-1.2-0.1-1.8-0.3c-0.5-0.2-1-0.5-1.4-0.9s-0.7-0.8-0.9-1.4c-0.2-0.5-0.3-1.1-0.3-1.7
		s0.1-1.2,0.3-1.7s0.5-1,0.9-1.4s0.9-0.7,1.4-0.9c0.5-0.2,1.1-0.3,1.8-0.3c0.6,0,1.2,0.1,1.8,0.3c0.5,0.2,1,0.5,1.4,0.9
		s0.7,0.8,0.9,1.4c0.2,0.5,0.3,1.1,0.3,1.7s-0.1,1.2-0.3,1.7s-0.5,1-0.9,1.4s-0.9,0.7-1.4,0.9C199.2,106.7,198.6,106.8,198,106.8
		 M198,105.7c0.5,0,0.9-0.1,1.3-0.2c0.4-0.2,0.7-0.4,1-0.7c0.3-0.3,0.5-0.6,0.7-1s0.2-0.8,0.2-1.3s-0.1-0.9-0.2-1.3
		c-0.2-0.4-0.4-0.7-0.7-1s-0.6-0.5-1-0.7s-0.8-0.2-1.3-0.2s-0.9,0.1-1.3,0.2c-0.4,0.2-0.7,0.4-1,0.7c-0.3,0.3-0.5,0.6-0.7,1
		s-0.2,0.8-0.2,1.3s0.1,0.9,0.2,1.3s0.4,0.7,0.7,1s0.6,0.5,1,0.7C197.1,105.7,197.5,105.7,198,105.7"/>
	<polygon class="st1" points="206.6,106.7 206.6,98.3 207.6,98.3 213.2,105.2 212.7,105.2 212.7,98.3 213.9,98.3 213.9,106.7 
		212.9,106.7 207.3,99.8 207.8,99.8 207.8,106.7 	"/>
	<path class="st1" d="M221.2,106.8c-0.6,0-1.3-0.1-1.8-0.3c-0.6-0.2-1-0.5-1.4-0.8l0.4-0.9c0.3,0.3,0.7,0.5,1.2,0.7s1,0.3,1.6,0.3
		c0.5,0,0.9-0.1,1.2-0.2s0.5-0.3,0.7-0.5c0.1-0.2,0.2-0.4,0.2-0.7c0-0.3-0.1-0.5-0.3-0.7s-0.4-0.3-0.7-0.4s-0.6-0.2-1-0.3
		c-0.4-0.1-0.7-0.2-1.1-0.3c-0.4-0.1-0.7-0.2-1-0.4c-0.3-0.2-0.5-0.4-0.7-0.7c-0.2-0.3-0.3-0.7-0.3-1.1s0.1-0.8,0.3-1.2
		c0.2-0.4,0.6-0.7,1.1-0.9c0.5-0.2,1.1-0.3,1.8-0.3c0.5,0,1,0.1,1.5,0.2s0.9,0.3,1.3,0.6l-0.4,1c-0.4-0.2-0.7-0.4-1.1-0.5
		c-0.4-0.1-0.8-0.2-1.2-0.2c-0.5,0-0.9,0.1-1.2,0.2s-0.5,0.3-0.7,0.5c-0.1,0.2-0.2,0.4-0.2,0.7c0,0.3,0.1,0.5,0.3,0.7
		s0.4,0.3,0.7,0.4s0.6,0.2,1,0.3c0.4,0.1,0.7,0.2,1.1,0.3c0.4,0.1,0.7,0.2,1,0.4c0.3,0.2,0.5,0.4,0.7,0.7c0.2,0.3,0.3,0.6,0.3,1.1
		c0,0.4-0.1,0.8-0.3,1.2c-0.2,0.4-0.6,0.7-1.1,0.9C222.5,106.7,221.9,106.8,221.2,106.8"/>
	<path class="st1" d="M229.7,106.7h-1.2v-8.4h1.2V106.7z M234.6,103h-5.1v-1h5.1V103z M234.5,98.3h1.2v8.4h-1.2V98.3z"/>
	<rect x="240.6" y="98.3" class="st1" width="1.2" height="8.4"/>
	<path class="st1" d="M246.6,106.7v-8.4h3.3c0.7,0,1.4,0.1,1.9,0.3c0.5,0.2,0.9,0.6,1.2,1s0.4,1,0.4,1.6s-0.1,1.1-0.4,1.6
		c-0.3,0.4-0.7,0.8-1.2,1s-1.2,0.4-1.9,0.4h-2.6l0.5-0.6v3.1H246.6z M247.8,103.7l-0.5-0.6h2.6c0.8,0,1.4-0.2,1.7-0.5
		c0.4-0.3,0.6-0.8,0.6-1.4s-0.2-1.1-0.6-1.4c-0.4-0.3-1-0.5-1.7-0.5h-2.6l0.5-0.6V103.7z"/>
	<path class="st1" d="M260.1,106.8c-0.6,0-1.3-0.1-1.8-0.3c-0.6-0.2-1-0.5-1.4-0.8l0.4-0.9c0.3,0.3,0.7,0.5,1.2,0.7s1,0.3,1.6,0.3
		c0.5,0,0.9-0.1,1.2-0.2c0.3-0.1,0.5-0.3,0.7-0.5c0.1-0.2,0.2-0.4,0.2-0.7c0-0.3-0.1-0.5-0.3-0.7c-0.2-0.2-0.4-0.3-0.7-0.4
		c-0.3-0.1-0.6-0.2-1-0.3c-0.4-0.1-0.7-0.2-1.1-0.3c-0.4-0.1-0.7-0.2-1-0.4c-0.3-0.2-0.5-0.4-0.7-0.7c-0.2-0.3-0.3-0.7-0.3-1.1
		s0.1-0.8,0.3-1.2c0.2-0.4,0.6-0.7,1.1-0.9c0.5-0.2,1.1-0.3,1.8-0.3c0.5,0,1,0.1,1.5,0.2s0.9,0.3,1.3,0.6l-0.4,1
		c-0.4-0.2-0.7-0.4-1.1-0.5s-0.8-0.2-1.2-0.2c-0.5,0-0.9,0.1-1.2,0.2c-0.3,0.1-0.5,0.3-0.7,0.5c-0.1,0.2-0.2,0.4-0.2,0.7
		c0,0.3,0.1,0.5,0.3,0.7c0.2,0.2,0.4,0.3,0.7,0.4c0.3,0.1,0.6,0.2,1,0.3c0.4,0.1,0.7,0.2,1.1,0.3c0.4,0.1,0.7,0.2,1,0.4
		c0.3,0.2,0.5,0.4,0.7,0.7c0.2,0.3,0.3,0.6,0.3,1.1c0,0.4-0.1,0.8-0.3,1.2c-0.2,0.4-0.6,0.7-1.1,0.9
		C261.4,106.7,260.8,106.8,260.1,106.8"/>
	<path class="st1" d="M274.2,106.7H273v-8.4h5.9v1h-4.7L274.2,106.7L274.2,106.7z M274.1,102.3h4.3v1h-4.3V102.3z"/>
	<path class="st1" d="M286.6,106.8c-0.6,0-1.2-0.1-1.8-0.3c-0.5-0.2-1-0.5-1.4-0.9s-0.7-0.8-0.9-1.4c-0.2-0.5-0.3-1.1-0.3-1.7
		s0.1-1.2,0.3-1.7c0.2-0.5,0.5-1,0.9-1.4s0.9-0.7,1.4-0.9c0.5-0.2,1.1-0.3,1.8-0.3c0.6,0,1.2,0.1,1.8,0.3c0.5,0.2,1,0.5,1.4,0.9
		s0.7,0.8,0.9,1.4c0.2,0.5,0.3,1.1,0.3,1.7s-0.1,1.2-0.3,1.7c-0.2,0.5-0.5,1-0.9,1.4s-0.9,0.7-1.4,0.9
		C287.9,106.7,287.3,106.8,286.6,106.8 M286.6,105.7c0.5,0,0.9-0.1,1.3-0.2c0.4-0.2,0.7-0.4,1-0.7c0.3-0.3,0.5-0.6,0.7-1
		s0.2-0.8,0.2-1.3s-0.1-0.9-0.2-1.3c-0.2-0.4-0.4-0.7-0.7-1c-0.3-0.3-0.6-0.5-1-0.7s-0.8-0.2-1.3-0.2s-0.9,0.1-1.3,0.2
		c-0.4,0.2-0.7,0.4-1,0.7c-0.3,0.3-0.5,0.6-0.7,1s-0.2,0.8-0.2,1.3s0.1,0.9,0.2,1.3s0.4,0.7,0.7,1c0.3,0.3,0.6,0.5,1,0.7
		S286.2,105.7,286.6,105.7"/>
	<path class="st1" d="M295.3,106.7v-8.4h3.3c0.7,0,1.4,0.1,1.9,0.3c0.5,0.2,0.9,0.6,1.2,1c0.3,0.4,0.4,1,0.4,1.6s-0.1,1.1-0.4,1.6
		c-0.3,0.4-0.7,0.8-1.2,1s-1.2,0.3-1.9,0.3H296l0.5-0.6v3.1h-1.2V106.7z M296.5,103.7l-0.5-0.6h2.6c0.8,0,1.4-0.2,1.8-0.5
		s0.6-0.8,0.6-1.4s-0.2-1.1-0.6-1.4s-1-0.5-1.8-0.5H296l0.5-0.6V103.7z M300.9,106.7l-2.1-3.1h1.3l2.2,3.1H300.9z"/>
	<path class="st1" d="M307.5,105.7h4.9v1h-6.1v-8.4h5.9v1h-4.7L307.5,105.7L307.5,105.7z M307.4,101.9h4.3v1h-4.3V101.9z"/>
	<polygon class="st1" points="319,106.7 315.3,98.3 316.6,98.3 320,106.1 319.3,106.1 322.7,98.3 323.9,98.3 320.2,106.7 	"/>
	<path class="st1" d="M328.5,105.7h4.9v1h-6.1v-8.4h5.9v1h-4.7L328.5,105.7L328.5,105.7z M328.4,101.9h4.3v1h-4.3V101.9z"/>
	<path class="st1" d="M337.7,106.7v-8.4h3.3c0.7,0,1.4,0.1,1.9,0.3c0.5,0.2,0.9,0.6,1.2,1c0.3,0.4,0.4,1,0.4,1.6s-0.1,1.1-0.4,1.6
		c-0.3,0.4-0.7,0.8-1.2,1s-1.2,0.3-1.9,0.3h-2.6l0.5-0.6v3.1h-1.2V106.7z M338.9,103.7l-0.5-0.6h2.6c0.8,0,1.4-0.2,1.8-0.5
		s0.6-0.8,0.6-1.4s-0.2-1.1-0.6-1.4s-1-0.5-1.8-0.5h-2.6l0.5-0.6V103.7z M343.3,106.7l-2.1-3.1h1.3l2.2,3.1H343.3z"/>
	<path class="st2" d="M79.7,49.6c-1.9-2.8-4.4-5-7.4-6.8c-3.5-1.9-7.7-3.4-12.4-4.2c-5-0.9-10.5-1.6-16.2-2.1
		c-10.5-1.1-17.8-2.9-21.8-5.3c-2.7-1.7-3-3.3-3-4.4c0-1.6,1-3.1,2.9-4.6c4.3-3,10.7-4.6,19.1-4.6c5.6,0,11.7,0.7,18,2
		c6,1.4,11.1,3.1,15.2,5L77,26V10.5L75.7,10c-4.2-2-9.4-3.7-15.5-5C47.3,2.6,34.6,2.6,23.8,5.3c-5.6,1.4-10.2,3.6-13.7,6.6
		c-5,4.4-7.6,9.6-7.6,15.6c0,5,2,9.4,6,13.2c3.3,3.2,7.9,5.5,13.9,6.8c5.4,1.3,11.8,2.3,19.1,2.9c10.3,1,17.6,2.7,21.7,5.1
		c3,1.9,3,3.6,3,4.2c0,1.6-0.9,3.1-2.8,4.5c-4.2,3-11,4.5-20.1,4.5c-6,0-12.4-0.7-19.1-2c-6.1-1.2-11.4-2.8-15.7-4.9l-2.9-1.4v15.3
		l1.1,0.6c4.3,2.2,9.6,3.9,15.9,5c6.3,1.3,12.9,1.9,19.6,1.9c5.8,0,11.1-0.5,15.9-1.4c5.1-1,9.4-2.5,12.6-4.3
		c3.4-1.9,6.3-4.5,8.5-7.7c2.3-3.3,3.4-6.9,3.4-10.7C82.5,55.7,81.6,52.5,79.7,49.6L79.7,49.6z"/>
	<polygon class="st2" points="259.1,3 221.3,57.1 219.5,59.6 219.5,82.8 203.8,82.8 203.8,59.6 202,57.1 164.1,3 183.4,3 
		203.8,32.2 211.6,43.3 219.5,32.2 239.9,3 	"/>
	<path class="st2" d="M296.4,16.8l-9.6-13.7l-9.6,13.7l-45.9,65.6l-0.3,0.4h19.3l8.3-11.8H315l8.3,11.8h19.2L296.4,16.8z
		 M269.7,54.8l17-24.3l17,24.3H269.7z"/>
	<g id="A" class="st3">
		<path class="st4" d="M167.9,47.5c-5.4-0.5-12.1-0.9-19.7-0.7l-12.3-17.3V2.1l9.6,13.7L167.9,47.5z"/>
		<path class="st4" d="M169.8,50.5c-5.9-0.9-13-1.6-20.4-1.7l23.8,34h19.2L169.8,50.5z"/>
		<path class="st5" d="M120.9,50.8l15-21.3V2.1l-9.6,13.7L83.4,77l-4,5.5c0,0,0.1-0.1,0.2-0.1c1.7-1.1,13.5-8.7,30.6-16.3
			c19.3-8.5,45.3-16.9,71.2-15.8C181.4,50.4,152.9,44,120.9,50.8"/>
	</g>
	<rect x="4.6" y="102.4" class="st1" width="122.6" height="2.1"/>
</g>
<g>
	<path d="M141.5,100.08v-6.96h2.71c0.61,0,1.13,0.1,1.56,0.29c0.43,0.19,0.76,0.47,0.99,0.84c0.23,0.36,0.35,0.8,0.35,1.3
		s-0.12,0.94-0.35,1.3c-0.23,0.36-0.56,0.64-0.99,0.83c-0.43,0.19-0.95,0.29-1.56,0.29h-2.17l0.45-0.46v2.58H141.5z M142.5,97.6
		l-0.45-0.49h2.14c0.64,0,1.12-0.14,1.45-0.41c0.33-0.28,0.49-0.66,0.49-1.16c0-0.5-0.16-0.88-0.49-1.15
		c-0.33-0.27-0.81-0.41-1.45-0.41h-2.14l0.45-0.5V97.6z M146.16,100.08l-1.77-2.53h1.06l1.79,2.53H146.16z"/>
	<path d="M151.65,99.21h4.06v0.87h-5.05v-6.96h4.91v0.87h-3.92V99.21z M151.56,96.12h3.58v0.85h-3.58V96.12z"/>
	<path d="M159.23,100.08v-6.96h0.99v6.1H164v0.87H159.23z"/>
	<path d="M166.01,100.08l3.15-6.96h0.98l3.16,6.96h-1.04l-2.81-6.4h0.4l-2.81,6.4H166.01z M167.35,98.34l0.27-0.8h3.92l0.29,0.8
		H167.35z"/>
	<path d="M177.29,100.08v-6.1h-2.39v-0.87h5.76v0.87h-2.39v6.1H177.29z"/>
	<path d="M183.67,100.08v-6.96h0.99v6.96H183.67z"/>
	<path d="M191.81,100.16c-0.53,0-1.02-0.09-1.48-0.27c-0.45-0.18-0.85-0.43-1.18-0.75c-0.33-0.32-0.59-0.7-0.78-1.13
		c-0.19-0.43-0.28-0.9-0.28-1.41s0.09-0.98,0.28-1.41c0.19-0.43,0.44-0.81,0.78-1.13c0.33-0.32,0.72-0.57,1.17-0.75
		c0.45-0.18,0.94-0.27,1.48-0.27c0.53,0,1.02,0.09,1.47,0.26c0.45,0.18,0.84,0.42,1.17,0.75c0.33,0.32,0.59,0.7,0.77,1.13
		c0.18,0.43,0.27,0.91,0.27,1.42c0,0.52-0.09,0.99-0.27,1.42c-0.18,0.43-0.44,0.81-0.77,1.13c-0.33,0.32-0.72,0.57-1.17,0.75
		C192.83,100.07,192.34,100.16,191.81,100.16z M191.8,99.27c0.39,0,0.75-0.07,1.08-0.2c0.33-0.13,0.61-0.32,0.86-0.56
		c0.24-0.24,0.43-0.53,0.57-0.85c0.14-0.32,0.2-0.68,0.2-1.06s-0.07-0.74-0.2-1.06c-0.14-0.32-0.33-0.61-0.57-0.85
		c-0.24-0.24-0.53-0.43-0.86-0.57c-0.33-0.13-0.69-0.2-1.08-0.2c-0.38,0-0.74,0.07-1.07,0.2c-0.33,0.13-0.61,0.32-0.86,0.57
		c-0.25,0.25-0.44,0.53-0.57,0.85c-0.14,0.32-0.2,0.67-0.2,1.06s0.07,0.74,0.2,1.06c0.14,0.32,0.33,0.61,0.57,0.85
		c0.25,0.24,0.53,0.43,0.86,0.56C191.06,99.21,191.42,99.27,191.8,99.27z"/>
	<path d="M198.94,100.08v-6.96h0.82l4.6,5.72h-0.43v-5.72h0.99v6.96h-0.82l-4.6-5.72h0.43v5.72H198.94z"/>
	<path d="M210.96,100.16c-0.53,0-1.04-0.08-1.52-0.24c-0.48-0.16-0.87-0.37-1.14-0.63l0.37-0.78c0.27,0.23,0.6,0.42,1.01,0.58
		c0.41,0.15,0.84,0.23,1.28,0.23c0.4,0,0.73-0.05,0.98-0.14c0.25-0.09,0.44-0.22,0.56-0.38c0.12-0.16,0.18-0.35,0.18-0.55
		c0-0.24-0.08-0.43-0.23-0.58c-0.16-0.15-0.36-0.26-0.61-0.35s-0.52-0.17-0.82-0.23c-0.3-0.07-0.6-0.14-0.9-0.23
		c-0.3-0.09-0.58-0.2-0.83-0.34c-0.25-0.14-0.45-0.33-0.6-0.56c-0.15-0.24-0.23-0.54-0.23-0.91c0-0.36,0.09-0.69,0.28-0.99
		c0.19-0.3,0.48-0.54,0.88-0.73c0.39-0.18,0.9-0.27,1.51-0.27c0.4,0,0.81,0.05,1.2,0.16c0.4,0.11,0.74,0.26,1.03,0.46l-0.33,0.8
		c-0.3-0.2-0.61-0.34-0.94-0.43c-0.33-0.09-0.65-0.13-0.96-0.13c-0.39,0-0.71,0.05-0.96,0.15c-0.25,0.1-0.44,0.23-0.55,0.4
		c-0.12,0.17-0.17,0.35-0.17,0.56c0,0.25,0.08,0.44,0.23,0.59c0.16,0.15,0.36,0.26,0.61,0.35c0.25,0.09,0.52,0.16,0.82,0.23
		c0.3,0.07,0.6,0.15,0.9,0.23c0.3,0.09,0.58,0.2,0.83,0.34c0.25,0.14,0.45,0.32,0.6,0.56c0.15,0.23,0.23,0.53,0.23,0.9
		c0,0.35-0.1,0.68-0.29,0.98c-0.19,0.3-0.49,0.54-0.89,0.73C212.08,100.07,211.57,100.16,210.96,100.16z"/>
	<path d="M218.02,100.08h-0.99v-6.96h0.99V100.08z M222.11,96.98h-4.19v-0.86h4.19V96.98z M222.02,93.12h0.99v6.96h-0.99V93.12z"/>
	<path d="M227.02,100.08v-6.96h0.99v6.96H227.02z"/>
	<path d="M232.03,100.08v-6.96h2.71c0.61,0,1.13,0.1,1.56,0.29c0.43,0.19,0.76,0.47,0.99,0.84c0.23,0.36,0.35,0.8,0.35,1.3
		s-0.12,0.94-0.35,1.3c-0.23,0.36-0.56,0.64-0.99,0.84c-0.43,0.2-0.95,0.29-1.56,0.29h-2.17l0.45-0.47v2.58H232.03z M233.02,97.6
		l-0.45-0.5h2.14c0.64,0,1.12-0.14,1.45-0.41c0.33-0.27,0.49-0.66,0.49-1.15c0-0.5-0.16-0.88-0.49-1.15
		c-0.33-0.27-0.81-0.41-1.45-0.41h-2.14l0.45-0.5V97.6z"/>
	<path d="M243.15,100.16c-0.53,0-1.04-0.08-1.52-0.24c-0.48-0.16-0.87-0.37-1.14-0.63l0.37-0.78c0.26,0.23,0.6,0.42,1.01,0.58
		c0.41,0.15,0.84,0.23,1.28,0.23c0.4,0,0.73-0.05,0.98-0.14s0.44-0.22,0.56-0.38c0.12-0.16,0.18-0.35,0.18-0.55
		c0-0.24-0.08-0.43-0.23-0.58s-0.36-0.26-0.61-0.35s-0.52-0.17-0.82-0.23c-0.3-0.07-0.6-0.14-0.9-0.23c-0.3-0.09-0.58-0.2-0.83-0.34
		c-0.25-0.14-0.45-0.33-0.6-0.56c-0.15-0.24-0.23-0.54-0.23-0.91c0-0.36,0.09-0.69,0.28-0.99s0.48-0.54,0.88-0.73
		c0.39-0.18,0.9-0.27,1.51-0.27c0.4,0,0.81,0.05,1.2,0.16c0.4,0.11,0.74,0.26,1.03,0.46l-0.33,0.8c-0.3-0.2-0.61-0.34-0.94-0.43
		c-0.33-0.09-0.65-0.13-0.96-0.13c-0.39,0-0.71,0.05-0.96,0.15c-0.25,0.1-0.44,0.23-0.55,0.4c-0.12,0.17-0.17,0.35-0.17,0.56
		c0,0.25,0.08,0.44,0.23,0.59c0.16,0.15,0.36,0.26,0.61,0.35c0.25,0.09,0.52,0.16,0.82,0.23c0.3,0.07,0.6,0.15,0.9,0.23
		c0.3,0.09,0.58,0.2,0.83,0.34c0.25,0.14,0.45,0.32,0.6,0.56c0.15,0.23,0.23,0.53,0.23,0.9c0,0.35-0.1,0.68-0.29,0.98
		c-0.19,0.3-0.49,0.54-0.89,0.73C244.27,100.07,243.76,100.16,243.15,100.16z"/>
	<path d="M254.81,100.08h-0.99v-6.96h4.91v0.87h-3.92V100.08z M254.71,96.41h3.59v0.86h-3.59V96.41z"/>
	<path d="M265.11,100.16c-0.53,0-1.02-0.09-1.48-0.27c-0.45-0.18-0.85-0.43-1.18-0.75c-0.33-0.32-0.59-0.7-0.78-1.13
		c-0.19-0.43-0.28-0.9-0.28-1.41s0.09-0.98,0.28-1.41c0.19-0.43,0.44-0.81,0.78-1.13c0.33-0.32,0.72-0.57,1.17-0.75
		c0.45-0.18,0.94-0.27,1.48-0.27c0.53,0,1.02,0.09,1.47,0.26c0.45,0.18,0.84,0.42,1.17,0.75c0.33,0.32,0.59,0.7,0.77,1.13
		c0.18,0.43,0.27,0.91,0.27,1.42c0,0.52-0.09,0.99-0.27,1.42c-0.18,0.43-0.44,0.81-0.77,1.13c-0.33,0.32-0.72,0.57-1.17,0.75
		C266.13,100.07,265.64,100.16,265.11,100.16z M265.1,99.27c0.39,0,0.75-0.07,1.08-0.2c0.33-0.13,0.61-0.32,0.86-0.56
		c0.24-0.24,0.43-0.53,0.57-0.85c0.14-0.32,0.2-0.68,0.2-1.06s-0.07-0.74-0.2-1.06c-0.14-0.32-0.33-0.61-0.57-0.85
		c-0.24-0.24-0.53-0.43-0.86-0.57c-0.33-0.13-0.69-0.2-1.08-0.2c-0.38,0-0.74,0.07-1.07,0.2c-0.33,0.13-0.61,0.32-0.86,0.57
		c-0.25,0.25-0.44,0.53-0.57,0.85c-0.14,0.32-0.2,0.67-0.2,1.06s0.07,0.74,0.2,1.06c0.14,0.32,0.33,0.61,0.57,0.85
		c0.25,0.24,0.53,0.43,0.86,0.56C264.36,99.21,264.71,99.27,265.1,99.27z"/>
	<path d="M272.24,100.08v-6.96h2.71c0.61,0,1.13,0.1,1.56,0.29c0.43,0.19,0.76,0.47,0.99,0.84c0.23,0.36,0.35,0.8,0.35,1.3
		s-0.12,0.94-0.35,1.3c-0.23,0.36-0.56,0.64-0.99,0.83c-0.43,0.19-0.95,0.29-1.56,0.29h-2.17l0.45-0.46v2.58H272.24z M273.23,97.6
		l-0.45-0.49h2.14c0.64,0,1.12-0.14,1.45-0.41c0.33-0.28,0.49-0.66,0.49-1.16c0-0.5-0.16-0.88-0.49-1.15
		c-0.33-0.27-0.81-0.41-1.45-0.41h-2.14l0.45-0.5V97.6z M276.89,100.08l-1.77-2.53h1.06l1.79,2.53H276.89z"/>
	<path d="M282.38,99.21h4.06v0.87h-5.05v-6.96h4.91v0.87h-3.92V99.21z M282.29,96.12h3.58v0.85h-3.58V96.12z"/>
	<path d="M291.88,100.08l-3.06-6.96h1.07l2.81,6.42h-0.62l2.83-6.42h0.99l-3.05,6.96H291.88z"/>
	<path d="M299.72,99.21h4.06v0.87h-5.05v-6.96h4.91v0.87h-3.92V99.21z M299.63,96.12h3.58v0.85h-3.58V96.12z"/>
	<path d="M307.3,100.08v-6.96h2.71c0.61,0,1.13,0.1,1.56,0.29c0.43,0.19,0.76,0.47,0.99,0.84c0.23,0.36,0.35,0.8,0.35,1.3
		s-0.12,0.94-0.35,1.3c-0.23,0.36-0.56,0.64-0.99,0.83c-0.43,0.19-0.95,0.29-1.56,0.29h-2.17l0.45-0.46v2.58H307.3z M308.3,97.6
		l-0.45-0.49h2.14c0.64,0,1.12-0.14,1.45-0.41c0.33-0.28,0.49-0.66,0.49-1.16c0-0.5-0.16-0.88-0.49-1.15
		c-0.33-0.27-0.81-0.41-1.45-0.41h-2.14l0.45-0.5V97.6z M311.96,100.08l-1.77-2.53h1.06l1.79,2.53H311.96z"/>
</g>
<path class="st6" d="M87.67,80.39"/>
<path class="st7" d="M93.51,52.36c-1.62-2.31-3.71-4.21-6.22-5.65c-2.9-1.63-6.4-2.82-10.4-3.54c-4.21-0.75-8.77-1.33-13.5-1.73
	c-8.75-0.94-14.9-2.42-18.25-4.39c-2.28-1.4-2.54-2.78-2.54-3.7c0-1.34,0.82-2.61,2.46-3.85c3.58-2.53,8.94-3.81,15.92-3.81
	c4.72,0,9.8,0.57,15.06,1.67c5,1.17,9.28,2.57,12.71,4.17l2.41,1.13V19.76L90.2,19.3c-3.54-1.71-7.89-3.11-12.95-4.17
	c-10.79-2.04-21.4-1.99-30.48,0.28c-4.71,1.15-8.56,3-11.43,5.51c-4.2,3.64-6.33,8.02-6.33,13.03c0,4.19,1.68,7.89,4.97,10.99
	c2.73,2.67,6.64,4.58,11.61,5.67c4.52,1.1,9.88,1.92,15.92,2.44c8.63,0.83,14.74,2.28,18.15,4.3c2.54,1.56,2.54,3.04,2.54,3.53
	c0,1.33-0.79,2.57-2.37,3.76c-3.52,2.47-9.17,3.72-16.78,3.72c-5.02,0-10.39-0.57-15.97-1.68c-5.1-1-9.53-2.37-13.16-4.07
	l-2.42-1.14v12.8l0.92,0.47c3.57,1.84,8.06,3.26,13.32,4.19c5.29,1.05,10.79,1.58,16.37,1.58c4.82,0,9.29-0.39,13.28-1.15
	c4.28-0.83,7.84-2.05,10.52-3.61c2.86-1.55,5.25-3.72,7.11-6.45c1.9-2.79,2.87-5.8,2.87-8.93c0-2.89-0.78-5.57-2.33-7.96
	L93.51,52.36z"/>
<polygon class="st7" points="243.43,13.43 211.77,58.64 210.28,60.78 210.28,80.09 197.2,80.09 197.2,60.78 195.71,58.64 
	164.05,13.43 180.12,13.43 197.2,37.83 203.74,47.17 210.28,37.83 227.36,13.43 "/>
<path class="st7" d="M274.52,25l-8.04-11.48l-8.05,11.48l-38.35,54.77l-0.22,0.31h16.08l6.89-9.85h47.26l6.89,9.85h16.08L274.52,25z
	 M252.27,56.78l14.2-20.29l14.21,20.29H252.27z"/>
<g>
	<path class="st8" d="M167.18,50.64c-4.5-0.44-10.13-0.75-16.45-0.61l-10.28-14.46V12.68l8.02,11.45L167.18,50.64z"/>
	<path class="st8" d="M187.64,80.09h-16.03l-17.58-25.11c4.83-0.92,9.76-1.57,14.73-1.85c0,0,0,0,0,0L187.64,80.09z"/>
</g>
<path class="st9" d="M127.9,53.79l12.55-17.57V13.65l-8.02,11.29L96.59,75.38l-3.34,4.57c0.03-0.02,0.08-0.05,0.17-0.11
	c1.4-0.91,11.26-7.19,25.56-13.41c9.98-4.35,22.12-8.66,35.05-11.08c4.83-0.9,9.76-1.54,14.73-1.82c0,0,0,0,0,0
	c3.22-0.18,6.45-0.21,9.68-0.07C178.45,53.45,154.65,48.21,127.9,53.79z"/>
<rect x="31.5" y="96.51" width="101.67" height="1.73"/>
<path class="st10" d="M158.47,51.33c-4.22-0.18-8.21-0.15-11.97,0.05c-5.81,0.04-11.1,0.77-15.9,1.96
	c-15.75,3.11-24.42,8.52-24.42,8.52l-9.11,12.74c-2.58,3.16-3.82,5.34-3.82,5.34c49.26-30.36,85.19-26.49,85.19-26.49
	C172.21,52.02,164.61,51.49,158.47,51.33z"/>
</svg>
