<?xml version="1.0" encoding="utf-8"?>
<!-- Generator: Adobe Illustrator 24.0.1, SVG Export Plug-In . SVG Version: 6.00 Build 0)  -->
<svg version="1.1" id="Layer_1" xmlns="http://www.w3.org/2000/svg" xmlns:xlink="http://www.w3.org/1999/xlink" x="0px" y="0px"
	 viewBox="0 0 213.3 70.7" style="enable-background:new 0 0 213.3 70.7;" xml:space="preserve">
<style type="text/css">
	.st0{fill:#582E90;}
	.st1{fill:#FFE500;}
	.st2{fill:#C01E2B;}
	.st3{fill:#D3CCCC;}
	.st4{fill:#FFFFFF;}
	.st5{fill:#84AFBB;}
	.st6{fill:#5B2227;}
	.st7{fill:#00642E;}
	.st8{fill:#B5905C;}
	.st9{fill:#263B96;}
	.st10{fill:#F37920;}
	.st11{fill:#C8DFE5;}
	.st12{fill:#8BCEB2;}
	.st13{fill-rule:evenodd;clip-rule:evenodd;fill:#8BCEB2;}
	.st14{fill:none;stroke:#FFFFFF;stroke-width:0.216;stroke-miterlimit:22.9256;}
	.st15{fill-rule:evenodd;clip-rule:evenodd;fill:#161616;}
</style>
<g>
	<g>
		<rect x="77.3" y="26" class="st0" width="29.1" height="29.1"/>
		<rect x="49" y="26" class="st1" width="29.1" height="29.1"/>
		<rect x="105.9" y="26" class="st2" width="29.1" height="29.1"/>
		<path class="st3" d="M86.2,48.7L86.2,48.7c0.1,0.3,0.2,0.5,0.6,0.5v0.3l0.6-0.6v-0.3c-0.3,0-0.4-0.2-0.6-0.5l2.6-11.8h-0.5
			L86.2,48.7z"/>
		<polygon class="st3" points="92.2,35.3 89.6,35.3 90,33.6 89.5,33.6 89,35.9 92.4,35.9 		"/>
		<path class="st4" d="M98.2,48.1l-3.7-17h-4.8l-0.6,0.6h4.8l3.7,17c0.1,0.3,0.6,0.5,1,0.5v0.3l0.6-0.6v-0.3
			C98.9,48.5,98.4,48.3,98.2,48.1"/>
		<path class="st4" d="M92,33.5C92,33.4,91.9,33.4,92,33.5l-2.5-0.1c-0.1,0-0.1,0-0.1,0.1l-0.5,2.3v0.1H89h3.4h0.1v-0.1L92,33.5z
			 M89,35.9l0.5-2.3h2.4l0.5,2.3H89z"/>
		<path class="st4" d="M97.6,48.7l-3.7-17h-4.8l-3.7,17c-0.1,0.3-0.6,0.5-1,0.5v0.3h2.3v-0.3c-0.3,0-0.4-0.2-0.6-0.5l2.7-12.4h3.5
			L95,48.7c-0.1,0.3-0.2,0.5-0.6,0.5v0.3h4v-0.3C98.2,49.2,97.7,49,97.6,48.7 M98.4,49.3h-3.8l0,0c0.3-0.1,0.4-0.3,0.5-0.5l0,0v-0.1
			l-2.7-12.4c0-0.1-0.1-0.1-0.1-0.1h-3.5c-0.1,0-0.1,0-0.1,0.1L86,48.7v0.1l0,0c0.1,0.2,0.2,0.5,0.5,0.5l0,0h-2.1l0,0
			c0.4,0,0.8-0.3,1-0.6l0,0l3.7-16.9h4.6l3.7,16.9l0,0C97.6,49,98.1,49.2,98.4,49.3L98.4,49.3z"/>
		<path class="st5" d="M97.5,48.7L97.5,48.7l-3.7-17h-4.6l-3.7,16.9l0,0c-0.1,0.3-0.6,0.5-1,0.6l0,0h2.1l0,0
			c-0.3-0.1-0.4-0.3-0.5-0.5l0,0v-0.1l2.7-12.4c0-0.1,0.1-0.1,0.1-0.1h3.5c0.1,0,0.1,0,0.1,0.1l2.7,12.4v0.1l0,0
			c-0.1,0.2-0.2,0.5-0.5,0.5l0,0h3.8l0,0C98.1,49.2,97.6,49,97.5,48.7 M92.5,36L92.5,36H89h-0.1v-0.1l0.5-2.3c0-0.1,0.1-0.1,0.1-0.1
			h2.4c0.1,0,0.1,0,0.1,0.1L92.5,36C92.5,35.9,92.5,35.9,92.5,36z"/>
		<path class="st3" d="M98.2,48.1l-3.7-17l-0.6,0.6l3.7,17c0.1,0.3,0.6,0.5,1,0.5v0.3l0.6-0.6v-0.3C98.9,48.5,98.4,48.3,98.2,48.1"
			/>
		<polygon class="st4" points="89,35.9 89.6,35.3 92.2,35.3 92.4,35.9 		"/>
		<rect x="62.4" y="36.9" class="st2" width="1.8" height="13"/>
		<rect x="56.5" y="36.6" class="st6" width="13.6" height="0.7"/>
		<path class="st2" d="M66,32.8c0-1.5-1.2-2.7-2.7-2.7c-1.5,0-2.7,1.2-2.7,2.7s1.2,2.7,2.7,2.7C64.8,35.5,66,34.3,66,32.8"/>
		<rect x="163.9" y="26" class="st7" width="29.1" height="29.1"/>
		<polygon class="st8" points="127,34.6 116.4,34.6 116.4,36.9 124,36.9 114.8,46.9 116.4,48.5 125.8,48.5 125.8,46.3 118.5,46.3 
			127,36.9 127,36.9 127,36.9 		"/>
		<polygon class="st4" points="126.5,33.6 115.9,33.6 115.9,35.8 123.5,35.8 114.3,45.9 115.9,47.5 125.3,47.5 125.3,45.2 118,45.2 
			126.5,35.9 126.4,35.8 126.5,35.8 		"/>
		<rect x="20.3" y="26" class="st9" width="29.1" height="29.1"/>
		<rect x="134.9" y="26" class="st10" width="29.1" height="29.1"/>
		<polygon class="st11" points="155.5,32.4 146.2,32.4 146.2,35 152,35 141.3,46.8 143.1,48.7 157.6,48.7 157.6,46 145.5,46 
			155.5,35.1 155.4,35 155.5,35 		"/>
		<polygon class="st12" points="180.6,47.7 180.6,47 181.6,47 178.7,35.3 177.4,35.3 174.6,47 175.6,47 175.6,47.7 169.4,47.7 
			169.4,47 170.4,47 174.2,31.4 181.9,31.4 181.9,31.4 182,31.4 185.8,47 186.8,47 186.8,47.7 		"/>
		<rect x="175.1" y="41.4" class="st13" width="6.1" height="0.8"/>
		<line class="st14" x1="176.4" y1="41.9" x2="180.7" y2="41.9"/>
		<path class="st4" d="M182.5,31.7L182.5,31.7h-7.9l-3.9,15.6h-0.9v0.9h6.3v-0.9h-1l2.8-11.5h1.2l2.8,11.5h-1v0.9h6.3v-0.9h-0.9
			L182.5,31.7z M174.8,31.8h7.6l0,0h0.1l3.9,15.6h0.9V48h-6v-0.6h1l-2.9-11.8H178l-3,11.8h1V48h-6v-0.6h0.9L174.8,31.8z"/>
		<rect x="29.9" y="31.8" class="st11" width="3.4" height="17.4"/>
		<rect x="31.4" y="31.8" class="st9" width="0.3" height="17.4"/>
		<path class="st11" d="M33.6,44.3V42c2.2,0,3.9-1.8,3.9-3.9c0-2.2-1.8-3.9-3.9-3.9v-2.3c1.7,0,3.2,0.6,4.4,1.8s1.8,2.7,1.8,4.4
			s-0.6,3.2-1.8,4.4C36.8,43.6,35.3,44.3,33.6,44.3"/>
		<path class="st9" d="M33.6,43.3V43c2.7,0,4.9-2.2,4.9-4.9s-2.2-4.9-4.9-4.9v-0.3c1.4,0,2.7,0.5,3.7,1.5s1.5,2.3,1.5,3.7
			s-0.5,2.7-1.5,3.7C36.3,42.7,35,43.3,33.6,43.3"/>
	</g>
	<g>
		<path class="st4" d="M83.5,18.1c0.8,0.4,2.2,0.8,3.3,0.8c1.8,0,2.7-0.9,2.7-2.2c0-1.4-0.9-2.1-2.6-3.2c-2.7-1.6-3.7-3.7-3.7-5.5
			c0-3.2,2.1-5.8,6.2-5.8c1.3,0,2.6,0.4,3.1,0.7L91.9,6c-0.6-0.4-1.4-0.7-2.5-0.7c-1.6,0-2.4,1-2.4,2.1c0,1.2,0.6,1.8,2.7,3.1
			c2.6,1.6,3.6,3.6,3.6,5.7c0,3.6-2.7,6-6.5,6c-1.6,0-3.1-0.4-3.8-0.8L83.5,18.1z"/>
		<path class="st4" d="M98.7,17.5L97.8,22H94l4.3-19.8h4.6l3.9,19.8h-3.7l-0.9-4.5H98.7z M101.9,14.5l-0.6-4.2
			c-0.2-1.2-0.5-3.2-0.6-4.5h-0.1c-0.2,1.3-0.5,3.4-0.7,4.5L99,14.5H101.9z"/>
		<path class="st4" d="M110.4,22v-7.6L106,2.2h4.1l1.3,4.7c0.4,1.3,0.8,2.7,1.1,4.2h0.1c0.2-1.4,0.6-2.9,0.9-4.3l1.2-4.7h4
			l-4.4,12.1V22H110.4z"/>
		<path class="st4" d="M122.3,17.5l-0.9,4.5h-3.7L122,2.2h4.6l3.9,19.8h-3.7l-0.9-4.5H122.3z M125.5,14.5l-0.6-4.2
			c-0.2-1.2-0.5-3.2-0.6-4.5h-0.1c-0.2,1.3-0.5,3.4-0.7,4.5l-0.7,4.2H125.5z"/>
		<path class="st15" d="M131,0.2c1.4,0,2.5,1.1,2.5,2.5s-1.1,2.5-2.5,2.5s-2.5-1.1-2.5-2.5S129.6,0.2,131,0.2"/>
		<polygon class="st4" points="130.6,2 130.6,1.7 129.3,1.7 129.3,2 129.8,2 129.8,3.6 130.1,3.6 130.1,2 		"/>
		<polygon class="st4" points="132.6,3.6 132.6,1.7 132.3,1.7 131.8,2.7 131.3,1.7 130.9,1.7 130.9,3.6 131.3,3.6 131.3,2.5 
			131.7,3.2 131.9,3.2 132.3,2.5 132.3,3.6 		"/>
	</g>
	<g>
		<path class="st4" d="M53.8,66.9c0-0.5-0.2-0.9-0.5-1.2c-0.3-0.2-0.5-0.3-1.1-0.4l-0.7-0.1c-0.3-0.1-0.6-0.2-0.8-0.3
			c-0.2-0.2-0.3-0.4-0.3-0.7c0-0.7,0.5-1.2,1.3-1.2c0.7,0,1.1,0.2,1.4,0.5l0.4-0.4c-0.5-0.5-1.1-0.7-1.8-0.7c-1.2,0-2,0.7-2,1.8
			c0,0.5,0.2,0.9,0.5,1.2c0.3,0.2,0.7,0.4,1.1,0.5L52,66c0.5,0.1,0.6,0.1,0.8,0.3c0.2,0.2,0.3,0.5,0.3,0.8c0,0.7-0.6,1.2-1.5,1.2
			c-0.7,0-1.2-0.2-1.7-0.7l-0.5,0.5c0.6,0.6,1.2,0.8,2.1,0.8C52.9,68.6,53.8,68,53.8,66.9"/>
		<path class="st4" d="M57.7,66.1h-2.3c0-0.3,0-0.5,0.1-0.7c0.2-0.4,0.5-0.6,1-0.6s0.8,0.3,1,0.6S57.7,65.8,57.7,66.1 M58.3,66.6
			v-0.3c0-1.3-0.7-2.1-1.8-2.1s-1.8,0.8-1.8,2.2c0,1.5,0.7,2.2,1.9,2.2c0.7,0,1.1-0.2,1.6-0.7l-0.4-0.4c-0.3,0.3-0.6,0.5-1.1,0.5
			c-0.8,0-1.3-0.5-1.3-1.5h2.9V66.6z"/>
		<path class="st4" d="M62.8,68l-0.4-0.4c-0.3,0.4-0.6,0.5-1,0.5s-0.8-0.2-1-0.5s-0.3-0.6-0.3-1.2c0-0.5,0.1-0.9,0.3-1.2
			c0.2-0.3,0.6-0.5,1-0.5s0.7,0.1,1,0.5l0.4-0.4c-0.4-0.5-0.8-0.6-1.4-0.6c-1.1,0-1.9,0.7-1.9,2.2s0.8,2.2,1.9,2.2
			C61.9,68.6,62.3,68.5,62.8,68"/>
		<path class="st4" d="M65.6,68.6v-0.5h-0.3c-0.4,0-0.6-0.2-0.6-0.6v-2.6h0.9v-0.5h-0.9V63h-0.6v1.3h-0.5v0.5h0.5v2.6
			c0,0.6,0.4,1.2,1.1,1.2H65.6z"/>
		<path class="st4" d="M69.4,66.4c0,0.5,0,1-0.3,1.3c-0.2,0.2-0.5,0.3-0.8,0.3s-0.6-0.1-0.8-0.3c-0.3-0.3-0.3-0.8-0.3-1.3
			s0-1,0.3-1.3c0.2-0.2,0.5-0.3,0.8-0.3s0.6,0.1,0.8,0.3C69.4,65.4,69.4,66,69.4,66.4 M70.1,66.4c0-0.7-0.1-1.3-0.5-1.7
			c-0.3-0.3-0.7-0.5-1.2-0.5s-0.9,0.2-1.2,0.5c-0.4,0.4-0.5,1-0.5,1.7s0.1,1.3,0.5,1.7c0.3,0.3,0.7,0.5,1.2,0.5s0.9-0.2,1.2-0.5
			C70,67.7,70.1,67.1,70.1,66.4z"/>
		<path class="st4" d="M74.3,64.7c-0.3-0.3-0.6-0.4-1-0.4c-0.5,0-1,0.2-1.2,0.6v-0.5h-0.6v4.3H72V66c0-0.7,0.4-1.2,1-1.2
			c0.3,0,0.5,0.1,0.7,0.3L74.3,64.7z"/>
		<polygon class="st4" points="79.3,68.6 79.3,62.4 78.7,62.4 77.5,63.4 77.5,64.1 78.7,63.1 78.7,68.6 		"/>
		<path class="st4" d="M85,66.9c0-0.8-0.3-1.3-1-1.5c0.6-0.3,0.8-0.7,0.8-1.4c0-1-0.7-1.7-1.7-1.7c-0.9,0-1.7,0.6-1.7,1.6H82
			c0.1-0.6,0.5-1,1.1-1s1.1,0.4,1.1,1.1c0,0.7-0.3,1.1-1.1,1.1H83v0.5h0.1c0.8,0,1.2,0.5,1.2,1.2c0,0.8-0.5,1.2-1.2,1.2
			c-0.6,0-1.1-0.3-1.2-1.1h-0.6c0.1,1.1,0.8,1.6,1.8,1.6C84.2,68.7,85,68,85,66.9"/>
		<polygon class="st4" points="88.4,68.6 88.4,62.4 87.8,62.4 86.7,63.4 86.7,64.1 87.8,63.1 87.8,68.6 		"/>
		<polygon class="st4" points="91.7,69.2 91.7,67.8 90.9,67.8 90.9,69.8 		"/>
		<path class="st4" d="M98.2,66.7v-4.3h-0.7v4.2c0,0.9-0.5,1.4-1.3,1.4c-0.5,0-0.8-0.2-1-0.4L94.8,68c0.4,0.4,0.8,0.6,1.4,0.6
			C97.3,68.6,98.2,67.9,98.2,66.7"/>
		<path class="st4" d="M102.2,67.1c0,0.4-0.1,0.6-0.2,0.7c-0.3,0.3-0.6,0.3-1,0.3c-0.7,0-1-0.2-1-0.7s0.3-0.8,1-0.8h1.2V67.1z
			 M102.8,68.6v-2.9c0-0.9-0.6-1.4-1.7-1.4c-0.7,0-1.1,0.1-1.5,0.6l0.4,0.4c0.3-0.4,0.5-0.5,1.1-0.5c0.8,0,1.1,0.3,1.1,0.9v0.4h-1.3
			c-1,0-1.5,0.5-1.5,1.2c0,0.3,0.1,0.7,0.3,0.9c0.3,0.3,0.6,0.4,1.2,0.4s0.9-0.1,1.2-0.5v0.4L102.8,68.6L102.8,68.6z"/>
		<path class="st4" d="M107.4,64.3h-0.7l-1.2,3.4l-1.2-3.4h-0.7l1.5,4.2l-0.3,0.8c-0.1,0.4-0.3,0.5-0.7,0.5H104v0.6h0.3
			c0.3,0,0.6-0.1,0.8-0.3c0.1-0.1,0.2-0.3,0.3-0.5L107.4,64.3z"/>
		<path class="st4" d="M111,66.4c0,0.8-0.1,1.6-1.1,1.6c-0.9,0-1.1-0.8-1.1-1.6c0-0.8,0.1-1.6,1.1-1.6S111,65.6,111,66.4
			 M111.6,66.4c0-0.7-0.1-1.4-0.5-1.8c-0.2-0.2-0.6-0.4-1-0.4c-0.5,0-0.9,0.1-1.2,0.6v-0.5h-0.6v6.2h0.6v-2.4
			c0.3,0.4,0.7,0.6,1.2,0.6c0.4,0,0.8-0.1,1-0.4C111.6,67.8,111.6,67.1,111.6,66.4z"/>
		<path class="st4" d="M115.6,66.1h-2.3c0-0.3,0-0.5,0.1-0.7c0.2-0.4,0.5-0.6,1-0.6s0.8,0.3,1,0.6C115.6,65.7,115.6,65.8,115.6,66.1
			 M116.3,66.6v-0.3c0-1.3-0.7-2.1-1.8-2.1c-1.1,0-1.8,0.8-1.8,2.2c0,1.5,0.7,2.2,1.9,2.2c0.7,0,1.1-0.2,1.6-0.7l-0.4-0.4
			c-0.3,0.3-0.6,0.5-1.1,0.5c-0.8,0-1.3-0.5-1.3-1.5h2.9V66.6z"/>
		<path class="st4" d="M120.3,66.1H118c0-0.3,0-0.5,0.1-0.7c0.2-0.4,0.5-0.6,1-0.6s0.8,0.3,1,0.6C120.2,65.7,120.3,65.8,120.3,66.1
			 M120.9,66.6v-0.3c0-1.3-0.7-2.1-1.8-2.1c-1.1,0-1.8,0.8-1.8,2.2c0,1.5,0.7,2.2,1.9,2.2c0.7,0,1.1-0.2,1.6-0.7l-0.4-0.4
			c-0.3,0.3-0.6,0.5-1.1,0.5c-0.8,0-1.3-0.5-1.3-1.5h2.9V66.6z"/>
		<polygon class="st4" points="130.9,62.4 130.2,62.4 129,67.4 127.6,62.4 127.1,62.4 125.7,67.4 124.5,62.4 123.8,62.4 125.3,68.6 
			126,68.6 127.3,63.6 128.7,68.6 129.3,68.6 		"/>
		<path class="st4" d="M132.5,63.1v-0.7h-0.7v0.7H132.5z M132.5,68.6v-4.3h-0.6v4.3H132.5z"/>
		<path class="st4" d="M137.2,67.3c0-0.8-0.5-1.1-1.3-1.2l-0.7-0.1c-0.5,0-0.8-0.3-0.8-0.6c0-0.4,0.3-0.7,1-0.7
			c0.4,0,0.8,0.1,1.1,0.3l0.4-0.4c-0.4-0.3-0.9-0.5-1.5-0.5c-0.9,0-1.6,0.5-1.6,1.3c0,0.7,0.4,1.1,1.3,1.2l0.7,0.1
			c0.5,0,0.7,0.3,0.7,0.6c0,0.5-0.4,0.8-1.1,0.8c-0.5,0-1-0.1-1.3-0.5l-0.4,0.4c0.5,0.5,1,0.6,1.8,0.6
			C136.5,68.6,137.2,68.2,137.2,67.3"/>
		<path class="st4" d="M141.8,68.6v-2.8c0-1-0.6-1.6-1.5-1.6c-0.5,0-0.9,0.2-1.2,0.5v-2.4h-0.6v6.2h0.6v-2.7c0-0.7,0.4-1.1,1.1-1.1
			c0.6,0,1,0.4,1,1.1v2.7h0.6V68.6z"/>
		<polygon class="st4" points="149.2,63 149.2,62.4 144.9,62.4 144.9,63 146.7,63 146.7,68.6 147.4,68.6 147.4,63 		"/>
		<path class="st4" d="M152.2,66.4c0,0.5,0,1-0.3,1.3c-0.2,0.2-0.5,0.3-0.8,0.3s-0.6-0.1-0.8-0.3c-0.3-0.3-0.3-0.8-0.3-1.3
			s0-1,0.3-1.3c0.2-0.2,0.5-0.3,0.8-0.3s0.6,0.1,0.8,0.3C152.2,65.4,152.2,66,152.2,66.4 M152.9,66.4c0-0.7-0.1-1.3-0.5-1.7
			c-0.3-0.3-0.7-0.5-1.2-0.5s-0.9,0.2-1.2,0.5c-0.4,0.4-0.5,1-0.5,1.7s0.1,1.3,0.5,1.7c0.3,0.3,0.7,0.5,1.2,0.5s0.9-0.2,1.2-0.5
			C152.8,67.7,152.9,67.1,152.9,66.4z"/>
		<polygon class="st4" points="159.6,64.3 158.9,64.3 157.9,67.7 156.8,64.3 156.3,64.3 155.1,67.7 154.2,64.3 153.5,64.3 
			154.8,68.6 155.4,68.6 156.5,65.3 157.7,68.6 158.2,68.6 		"/>
		<path class="st4" d="M163.9,68.6v-2.7c0-0.5-0.1-0.9-0.4-1.2c-0.3-0.3-0.6-0.4-1.1-0.4s-0.9,0.2-1.2,0.5v-0.5h-0.6v4.3h0.6V66
			c0-0.8,0.4-1.1,1.1-1.1c0.6,0,1.1,0.4,1.1,1.1v2.6H163.9z"/>
	</g>
</g>
</svg>
