<?xml version="1.0" encoding="utf-8"?>
<!-- Generator: Adobe Illustrator 24.0.1, SVG Export Plug-In . SVG Version: 6.00 Build 0)  -->
<svg version="1.1" id="Layer_1" xmlns="http://www.w3.org/2000/svg" xmlns:xlink="http://www.w3.org/1999/xlink" x="0px" y="0px"
	 viewBox="0 0 213.3 70.7" style="enable-background:new 0 0 213.3 70.7;" xml:space="preserve">
<style type="text/css">
	.st0{fill-rule:evenodd;clip-rule:evenodd;fill:#FFFFFF;}
	.st1{fill:#FFFFFF;}
	.st2{fill:#1C1C1C;}
	.st3{fill:none;stroke:#D7B56D;stroke-width:0.74;stroke-miterlimit:22.93;}
	.st4{fill:#D7B56D;}
	.st5{fill-rule:evenodd;clip-rule:evenodd;fill:#D7B56D;}
	.st6{fill:#FFFFFF;stroke:#FFFFFF;stroke-miterlimit:10;}
</style>
<g id="a">
</g>
<g id="b">
	<g id="c">
		<g>
			<path class="st0" d="M204.7,42.3l7.4-11.5h-6.6c-1,0.2-1.7,0.7-2.3,1.7l-2.5,3.8L204.7,42.3z"/>
			<path class="st1" d="M127.6,16.2l1.8-4.8c0.5-1.4,1.2-3.7,1.2-3.7h0c0,0,0.7,2.2,1.2,3.7l1.8,4.8H127.6L127.6,16.2z M136.9,25.3
				h6.4l-9.9-24.8h-5.6l-9.9,24.8h6.4l1.4-3.9h9.8L136.9,25.3L136.9,25.3z M115,0.5l-4.5,6.6c-0.7,1.1-1.2,1.8-1.3,1.8h0
				c0,0-0.6-0.7-1.3-1.8l-4.5-6.6h-6.7l9.5,13.8v11h5.9v-11l9.5-13.8H115L115,0.5z M84.8,16.2l1.8-4.8c0.5-1.4,1.2-3.7,1.2-3.7h0
				c0,0,0.7,2.2,1.2,3.7l1.8,4.8H84.8L84.8,16.2z M94.1,25.3h6.4L90.6,0.5H85l-9.9,24.8h6.4l1.4-3.9h9.8L94.1,25.3z M73.5,6.8
				C72.3,2.9,68.6,0,63.8,0c-5.4,0-9.3,3.5-9.3,7.4c0,4.4,3.4,6,6.4,7.1c3.6,1.4,6.4,1.8,6.4,3.8c0,1.2-1,2.2-3.1,2.2
				c-2.6,0-4.4-1.9-5-3.8l-5.7,1.5c1.6,4.6,5.3,7.5,10.5,7.5c5.8,0,9.7-3.2,9.7-7.8c0-4.3-3.9-6.4-7.6-7.7c-3-1.1-5.5-1.7-5.5-3.3
				c0-1,1-1.9,2.8-1.9s3.7,1,4.3,3.2L73.5,6.8L73.5,6.8z"/>
			<rect class="st2" width="45.6" height="55.5"/>
			<rect x="1.7" y="1.7" class="st3" width="42.1" height="52.2"/>
			<polygon class="st4" points="23,25.8 22.2,25.1 23.2,24.7 			"/>
			<path class="st5" d="M17.8,18.6c0.5,1.8,1.8,4.1,2.8,5.2c3.7-1.6,7.6-2.3,12.3-0.9c-1.1,9.3-7,16-11.8,19.2l1.8,1.2
				c6.9-4.4,13.5-11.9,15.5-23.5C29.2,15.6,21,17.5,17.8,18.6"/>
			<path class="st5" d="M19.6,32.8c1.3-1.4,2.6-3.6,3.1-5c-3.2-2.4-5.8-5.5-6.9-10.2c8.6-3.7,17.3-1.9,22.5,0.6l0.2-2.2
				c-7.2-3.8-17.1-5.7-28.1-1.6C11.3,24.4,17.1,30.5,19.6,32.8"/>
			<path class="st5" d="M30.9,24.1c-1.8-0.5-4.4-0.5-5.9-0.2c-0.5,4-1.9,7.8-5.4,11c-7.5-5.6-10.4-14-10.7-19.8l-1.9,1
				c0.3,8.1,3.6,17.7,12.6,25.1C27.9,35.5,30.3,27.4,30.9,24.1"/>
			<path class="st6" d="M210,70.5h0.6v-7.3h2.7v-0.5h-6v0.5h2.7V70.5z M202.1,70.7c1.5,0,2.6-0.9,2.6-2.1v0c0-1.1-0.8-1.8-2.6-2.2
				c-1.9-0.4-2.3-0.9-2.3-1.7v0c0-0.8,0.8-1.5,1.9-1.5c0.9,0,1.6,0.3,2.3,0.9l0.4-0.5c-0.8-0.6-1.5-1-2.7-1c-1.4,0-2.5,0.9-2.5,2v0
				c0,1.2,0.8,1.8,2.6,2.2c1.8,0.4,2.2,0.8,2.2,1.7v0c0,0.9-0.8,1.6-2,1.6s-1.9-0.4-2.8-1.2l-0.4,0.4
				C199.9,70.2,200.8,70.6,202.1,70.7L202.1,70.7z M190.5,70.5h5.6V70h-5v-3.1h4.5v-0.5h-4.5v-3.1h5v-0.5h-5.6V70.5L190.5,70.5z
				 M179,70.6h0.5l2.3-6.8l2.3,6.8h0.5l2.8-7.9h-0.6l-2.4,6.9l-2.3-7h-0.4l-2.3,7l-2.4-7h-0.6L179,70.6L179,70.6z M161.6,67.8
				l2.1-4.5l2.1,4.5H161.6z M159.8,70.5h0.6l1-2.2h4.6l1,2.2h0.6l-3.6-7.9h-0.6L159.8,70.5L159.8,70.5z M151.3,70v-6.7h2
				c2.2,0,3.6,1.5,3.6,3.4v0c0,1.9-1.4,3.3-3.6,3.3H151.3z M150.7,70.5h2.6c2.4,0,4.1-1.7,4.1-3.9v0c0-2.2-1.7-3.9-4.1-3.9h-2.6
				V70.5L150.7,70.5z M146.3,70.5h0.6v-7.8h-0.6V70.5z M138.9,70.2c-1.9,0-3.3-1.6-3.3-3.5v0c0-1.9,1.4-3.5,3.3-3.5s3.3,1.6,3.3,3.5
				v0C142.2,68.6,140.8,70.1,138.9,70.2z M138.9,70.7c2.4,0,3.9-1.9,3.9-4v0c0-2.1-1.6-4-3.9-4s-3.9,1.9-3.9,4v0
				C134.9,68.8,136.5,70.7,138.9,70.7z M125,70.5h0.6v-6.9l5.5,6.9h0.4v-7.8h-0.6v6.8l-5.4-6.8H125L125,70.5L125,70.5z M110,66.8
				v-3.5h2.7c1.4,0,2.2,0.7,2.2,1.7v0c0,1.1-1,1.8-2.3,1.8C112.7,66.8,110,66.8,110,66.8z M109.5,70.5h0.6v-3.2h2.6l2.5,3.2h0.7
				l-2.6-3.3c1.3-0.2,2.3-0.9,2.3-2.2v0c0-0.6-0.2-1.1-0.6-1.5c-0.5-0.5-1.2-0.8-2.2-0.8h-3.3L109.5,70.5L109.5,70.5z M100.5,70.5
				h5.6V70h-5v-3.1h4.5v-0.5h-4.5v-3.1h5v-0.5h-5.6V70.5L100.5,70.5z M94,70.5h0.6v-7.3h2.7v-0.5h-6v0.5H94C94,63.3,94,70.5,94,70.5
				z M83.7,67.8l2.1-4.5l2.1,4.5H83.7z M81.9,70.5h0.6l1-2.2h4.6l1,2.2h0.6l-3.6-7.9h-0.6L81.9,70.5L81.9,70.5z M73.6,70.5h5.6V70
				h-5v-3.1h4.5v-0.5h-4.5v-3.1h5v-0.5h-5.6V70.5L73.6,70.5z M64.7,66.8v-3.5h2.7c1.4,0,2.2,0.7,2.2,1.7v0c0,1.1-1,1.8-2.3,1.8H64.7
				z M64.1,70.5h0.6v-3.2h2.6l2.5,3.2h0.7l-2.6-3.3c1.3-0.2,2.3-0.9,2.3-2.2v0c0-0.6-0.2-1.1-0.6-1.5c-0.5-0.5-1.2-0.8-2.2-0.8h-3.3
				L64.1,70.5L64.1,70.5z M57.5,70.7c1.3,0,2.4-0.6,3.1-1.2v-3h-3.2V67H60v2.2c-0.6,0.5-1.5,0.9-2.5,0.9c-2.1,0-3.3-1.5-3.3-3.5v0
				c0-1.9,1.3-3.5,3.2-3.5c1.2,0,1.9,0.4,2.5,0.9l0.4-0.4c-0.8-0.7-1.6-1-2.8-1c-2.3,0-3.9,1.9-3.9,4v0C53.5,68.9,55,70.7,57.5,70.7
				L57.5,70.7z"/>
			<g>
				<path class="st6" d="M212.3,55.7h-7.8l-4.3-6.5l-4.1,6.5h-7.8l8.1-12.3L188,31h7.9l15.9,23.8C212,55.1,212.2,55.4,212.3,55.7z"
					/>
				<path class="st6" d="M172.3,30.2v9.6H163v-9.6h-6V55h6v-9.6h9.3V55h6V30.2H172.3z M132.2,30.2v5.6h7.4V55h6V35.8h7.6v-5.6
					L132.2,30.2L132.2,30.2z M122.7,30.2v13.6c0,4.3-1.7,6.1-5,6.1s-5-1.8-5-6.1V30.2h-6V44c0,7.5,4.4,11.5,11,11.5s11-4.1,11-11.5
					V30.2C128.7,30.2,122.7,30.2,122.7,30.2z M82.8,42.6c0-4.2,2.7-7,6.7-7s6.7,2.8,6.7,7s-2.7,7-6.7,7S82.8,46.8,82.8,42.6z
					 M76.6,42.6c0,7.5,5.7,12.9,12.9,12.9s12.9-5.4,12.9-12.9s-5.8-12.9-12.9-12.9S76.6,35.1,76.6,42.6z M73.5,36.5
					c-1.2-3.9-4.9-6.8-9.7-6.8c-5.4,0-9.3,3.5-9.3,7.4c0,4.4,3.4,6,6.4,7.1c3.6,1.3,6.4,1.8,6.4,3.8c0,1.2-1,2.2-3.1,2.2
					c-2.6,0-4.4-1.9-5-3.8L53.5,48c1.6,4.6,5.3,7.5,10.5,7.5c5.8,0,9.7-3.2,9.7-7.8c0-4.3-3.9-6.3-7.6-7.7c-3-1.1-5.5-1.7-5.5-3.3
					c0-1,1-1.9,2.8-1.9s3.7,1,4.3,3.2L73.5,36.5L73.5,36.5z"/>
			</g>
		</g>
	</g>
</g>
</svg>
