<svg id="Layer_1" data-name="Layer 1" xmlns="http://www.w3.org/2000/svg" viewBox="0 0 150 150"><defs><style>.cls-1,.cls-5{fill:none;}.cls-1,.cls-2,.cls-4{stroke:#595959;}.cls-1,.cls-2,.cls-3,.cls-4,.cls-5{stroke-linecap:round;stroke-linejoin:round;stroke-width:2px;}.cls-2{fill:#fff;}.cls-3{fill:#d8ab5b;stroke:#d8ab5b;}.cls-4{fill:#595959;}.cls-5{stroke:#fff;}</style></defs><line class="cls-1" x1="34.53" y1="115.13" x2="43.13" y2="118.82"/><line class="cls-1" x1="72.18" y1="86.14" x2="44.02" y2="86.14"/><path class="cls-1" d="M77.15,133.59,81,136a3.87,3.87,0,0,0,5.72-5.09s0-.05,0,0l1.32,1.1a4.59,4.59,0,0,0,6.44-.58h0a4.6,4.6,0,0,0,.08-5.76,0,0,0,0,1,0,0l2,1.64a4.58,4.58,0,0,0,6.44-.58h0a4.57,4.57,0,0,0,.32-5.43,4.58,4.58,0,0,0,6.12-.82h0a4,4,0,0,0,0-5.35"/><line class="cls-1" x1="103.39" y1="121.2" x2="91.55" y2="110.48"/><line class="cls-1" x1="94.88" y1="125.86" x2="83.05" y2="115.13"/><line class="cls-1" x1="87.15" y1="131.08" x2="78.93" y2="124.65"/><polyline class="cls-2" points="14.34 74.85 48.46 81.66 35.59 127.33 20.52 124.67"/><path class="cls-1" d="M46.18,123.51h0a4.22,4.22,0,0,1-2.87-5.21l2.2-7.56a4.21,4.21,0,0,1,5.21-2.87h0a4.22,4.22,0,0,1,2.87,5.21l-1.4,4.8-.8,2.76A4.21,4.21,0,0,1,46.18,123.51Z"/><path class="cls-1" d="M54.52,128h0a4.21,4.21,0,0,1-2.87-5.21l2.19-7.56a4.22,4.22,0,0,1,5.21-2.87h0a4.22,4.22,0,0,1,2.87,5.21l-2.19,7.56A4.22,4.22,0,0,1,54.52,128Z"/><path class="cls-1" d="M62.94,132.22h0A4.22,4.22,0,0,1,60.07,127l2.2-7.56a4.22,4.22,0,0,1,5.21-2.87h0a4.22,4.22,0,0,1,2.87,5.21l-2.2,7.56A4.2,4.2,0,0,1,62.94,132.22Z"/><path class="cls-1" d="M71.47,136.48h0a4.21,4.21,0,0,1-2.87-5.21l2.19-7.56A4.22,4.22,0,0,1,76,120.84h0a4.23,4.23,0,0,1,2.87,5.21l-2.19,7.56A4.21,4.21,0,0,1,71.47,136.48Z"/><path class="cls-1" d="M116.11,115.69H110.3L85.93,94.56a1.55,1.55,0,0,0-1-.37H81.74a1.53,1.53,0,0,0-1.33.76L75,104.28A4.66,4.66,0,0,1,68.73,106l-3.68-2a1.06,1.06,0,0,1-.46-1.36l7.46-16.34s2.08-5.87,9.09-4.45,28.33,5.9,28.33,5.9"/><polyline class="cls-2" points="135.66 75.85 106.53 81.66 119.39 127.33 135.05 123.89"/><polyline class="cls-1" points="121.52 78.32 121.52 37.01 121.52 35.54 121.18 35.2 121.18 35.2 99.12 13.14 98.21 13.14 28.48 13.14 28.48 77.67"/><path class="cls-3" d="M94.52,50.41c0,1-1.74,1.84-1.89,2.8s1.24,2.32.94,3.24-2.23,1.2-2.67,2.07.47,2.58-.1,3.37-2.49.45-3.18,1.14-.35,2.6-1.14,3.18-2.5-.34-3.38.11S82,68.68,81,69s-2.26-1.1-3.24-.95S76,69.94,75,69.94s-1.84-1.75-2.79-1.9S69.89,69.29,69,69s-1.2-2.23-2.06-2.67-2.59.46-3.38-.11-.45-2.49-1.14-3.18-2.6-.35-3.18-1.14.34-2.5-.1-3.38-2.37-1.12-2.67-2.06,1.1-2.27.94-3.24-1.89-1.8-1.89-2.8,1.74-1.84,1.89-2.79-1.24-2.32-.94-3.24,2.23-1.2,2.67-2.07-.47-2.59.1-3.37,2.49-.45,3.18-1.14.35-2.61,1.14-3.18,2.5.34,3.38-.11S68,32.14,69,31.84s2.26,1.1,3.24.95,1.8-1.9,2.79-1.9,1.84,1.75,2.79,1.9,2.32-1.25,3.25-.95,1.2,2.23,2.06,2.67,2.59-.47,3.38.11.45,2.49,1.14,3.18,2.6.34,3.18,1.14-.34,2.5.1,3.37,2.37,1.13,2.67,2.07-1.1,2.26-.94,3.24S94.52,49.42,94.52,50.41Z"/><polygon class="cls-4" points="121.14 35.6 98.78 35.6 98.78 13.14 121.14 35.6"/><path class="cls-5" d="M74.75,43.11a3.48,3.48,0,0,1,.37.75,7.52,7.52,0,0,1-.35,6.42,7.31,7.31,0,0,1-4.85,3.83l7.56,8.09"/><line class="cls-5" x1="67.64" y1="43.11" x2="82.36" y2="43.11"/><line class="cls-5" x1="67.64" y1="47.41" x2="82.36" y2="47.41"/></svg>