<?xml version="1.0" encoding="iso-8859-1"?>
<!-- Generator: Adobe Illustrator 19.0.0, SVG Export Plug-In . SVG Version: 6.00 Build 0)  -->
<svg xmlns="http://www.w3.org/2000/svg" xmlns:xlink="http://www.w3.org/1999/xlink" version="1.1" id="Layer_1" x="0px" y="0px" viewBox="0 0 512 512" style="enable-background:new 0 0 512 512;" xml:space="preserve" width="512" height="512">
<g>
	<path d="M448.004,481.755V0.245H177.989v107.551H63.996v373.958H0v30h63.996h143.993H512v-30H448.004z M150.993,429.434h-30v-42.71   h30V429.434z M150.993,356.722h-30v-42.711h30V356.722z M150.993,284.009h-30v-42.71h30V284.009z M150.993,211.296h-30v-42.711h30   V211.296z M267.993,445.256h-30v-52h30V445.256z M267.993,363.254h-30v-52h30V363.254z M267.993,281.252h-30v-52h30V281.252z    M267.993,199.25h-30v-52h30V199.25z M267.993,117.249h-30v-52h30V117.249z M327.996,496.755h-30V393.256h30V496.755z    M327.996,363.254h-30v-52h30V363.254z M327.996,281.252h-30v-52h30V281.252z M327.996,199.25h-30v-52h30V199.25z M327.996,117.249   h-30v-52h30V117.249z M388,445.256h-30v-52h30V445.256z M388,363.254h-30v-52h30V363.254z M388,281.252h-30v-52h30V281.252z    M388,199.25h-30v-52h30V199.25z M388,117.249h-30v-52h30V117.249z"/>
</g>















</svg>
