<?xml version="1.0" encoding="utf-8"?>
<!-- Generator: Adobe Illustrator 18.0.0, SVG Export Plug-In . SVG Version: 6.00 Build 0)  -->
<!DOCTYPE svg PUBLIC "-//W3C//DTD SVG 1.1//EN" "http://www.w3.org/Graphics/SVG/1.1/DTD/svg11.dtd">
<svg version="1.1" id="Layer_1" xmlns="http://www.w3.org/2000/svg" xmlns:xlink="http://www.w3.org/1999/xlink" x="0px" y="0px"
	 viewBox="0 0 512 512" enable-background="new 0 0 512 512" xml:space="preserve">
<g>
	<path fill="#59b200" d="M9.6,257.1c-5.3,0-9.6,4.3-9.6,9.5l0,210.8c0,5.3,4.3,9.6,9.6,9.6h15.2c31,0,56.1-25.1,56.1-56.1v-18.2h83.2
		c50.1-0.1,95.6-29.3,116.5-74.8l15.6-34.2c13.3-5.3,24.1-15.6,30-28.6l3.7-8l57,26.1c0,0,0,0,0,0c4.8,2.2,10.5,0.1,12.7-4.7
		l3.3-7.2c31.8,8.5,64.6-10.8,78.8-41.9c8.1-17.2,9.5-36.7,3.8-54.8l22.2-14.2c1.6-1,2.8-2.4,3.5-4.1c2.2-4.8,0.1-10.5-4.7-12.7
		L242.8,33l0,0c-44.4-20.3-96.8-0.8-117.1,43.6c-20.3,44.4-0.8,96.8,43.6,117.1l58.5,26.7l-3.7,8c-5.9,13-6.7,27.8-2,41.4
		l-17.8,38.9c-6.3,13.7-20,22.6-35.2,22.6H80.9v-18.2c0-31-25.1-56-56.1-56.1H9.6L9.6,257.1z M464.2,231.4
		c-9.6,21-31.1,36-53.2,32.1l20.2-44.1l37.3-24C471,207.6,469.4,220.2,464.2,231.4L464.2,231.4z M386.1,271.8L244.4,207l-67.2-30.7
		c-34.2-16-49.3-56.5-33.9-91c15.6-34.9,56.6-50.5,91.5-34.9l247.6,113.3l-64,41.1c-1.5,1-2.8,2.4-3.5,4.1L386.1,271.8z
		 M308.7,267.2c-8.6,18.2-30.1,26.2-48.5,18.1c-18.7-8.3-27.1-30.1-18.8-48.8l3.7-8l67.2,30.7L308.7,267.2L308.7,267.2z M80.9,393.6
		v-43.1h88.3c22.6,0,43.2-13.2,52.6-33.8l12.3-26.8c10.1,11,24.3,17.5,39.2,17.9L263.1,330c-17.8,38.7-56.5,63.6-99.1,63.6
		L80.9,393.6z M19.2,276.2h5.6c20.4,0,36.9,16.5,36.9,36.9v117.8c0,20.4-16.5,36.9-36.9,36.9h-5.6V276.2z"/>
	<path fill="#59b200" d="M289.6,109.8C289.6,109.8,289.6,109.8,289.6,109.8c-2.2,4.8-0.1,10.5,4.7,12.7l94,43c4.8,2.2,10.5,0.1,12.7-4.7
		c2.2-4.8,0.1-10.5-4.7-12.7l-94-43C297.5,102.9,291.8,105,289.6,109.8L289.6,109.8z"/>
</g>
</svg>
