<?xml version="1.0" encoding="utf-8"?>
<!-- Generator: Adobe Illustrator 18.0.0, SVG Export Plug-In . SVG Version: 6.00 Build 0)  -->
<!DOCTYPE svg PUBLIC "-//W3C//DTD SVG 1.1//EN" "http://www.w3.org/Graphics/SVG/1.1/DTD/svg11.dtd">
<svg version="1.1" id="Capa_1" xmlns="http://www.w3.org/2000/svg" xmlns:xlink="http://www.w3.org/1999/xlink" x="0px" y="0px"
	 viewBox="0 0 512 512" enable-background="new 0 0 512 512" xml:space="preserve">
<g>
	<path fill="#B27419" d="M457.2,334.5l-30-8.8L361.8,283v-9.8c18.9-14.3,31.9-36.1,34.3-61.1c9.5-1.5,16.8-9.8,16.8-19.7v-26.9
		c0-0.1,0-0.2,0-0.3v-34.1c3.8-2.7,6.2-7.1,6.2-12.1V87.8l45.1-7.7c7.4-1.3,12.7-7.2,13.3-14.7c0.5-7.5-3.9-14.1-11.1-16.4
		L314.2,0.8c-3.2-1-6.5-1-9.7,0L152.4,49.1c-7.2,2.3-11.6,8.9-11.1,16.4c0.3,4.8,2.6,8.9,6.1,11.6v40.8h-0.4
		c-8.6,0-15.5,7-15.5,15.5v20.2l-10,58.9c-1.7,10.2,6.1,19.5,16.5,19.5h33.9c10.3,0,18.2-9.3,16.5-19.5l-10-58.9v-20.2
		c0-8.6-7-15.5-15.5-15.5h-0.4V81.5l37.3,6.4V119c0,4.9,2.4,9.3,6.2,12l0,34.4v26.9c0,9.9,7.3,18.2,16.8,19.7
		c2.4,25,15.4,46.8,34.3,61.1v9.8l-65.4,42.7l-30,8.8c-32.1,9.4-54.8,38.9-54.8,73.2v22.4c0,4.1,3.4,7.5,7.5,7.5
		c4.1,0,7.5-3.4,7.5-7.5v-22.4c0-27,18.1-51.2,44-58.8l28-8.2l111.8,66.4c2.3,1.3,5.3,1.4,7.7,0L425,340.7l28,8.2
		c25.9,7.6,44,31.8,44,58.8v72.4c0,9.3-7.6,16.9-16.9,16.9h-33.1v-32.3c0-4.1-3.4-7.5-7.5-7.5c-4.1,0-7.5,3.4-7.5,7.5V497H186.6
		v-32.3c0-4.1-3.4-7.5-7.5-7.5s-7.5,3.4-7.5,7.5V497h-33c-9.3,0-16.8-7.6-16.8-16.9v-15c0-4.1-3.4-7.5-7.5-7.5s-7.5,3.4-7.5,7.5v15
		c0,17.6,14.3,31.8,31.8,31.8h341.5c17.6,0,31.8-14.3,31.8-31.8v-72.4C512,374.2,490.1,344.2,457.2,334.5L457.2,334.5z M171.9,217
		H138c-1,0-1.8-0.9-1.7-2l9.1-53.2h19.2l9.1,53.2C173.8,216,173,217,171.9,217z M163.3,133.4v13.4h-16.8v-13.4
		c0-0.3,0.2-0.5,0.5-0.5h15.7C163.1,132.8,163.3,133.1,163.3,133.4z M282.6,373.2l3,4.6L209,332.3l48.6-31.7
		C259.8,326.4,268.3,351.3,282.6,373.2z M282.5,340.8c17.7,2.5,36.1,2.5,53.7,0c-3.4,8.4-7.6,16.5-12.6,24.2l-14.3,21.9L295.1,365
		C290.1,357.3,285.9,349.2,282.5,340.8L282.5,340.8z M336.2,373.2c14.3-21.9,22.8-46.8,25-72.7l48.6,31.7l-76.6,45.5L336.2,373.2z
		 M380.1,133.9h17.8V158H389c-4.9,0-9-4-9-9L380.1,133.9L380.1,133.9z M157,63.4L309.1,15c0.2-0.1,0.4-0.1,0.6,0l152.1,48.4
		c0.3,0.1,0.7,0.2,0.7,1c-0.1,0.8-0.5,0.9-0.8,0.9l-50.3,8.6l-18.9-2.3c-4.1-0.5-7.9,2.4-8.4,6.5c-0.5,4.1,2.4,7.9,6.5,8.4l13.4,1.7
		v30.7l-189.3,0V88.1l77.6-9.6c11.3-1.4,22.8-1.4,34.1,0l29.4,3.6c4.1,0.5,7.9-2.4,8.4-6.5c0.5-4.1-2.4-7.9-6.5-8.4l-29.4-3.6
		c-12.5-1.5-25.2-1.5-37.7,0l-83.1,10.3l-50.3-8.6c-0.3-0.1-0.8-0.1-0.8-0.9C156.2,63.7,156.7,63.5,157,63.4L157,63.4z M220.9,158
		l0-24.1h17.8V149c0,4.9-4,9-9,9L220.9,158L220.9,158z M237.4,208.2c-0.4-6.1-5.5-10.9-11.6-10.9c-2.7,0-4.9-2.2-4.9-4.9V173h8.8
		c13.2,0,24-10.7,24-24v-15.1h111.4V149c0,13.2,10.7,24,24,24h8.8v19.4c0,2.7-2.2,4.9-4.9,4.9c-6.1,0-11.2,4.8-11.6,10.9
		c-2.4,37.9-34,67.5-72,67.5S239.8,246.1,237.4,208.2L237.4,208.2z M309.4,290.8c13.3,0,26-3,37.4-8.5v4.8c0,12.8-1.7,25.5-5.1,37.7
		c-20.4,3.9-43.4,4-64.6,0c-3.3-12.2-5.1-24.8-5.1-37.7c0-0.2,0-0.3,0-0.5c0,0,0-0.1,0-0.1v-4.2C283.3,287.7,296,290.8,309.4,290.8
		L309.4,290.8z"/>
</g>
</svg>
