<svg id="Layer_1" data-name="Layer 1" xmlns="http://www.w3.org/2000/svg" viewBox="0 0 150 150"><defs><style>.cls-1,.cls-4{fill:none;}.cls-1{stroke:#595959;}.cls-1,.cls-2,.cls-3,.cls-4{stroke-linecap:round;stroke-width:2px;}.cls-1,.cls-2,.cls-3{stroke-linejoin:round;}.cls-2{fill:#d8ab5b;stroke:#d8ab5b;}.cls-3{fill:#fff;}.cls-3,.cls-4{stroke:#fff;}.cls-4{stroke-miterlimit:10;}</style></defs><polygon class="cls-1" points="121.36 62.37 121.36 109.2 28.64 109.2 28.64 52.86 50.85 52.86 121.36 52.86 121.36 62.37"/><path class="cls-1" d="M146.51,122v-4.09H86.29c-.57,2-2.35,1.92-4.49,1.92H68.2c-2.14,0-3.92,0-4.49-1.92H3.49V122s4.95,3.69,8.58,3.69H137.93C141.56,125.64,146.51,122,146.51,122Z"/><path class="cls-1" d="M130.09,117.86V48.32a3.76,3.76,0,0,0-3.76-3.75H23.67a3.76,3.76,0,0,0-3.76,3.75v69.54"/><polygon class="cls-2" points="102.64 33.75 102.64 94.97 47.35 94.97 47.35 24.36 94.67 24.36 102.64 33.75"/><polygon class="cls-3" points="102.13 34.82 93.55 24.8 93 34.29 102.13 34.82"/><line class="cls-4" x1="56.8" y1="42.05" x2="93.2" y2="42.05"/><line class="cls-4" x1="56.8" y1="50.6" x2="93.2" y2="50.6"/><line class="cls-4" x1="56.8" y1="59.15" x2="93.2" y2="59.15"/><line class="cls-4" x1="56.8" y1="67.7" x2="75" y2="67.7"/><line class="cls-4" x1="56.8" y1="75.04" x2="81.47" y2="75.04"/><line class="cls-4" x1="56.8" y1="82.39" x2="81.47" y2="82.39"/><line class="cls-4" x1="79.73" y1="67.7" x2="90.13" y2="67.7"/></svg>