<svg id="Layer_1" data-name="Layer 1" xmlns="http://www.w3.org/2000/svg" viewBox="0 0 150 150"><defs><style>.cls-1,.cls-4{fill:none;}.cls-1{stroke:#595959;}.cls-1,.cls-2,.cls-3,.cls-4{stroke-linecap:round;stroke-linejoin:round;stroke-width:2px;}.cls-2{fill:#d8ab5b;stroke:#d8ab5b;}.cls-3{fill:#fff;}.cls-3,.cls-4{stroke:#fff;}</style></defs><line class="cls-1" x1="32.49" y1="82.2" x2="17.74" y2="70.5"/><line class="cls-1" x1="132.21" y1="71.24" x2="118.21" y2="82.31"/><line class="cls-1" x1="54.55" y1="99.61" x2="17.96" y2="132.32"/><line class="cls-1" x1="96.36" y1="99.94" x2="132.62" y2="132.32"/><polyline class="cls-1" points="118.21 55.18 132.73 55.18 132.73 132.81 17.27 132.81 17.27 55.18 32.49 55.18"/><path class="cls-2" d="M118.21,17.18V82.31L78.56,113.64a5.24,5.24,0,0,1-6.41,0L32.49,82.2V32.87L50.88,17.18Z"/><polygon class="cls-3" points="33.74 34.43 52.25 34.43 52.25 18.75 33.74 34.43"/><line class="cls-4" x1="47.17" y1="42.39" x2="103.53" y2="42.39"/><line class="cls-4" x1="47.17" y1="53.45" x2="103.53" y2="53.45"/><line class="cls-4" x1="47.17" y1="64.52" x2="103.53" y2="64.52"/><line class="cls-4" x1="47.17" y1="75.59" x2="84.41" y2="75.59"/></svg>