<?xml version="1.0" encoding="UTF-8" standalone="no"?>
<!-- Created with Inkscape (http://www.inkscape.org/) -->

<svg
   version="1.1"
   id="svg3132"
   xml:space="preserve"
   width="682.66669"
   height="682.66669"
   viewBox="0 0 682.66669 682.66669"
   xmlns="http://www.w3.org/2000/svg"
   xmlns:svg="http://www.w3.org/2000/svg"><defs
     id="defs3136"><clipPath
       clipPathUnits="userSpaceOnUse"
       id="clipPath3146"><path
         d="M 0,512 H 512 V 0 H 0 Z"
         id="path3144" /></clipPath></defs><g
     id="g3138"
     transform="matrix(1.3333333,0,0,-1.3333333,0,682.66667)"><g
       id="g3140"><g
         id="g3142"
         clip-path="url(#clipPath3146)"><g
           id="g3148"
           transform="translate(198.9375,241.2754)"><path
             d="m 0,0 c 0,-12.98 -10.522,-23.503 -23.502,-23.503 -12.981,0 -23.503,10.523 -23.503,23.503 0,12.979 10.522,23.502 23.503,23.502 C -10.522,23.502 0,12.979 0,0 Z"
             style="fill:none;stroke:#000000;stroke-width:15;stroke-linecap:round;stroke-linejoin:round;stroke-miterlimit:10;stroke-dasharray:none;stroke-opacity:1"
             id="path3150" /></g><g
           id="g3152"
           transform="translate(313.0625,241.2754)"><path
             d="m 0,0 c 0,-12.98 10.522,-23.503 23.502,-23.503 12.981,0 23.503,10.523 23.503,23.503 0,12.979 -10.522,23.502 -23.503,23.502 C 10.522,23.502 0,12.979 0,0 Z"
             style="fill:none;stroke:#000000;stroke-width:15;stroke-linecap:round;stroke-linejoin:round;stroke-miterlimit:10;stroke-dasharray:none;stroke-opacity:1"
             id="path3154" /></g><g
           id="g3156"
           transform="translate(393.6294,129.3887)"><path
             d="m 0,0 6.904,-20.558 c 9.801,-29.182 42.279,-43.947 70.711,-32.146 22.838,9.479 36.113,33.466 32.018,57.851 L 75.821,206.5 75.799,206.482 c -5.666,41.825 -41.491,74.071 -84.87,74.071 -24.485,0 -46.552,-10.287 -62.159,-26.761 h -132.798 c -15.608,16.474 -37.675,26.761 -62.16,26.761 -43.378,0 -79.203,-32.246 -84.87,-74.071 l -0.022,0.018 -10.889,-64.844"
             style="fill:none;stroke:#000000;stroke-width:15;stroke-linecap:round;stroke-linejoin:round;stroke-miterlimit:10;stroke-dasharray:none;stroke-opacity:1"
             id="path3158" /></g><g
           id="g3160"
           transform="translate(26.688,241.4326)"><path
             d="m 0,0 -17.951,-106.896 c -4.094,-24.386 9.18,-48.373 32.019,-57.852 28.432,-11.801 60.91,2.964 70.71,32.146 l 29.791,88.705 c 9.062,-6.606 20.217,-10.513 32.289,-10.513 15.542,0 29.565,6.47 39.551,16.85 h 85.806 c 9.986,-10.38 24.009,-16.85 39.551,-16.85 12.072,0 23.227,3.907 32.289,10.513 l 13.329,-39.691"
             style="fill:none;stroke:#000000;stroke-width:15;stroke-linecap:round;stroke-linejoin:round;stroke-miterlimit:10;stroke-dasharray:none;stroke-opacity:1"
             id="path3162" /></g><g
           id="g3164"
           transform="translate(153.1543,338.2217)"><path
             d="m 0,0 h -9.198 v 9.198 c 0,8.788 -7.124,15.912 -15.912,15.912 -8.788,0 -15.913,-7.124 -15.913,-15.912 V 0 h -9.198 c -8.788,0 -15.912,-7.124 -15.912,-15.912 0,-8.788 7.124,-15.912 15.912,-15.912 h 9.198 v -9.198 c 0,-8.789 7.125,-15.913 15.913,-15.913 8.788,0 15.912,7.124 15.912,15.913 v 9.198 H 0 c 8.788,0 15.912,7.124 15.912,15.912 C 15.912,-7.124 8.788,0 0,0 Z"
             style="fill:none;stroke:#000000;stroke-width:15;stroke-linecap:round;stroke-linejoin:round;stroke-miterlimit:10;stroke-dasharray:none;stroke-opacity:1"
             id="path3166" /></g><g
           id="g3168"
           transform="translate(389.0928,373.5742)"><path
             d="m 0,0 v 0 c -7.921,0 -14.402,-6.481 -14.402,-14.402 0,-7.921 6.481,-14.403 14.402,-14.403 7.921,0 14.402,6.482 14.402,14.403 C 14.402,-6.481 7.921,0 0,0 Z"
             style="fill:none;stroke:#000000;stroke-width:15;stroke-linecap:round;stroke-linejoin:round;stroke-miterlimit:10;stroke-dasharray:none;stroke-opacity:1"
             id="path3170" /></g><g
           id="g3172"
           transform="translate(389.0928,299.8486)"><path
             d="m 0,0 v 0 c -7.921,0 -14.402,-6.48 -14.402,-14.401 v -10e-4 c 0,-7.921 6.481,-14.402 14.402,-14.402 7.921,0 14.402,6.481 14.402,14.402 v 10e-4 C 14.402,-6.48 7.921,0 0,0 Z"
             style="fill:none;stroke:#000000;stroke-width:15;stroke-linecap:round;stroke-linejoin:round;stroke-miterlimit:10;stroke-dasharray:none;stroke-opacity:1"
             id="path3174" /></g><g
           id="g3176"
           transform="translate(440.3579,322.3096)"><path
             d="m 0,0 v 0 c 0,7.921 -6.481,14.402 -14.402,14.402 -7.922,0 -14.402,-6.481 -14.402,-14.402 0,-7.921 6.48,-14.402 14.402,-14.402 C -6.481,-14.402 0,-7.921 0,0 Z"
             style="fill:none;stroke:#000000;stroke-width:15;stroke-linecap:round;stroke-linejoin:round;stroke-miterlimit:10;stroke-dasharray:none;stroke-opacity:1"
             id="path3178" /></g><g
           id="g3180"
           transform="translate(366.6323,322.3096)"><path
             d="m 0,0 v 0 c 0,7.921 -6.481,14.402 -14.402,14.402 -7.921,0 -14.402,-6.481 -14.402,-14.402 0,-7.921 6.481,-14.402 14.402,-14.402 C -6.481,-14.402 0,-7.921 0,0 Z"
             style="fill:none;stroke:#000000;stroke-width:15;stroke-linecap:round;stroke-linejoin:round;stroke-miterlimit:10;stroke-dasharray:none;stroke-opacity:1"
             id="path3182" /></g><g
           id="g3184"
           transform="translate(241,349.8428)"><path
             d="m 0,0 h -31.399 c -11.046,0 -20,8.954 -20,20 v 13.338"
             style="fill:none;stroke:#000000;stroke-width:15;stroke-linecap:round;stroke-linejoin:round;stroke-miterlimit:10;stroke-dasharray:none;stroke-opacity:1"
             id="path3186" /></g><g
           id="g3188"
           transform="translate(322.3989,383.1807)"><path
             d="m 0,0 v -13.338 c 0,-11.046 -8.954,-20 -20,-20 h -31.399"
             style="fill:none;stroke:#000000;stroke-width:15;stroke-linecap:round;stroke-linejoin:round;stroke-miterlimit:10;stroke-dasharray:none;stroke-opacity:1"
             id="path3190" /></g><g
           id="g3192"
           transform="translate(211.4058,300.7666)"><path
             d="M 0,0 H 22.449"
             style="fill:none;stroke:#000000;stroke-width:15;stroke-linecap:round;stroke-linejoin:round;stroke-miterlimit:10;stroke-dasharray:none;stroke-opacity:1"
             id="path3194" /></g><g
           id="g3196"
           transform="translate(278.1455,300.7666)"><path
             d="M 0,0 H 22.449"
             style="fill:none;stroke:#000000;stroke-width:15;stroke-linecap:round;stroke-linejoin:round;stroke-miterlimit:10;stroke-dasharray:none;stroke-opacity:1"
             id="path3198" /></g><g
           id="g3200"
           transform="translate(412.2373,405.3584)"><path
             d="m 0,0 v 19.033 c 0,8.284 -6.716,15 -15,15 h -28.283 c -8.284,0 -15,-6.716 -15,-15 V -1.058"
             style="fill:none;stroke:#000000;stroke-width:15;stroke-linecap:round;stroke-linejoin:round;stroke-miterlimit:10;stroke-dasharray:none;stroke-opacity:1"
             id="path3202" /></g><g
           id="g3204"
           transform="translate(158.0459,404.3008)"><path
             d="m 0,0 v 20.091 c 0,8.284 -6.716,15 -15,15 h -28.283 c -8.284,0 -15,-6.716 -15,-15 V 1.058"
             style="fill:none;stroke:#000000;stroke-width:15;stroke-linecap:round;stroke-linejoin:round;stroke-miterlimit:10;stroke-dasharray:none;stroke-opacity:1"
             id="path3206" /></g></g></g></g></svg>
