<svg id="Layer_1" data-name="Layer 1" xmlns="http://www.w3.org/2000/svg" viewBox="0 0 150 150"><defs><style>.cls-1{fill:#d8ab5b;stroke:#d8ab5b;}.cls-1,.cls-2,.cls-3{stroke-linecap:round;stroke-linejoin:round;}.cls-2,.cls-3{fill:none;}.cls-2{stroke:#595959;stroke-width:2px;}.cls-3{stroke:#fff;}</style></defs><path class="cls-1" d="M92.8,70.57c0-4.35,0-8.71,0-13.07,0-3.83-1.82-5.85-5.23-5.85h-26c-3.18,0-5.08,2.09-5.11,5.67,0,4.44,0,8.87,0,13.31"/><path class="cls-1" d="M74.61,41.38a8.18,8.18,0,1,0-8.19-8.19A8.2,8.2,0,0,0,74.61,41.38Z"/><path class="cls-2" d="M148.63,42.94c0,1.12,0,2.24,0,3.35V92a9.4,9.4,0,0,1-9.54,9.49c-7,0-14,0-21,0"/><line class="cls-2" x1="121.43" y1="101.54" x2="121.43" y2="107.86"/><line class="cls-2" x1="139.63" y1="101.54" x2="139.63" y2="107.86"/><path class="cls-2" d="M1.37,42.94c0,1.12,0,2.24,0,3.35V92a9.4,9.4,0,0,0,9.54,9.49c7,0,14,0,21,0"/><line class="cls-2" x1="28.57" y1="101.54" x2="28.57" y2="107.86"/><line class="cls-2" x1="10.37" y1="101.54" x2="10.37" y2="107.86"/><path class="cls-2" d="M100.32,101.7l1.16-3.48c.91-2.7,1.86-5.39,2.7-8.11a8.13,8.13,0,0,1,7.63-5.72h11.31c1,0,1,0,1-1,0-5.7,0-13.36,0-19.14"/><path class="cls-2" d="M127.94,60.43c-2.48,2.48-5,4.95-7.39,7.49a8,8,0,0,1-5.86,2.88c-3.31,0-6.61,0-9.92,0a3.32,3.32,0,0,1-3-4.53,3.27,3.27,0,0,1,3.2-2.21c2.24,0,4.47,0,6.71,0a1.8,1.8,0,0,0,1.13-.47c3.46-3.57,6.88-7.17,10.3-10.77a6,6,0,0,0,1.56-1.89c.61-1.87,3.61-4.29,5.66-4.26,2.47,0,4.94,0,7.4,0a5.27,5.27,0,0,1,3.15,1.13,7.15,7.15,0,0,1,3,6c0,3.14,0,6.28,0,9.42q0,12.25,0,24.51A9.73,9.73,0,0,1,143,92a8.43,8.43,0,0,1-8.17,5.17c-5.61,0-11.22,0-16.83,0a5,5,0,0,0-4.52,2.41c-2.3,3.76-4.5,7.59-6.75,11.39l-7.42,12.6c-.53.9-1.07,1.79-1.57,2.71"/><path class="cls-2" d="M92.86,124.19c.59-1.68,1.14-3.38,1.7-5.07l2.79-8.44c.61-1.84,2.34-7.14,3-9"/><path class="cls-2" d="M135.33,23.83a8.81,8.81,0,0,1,7.18,10.52,12.93,12.93,0,0,1-3.73,6.89c-3.07,2.9-6.47,2.93-9.57,0a12.2,12.2,0,0,1-4-8.13C125.21,27.12,130,23,135.33,23.83Z"/><path class="cls-2" d="M49,101.7c-.41-1.2-.78-2.34-1.16-3.48-.91-2.7-1.86-5.39-2.71-8.11a8.11,8.11,0,0,0-7.62-5.72H26.22c-1,0-1,0-1-1,0-5.7,0-13.36,0-19.14"/><path class="cls-2" d="M21.41,60.43c2.48,2.48,5,4.95,7.39,7.49a8,8,0,0,0,5.86,2.88q5,.06,9.92,0a3.32,3.32,0,0,0,3.05-4.53,3.27,3.27,0,0,0-3.21-2.21c-2.23,0-4.47,0-6.7,0a1.78,1.78,0,0,1-1.13-.47c-3.46-3.57-6.88-7.17-10.3-10.77a5.86,5.86,0,0,1-1.56-1.89c-.61-1.87-3.62-4.29-5.66-4.26-2.47,0-4.94,0-7.41,0a5.31,5.31,0,0,0-3.15,1.13,7.2,7.2,0,0,0-3,6c0,3.14,0,6.28,0,9.42q0,12.25,0,24.51A9.73,9.73,0,0,0,6.32,92a8.43,8.43,0,0,0,8.17,5.17c5.61,0,11.22,0,16.83,0a5,5,0,0,1,4.51,2.41c2.31,3.76,4.51,7.59,6.75,11.39q3.72,6.3,7.43,12.6c.53.9,1.07,1.79,1.56,2.71"/><path class="cls-2" d="M56.49,124.19c-.59-1.68-1.14-3.38-1.7-5.07L52,110.68c-.61-1.84-2.34-7.14-3-9"/><path class="cls-2" d="M14,23.83A8.81,8.81,0,0,0,6.84,34.35a12.86,12.86,0,0,0,3.73,6.89c3.07,2.9,6.47,2.93,9.57,0a12.14,12.14,0,0,0,4-8.13C24.13,27.12,19.33,23,14,23.83Z"/><line class="cls-2" x1="25.22" y1="70.92" x2="108.11" y2="70.92"/><line class="cls-3" x1="61.27" y1="61.39" x2="61.27" y2="72.24"/><line class="cls-3" x1="87.9" y1="61.39" x2="87.9" y2="72.24"/></svg>