<svg id="Layer_1" height="512" viewBox="0 0 32 32" width="512"
    xmlns="http://www.w3.org/2000/svg">
    <g id="growth_1_">
        <g>
            <g>
                <path d="m30.5 31h-4c-.276 0-.5-.225-.5-.5v-13c0-.275.224-.5.5-.5s.5.225.5.5v12.5h3v-21.5c0-.277.224-.5.5-.5s.5.223.5.5v22c0 .275-.224.5-.5.5z" fill="#f9a626"/>
            </g>
        </g>
        <path d="m22 30h-3v-2.5c0-.276-.224-.5-.5-.5-.276 0-.5.224-.5.5v3c0 .275.224.5.5.5h4c.276 0 .5-.225.5-.5v-7c0-.276-.224-.5-.5-.5s-.5.224-.5.5z" fill="#f9a626"/>
        <g>
            <path d="m29.494 30h-28c-.276 0-.5.224-.5.5s.224.5.5.5h28c.276 0 .5-.224.5-.5s-.223-.5-.5-.5z" fill="#f9a626"/>
        </g>
        <g>
            <path d="m10.5 27.5c-.276 0-.5-.225-.5-.5v-10.5c0-.277.224-.5.5-.5h4c.276 0 .5.223.5.5v8c0 .275-.224.5-.5.5s-.5-.225-.5-.5v-7.5h-3v10c0 .275-.224.5-.5.5z" fill="#f9a626"/>
        </g>
        <g>
            <path d="m2.5 29c-.276 0-.5-.225-.5-.5v-8c0-.277.224-.5.5-.5h4c.276 0 .5.223.5.5v7.5c0 .275-.224.5-.5.5s-.5-.225-.5-.5v-7h-3v7.5c0 .275-.224.5-.5.5z" fill="#f9a626"/>
        </g>
        <g>
            <path d="m18.5 20c-.276 0-.5-.223-.5-.5v-7c0-.277.224-.5.5-.5h2c.276 0 .5.223.5.5 0 .275-.224.5-.5.5h-1.5v6.5c0 .277-.224.5-.5.5z" fill="#f9a626"/>
        </g>
        <g>
            <path d="m3.5 31c-.276 0-.5-.224-.5-.5s.224-.5.5-.5c10.201 0 18.5-8.299 18.5-18.5v-2.5h-1.5c-.179 0-.343-.095-.433-.249-.089-.154-.09-.345-.002-.499l4-7c.18-.312.689-.312.869 0l4 7c.088.154.087.345-.002.499s-.253.249-.432.249h-1.5v2.5c0 .276-.224.5-.5.5s-.5-.224-.5-.5v-3c0-.276.224-.5.5-.5h1.139l-3.139-5.492-3.139 5.492h1.139c.276 0 .5.224.5.5v3c0 10.752-8.748 19.5-19.5 19.5z" fill="#f9a626"/>
        </g>
        <g>
            <circle cx="26.5" cy="13.5" fill="#f9a626" r=".5"/>
        </g>
    </g>
</svg>