<?xml version="1.0" encoding="UTF-8" standalone="no"?>
<!-- Created with Inkscape (http://www.inkscape.org/) -->

<svg version="1.1" id="svg1779" xml:space="preserve" width="682.66669" height="682.66669" viewBox="0 0 682.66669 682.66669"
    xmlns="http://www.w3.org/2000/svg"
    xmlns:svg="http://www.w3.org/2000/svg">
    <defs id="defs1783">
        <clipPath clipPathUnits="userSpaceOnUse" id="clipPath1793">
            <path d="M 0,512 H 512 V 0 H 0 Z" id="path1791" />
        </clipPath>
    </defs>
    <g id="g1785" transform="matrix(1.3333333,0,0,-1.3333333,0,682.66667)">
        <g id="g1787">
            <g id="g1789" clip-path="url(#clipPath1793)">
                <g id="g1795" transform="translate(297.4165,421.6665)">
                    <path d="m 0,0 h -82.833 v 74.833 c 0,4.419 3.582,8 8,8 H -8 c 4.418,0 8,-3.581 8,-8 z" style="fill:none;stroke:#f9a626;stroke-width:15;stroke-linecap:round;stroke-linejoin:round;stroke-miterlimit:10;stroke-dasharray:none;stroke-opacity:1" id="path1797" />
                </g>
                <g id="g1799" transform="translate(330.5498,338.8335)">
                    <path d="m 0,0 h -149.1 c -4.575,0 -8.283,3.708 -8.283,8.283 v 24.85 l 41.416,49.7 h 82.834 L 8.284,33.133 V 8.283 C 8.284,3.708 4.575,0 0,0 Z" style="fill:none;stroke:#f9a626;stroke-width:15;stroke-linecap:round;stroke-linejoin:round;stroke-miterlimit:10;stroke-dasharray:none;stroke-opacity:1" id="path1801" />
                </g>
                <g id="g1803" transform="translate(173.1665,371.9668)">
                    <path d="M 0,0 H 165.667" style="fill:none;stroke:#f9a626;stroke-width:15;stroke-linecap:round;stroke-linejoin:round;stroke-miterlimit:10;stroke-dasharray:none;stroke-opacity:1" id="path1805" />
                </g>
                <path d="M 355.4,7.5 H 156.6 v 215.367 h 198.8 z" style="fill:none;stroke:#f9a626;stroke-width:15;stroke-linecap:round;stroke-linejoin:round;stroke-miterlimit:10;stroke-dasharray:none;stroke-opacity:1" id="path1807" />
                <g id="g1809" transform="translate(314.2666,40.6333)">
                    <path d="m 0,0 h -116.533 c -4.419,0 -8,3.582 -8,8 v 66.833 c 0,4.418 3.581,8 8,8 H 0 c 4.418,0 8,-3.582 8,-8 V 8 C 8,3.582 4.418,0 0,0 Z" style="fill:none;stroke:#f9a626;stroke-width:15;stroke-linecap:round;stroke-linejoin:round;stroke-miterlimit:10;stroke-dasharray:none;stroke-opacity:1" id="path1811" />
                </g>
                <g id="g1813" transform="translate(156.6001,156.6001)">
                    <path d="M 0,0 H 198.8" style="fill:none;stroke:#f9a626;stroke-width:15;stroke-linecap:round;stroke-linejoin:round;stroke-miterlimit:10;stroke-dasharray:none;stroke-opacity:1" id="path1815" />
                </g>
                <g id="g1817" transform="translate(189.7334,189.7334)">
                    <path d="M 0,0 H 8.283" style="fill:none;stroke:#f9a626;stroke-width:15;stroke-linecap:round;stroke-linejoin:round;stroke-miterlimit:10;stroke-dasharray:none;stroke-opacity:1" id="path1819" />
                </g>
                <g id="g1821" transform="translate(251.8584,189.7334)">
                    <path d="M 0,0 H 8.283" style="fill:none;stroke:#f9a626;stroke-width:15;stroke-linecap:round;stroke-linejoin:round;stroke-miterlimit:10;stroke-dasharray:none;stroke-opacity:1" id="path1823" />
                </g>
                <g id="g1825" transform="translate(313.9834,189.7334)">
                    <path d="M 0,0 H 8.283" style="fill:none;stroke:#f9a626;stroke-width:15;stroke-linecap:round;stroke-linejoin:round;stroke-miterlimit:10;stroke-dasharray:none;stroke-opacity:1" id="path1827" />
                </g>
                <g id="g1829" transform="translate(222.8667,90.3335)">
                    <path d="M 0,0 H 66.267" style="fill:none;stroke:#f9a626;stroke-width:15;stroke-linecap:round;stroke-linejoin:round;stroke-miterlimit:10;stroke-dasharray:none;stroke-opacity:1" id="path1831" />
                </g>
                <g id="g1833" transform="translate(156.6001,156.6001)">
                    <path d="m 0,0 h -149.1 v 58.267 c 0,4.418 3.581,8 8,8 H 0 Z" style="fill:none;stroke:#f9a626;stroke-width:15;stroke-linecap:round;stroke-linejoin:round;stroke-miterlimit:10;stroke-dasharray:none;stroke-opacity:1" id="path1835" />
                </g>
                <g id="g1837" transform="translate(67.3335,7.5)">
                    <path d="m 0,0 h -51.833 c -4.419,0 -8,3.582 -8,8 v 141.1 h 149.1 V 0 h -59.6" style="fill:none;stroke:#f9a626;stroke-width:15;stroke-linecap:round;stroke-linejoin:round;stroke-miterlimit:10;stroke-dasharray:none;stroke-opacity:1" id="path1839" />
                </g>
                <g id="g1841" transform="translate(73.7666,189.7334)">
                    <path d="M 0,0 H 16.567" style="fill:none;stroke:#f9a626;stroke-width:15;stroke-linecap:round;stroke-linejoin:round;stroke-miterlimit:10;stroke-dasharray:none;stroke-opacity:1" id="path1843" />
                </g>
                <g id="g1845" transform="translate(40.6333,98.6167)">
                    <path d="M 0,0 V -33.133" style="fill:none;stroke:#f9a626;stroke-width:15;stroke-linecap:round;stroke-linejoin:round;stroke-miterlimit:10;stroke-dasharray:none;stroke-opacity:1" id="path1847" />
                </g>
                <g id="g1849" transform="translate(355.3999,156.6001)">
                    <path d="m 0,0 h 149.1 v 58.267 c 0,4.418 -3.581,8 -8,8 H 0 Z" style="fill:none;stroke:#f9a626;stroke-width:15;stroke-linecap:round;stroke-linejoin:round;stroke-miterlimit:10;stroke-dasharray:none;stroke-opacity:1" id="path1851" />
                </g>
                <g id="g1853" transform="translate(355.3999,7.5)">
                    <path d="m 0,0 h 141.1 c 4.419,0 8,3.582 8,8 V 149.1 H 0 Z" style="fill:none;stroke:#f9a626;stroke-width:15;stroke-linecap:round;stroke-linejoin:round;stroke-miterlimit:10;stroke-dasharray:none;stroke-opacity:1" id="path1855" />
                </g>
                <g id="g1857" transform="translate(421.6665,189.7334)">
                    <path d="M 0,0 H 16.567" style="fill:none;stroke:#f9a626;stroke-width:15;stroke-linecap:round;stroke-linejoin:round;stroke-miterlimit:10;stroke-dasharray:none;stroke-opacity:1" id="path1859" />
                </g>
                <g id="g1861" transform="translate(388.5332,98.6167)">
                    <path d="M 0,0 V -33.133" style="fill:none;stroke:#f9a626;stroke-width:15;stroke-linecap:round;stroke-linejoin:round;stroke-miterlimit:10;stroke-dasharray:none;stroke-opacity:1" id="path1863" />
                </g>
                <g id="g1865" transform="translate(15.5,504.5)">
                    <path d="m 0,0 h 116.533 c 4.419,0 8,-3.582 8,-8 v -99.967 c 0,-4.418 -3.581,-8 -8,-8 H 0 c -4.418,0 -8,3.582 -8,8 V -8 c 0,4.418 3.582,8 8,8 z" style="fill:none;stroke:#f9a626;stroke-width:15;stroke-linecap:round;stroke-linejoin:round;stroke-miterlimit:10;stroke-dasharray:none;stroke-opacity:1" id="path1867" />
                </g>
                <g id="g1869" transform="translate(65.4834,421.6665)">
                    <path d="M 0,0 H 16.566" style="fill:none;stroke:#f9a626;stroke-width:15;stroke-linecap:round;stroke-linejoin:round;stroke-miterlimit:10;stroke-dasharray:none;stroke-opacity:1" id="path1871" />
                </g>
                <g id="g1873" transform="translate(371.9668,478.0825)">
                    <path d="m 0,0 v 18.417 c 0,4.419 3.582,8 8,8 h 116.533 c 4.419,0 8,-3.581 8,-8 v -99.966 c 0,-4.418 -3.581,-8 -8,-8 L 8,-89.549 c -4.418,0 -8,3.582 -8,8 V -30" style="fill:none;stroke:#f9a626;stroke-width:15;stroke-linecap:round;stroke-linejoin:round;stroke-miterlimit:10;stroke-dasharray:none;stroke-opacity:1" id="path1875" />
                </g>
                <g id="g1877" transform="translate(429.9502,421.6665)">
                    <path d="M 0,0 H 16.566" style="fill:none;stroke:#f9a626;stroke-width:15;stroke-linecap:round;stroke-linejoin:round;stroke-miterlimit:10;stroke-dasharray:none;stroke-opacity:1" id="path1879" />
                </g>
                <g id="g1881" transform="translate(90.3335,222.8667)">
                    <path d="m 0,0 h -33.133 v 58.267 c 0,4.418 3.581,8 8,8 H -8 c 4.418,0 8,-3.582 8,-8 z" style="fill:none;stroke:#f9a626;stroke-width:15;stroke-linecap:round;stroke-linejoin:round;stroke-miterlimit:10;stroke-dasharray:none;stroke-opacity:1" id="path1883" />
                </g>
                <g id="g1885" transform="translate(371.9668,322.2666)">
                    <path d="M 0,0 H 132.533" style="fill:none;stroke:#f9a626;stroke-width:15;stroke-linecap:round;stroke-linejoin:round;stroke-miterlimit:10;stroke-dasharray:none;stroke-opacity:1" id="path1887" />
                </g>
                <g id="g1889" transform="translate(421.6665,272.5669)">
                    <path d="m 0,0 c 0,-9.15 -7.417,-16.567 -16.566,-16.567 -9.15,0 -16.567,7.417 -16.567,16.567 0,9.149 7.417,16.566 16.567,16.566 C -7.417,16.566 0,9.149 0,0 Z" style="fill:none;stroke:#f9a626;stroke-width:15;stroke-linecap:round;stroke-linejoin:round;stroke-miterlimit:10;stroke-dasharray:none;stroke-opacity:1" id="path1891" />
                </g>
                <g id="g1893" transform="translate(405.1001,289.1333)">
                    <path d="M 0,0 V 33.133" style="fill:none;stroke:#f9a626;stroke-width:15;stroke-linecap:round;stroke-linejoin:round;stroke-miterlimit:10;stroke-dasharray:none;stroke-opacity:1" id="path1895" />
                </g>
                <g id="g1897" transform="translate(487.9331,272.5669)">
                    <path d="m 0,0 c 0,-9.15 -7.417,-16.567 -16.566,-16.567 -9.15,0 -16.567,7.417 -16.567,16.567 0,9.149 7.417,16.566 16.567,16.566 C -7.417,16.566 0,9.149 0,0 Z" style="fill:none;stroke:#f9a626;stroke-width:15;stroke-linecap:round;stroke-linejoin:round;stroke-miterlimit:10;stroke-dasharray:none;stroke-opacity:1" id="path1899" />
                </g>
                <g id="g1901" transform="translate(471.3667,289.1333)">
                    <path d="M 0,0 V 33.133" style="fill:none;stroke:#f9a626;stroke-width:15;stroke-linecap:round;stroke-linejoin:round;stroke-miterlimit:10;stroke-dasharray:none;stroke-opacity:1" id="path1903" />
                </g>
            </g>
        </g>
    </g>
</svg>
