<?xml version="1.0" encoding="utf-8"?>
<!-- Generator: Adobe Illustrator 18.0.0, SVG Export Plug-In . SVG Version: 6.00 Build 0)  -->
<!DOCTYPE svg PUBLIC "-//W3C//DTD SVG 1.1//EN" "http://www.w3.org/Graphics/SVG/1.1/DTD/svg11.dtd">
<svg version="1.1" id="Capa_1" xmlns="http://www.w3.org/2000/svg" xmlns:xlink="http://www.w3.org/1999/xlink" x="0px" y="0px"
	 viewBox="50 0 400 400" enable-background="new 50 0 400 400" xml:space="preserve">
<g>
	<g>
		<path fill="#0E85C1" d="M444.1,342.3c-3.2,0-5.9,2.6-5.9,5.9v39.2c0,0.5-0.4,1-1,1H415v-85.6c0-3.2-2.6-5.9-5.9-5.9
			c-3.2,0-5.9,2.6-5.9,5.9v85.6h-43l11.6-12.8c1.8-2,2.6-4.8,2.3-7.5c0-0.1,0-0.1,0-0.2l-13.1-77.3l2.4-3.6l0.6,0.4
			c2.1,1.5,4.9,2.1,7.5,1.4c2.6-0.7,4.8-2.4,6-4.8v0l13.3-26.7l30.4,11.8c1.2,0.5,16.9,7.7,16.9,26.4v25.4c0,3.2,2.6,5.9,5.9,5.9
			c3.2,0,5.9-2.6,5.9-5.9v-25.4c0-27-23.2-36.9-24.2-37.3c0,0-0.1,0-0.1,0L373.9,238v-10.7c8.1-6.5,13.8-15.9,15.5-26.6
			c4-0.5,7.8-2.1,10.9-4.8c4.5-3.8,7-9.4,7-15.3c0-4.7-1.6-9.2-4.5-12.8v-15.8c0-30.9-25.2-56.1-56.1-56.1
			c-13.9,0-26.6,5.1-36.4,13.5c-0.1-4.5-1.7-8.8-4.5-12.2V81.5c0-30.9-25.2-56.1-56.1-56.1c-30.9,0-56.1,25.2-56.1,56.1v16.2
			c-2.8,3.4-4.4,7.4-4.5,11.7c-6.3-5.3-13.8-9.4-22.1-11.6c-3.1-0.8-6.3,1-7.2,4.2s1,6.3,4.2,7.2c19.5,5.1,33.1,22.8,33.1,42.9v8.8
			c-0.3-0.1-1.1-0.2-1.1-0.2c-0.1-1.7-0.5-2.7-1.4-4c-1.5-2.2-4.2-4.8-12.9-14.2c-3.1-3.3-8.1-3.9-11.9-1.4
			c-14.8,9.7-32.9,14.6-49.6,13.7c-5.4-0.3-8.9,2.1-10.3,6c-0.1,0-1.6,0.3-1.7,0.3v-9c0-19.4,13-36.9,31.6-42.5
			c3.1-0.9,4.9-4.2,3.9-7.3c-0.9-3.1-4.2-4.9-7.3-3.9c-11.3,3.4-21.5,10.5-28.6,20c-7.4,9.8-11.3,21.5-11.3,33.8v16.2
			c-3,3.5-4.5,7.8-4.5,12.4c0,10,7.4,18.8,17.9,20.1c1.7,10.4,7.4,20.5,16.3,27.3v10l-51.8,20.1c0,0-0.1,0-0.1,0
			c-1,0.4-24.2,10.2-24.2,37.3v91.9c0,7,5.7,12.7,12.7,12.7h180.4c2.5,0,4.9-0.7,6.8-2c2,1.3,4.3,2,6.8,2h180.4
			c7,0,12.7-5.7,12.7-12.7v-39.2C450,344.9,447.4,342.3,444.1,342.3z M109.1,188.7c-3.4-1.2-5.6-4.4-5.6-8c0-3.4,2.5-6.3,5.6-7.6
			V188.7z M380,252.9L368.5,276c0,0-12.8-9.1-13-9.2c5.5-6.8,2.9-3.6,14.4-17.8L380,252.9z M347.1,258.6l-15.2-18.7v-5.6
			c4.9,1.7,10.2,2.5,15.2,2.5c0,0,0,0,0,0h0c5.2,0,10.4-1,15-2.7v5.9L347.1,258.6z M353.9,280l-2.2,3.2h-9.4l-2.2-3.2l6.9-4.9
			L353.9,280z M250,188l-15.2-18.7v-5.6c4.9,1.7,10.2,2.5,15.2,2.5c0,0,0,0,0,0h0c5.2,0,10.4-1,15-2.7v5.9L250,188z M256.9,209.4
			l-2.2,3.2h-9.4l-2.2-3.2l6.9-4.9L256.9,209.4z M203.8,129.6c1,0.3,1.9,0.4,2.9,0.6c1.7,10.4,7.4,20.5,16.3,27.3v10l-12,4.6
			c-0.7-1.5-1.6-2.8-2.6-4.1v-15.8C208.6,144.2,206.9,136.5,203.8,129.6z M281.1,123.4c0,17.2-14,31.1-31.1,31.1
			c-19.3,0-32.1-14.9-32.1-31.1V95.9c18.5,0.7,37.7-4.7,53.4-14.5c5.3,5.7,8.4,9,9.8,10.5C281.1,106.5,281.1,112.1,281.1,123.4z
			 M292.3,130.1c1-0.1,2-0.3,2.9-0.6c-3,6.9-4.7,14.5-4.7,22.6v16.2c-0.9,1.1-1.7,2.2-2.3,3.4l-11.3-4.4v-10.7
			C284.9,150.2,290.6,140.8,292.3,130.1z M227.1,178.4l14.4,17.8l-9.8,7c0,0,0,0,0,0l-3.1,2.2l-11.5-23.1L227.1,178.4z M263.5,189.9
			l9.4-11.6l10.1,3.9l-11.5,23.1l-3.1-2.2c0,0,0,0,0,0l-9.8-7L263.5,189.9z M266.4,216.2l0.6,0.4c2.2,1.6,4.9,2.1,7.5,1.4
			c2.6-0.7,4.8-2.4,6-4.8v0l9.9-19.8c3.4,4.2,8.3,6.7,13.4,7.4c1.8,11.2,7.8,20.8,16.4,27.2v10l-49.8,19.3l-6.4-37.5L266.4,216.2z
			 M324.2,249l14.4,17.8c-6.3,4.5-12.6,9-12.9,9.2l-11.5-23.1L324.2,249z M378.2,194c0,16.7-13.6,31.1-31.1,31.1
			c-19.9,0-32.1-15.6-32.1-31.1v-27.4c18.4,0.7,37.6-4.7,53.4-14.5c5.3,5.7,8.4,9,9.8,10.5C378.2,177.1,378.2,182.7,378.2,194z
			 M395.5,180.7c0,3.6-2.2,6.7-5.6,8v-15.9C393.5,174,395.5,177.2,395.5,180.7z M302.2,152.1c0-24.5,19.9-44.4,44.4-44.4
			c24.5,0,44.4,19.9,44.4,44.4v8.8c-0.3-0.1-1-0.2-1.1-0.2c-0.1-1.7-0.5-2.7-1.4-4c-1.5-2.2-4.2-4.9-12.9-14.2c-3-3.2-8-4-11.9-1.4
			c-14.4,9.4-32.7,14.8-50,13.6c-4.9-0.3-8.4,2.1-9.9,6c-0.1,0-1.6,0.3-1.7,0.3L302.2,152.1L302.2,152.1z M303.3,173.1v15.6
			c-3.4-1.2-5.6-4.4-5.6-8C297.7,177.2,300.2,174.4,303.3,173.1z M298.5,110c0,2.5-1.1,4.8-2.9,6.4c-0.8,0.7-1.7,1.2-2.7,1.6v-15.9
			C296.3,103.3,298.5,106.6,298.5,110z M249.5,37.1c24.5,0,44.4,19.9,44.4,44.4v8.8c-0.3-0.1-1-0.2-1.1-0.2
			c-0.1-1.8-0.6-2.9-1.7-4.3c-1.6-2.1-4.5-5-12.6-13.8c-3.1-3.3-8.1-3.9-11.9-1.4c-15.2,10-33.7,14.8-50.5,13.6
			c-4.1-0.3-8,2.2-9.4,6c-0.1,0-1.6,0.3-1.7,0.3v-9h0C205.1,57,225,37.1,249.5,37.1z M206.2,102.4V118c-3.4-1.2-5.6-4.4-5.6-8
			C200.6,106.6,203.1,103.8,206.2,102.4z M195.8,172.7c3.3,1.2,5.4,4.1,5.6,7.5c0.3,3.8-2.1,7.2-5.6,8.5V172.7z M195.2,200.8
			c5.5-0.7,10.6-3.6,13.9-8.1l10.2,20.5c0,0,0,0,0,0c1.2,2.4,3.4,4.2,6,4.8c2.6,0.6,5.3,0.2,7.5-1.4l0.6-0.4l2.4,3.6l-6.3,37.5
			L179.8,238v-10.7h0C188.1,220.6,193.6,211.2,195.2,200.8z M152.9,258.6l-15.2-18.7v-5.6c4.9,1.7,10.2,2.5,15.2,2.5c0,0,0,0,0,0
			c5.2,0,10.5-1,15-2.7v5.9L152.9,258.6z M159.8,280l-2.2,3.2h-9.4L146,280l6.9-4.9L159.8,280z M175.8,249l10.1,3.9L174.3,276
			l-3.1-2.2c0,0,0,0,0,0l-9.8-7L175.8,249z M120.9,194v-27.4c18.6,0.7,37.8-4.8,53.4-14.5c5.2,5.6,8.4,9,9.8,10.5
			c0,14.6,0,20.2,0,31.5c0,17-13.9,31.1-31.1,31.1C133.9,225.1,120.9,210.3,120.9,194z M130,249l14.4,17.8l-9.8,7c0,0,0,0,0,0
			l-3.1,2.2L120,252.9L130,249z M96.7,388.3v-85.6c0-3.2-2.6-5.9-5.9-5.9s-5.9,2.6-5.9,5.9v85.6H62.7c-0.5,0-1-0.4-1-1v-91.9
			c0-18.8,15.9-26,16.9-26.4l30.4-11.8l13.3,26.7c0,0,0,0,0,0c1.2,2.4,3.4,4.2,6,4.8c2.6,0.6,5.3,0.2,7.5-1.4l0.6-0.4l2.4,3.6
			l-13.1,77.3c0,0.1,0,0.1,0,0.2c-0.4,2.7,0.5,5.5,2.3,7.5l11.6,12.8L96.7,388.3L96.7,388.3z M137.6,368.5L150,295h5.8l12.4,73.5
			l-15.4,16.9L137.6,368.5z M244.1,387.3c0,0.5-0.4,1-1,1h-22.3v-85.6c0-3.2-2.6-5.9-5.9-5.9c-3.2,0-5.9,2.6-5.9,5.9v85.6h-43
			l11.6-12.8c1.8-2,2.6-4.8,2.3-7.5c0-0.1,0-0.1,0-0.2l-13.1-77.3l2.4-3.6l0.6,0.4c1.6,1.1,3.4,1.7,5.3,1.7c3.4,0,6.6-1.9,8.2-5.1v0
			l13.3-26.7l30.4,11.8c8.9,3.9,16.9,13.8,16.9,26.4L244.1,387.3L244.1,387.3z M250,274.1c-2.4-3.9-5.7-7.5-9.6-10.6l6.6-39.1h5.8
			l6.6,39.2C255.5,266.7,252.3,270.3,250,274.1z M290.8,388.3L290.8,388.3v-85.6c0-3.2-2.6-5.9-5.9-5.9c-3.2,0-5.9,2.6-5.9,5.9v85.6
			h-22.3c-0.5,0-1-0.4-1-1v-91.9c0-7,2.2-13.4,6.8-18.8c3.1-3.6,7.2-6.4,10-7.7l30.4-11.8l13.3,26.7c0,0,0,0,0,0
			c1.2,2.4,3.4,4.2,6,4.8c2.6,0.6,5.3,0.2,7.5-1.4l0.6-0.4l2.4,3.6l-13.1,77.3c0,0.1,0,0.1,0,0.2c-0.4,2.7,0.5,5.5,2.3,7.5
			l11.6,12.8L290.8,388.3L290.8,388.3z M331.7,368.5l12.4-73.5h5.8l12.4,73.5l-15.4,16.9L331.7,368.5z"/>
	</g>
</g>
</svg>
