<?xml version="1.0"?>
<svg xmlns="http://www.w3.org/2000/svg" id="outline" viewBox="0 0 48 48" width="512" height="512"><path d="M8.526,24.124a.75.75,0,0,0-.75.75V35.608a.75.75,0,0,0,.75.75H26.017a.75.75,0,0,0,.75-.75V24.874a.75.75,0,0,0-.75-.75ZM25.267,34.858H9.276V25.624H25.267Z"/><path d="M4.793,19.943a5.282,5.282,0,0,0,5.032-2.487,5.392,5.392,0,0,0,9.47.205,5.565,5.565,0,0,0,.755,1.014,5.441,5.441,0,0,0,7.9,0,5.565,5.565,0,0,0,.755-1.014,5.4,5.4,0,0,0,9.47-.206,5.312,5.312,0,0,0,9.638-4.2L45.3,3.985V.75a.75.75,0,0,0-.75-.75H3.447A.75.75,0,0,0,2.7.75V3.992L.187,13.258a5.319,5.319,0,0,0,4.606,6.685Zm9.835-1.069a3.914,3.914,0,0,1-3.864-4.543l1.543-9.495H19.1l-.531,9.8h0l-.029.531A3.917,3.917,0,0,1,14.628,18.874Zm12.233-1.23a3.941,3.941,0,0,1-6.8-2.924l.031-.577.5-9.307h6.8l.5,9.307.031.577A3.905,3.905,0,0,1,26.861,17.644Zm9.493-.148a3.916,3.916,0,0,1-6.892-2.326l-.029-.531h0l-.531-9.8h6.791l1.543,9.495A3.908,3.908,0,0,1,36.354,17.5Zm9.469-.679a3.82,3.82,0,0,1-6.916-1.555L37.212,4.836h6.766l2.387,8.814A3.813,3.813,0,0,1,45.823,16.817ZM4.2,1.5H43.8V3.336H4.2ZM1.635,13.65,4.022,4.836h6.766L9.743,11.264l-.46,2.826h0l-.19,1.171A3.82,3.82,0,1,1,1.635,13.65Z"/><path d="M47.25,43.13H45.3V21.609a.75.75,0,1,0-1.5,0V43.13H41.285V24.874a.75.75,0,0,0-.75-.75H30.814a.75.75,0,0,0-.75.75V43.13H4.2V21.617a.75.75,0,0,0-1.5,0V43.13H.75a.75.75,0,0,0-.75.75v3.37A.75.75,0,0,0,.75,48h46.5a.75.75,0,0,0,.75-.75V43.88A.75.75,0,0,0,47.25,43.13ZM31.564,25.624h8.221V43.13H31.564ZM46.5,46.5H1.5V44.63h45Z"/></svg>
