<svg id="Layer_1" enable-background="new 0 0 100 100" viewBox="0 0 100 100" xmlns="http://www.w3.org/2000/svg"><g clip-rule="evenodd" fill-rule="evenodd"><path d="m92.4973831 47.2492142v39.1296692c0 3.3798752-2.7399292 6.119812-6.119812 6.119812h-23.8770485v-30.2842407c0-1.3795547-1.118351-2.4979057-2.4979057-2.4979057h-20.0052338c-1.3795547 0-2.4979057 1.118351-2.4979057 2.4979057v30.2842407h-23.8770523c-3.3798761 0-6.1198072-2.7399368-6.1198072-6.119812v-39.1296692c.8068876.1657486 1.6468315.2541885 2.4979057.2541885 4.0894871 0 7.714715-1.9673996 10.0026178-5.0068741 2.2768402 3.0394745 5.9021358 5.0068741 9.9916229 5.0068741 4.100481 0 7.7257786-1.9673996 10.0026188-5.0068741 2.2879028 3.0394745 5.9131279 5.0068741 10.0026169 5.0068741s7.7147141-1.9673996 10.0026169-5.0068741c.3536949.4753227.740509.9173889 1.1605148 1.3484573 2.3431511 2.3431511 5.5263138 3.6584167 8.8421021 3.6584167 4.0894928 0 7.7147827-1.9673996 9.9916229-5.0068741 2.2879028 3.0394745 5.9131317 5.0068741 10.0026169 5.0068741.8510742.0000001 1.6910171-.0884398 2.4979095-.2541884z"/><path d="m2.5000002 27.5013065v7.4999981c0 4.1425362 3.3574674 7.5000038 7.500001 7.5000038s7.4999988-3.3574676 7.4999988-7.5000038v-7.4999981z"/><path d="m22.5 27.5013065v7.4999981c0 4.1425362 3.3574677 7.5000038 7.5000019 7.5000038s7.4999981-3.3574676 7.4999981-7.5000038v-7.4999981z"/><path d="m42.5000038 27.5013065v7.4999981c0 4.1425362 3.3574638 7.5000038 7.4999962 7.5000038s7.5-3.3574677 7.5-7.5000038v-7.4999981z"/><path d="m82.5 27.5013065v7.4999981c0 4.1425362 3.3574753 7.5000038 7.5 7.5000038 4.14254 0 7.5-3.3574677 7.5-7.5000038v-7.4999981z"/><path d="m62.5000038 27.5013065v7.4999981c0 1.9899826.79002 3.89748 2.1974907 5.3025131 1.4050293 1.4074708 3.3125305 2.1974907 5.3025055 2.1974907 4.14254 0 7.5-3.3574677 7.5-7.5000038v-7.4999981z"/><path d="m90.1464462 10.8842535 5.8085251 11.617053h-91.9099426l5.8085279-11.617054c1.0366468-2.0732927 3.1557102-3.382946 5.4737225-3.382946h69.3454437c2.3180151 0 4.4370794 1.3096533 5.4737234 3.382947z"/></g></svg>