<svg id="Capa_1" enable-background="new 0 0 512 512" height="512" viewBox="0 0 512 512" width="512" xmlns="http://www.w3.org/2000/svg"><g><g><path d="m223.246 257.917-2.209 1.456c-8.982 5.92-20.589 5.92-29.572-.002l-2.208-1.454c-3.458-2.276-8.11-1.32-10.389 2.138-2.279 3.459-1.322 8.11 2.138 10.39l2.205 1.452c6.999 4.613 15.019 6.92 23.041 6.92 8.02 0 16.041-2.307 23.038-6.918l2.208-1.454c3.459-2.279 4.417-6.931 2.138-10.39-2.28-3.46-6.932-4.415-10.39-2.138z"/><path d="m330.994 270.444c3.459-2.279 4.417-6.931 2.138-10.39-2.279-3.46-6.93-4.415-10.389-2.138l-2.209 1.456c-8.982 5.92-20.589 5.92-29.572-.002l-2.208-1.454c-3.458-2.276-8.11-1.32-10.389 2.138-2.279 3.459-1.322 8.11 2.138 10.39l2.205 1.452c6.999 4.613 15.019 6.92 23.041 6.92 8.02 0 16.041-2.307 23.038-6.918z"/><path d="m281.246 345.324c3.459-2.279 4.417-6.931 2.138-10.39-2.279-3.46-6.93-4.415-10.389-2.138l-2.209 1.456c-8.982 5.92-20.589 5.92-29.572-.002l-2.208-1.454c-3.458-2.276-8.11-1.32-10.389 2.138-2.279 3.459-1.322 8.11 2.138 10.39l2.205 1.452c6.999 4.613 15.019 6.92 23.041 6.92 8.02 0 16.041-2.307 23.038-6.918z"/><path d="m452.592 74.66c4.142 0 7.5-3.357 7.5-7.5v-41.712c0-14.032-11.417-25.448-25.449-25.448h-42.693c-14.033 0-25.449 11.416-25.449 25.448v83.913c-27.826-31.445-67.754-49.701-110.501-49.701-42.754 0-82.676 18.274-110.501 49.729v-33.909c0-4.143-3.358-7.5-7.5-7.5s-7.5 3.357-7.5 7.5v35.699h-63.59v-85.731c-.001-5.76 4.687-10.448 10.448-10.448h42.693c5.761 0 10.448 4.688 10.448 10.448v16.912c0 4.143 3.358 7.5 7.5 7.5s7.5-3.357 7.5-7.5v-16.912c0-14.032-11.416-25.448-25.448-25.448h-42.693c-14.032 0-25.449 11.416-25.449 25.448v127.203c0 31.217 4.804 62.126 14.278 91.871l5.04 15.822c6.515 20.454 17.613 39.642 32.095 55.488l44.455 48.645c4.279 4.682 10.371 7.378 16.713 7.398h.07c2.248 0 4.463-.342 6.581-.984 9.128 9.414 19.622 17.634 31.291 24.333v20.962c0 10.083-6.748 19.141-16.409 22.026l-74.2 22.165c-8.206 2.451-15.81 6.317-22.603 11.493-7.693 5.86-10.657 15.596-7.55 24.801 3.144 9.312 11.501 15.329 21.292 15.329h306.078c9.791 0 18.147-6.017 21.29-15.327 3.107-9.205.144-18.94-7.549-24.801-6.793-5.176-14.397-9.042-22.603-11.493l-16.188-4.836c-3.969-1.188-8.147 1.071-9.333 5.04s1.07 8.147 5.039 9.333l16.189 4.836c6.466 1.931 12.457 4.977 17.806 9.052 3.802 2.897 2.819 6.911 2.427 8.072-.406 1.202-2.115 5.124-7.078 5.124h-306.078c-4.962 0-6.672-3.922-7.077-5.124-.392-1.161-1.375-5.175 2.428-8.072 5.349-4.075 11.339-7.121 17.805-9.052l74.2-22.165c15.965-4.77 27.116-19.737 27.116-36.399v-12.9c12.609 5.815 26.25 8.728 39.893 8.728 12.698 0 25.39-2.527 37.243-7.551v11.723c0 16.662 11.15 31.63 27.116 36.399l25.009 7.471c3.967 1.186 8.147-1.071 9.333-5.04s-1.07-8.147-5.04-9.333l-25.009-7.471c-9.661-2.886-16.409-11.943-16.409-22.026v-19.558l.395-.228s0-.001.001-.001c11.943-6.907 22.636-15.449 31.9-25.227 1.81.459 3.681.703 5.576.703h.071c6.342-.021 12.434-2.717 16.712-7.398l44.456-48.645c14.481-15.847 25.58-35.034 32.094-55.488l5.04-15.822c9.475-29.744 14.278-60.654 14.278-91.871v-55.093c0-4.143-3.358-7.5-7.5-7.5s-7.5 3.357-7.5 7.5v13.62h-63.59v-85.732c0-5.761 4.687-10.448 10.449-10.448h42.693c5.761 0 10.449 4.688 10.449 10.448v41.712c-.001 4.143 3.356 7.5 7.499 7.5zm-86.091 59.245v27.337c0 4.691-1.809 9.121-5.093 12.472-.903.921-1.756 1.877-2.587 2.849-22.608-32.568-60.261-53.94-102.821-53.94-1.061 0-2.116.027-3.171.053 24.111-11.453 50.44-18.172 77.115-19.589l7.651-.407c11.082 8.657 20.866 19.146 28.906 31.225zm-110.501-59.245c21.409 0 42.029 5.104 60.423 14.508-30.808 3.459-60.833 13.467-87.527 29.266l-33.783 19.994c-.211.125-.413.259-.607.4-16.447 9.326-30.583 22.266-41.325 37.738-.832-.973-1.686-1.93-2.59-2.853-3.284-3.351-5.093-7.78-5.093-12.472v-27.336c24.708-37.12 65.898-59.245 110.502-59.245zm-141.606 231.054c-13.029-14.257-23.014-31.52-28.875-49.922l-5.04-15.822c-9.005-28.271-13.57-57.648-13.57-87.318v-26.472h63.59v35.062c0 8.642 3.332 16.8 9.38 22.972 7.476 7.627 11.593 17.71 11.593 28.39v46.886c0 4.557-2.852 8.452-6.862 10.018l-10.455-18.082c-4.613-7.979-7.051-17.066-7.051-26.282v-13.824c0-4.143-3.358-7.5-7.5-7.5s-7.5 3.357-7.5 7.5v13.821c0 11.849 3.135 23.533 9.065 33.79l50.083 86.319c1.719 2.958 1.312 6.632-1.012 9.143-1.487 1.608-3.511 2.476-5.703 2.482-2.19-.007-4.21-.901-5.688-2.518zm188.061 77.701-5.026 2.906c-24.294 14.052-54.61 14.285-79.118.609l-7.057-3.938c-10.367-5.784-19.703-12.919-27.881-21.089 4.888-7.16 5.319-16.495.85-24.188l-32.045-55.163c8.466-4.225 14.294-12.977 14.294-23.064v-46.886c0-7.688-1.572-15.145-4.536-22.011 19.344-31.729 54.264-52.968 94.065-52.968s74.721 21.237 94.066 52.965c-2.965 6.868-4.538 14.325-4.538 22.015v46.886c0 10.088 5.828 18.84 14.294 23.065l-32.045 55.162c-4.635 7.979-3.994 17.724 1.421 24.977-7.87 7.974-16.821 14.983-26.744 20.722zm142.637-257.235v26.472c0 29.67-4.566 59.048-13.57 87.318l-5.04 15.822c-5.862 18.402-15.847 35.665-28.875 49.922l-44.456 48.645c-1.478 1.616-3.498 2.511-5.688 2.518-.008 0-.017 0-.025 0-2.18 0-4.196-.881-5.678-2.482-2.324-2.511-2.73-6.185-1.012-9.143l50.083-86.319c5.931-10.257 9.065-21.941 9.065-33.79v-13.823c0-4.143-3.358-7.5-7.5-7.5s-7.5 3.357-7.5 7.5v13.821c0 9.216-2.438 18.304-7.051 26.282l-10.455 18.082c-4.009-1.566-6.862-5.461-6.862-10.018v-46.886c0-10.68 4.117-20.762 11.593-28.39 6.049-6.172 9.38-14.33 9.38-22.972v-35.059z"/></g></g></svg>