<svg viewBox="0 0 24 24" xmlns="http://www.w3.org/2000/svg" fill="#edb200"><path d="m21.56 10.96-.86-.99h.37c.64 0 1.16-.52 1.16-1.16v-.38c0-.64-.52-1.16-1.16-1.16h-.33c-.28 0-.5.22-.5.5s.22.5.5.5h.33c.09 0 .16.07.16.16v.38c0 .09-.07.16-.16.16h-.7l-.75-2.45c-.49-1.58-1.92-2.63-3.57-2.63h-8.1c-1.65 0-3.08 1.06-3.57 2.63l-.75 2.45h-.7c-.09 0-.16-.07-.16-.16v-.38c0-.09.07-.16.16-.16h.33c.28 0 .5-.22.5-.5s-.22-.5-.5-.5h-.33c-.64 0-1.16.52-1.16 1.16v.38c0 .64.52 1.16 1.16 1.16h.37l-.86.99c-.54.62-.84 1.42-.84 2.25v2.87c0 .61.34 1.14.85 1.42v1.13c0 .83.67 1.5 1.5 1.5h1.72c.83 0 1.5-.67 1.5-1.5v-.92h9.66v.92c0 .83.67 1.5 1.5 1.5h1.72c.83 0 1.5-.67 1.5-1.5v-1.13c.5-.28.85-.8.85-1.42v-2.87c0-.83-.3-1.63-.84-2.25zm-18.36.66.96-1.1c.05-.05.08-.11.1-.18l.2-.65s.02-.06.03-.09l.86-2.78c.36-1.15 1.41-1.93 2.61-1.93h8.09c1.21 0 2.26.77 2.61 1.93l.86 2.78s.01.06.03.09l.2.65c.02.07.05.13.1.18l.96 1.1c.38.44.6 1.01.6 1.6v1.45h-2.28c-.33 0-.61-.27-.61-.61v-.64c0-.33.27-.61.61-.61h1.22c.28 0 .5-.22.5-.5s-.22-.5-.5-.5h-1.22c-.89 0-1.61.72-1.61 1.61v.64c0 .89.72 1.61 1.61 1.61h2.28v.42c0 .34-.28.62-.62.62h-5.14v-1.71c0-.28-.22-.5-.5-.5h-6.28c-.28 0-.5.22-.5.5v1.71h-5.14c-.34 0-.62-.28-.62-.62v-.42h2.28c.89 0 1.61-.72 1.61-1.61v-.64c0-.89-.72-1.61-1.61-1.61h-1.22c-.28 0-.5.22-.5.5s.22.5.5.5h1.22c.33 0 .61.27.61.61v.64c0 .33-.27.61-.61.61h-2.28v-1.45c0-.59.21-1.15.6-1.6zm2.97 7c0 .28-.22.5-.5.5h-1.72c-.28 0-.5-.22-.5-.5v-.92h2.72zm3.19-1.92v-1.21h5.28v1.21zm11.19 1.92c0 .28-.22.5-.5.5h-1.72c-.28 0-.5-.22-.5-.5v-.92h2.72z"/><path d="m5.99 9.96h12.02c.28 0 .5-.22.5-.5s-.22-.5-.5-.5h-12.02c-.28 0-.5.22-.5.5s.22.5.5.5z"/><path d="m16.09 11.8h-8.18c-.28 0-.5.22-.5.5s.22.5.5.5h8.18c.28 0 .5-.22.5-.5s-.22-.5-.5-.5z"/></svg>