<svg id="Layer_1" data-name="Layer 1" xmlns="http://www.w3.org/2000/svg" viewBox="0 0 150 150"><defs><style>.cls-1,.cls-3{fill:none;}.cls-1{stroke:#595959;}.cls-1,.cls-2,.cls-3{stroke-linecap:round;stroke-linejoin:round;stroke-width:2px;}.cls-2{fill:#d8ab5b;stroke:#d8ab5b;}.cls-3{stroke:#fff;}</style></defs><polyline class="cls-1" points="35.58 112.73 7.48 102.69 39.14 14.1 78.95 28.33"/><polyline class="cls-1" points="117.69 111.07 117.69 133.69 40.2 133.69 40.2 34.57 117.69 34.57 117.69 88.42"/><polyline class="cls-1" points="51.01 70.42 60.02 61.41 70.84 65.01 79.85 56 90.66 57.8 96.07 46.99 106.88 45.19"/><line class="cls-1" x1="51.01" y1="101.75" x2="69.03" y2="101.75"/><line class="cls-1" x1="51.01" y1="112.31" x2="78.05" y2="112.31"/><line class="cls-1" x1="51.01" y1="122.88" x2="72.64" y2="122.88"/><circle class="cls-2" cx="99.66" cy="93.99" r="18.87"/><path class="cls-3" d="M86.37,94A13.29,13.29,0,0,1,99.66,80.7"/><rect class="cls-1" x="126.05" y="108.88" width="9.01" height="30.11" rx="4.51" transform="translate(-49.4 128.62) rotate(-45)"/><line class="cls-1" x1="119.91" y1="113.29" x2="114.63" y2="108.01"/></svg>