<svg id="Layer_1" enable-background="new 0 0 300.019 300.019" viewBox="0 0 300.019 300.019" xmlns="http://www.w3.org/2000/svg"><g><g><path d="m256.266 212.506c-5.172 0-10.134.909-14.744 2.566l-71.983-135.999c10.888-7.968 17.977-20.831 17.977-35.323 0-24.125-19.631-43.75-43.763-43.75-24.119 0-43.75 19.625-43.75 43.75 0 15.23 7.828 28.663 19.666 36.502l-63.143 134.163c-4.043-1.238-8.331-1.909-12.773-1.909-24.119 0-43.75 19.644-43.75 43.762 0 24.119 19.631 43.75 43.75 43.75 21.996 0 40.252-16.331 43.296-37.5h125.92c3.044 21.169 21.3 37.5 43.296 37.5 24.119 0 43.75-19.631 43.75-43.75.001-24.118-19.631-43.762-43.749-43.762zm-143.763-168.756c0-17.269 13.987-31.25 31.25-31.25s31.263 13.981 31.263 31.25-14 31.256-31.263 31.256-31.25-13.987-31.25-31.256zm18.464 41.845c4.047 1.24 8.339 1.911 12.786 1.911 5.17 0 10.131-.907 14.739-2.56l71.986 136.006c-9.285 6.803-15.798 17.17-17.509 29.067h-125.92c-1.814-12.615-9.028-23.51-19.22-30.26zm-87.214 201.924c-17.263 0-31.25-13.987-31.25-31.25 0-17.275 13.987-31.262 31.25-31.262s31.25 13.987 31.25 31.262c0 17.262-13.987 31.25-31.25 31.25zm212.513 0c-17.263 0-31.25-13.987-31.25-31.25 0-17.275 13.987-31.262 31.25-31.262s31.25 13.987 31.25 31.262c0 17.262-13.988 31.25-31.25 31.25z"/></g></g><g/><g/><g/><g/><g/><g/><g/><g/><g/><g/><g/><g/><g/><g/><g/></svg>