<svg version="1.1" id="Capa_1" xmlns="http://www.w3.org/2000/svg" xmlns:xlink="http://www.w3.org/1999/xlink" x="0px" y="0px" viewBox="0 0 512 512" style="enable-background:new 0 0 512 512;" xml:space="preserve">
<g>
	
		<line style="fill:none;stroke:#000000;stroke-width:15;stroke-linecap:round;stroke-linejoin:round;stroke-miterlimit:10;" x1="189.81" y1="473.53" x2="189.81" y2="387.505"/>
	<path style="fill:none;stroke:#000000;stroke-width:15;stroke-linecap:round;stroke-linejoin:round;stroke-miterlimit:10;" d="&#10;&#9;&#9;M73.69,72.546v20.034c0,11.101-3.878,21.792-10.71,30.543c-13.55,17.355-21.736,39.898-21.736,64.541s8.186,47.186,21.736,64.541&#10;&#9;&#9;c6.832,8.75,10.71,19.441,10.71,30.543v112.602"/>
	<path style="fill:none;stroke:#000000;stroke-width:15;stroke-linecap:round;stroke-linejoin:round;stroke-miterlimit:10;" d="&#10;&#9;&#9;M189.81,341.649v-58.902c0-11.101,3.878-21.792,10.71-30.543c13.55-17.355,21.736-39.898,21.736-64.541&#10;&#9;&#9;s-8.186-47.186-21.736-64.541c-6.832-8.75-10.71-19.441-10.71-30.543v-54.11"/>
	<path style="fill:none;stroke:#000000;stroke-width:15;stroke-linecap:round;stroke-linejoin:round;stroke-miterlimit:10;" d="&#10;&#9;&#9;M108.825,38.469v72.425c0,9.447-3.681,18.526-10.275,25.291c-13.232,13.575-22.171,30.577-22.171,51.479&#10;&#9;&#9;c0.001,20.902,8.938,37.903,22.171,51.478"/>
	<path style="fill:none;stroke:#000000;stroke-width:15;stroke-linecap:round;stroke-linejoin:round;stroke-miterlimit:10;" d="&#10;&#9;&#9;M154.675,413.45V264.433c0-9.447,3.681-18.526,10.275-25.291c13.232-13.575,22.171-30.576,22.171-51.478&#10;&#9;&#9;c0-20.902-8.938-37.903-22.171-51.479"/>
	
		<line style="fill:none;stroke:#000000;stroke-width:15;stroke-linecap:round;stroke-linejoin:round;stroke-miterlimit:10;" x1="108.825" y1="303.637" x2="108.825" y2="473.53"/>
	
		<ellipse style="fill:none;stroke:#000000;stroke-width:15;stroke-linecap:round;stroke-linejoin:round;stroke-miterlimit:10;" cx="131.75" cy="187.663" rx="20.423" ry="28.179"/>
	<path style="fill:none;stroke:#000000;stroke-width:15;stroke-linecap:round;stroke-linejoin:round;stroke-miterlimit:10;" d="&#10;&#9;&#9;M295.347,358.8c3.745,11.096,9.246,21.257,16.133,30.078c6.832,8.75,10.71,19.441,10.71,30.543v54.11"/>
	<path style="fill:none;stroke:#000000;stroke-width:15;stroke-linecap:round;stroke-linejoin:round;stroke-miterlimit:10;" d="&#10;&#9;&#9;M438.31,437.316v-17.895c0-11.101,3.878-21.792,10.71-30.543c13.55-17.355,21.736-39.898,21.736-64.541&#10;&#9;&#9;c0-24.643-8.186-47.186-21.736-64.541c-6.832-8.75-10.71-19.441-10.71-30.543V38.47H322.19v190.783&#10;&#9;&#9;c0,11.101-3.878,21.792-10.71,30.543c-6.775,8.678-12.209,18.652-15.949,29.538"/>
	<path style="fill:none;stroke:#000000;stroke-width:15;stroke-linecap:round;stroke-linejoin:round;stroke-miterlimit:10;" d="&#10;&#9;&#9;M357.325,109.918v137.649c0,9.447-3.681,18.526-10.275,25.291c-13.232,13.575-22.171,30.576-22.171,51.478&#10;&#9;&#9;c0,20.902,8.938,37.903,22.171,51.479c6.594,6.765,10.275,15.844,10.275,25.291v29.412"/>
	
		<line style="fill:none;stroke:#000000;stroke-width:15;stroke-linecap:round;stroke-linejoin:round;stroke-miterlimit:10;" x1="403.175" y1="142.431" x2="403.175" y2="38.47"/>
	<path style="fill:none;stroke:#000000;stroke-width:15;stroke-linecap:round;stroke-linejoin:round;stroke-miterlimit:10;" d="&#10;&#9;&#9;M403.175,473.531v-72.425c0-9.447,3.681-18.526,10.275-25.291c13.232-13.575,22.171-30.577,22.171-51.479&#10;&#9;&#9;c-0.001-20.902-8.938-37.903-22.171-51.478c-6.594-6.765-10.275-15.844-10.275-25.291v-33.305"/>
	
		<ellipse style="fill:none;stroke:#000000;stroke-width:15;stroke-linecap:round;stroke-linejoin:round;stroke-miterlimit:10;" cx="380.25" cy="324.337" rx="20.423" ry="28.153"/>
	<path style="fill:none;stroke:#000000;stroke-width:15;stroke-linecap:round;stroke-linejoin:round;stroke-miterlimit:10;" d="&#10;&#9;&#9;M504.5,324.149V88.636c0-27.706-22.46-50.166-50.166-50.166H306.166C278.46,38.469,256,60.93,256,88.636v334.729&#10;&#9;&#9;c0,27.706,22.46,50.166,50.166,50.166h148.167c27.706,0,50.166-22.46,50.166-50.166v-64.215"/>
	<path style="fill:none;stroke:#000000;stroke-width:15;stroke-linecap:round;stroke-linejoin:round;stroke-miterlimit:10;" d="&#10;&#9;&#9;M7.5,151.496v271.868c0,27.706,22.46,50.166,50.166,50.166h148.167c27.706,0,50.166-22.46,50.166-50.166"/>
	<path style="fill:none;stroke:#000000;stroke-width:15;stroke-linecap:round;stroke-linejoin:round;stroke-miterlimit:10;" d="&#10;&#9;&#9;M256,88.636c0-27.706-22.46-50.166-50.166-50.166H57.666C29.96,38.469,7.5,60.93,7.5,88.636v27.86"/>
</g>
<g>
</g>
<g>
</g>
<g>
</g>
<g>
</g>
<g>
</g>
<g>
</g>
<g>
</g>
<g>
</g>
<g>
</g>
<g>
</g>
<g>
</g>
<g>
</g>
<g>
</g>
<g>
</g>
<g>
</g>
</svg>