<?xml version="1.0" encoding="UTF-8" standalone="no"?>
<!-- Created with Inkscape (http://www.inkscape.org/) -->

<svg
   version="1.1"
   id="svg1386"
   xml:space="preserve"
   width="682.66669"
   height="682.66669"
   viewBox="0 0 682.66669 682.66669"
   xmlns="http://www.w3.org/2000/svg"
   xmlns:svg="http://www.w3.org/2000/svg"><defs
     id="defs1390"><clipPath
       clipPathUnits="userSpaceOnUse"
       id="clipPath1400"><path
         d="M 0,512 H 512 V 0 H 0 Z"
         id="path1398" /></clipPath></defs><g
     id="g1392"
     transform="matrix(1.3333333,0,0,-1.3333333,0,682.66667)"><g
       id="g1394"><g
         id="g1396"
         clip-path="url(#clipPath1400)"><g
           id="g1402"
           transform="translate(408.4482,152.1655)"><path
             d="M 0,0 C 3.316,15.255 -6.374,30.337 -21.657,33.654 -36.913,36.97 -51.966,27.281 -55.311,12.025 l -32.616,-88.186"
             style="fill:none;stroke:#D9A02D;stroke-width:15;stroke-linecap:round;stroke-linejoin:round;stroke-miterlimit:10;stroke-dasharray:none;stroke-opacity:1"
             id="path1404" /></g><g
           id="g1406"
           transform="translate(408.4482,152.1655)"><path
             d="M 0,0 -65.059,-81.554"
             style="fill:none;stroke:#D9A02D;stroke-width:15;stroke-linecap:round;stroke-linejoin:round;stroke-miterlimit:10;stroke-dasharray:none;stroke-opacity:1"
             id="path1408" /></g><g
           id="g1410"
           transform="translate(408.4482,152.1655)"><path
             d="m 0,0 c 11.045,11.045 28.953,11.045 39.998,0 11.045,-11.045 11.045,-28.953 0,-39.998"
             style="fill:none;stroke:#D9A02D;stroke-width:15;stroke-linecap:round;stroke-linejoin:round;stroke-miterlimit:10;stroke-dasharray:none;stroke-opacity:1"
             id="path1412" /></g><g
           id="g1414"
           transform="translate(448.4463,112.1675)"><path
             d="M 0,0 -81.554,-65.059"
             style="fill:none;stroke:#D9A02D;stroke-width:15;stroke-linecap:round;stroke-linejoin:round;stroke-miterlimit:10;stroke-dasharray:none;stroke-opacity:1"
             id="path1416" /></g><g
           id="g1418"
           transform="translate(448.4463,112.1675)"><path
             d="M 0,0 C 15.255,3.316 30.337,-6.374 33.654,-21.629 36.97,-36.913 27.281,-51.966 12.025,-55.283 l -88.186,-32.644"
             style="fill:none;stroke:#D9A02D;stroke-width:15;stroke-linecap:round;stroke-linejoin:round;stroke-miterlimit:10;stroke-dasharray:none;stroke-opacity:1"
             id="path1420" /></g><g
           id="g1422"
           transform="translate(370.7568,22.4238)"><path
             d="m 0,0 c -14.361,-14.361 -37.691,-14.361 -52.052,0 -14.362,14.39 -14.362,37.691 0,52.052 5.739,5.739 15.082,5.739 20.821,0 L 0,20.821 C 5.739,15.111 5.739,5.739 0,0 Z"
             style="fill:none;stroke:#D9A02D;stroke-width:15;stroke-linecap:round;stroke-linejoin:round;stroke-miterlimit:10;stroke-dasharray:none;stroke-opacity:1"
             id="path1424" /></g><g
           id="g1426"
           transform="translate(195.3071,222.1841)"><path
             d="M 0,0 27.223,57.964 M 84.841,0.346 26.877,-26.877"
             style="fill:none;stroke:#D9A02D;stroke-width:15;stroke-linecap:round;stroke-linejoin:round;stroke-miterlimit:10;stroke-dasharray:none;stroke-opacity:1"
             id="path1428" /></g><g
           id="g1430"
           transform="translate(136.3335,163.2104)"><path
             d="M 0,0 -29.271,-29.299 -2.422,-56.147 85.851,32.097 58.974,58.974 23.964,23.964 m 87.927,251.582 C 82.13,245.757 69.269,205.21 73.335,166.164 c 2.307,-22.032 9.286,-36.595 12.861,-49.226 10.065,-24.887 28.406,-44.613 57.618,-57.619 12.632,-3.575 27.195,-10.554 49.227,-12.861 39.046,-4.066 79.593,8.795 109.382,38.556 l 26.445,26.444 c 52.398,52.399 52.398,138.134 0,190.533 -52.399,52.398 -138.134,52.398 -190.533,0"
             style="fill:none;stroke:#D9A02D;stroke-width:15;stroke-linecap:round;stroke-linejoin:round;stroke-miterlimit:10;stroke-dasharray:none;stroke-opacity:1"
             id="path1432" /></g><g
           id="g1434"
           transform="translate(73.438,116.3486)"><path
             d="M 0,0 42.911,-42.911 M 17.332,-68.49 -25.579,-25.579"
             style="fill:none;stroke:#D9A02D;stroke-width:15;stroke-linecap:round;stroke-linejoin:round;stroke-miterlimit:10;stroke-dasharray:none;stroke-opacity:1"
             id="path1436" /></g><g
           id="g1438"
           transform="translate(107.063,133.9111)"><path
             d="m 0,0 26.848,-26.848 c 4.412,-4.412 4.412,-11.651 0,-16.034 l -74.661,-74.661 c -11.795,-11.824 -31.087,-11.824 -42.882,0 -11.824,11.794 -11.824,31.087 0,42.881 L -16.034,0 C -11.65,4.412 -4.412,4.412 0,0 Z"
             style="fill:none;stroke:#D9A02D;stroke-width:15;stroke-linecap:round;stroke-linejoin:round;stroke-miterlimit:10;stroke-dasharray:none;stroke-opacity:1"
             id="path1440" /></g><g
           id="g1442"
           transform="translate(394.8076,462.9229)"><path
             d="M 0,0 -144.305,-144.305"
             style="fill:none;stroke:#D9A02D;stroke-width:15;stroke-linecap:round;stroke-linejoin:round;stroke-miterlimit:10;stroke-dasharray:none;stroke-opacity:1"
             id="path1444" /></g><g
           id="g1446"
           transform="translate(438.0645,438.0645)"><path
             d="M 0,0 -162.704,-162.704"
             style="fill:none;stroke:#D9A02D;stroke-width:15;stroke-linecap:round;stroke-linejoin:round;stroke-miterlimit:10;stroke-dasharray:none;stroke-opacity:1"
             id="path1448" /></g><g
           id="g1450"
           transform="translate(462.9229,394.8076)"><path
             d="M 0,0 -144.305,-144.305"
             style="fill:none;stroke:#D9A02D;stroke-width:15;stroke-linecap:round;stroke-linejoin:round;stroke-miterlimit:10;stroke-dasharray:none;stroke-opacity:1"
             id="path1452" /></g><g
           id="g1454"
           transform="translate(335.0845,459.6929)"><path
             d="M 0,0 124.608,-124.608"
             style="fill:none;stroke:#D9A02D;stroke-width:15;stroke-linecap:round;stroke-linejoin:round;stroke-miterlimit:10;stroke-dasharray:none;stroke-opacity:1"
             id="path1456" /></g><g
           id="g1458"
           transform="translate(288.5977,424.8281)"><path
             d="M 0,0 136.23,-136.23"
             style="fill:none;stroke:#D9A02D;stroke-width:15;stroke-linecap:round;stroke-linejoin:round;stroke-miterlimit:10;stroke-dasharray:none;stroke-opacity:1"
             id="path1460" /></g><g
           id="g1462"
           transform="translate(253.7324,378.3701)"><path
             d="M 0,0 124.638,-124.638"
             style="fill:none;stroke:#D9A02D;stroke-width:15;stroke-linecap:round;stroke-linejoin:round;stroke-miterlimit:10;stroke-dasharray:none;stroke-opacity:1"
             id="path1464" /></g><g
           id="g1466"
           transform="translate(411.6201,275.3608)"><path
             d="m 0,0 c -37.46,-37.46 -98.77,-37.46 -136.259,0 -37.461,37.489 -37.461,98.799 0,136.259 l 26.445,26.445 c 37.46,37.46 98.798,37.46 136.258,0 37.461,-37.461 37.461,-98.799 0,-136.26 z"
             style="fill:none;stroke:#D9A02D;stroke-width:15;stroke-linecap:round;stroke-linejoin:round;stroke-miterlimit:10;stroke-dasharray:none;stroke-opacity:1"
             id="path1468" /></g></g></g></g></svg>
