<?xml version="1.0" encoding="utf-8"?>
<!-- Generator: Adobe Illustrator 18.0.0, SVG Export Plug-In . SVG Version: 6.00 Build 0)  -->
<!DOCTYPE svg PUBLIC "-//W3C//DTD SVG 1.1//EN" "http://www.w3.org/Graphics/SVG/1.1/DTD/svg11.dtd">
<svg version="1.1" id="Layer_1" xmlns="http://www.w3.org/2000/svg" xmlns:xlink="http://www.w3.org/1999/xlink" x="0px" y="0px"
	 viewBox="0 0 512 512" enable-background="new 0 0 512 512" xml:space="preserve">
<g>
	<path fill="#D9A02D" d="M512,289c0-0.2,0-0.4-0.1-0.6c-0.1-0.4-0.1-0.7-0.3-1.1c0-0.1,0-0.2-0.1-0.3l-40-109
		c-1-2.8-3.6-4.6-6.6-4.6H319.5l-9.9-7.8c22.2-29.6,16.2-71.6-13.4-93.8c-29.6-22.2-71.6-16.2-93.8,13.4
		c-17.9,23.8-17.9,56.6,0,80.4l-9.9,7.8H47c-2.9,0-5.6,1.8-6.6,4.6l-40,109c0,0.1,0,0.2-0.1,0.3c-0.1,0.3-0.2,0.7-0.3,1.1
		c0,0.2,0,0.4-0.1,0.6s0,0.3,0,0.4v157c0,3.9,3.1,7,7,7h498c3.9,0,7-3.1,7-7v-157C512,289.3,512,289.1,512,289z M460.1,187.4
		l34.9,95H364.8v-69.9c0-2.1-1-4.2-2.7-5.5l-24.8-19.5H460.1z M211.9,176c25.2,22.2,62.9,22.2,88.1,0l50.7,39.9v15.9H161.2v-15.9
		L211.9,176z M256,72.6c29.3,0,53,23.7,53,53s-23.7,53-53,53c-29.3,0-53-23.7-53-53C203,96.3,226.7,72.6,256,72.6z M51.9,187.4
		h122.8L149.9,207c-1.7,1.3-2.7,3.4-2.7,5.5v69.9H17L51.9,187.4z M14,296.4h133.2v143H14V296.4z M161.2,289.4v-43.6h189.6v193.6
		h-37.5v-94.6c0-14.9-12.1-27-27-27h-60.5c-14.9,0-27,12.1-27,27v94.6h-37.6V289.4z M212.8,344.8c0-7.2,5.8-13,13-13H249v107.6
		h-36.2L212.8,344.8z M263,439.4V331.9h23.3c7.2,0,13,5.8,13,13v94.6H263z M498,439.4H364.8v-143H498V439.4z"/>
	<path fill="#D9A02D" d="M122.2,314.4H39c-3.9,0-7,3.1-7,7c0,0,0,0,0,0v57c0,3.9,3.1,7,7,7h83.2c3.9,0,7-3.1,7-7v-57
		C129.2,317.5,126.1,314.4,122.2,314.4C122.2,314.4,122.2,314.4,122.2,314.4z M115.2,371.4H46v-43h69.2V371.4z"/>
	<path fill="#D9A02D" d="M389.8,385.4H473c3.9,0,7-3.1,7-7v-57c0-3.9-3.1-7-7-7h-83.2c-3.9,0-7,3.1-7,7v57
		C382.8,382.3,385.9,385.4,389.8,385.4z M396.8,328.4H466v43h-69.2V328.4z"/>
	<path fill="#D9A02D" d="M251.4,97.2h3c3.9,0,7-3.1,7-7s-3.1-7-7-7h-3c-3.9,0-7,3.1-7,7S247.5,97.2,251.4,97.2L251.4,97.2z"/>
	<path fill="#D9A02D" d="M281.4,112.2h3c3.9,0,7-3.1,7-7s-3.1-7-7-7h-3c-3.9,0-7,3.1-7,7S277.5,112.2,281.4,112.2z"/>
	<path fill="#D9A02D" d="M258.3,115.6c-3.9,0-7,3.1-7,7c0,3.9,3.1,7,7,7h3c3.9,0,7-3.1,7-7s-3.1-7-7-7L258.3,115.6z"/>
</g>
</svg>
