<?xml version="1.0" encoding="utf-8"?>
<!-- Generator: Adobe Illustrator 18.0.0, SVG Export Plug-In . SVG Version: 6.00 Build 0)  -->
<!DOCTYPE svg PUBLIC "-//W3C//DTD SVG 1.1//EN" "http://www.w3.org/Graphics/SVG/1.1/DTD/svg11.dtd">
<svg version="1.1" id="Layer_1" xmlns="http://www.w3.org/2000/svg" xmlns:xlink="http://www.w3.org/1999/xlink" x="0px" y="0px"
	 viewBox="0 0 512 512" enable-background="new 0 0 512 512" xml:space="preserve">
<g>
	<path fill="#D9A02D" d="M355.6,324h2.8c4,0,6.8-3.2,6.8-6.8c0-4-3.2-6.8-6.8-6.8h-2.8c-4,0-6.8,3.2-6.8,6.8
		C348.8,321.2,352,324,355.6,324z"/>
	<path fill="#D9A02D" d="M385.2,339.2h2.8c4,0,6.8-3.2,6.8-6.8s-3.2-6.8-6.8-6.8h-2.8c-4,0-6.8,3.2-6.8,6.8S381.6,339.2,385.2,339.2
		z"/>
	<path fill="#D9A02D" d="M362.4,342.4c-4,0-6.8,3.2-6.8,6.8s3.2,6.8,6.8,6.8h2.8c4,0,6.8-3.2,6.8-6.8s-3.2-6.8-6.8-6.8H362.4z"/>
	<path fill="#D9A02D" d="M424.8,367.6c8.4-35.6-13.6-71.6-49.2-80c-35.2-8.4-70.8,13.2-79.6,48.4c-30.4-8-61.2-12.4-92.8-12.8v-78.8
		l183.2-83.2c3.6-1.6,5.2-5.6,3.6-9.2c-0.8-1.6-2-2.8-3.6-3.6L203.2,65.2V46.4h2.4c12.4,0,22.8-10.4,22.8-22.8S218,0.8,205.6,0.8
		h-58c-12.4,0-22.8,10.4-22.8,22.8s10.4,22.8,22.8,22.8h2.4V326C62.4,336,2,373.2,2,417.2c0,52.8,85.6,94,195.2,94
		c67.6,0,130.8-16.8,166-44c10,1.2,19.6,1.6,29.6,1.6c66.8,0,117.2-22.4,117.2-51.6C510,393.2,476,373.6,424.8,367.6L424.8,367.6z
		 M203.2,80.4l163.6,74.4l-163.6,74.4V80.4z M360.4,299.6c29.2,0,52.4,23.6,52.4,52.4c0,29.2-23.6,52.4-52.4,52.4
		c-29.2,0-52.4-23.6-52.4-52.4C307.6,323.2,331.2,300,360.4,299.6z M102.8,417.2c0-8.4,18-19.6,47.2-24v48
		C120.4,436.8,102.8,425.6,102.8,417.2z M203.2,393.2c29.2,4.4,47.2,15.2,47.2,24s-18,19.6-47.2,24V393.2z M138.8,23.6
		c0-4.8,4-8.8,8.8-8.8h58c4.8,0,8.8,4,8.8,8.8s-4,8.8-8.8,8.8h-58C142.8,32.4,138.8,28.4,138.8,23.6z M189.6,46.4v396.4
		c-8.4,0.4-17.2,0.4-25.6,0V46.4L189.6,46.4z M392.8,454.8c-10.4,0-20.4-0.8-30.8-2c-2-0.4-3.6,0.4-5.2,1.6
		c-32,26.4-93.2,42.8-159.6,42.8C98.8,497.2,16,460.4,16,416.8c0-36,56-68,133.6-77.6v39.6c-37.2,5.2-61.2,19.6-61.2,38
		c0,19.2,26,34.4,66.8,38.8h0.4c6.8,0.8,13.6,1.2,20.4,1.2s13.6-0.4,20.4-1.2h0.4c40.8-4.4,66.8-19.6,66.8-38.8
		c0-18.4-23.6-32.8-61.2-38v-42c30.8,0.4,61.2,4.4,90.4,12.8v2.8c0,36.8,29.6,66.4,66.4,66.4c25.6,0,49.2-14.8,60-38
		c47.6,5.2,76,22,76,36.4C496,435.2,453.6,454.8,392.8,454.8L392.8,454.8z"/>
</g>
</svg>
