<?xml version="1.0" encoding="utf-8"?>
<!-- Generator: Adobe Illustrator 18.0.0, SVG Export Plug-In . SVG Version: 6.00 Build 0)  -->
<!DOCTYPE svg PUBLIC "-//W3C//DTD SVG 1.1//EN" "http://www.w3.org/Graphics/SVG/1.1/DTD/svg11.dtd">
<svg version="1.1" id="outline" xmlns="http://www.w3.org/2000/svg" xmlns:xlink="http://www.w3.org/1999/xlink" x="0px" y="0px"
	 viewBox="0 0 512 512" enable-background="new 0 0 512 512" xml:space="preserve">
<path fill="#D9A02D" d="M325.4,283.3L277.2,261c-29.3-13.5-66.3,0.8-93.1,32.5l-42.1-23c-9.3-4.3-22.5,3.6-28.7,17.1
	c-3,6.2-4.1,13.2-3.1,20.1c0.5,5.3,3.6,10,8.3,12.6l38.9,21.3c-16.1,48.6-4,97.2,30.3,113.1l48.2,22.2c7.6,3.5,15.8,5.3,24.1,5.2
	c13.9-0.3,27.4-4.4,39.1-11.7c22.3-14,39.9-34.4,50.5-58.6C374.3,358.6,363.4,300.8,325.4,283.3z M126.4,306.5
	c-0.2-0.5-0.3-1-0.4-1.5c-0.4-3.7,0.3-7.4,1.9-10.7c1.5-3.9,4.4-7.1,8.1-9l38.5,21c-4.1,6.2-7.8,12.8-10.9,19.6
	c-0.1,0.2-0.2,0.4-0.3,0.6L126.4,306.5z M178,332.8c21-45.4,62.4-71.1,92.5-57.2l11.8,5.5c-7,2.1-13.8,5-20.1,8.8
	c-22.3,14-39.9,34.4-50.5,58.5c-11.5,23.7-15.6,50.3-11.8,76.4c1.2,7.2,3.4,14.3,6.4,21l-11.7-5.4C164.4,426.4,157,378.2,178,332.8z
	 M335.1,405.3c-9.3,21.2-24.6,39.1-44.2,51.5c-14.1,9.9-32.3,12-48.3,5.7c-15.2-8.2-25.3-23.4-27-40.5c-3.2-22.9,0.4-46.2,10.6-67
	c9.3-21.2,24.6-39.1,44.2-51.5c9.3-5.9,20-9.1,30.9-9.4c6,0,11.9,1.2,17.4,3.7C348.7,311.6,356.1,359.9,335.1,405.3z"/>
<path fill="#D9A02D" d="M132.9,378.7c-12.6,6.5-27.4,7.1-40.4,1.6c-17.4-8-27.9-28.5-28.3-54.9c-0.1-4.4-3.6-7.9-8-7.9h-0.1
	c-4.4,0.1-8,3.7-7.9,8.1c0,0,0,0,0,0c0,13.1,2.8,26,8,37.9l-11.9-5.5c-15.2-8.2-25.3-23.4-27-40.5c-3.2-22.9,0.4-46.2,10.6-67
	c9.3-21.2,24.6-39.1,44.2-51.5c14.1-9.8,32.3-12,48.3-5.7c0.2,0.1,0.3,0.2,0.5,0.2l11.6,5.3c-32,11.4-57.8,35.8-70.9,67.2
	c-4.7,10-8.2,20.6-10.5,31.4c-0.9,4.3,1.8,8.6,6.2,9.5c0.6,0.1,1.1,0.2,1.7,0.2c3.8,0,7-2.7,7.8-6.3c2.1-9.6,5.2-19,9.3-28
	c21-45.4,62.5-71.1,92.5-57.2c15.9,8.6,26.2,24.8,27.3,42.8c0.6,4.4,4.7,7.4,9.1,6.8c4.4-0.6,7.4-4.7,6.8-9.1l0,0
	c-2-23.4-15.7-44.1-36.5-55.1l-48.2-22.3c-0.2-0.1-0.4-0.2-0.5-0.2c-20.7-8.3-44.2-5.8-62.7,6.7c-22.3,14-39.9,34.4-50.5,58.5
	c-24.7,53.5-13.8,111.3,24.2,128.8l48.2,22.2c7.5,3.4,15.7,5.2,24,5.1c10.3-0.1,20.4-2.4,29.7-6.7c4-1.8,5.8-6.5,4-10.6
	C141.7,378.7,136.9,376.9,132.9,378.7z"/>
<path fill="#D9A02D" d="M376.1,326c-4.4,0.1-8,3.7-7.9,8.1s3.7,8,8.1,7.9l0,0h0.2c32.1-0.8,57.5-27.5,56.7-59.6
	c-0.8-32.1-27.5-57.5-59.6-56.7c-22.6,0.6-42.9,14.2-51.9,35c-1.8,4.1,0.1,8.8,4.1,10.5s8.8-0.1,10.5-4.1
	c9.3-21.4,34.1-31.2,55.5-21.9c21.4,9.3,31.2,34.1,21.9,55.5C407.2,315.7,392.5,325.6,376.1,326L376.1,326z"/>
<path fill="#D9A02D" d="M498.4,69.4c-15.7-24.8-43.1-39.7-72.4-39.7H325c-47.5,0-85.9,38.5-85.9,85.9c0,12.5,2.7,24.8,8,36.1
	l27,58.2c-6.1,8.4-11.2,17.5-15.1,27.2c-1.6,4.1,0.5,8.7,4.7,10.3c4,1.5,8.5-0.4,10.2-4.4c3.8-9.6,9-18.5,15.3-26.6
	c0.1-0.1,0.2-0.2,0.2-0.3c7.1-9,15.5-16.9,25.1-23.2l0,0c0.1,0,0.1-0.1,0.2-0.1c50.3-33.2,118.1-19.3,151.3,31.1
	s19.3,118.1-31.1,151.3c-1.5,1-3,1.9-4.6,2.8h-54.7c-4.4,0-8,3.6-8,8c0,4.4,3.6,8,8,8h56.8c1.4,0,2.7-0.4,3.9-1.1
	c60.2-33.6,81.7-109.6,48.1-169.8c-2.3-4.2-4.9-8.3-7.7-12.2l27.4-59.2C516.4,125.2,514.3,94.1,498.4,69.4z M489.5,145.1l-24.2,52.3
	c-4.8-5-10-9.6-15.6-13.7l21.7-46.9c11.6-25,0.7-54.7-24.3-66.3c-6.6-3.1-13.8-4.6-21-4.6h-10c-4.4,0-8,3.6-8,8c0,4.4,3.6,8,8,8h10
	c18.8,0,34,15.2,34,33.9c0,4.9-1.1,9.8-3.2,14.3l-20.7,44.7c-37.7-21.2-83.6-21.4-121.5-0.5L294.2,130c-7.9-17-0.5-37.2,16.5-45.1
	c4.5-2.1,9.4-3.2,14.3-3.2h67.1c4.4,0,8-3.6,8-8s-3.6-8-8-8H325c-27.6,0-50,22.4-50,50c0,7.2,1.6,14.4,4.6,21l21.4,46.2
	c-5.6,4.1-10.8,8.7-15.7,13.6l-23.8-51.4c-16.2-35-1-76.6,34-92.8c9.2-4.3,19.3-6.5,29.4-6.5H426c38.6,0,69.9,31.3,69.9,69.9
	C496,125.8,493.7,135.8,489.5,145.1L489.5,145.1z"/>
</svg>
