<?xml version="1.0" encoding="utf-8"?>
<!-- Generator: Adobe Illustrator 18.0.0, SVG Export Plug-In . SVG Version: 6.00 Build 0)  -->
<!DOCTYPE svg PUBLIC "-//W3C//DTD SVG 1.1//EN" "http://www.w3.org/Graphics/SVG/1.1/DTD/svg11.dtd">
<svg version="1.1" id="Icons" xmlns="http://www.w3.org/2000/svg" xmlns:xlink="http://www.w3.org/1999/xlink" x="0px" y="0px"
	 viewBox="0 0 512 512" enable-background="new 0 0 512 512" xml:space="preserve">
<path fill="#D9A02D" d="M416.3,509.3c-0.8,0-1.6,0-2.4-0.1c-10-0.7-19.2-5.5-25.5-13.3l-80.1-99.3c-2.7-3.4-6.5-5.7-10.7-6.6
	l-62.5-13.7l-10.8,42.1c-3.5,13.7-12.8,25.1-25.4,31.3l-95.5,46.7c-18.1,9.6-40.6,2.6-50.2-15.5c-9.6-18.1-2.6-40.6,15.5-50.2
	c0.7-0.4,1.3-0.7,2-1l85.8-38.6l29.4-101.5l13.9,4l-30.4,104.7c-0.6,2-2,3.7-4,4.6l-88.8,40c-11.4,5.2-16.5,18.6-11.3,30
	c5.2,11.4,18.6,16.5,30,11.3c0.5-0.2,0.9-0.4,1.4-0.7l95.7-46.8c8.8-4.3,15.3-12.3,17.8-21.9l12.5-48.9c1-3.8,4.7-6.1,8.6-5.3
	l69.3,15.2c7.4,1.6,14.1,5.8,18.9,11.7l80.1,99.3c7.4,9.3,20.8,10.8,30.1,3.4s10.8-20.8,3.4-30.1l-88.5-112.6
	c-3.1-4-7.5-6.9-12.4-8.2l-41-11.2c-3.8-1-6.1-4.9-5.1-8.7l28.8-114.8c0.8-3.1,3.6-5.4,6.8-5.5l61.7-1.9c12.7-0.4,24-8.1,29-19.7
	l34.3-79.2c4.4-10-0.2-21.7-10.2-26.1c-9.9-4.3-21.4,0-25.9,9.8l-26.5,56.3c-3.9,8.3-11.9,14-21.1,14.9l-35.5,3.6
	c-2.5,0.3-5.1,0.1-7.6-0.4l-72.2-14.2c-6.6-1.3-13.4-1.7-20.1-1.1l-74.2,6.5c-10.7,0.9-20.5,6.5-26.7,15.3l-43.3,61.1
	c-6.6,9.4-4.3,22.3,5.1,28.8c9.4,6.6,22.3,4.3,28.8-5.1c0.1-0.2,0.2-0.3,0.4-0.5l35.4-54.6c1.2-1.9,3.3-3.1,5.5-3.3l62.6-4.9
	c4-0.3,7.5,2.7,7.8,6.7c0.1,0.9,0,1.7-0.3,2.6L208,265.9l-13.9-4l18-62.1l-48.6,3.8l-33.4,51.6c-10.7,16.2-32.5,20.7-48.7,10
	c-16.2-10.7-20.7-32.5-10-48.7c0.2-0.3,0.3-0.5,0.5-0.8l43.3-61.1c8.7-12.3,22.3-20.1,37.2-21.4l74.2-6.5c8.1-0.7,16.2-0.3,24.2,1.3
	l72.2,14.2c1.1,0.2,2.3,0.3,3.4,0.2l35.5-3.6c4.1-0.4,7.7-2.9,9.4-6.7l26.5-56.3c8.1-17.1,28.5-24.4,45.7-16.3
	c16.7,7.9,24.1,27.6,16.8,44.6l-34.4,79.2c-7.3,16.8-23.6,27.8-41.9,28.4l-56.2,1.8L302,316.1l34.2,9.3c7.9,2.2,14.9,6.8,20,13.2
	l88.5,112.5c12.2,15.6,9.5,38.1-6,50.4C432.2,506.6,424.4,509.3,416.3,509.3z"/>
<path fill="#D9A02D" d="M299,113c-30.4,0.1-55.2-24.5-55.3-55c-0.1-30.4,24.5-55.2,55-55.3c30.4-0.1,55.2,24.5,55.3,55
	c0,0.1,0,0.2,0,0.3C353.8,88.3,329.3,112.9,299,113z M299,17.2c-22.5-0.1-40.7,18.1-40.8,40.5s18.1,40.7,40.5,40.8
	c22.5,0.1,40.7-18.1,40.8-40.5C339.5,35.6,321.4,17.4,299,17.2z"/>
</svg>
