<?xml version="1.0" encoding="utf-8"?>
<!-- Generator: Adobe Illustrator 18.0.0, SVG Export Plug-In . SVG Version: 6.00 Build 0)  -->
<!DOCTYPE svg PUBLIC "-//W3C//DTD SVG 1.1//EN" "http://www.w3.org/Graphics/SVG/1.1/DTD/svg11.dtd">
<svg version="1.1" id="Capa_1" xmlns="http://www.w3.org/2000/svg" xmlns:xlink="http://www.w3.org/1999/xlink" x="0px" y="0px"
	 viewBox="0 0 512 512" enable-background="new 0 0 512 512" xml:space="preserve">
<g>
	<g>
		<path fill="#D9A02D" d="M197.8,293.9c25.6,0,46.5-20.8,46.5-46.5c0-25.6-20.8-46.5-46.5-46.5s-46.5,20.8-46.5,46.5
			C151.3,273.1,172.1,293.9,197.8,293.9L197.8,293.9z M197.8,216c17.4,0,31.5,14.1,31.5,31.5s-14.1,31.5-31.5,31.5
			s-31.5-14.1-31.5-31.5S180.4,216,197.8,216z"/>
		<path fill="#D9A02D" d="M499.5,393.5h-22.8c-11.5,0-22.2-6.7-27.1-17.2l-49.9-105.5c-7.4-15.6-23.4-25.8-40.7-25.8h-54.1v-88.3
			c0-0.1,0-0.2,0-0.3c0-0.1,0-0.2,0-0.3c0-0.3-0.1-0.6-0.1-0.9c0,0,0,0,0,0c-0.1-0.3-0.2-0.7-0.3-1c0-0.1,0-0.1-0.1-0.2
			c-0.1-0.3-0.2-0.6-0.4-0.9c0,0,0,0,0,0c-0.2-0.3-0.3-0.6-0.5-0.8c0-0.1-0.1-0.1-0.1-0.2c-0.2-0.3-0.4-0.5-0.7-0.8v0l-31.8-31.8
			c-2.9-2.9-7.7-2.9-10.6,0c-2.9,2.9-2.9,7.7,0,10.6l19,19H116.3l81.5-81.3l29.9,29.9c2.9,2.9,7.7,2.9,10.6,0
			c2.9-2.9,2.9-7.7,0-10.6l-31.5-31.5c-5-5-13-5-18,0l-95.9,95.7l0,0c-0.2,0.2-0.5,0.5-0.7,0.8c0,0.1-0.1,0.1-0.1,0.2
			c-0.2,0.3-0.4,0.5-0.5,0.8c0,0,0,0,0,0.1c-0.1,0.3-0.3,0.6-0.4,0.9c0,0.1,0,0.1-0.1,0.2c-0.1,0.3-0.2,0.6-0.3,1c0,0,0,0,0,0
			c-0.1,0.3-0.1,0.6-0.1,0.9c0,0.1,0,0.2,0,0.3c0,0.1,0,0.2,0,0.3V245H31.8C14.3,245,0,259.2,0,276.8v175.7c0,4.1,3.4,7.5,7.5,7.5
			s7.5-3.4,7.5-7.5v-20.6h75.7v14.7c0,6.9,5.6,12.5,12.5,12.5h41.3c6.9,0,12.5-5.6,12.5-12.5V345.7h81.7v24.1c0,4.1,3.4,7.5,7.5,7.5
			c4.1,0,7.5-3.4,7.5-7.5v-24.1h36.3v98.4h-36.3v-27.8c0-4.1-3.4-7.5-7.5-7.5c-4.1,0-7.5,3.4-7.5,7.5v30.3c0,6.9,5.6,12.5,12.5,12.5
			h41.3c6.9,0,12.5-5.6,12.5-12.5V338.2v-24h6.6c11.7,0,22.4,6.9,27.3,17.5l46.6,102c7.3,16,23.4,26.3,40.9,26.3h73.2
			c6.9,0,12.5-5.6,12.5-12.5V406C512,399.1,506.4,393.5,499.5,393.5L499.5,393.5z M90.7,416.9H15v-28.1h75.7V416.9z M90.7,373.8H15
			v-28.1h75.7V373.8z M90.7,330.8H15v-28.1h75.7V330.8z M90.7,287.7H15v-10.9c0-9.3,7.5-16.8,16.8-16.8h58.9V287.7z M141.9,444.1
			h-36.3v-98.4h36.3V444.1z M289.9,252.5v54.2v24h-43.8h-96.6h-43.8V164.2h184.2V252.5z M497,445h-70.7c-11.7,0-22.4-6.9-27.3-17.5
			l-46.6-102c-7.3-16-23.4-26.3-40.9-26.3h-6.6V260h54.1c11.5,0,22.2,6.7,27.1,17.2L436,382.7c7.4,15.7,23.4,25.8,40.7,25.8H497
			L497,445L497,445z"/>
	</g>
</g>
</svg>
