<?xml version="1.0" encoding="utf-8"?>
<!-- Generator: Adobe Illustrator 18.0.0, SVG Export Plug-In . SVG Version: 6.00 Build 0)  -->
<!DOCTYPE svg PUBLIC "-//W3C//DTD SVG 1.1//EN" "http://www.w3.org/Graphics/SVG/1.1/DTD/svg11.dtd">
<svg version="1.1" id="svg3795" xmlns:svg="http://www.w3.org/2000/svg"
	 xmlns="http://www.w3.org/2000/svg" xmlns:xlink="http://www.w3.org/1999/xlink" x="0px" y="0px" viewBox="0 0 682.7 682.7"
	 enable-background="new 0 0 682.7 682.7" xml:space="preserve">
<g id="g3805">
	<g id="g3811" transform="translate(46.8999,74.8525)">
		
			<path id="path3813" fill="none" stroke="#D9A02D" stroke-width="20" stroke-linecap="round" stroke-linejoin="round" stroke-miterlimit="10" d="
			M15.6,508V73.9c0-75.6,61.5-137.1,137.1-137.1S289.9-1.8,289.9,73.9v45c0,18.4-14.9,33.3-33.3,33.3c-18.4,0-33.3-14.9-33.3-33.3
			v-45c0-38.9-31.6-70.5-70.5-70.5c-38.9,0-70.5,31.6-70.5,70.5v134.8"/>
	</g>
	<g id="g3815" transform="translate(96.8999,92.0029)">
		
			<path id="path3817" fill="none" stroke="#D9A02D" stroke-width="20" stroke-linecap="round" stroke-linejoin="round" stroke-miterlimit="10" d="
			M32.3,468V399"/>
	</g>
	<g id="g3819" transform="translate(91.9312,257.1729)">
		
			<path id="path3821" fill="none" stroke="#D9A02D" stroke-width="20" stroke-linecap="round" stroke-linejoin="round" stroke-miterlimit="10" d="
			M30.6,82.6h259.8V26.3H30.6c-15.5,0-28.2,12.6-28.2,28.2C2.5,70,15.1,82.6,30.6,82.6z"/>
	</g>
	<g id="g3823" transform="translate(151.7598,185.9399)">
		
			<path id="path3825" fill="none" stroke="#D9A02D" stroke-width="20" stroke-linecap="round" stroke-linejoin="round" stroke-miterlimit="10" d="
			M50.6,248.8h180.1v56.3H-29.2c-7.8,0-14.8-3.1-19.9-8.2c-5.1-5.1-8.2-12.1-8.2-19.9c0-15.6,12.6-28.2,28.1-28.2h39.8"/>
	</g>
	<g id="g3827" transform="translate(46.8999,275.9927)">
		
			<path id="path3829" fill="none" stroke="#D9A02D" stroke-width="20" stroke-linecap="round" stroke-linejoin="round" stroke-miterlimit="10" d="
			M15.6,38.7h-52.5"/>
	</g>
	<g id="g3831" transform="translate(504.5,275.9927)">
		
			<path id="path3833" fill="none" stroke="#D9A02D" stroke-width="20" stroke-linecap="round" stroke-linejoin="round" stroke-miterlimit="10" d="
			M168.2,38.7H-54"/>
	</g>
	<g id="g3835" transform="translate(96.8999,185.9429)">
		
			<path id="path3837" fill="none" stroke="#D9A02D" stroke-width="20" stroke-linecap="round" stroke-linejoin="round" stroke-miterlimit="10" d="
			M32.3,248.8v-95"/>
	</g>
	<g id="g3839" transform="translate(337.9102,76.9102)">
		
			<path id="path3841" fill="none" stroke="#D9A02D" stroke-width="20" stroke-linecap="round" stroke-linejoin="round" stroke-miterlimit="10" d="
			M112.6,503.2V71.8c0-38.9,31.6-70.5,70.5-70.5c32,0,59.1,21.4,67.6,50.7"/>
	</g>
	<g id="g3843" transform="translate(287.9102,85.1602)">
		
			<path id="path3845" fill="none" stroke="#D9A02D" stroke-width="20" stroke-linecap="round" stroke-linejoin="round" stroke-miterlimit="10" d="
			M96,484V63.5c0-75.6,61.5-137.1,137.1-137.1c75.6,0,137.1,61.5,137.1,137.1v45c0,18.4-14.9,33.3-33.3,33.3s-33.3-14.9-33.3-33.3
			v-25"/>
	</g>
	<g id="g3847" transform="translate(7.5,35.7329)">
		
			<path id="path3849" fill="none" stroke="#D9A02D" stroke-width="20" stroke-linecap="round" stroke-linejoin="round" stroke-miterlimit="10" d="
			M2.5,599.3l21.6,19.2c25.5,22.6,63.8,22.6,89.2,0l21.6-19.2l21.6,19.2c25.5,22.6,63.8,22.6,89.2,0l21.6-19.2l21.6,19.2
			c25.5,22.6,63.8,22.6,89.2,0l21.6-19.2l21.6,19.2c25.5,22.6,63.8,22.6,89.2,0l21.6-19.2l21.6,19.2c25.5,22.6,63.8,22.6,89.2,0
			l21.7-19.2"/>
	</g>
	<g id="g3851" transform="translate(7.5,100.8516)">
		
			<path id="path3853" fill="none" stroke="#D9A02D" stroke-width="20" stroke-linecap="round" stroke-linejoin="round" stroke-miterlimit="10" d="
			M2.5,447.3l21.6,19.2c25.5,22.6,63.8,22.6,89.2,0l21.6-19.2l21.6,19.2c25.5,22.6,63.8,22.6,89.2,0l21.6-19.2l21.6,19.2
			c25.5,22.6,63.8,22.6,89.2,0l21.6-19.2l21.6,19.2c25.5,22.6,63.8,22.6,89.2,0l21.6-19.2l21.6,19.2c25.5,22.6,63.8,22.6,89.2,0
			l21.7-19.2"/>
	</g>
</g>
</svg>
