<?xml version="1.0" encoding="utf-8"?>
<!-- Generator: Adobe Illustrator 18.0.0, SVG Export Plug-In . SVG Version: 6.00 Build 0)  -->
<!DOCTYPE svg PUBLIC "-//W3C//DTD SVG 1.1//EN" "http://www.w3.org/Graphics/SVG/1.1/DTD/svg11.dtd">
<svg version="1.1" id="Layer_1" xmlns="http://www.w3.org/2000/svg" xmlns:xlink="http://www.w3.org/1999/xlink" x="0px" y="0px"
	 viewBox="0 0 512 512" enable-background="new 0 0 512 512" xml:space="preserve">
<path fill="#D9A02D" d="M504.5,465.6h-28.9c6.7-9.1,9.4-20.7,7.3-32.2c-1.2-6.2-3.7-11.9-7.2-16.8c6.3-1.5,12.4-4.3,17.7-8.6
	c3-2.4,4.8-6,4.8-9.9c0.1-3.9-1.6-7.5-4.5-10l-69.4-59.3c-5.1-4.4-8.9-10-11.1-16.4l-16.2-48.4c0,0,0,0,0,0l-14.6-43.6
	c-6.6-19.8-22.4-35.3-42.3-41.5l-50.3-15.8c13.7-9.6,22.6-25.5,22.6-43.5V84.6c0-29.3-23.9-53.2-53.2-53.2s-53.2,23.8-53.2,53.2
	v34.9c0,17.1,8.1,32.4,20.7,42.1c-1.3,0.4-2.6,0.7-3.9,1.1l-51,16c-19.9,6.2-35.7,21.8-42.3,41.5l-30.8,92.1
	c-2.1,6.4-6,12.1-11.1,16.4l-69.4,59.4c-2.9,2.5-4.6,6.2-4.5,10s1.8,7.5,4.8,9.9c5.6,4.5,11.9,7.4,18.6,8.8
	c-6.3,11.6-7.5,25.6-2.6,38.4c1.5,3.9,3.4,7.3,5.7,10.4H7.5c-4.1,0-7.5,3.4-7.5,7.5c0,4.1,3.4,7.5,7.5,7.5h448.9h0h0h48.1
	c4.1,0,7.5-3.4,7.5-7.5C512,469,508.6,465.6,504.5,465.6z M333.8,290.6l26.5,65.9c0.1,0.4,0.3,0.7,0.5,1.1
	c4.7,7.8,11.4,14.3,19.3,18.7l8.8,4.9l-55.1-16.8V290.6z M414.6,340.2l67.4,57.6c-9,6-20.7,6.6-30.3,1.2l-64.3-35.8
	c-5.5-3.1-10.1-7.5-13.5-12.8l-23.6-58.8l35-15.3l13.7,40.8C402.1,326.1,407.4,334,414.6,340.2z M221.1,119.5V84.6
	c0-21,17.1-38.2,38.2-38.2s38.2,17.1,38.2,38.2v34.9c0,21-17.1,38.2-38.2,38.2S221.1,140.5,221.1,119.5z M176.4,193l51-16
	c18.7-5.9,38.5-5.9,57.2,0l51,16c15.3,4.8,27.5,16.8,32.6,32l12.4,37l-35.8,15.6l-11.5-28.6c-1.3-3.3-4.9-5.3-8.4-4.6
	c-3.5,0.7-6.1,3.8-6.1,7.4v110.6H193.2V251.9c0-3.6-2.5-6.7-6.1-7.4c-3.5-0.7-7,1.2-8.4,4.6l-10,24.8l-35.4-17.7l10.4-31.1
	C148.9,209.8,161.1,197.9,176.4,193z M97.4,340.2c7.2-6.1,12.6-14.1,15.6-23.1l15.6-46.6l34.6,17.3l-5.5,13.6
	c-1.5,3.8,0.3,8.2,4.2,9.8c3.8,1.5,8.2-0.3,9.8-4.2l6.6-16.3v73.7l-54,16.3l7.7-4.3c7.9-4.4,14.6-10.9,19.3-18.7
	c0.2-0.3,0.4-0.7,0.5-1.1l5.6-14c1.5-3.8-0.3-8.2-4.2-9.8c-3.8-1.5-8.2,0.3-9.8,4.2l-5.4,13.4c-3.3,5.3-8,9.8-13.5,12.8L60.3,399
	c-9.6,5.4-21.3,4.8-30.3-1.2L97.4,340.2z M71.7,465.6L71.7,465.6c-10.9,0-19.3-5.7-23.1-15.7c-4.3-11.3-1.4-24.6,7.1-33l131.1-39.4
	h138.4l124.5,38c9.7,3,16.6,10.7,18.5,20.7s-1.8,19.7-9.8,25.9l-4.5,3.5H295.4c-1-5.3-3.3-12.3-8.8-18.5l14.9-0.8
	c4.1-0.2,7.3-3.8,7.1-7.9c-0.2-4.1-3.8-7.3-7.9-7.1l-40.6,2.2c-1.7-0.3-3.5-0.6-5.4-0.8L139,420.7c-4.1-0.4-7.8,2.6-8.2,6.7
	c-0.4,4.1,2.6,7.8,6.7,8.2l115.7,12.1c1.8,0.2,3.4,0.4,4.9,0.7c0,0,0.1,0,0.1,0c15,2.9,20.2,11.1,22.1,17.1H71.7z"/>
<path fill="#D9A02D" d="M340,264.9c0.1,0,0.3,0,0.4,0l50.6-2.8c4.1-0.2,7.3-3.8,7.1-7.9s-3.8-7.3-7.9-7.1l-50.6,2.8
	c-4.1,0.2-7.3,3.8-7.1,7.9C332.8,261.8,336.1,264.9,340,264.9z"/>
</svg>
