<svg id="Layer_1" data-name="Layer 1" xmlns="http://www.w3.org/2000/svg" viewBox="0 0 65 65"><defs><style>.cls-1{fill:none;stroke:#595959;stroke-linecap:round;stroke-linejoin:round;}</style></defs><polyline class="cls-1" points="37.61 48.53 37.61 38.89 16.77 38.89 16.77 30.91 20.79 27.73 20.79 22.09 4.86 22.09 4.86 27.73 8.88 30.91 8.88 38.89 2.61 38.89 2.61 48.53"/><line class="cls-1" x1="10.97" y1="22.08" x2="10.97" y2="20.09"/><line class="cls-1" x1="14.49" y1="20.09" x2="7.46" y2="20.09"/><line class="cls-1" x1="16.25" y1="22.08" x2="16.25" y2="15.2"/><line class="cls-1" x1="0.52" y1="49.8" x2="64.48" y2="49.8"/><polyline class="cls-1" points="37.61 43.7 10.27 43.7 10.27 48.52"/><path class="cls-1" d="M31.53,30l.38,1.63,8.32,1.16L57,29a11.09,11.09,0,0,0,5.1-2.11,1.62,1.62,0,0,0,.72-1.42c-.21-1-2-1.12-2.8-1.19A12.2,12.2,0,0,1,58.71,24a7.86,7.86,0,0,0-2.8.27l-18.1,4.13A1.86,1.86,0,0,1,36.46,28L32.57,25.2a2.82,2.82,0,0,0-2.14-.7l-1.07.18c-.2.06-.22.22-.09.43l1.9,4Z"/><path class="cls-1" d="M60.06,24.34a1.23,1.23,0,0,1-.6.57l-3,.69"/><line class="cls-1" x1="52.33" y1="28.55" x2="42.67" y2="30.77"/><line class="cls-1" x1="58.4" y1="30.7" x2="59.2" y2="30.51"/><line class="cls-1" x1="44.76" y1="33.81" x2="48.39" y2="33"/><line class="cls-1" x1="35.04" y1="29.18" x2="29.95" y2="30.35"/><line class="cls-1" x1="4.86" y1="24.75" x2="20.91" y2="24.75"/><line class="cls-1" x1="16.79" y1="38.91" x2="11.99" y2="38.91"/></svg>