<svg id="Layer_1" data-name="Layer 1" xmlns="http://www.w3.org/2000/svg" viewBox="0 0 65 65"><defs><style>.cls-1{fill:none;stroke:#595959;stroke-linecap:round;stroke-linejoin:round;}</style></defs><path class="cls-1" d="M27.54,46.85h-18A6.82,6.82,0,0,1,2.71,40v-19a5,5,0,0,1,5-5H29.35a5,5,0,0,1,5,5h0V40a6.82,6.82,0,0,1-6.82,6.83Z"/><path class="cls-1" d="M22.69,13.26h-8.3a1.38,1.38,0,0,0-1.32,1l-.54,1.77h12L24,14.28A1.38,1.38,0,0,0,22.69,13.26Z"/><path class="cls-1" d="M25.26,20.08H11.82a4.08,4.08,0,0,0-4.07,4.08h0v5.42a4.08,4.08,0,0,0,4.07,4.08H25.26a4.07,4.07,0,0,0,4.06-4.08V24.17A4.08,4.08,0,0,0,25.26,20.08Z"/><ellipse class="cls-1" cx="9.64" cy="39.45" rx="2.63" ry="2.63"/><ellipse class="cls-1" cx="27.44" cy="39.45" rx="2.63" ry="2.63"/><path class="cls-1" d="M44.56,33.75a140.26,140.26,0,0,1,19.75-1.37"/><path class="cls-1" d="M.68,51.74A43.66,43.66,0,0,1,7,46.63"/><path class="cls-1" d="M33.38,43.94c7.6-3.71,18.43-6.45,30.94-7.65"/><path class="cls-1" d="M23.35,51.73c2.37-3.58,7-5.68,10-7.79"/><line class="cls-1" x1="3.38" y1="49.29" x2="25.3" y2="49.29"/><path class="cls-1" d="M32,16.92,42.53,22.4a4.85,4.85,0,0,1,2.17,4.45l-.14,6.9-.14,2.54"/><line class="cls-1" x1="42.07" y1="26.61" x2="42.07" y2="36.82"/><line class="cls-1" x1="38.74" y1="23.86" x2="38.74" y2="38.03"/></svg>