<svg xmlns="http://www.w3.org/2000/svg" viewBox="0 0 271.99 90.11"><defs><style>.cls-1,.cls-3{fill:#d7b56d;}.cls-1{fill-rule:evenodd;}.cls-2{fill:#fff;}</style></defs><g id="Layer_2" data-name="Layer 2"><g id="Layer_1-2" data-name="Layer 1"><path class="cls-1" d="M260.93,54l9.39-14.71h-8.4a4.19,4.19,0,0,0-2.9,2.15l-3.19,4.9Z"/><rect class="cls-2" width="58.09" height="70.81"/><path class="cls-3" d="M56.42,69.2H1.68V1.61H56.42Zm-53.73-1H55.4V2.63H2.69Z"/><polygon class="cls-3" points="29.31 32.84 28.32 31.98 29.58 31.48 29.31 32.84"/><path class="cls-1" d="M22.65,23.78a19.45,19.45,0,0,0,3.53,6.65,21.61,21.61,0,0,1,15.63-1.09,35.13,35.13,0,0,1-15,24.48l2.3,1.55a43.23,43.23,0,0,0,19.69-30,35,35,0,0,0-26.11-1.63"/><path class="cls-1" d="M25.06,41.79a19.83,19.83,0,0,0,4-6.38,21.68,21.68,0,0,1-8.76-13A35.16,35.16,0,0,1,49,23.19l.19-2.76a43.27,43.27,0,0,0-35.79-2.07A35,35,0,0,0,25.06,41.79"/><path class="cls-1" d="M39.45,30.7a19.79,19.79,0,0,0-7.53-.27,21.57,21.57,0,0,1-6.86,14.08A35.12,35.12,0,0,1,11.37,19.25L8.89,20.46A43.2,43.2,0,0,0,25,52.5,35,35,0,0,0,39.45,30.7"/><path class="cls-2" d="M270.72,71h-10l-5.52-8.28L250,71H240l10.29-15.67L239.74,39.48h10.11l20.23,30.39A5.85,5.85,0,0,1,270.72,71Z"/><path class="cls-2" d="M162.72,20.66,165,14.51c.68-1.81,1.49-4.66,1.54-4.66h0c.05,0,.86,2.85,1.54,4.66l2.26,6.15Zm11.89,11.62h8.18L170.13.63H163L150.29,32.28h8.18l1.81-5H172.8ZM146.63.63l-5.74,8.46c-.9,1.35-1.58,2.3-1.62,2.3h-.05a27.51,27.51,0,0,1-1.63-2.3L131.85.63h-8.5l12.12,17.63v14H143v-14L155.13.63Zm-38.51,20,2.26-6.15c.68-1.81,1.5-4.66,1.54-4.66h0s.86,2.85,1.53,4.66l2.26,6.15ZM120,32.28h8.18L115.54.63h-7.19L95.69,32.28h8.18l1.81-5H118.2ZM93.71,8.68A12.57,12.57,0,0,0,81.37,0C74.5,0,69.52,4.48,69.52,9.4c0,5.56,4.39,7.64,8.19,9.09,4.52,1.72,8.22,2.35,8.22,4.88,0,1.54-1.26,2.8-4,2.8a6.84,6.84,0,0,1-6.42-4.79l-7.28,1.95c2.08,5.92,6.78,9.58,13.38,9.58C89,32.91,94,28.8,94,23c0-5.43-4.93-8.09-9.63-9.81-3.84-1.4-7-2.17-7-4.25,0-1.27,1.32-2.4,3.58-2.4a5.57,5.57,0,0,1,5.47,4.12Z"/><path class="cls-2" d="M219.67,38.54V50.79H207.83V38.54h-7.59V70.18h7.59V57.88h11.84v12.3h7.6V38.54Zm-51.16,0v7.09H178V70.18h7.6V45.63h9.62V38.54Zm-12,0v17.4c0,5.43-2.22,7.78-6.38,7.78s-6.37-2.35-6.37-7.78V38.54h-7.59V56.12c0,9.49,5.56,14.69,14,14.69s14-5.2,14-14.69V38.54ZM105.64,54.36c0-5.34,3.39-9,8.5-9s8.54,3.61,8.54,9-3.39,9-8.54,9S105.64,59.65,105.64,54.36Zm-7.91,0a16.43,16.43,0,1,0,32.86,0,16.43,16.43,0,1,0-32.86,0Zm-4-7.78A12.57,12.57,0,0,0,81.37,37.9c-6.87,0-11.85,4.48-11.85,9.41,0,5.56,4.39,7.64,8.19,9.08,4.52,1.72,8.22,2.35,8.22,4.88,0,1.54-1.26,2.81-4,2.81a6.85,6.85,0,0,1-6.42-4.79l-7.28,1.94c2.08,5.92,6.78,9.58,13.38,9.58C89,70.81,94,66.7,94,60.91c0-5.42-4.93-8.09-9.63-9.81-3.84-1.4-7-2.17-7-4.25,0-1.26,1.32-2.39,3.58-2.39a5.56,5.56,0,0,1,5.47,4.11Z"/><path class="cls-2" d="M267.79,89.93h.73V80.66H272V80h-7.67v.68h3.47Zm-10.15.15c1.92,0,3.3-1.11,3.3-2.72v0c0-1.45-1-2.27-3.27-2.74s-2.9-1.12-2.9-2.18v0c0-1,1-1.88,2.43-1.88a4.29,4.29,0,0,1,3,1.12l.47-.58a5,5,0,0,0-3.41-1.21c-1.85,0-3.2,1.14-3.2,2.62v0c0,1.51,1,2.32,3.35,2.81s2.82,1.06,2.82,2.11v0c0,1.14-1,2-2.52,2a4.85,4.85,0,0,1-3.57-1.48l-.48.55A5.67,5.67,0,0,0,257.64,90.08Zm-14.77-.15H250v-.68h-6.42v-4h5.71v-.69h-5.71V80.66H250V80h-7.09ZM228.18,90h.6l2.91-8.65L234.61,90h.59l3.62-10h-.77l-3.13,8.86L232,80h-.57l-2.92,8.89L225.39,80h-.82Zm-22.13-3.53,2.63-5.76,2.62,5.76Zm-2.34,3.45h.76l1.27-2.78h5.87l1.27,2.78h.81l-4.64-10h-.71ZM193,89.25V80.66h2.57A4.26,4.26,0,0,1,200,85v0a4.22,4.22,0,0,1-4.52,4.26Zm-.74.68h3.31a5,5,0,0,0,5.29-5v0a5,5,0,0,0-5.29-5h-3.31Zm-5.67,0h.74V80h-.74Zm-9.47-.49A4.31,4.31,0,0,1,172.82,85v0A4.26,4.26,0,0,1,177,80.48,4.31,4.31,0,0,1,181.29,85v0A4.26,4.26,0,0,1,177.07,89.44Zm0,.67a5,5,0,0,0,5-5.15v0a5,5,0,1,0-10,0v0A5,5,0,0,0,177,90.11Zm-17.65-.18h.71V81.09l7,8.84h.55V80H167v8.66L160.08,80h-.69ZM140.3,85.14V80.66h3.4c1.8,0,2.86.84,2.86,2.18v0c0,1.43-1.24,2.27-2.9,2.27Zm-.74,4.79h.74V85.81h3.26l3.17,4.12h.94l-3.29-4.25c1.68-.22,2.92-1.18,2.92-2.84v0a2.63,2.63,0,0,0-.76-1.85,4,4,0,0,0-2.8-1h-4.18Zm-11.39,0h7.15v-.68H128.9v-4h5.71v-.69H128.9V80.66h6.35V80h-7.08Zm-8.33,0h.74V80.66h3.47V80h-7.68v.68h3.47Zm-13.09-3.45,2.63-5.76L112,86.48Zm-2.34,3.45h.76l1.27-2.78h5.87l1.27,2.78h.81l-4.64-10H109Zm-10.55,0H101v-.68H94.6v-4h5.7v-.69H94.6V80.66h6.34V80H93.86ZM82.45,85.14V80.66h3.4c1.81,0,2.86.84,2.86,2.18v0c0,1.43-1.24,2.27-2.9,2.27Zm-.73,4.79h.73V85.81h3.26l3.17,4.12h.94l-3.28-4.25c1.67-.22,2.91-1.18,2.91-2.84v0A2.62,2.62,0,0,0,88.7,81a4,4,0,0,0-2.8-1H81.72Zm-8.46.18a6,6,0,0,0,3.91-1.5V84.77h-4v.69h3.33v2.85a5,5,0,0,1-3.17,1.14A4.15,4.15,0,0,1,69,85v0a4.23,4.23,0,0,1,4.1-4.45,4.49,4.49,0,0,1,3.2,1.19l.49-.55a5.25,5.25,0,0,0-3.64-1.31A5,5,0,0,0,68.26,85v0A4.85,4.85,0,0,0,73.26,90.11Z"/></g></g></svg>