<?xml version="1.0" encoding="UTF-8"?><svg id="Layer_1" xmlns="http://www.w3.org/2000/svg" viewBox="0 0 193.28 106.83"><defs><style>.cls-1{fill:#0fa94d;}</style></defs><g><path class="cls-1" d="M159.5,54.62l-2.22-.94c-.65-.29-1.08-.75-1.08-1.47,0-.94,.85-1.73,2.09-1.73,1.95,0,2.51,1.37,2.51,2.44l4.01-.75c-.13-1.95-1.4-5.18-6.42-5.18-3.94,0-6.58,2.67-6.58,5.7,0,2.09,1.04,3.71,3.68,4.82l1.92,.85c1.01,.46,1.3,1.04,1.3,1.69,0,.88-.65,1.73-2.12,1.73-1.69,0-2.74-1.24-2.74-2.7,0-.07,0-.16,.03-.33l-3.94,.75c0,1.89,1.01,5.77,6.71,5.77,4.46,0,6.65-3,6.65-5.64,0-2.09-1.17-3.84-3.81-5.02"/><polygon class="cls-1" points="151.03 25.53 142.62 64.78 147.25 64.78 155.82 24.61 151.03 25.53"/><polygon class="cls-1" points="143.9 26.86 135.82 64.78 140.44 64.78 148.78 25.95 143.9 26.86"/><path class="cls-1" d="M137.31,47.55l-2.87,13.72c-.26,1.27-.39,2.25-.39,3.13v.39h-4.43c-.03-.2-.03-.59-.03-.75,0-.29,0-.52,.03-1.04-.91,1.43-2.74,2.22-4.3,2.22-3.68,0-5.64-2.41-5.64-5.64,0-.62,.07-1.3,.36-2.54l1.82-8.57,4.82-.91-1.99,9.32c-.16,.78-.23,1.3-.23,1.66,0,1.53,.81,2.57,2.57,2.57,1.92,0,3.1-1.56,3.52-3.55l1.99-9.12,4.76-.88Z"/><path class="cls-1" d="M112.13,47.16c-1.95,0-3.68,.75-4.63,1.79l3.39-15.9-4.69,.88-2.8,13.16-3.81,17.69h4.53l.52-2.41c.59,1.4,2.48,2.83,5.18,2.83,5.18,0,9.02-4.53,9.02-10.82,0-4.01-2.28-7.23-6.71-7.23m-2.77,13.91c-2.02,0-3.52-1.5-3.52-3.94,0-3.29,2.02-5.83,4.66-5.83,2.15,0,3.65,1.3,3.65,3.84,0,3.88-2.57,5.93-4.79,5.93Z"/><path class="cls-1" d="M101.35,47.55l-4.69,.88-.23,1.08c-.13-.26-.36-.59-.68-.91-.75-.75-2.09-1.47-4.3-1.47-4.98,0-8.8,4.43-8.8,10.3,0,4.24,2.48,7.66,6.71,7.66,2.31,0,3.81-1.21,4.63-2.41-.03,.42-.07,.94-.07,1.3,0,.26,0,.52,.03,.81h4.3c-.03-.33-.03-.52-.03-.65,0-.98,.1-2.09,.33-3.1l2.8-13.49Zm-10.75,13.52c-2.05,0-3.36-1.43-3.36-3.81,0-2.8,1.56-5.96,4.56-5.96,2.05,0,3.29,1.4,3.29,3.68-.03,3.81-2.12,6.09-4.5,6.09Z"/><path class="cls-1" d="M79.13,48.27l-.94,.16-3.49,16.32h4.63l3.68-17.23-3.88,.75Zm3.1-9.84c-1.73,0-3.16,1.4-3.16,3.1,0,1.43,1.08,2.51,2.54,2.51,1.66,0,3.19-1.3,3.19-3.13,0-1.37-1.04-2.48-2.57-2.48Z"/><path class="cls-1" d="M78.18,39.18l-4.89,.91-1.95,9.29c-.55-.98-1.99-2.25-4.89-2.25-4.98,0-8.8,4.43-8.8,10.3,0,4.27,2.48,7.62,6.71,7.66,2.31,0,3.81-1.21,4.63-2.41-.03,.39-.07,.88-.07,1.24,0,.29,0,.55,.03,.88h4.24c-.03-.13-.03-.42-.03-.75,.03-.81,.13-1.95,.39-3.03l4.63-21.83Zm-12.54,21.89c-2.09,0-3.36-1.43-3.36-3.81,0-2.8,1.56-5.96,4.56-5.96,2.05,0,3.29,1.4,3.29,3.68,0,3.81-2.12,6.09-4.5,6.09Z"/><path class="cls-1" d="M51.57,47.09c-1.79,0-3.71,.62-4.82,2.22,.1-.68,.1-1.4,.1-1.73l-4.59,.85c.07,.55-.13,1.4-.26,2.05l-3,14.27h4.63l2.18-9.97c.42-1.92,1.63-3.58,3.65-3.58,1.73,0,2.61,1.01,2.61,2.54,0,.33-.03,.65-.1,1.01l-2.12,9.97h4.59l2.25-10.43c.13-.62,.23-1.24,.23-1.82-.03-3.06-1.92-5.38-5.34-5.38"/><polygon class="cls-1" points="37.1 41.07 32.08 64.75 37 64.75 42.22 40.09 37.1 41.07"/></g><g><polygon points="36.64 81.92 37.85 76.22 32.34 76.22 31.14 81.92 28.47 81.92 31.37 68.2 34.04 68.2 32.87 73.71 38.4 73.71 39.54 68.2 42.25 68.2 39.35 81.92 36.64 81.92"/><path d="M50.75,67.91c3.65,0,6.06,2.48,6.06,6.12,0,5.21-3.65,8.18-7.36,8.18s-6.06-2.51-6.06-6.12c0-5.21,3.65-8.18,7.36-8.18m-.16,2.54c-2.54,0-4.5,2.44-4.5,5.44,0,2.31,1.37,3.75,3.45,3.75,2.44,0,4.46-2.22,4.5-5.44,.03-2.31-1.3-3.75-3.45-3.75Z"/><polygon points="70.53 81.92 72.55 72.34 66.72 81.92 64.6 81.92 62.58 72.47 60.56 81.92 58.02 81.92 60.92 68.2 64.17 68.2 66.36 78.04 72.25 68.2 76.07 68.2 73.17 81.92 70.53 81.92"/><polygon points="77.08 81.92 79.97 68.2 88.51 68.2 87.96 70.71 82.13 70.71 81.44 73.84 86.75 73.84 86.26 76.22 80.92 76.22 80.27 79.38 86.13 79.38 85.61 81.92 77.08 81.92"/><polygon points="95.84 81.92 98.74 68.2 101.41 68.2 99.03 79.35 105 79.35 104.44 81.92 95.84 81.92"/><path d="M113.76,67.91c3.65,0,6.06,2.48,6.06,6.12,0,5.21-3.65,8.18-7.36,8.18s-6.06-2.51-6.06-6.12c0-5.21,3.62-8.18,7.36-8.18m-.16,2.54c-2.54,0-4.5,2.44-4.5,5.44,0,2.31,1.37,3.75,3.45,3.75,2.44,0,4.46-2.22,4.5-5.44,0-2.31-1.3-3.75-3.45-3.75Z"/><path d="M129.56,78.76h-5.31l-1.76,3.13h-3l8.01-13.72h3.06l2.18,13.72h-2.74l-.46-3.13Zm-3.94-2.41h3.58l-.72-5.15-2.87,5.15Z"/><polygon points="143.7 81.92 139.73 72.21 137.67 81.92 135.03 81.92 137.93 68.2 141 68.2 144.64 77.36 146.6 68.2 149.27 68.2 146.37 81.92 143.7 81.92"/><path d="M157.35,78.21c0-.65-.33-1.17-1.17-1.53l-1.66-.75c-1.73-.78-2.64-1.99-2.64-3.68,0-2.57,2.22-4.33,4.85-4.33,3.65,0,4.66,2.51,4.66,3.97l-2.51,.42c0-.52-.23-2.09-2.28-2.09-1.21,0-2.05,.85-2.05,1.73,0,.75,.46,1.24,1.08,1.5l1.6,.68c2.02,.88,2.87,2.15,2.87,3.78,0,2.15-1.79,4.2-4.82,4.2-3.78,0-5.18-2.57-5.18-4.5,0-.07,0-.26,.03-.39l2.51-.42c-.03,.16-.03,.26-.03,.39,0,1.27,.75,2.54,2.61,2.61,1.34,.07,2.15-.62,2.15-1.6"/></g></svg>