<svg width="110" height="37" viewBox="0 0 110 37" fill="none" xmlns="http://www.w3.org/2000/svg">
<path d="M20.42 21.3688H0V0.94873H20.42V21.3688Z" fill="#ED1C24"/>
<path d="M4.97775 10.709H7.04362C7.63464 10.709 8.12263 10.2806 8.12263 9.68418V9.06063C8.12263 9.04617 8.12263 9.03352 8.12263 9.02267C8.23469 9.02267 8.34675 9.02267 8.45881 9.02267V12.8616C8.34495 12.8616 8.2365 12.8616 8.12263 12.8616C8.12625 12.7965 8.12625 12.7333 8.12263 12.6718V12.1947C8.12263 11.6036 7.63464 11.197 7.04362 11.197H6.48513H5.75855H4.82051V13.3876H4.82593V15.0847C4.83135 15.3287 4.85847 15.3667 4.891 15.4371C4.97233 15.6052 5.5254 15.6974 5.70433 15.7083C6.50682 15.7462 7.32557 15.7842 8.11721 15.5944C8.36664 15.5347 8.60521 15.4534 8.83837 15.3395C9.57037 14.9817 10.1017 14.5316 10.1939 13.5828H10.3729V16.1149H1.92505V15.9523C2.19616 15.9523 3.04202 15.9848 3.2318 15.6215C3.26434 15.5528 3.2806 15.3757 3.2806 15.0901V7.21166C3.2806 6.91524 3.26072 6.73089 3.22096 6.65859C3.20288 6.61883 3.13962 6.57907 3.03118 6.5393C2.73296 6.42001 2.2558 6.35495 1.92505 6.35495V6.20312C7.44847 6.20312 12.9719 6.20312 18.4953 6.20312V8.9305V8.97387H18.2947C18.2911 8.95942 18.2893 8.94496 18.2893 8.9305C18.1646 8.1009 18.0887 7.53157 17.5031 7.08152C17.0151 6.71281 16.0879 6.58268 15.3613 6.58268C15.1661 6.58268 15.0595 6.59352 15.0414 6.61521C15.0034 6.64775 14.9709 6.66401 14.9709 6.89717V15.0901C14.9709 15.3865 14.9908 15.5763 15.0305 15.6595C15.0486 15.6992 15.1173 15.7426 15.2366 15.7896C15.5619 15.9197 16.1909 15.9523 16.5488 15.9523V16.1149H11.8423V15.9523C12.1947 15.9523 12.8128 15.9197 13.1382 15.7896C13.2575 15.7426 13.3334 15.6866 13.3659 15.6215C13.3984 15.5528 13.4147 15.3757 13.4147 15.0901V6.91343C13.4147 6.64775 13.3984 6.62064 13.3388 6.59895C13.3099 6.5881 13.2087 6.58268 13.0352 6.58268C12.3953 6.58268 11.5224 6.71281 11.0669 7.0761C10.5409 7.48819 10.3729 8.28525 10.2753 8.9305H10.0746C10.015 8.5401 9.98245 8.20392 9.93365 7.92739C9.76557 6.9297 9.14201 6.81583 8.1877 6.66944C7.59126 6.58268 6.90264 6.57726 6.23028 6.58268C5.80193 6.5881 5.379 6.61521 5.05909 6.72908C4.96691 6.76161 4.91269 6.82668 4.87473 6.89175C4.8422 6.95681 4.82593 7.03272 4.82593 7.33094V8.4913H4.82051V10.709" fill="white"/>
<path d="M83.5116 19.6616C83.7863 19.6616 83.9996 19.7411 84.1514 19.9002C84.3032 20.0556 84.3792 20.2526 84.3792 20.4912C84.3792 20.7226 84.3032 20.916 84.1514 21.0714C83.9996 21.2232 83.7863 21.2991 83.5116 21.2991C83.2441 21.2991 83.0326 21.2232 82.8772 21.0714C82.7218 20.9196 82.644 20.7262 82.644 20.4912C82.644 20.2526 82.72 20.0556 82.8718 19.9002C83.0236 19.7411 83.2369 19.6616 83.5116 19.6616Z" fill="#1A1A1A"/>
<path d="M88.5605 20.1659C88.9329 20.1659 89.2419 20.0575 89.4877 19.8406C89.7335 19.6237 89.8637 19.3562 89.8781 19.0381H91.2825C91.2644 19.4502 91.1361 19.8352 90.8975 20.193C90.6553 20.5509 90.3282 20.8347 89.9161 21.0443C89.504 21.2504 89.0576 21.3534 88.5768 21.3534C87.6514 21.3534 86.9176 21.0534 86.3754 20.4533C85.8296 19.8532 85.5566 19.0236 85.5566 17.9645V17.8127C85.5566 16.8042 85.8259 15.9962 86.3646 15.389C86.9068 14.7817 87.6424 14.478 88.5714 14.478C89.3594 14.478 90.0029 14.7076 90.5017 15.1666C90.9969 15.6257 91.2572 16.2294 91.2825 16.9777H89.8781C89.8637 16.5981 89.7335 16.2854 89.4877 16.0396C89.2456 15.7938 88.9365 15.6709 88.5605 15.6709C88.0798 15.6709 87.7074 15.8462 87.4436 16.1969C87.1833 16.5475 87.0514 17.0771 87.0477 17.7856V18.0296C87.0477 18.7453 87.1779 19.2803 87.4381 19.6345C87.6948 19.9888 88.0689 20.1659 88.5605 20.1659Z" fill="#1A1A1A"/>
<path fill-rule="evenodd" clip-rule="evenodd" d="M91.8788 17.8561C91.8788 17.2054 92.0071 16.6198 92.2638 16.0993C92.5204 15.5787 92.8819 15.1775 93.3482 14.8955C93.8145 14.6172 94.3495 14.478 94.9532 14.478C95.8496 14.478 96.5762 14.7654 97.1329 15.3402C97.6896 15.9185 97.9914 16.6831 98.0384 17.6338L98.0438 17.9862C98.0438 18.6369 97.9173 19.2207 97.6643 19.7376C97.4149 20.2509 97.0552 20.6485 96.5853 20.9305C96.119 21.2124 95.5785 21.3534 94.964 21.3534C94.0278 21.3534 93.2795 21.0425 92.7192 20.4208C92.1589 19.799 91.8788 18.9676 91.8788 17.9266V17.8561ZM93.3645 17.9862C93.3645 18.6694 93.5054 19.2044 93.7874 19.5912C94.0694 19.978 94.4616 20.1713 94.964 20.1713C95.4665 20.1713 95.8587 19.9743 96.1406 19.5803C96.419 19.1899 96.5582 18.6152 96.5582 17.8561C96.5582 17.1873 96.4154 16.6578 96.1298 16.2674C95.8406 15.8733 95.4484 15.6763 94.9532 15.6763C94.4688 15.6763 94.082 15.8697 93.7928 16.2565C93.5073 16.6433 93.3645 17.2199 93.3645 17.9862Z" fill="#1A1A1A"/>
<path d="M100.451 14.6027L100.494 15.2914C100.96 14.7491 101.598 14.478 102.408 14.478C103.294 14.478 103.899 14.8178 104.224 15.4974C104.709 14.8178 105.388 14.478 106.263 14.478C106.993 14.478 107.537 14.6805 107.895 15.0853C108.253 15.4902 108.436 16.0866 108.443 16.8746V21.2341H106.952V16.918C106.952 16.4951 106.86 16.186 106.675 15.9908C106.495 15.7956 106.191 15.698 105.764 15.698C105.425 15.698 105.148 15.7884 104.935 15.9691C104.722 16.1535 104.571 16.3921 104.485 16.6849L104.49 21.2341H102.999V16.8692C102.981 16.0884 102.583 15.698 101.806 15.698C101.21 15.698 100.787 15.942 100.537 16.43V21.2341H99.0463V14.6027H100.451Z" fill="#1A1A1A"/>
<path d="M40.5958 12.8399C40.5958 15.804 40.0283 17.9602 38.8932 19.3086C37.7582 20.6605 36.1171 21.3365 33.9699 21.3365C31.5371 21.3365 29.4821 20.5991 27.8048 19.1242C25.8022 17.3674 24.8009 14.8425 24.8009 11.5494C24.8009 8.33943 25.8149 5.71147 27.8428 3.66549C29.5851 1.90507 31.4503 1.02487 33.4385 1.02487C34.3982 1.02487 35.2387 1.2038 35.9544 1.55082C36.8798 1.99906 37.7202 2.73467 38.4757 3.75766L39.9831 0.873047H40.1349V9.7709L39.8909 9.61365C39.8909 6.9893 39.1625 4.88187 37.7058 3.29135C36.4984 1.96472 35.2278 1.3014 33.8939 1.3014C32.1082 1.3014 30.8268 2.12377 30.0496 3.76851C29.2688 5.41325 28.8784 7.88939 28.8784 11.1969C28.8784 14.443 29.2995 16.8975 30.1418 18.5603C30.9804 20.2267 32.2619 21.0599 33.9861 21.0599C35.9309 21.0599 37.4274 20.487 38.4757 19.3411C39.7264 17.9928 40.3518 15.8257 40.3518 12.8399H40.5958Z" fill="#1A1A1A"/>
<path fill-rule="evenodd" clip-rule="evenodd" d="M33.9698 21.5052C31.5081 21.5052 29.3934 20.7461 27.6963 19.2549C25.663 17.471 24.6273 14.8792 24.6273 11.55C24.6273 8.3075 25.6684 5.61809 27.7234 3.5468C29.4856 1.7629 31.4105 0.857388 33.4384 0.857388C34.4198 0.857388 35.2928 1.04174 36.0302 1.39961C36.9086 1.82254 37.722 2.51116 38.4485 3.44378L39.88 0.705566H40.3084V10.0751L39.7227 9.71186V9.61968C39.7227 7.04413 39.0016 4.95658 37.5864 3.40583C36.4098 2.12076 35.1681 1.47552 33.8939 1.47552C32.1642 1.47552 30.955 2.2509 30.2014 3.84503C29.4368 5.45542 29.0464 7.93337 29.0464 11.1975C29.0464 14.4021 29.4639 16.8529 30.2881 18.4904C31.1069 20.1062 32.316 20.8925 33.9861 20.8925C35.873 20.8925 37.3424 20.334 38.3509 19.2278C39.5655 17.9157 40.1836 15.763 40.1836 12.8405V12.667H40.7692V12.8405C40.7692 15.8281 40.1782 18.0458 39.0233 19.423C37.8629 20.8057 36.1604 21.5052 33.9698 21.5052ZM32.9721 1.21525C31.2099 1.33996 29.529 2.20752 27.962 3.78538C25.9774 5.78618 24.9689 8.39968 24.9689 11.55C24.9689 14.7762 25.9612 17.2813 27.9186 19.0001C29.3121 20.2255 31.0038 20.9413 32.9504 21.1202C31.6762 20.8382 30.6785 20.0086 29.9899 18.6422C29.1386 16.9559 28.7102 14.4563 28.7102 11.1975C28.7102 7.87915 29.1061 5.35782 29.8923 3.69863C30.5592 2.29427 31.5949 1.45925 32.9721 1.21525ZM38.519 4.04023C39.2944 5.17347 39.777 6.51275 39.9667 8.05808V1.26948L38.519 4.04023Z" fill="#1A1A1A"/>
<path fill-rule="evenodd" clip-rule="evenodd" d="M33.9713 21.532C31.4987 21.532 29.3841 20.7729 27.6761 19.2764C25.6373 17.4871 24.6017 14.8844 24.6017 11.5498C24.6017 8.30185 25.6482 5.60159 27.7032 3.53031C29.4763 1.73555 31.4066 0.830045 33.4399 0.830045C34.4267 0.830045 35.2997 1.0144 36.0425 1.37227C36.9155 1.7952 37.718 2.47297 38.4446 3.39475L39.8652 0.678223H40.3369V10.1291L39.6971 9.72789V9.61945C39.6971 7.04932 38.976 4.96719 37.5662 3.42186C36.4004 2.14764 35.1641 1.5024 33.8954 1.5024C32.1765 1.5024 30.9782 2.27235 30.2299 3.85564C29.4654 5.46603 29.075 7.93314 29.075 11.1973C29.075 14.3964 29.4925 16.8418 30.3167 18.4739C31.13 20.0789 32.3283 20.8651 33.9875 20.8651C35.869 20.8651 37.3276 20.3066 38.3307 19.2113C39.5453 17.8992 40.158 15.7574 40.158 12.8402V12.6396H40.7978V12.8402C40.7978 15.8387 40.2068 18.0564 39.0464 19.4391C37.8753 20.8272 36.1727 21.532 33.9713 21.532ZM32.5127 1.29093C30.924 1.52951 29.4058 2.36995 27.9851 3.80684C26.0006 5.80221 24.9975 8.4103 24.9975 11.5498C24.9975 14.7705 25.9843 17.2648 27.9363 18.9782C29.2377 20.1223 30.7993 20.8163 32.5832 21.0495C31.4716 20.697 30.5932 19.8945 29.9642 18.6529C29.113 16.9665 28.6846 14.4561 28.6846 11.1973C28.6846 7.87892 29.0804 5.35217 29.8721 3.68755C30.4685 2.43502 31.3523 1.63253 32.5127 1.29093ZM38.553 4.03999C39.2579 5.07021 39.7188 6.28479 39.9411 7.65661V1.38311L38.553 4.03999Z" fill="#1A1A1A"/>
<path fill-rule="evenodd" clip-rule="evenodd" d="M33.9705 21.7003C31.4546 21.7003 29.302 20.9303 27.5669 19.4012C25.4902 17.5794 24.4329 14.9388 24.4329 11.5499C24.4329 8.25317 25.4956 5.51495 27.5832 3.41114C29.3888 1.58385 31.357 0.662076 33.4392 0.662076C34.4477 0.662076 35.3532 0.851853 36.1177 1.22056C36.9419 1.62181 37.7173 2.25078 38.4167 3.0858L39.7614 0.510254H40.5043V10.4329L39.5283 9.82019V9.61957C39.5283 7.09824 38.8234 5.04864 37.4407 3.53585C36.3021 2.29958 35.1146 1.67061 33.8946 1.67061C32.2463 1.67061 31.1022 2.40803 30.381 3.92625C29.6273 5.51495 29.2478 7.96037 29.2478 11.1974C29.2478 14.3694 29.6545 16.7932 30.4678 18.3981C31.2486 19.9435 32.3981 20.6917 33.9868 20.6917C35.8141 20.6917 37.2347 20.1549 38.2053 19.0922C39.3873 17.818 39.9892 15.7141 39.9892 12.8404V12.4717H40.9652V12.8404C40.9652 15.8768 40.3633 18.1324 39.1759 19.5476C37.9721 20.9737 36.2207 21.7003 33.9705 21.7003ZM33.4392 0.998252C31.4492 0.998252 29.5623 1.89292 27.8217 3.64429C25.7993 5.68847 24.7745 8.34535 24.7745 11.5499C24.7745 14.8357 25.7884 17.3896 27.7892 19.1464C29.4593 20.6212 31.5414 21.3641 33.9705 21.3641C36.1177 21.3641 37.7823 20.6809 38.9156 19.3307C40.0542 17.9806 40.6236 15.7955 40.6236 12.8404V12.8132H40.3254V12.8404C40.3254 15.8009 39.6964 17.986 38.4547 19.3253C37.4191 20.4586 35.9171 21.0333 33.9868 21.0333C32.2571 21.0333 31.01 20.22 30.1641 18.5499C29.3291 16.8962 28.9062 14.4182 28.9062 11.1974C28.9062 7.91157 29.302 5.41735 30.072 3.77985C30.8582 2.13149 32.1053 1.32901 33.8946 1.32901C35.2122 1.32901 36.4864 1.99594 37.6902 3.30811C39.1325 4.88598 39.8645 7.01148 39.8645 9.61957V9.63041L40.1627 9.82019V0.846431H40.1085V7.65673L39.7723 7.68384C39.5554 6.33913 39.0999 5.14082 38.4113 4.13229L38.3571 4.05096L40.0326 0.846431H39.9675L38.4764 3.70394L38.3137 3.49789C37.6034 2.59781 36.8118 1.9363 35.9713 1.52421C35.2502 1.17719 34.3989 0.998252 33.4392 0.998252ZM38.7475 4.02927C39.1813 4.67993 39.5229 5.40651 39.7723 6.19815V2.07185L38.7475 4.02927ZM32.5553 21.2177C30.7443 20.9845 29.1502 20.2742 27.8217 19.1084C25.8372 17.3625 24.8233 14.8195 24.8233 11.5499C24.8233 8.36162 25.8481 5.721 27.8597 3.68767C29.3074 2.22909 30.8636 1.36696 32.4848 1.12839L32.5553 1.45372C31.4492 1.77905 30.5925 2.55443 30.0232 3.75816C29.2424 5.40109 28.852 7.90073 28.852 11.1974C28.852 14.4345 29.2749 16.9179 30.1153 18.5771C30.7226 19.7754 31.5631 20.5507 32.6312 20.8923L32.5553 21.2177ZM31.0263 1.87665C30.0177 2.29416 29.0363 2.97736 28.0983 3.92082C26.1517 5.88909 25.1594 8.45379 25.1594 11.5499C25.1594 14.7164 26.13 17.1727 28.0441 18.8482C29.0146 19.7049 30.137 20.3013 31.3841 20.6429C30.7552 20.1929 30.2292 19.5531 29.8117 18.7289C28.9496 17.0155 28.5104 14.4833 28.5104 11.1974C28.5104 7.85193 28.917 5.29807 29.7141 3.61176C30.0557 2.8906 30.4949 2.31043 31.0263 1.87665Z" fill="#1A1A1A"/>
<path d="M45.9641 19.0277V3.27076C45.9641 2.67794 45.9225 2.30923 45.8394 2.16463C45.7996 2.08149 45.6623 2.00016 45.4273 1.92063C45.1924 1.83749 44.7315 1.75435 44.0447 1.67121C43.3615 1.59169 42.6114 1.55192 41.7944 1.55192V1.27539H60.7505V8.9424H60.3492C60.3492 7.35911 59.9534 5.85174 59.1564 4.41485C58.0972 2.50623 56.5989 1.55192 54.6613 1.55192C53.3347 1.55192 52.4021 1.5718 51.8635 1.61157C51.3249 1.65133 50.779 1.75435 50.226 1.92063L49.9494 2.04534C49.8085 2.18994 49.738 2.60202 49.738 3.28161V10.4769C51.9141 10.4769 53.266 10.2618 53.7938 9.83164C54.6505 9.1376 55.1999 7.37899 55.4421 4.55583H55.8109V16.6419H55.4421C55.4421 13.8802 54.974 12.1523 54.0378 11.4583C53.4486 11.0101 52.0153 10.7859 49.738 10.7859V19.0277C49.738 19.6242 49.7795 20.0037 49.8627 20.1664C49.9024 20.2495 50.0452 20.3381 50.291 20.4321C50.5368 20.5224 51.0122 20.5983 51.7171 20.6598C52.422 20.7212 53.3781 20.752 54.5854 20.752V21.061H41.7944V20.752C42.6728 20.752 43.4338 20.7212 44.0772 20.6598C44.7206 20.5983 45.1598 20.5224 45.3948 20.4321C45.6297 20.3381 45.7834 20.2242 45.8557 20.0905C45.928 19.9567 45.9641 19.6025 45.9641 19.0277Z" fill="#1A1A1A"/>
<path fill-rule="evenodd" clip-rule="evenodd" d="M54.7528 21.2292H41.6202V20.584H41.7938C42.6613 20.584 43.4258 20.5515 44.0602 20.4918C44.8356 20.4213 45.1826 20.3346 45.3345 20.2749C45.5297 20.1954 45.6544 20.1068 45.7086 20.0093C45.7357 19.9604 45.7953 19.7707 45.7953 19.0333V3.27631C45.7953 2.50635 45.7249 2.30031 45.6923 2.25151C45.6869 2.24066 45.6435 2.1756 45.3724 2.078C45.1501 2.00209 44.7001 1.92075 44.0277 1.83942C43.3499 1.75809 42.6017 1.72013 41.7938 1.72013H41.6202V1.10742H60.9179V9.11061H60.1805V8.94252C60.1805 7.39719 59.7846 5.90066 59.0093 4.4963C57.9736 2.62564 56.5476 1.72013 54.6607 1.72013C53.3159 1.72013 52.405 1.74182 51.8736 1.77978C51.3531 1.81773 50.8109 1.92075 50.2741 2.08342L50.0572 2.18102C50.0084 2.25151 49.9054 2.49551 49.9054 3.28173V10.3089C51.9333 10.2981 53.2021 10.092 53.6901 9.70163C54.5034 9.04012 55.0348 7.30501 55.2734 4.5451L55.2842 4.38786H55.9783V16.8101H55.2734V16.6421C55.2734 13.9526 54.8233 12.2501 53.9395 11.594C53.3919 11.1765 52.0363 10.965 49.9054 10.9542V19.0333C49.9054 19.7707 49.9704 20.0147 50.0084 20.0906C50.0138 20.096 50.0572 20.1611 50.35 20.2695C50.5072 20.3346 50.876 20.4213 51.7272 20.4918C52.4267 20.5515 53.3864 20.584 54.5847 20.584H54.7528V21.2292ZM43.2035 20.8931H52.7358C52.3454 20.8786 52.0002 20.8569 51.7001 20.828C50.979 20.7684 50.4964 20.687 50.2307 20.5894C49.9325 20.4756 49.7698 20.3671 49.7102 20.2424C49.6505 20.1231 49.5692 19.8683 49.5692 19.0278V3.28173C49.5692 2.52804 49.6505 2.11053 49.8295 1.92618L49.8837 1.88822L50.1548 1.76893C50.7404 1.59 51.2989 1.48698 51.8465 1.4436H43.4367C43.6536 1.46167 43.8632 1.48155 44.0657 1.50324C44.7705 1.59 45.2369 1.67675 45.4809 1.75809C45.7682 1.86111 45.9255 1.95871 45.9905 2.08884C46.0502 2.19186 46.1315 2.43586 46.1315 3.27088V19.0278C46.1315 19.8357 46.0665 20.0635 46.0068 20.1719C45.9146 20.3454 45.7357 20.481 45.4592 20.5894C45.1989 20.687 44.7543 20.7684 44.0928 20.828C43.818 20.8569 43.5216 20.8786 43.2035 20.8931ZM55.6095 16.474H55.6421V4.72404H55.5987C55.3384 7.53274 54.7854 9.24616 53.9015 9.96189C53.419 10.3523 52.3725 10.5692 50.7079 10.6288C52.4809 10.6885 53.6087 10.9162 54.1401 11.3229C55.1107 12.044 55.5933 13.7303 55.6095 16.474ZM60.5166 8.77443H60.5817V1.4436H55.4957C57.0952 1.6876 58.3749 2.65817 59.3021 4.33364C60.0829 5.73799 60.4895 7.2291 60.5166 8.77443Z" fill="#1A1A1A"/>
<path fill-rule="evenodd" clip-rule="evenodd" d="M54.7815 21.2556H41.5947V20.5562H41.7953C42.6629 20.5562 43.422 20.5236 44.0618 20.464C44.8318 20.3935 45.1734 20.3067 45.3252 20.2471C45.5096 20.1712 45.6343 20.0844 45.6831 19.9977C45.7048 19.9597 45.7698 19.7862 45.7698 19.0325V3.27558C45.7698 2.51648 45.6993 2.31043 45.6722 2.26163C45.6668 2.25621 45.6234 2.19657 45.3632 2.10439C45.1463 2.02848 44.6962 1.94714 44.0239 1.87123C43.3515 1.7899 42.6033 1.74652 41.7953 1.74652H41.5947V1.07959H60.9466V9.14242H60.1549V8.94179C60.1549 7.40189 59.7591 5.91078 58.9838 4.51185C57.9535 2.65203 56.5383 1.74652 54.6622 1.74652C53.3175 1.74652 52.412 1.76821 51.8807 1.80617C51.3547 1.84412 50.8179 1.94714 50.2811 2.10981L50.0751 2.20199C50.0263 2.2779 49.9341 2.51648 49.9341 3.28101V10.2811C52.4229 10.2648 53.3447 9.9449 53.67 9.67921C54.4779 9.02313 55.0093 7.29344 55.2479 4.53896L55.2641 4.36003H56.007V16.8365H55.2479V16.6413C55.2479 13.9628 54.8032 12.271 53.9248 11.6149C53.3826 11.2083 52.0433 10.9914 49.9341 10.9805V19.0325C49.9341 19.7645 49.9992 20.0031 50.0371 20.079C50.0696 20.1224 50.1763 20.1784 50.357 20.2471C50.5197 20.3067 50.883 20.3935 51.7343 20.464C52.4283 20.5236 53.388 20.5562 54.5863 20.5562H54.7815V21.2556ZM44.0347 20.8598H51.7668C51.7451 20.8598 51.7234 20.858 51.7017 20.8544C50.9751 20.7947 50.4871 20.7134 50.2215 20.6158C49.9124 20.4965 49.7497 20.3881 49.6847 20.2525C49.625 20.1332 49.5437 19.873 49.5437 19.0271V3.28101C49.5437 2.29959 49.6847 2.0339 49.8148 1.90377L49.8744 1.86039L50.1456 1.7411C50.554 1.6182 50.9535 1.52783 51.3439 1.46999H44.0185C44.0365 1.4736 44.0546 1.47541 44.0727 1.47541C44.783 1.56217 45.2439 1.6435 45.4933 1.73025C45.7861 1.83328 45.9488 1.94172 46.0192 2.07185C46.0843 2.18572 46.1602 2.43514 46.1602 3.27016V19.0271C46.1602 19.835 46.0897 20.0682 46.0301 20.182C45.9325 20.361 45.7536 20.5019 45.4662 20.6104C45.2113 20.7134 44.7613 20.7947 44.0998 20.8544C44.0781 20.858 44.0564 20.8598 44.0347 20.8598ZM51.3005 10.6281C52.7428 10.7149 53.6808 10.9372 54.158 11.3005C55.0255 11.9403 55.5027 13.3392 55.6166 15.5623V4.84803C55.3509 7.58624 54.7978 9.26713 53.9194 9.98286C53.4965 10.3299 52.6343 10.5413 51.3005 10.6281ZM60.5453 8.74659H60.5562V1.46999H55.8063C57.2758 1.78448 58.4578 2.73879 59.3308 4.31665C60.1061 5.71558 60.5128 7.20669 60.5453 8.74659Z" fill="#1A1A1A"/>
<path fill-rule="evenodd" clip-rule="evenodd" d="M54.9504 21.4229H41.4274V20.3873H41.7961C42.6582 20.3873 43.4119 20.3547 44.0463 20.2951C44.8325 20.2246 45.147 20.1324 45.2663 20.0891C45.4344 20.024 45.5157 19.9535 45.5374 19.9155C45.5374 19.9155 45.597 19.7637 45.597 19.0317V3.27478C45.597 2.59158 45.5428 2.39096 45.5266 2.353C45.5157 2.353 45.4561 2.31505 45.3097 2.26625C45.1633 2.21203 44.8217 2.13069 44.0083 2.03852C43.3414 1.95718 42.5986 1.9138 41.7961 1.9138H41.4274V0.905273H61.1154V9.3097H59.9876V8.94099C59.9876 7.43361 59.6026 5.96962 58.8381 4.59238C57.8404 2.7922 56.474 1.9138 54.663 1.9138C53.3183 1.9138 52.4128 1.93549 51.8922 1.97345C51.388 2.0114 50.862 2.11443 50.3306 2.27167L50.2005 2.33131C50.168 2.41265 50.1029 2.65123 50.1029 3.2802V10.1068C52.5483 10.0797 53.3237 9.74348 53.5677 9.54828C54.3377 8.9193 54.8473 7.22757 55.0805 4.52189L55.1076 4.19113H56.1758V17.0092H55.0805V16.6405C55.0805 14.0162 54.6576 12.3732 53.8225 11.7497C53.4809 11.4894 52.5592 11.1804 50.1029 11.1533V19.0317C50.1029 19.677 50.1571 19.9047 50.1788 19.9752C50.2059 19.9915 50.2764 20.0348 50.4174 20.0836C50.5367 20.1324 50.8729 20.2192 51.7458 20.2951C52.4345 20.3547 53.3888 20.3873 54.5871 20.3873H54.9504V21.4229ZM41.7635 21.0813H54.6142V20.7234H54.5871C53.3833 20.7234 52.4182 20.6909 51.7187 20.6259C51.0193 20.5662 50.5421 20.4903 50.2981 20.3981C50.0921 20.3222 49.9565 20.2463 49.9023 20.1758C49.8047 19.9969 49.7667 19.6173 49.7667 19.0263V10.8062H49.9348C52.1145 10.8225 53.4484 11.0394 54.0232 11.4786C54.9504 12.1618 55.4167 13.9023 55.4167 16.6351V16.6676H55.8396V4.52189H55.4167V4.549C55.1727 7.35228 54.625 9.11992 53.7792 9.80854C53.2749 10.2152 51.979 10.4321 49.9348 10.4429H49.7667V3.27478C49.7667 2.66749 49.821 2.27709 49.9348 2.109L49.9619 2.06563L50.2113 1.95176C50.7861 1.77825 51.3337 1.67523 51.8651 1.63727C52.3965 1.59389 53.3129 1.57221 54.663 1.57221C56.6096 1.57221 58.0681 2.50483 59.1363 4.42429C59.9225 5.85033 60.3238 7.36855 60.3238 8.94099V8.9681H60.7792V1.24145H41.7635V1.57221H41.7961C42.6094 1.57221 43.3685 1.61558 44.0463 1.69692C44.7241 1.77825 45.185 1.85958 45.4181 1.94092C45.6404 2.01683 45.7706 2.09274 45.8194 2.16865C45.9007 2.31505 45.9386 2.68376 45.9386 3.26936V19.0263C45.9386 19.5956 45.9007 19.9481 45.8356 20.0728C45.7651 20.2029 45.6133 20.3114 45.3856 20.3981C45.1524 20.4903 44.7078 20.5716 44.0788 20.6313C43.4336 20.6909 42.6691 20.7234 41.7961 20.7234H41.7635V21.0813ZM51.7675 21.0217H44.0354L44.0192 20.6855H44.0463C44.7186 20.6204 45.1633 20.5445 45.4073 20.4469C45.6513 20.3547 45.8085 20.2355 45.8844 20.0945C45.9549 19.9589 45.9929 19.6065 45.9929 19.0209V3.26393C45.9929 2.66749 45.9495 2.29336 45.8682 2.15238C45.8248 2.05478 45.6838 1.96803 45.4398 1.88669C45.2012 1.79994 44.7512 1.7186 44.0517 1.63727V1.63185H44.0192V1.29567H51.3446L51.3663 1.63185C50.9867 1.68607 50.5909 1.77283 50.1951 1.89212L49.9077 2.03309C49.8806 2.07105 49.7125 2.23914 49.7125 3.26936V19.0209C49.7125 19.6173 49.7505 20.0023 49.8372 20.1704C49.8806 20.2626 50.0216 20.3493 50.2818 20.4469C50.5313 20.5445 51.003 20.6204 51.7133 20.6801L51.7838 20.6855L51.7675 21.0217ZM45.7001 20.6855H49.9728C49.7396 20.577 49.6041 20.4632 49.5336 20.3222C49.4577 20.1704 49.3709 19.8884 49.3709 19.0209V3.26936C49.3709 2.23914 49.5336 1.93549 49.6962 1.77825L49.7776 1.71318L49.9619 1.63185H45.7218C45.9549 1.72945 46.0959 1.84332 46.1664 1.98972C46.2477 2.12527 46.329 2.39096 46.329 3.26393V19.0209C46.329 19.8559 46.2586 20.1107 46.1826 20.2517C46.085 20.4306 45.9278 20.5716 45.7001 20.6855ZM55.4492 15.5615C55.3353 13.3926 54.8853 12.0371 54.0611 11.4244C53.6111 11.0882 52.6839 10.8713 51.2904 10.7845V10.4484C52.57 10.367 53.4213 10.161 53.8171 9.8465C54.6521 9.15788 55.1889 7.51495 55.4492 4.82011L55.7854 4.83638V15.5561L55.4492 15.5615ZM52.7598 10.6056C53.4484 10.7303 53.9473 10.9093 54.2672 11.1533C54.7985 11.5491 55.1944 12.216 55.4492 13.154V7.13539C55.1293 8.61023 54.663 9.58623 54.0286 10.1013C53.7575 10.3237 53.34 10.4863 52.7598 10.6056ZM60.725 8.90303H60.3888L60.378 8.73494C60.3509 7.22215 59.9496 5.76357 59.1851 4.38633C58.3392 2.85727 57.1897 1.93007 55.7745 1.621L54.2292 1.29025H60.725V8.90303ZM56.8536 1.62643C57.9109 2.109 58.7893 2.98198 59.4833 4.22367C59.8791 4.9394 60.1828 5.68224 60.3888 6.43593V1.62643H56.8536Z" fill="#1A1A1A"/>
<path fill-rule="evenodd" clip-rule="evenodd" d="M81.2573 11.1491C81.2573 14.1567 80.2452 16.6527 78.2209 18.6372C76.3809 20.4374 74.3042 21.3375 71.9907 21.3375C69.6411 21.3375 67.5662 20.479 65.7661 18.7619C63.7418 16.8172 62.7296 14.2796 62.7296 11.1491C62.7296 8.14524 63.7418 5.66187 65.7661 3.69903C67.606 1.91693 69.6809 1.02588 71.9907 1.02588C74.344 1.02588 76.4207 1.87536 78.2209 3.57432C80.2452 5.49739 81.2573 8.02234 81.2573 11.1491ZM77.1744 11.1654C77.1744 7.941 76.7424 5.49197 75.8785 3.81832C75.0109 2.14105 73.7096 1.30241 71.9745 1.30241C70.2665 1.30241 68.976 2.14285 68.1084 3.81832C67.2409 5.49197 66.8071 7.941 66.8071 11.1654C66.8071 14.3537 67.2409 16.7991 68.1084 18.5017C68.976 20.2097 70.2665 21.0609 71.9745 21.0609C73.6698 21.0609 74.9603 20.2078 75.8459 18.5017C76.7316 16.7991 77.1744 14.3537 77.1744 11.1654Z" fill="#1A1A1A"/>
<path fill-rule="evenodd" clip-rule="evenodd" d="M71.9908 21.5057C69.605 21.5057 67.4741 20.6219 65.6468 18.8813C63.5972 16.9131 62.5562 14.3158 62.5562 11.1493C62.5562 8.11283 63.5972 5.56439 65.6468 3.57444C67.5121 1.77426 69.6484 0.85791 71.9908 0.85791C74.3766 0.85791 76.5129 1.73089 78.3348 3.44973C80.3844 5.40172 81.4254 7.98812 81.4254 11.1493C81.4254 14.1911 80.3844 16.7504 78.3348 18.7566C76.475 20.5785 74.3386 21.5057 71.9908 21.5057ZM70.7816 1.28626C68.9977 1.54653 67.3548 2.39782 65.8854 3.81844C63.9009 5.7379 62.8978 8.20501 62.8978 11.1493C62.8978 14.2182 63.9009 16.7396 65.88 18.6373C67.344 20.0308 69.0086 20.855 70.8467 21.0936C69.6159 20.7845 68.6507 19.9441 67.9567 18.5777C67.0837 16.8589 66.6391 14.3646 66.6391 11.1655C66.6391 7.92847 67.0837 5.42883 67.9567 3.7371C68.6399 2.42493 69.5833 1.60075 70.7816 1.28626ZM73.1132 1.26458C74.3549 1.56822 75.3309 2.39782 76.0249 3.7371C76.9033 5.42883 77.3479 7.92847 77.3479 11.1655C77.3479 14.3646 76.8925 16.8589 75.9978 18.5831C75.2875 19.9387 74.3169 20.7845 73.1024 21.0936C74.9242 20.8442 76.6051 19.982 78.1016 18.5181C80.0862 16.5769 81.0893 14.0989 81.0893 11.1493C81.0893 8.08572 80.0862 5.58066 78.1016 3.69915C76.6376 2.31106 74.9622 1.49773 73.1132 1.26458ZM71.9745 1.47604C70.3153 1.47604 69.1008 2.26768 68.2549 3.89435C67.409 5.53728 66.9753 7.98269 66.9753 11.1655C66.9753 14.3104 67.409 16.7558 68.2603 18.4259C69.1008 20.0851 70.3208 20.893 71.9745 20.893C73.6175 20.893 74.832 20.0851 75.6942 18.4259C76.5671 16.7558 77.0063 14.3104 77.0063 11.1655C77.0063 7.98269 76.578 5.53728 75.7267 3.89435C74.8863 2.26768 73.6554 1.47604 71.9745 1.47604Z" fill="#1A1A1A"/>
<path fill-rule="evenodd" clip-rule="evenodd" d="M71.9926 21.5321C69.6014 21.5321 67.4597 20.6483 65.6324 18.9023C63.5774 16.9286 62.5309 14.3205 62.5309 11.1485C62.5309 8.10126 63.5774 5.5474 65.6324 3.55745C67.5031 1.74643 69.6394 0.830078 71.9926 0.830078C74.3893 0.830078 76.5256 1.70305 78.3583 3.43274C80.4133 5.38474 81.4544 7.98197 81.4544 11.1485C81.4544 14.2013 80.4133 16.766 78.3583 18.7776C76.4877 20.6049 74.3459 21.5321 71.9926 21.5321ZM70.3822 1.38314C68.761 1.70305 67.2591 2.52723 65.9035 3.83941C63.9298 5.75345 62.9267 8.21513 62.9267 11.1485C62.9267 14.2121 63.9298 16.7226 65.9035 18.6149C67.2536 19.9054 68.7827 20.7079 70.4582 21.0061C69.4063 20.6266 68.5604 19.8187 67.9314 18.5932C67.0584 16.869 66.6138 14.3693 66.6138 11.1648C66.6138 7.92233 67.0584 5.42269 67.9368 3.72554C68.5441 2.54892 69.3629 1.7627 70.3822 1.38314ZM73.5163 1.35603C74.579 1.72474 75.4303 2.52181 76.0539 3.72554C76.9323 5.42269 77.3769 7.92233 77.3769 11.1648C77.3769 14.3693 76.9214 16.869 76.0213 18.5932C75.3869 19.8132 74.5411 20.6211 73.4946 21.0007C75.1592 20.6916 76.6991 19.8512 78.0818 18.4956C80.0609 16.5599 81.064 14.0874 81.064 11.1485C81.064 8.09584 80.0609 5.59078 78.0872 3.71469C76.7317 2.44047 75.1972 1.64883 73.5163 1.35603ZM71.9764 1.50243C70.3334 1.50243 69.1243 2.28865 68.2839 3.90447C67.438 5.5474 67.0042 7.9874 67.0042 11.1648C67.0042 14.3043 67.438 16.7443 68.2839 18.4143C69.1243 20.0627 70.3334 20.8651 71.9764 20.8651C73.6085 20.8651 74.8122 20.0627 75.6743 18.4089C76.5419 16.7443 76.9811 14.3043 76.9811 11.1648C76.9811 7.9874 76.5527 5.5474 75.7014 3.90447C74.8664 2.28865 73.6464 1.50243 71.9764 1.50243Z" fill="#1A1A1A"/>
<path fill-rule="evenodd" clip-rule="evenodd" d="M71.992 21.7003C69.5575 21.7003 67.3777 20.8002 65.5125 19.0217C63.4249 17.0155 62.3622 14.3695 62.3622 11.1487C62.3622 8.058 63.4249 5.46077 65.5125 3.43286C67.4157 1.59473 69.5954 0.662109 71.992 0.662109C74.432 0.662109 76.6118 1.55135 78.4716 3.30815C80.5645 5.29268 81.6219 7.93329 81.6219 11.1487C81.6219 14.2447 80.5646 16.8528 78.477 18.897C76.5738 20.7568 74.3941 21.7003 71.992 21.7003ZM71.992 0.998286C69.6876 0.998286 67.5838 1.89837 65.7456 3.67686C63.7286 5.63428 62.7038 8.15018 62.7038 11.1487C62.7038 14.2719 63.7286 16.842 65.7456 18.7831C67.5458 20.4966 69.6442 21.3641 71.992 21.3641C74.3019 21.3641 76.4057 20.4532 78.2384 18.6584C80.2609 16.6793 81.2857 14.1526 81.2857 11.1487C81.2857 8.03089 80.2609 5.47161 78.2384 3.55215C76.4437 1.86042 74.3398 0.998286 71.992 0.998286ZM70.4304 21.1743C68.7224 20.8653 67.1608 20.0465 65.789 18.7398C63.7774 16.8095 62.758 14.2556 62.758 11.1487C62.758 8.16645 63.7774 5.66681 65.789 3.72024C67.1608 2.38637 68.6953 1.54593 70.3491 1.21517L70.4413 1.54051C69.4653 1.90922 68.6682 2.66833 68.0826 3.80157C67.2205 5.47161 66.7813 7.94956 66.7813 11.1649C66.7813 14.3423 67.2205 16.8149 68.0826 18.512C68.6845 19.6995 69.5032 20.4803 70.5172 20.849L70.4304 21.1743ZM69.1237 1.92006C68.023 2.34842 66.9819 3.03162 66.0222 3.95881C64.081 5.84032 63.0942 8.25863 63.0942 11.1487C63.0942 14.1634 64.081 16.6305 66.0222 18.4958C66.9982 19.4284 68.0718 20.1007 69.2267 20.5074C68.6574 20.0574 68.1748 19.4392 67.7844 18.6693C66.8952 16.9179 66.4451 14.3966 66.4451 11.1649C66.4451 7.89534 66.8952 5.36859 67.7844 3.64975C68.1531 2.93402 68.6032 2.35926 69.1237 1.92006ZM73.5265 21.1635L73.4398 20.8436C74.4375 20.4749 75.2562 19.6941 75.8743 18.5174C76.7582 16.8149 77.2028 14.3423 77.2028 11.1649C77.2028 7.94956 76.769 5.47161 75.9014 3.80157C75.2996 2.64122 74.4808 1.87126 73.456 1.5134L73.5428 1.18806C75.2562 1.48629 76.8232 2.29419 78.2005 3.59553C80.2121 5.50414 81.2315 8.04716 81.2315 11.1487C81.2315 14.1363 80.2121 16.6468 78.2005 18.615C76.7961 19.9923 75.2237 20.849 73.5265 21.1635ZM74.7736 1.855C75.3375 2.29419 75.8147 2.89606 76.2051 3.64975C77.0943 5.36859 77.5444 7.89534 77.5444 11.1649C77.5444 14.3966 77.0835 16.9233 76.1726 18.6693C75.7767 19.423 75.305 20.0302 74.7519 20.4749C75.896 20.0465 76.975 19.347 77.9673 18.3765C79.9085 16.4733 80.8899 14.0387 80.8899 11.1487C80.8899 8.14476 79.9085 5.68308 77.9673 3.83952C76.9967 2.92317 75.9231 2.25624 74.7736 1.855ZM71.9758 21.0334C70.2623 21.0334 69.0044 20.1983 68.1368 18.4903C67.2747 16.7986 66.8355 14.3315 66.8355 11.1649C66.8355 7.9604 67.2747 5.4933 68.1368 3.82868C69.0044 2.1478 70.2623 1.32904 71.9758 1.32904C73.7163 1.32904 74.9851 2.1478 75.8526 3.82868C76.7148 5.4933 77.1486 7.9604 77.1486 11.1649C77.1486 14.3369 76.7039 16.7986 75.8201 18.4903C74.9309 20.1983 73.6729 21.0334 71.9758 21.0334ZM71.9758 1.67064C70.3979 1.67064 69.243 2.42433 68.4351 3.98592C67.6 5.60174 67.1771 8.01463 67.1771 11.1649C67.1771 14.2773 67.6 16.6902 68.4351 18.3385C69.243 19.9218 70.3979 20.6918 71.9758 20.6918C73.5374 20.6918 74.6977 19.9218 75.5219 18.3331C76.3786 16.6902 76.8124 14.2773 76.8124 11.1649C76.8124 8.01463 76.3894 5.60174 75.5544 3.98592C74.7465 2.42433 73.5753 1.67064 71.9758 1.67064Z" fill="#1A1A1A"/>
<path d="M0.112305 34.5195C0.506185 34.4772 0.750326 34.4056 0.844727 34.3047C0.942383 34.2005 0.991211 33.932 0.991211 33.499V29.168C0.991211 28.8132 0.9375 28.582 0.830078 28.4746C0.722656 28.3639 0.483398 28.2956 0.112305 28.2695V28.084H5.43945L5.47363 29.5195H5.19531C5.12695 29.0605 4.99837 28.7708 4.80957 28.6504C4.62077 28.5267 4.24805 28.4648 3.69141 28.4648H2.32422C2.19076 28.4648 2.10449 28.4876 2.06543 28.5332C2.02962 28.5788 2.01172 28.6683 2.01172 28.8018V31.0332H3.45703C3.88346 31.0332 4.15527 30.9697 4.27246 30.8428C4.38965 30.7158 4.48405 30.4587 4.55566 30.0713H4.79004V32.3857H4.55566C4.48079 31.9984 4.38477 31.7428 4.26758 31.6191C4.15039 31.4922 3.88021 31.4287 3.45703 31.4287H2.01172V33.6162C2.01172 33.984 2.06706 34.2201 2.17773 34.3242C2.29167 34.4251 2.53743 34.4902 2.91504 34.5195V34.7002H0.112305V34.5195ZM5.61035 34.5391C5.90983 34.513 6.1084 34.4609 6.20605 34.3828C6.30371 34.3014 6.35254 34.1305 6.35254 33.8701V31.668C6.35254 31.3457 6.32161 31.1162 6.25977 30.9795C6.20117 30.8395 6.09212 30.7695 5.93262 30.7695C5.90007 30.7695 5.85612 30.7744 5.80078 30.7842C5.7487 30.7907 5.69336 30.8005 5.63477 30.8135V30.6523C5.82031 30.5872 6.01074 30.5205 6.20605 30.4521C6.40137 30.3838 6.53646 30.335 6.61133 30.3057C6.77409 30.2438 6.94173 30.1738 7.11426 30.0957C7.13704 30.0957 7.15007 30.1038 7.15332 30.1201C7.15983 30.1364 7.16309 30.1706 7.16309 30.2227V31.0234C7.37142 30.7337 7.57161 30.5075 7.76367 30.3447C7.95898 30.182 8.16081 30.1006 8.36914 30.1006C8.53516 30.1006 8.67025 30.151 8.77441 30.252C8.87858 30.3496 8.93066 30.4733 8.93066 30.623C8.93066 30.7565 8.88997 30.8688 8.80859 30.96C8.73047 31.0511 8.63118 31.0967 8.51074 31.0967C8.38704 31.0967 8.26172 31.0397 8.13477 30.9258C8.01107 30.8118 7.91341 30.7549 7.8418 30.7549C7.72786 30.7549 7.58789 30.8477 7.42188 31.0332C7.25586 31.2155 7.17285 31.4043 7.17285 31.5996V33.8018C7.17285 34.0817 7.23796 34.277 7.36816 34.3877C7.49837 34.4951 7.71484 34.5456 8.01758 34.5391V34.7002H5.61035V34.5391ZM9.15039 32.4346C9.15039 31.7868 9.35547 31.2399 9.76562 30.7939C10.179 30.3447 10.7096 30.1201 11.3574 30.1201C12.002 30.1201 12.5358 30.3317 12.959 30.7549C13.3822 31.1781 13.5938 31.7412 13.5938 32.4443C13.5938 33.0921 13.3887 33.6553 12.9785 34.1338C12.5684 34.6123 12.0378 34.8516 11.3867 34.8516C10.7617 34.8516 10.2327 34.6221 9.7998 34.1631C9.36686 33.7041 9.15039 33.1279 9.15039 32.4346ZM11.2207 30.4131C10.9635 30.4131 10.7406 30.4977 10.5518 30.667C10.2262 30.9632 10.0635 31.4743 10.0635 32.2002C10.0635 32.7796 10.1937 33.32 10.4541 33.8213C10.7178 34.3226 11.0824 34.5732 11.5479 34.5732C11.9124 34.5732 12.1924 34.4056 12.3877 34.0703C12.5863 33.735 12.6855 33.2956 12.6855 32.752C12.6855 32.1888 12.5602 31.6582 12.3096 31.1602C12.0589 30.6621 11.696 30.4131 11.2207 30.4131ZM14.0576 34.5732C14.3115 34.5505 14.4808 34.5081 14.5654 34.4463C14.6956 34.3519 14.7607 34.1631 14.7607 33.8799V31.3555C14.7607 31.1146 14.7282 30.9567 14.6631 30.8818C14.6012 30.807 14.4971 30.7695 14.3506 30.7695C14.2822 30.7695 14.2301 30.7728 14.1943 30.7793C14.1618 30.7858 14.1227 30.7972 14.0771 30.8135V30.6426L14.4287 30.5254C14.5557 30.4831 14.764 30.4066 15.0537 30.2959C15.3434 30.1852 15.4964 30.1299 15.5127 30.1299C15.529 30.1299 15.5387 30.138 15.542 30.1543C15.5452 30.1706 15.5469 30.2015 15.5469 30.2471V30.9062C15.8691 30.6133 16.1475 30.4115 16.3818 30.3008C16.6162 30.1868 16.8571 30.1299 17.1045 30.1299C17.4398 30.1299 17.7067 30.2438 17.9053 30.4717C18.0094 30.5954 18.0957 30.763 18.1641 30.9746C18.4049 30.7305 18.6149 30.5498 18.7939 30.4326C19.1032 30.2308 19.4189 30.1299 19.7412 30.1299C20.2653 30.1299 20.6152 30.3431 20.791 30.7695C20.8919 31.0104 20.9424 31.3913 20.9424 31.9121V33.9385C20.9424 34.1696 20.9928 34.3275 21.0938 34.4121C21.1979 34.4935 21.3835 34.5472 21.6504 34.5732V34.7002H19.4482V34.5635C19.7314 34.5374 19.917 34.4805 20.0049 34.3926C20.096 34.3047 20.1416 34.1257 20.1416 33.8555V31.751C20.1416 31.4352 20.1074 31.2025 20.0391 31.0527C19.9186 30.7858 19.6826 30.6523 19.3311 30.6523C19.1195 30.6523 18.9095 30.7223 18.7012 30.8623C18.5807 30.9437 18.4326 31.0739 18.2568 31.2529V33.7529C18.2568 34.0166 18.3024 34.2168 18.3936 34.3535C18.488 34.4902 18.6849 34.5635 18.9844 34.5732V34.7002H16.7432V34.5732C17.0524 34.5342 17.2493 34.4593 17.334 34.3486C17.4186 34.238 17.4609 33.9661 17.4609 33.5332V32.166C17.4609 31.6647 17.4284 31.3197 17.3633 31.1309C17.2559 30.8118 17.028 30.6523 16.6797 30.6523C16.4811 30.6523 16.2858 30.7077 16.0938 30.8184C15.9017 30.9258 15.7324 31.0674 15.5859 31.2432V33.9141C15.5859 34.1615 15.6283 34.3324 15.7129 34.4268C15.8008 34.5212 15.9896 34.57 16.2793 34.5732V34.7002H14.0576V34.5732ZM24.1992 28.084H29.8486L29.9023 29.7832H29.6631C29.5459 29.2493 29.3962 28.9027 29.2139 28.7432C29.0348 28.5804 28.6556 28.499 28.0762 28.499H27.5195V33.6162C27.5195 34.0036 27.5798 34.2445 27.7002 34.3389C27.8206 34.43 28.0843 34.4902 28.4912 34.5195V34.7002H25.5762V34.5195C25.9993 34.487 26.263 34.417 26.3672 34.3096C26.4714 34.2021 26.5234 33.932 26.5234 33.499V28.499H25.9668C25.4134 28.499 25.0358 28.5788 24.834 28.7383C24.6354 28.8978 24.4857 29.2461 24.3848 29.7832H24.1406L24.1992 28.084ZM30.2051 34.5635C30.472 34.5277 30.6462 34.4626 30.7275 34.3682C30.8122 34.2705 30.8545 34.0426 30.8545 33.6846V28.9971C30.8545 28.8148 30.8301 28.6813 30.7812 28.5967C30.7357 28.5088 30.6217 28.4648 30.4395 28.4648C30.4036 28.4648 30.3678 28.4681 30.332 28.4746C30.2995 28.4779 30.262 28.4827 30.2197 28.4893V28.3135C30.363 28.2712 30.5387 28.2207 30.7471 28.1621C30.9587 28.1003 31.1051 28.0563 31.1865 28.0303L31.6553 27.8838L31.665 27.918V30.916C31.8701 30.6816 32.0524 30.5091 32.2119 30.3984C32.4984 30.2031 32.8076 30.1055 33.1396 30.1055C33.667 30.1055 34.0267 30.3268 34.2188 30.7695C34.3229 31.0039 34.375 31.3115 34.375 31.6924V33.6846C34.375 34.0296 34.4141 34.2542 34.4922 34.3584C34.5736 34.4626 34.738 34.5309 34.9854 34.5635V34.7002H32.8711V34.5635C33.1543 34.5244 33.3366 34.4577 33.418 34.3633C33.4993 34.2689 33.54 34.0426 33.54 33.6846V31.707C33.54 31.3913 33.4863 31.1357 33.3789 30.9404C33.2747 30.7451 33.0762 30.6475 32.7832 30.6475C32.5293 30.6475 32.2835 30.7386 32.0459 30.9209C31.8083 31.1032 31.6895 31.222 31.6895 31.2773V33.6846C31.6895 34.0492 31.7318 34.277 31.8164 34.3682C31.901 34.4593 32.0817 34.5244 32.3584 34.5635V34.7002H30.2051V34.5635ZM37.4072 30.1201C37.8662 30.1201 38.2682 30.2796 38.6133 30.5986C38.9583 30.9144 39.1309 31.3636 39.1309 31.9463H36.0303C36.0628 32.7015 36.2337 33.2516 36.543 33.5967C36.8522 33.9417 37.2184 34.1143 37.6416 34.1143C37.9834 34.1143 38.2715 34.0247 38.5059 33.8457C38.7402 33.6667 38.9567 33.4128 39.1553 33.084L39.3262 33.1426C39.1927 33.556 38.9421 33.9385 38.5742 34.29C38.2096 34.6416 37.762 34.8174 37.2314 34.8174C36.6195 34.8174 36.1458 34.5863 35.8105 34.124C35.4785 33.6618 35.3125 33.1296 35.3125 32.5273C35.3125 31.873 35.5062 31.3083 35.8936 30.833C36.2809 30.3577 36.7855 30.1201 37.4072 30.1201ZM37.124 30.4766C36.7529 30.4766 36.4697 30.641 36.2744 30.9697C36.1702 31.1455 36.0954 31.3669 36.0498 31.6338H38.1104C38.0745 31.3083 38.0127 31.0658 37.9248 30.9062C37.7653 30.6198 37.4984 30.4766 37.124 30.4766ZM42.1729 34.5195C42.5407 34.4805 42.7783 34.4154 42.8857 34.3242C42.9964 34.2298 43.0518 33.9938 43.0518 33.6162V29.168C43.0518 28.8132 42.998 28.582 42.8906 28.4746C42.7832 28.3639 42.5439 28.2956 42.1729 28.2695V28.084H47.4854L47.5195 29.5195H47.2656C47.181 29.0768 47.054 28.7904 46.8848 28.6602C46.7155 28.5299 46.3379 28.4648 45.752 28.4648H44.3945C44.248 28.4648 44.1569 28.4893 44.1211 28.5381C44.0885 28.5837 44.0723 28.6715 44.0723 28.8018V31.0332H45.6104C46.0368 31.0332 46.3086 30.9697 46.4258 30.8428C46.543 30.7158 46.6374 30.4587 46.709 30.0713H46.9434V32.3857H46.709C46.6341 31.9984 46.5381 31.7428 46.4209 31.6191C46.3037 31.4922 46.0335 31.4287 45.6104 31.4287H44.0723V33.9043C44.0723 34.1029 44.1341 34.2201 44.2578 34.2559C44.3848 34.2917 44.7607 34.3096 45.3857 34.3096C46.0628 34.3096 46.5625 34.2363 46.8848 34.0898C47.207 33.9401 47.4967 33.5804 47.7539 33.0107H48.0322L47.5781 34.7002H42.1729V34.5195ZM50.6592 30.0957C51.0661 30.0957 51.416 30.2015 51.709 30.4131C52.0052 30.6214 52.1533 30.8509 52.1533 31.1016C52.1533 31.209 52.1159 31.3099 52.041 31.4043C51.9661 31.4954 51.8506 31.541 51.6943 31.541C51.5804 31.541 51.4795 31.502 51.3916 31.4238C51.307 31.3457 51.2451 31.2318 51.2061 31.082L51.1475 30.8477C51.1051 30.6751 51.0319 30.5531 50.9277 30.4814C50.8203 30.4131 50.6787 30.3789 50.5029 30.3789C50.1318 30.3789 49.8177 30.5417 49.5605 30.8672C49.3066 31.1895 49.1797 31.6191 49.1797 32.1562C49.1797 32.6478 49.3197 33.0889 49.5996 33.4795C49.8828 33.8701 50.2637 34.0654 50.7422 34.0654C51.0807 34.0654 51.3818 33.9548 51.6455 33.7334C51.7952 33.6064 51.9645 33.4046 52.1533 33.1279L52.29 33.2109C52.1045 33.6016 51.9092 33.9108 51.7041 34.1387C51.3102 34.5749 50.8545 34.793 50.3369 34.793C49.8291 34.793 49.3799 34.5928 48.9893 34.1924C48.5986 33.792 48.4033 33.2484 48.4033 32.5615C48.4033 31.8877 48.6165 31.3083 49.043 30.8232C49.4694 30.3382 50.0081 30.0957 50.6592 30.0957ZM52.8711 32.4346C52.8711 31.7868 53.0762 31.2399 53.4863 30.7939C53.8997 30.3447 54.4303 30.1201 55.0781 30.1201C55.7227 30.1201 56.2565 30.3317 56.6797 30.7549C57.1029 31.1781 57.3145 31.7412 57.3145 32.4443C57.3145 33.0921 57.1094 33.6553 56.6992 34.1338C56.2891 34.6123 55.7585 34.8516 55.1074 34.8516C54.4824 34.8516 53.9535 34.6221 53.5205 34.1631C53.0876 33.7041 52.8711 33.1279 52.8711 32.4346ZM54.9414 30.4131C54.6842 30.4131 54.4613 30.4977 54.2725 30.667C53.9469 30.9632 53.7842 31.4743 53.7842 32.2002C53.7842 32.7796 53.9144 33.32 54.1748 33.8213C54.4385 34.3226 54.8031 34.5732 55.2686 34.5732C55.6331 34.5732 55.9131 34.4056 56.1084 34.0703C56.307 33.735 56.4062 33.2956 56.4062 32.752C56.4062 32.1888 56.2809 31.6582 56.0303 31.1602C55.7796 30.6621 55.4167 30.4131 54.9414 30.4131ZM57.7979 34.5635C58.029 34.5342 58.1901 34.4772 58.2812 34.3926C58.3757 34.3047 58.4229 34.111 58.4229 33.8115V31.3359C58.4229 31.1276 58.4033 30.9811 58.3643 30.8965C58.3024 30.7728 58.1755 30.7109 57.9834 30.7109C57.9541 30.7109 57.9232 30.7126 57.8906 30.7158C57.8613 30.7191 57.8239 30.724 57.7783 30.7305V30.5596C57.9118 30.5205 58.2275 30.4196 58.7256 30.2568L59.1846 30.1055C59.2074 30.1055 59.2204 30.1136 59.2236 30.1299C59.2301 30.1462 59.2334 30.1689 59.2334 30.1982V30.916C59.5329 30.6361 59.7673 30.444 59.9365 30.3398C60.1904 30.1803 60.4541 30.1006 60.7275 30.1006C60.9489 30.1006 61.1507 30.1641 61.333 30.291C61.6846 30.5384 61.8604 30.9795 61.8604 31.6143V33.8945C61.8604 34.1289 61.9076 34.2982 62.002 34.4023C62.0964 34.5065 62.2542 34.5602 62.4756 34.5635V34.7002H60.3906V34.5635C60.6283 34.5309 60.7943 34.4658 60.8887 34.3682C60.9831 34.2673 61.0303 34.0508 61.0303 33.7188V31.6338C61.0303 31.3538 60.9782 31.1227 60.874 30.9404C60.7699 30.7549 60.5778 30.6621 60.2979 30.6621C60.1058 30.6621 59.9105 30.7272 59.7119 30.8574C59.6012 30.9323 59.458 31.056 59.2822 31.2285V33.9629C59.2822 34.1973 59.3343 34.3551 59.4385 34.4365C59.5426 34.5146 59.707 34.557 59.9316 34.5635V34.7002H57.7979V34.5635ZM62.8711 32.4346C62.8711 31.7868 63.0762 31.2399 63.4863 30.7939C63.8997 30.3447 64.4303 30.1201 65.0781 30.1201C65.7227 30.1201 66.2565 30.3317 66.6797 30.7549C67.1029 31.1781 67.3145 31.7412 67.3145 32.4443C67.3145 33.0921 67.1094 33.6553 66.6992 34.1338C66.2891 34.6123 65.7585 34.8516 65.1074 34.8516C64.4824 34.8516 63.9535 34.6221 63.5205 34.1631C63.0876 33.7041 62.8711 33.1279 62.8711 32.4346ZM64.9414 30.4131C64.6842 30.4131 64.4613 30.4977 64.2725 30.667C63.9469 30.9632 63.7842 31.4743 63.7842 32.2002C63.7842 32.7796 63.9144 33.32 64.1748 33.8213C64.4385 34.3226 64.8031 34.5732 65.2686 34.5732C65.6331 34.5732 65.9131 34.4056 66.1084 34.0703C66.307 33.735 66.4062 33.2956 66.4062 32.752C66.4062 32.1888 66.2809 31.6582 66.0303 31.1602C65.7796 30.6621 65.4167 30.4131 64.9414 30.4131ZM67.7783 34.5732C68.0322 34.5505 68.2015 34.5081 68.2861 34.4463C68.4163 34.3519 68.4814 34.1631 68.4814 33.8799V31.3555C68.4814 31.1146 68.4489 30.9567 68.3838 30.8818C68.3219 30.807 68.2178 30.7695 68.0713 30.7695C68.0029 30.7695 67.9508 30.7728 67.915 30.7793C67.8825 30.7858 67.8434 30.7972 67.7979 30.8135V30.6426L68.1494 30.5254C68.2764 30.4831 68.4847 30.4066 68.7744 30.2959C69.0641 30.1852 69.2171 30.1299 69.2334 30.1299C69.2497 30.1299 69.2594 30.138 69.2627 30.1543C69.266 30.1706 69.2676 30.2015 69.2676 30.2471V30.9062C69.5898 30.6133 69.8682 30.4115 70.1025 30.3008C70.3369 30.1868 70.5778 30.1299 70.8252 30.1299C71.1605 30.1299 71.4274 30.2438 71.626 30.4717C71.7301 30.5954 71.8164 30.763 71.8848 30.9746C72.1257 30.7305 72.3356 30.5498 72.5146 30.4326C72.8239 30.2308 73.1396 30.1299 73.4619 30.1299C73.986 30.1299 74.3359 30.3431 74.5117 30.7695C74.6126 31.0104 74.6631 31.3913 74.6631 31.9121V33.9385C74.6631 34.1696 74.7135 34.3275 74.8145 34.4121C74.9186 34.4935 75.1042 34.5472 75.3711 34.5732V34.7002H73.1689V34.5635C73.4521 34.5374 73.6377 34.4805 73.7256 34.3926C73.8167 34.3047 73.8623 34.1257 73.8623 33.8555V31.751C73.8623 31.4352 73.8281 31.2025 73.7598 31.0527C73.6393 30.7858 73.4033 30.6523 73.0518 30.6523C72.8402 30.6523 72.6302 30.7223 72.4219 30.8623C72.3014 30.9437 72.1533 31.0739 71.9775 31.2529V33.7529C71.9775 34.0166 72.0231 34.2168 72.1143 34.3535C72.2087 34.4902 72.4056 34.5635 72.7051 34.5732V34.7002H70.4639V34.5732C70.7731 34.5342 70.9701 34.4593 71.0547 34.3486C71.1393 34.238 71.1816 33.9661 71.1816 33.5332V32.166C71.1816 31.6647 71.1491 31.3197 71.084 31.1309C70.9766 30.8118 70.7487 30.6523 70.4004 30.6523C70.2018 30.6523 70.0065 30.7077 69.8145 30.8184C69.6224 30.9258 69.4531 31.0674 69.3066 31.2432V33.9141C69.3066 34.1615 69.349 34.3324 69.4336 34.4268C69.5215 34.5212 69.7103 34.57 70 34.5732V34.7002H67.7783V34.5732ZM76.2207 28.3965C76.2207 28.2565 76.2695 28.1361 76.3672 28.0352C76.4648 27.9342 76.5853 27.8838 76.7285 27.8838C76.8685 27.8838 76.9873 27.9342 77.085 28.0352C77.1859 28.1328 77.2363 28.2533 77.2363 28.3965C77.2363 28.5365 77.1859 28.6569 77.085 28.7578C76.9873 28.8555 76.8685 28.9043 76.7285 28.9043C76.5853 28.9043 76.4648 28.8555 76.3672 28.7578C76.2695 28.6569 76.2207 28.5365 76.2207 28.3965ZM75.5957 34.5635C75.944 34.5309 76.1637 34.4723 76.2549 34.3877C76.346 34.2998 76.3916 34.0654 76.3916 33.6846V31.3555C76.3916 31.1439 76.377 30.9974 76.3477 30.916C76.2988 30.7826 76.1963 30.7158 76.04 30.7158C76.0042 30.7158 75.9684 30.7191 75.9326 30.7256C75.9001 30.7321 75.8024 30.7581 75.6396 30.8037V30.6523L75.8496 30.584C76.4193 30.3984 76.8164 30.2585 77.041 30.1641C77.1322 30.125 77.1908 30.1055 77.2168 30.1055C77.2233 30.1283 77.2266 30.1527 77.2266 30.1787V33.6846C77.2266 34.0557 77.2705 34.2884 77.3584 34.3828C77.4495 34.4772 77.653 34.5374 77.9688 34.5635V34.7002H75.5957V34.5635ZM80.6689 30.0957C81.0758 30.0957 81.4258 30.2015 81.7188 30.4131C82.015 30.6214 82.1631 30.8509 82.1631 31.1016C82.1631 31.209 82.1257 31.3099 82.0508 31.4043C81.9759 31.4954 81.8604 31.541 81.7041 31.541C81.5902 31.541 81.4893 31.502 81.4014 31.4238C81.3167 31.3457 81.2549 31.2318 81.2158 31.082L81.1572 30.8477C81.1149 30.6751 81.0417 30.5531 80.9375 30.4814C80.8301 30.4131 80.6885 30.3789 80.5127 30.3789C80.1416 30.3789 79.8275 30.5417 79.5703 30.8672C79.3164 31.1895 79.1895 31.6191 79.1895 32.1562C79.1895 32.6478 79.3294 33.0889 79.6094 33.4795C79.8926 33.8701 80.2734 34.0654 80.752 34.0654C81.0905 34.0654 81.3916 33.9548 81.6553 33.7334C81.805 33.6064 81.9743 33.4046 82.1631 33.1279L82.2998 33.2109C82.1143 33.6016 81.9189 33.9108 81.7139 34.1387C81.32 34.5749 80.8643 34.793 80.3467 34.793C79.8389 34.793 79.3896 34.5928 78.999 34.1924C78.6084 33.792 78.4131 33.2484 78.4131 32.5615C78.4131 31.8877 78.6263 31.3083 79.0527 30.8232C79.4792 30.3382 80.0179 30.0957 80.6689 30.0957ZM85.1465 28.084H90.7959L90.8496 29.7832H90.6104C90.4932 29.2493 90.3434 28.9027 90.1611 28.7432C89.9821 28.5804 89.6029 28.499 89.0234 28.499H88.4668V33.6162C88.4668 34.0036 88.527 34.2445 88.6475 34.3389C88.7679 34.43 89.0316 34.4902 89.4385 34.5195V34.7002H86.5234V34.5195C86.9466 34.487 87.2103 34.417 87.3145 34.3096C87.4186 34.2021 87.4707 33.932 87.4707 33.499V28.499H86.9141C86.3607 28.499 85.9831 28.5788 85.7812 28.7383C85.5827 28.8978 85.4329 29.2461 85.332 29.7832H85.0879L85.1465 28.084ZM91.5332 28.3965C91.5332 28.2565 91.582 28.1361 91.6797 28.0352C91.7773 27.9342 91.8978 27.8838 92.041 27.8838C92.181 27.8838 92.2998 27.9342 92.3975 28.0352C92.4984 28.1328 92.5488 28.2533 92.5488 28.3965C92.5488 28.5365 92.4984 28.6569 92.3975 28.7578C92.2998 28.8555 92.181 28.9043 92.041 28.9043C91.8978 28.9043 91.7773 28.8555 91.6797 28.7578C91.582 28.6569 91.5332 28.5365 91.5332 28.3965ZM90.9082 34.5635C91.2565 34.5309 91.4762 34.4723 91.5674 34.3877C91.6585 34.2998 91.7041 34.0654 91.7041 33.6846V31.3555C91.7041 31.1439 91.6895 30.9974 91.6602 30.916C91.6113 30.7826 91.5088 30.7158 91.3525 30.7158C91.3167 30.7158 91.2809 30.7191 91.2451 30.7256C91.2126 30.7321 91.1149 30.7581 90.9521 30.8037V30.6523L91.1621 30.584C91.7318 30.3984 92.1289 30.2585 92.3535 30.1641C92.4447 30.125 92.5033 30.1055 92.5293 30.1055C92.5358 30.1283 92.5391 30.1527 92.5391 30.1787V33.6846C92.5391 34.0557 92.583 34.2884 92.6709 34.3828C92.762 34.4772 92.9655 34.5374 93.2812 34.5635V34.7002H90.9082V34.5635ZM93.6572 34.5732C93.9111 34.5505 94.0804 34.5081 94.165 34.4463C94.2952 34.3519 94.3604 34.1631 94.3604 33.8799V31.3555C94.3604 31.1146 94.3278 30.9567 94.2627 30.8818C94.2008 30.807 94.0967 30.7695 93.9502 30.7695C93.8818 30.7695 93.8298 30.7728 93.7939 30.7793C93.7614 30.7858 93.7223 30.7972 93.6768 30.8135V30.6426L94.0283 30.5254C94.1553 30.4831 94.3636 30.4066 94.6533 30.2959C94.943 30.1852 95.096 30.1299 95.1123 30.1299C95.1286 30.1299 95.1383 30.138 95.1416 30.1543C95.1449 30.1706 95.1465 30.2015 95.1465 30.2471V30.9062C95.4688 30.6133 95.7471 30.4115 95.9814 30.3008C96.2158 30.1868 96.4567 30.1299 96.7041 30.1299C97.0394 30.1299 97.3063 30.2438 97.5049 30.4717C97.609 30.5954 97.6953 30.763 97.7637 30.9746C98.0046 30.7305 98.2145 30.5498 98.3936 30.4326C98.7028 30.2308 99.0186 30.1299 99.3408 30.1299C99.8649 30.1299 100.215 30.3431 100.391 30.7695C100.492 31.0104 100.542 31.3913 100.542 31.9121V33.9385C100.542 34.1696 100.592 34.3275 100.693 34.4121C100.798 34.4935 100.983 34.5472 101.25 34.5732V34.7002H99.0479V34.5635C99.3311 34.5374 99.5166 34.4805 99.6045 34.3926C99.6956 34.3047 99.7412 34.1257 99.7412 33.8555V31.751C99.7412 31.4352 99.707 31.2025 99.6387 31.0527C99.5182 30.7858 99.2822 30.6523 98.9307 30.6523C98.7191 30.6523 98.5091 30.7223 98.3008 30.8623C98.1803 30.9437 98.0322 31.0739 97.8564 31.2529V33.7529C97.8564 34.0166 97.902 34.2168 97.9932 34.3535C98.0876 34.4902 98.2845 34.5635 98.584 34.5732V34.7002H96.3428V34.5732C96.652 34.5342 96.849 34.4593 96.9336 34.3486C97.0182 34.238 97.0605 33.9661 97.0605 33.5332V32.166C97.0605 31.6647 97.028 31.3197 96.9629 31.1309C96.8555 30.8118 96.6276 30.6523 96.2793 30.6523C96.0807 30.6523 95.8854 30.7077 95.6934 30.8184C95.5013 30.9258 95.332 31.0674 95.1855 31.2432V33.9141C95.1855 34.1615 95.2279 34.3324 95.3125 34.4268C95.4004 34.5212 95.5892 34.57 95.8789 34.5732V34.7002H93.6572V34.5732ZM103.569 30.1201C104.028 30.1201 104.43 30.2796 104.775 30.5986C105.12 30.9144 105.293 31.3636 105.293 31.9463H102.192C102.225 32.7015 102.396 33.2516 102.705 33.5967C103.014 33.9417 103.381 34.1143 103.804 34.1143C104.146 34.1143 104.434 34.0247 104.668 33.8457C104.902 33.6667 105.119 33.4128 105.317 33.084L105.488 33.1426C105.355 33.556 105.104 33.9385 104.736 34.29C104.372 34.6416 103.924 34.8174 103.394 34.8174C102.782 34.8174 102.308 34.5863 101.973 34.124C101.641 33.6618 101.475 33.1296 101.475 32.5273C101.475 31.873 101.668 31.3083 102.056 30.833C102.443 30.3577 102.948 30.1201 103.569 30.1201ZM103.286 30.4766C102.915 30.4766 102.632 30.641 102.437 30.9697C102.332 31.1455 102.257 31.3669 102.212 31.6338H104.272C104.237 31.3083 104.175 31.0658 104.087 30.9062C103.927 30.6198 103.66 30.4766 103.286 30.4766ZM106.24 33.1621H106.401C106.476 33.5332 106.577 33.818 106.704 34.0166C106.932 34.3812 107.266 34.5635 107.705 34.5635C107.949 34.5635 108.141 34.4967 108.281 34.3633C108.424 34.2266 108.496 34.0508 108.496 33.8359C108.496 33.6992 108.455 33.5674 108.374 33.4404C108.293 33.3135 108.149 33.1898 107.944 33.0693L107.397 32.7568C106.997 32.542 106.702 32.3255 106.514 32.1074C106.325 31.8893 106.23 31.6322 106.23 31.3359C106.23 30.9714 106.361 30.6719 106.621 30.4375C106.882 30.2031 107.209 30.0859 107.603 30.0859C107.775 30.0859 107.964 30.1185 108.169 30.1836C108.377 30.2487 108.494 30.2812 108.521 30.2812C108.579 30.2812 108.621 30.2731 108.647 30.2568C108.674 30.2406 108.696 30.2145 108.716 30.1787H108.833L108.867 31.541H108.716C108.651 31.2253 108.563 30.9795 108.452 30.8037C108.25 30.4782 107.959 30.3154 107.578 30.3154C107.35 30.3154 107.171 30.3854 107.041 30.5254C106.911 30.6654 106.846 30.8298 106.846 31.0186C106.846 31.318 107.07 31.585 107.52 31.8193L108.164 32.166C108.857 32.5436 109.204 32.9831 109.204 33.4844C109.204 33.8685 109.059 34.1826 108.77 34.4268C108.483 34.6709 108.107 34.793 107.642 34.793C107.446 34.793 107.225 34.7604 106.978 34.6953C106.73 34.6302 106.584 34.5977 106.538 34.5977C106.499 34.5977 106.465 34.6123 106.436 34.6416C106.406 34.6676 106.383 34.7002 106.367 34.7393H106.24V33.1621Z" fill="#595959"/>
</svg>
