<?xml version="1.0" encoding="utf-8"?>
<!-- Generator: Adobe Illustrator 24.1.2, SVG Export Plug-In . SVG Version: 6.00 Build 0)  -->
<svg version="1.1" id="Layer_1" xmlns="http://www.w3.org/2000/svg" xmlns:xlink="http://www.w3.org/1999/xlink" x="0px" y="0px"
	 viewBox="0 0 394.9 186" style="enable-background:new 0 0 394.9 186;" xml:space="preserve">
<style type="text/css">
	.st0{clip-path:url(#SVGID_2_);fill:url(#SVGID_3_);}
	.st1{clip-path:url(#SVGID_5_);fill:url(#SVGID_6_);}
	.st2{clip-path:url(#SVGID_8_);fill:url(#SVGID_9_);}
	.st3{clip-path:url(#SVGID_11_);fill:url(#SVGID_12_);}
	.st4{clip-path:url(#SVGID_14_);fill:url(#SVGID_15_);}
	.st5{clip-path:url(#SVGID_17_);fill:url(#SVGID_18_);}
	.st6{clip-path:url(#SVGID_20_);fill:url(#SVGID_21_);}
	.st7{clip-path:url(#SVGID_23_);fill:url(#SVGID_24_);}
	.st8{fill:#272F6B;}
	.st9{fill:#F5873F;}
	.st10{fill:#F5B544;}
	.st11{fill:#C4313C;}
	.st12{clip-path:url(#SVGID_26_);fill:url(#SVGID_27_);}
	.st13{clip-path:url(#SVGID_29_);fill:url(#SVGID_30_);}
	.st14{fill-rule:evenodd;clip-rule:evenodd;fill:#272F6B;}
	.st15{clip-path:url(#SVGID_32_);fill:url(#SVGID_33_);}
	.st16{clip-path:url(#SVGID_35_);fill:url(#SVGID_36_);}
	.st17{clip-path:url(#SVGID_38_);fill:url(#SVGID_39_);}
	.st18{clip-path:url(#SVGID_41_);fill:url(#SVGID_42_);}
	.st19{clip-path:url(#SVGID_44_);fill:url(#SVGID_45_);}
	.st20{clip-path:url(#SVGID_47_);fill:url(#SVGID_48_);}
	.st21{clip-path:url(#SVGID_50_);fill:url(#SVGID_51_);}
	.st22{clip-path:url(#SVGID_53_);fill:url(#SVGID_54_);}
	.st23{clip-path:url(#SVGID_56_);fill:url(#SVGID_57_);}
	.st24{clip-path:url(#SVGID_59_);fill:url(#SVGID_60_);}
	.st25{clip-path:url(#SVGID_62_);fill:url(#SVGID_63_);}
	.st26{clip-path:url(#SVGID_65_);fill:url(#SVGID_66_);}
	.st27{clip-path:url(#SVGID_68_);fill:url(#SVGID_69_);}
	.st28{clip-path:url(#SVGID_71_);fill:url(#SVGID_72_);}
	.st29{clip-path:url(#SVGID_74_);fill:url(#SVGID_75_);}
	.st30{clip-path:url(#SVGID_77_);fill:url(#SVGID_78_);}
	.st31{clip-path:url(#SVGID_80_);fill:url(#SVGID_81_);}
	.st32{clip-path:url(#SVGID_83_);fill:url(#SVGID_84_);}
	.st33{clip-path:url(#SVGID_86_);fill:url(#SVGID_87_);}
</style>
<g>
	<g>
		<g>
			<g>
				<defs>
					<path id="SVGID_1_" d="M32.7,30.5c-2.1,0.5-3.8,1.3-5.1,2.5c-1.9,1.6-2.8,3.6-2.8,5.8c0,1.9,0.8,3.5,2.2,4.9
						c1.2,1.2,3,2,5.2,2.5c2,0.5,4.4,0.9,7.1,1.1c3.9,0.4,6.6,1,8.1,1.9c1.1,0.7,1.1,1.4,1.1,1.6c0,0.6-0.4,1.2-1.1,1.7
						c-1.6,1.1-4.1,1.7-7.5,1.7c-2.2,0-4.6-0.3-7.1-0.8c-2.3-0.4-4.3-1.1-5.9-1.8l-1.1-0.5v5.7l0.4,0.2c1.6,0.8,3.6,1.5,6,1.9
						c2.4,0.5,4.8,0.7,7.3,0.7c2.2,0,4.2-0.2,5.9-0.5c1.9-0.4,3.5-0.9,4.7-1.6c1.3-0.7,2.3-1.7,3.2-2.9c0.9-1.2,1.3-2.6,1.3-4
						c0-1.3-0.4-2.5-1-3.6l0,0c-0.7-1-1.7-1.9-2.8-2.5c-1.3-0.7-2.9-1.3-4.6-1.6c-1.9-0.3-3.9-0.6-6-0.8c-3.9-0.4-6.7-1.1-8.2-2
						c-1-0.6-1.1-1.2-1.1-1.7c0-0.6,0.4-1.2,1.1-1.7c1.6-1.1,4-1.7,7.1-1.7c2.1,0,4.4,0.3,6.7,0.7c2.2,0.5,4.1,1.1,5.7,1.9l1.1,0.5
						v-5.8l-0.4-0.2c-1.6-0.8-3.5-1.4-5.8-1.9c-2.3-0.4-4.6-0.7-6.8-0.7C37.1,29.7,34.8,29.9,32.7,30.5z"/>
				</defs>
				<clipPath id="SVGID_2_">
					<use xlink:href="#SVGID_1_"  style="overflow:visible;"/>
				</clipPath>
				<linearGradient id="SVGID_3_" gradientUnits="userSpaceOnUse" x1="37.4516" y1="57.4346" x2="44.9217" y2="14.7746">
					<stop  offset="0" style="stop-color:#8C97AD"/>
					<stop  offset="0.16" style="stop-color:#8C97AD"/>
					<stop  offset="0.33" style="stop-color:#BAC8E1"/>
					<stop  offset="0.55" style="stop-color:#8C97AD"/>
					<stop  offset="0.72" style="stop-color:#ABBAD2"/>
					<stop  offset="0.98" style="stop-color:#8C97AD"/>
					<stop  offset="1" style="stop-color:#8C97AD"/>
				</linearGradient>
				<rect x="24.7" y="29.7" class="st0" width="29.9" height="29.9"/>
			</g>
			<g>
				<defs>
					<polygon id="SVGID_4_" points="99.9,59.4 105.8,59.4 105.8,50.8 106.5,49.8 120.6,29.6 113.4,29.6 105.8,40.5 102.9,44.7 
						99.9,40.5 92.3,29.6 85.1,29.6 99.3,49.8 99.9,50.8 					"/>
				</defs>
				<clipPath id="SVGID_5_">
					<use xlink:href="#SVGID_4_"  style="overflow:visible;"/>
				</clipPath>
				<linearGradient id="SVGID_6_" gradientUnits="userSpaceOnUse" x1="98.7224" y1="68.1571" x2="106.1824" y2="25.4971">
					<stop  offset="0" style="stop-color:#8C97AD"/>
					<stop  offset="0.16" style="stop-color:#8C97AD"/>
					<stop  offset="0.33" style="stop-color:#BAC8E1"/>
					<stop  offset="0.55" style="stop-color:#8C97AD"/>
					<stop  offset="0.72" style="stop-color:#ABBAD2"/>
					<stop  offset="0.98" style="stop-color:#8C97AD"/>
					<stop  offset="1" style="stop-color:#8C97AD"/>
				</linearGradient>
				<rect x="85.1" y="29.6" class="st1" width="35.5" height="29.8"/>
			</g>
			<g>
				<defs>
					<path id="SVGID_7_" d="M130.9,39.9l6.4,9.1h-12.7L130.9,39.9z M127.3,34.8l-17.1,24.5l-0.1,0.1h7.2l3.1-4.4h21.1l3.1,4.4h7.2
						l-17.2-24.6l-3.6-5.1L127.3,34.8z"/>
				</defs>
				<clipPath id="SVGID_8_">
					<use xlink:href="#SVGID_7_"  style="overflow:visible;"/>
				</clipPath>
				<linearGradient id="SVGID_9_" gradientUnits="userSpaceOnUse" x1="125.934" y1="72.922" x2="133.404" y2="30.262">
					<stop  offset="0" style="stop-color:#8C97AD"/>
					<stop  offset="0.16" style="stop-color:#8C97AD"/>
					<stop  offset="0.33" style="stop-color:#BAC8E1"/>
					<stop  offset="0.55" style="stop-color:#8C97AD"/>
					<stop  offset="0.72" style="stop-color:#ABBAD2"/>
					<stop  offset="0.98" style="stop-color:#8C97AD"/>
					<stop  offset="1" style="stop-color:#8C97AD"/>
				</linearGradient>
				<rect x="110.1" y="29.6" class="st2" width="41.7" height="29.8"/>
			</g>
			<g>
				<defs>
					<polygon id="SVGID_10_" points="70.1,46 70.1,46 69,47.6 					"/>
				</defs>
				<clipPath id="SVGID_11_">
					<use xlink:href="#SVGID_10_"  style="overflow:visible;"/>
				</clipPath>
				<linearGradient id="SVGID_12_" gradientUnits="userSpaceOnUse" x1="66.782" y1="62.5646" x2="74.242" y2="19.9046">
					<stop  offset="0" style="stop-color:#8C97AD"/>
					<stop  offset="0.16" style="stop-color:#8C97AD"/>
					<stop  offset="0.33" style="stop-color:#BAC8E1"/>
					<stop  offset="0.55" style="stop-color:#8C97AD"/>
					<stop  offset="0.72" style="stop-color:#ABBAD2"/>
					<stop  offset="0.98" style="stop-color:#8C97AD"/>
					<stop  offset="1" style="stop-color:#8C97AD"/>
				</linearGradient>
				<rect x="69" y="46" class="st3" width="1.2" height="1.6"/>
			</g>
			<g>
				<defs>
					<path id="SVGID_13_" d="M87.2,47.5L87.2,47.5c-1.1,0.1-2.2,0.2-3.2,0.3c-1.1,0.1-2.2,0.3-3.3,0.5c0,0,0,0,0,0l7.9,11.1l7.1,0
						L87.2,47.5C87.3,47.5,87.2,47.5,87.2,47.5z"/>
				</defs>
				<clipPath id="SVGID_14_">
					<use xlink:href="#SVGID_13_"  style="overflow:visible;"/>
				</clipPath>
				<linearGradient id="SVGID_15_" gradientUnits="userSpaceOnUse" x1="86.0442" y1="65.9427" x2="93.5141" y2="23.2827">
					<stop  offset="0" style="stop-color:#8C97AD"/>
					<stop  offset="0.16" style="stop-color:#8C97AD"/>
					<stop  offset="0.33" style="stop-color:#BAC8E1"/>
					<stop  offset="0.55" style="stop-color:#8C97AD"/>
					<stop  offset="0.72" style="stop-color:#ABBAD2"/>
					<stop  offset="0.98" style="stop-color:#8C97AD"/>
					<stop  offset="1" style="stop-color:#8C97AD"/>
				</linearGradient>
				<rect x="80.7" y="47.5" class="st4" width="15" height="11.9"/>
			</g>
			<g>
				<defs>
					<path id="SVGID_16_" d="M74.6,39.7l4.5,6.3c1.8,0,4.7,0,7.3,0.2l-8.2-11.5l-3.5-5l0,0L74.6,39.7z"/>
				</defs>
				<clipPath id="SVGID_17_">
					<use xlink:href="#SVGID_16_"  style="overflow:visible;"/>
				</clipPath>
				<linearGradient id="SVGID_18_" gradientUnits="userSpaceOnUse" x1="75.8617" y1="64.1546" x2="83.3217" y2="21.4946">
					<stop  offset="0" style="stop-color:#8C97AD"/>
					<stop  offset="0.16" style="stop-color:#8C97AD"/>
					<stop  offset="0.33" style="stop-color:#BAC8E1"/>
					<stop  offset="0.55" style="stop-color:#8C97AD"/>
					<stop  offset="0.72" style="stop-color:#ABBAD2"/>
					<stop  offset="0.98" style="stop-color:#8C97AD"/>
					<stop  offset="1" style="stop-color:#8C97AD"/>
				</linearGradient>
				<rect x="74.6" y="29.7" class="st5" width="11.8" height="16.5"/>
			</g>
			<g>
				<defs>
					<path id="SVGID_19_" d="M59.3,51.2c0.1-0.1,3.4-2.1,9.3-3.5c0.1,0,0.2,0,0.3-0.1l5.7-8.1l0,0l0-10L59.3,51.2z"/>
				</defs>
				<clipPath id="SVGID_20_">
					<use xlink:href="#SVGID_19_"  style="overflow:visible;"/>
				</clipPath>
				<linearGradient id="SVGID_21_" gradientUnits="userSpaceOnUse" x1="63.154" y1="61.9361" x2="70.6241" y2="19.2761">
					<stop  offset="0" style="stop-color:#8C97AD"/>
					<stop  offset="0.16" style="stop-color:#8C97AD"/>
					<stop  offset="0.33" style="stop-color:#BAC8E1"/>
					<stop  offset="0.55" style="stop-color:#8C97AD"/>
					<stop  offset="0.72" style="stop-color:#ABBAD2"/>
					<stop  offset="0.98" style="stop-color:#8C97AD"/>
					<stop  offset="1" style="stop-color:#8C97AD"/>
				</linearGradient>
				<rect x="59.3" y="29.7" class="st6" width="15.3" height="21.6"/>
			</g>
			<g>
				<defs>
					<path id="SVGID_22_" d="M80.6,46.5L80.6,46.5L80.6,46.5L80.6,46.5L80.6,46.5L80.6,46.5L80.6,46.5L80.6,46.5L80.6,46.5
						L80.6,46.5L80.6,46.5L80.6,46.5L80.6,46.5L80.6,46.5h-0.1h0h0h0h0h0c-0.3,0-0.7,0-1,0c-2.6,0-5.6,0.3-8.6,0.8
						c-0.2,0.1-0.4,0.1-0.7,0.2c-0.5,0.1-0.9,0.2-1.3,0.3c-6.2,1.4-9.6,3.5-9.6,3.5l-0.1,0.2L55,57.3l-1.5,2c0,0,0,0,0,0
						c0,0,0,0,0,0c0,0,0,0,0.1,0c0.5-0.4,3.9-2.5,9-4.9c0.3-0.1,0.5-0.2,0.7-0.3c0.5-0.2,1-0.5,1.5-0.7c0,0,0.1,0,0.2-0.1
						c2.1-0.9,4.4-1.8,6.8-2.6c0.2-0.1,0.4-0.1,0.5-0.2c2.6-0.9,5.4-1.6,8.3-2.1c0,0,0.1,0,0.1,0c0,0,0,0,0,0
						c1.1-0.2,2.2-0.4,3.3-0.5c1.1-0.1,2.2-0.2,3.2-0.3h0c0,0,0,0,0,0c0,0,0,0,0.1,0c1.4-0.1,2.8-0.1,4.2,0c0,0,0,0,0,0c0,0,0,0,0,0
						c0,0,0,0,0,0c-0.3-0.1-2.1-0.4-4.7-0.7c-0.7-0.1-1.5-0.1-2.3-0.2c0,0,0,0-0.1,0c-1.1-0.1-2.2-0.1-3.4-0.1L80.6,46.5z"/>
				</defs>
				<clipPath id="SVGID_23_">
					<use xlink:href="#SVGID_22_"  style="overflow:visible;"/>
				</clipPath>
				<linearGradient id="SVGID_24_" gradientUnits="userSpaceOnUse" x1="70.6983" y1="63.26" x2="78.1682" y2="20.59">
					<stop  offset="0" style="stop-color:#8C97AD"/>
					<stop  offset="0.16" style="stop-color:#8C97AD"/>
					<stop  offset="0.33" style="stop-color:#BAC8E1"/>
					<stop  offset="0.55" style="stop-color:#8C97AD"/>
					<stop  offset="0.72" style="stop-color:#ABBAD2"/>
					<stop  offset="0.98" style="stop-color:#8C97AD"/>
					<stop  offset="1" style="stop-color:#8C97AD"/>
				</linearGradient>
				<rect x="53.5" y="46.5" class="st7" width="38.1" height="12.8"/>
			</g>
		</g>
		<g>
			<path class="st8" d="M53.6,45.6c-0.7-1-1.7-1.9-2.8-2.5c-1.3-0.7-2.9-1.3-4.6-1.6c-1.9-0.3-3.9-0.6-6-0.8c-3.9-0.4-6.7-1.1-8.2-2
				c-1-0.6-1.1-1.2-1.1-1.7c0-0.6,0.4-1.2,1.1-1.7c1.6-1.1,4-1.7,7.1-1.7c2.1,0,4.4,0.3,6.7,0.7c2.2,0.5,4.1,1.1,5.7,1.9l1.1,0.5V31
				l-0.4-0.2c-1.6-0.8-3.5-1.4-5.8-1.9c-4.8-0.9-9.6-0.9-13.6,0.1c-2.1,0.5-3.8,1.3-5.1,2.5c-1.9,1.6-2.8,3.6-2.8,5.8
				c0,1.9,0.8,3.5,2.2,4.9c1.2,1.2,3,2,5.2,2.5c2,0.5,4.4,0.9,7.1,1.1c3.9,0.4,6.6,1,8.1,1.9c1.1,0.7,1.1,1.4,1.1,1.6
				c0,0.6-0.4,1.2-1.1,1.7c-1.6,1.1-4.1,1.7-7.5,1.7c-2.2,0-4.6-0.3-7.1-0.8c-2.3-0.4-4.3-1.1-5.9-1.8l-1.1-0.5v5.7l0.4,0.2
				c1.6,0.8,3.6,1.5,6,1.9c2.4,0.5,4.8,0.7,7.3,0.7c2.2,0,4.2-0.2,5.9-0.5c1.9-0.4,3.5-0.9,4.7-1.6c1.3-0.7,2.3-1.7,3.2-2.9
				c0.9-1.2,1.3-2.6,1.3-4C54.6,47.9,54.3,46.7,53.6,45.6L53.6,45.6z"/>
			<polygon class="st8" points="120.6,28.2 106.4,48.4 105.8,49.4 105.8,58 99.9,58 99.9,49.4 99.3,48.4 85.1,28.2 92.3,28.2 
				99.9,39.1 102.8,43.3 105.8,39.1 113.4,28.2 			"/>
			<path class="st8" d="M134.5,33.4l-3.6-5.1l-3.6,5.1l-17.1,24.5l-0.1,0.1h7.2l3.1-4.4h21.1l3.1,4.4h7.2L134.5,33.4z M124.5,47.6
				l6.3-9.1l6.4,9.1H124.5z"/>
			<g>
				<path class="st9" d="M95.7,58l-7.1,0l-7.9-11.1c0,0,0,0,0,0c1.1-0.2,2.2-0.4,3.2-0.5c1.1-0.1,2.2-0.2,3.2-0.3h0c0,0,0,0,0,0
					L95.7,58z"/>
				<path class="st9" d="M86.3,44.8c-2.6-0.2-5.5-0.2-7.3-0.2l-4.5-6.3l0-10l0,0l3.5,5L86.3,44.8z"/>
				<path class="st10" d="M74.6,38.3L74.6,38.3l-5.7,8c-0.1,0-0.2,0-0.3,0.1c-5.9,1.4-9.2,3.4-9.3,3.5l15.3-21.6L74.6,38.3z"/>
				<path class="st11" d="M91.5,46.1c-1.4-0.1-2.8-0.1-4.2,0c0,0,0,0-0.1,0c0,0,0,0,0,0h0c-1.1,0.1-2.2,0.2-3.2,0.3
					c-1.1,0.1-2.2,0.3-3.3,0.5c0,0,0,0,0,0c0,0-0.1,0-0.1,0c-2.9,0.5-5.7,1.3-8.3,2.1c-0.2,0.1-0.4,0.1-0.5,0.2
					C69.3,50.1,67,51,65,51.9c-0.1,0-0.1,0-0.2,0.1c-0.5,0.2-1,0.5-1.5,0.7c-0.2,0.1-0.5,0.2-0.7,0.4c-5.1,2.4-8.4,4.5-9,4.9
					c0,0,0,0-0.1,0c0,0,0,0,0,0c0,0,0,0,0,0l1.5-2l4.1-5.8l0.1-0.2c0,0,3.4-2.1,9.6-3.5c0.4-0.1,0.9-0.2,1.3-0.3
					c0.2-0.1,0.4-0.1,0.7-0.2c3-0.5,6-0.7,8.6-0.8c0.5,0,1.1,0,1.6,0c1.2,0,2.4,0,3.4,0.1c0,0,0,0,0.1,0c0.8,0,1.6,0.1,2.3,0.2
					C89.4,45.7,91.2,46,91.5,46.1C91.5,46.1,91.5,46.1,91.5,46.1C91.5,46.1,91.5,46.1,91.5,46.1C91.5,46.1,91.5,46.1,91.5,46.1"/>
			</g>
		</g>
	</g>
	<g>
		<g>
			<defs>
				<path id="SVGID_25_" d="M42,105.9h13.5c5.9,0,8.6,2.2,8.6,5.7v0.2c0,3.7-3,5.8-8.5,5.8H42V105.9z M42,82.6h11.6
					c5.2,0,8,1.9,8,5.4v0.2c0,3.7-3.1,5.5-8.5,5.5H42V82.6z M24.8,68.6v63h32.9c15.2,0,24.1-6.6,24.1-17.4V114
					c0-8.5-4.9-12.9-12.7-15.4c5.6-2.4,9.8-6.7,9.8-14v-0.2c0-4.3-1.5-7.6-4.1-10.2c-3.7-3.6-9.4-5.6-17.4-5.6H24.8z M90.4,131.5
					h17.7v-63H90.4V131.5z M118.9,68.6v14.7h30.9l-32,35.6v12.7h56.3v-14.8h-32l32-35.6V68.6H118.9z M179.8,68.6v15.3h19v47.7h17.7
					V83.9h19.1V68.6H179.8z M334,83.2h8.4c6.3,0,10.2,2.8,10.2,8.2v0.2c0,4.9-3.9,8.3-10.1,8.3H334V83.2z M370.2,90.8v-0.2
					c0-13.8-10.4-22-26.4-22h-27.4v63H334v-18h8.8C358.6,113.5,370.2,105.7,370.2,90.8z"/>
			</defs>
			<clipPath id="SVGID_26_">
				<use xlink:href="#SVGID_25_"  style="overflow:visible;"/>
			</clipPath>
			<linearGradient id="SVGID_27_" gradientUnits="userSpaceOnUse" x1="11.9238" y1="144.5409" x2="363.3538" y2="60.2809">
				<stop  offset="0" style="stop-color:#8C97AD"/>
				<stop  offset="0.16" style="stop-color:#8C97AD"/>
				<stop  offset="0.33" style="stop-color:#BAC8E1"/>
				<stop  offset="0.55" style="stop-color:#8C97AD"/>
				<stop  offset="0.72" style="stop-color:#ABBAD2"/>
				<stop  offset="0.98" style="stop-color:#8C97AD"/>
				<stop  offset="1" style="stop-color:#8C97AD"/>
			</linearGradient>
			<rect x="24.8" y="68.6" class="st12" width="345.3" height="63"/>
		</g>
		<g>
			<defs>
				<path id="SVGID_28_" d="M42,105h13.5c5.9,0,8.6,2.2,8.6,5.7v0.2c0,3.7-3,5.8-8.5,5.8H42V105z M42,81.7h11.6c5.2,0,8,1.9,8,5.4
					v0.2c0,3.7-3.1,5.5-8.5,5.5H42V81.7z M24.8,67.7v63h32.9c15.2,0,24.1-6.6,24.1-17.4v-0.2c0-8.5-4.9-12.9-12.7-15.4
					c5.6-2.4,9.8-6.7,9.8-14v-0.2c0-4.3-1.5-7.6-4.1-10.2c-3.7-3.6-9.4-5.6-17.4-5.6H24.8z M90.4,130.6h17.7v-63H90.4V130.6z
					 M118.9,67.7v14.7h30.9l-32,35.6v12.7h56.3v-14.8h-32l32-35.6V67.7H118.9z M179.8,67.7V83h19v47.7h17.7V83h19.1V67.7H179.8z
					 M334,82.4h8.4c6.3,0,10.2,2.8,10.2,8.2v0.2c0,4.9-3.9,8.3-10.1,8.3H334V82.4z M370.2,89.9v-0.2c0-13.8-10.4-22-26.4-22h-27.4
					v63H334v-18h8.8C358.6,112.7,370.2,104.8,370.2,89.9z"/>
			</defs>
			<clipPath id="SVGID_29_">
				<use xlink:href="#SVGID_28_"  style="overflow:visible;"/>
			</clipPath>
			<linearGradient id="SVGID_30_" gradientUnits="userSpaceOnUse" x1="11.7253" y1="143.7073" x2="363.1554" y2="59.4473">
				<stop  offset="0" style="stop-color:#8C97AD"/>
				<stop  offset="0.16" style="stop-color:#8C97AD"/>
				<stop  offset="0.33" style="stop-color:#BAC8E1"/>
				<stop  offset="0.55" style="stop-color:#8C97AD"/>
				<stop  offset="0.72" style="stop-color:#ABBAD2"/>
				<stop  offset="0.98" style="stop-color:#8C97AD"/>
				<stop  offset="1" style="stop-color:#8C97AD"/>
			</linearGradient>
			<rect x="24.8" y="67.7" class="st13" width="345.3" height="63"/>
		</g>
	</g>
	<path class="st14" d="M343.8,65.7h-27.4v63H334v-18h8.8c15.8,0,27.3-7.8,27.3-22.7v-0.2C370.2,73.9,359.8,65.7,343.8,65.7
		 M352.6,88.7c0,4.9-3.9,8.3-10.1,8.3H334V80.3h8.4c6.3,0,10.2,2.8,10.2,8.2V88.7z M179.8,65.7V81h19v47.7h17.7V81h19.1V65.7H179.8z
		 M174.1,65.7h-55.2v14.7h30.9l-32,35.6v12.7h56.3v-14.8h-32l32-35.6V65.7z M90.4,128.6h17.7v-63H90.4V128.6z M69.2,95.7
		c5.6-2.4,9.8-6.7,9.8-14v-0.2c0-4.3-1.5-7.6-4.1-10.2c-3.7-3.6-9.4-5.6-17.4-5.6H24.8v63h32.9c15.2,0,24.1-6.6,24.1-17.4v-0.2
		C81.8,102.5,76.9,98.2,69.2,95.7z M42,79.7h11.6c5.2,0,8,1.9,8,5.4v0.2c0,3.7-3.1,5.5-8.5,5.5H42V79.7z M64.2,108.8
		c0,3.7-3,5.8-8.5,5.8H42V103h13.5c5.9,0,8.6,2.2,8.6,5.7V108.8z"/>
	<g>
		<path class="st11" d="M262.6,78.1c1.8,1,3.5,2.2,5,3.8c0.1,0.1,0.3,0.3,0.5,0.6l3.1,3.5l0.7,0.8l-0.4-0.9l-1.7-4.1
			c-0.3-0.8-0.6-1.8-0.8-2.7c-0.2-0.9-0.3-1.8-0.3-2.6c0-1.1,0.2-2.2,0.5-3.3c0.3-1.1,0.7-2.2,1.2-3.2l0.7-1.5l-1.6,0.2
			c-2.4,0.4-4.7,1-6.9,2c-2.2,0.9-4.3,2.1-6.2,3.6l-1.6,1.2l1.9,0.4C258.8,76.4,260.8,77.1,262.6,78.1 M263.2,72.4
			c1.6-0.7,3.3-1.2,5-1.6c-0.2,0.6-0.5,1.3-0.6,1.9c-0.3,1.2-0.6,2.5-0.6,3.8c0,0.9,0.1,1.7,0.3,2.6c-1.2-1-2.5-1.9-3.8-2.6
			c-1.4-0.8-2.9-1.4-4.5-1.9C260.3,73.8,261.7,73,263.2,72.4z"/>
		<path class="st11" d="M272.9,84.3l0.7,0.7l0.6-0.7c1.9-2.2,2.8-4.9,2.8-7.7c0-2.7-0.9-5.5-2.8-7.7l-0.7-0.8l-0.7,0.8
			c-2.1,2.5-2.8,5.1-2.8,7.4C270,80.7,272.8,84.2,272.9,84.3 M273.5,70.9c1.1,1.7,1.7,3.7,1.7,5.7c0,2-0.6,3.9-1.7,5.6
			c-0.7-1.1-1.8-3.3-1.8-5.9C271.7,74.6,272.2,72.7,273.5,70.9z"/>
		<path class="st11" d="M278.2,75.8c0.1,2-0.2,4-1,5.8l-1.8,4.2l-0.1,0.3l0.3-0.3l3.4-3.7l0.4-0.4c1.5-1.5,3.2-2.8,5.1-3.8
			c1.9-1,3.9-1.7,5.9-2.2l1.9-0.4l-1.5-1.2c-1.9-1.5-4.1-2.7-6.3-3.6c-2.2-0.9-4.6-1.6-7-1.9l-1.7-0.2l0.9,1.5
			C277.5,71.9,278.1,73.8,278.2,75.8 M283.7,72.3c1.5,0.6,3,1.4,4.3,2.3c-1.6,0.5-3.1,1.1-4.5,1.9c-1.4,0.7-2.6,1.6-3.8,2.6
			c0.2-1.1,0.3-2.3,0.2-3.4c-0.1-1.7-0.5-3.3-1.1-4.9C280.5,71.2,282.2,71.7,283.7,72.3z"/>
		<path class="st9" d="M278.7,84.5l-0.7,0.9l1,0.5c1.3,0.6,2.5,1.5,3.5,2.5c1,1,1.9,2.2,2.5,3.5l0.5,1l0.9-0.7c2.2-1.8,4-4,5.3-6.4
			c1.3-2.5,2.1-5.2,2.3-8l0.1-1l-1,0c-2.8,0.2-5.5,1.1-7.9,2.4C282.7,80.4,280.5,82.2,278.7,84.5 M292.1,78.7c-0.3,2.2-1,4.3-2,6.2
			c-1,1.9-2.4,3.7-4,5.2c-0.6-1.1-1.4-2.1-2.3-3c-0.9-0.9-1.9-1.7-3-2.3c1.5-1.7,3.2-3,5.2-4.1C287.9,79.7,290,79,292.1,78.7z"/>
		<path class="st11" d="M289,91.6l-0.7,0.7l-3.8,3.5l4.7-2c1.9-0.8,3.9-1.1,5.8-1c2,0.1,3.9,0.7,5.7,1.6l1.5,0.9l-0.2-1.7
			c-0.3-2.4-1-4.8-1.9-7c-0.9-2.2-2.1-4.4-3.6-6.3l-1.2-1.6l-0.4,1.9c-0.4,2.1-1.2,4.1-2.2,6C291.7,88.3,290.5,90,289,91.6
			 M296.1,82.7c0.9,1.4,1.7,2.9,2.3,4.4c0.6,1.6,1.2,3.2,1.5,4.9c-1.6-0.6-3.2-1-4.9-1.1c-1.1-0.1-2.3,0-3.4,0.2
			c1-1.2,1.9-2.5,2.6-3.9C295,85.8,295.7,84.3,296.1,82.7z"/>
		<path class="st11" d="M294.2,94c-2.7,0-5.4,0.9-7.6,2.8l-0.8,0.7l0.8,0.7c2.2,1.9,4.9,2.8,7.6,2.8c2.7,0,5.4-0.9,7.6-2.8l0.8-0.7
			l-0.8-0.7C299.7,94.9,297,94,294.2,94 M294.2,99.2c-2,0-3.9-0.6-5.6-1.7c1.7-1.1,3.7-1.7,5.6-1.7c2,0,3.9,0.6,5.6,1.7
			C298.2,98.6,296.2,99.2,294.2,99.2z"/>
		<path class="st11" d="M297.6,101.8c-1.1,0.3-2.2,0.4-3.3,0.4c-0.9,0-1.8-0.1-2.6-0.3c-0.9-0.2-1.7-0.4-2.5-0.8l-4.7-2
			c1.5,1.4,3,2.7,4.5,4.2c1.5,1.5,2.8,3.2,3.8,5.1c1,1.9,1.7,3.9,2.2,6l0.4,1.9l1.2-1.5c1.5-2,2.7-4.1,3.6-6.3
			c0.9-2.2,1.6-4.6,1.9-7l0.2-1.7l-1.5,0.9C299.7,101.1,298.6,101.5,297.6,101.8 M298.4,107.8c-0.6,1.5-1.4,3-2.3,4.4
			c-0.5-1.6-1.1-3.1-1.9-4.6c-0.7-1.4-1.6-2.7-2.6-3.9c0.8,0.2,1.7,0.2,2.6,0.2c1.3,0,2.5-0.2,3.7-0.5c0.7-0.2,1.3-0.4,1.9-0.6
			C299.6,104.5,299.1,106.2,298.4,107.8z"/>
		<path class="st9" d="M291.7,109.2c-1.3-2.5-3.1-4.7-5.3-6.4l-0.9-0.7l-0.5,1c-0.6,1.3-1.5,2.5-2.5,3.5c-1,1-2.2,1.9-3.5,2.5
			l-1,0.5l0.7,0.9c1.8,2.2,3.9,4,6.4,5.3c2.4,1.3,5.1,2.1,7.9,2.4l1,0.1l-0.1-1C293.8,114.3,293,111.6,291.7,109.2 M285.9,114.2
			c-1.9-1-3.7-2.4-5.2-4.1c1.1-0.6,2.1-1.4,3-2.3c0.9-0.9,1.7-1.9,2.3-3c1.6,1.5,3,3.2,4,5.2c1,1.9,1.7,4,2,6.2
			C290,115.9,287.9,115.2,285.9,114.2z"/>
		<path class="st11" d="M284.4,116.8c-1.9-1-3.6-2.3-5.1-3.8c-1.3-1.3-2.5-2.7-3.7-4.1c-0.1-0.2-0.3-0.3-0.4-0.4l0.2,0.5l1.8,4.2
			c0.8,1.9,1.1,3.9,1,5.8c-0.1,2-0.7,3.9-1.6,5.7l-0.9,1.5l1.7-0.2c2.4-0.3,4.8-1,7-1.9c2.2-0.9,4.3-2.1,6.3-3.6l1.6-1.2l-1.9-0.4
			C288.3,118.6,286.3,117.8,284.4,116.8 M283.7,122.6c-1.6,0.7-3.2,1.2-4.9,1.5c0.6-1.6,1-3.2,1.1-4.9c0.1-1.1,0-2.3-0.2-3.4
			c1.2,1,2.5,1.9,3.8,2.6c1.4,0.8,2.9,1.4,4.5,1.9C286.7,121.2,285.3,121.9,283.7,122.6z"/>
		<path class="st9" d="M255.3,85.7c1.3,2.5,3.1,4.7,5.3,6.4l0.8,0.7l0.5-1c0.6-1.3,1.5-2.5,2.5-3.5c1-1,2.2-1.9,3.5-2.5l1-0.5
			l-0.7-0.9c-1.8-2.2-3.9-4-6.4-5.3c-2.4-1.3-5.1-2.1-8-2.4l-1-0.1l0.1,1C253.1,80.6,254,83.3,255.3,85.7 M261,80.7
			c1.9,1,3.7,2.4,5.2,4.1c-1.1,0.6-2.1,1.4-3,2.3c-0.9,0.9-1.7,1.9-2.3,3c-1.7-1.5-3-3.3-4-5.2c-1-1.9-1.7-4-2-6.3
			C257,79,259.1,79.7,261,80.7z"/>
		<path class="st11" d="M252,92.7c2-0.1,4,0.2,5.8,1l4.5,1.9l-4-3.7l-0.4-0.4c-1.5-1.5-2.8-3.2-3.8-5.1c-1-1.9-1.7-3.9-2.2-6
			l-0.4-1.9l-1.2,1.5c-1.5,2-2.7,4.1-3.6,6.3c-0.9,2.2-1.6,4.6-1.9,7l-0.2,1.7l1.5-0.9C248.1,93.4,250,92.8,252,92.7 M248.5,87.1
			c0.6-1.5,1.4-3,2.3-4.4c0.5,1.6,1.1,3.1,1.9,4.6c0.7,1.4,1.6,2.7,2.6,3.9c-1.1-0.2-2.2-0.3-3.4-0.2c-1.7,0.1-3.3,0.5-4.9,1.1
			C247.3,90.4,247.9,88.7,248.5,87.1z"/>
		<path class="st11" d="M252.7,100.9c2.7,0,5.4-0.9,7.6-2.8l0.8-0.7l-0.8-0.7c-2.2-1.9-4.9-2.8-7.6-2.8c-2.7,0-5.4,0.9-7.6,2.8
			l-0.8,0.7l0.8,0.7C247.2,100,250,100.9,252.7,100.9 M252.7,95.7c2,0,3.9,0.6,5.6,1.7c-1.7,1.1-3.7,1.7-5.6,1.7
			c-2,0-3.9-0.6-5.6-1.7C248.8,96.3,250.7,95.7,252.7,95.7z"/>
		<path class="st11" d="M258,103.3c1.4-1.4,3-2.8,4.5-4.1l-4.7,2c-1.9,0.8-3.9,1.1-5.8,1c-2-0.1-3.9-0.7-5.7-1.7l-1.5-0.9l0.2,1.7
			c0.3,2.4,1,4.8,1.9,7c0.9,2.2,2.1,4.4,3.6,6.3l1.2,1.6l0.4-1.9c0.4-2.1,1.2-4.1,2.2-6C255.2,106.6,256.5,104.9,258,103.3
			 M250.8,112.2c-0.9-1.4-1.7-2.9-2.3-4.4c-0.6-1.6-1.2-3.2-1.5-4.9c1.6,0.6,3.2,1,4.9,1.1c1.1,0.1,2.3,0,3.4-0.2
			c-1,1.2-1.9,2.5-2.6,3.9C251.9,109.1,251.3,110.6,250.8,112.2z"/>
		<path class="st9" d="M268.2,110.4l0.7-0.9l-1-0.5c-1.3-0.6-2.5-1.5-3.5-2.5c-1-1-1.9-2.2-2.5-3.5l-0.5-1l-0.8,0.7
			c-2.2,1.8-4,4-5.3,6.4c-1.3,2.5-2.1,5.2-2.3,8l-0.1,1l1-0.1c2.8-0.2,5.5-1.1,8-2.4C264.3,114.5,266.4,112.7,268.2,110.4
			 M254.8,116.2c0.3-2.2,1-4.3,2-6.3c1-1.9,2.4-3.7,4-5.2c0.6,1.1,1.4,2.1,2.3,3c0.9,0.9,1.9,1.7,3,2.3c-1.5,1.7-3.2,3-5.2,4.1
			C259.1,115.2,257,115.9,254.8,116.2z"/>
		<path class="st11" d="M269.2,119c-0.1-2.3,0-4.6,0.5-5.8l1.8-4.2l0.2-0.4l-0.3,0.4l-3.1,3.3c-1.6,1.7-3.4,3.2-5.4,4.3
			c-2,1.1-4.1,1.9-6.4,2.4l-1.9,0.4l1.5,1.2c1.9,1.5,4.1,2.7,6.3,3.6c2.2,0.9,4.6,1.6,7,1.9l1.7,0.2l-0.8-1.5
			C269.8,123.6,269.4,121.3,269.2,119 M263.2,122.6c-1.5-0.6-3-1.4-4.3-2.3c1.7-0.5,3.4-1.2,5-2.1c1.3-0.8,2.6-1.6,3.7-2.7
			c-0.1,1.1-0.1,2.4,0,3.6c0.1,1.8,0.4,3.6,0.8,5C266.5,123.7,264.8,123.2,263.2,122.6z"/>
		<path class="st11" d="M274.1,110.7l-0.7-0.8l-0.7,0.8c-1.9,2.2-2.8,4.9-2.8,7.7c0,2.7,0.9,5.5,2.8,7.7l0.7,0.8l0.7-0.8
			c1.9-2.2,2.8-4.9,2.8-7.7C276.9,115.6,276,112.9,274.1,110.7 M273.5,124c-1.1-1.7-1.7-3.7-1.7-5.7c0-2,0.6-4,1.7-5.7
			c1.1,1.7,1.7,3.7,1.7,5.7C275.2,120.3,274.6,122.3,273.5,124z"/>
		<path class="st10" d="M273.5,131.1c-18.6,0-33.7-15.1-33.7-33.7c0-18.6,15.1-33.7,33.7-33.7c18.6,0,33.7,15.1,33.7,33.7
			C307.2,116,292,131.1,273.5,131.1 M303.9,97.4c0-16.8-13.7-30.4-30.4-30.4C256.7,67,243,80.7,243,97.4c0,16.8,13.7,30.4,30.4,30.4
			C290.2,127.9,303.9,114.2,303.9,97.4z"/>
	</g>
	<g>
		<g>
			<g>
				<defs>
					<path id="SVGID_31_" d="M28.4,151.2h3.2c0.7,0,2.2,0,2.2,1.8c0,1.7-1.6,1.7-2.8,1.7h-2.5V151.2z M28.4,145.5h3
						c0.7,0,1.9,0.1,1.9,1.5c0,1.5-1.3,1.6-2.2,1.6h-2.8V145.5z M30.6,142.8L30.6,142.8h-5.7v14.6h6.2c1.7,0,2.9-0.1,4-0.5
						c1.8-0.8,2.4-2.4,2.4-3.5c0-0.8-0.3-1.6-0.8-2.2c-0.8-0.9-2-1.1-2.9-1.2c0.8-0.2,2.2-0.5,2.9-1.9c0.1-0.1,0.3-0.6,0.3-1.4
						c0-1.4-0.7-2.8-2.5-3.4C33.5,142.9,32.1,142.8,30.6,142.8z"/>
				</defs>
				<clipPath id="SVGID_32_">
					<use xlink:href="#SVGID_31_"  style="overflow:visible;"/>
				</clipPath>
				<linearGradient id="SVGID_33_" gradientUnits="userSpaceOnUse" x1="5.5528" y1="150.6003" x2="374.1928" y2="143.3203">
					<stop  offset="0" style="stop-color:#8C97AD"/>
					<stop  offset="0.16" style="stop-color:#8C97AD"/>
					<stop  offset="0.33" style="stop-color:#BAC8E1"/>
					<stop  offset="0.55" style="stop-color:#8C97AD"/>
					<stop  offset="0.72" style="stop-color:#ABBAD2"/>
					<stop  offset="0.98" style="stop-color:#8C97AD"/>
					<stop  offset="1" style="stop-color:#8C97AD"/>
				</linearGradient>
				<rect x="24.9" y="142.8" class="st15" width="12.5" height="14.6"/>
			</g>
			<g>
				<defs>
					<path id="SVGID_34_" d="M51.2,142.8v9.1c0,1.1,0,2.8-2.5,2.8c-0.9,0-1.9-0.2-2.4-1c-0.2-0.5-0.3-1.1-0.3-1.8v-9.1h-3.7v8.2
						c0,2,0,4.6,2.8,6c1,0.5,2.3,0.8,3.4,0.8c0.6,0,3.9-0.1,5.4-2.6c0.8-1.3,0.8-2.7,0.8-4.1v-8.2H51.2z"/>
				</defs>
				<clipPath id="SVGID_35_">
					<use xlink:href="#SVGID_34_"  style="overflow:visible;"/>
				</clipPath>
				<linearGradient id="SVGID_36_" gradientUnits="userSpaceOnUse" x1="5.6329" y1="151.1084" x2="373.7629" y2="143.8384">
					<stop  offset="0" style="stop-color:#8C97AD"/>
					<stop  offset="0.16" style="stop-color:#8C97AD"/>
					<stop  offset="0.33" style="stop-color:#BAC8E1"/>
					<stop  offset="0.55" style="stop-color:#8C97AD"/>
					<stop  offset="0.72" style="stop-color:#ABBAD2"/>
					<stop  offset="0.98" style="stop-color:#8C97AD"/>
					<stop  offset="1" style="stop-color:#8C97AD"/>
				</linearGradient>
				<rect x="42.4" y="142.8" class="st16" width="12.5" height="14.9"/>
			</g>
			<g>
				<defs>
					<path id="SVGID_37_" d="M59.7,147.3c0,3.1,3,3.8,3.9,4c0.8,0.2,1.6,0.3,2.4,0.4c1.1,0.1,2.5,0.3,2.5,1.5c0,1-1.2,1.7-2.7,1.7
						c-0.8,0-1.8-0.2-2.8-0.7c-0.7-0.4-1-0.7-1.4-1.1l-2.8,1.8c0.9,1.1,2.5,3,6.7,3c2,0,4.2-0.4,5.5-2c0.8-0.9,1.2-2,1.2-3.1
						c0-1.7-0.8-3-2.5-3.6c-0.8-0.3-2.9-0.7-4.5-0.9c-0.6-0.1-1.9-0.2-1.9-1.4c0-0.7,0.7-1.5,2.2-1.5c0.9,0,1.9,0.4,2.4,0.6
						c0.6,0.3,1,0.7,1.4,1.2l2.7-1.9c-1.3-1.1-3.1-2.8-6.5-2.8C63,142.4,59.7,143.6,59.7,147.3z"/>
				</defs>
				<clipPath id="SVGID_38_">
					<use xlink:href="#SVGID_37_"  style="overflow:visible;"/>
				</clipPath>
				<linearGradient id="SVGID_39_" gradientUnits="userSpaceOnUse" x1="5.5617" y1="151.2663" x2="374.2117" y2="143.9963">
					<stop  offset="0" style="stop-color:#8C97AD"/>
					<stop  offset="0.16" style="stop-color:#8C97AD"/>
					<stop  offset="0.33" style="stop-color:#BAC8E1"/>
					<stop  offset="0.55" style="stop-color:#8C97AD"/>
					<stop  offset="0.72" style="stop-color:#ABBAD2"/>
					<stop  offset="0.98" style="stop-color:#8C97AD"/>
					<stop  offset="1" style="stop-color:#8C97AD"/>
				</linearGradient>
				<rect x="58.9" y="142.4" class="st17" width="13.3" height="15.3"/>
			</g>
			<g>
				<defs>
					<rect id="SVGID_40_" x="77.2" y="142.8" width="3.6" height="14.6"/>
				</defs>
				<clipPath id="SVGID_41_">
					<use xlink:href="#SVGID_40_"  style="overflow:visible;"/>
				</clipPath>
				<linearGradient id="SVGID_42_" gradientUnits="userSpaceOnUse" x1="5.5717" y1="151.5456" x2="374.2117" y2="144.2656">
					<stop  offset="0" style="stop-color:#8C97AD"/>
					<stop  offset="0.16" style="stop-color:#8C97AD"/>
					<stop  offset="0.33" style="stop-color:#BAC8E1"/>
					<stop  offset="0.55" style="stop-color:#8C97AD"/>
					<stop  offset="0.72" style="stop-color:#ABBAD2"/>
					<stop  offset="0.98" style="stop-color:#8C97AD"/>
					<stop  offset="1" style="stop-color:#8C97AD"/>
				</linearGradient>
				<rect x="77.2" y="142.8" class="st18" width="3.6" height="14.6"/>
			</g>
			<g>
				<defs>
					<path id="SVGID_43_" d="M98.9,157.4v-14.6h-3.5l0.2,9.4c-0.7-1.3-1-1.9-2.2-4l-3.2-5.4h-3.6v14.6h3.5l-0.1-9.2
						c1,1.9,1.2,2.4,2.6,4.6l2.7,4.6H98.9z"/>
				</defs>
				<clipPath id="SVGID_44_">
					<use xlink:href="#SVGID_43_"  style="overflow:visible;"/>
				</clipPath>
				<linearGradient id="SVGID_45_" gradientUnits="userSpaceOnUse" x1="5.5717" y1="151.8143" x2="374.2217" y2="144.5443">
					<stop  offset="0" style="stop-color:#8C97AD"/>
					<stop  offset="0.16" style="stop-color:#8C97AD"/>
					<stop  offset="0.33" style="stop-color:#BAC8E1"/>
					<stop  offset="0.55" style="stop-color:#8C97AD"/>
					<stop  offset="0.72" style="stop-color:#ABBAD2"/>
					<stop  offset="0.98" style="stop-color:#8C97AD"/>
					<stop  offset="1" style="stop-color:#8C97AD"/>
				</linearGradient>
				<rect x="86.7" y="142.8" class="st19" width="12.3" height="14.6"/>
			</g>
			<g>
				<defs>
					<polygon id="SVGID_46_" points="115.5,142.8 104.7,142.8 104.7,157.4 116.1,157.4 116.1,154.5 108.3,154.5 108.3,151 115,151 
						115,148.3 108.3,148.3 108.3,145.6 115.5,145.6 					"/>
				</defs>
				<clipPath id="SVGID_47_">
					<use xlink:href="#SVGID_46_"  style="overflow:visible;"/>
				</clipPath>
				<linearGradient id="SVGID_48_" gradientUnits="userSpaceOnUse" x1="5.5817" y1="152.1647" x2="374.2317" y2="144.8847">
					<stop  offset="0" style="stop-color:#8C97AD"/>
					<stop  offset="0.16" style="stop-color:#8C97AD"/>
					<stop  offset="0.33" style="stop-color:#BAC8E1"/>
					<stop  offset="0.55" style="stop-color:#8C97AD"/>
					<stop  offset="0.72" style="stop-color:#ABBAD2"/>
					<stop  offset="0.98" style="stop-color:#8C97AD"/>
					<stop  offset="1" style="stop-color:#8C97AD"/>
				</linearGradient>
				<rect x="104.7" y="142.8" class="st20" width="11.4" height="14.6"/>
			</g>
			<g>
				<defs>
					<path id="SVGID_49_" d="M120.6,147.3c0,3.1,3,3.8,3.9,4c0.8,0.2,1.6,0.3,2.4,0.4c1.1,0.1,2.5,0.3,2.5,1.5c0,1-1.2,1.7-2.7,1.7
						c-0.8,0-1.8-0.2-2.8-0.7c-0.7-0.4-1-0.7-1.4-1.1l-2.8,1.8c0.9,1.1,2.5,3,6.7,3c2,0,4.2-0.4,5.5-2c0.8-0.9,1.2-2,1.2-3.1
						c0-1.7-0.8-3-2.5-3.6c-0.8-0.3-2.9-0.7-4.5-0.9c-0.6-0.1-1.9-0.2-1.9-1.4c0-0.7,0.7-1.5,2.2-1.5c0.9,0,1.9,0.4,2.4,0.6
						c0.6,0.3,1,0.7,1.4,1.2l2.7-1.9c-1.3-1.1-3.1-2.8-6.5-2.8C123.9,142.4,120.6,143.6,120.6,147.3z"/>
				</defs>
				<clipPath id="SVGID_50_">
					<use xlink:href="#SVGID_49_"  style="overflow:visible;"/>
				</clipPath>
				<linearGradient id="SVGID_51_" gradientUnits="userSpaceOnUse" x1="5.5816" y1="152.4706" x2="374.2316" y2="145.1906">
					<stop  offset="0" style="stop-color:#8C97AD"/>
					<stop  offset="0.16" style="stop-color:#8C97AD"/>
					<stop  offset="0.33" style="stop-color:#BAC8E1"/>
					<stop  offset="0.55" style="stop-color:#8C97AD"/>
					<stop  offset="0.72" style="stop-color:#ABBAD2"/>
					<stop  offset="0.98" style="stop-color:#8C97AD"/>
					<stop  offset="1" style="stop-color:#8C97AD"/>
				</linearGradient>
				<rect x="119.8" y="142.4" class="st21" width="13.3" height="15.3"/>
			</g>
			<g>
				<defs>
					<path id="SVGID_52_" d="M137.3,147.3c0,3.1,3,3.8,3.9,4c0.8,0.2,1.6,0.3,2.4,0.4c1.1,0.1,2.5,0.3,2.5,1.5c0,1-1.2,1.7-2.7,1.7
						c-0.8,0-1.8-0.2-2.8-0.7c-0.7-0.4-1-0.7-1.4-1.1l-2.8,1.8c0.9,1.1,2.5,3,6.7,3c2,0,4.2-0.4,5.5-2c0.8-0.9,1.2-2,1.2-3.1
						c0-1.7-0.8-3-2.5-3.6c-0.8-0.3-2.9-0.7-4.5-0.9c-0.6-0.1-1.9-0.2-1.9-1.4c0-0.7,0.7-1.5,2.2-1.5c0.9,0,1.9,0.4,2.4,0.6
						c0.6,0.3,1,0.7,1.4,1.2l2.7-1.9c-1.3-1.1-3.1-2.8-6.5-2.8C140.7,142.4,137.3,143.6,137.3,147.3z"/>
				</defs>
				<clipPath id="SVGID_53_">
					<use xlink:href="#SVGID_52_"  style="overflow:visible;"/>
				</clipPath>
				<linearGradient id="SVGID_54_" gradientUnits="userSpaceOnUse" x1="5.5916" y1="152.801" x2="374.2416" y2="145.521">
					<stop  offset="0" style="stop-color:#8C97AD"/>
					<stop  offset="0.16" style="stop-color:#8C97AD"/>
					<stop  offset="0.33" style="stop-color:#BAC8E1"/>
					<stop  offset="0.55" style="stop-color:#8C97AD"/>
					<stop  offset="0.72" style="stop-color:#ABBAD2"/>
					<stop  offset="0.98" style="stop-color:#8C97AD"/>
					<stop  offset="1" style="stop-color:#8C97AD"/>
				</linearGradient>
				<rect x="136.5" y="142.4" class="st22" width="13.3" height="15.3"/>
			</g>
			<g>
				<defs>
					<path id="SVGID_55_" d="M161.1,150.1c0,4.9,3.1,7.8,7,7.8c2,0,3.5-0.8,4.1-1.3c1.2-0.8,1.7-1.6,2.2-2.5l-2.9-1.5
						c-0.5,0.8-1.3,2.2-3.2,2.2c-2,0-3.6-1.6-3.6-4.8c0-2.4,1.2-4.6,3.6-4.6c0.6,0,1.3,0.2,2,0.7c0.6,0.5,0.9,1,1.1,1.5l2.9-1.4
						c-0.4-0.7-0.9-1.5-1.9-2.3c-1.1-0.9-2.6-1.4-4.3-1.4C164.1,142.3,161.1,145.7,161.1,150.1"/>
				</defs>
				<clipPath id="SVGID_56_">
					<use xlink:href="#SVGID_55_"  style="overflow:visible;"/>
				</clipPath>
				<linearGradient id="SVGID_57_" gradientUnits="userSpaceOnUse" x1="5.6016" y1="153.2869" x2="374.2515" y2="146.0069">
					<stop  offset="0" style="stop-color:#8C97AD"/>
					<stop  offset="0.16" style="stop-color:#8C97AD"/>
					<stop  offset="0.33" style="stop-color:#BAC8E1"/>
					<stop  offset="0.55" style="stop-color:#8C97AD"/>
					<stop  offset="0.72" style="stop-color:#ABBAD2"/>
					<stop  offset="0.98" style="stop-color:#8C97AD"/>
					<stop  offset="1" style="stop-color:#8C97AD"/>
				</linearGradient>
				<rect x="161.1" y="142.3" class="st23" width="13.3" height="15.5"/>
			</g>
			<g>
				<defs>
					<polygon id="SVGID_58_" points="187.4,157.4 187.4,154.3 181.7,154.3 181.7,142.8 178,142.8 178,157.4 					"/>
				</defs>
				<clipPath id="SVGID_59_">
					<use xlink:href="#SVGID_58_"  style="overflow:visible;"/>
				</clipPath>
				<linearGradient id="SVGID_60_" gradientUnits="userSpaceOnUse" x1="5.6117" y1="153.5813" x2="374.2516" y2="146.3013">
					<stop  offset="0" style="stop-color:#8C97AD"/>
					<stop  offset="0.16" style="stop-color:#8C97AD"/>
					<stop  offset="0.33" style="stop-color:#BAC8E1"/>
					<stop  offset="0.55" style="stop-color:#8C97AD"/>
					<stop  offset="0.72" style="stop-color:#ABBAD2"/>
					<stop  offset="0.98" style="stop-color:#8C97AD"/>
					<stop  offset="1" style="stop-color:#8C97AD"/>
				</linearGradient>
				<rect x="178" y="142.8" class="st24" width="9.4" height="14.6"/>
			</g>
			<g>
				<defs>
					<path id="SVGID_61_" d="M196.6,148.5c0.2-0.7,0.4-1.5,0.6-2.3l1.9,6.2h-3.7C195.7,151.3,196.3,149.6,196.6,148.5z M199.1,142.8
						h-3.8l-5.4,14.6h3.9l0.7-2.3h5.4l0.7,2.3h3.9L199.1,142.8z"/>
				</defs>
				<clipPath id="SVGID_62_">
					<use xlink:href="#SVGID_61_"  style="overflow:visible;"/>
				</clipPath>
				<linearGradient id="SVGID_63_" gradientUnits="userSpaceOnUse" x1="5.6107" y1="153.8726" x2="374.2607" y2="146.6026">
					<stop  offset="0" style="stop-color:#8C97AD"/>
					<stop  offset="0.16" style="stop-color:#8C97AD"/>
					<stop  offset="0.33" style="stop-color:#BAC8E1"/>
					<stop  offset="0.55" style="stop-color:#8C97AD"/>
					<stop  offset="0.72" style="stop-color:#ABBAD2"/>
					<stop  offset="0.98" style="stop-color:#8C97AD"/>
					<stop  offset="1" style="stop-color:#8C97AD"/>
				</linearGradient>
				<rect x="189.9" y="142.8" class="st25" width="14.6" height="14.6"/>
			</g>
			<g>
				<defs>
					<path id="SVGID_64_" d="M207.6,147.3c0,3.1,3,3.8,3.9,4c0.8,0.2,1.6,0.3,2.4,0.4c1.1,0.1,2.5,0.3,2.5,1.5c0,1-1.2,1.7-2.7,1.7
						c-0.8,0-1.8-0.2-2.8-0.7c-0.7-0.4-1-0.7-1.4-1.1l-2.8,1.8c0.9,1.1,2.5,3,6.7,3c2,0,4.2-0.4,5.5-2c0.8-0.9,1.2-2,1.2-3.1
						c0-1.7-0.8-3-2.5-3.6c-0.8-0.3-2.9-0.7-4.5-0.9c-0.6-0.1-1.9-0.2-1.9-1.4c0-0.7,0.7-1.5,2.2-1.5c0.9,0,1.9,0.4,2.4,0.6
						c0.6,0.3,1,0.7,1.4,1.2l2.7-1.9c-1.3-1.1-3.1-2.8-6.5-2.8C211,142.4,207.6,143.6,207.6,147.3z"/>
				</defs>
				<clipPath id="SVGID_65_">
					<use xlink:href="#SVGID_64_"  style="overflow:visible;"/>
				</clipPath>
				<linearGradient id="SVGID_66_" gradientUnits="userSpaceOnUse" x1="5.6216" y1="154.183" x2="374.2717" y2="146.913">
					<stop  offset="0" style="stop-color:#8C97AD"/>
					<stop  offset="0.16" style="stop-color:#8C97AD"/>
					<stop  offset="0.33" style="stop-color:#BAC8E1"/>
					<stop  offset="0.55" style="stop-color:#8C97AD"/>
					<stop  offset="0.72" style="stop-color:#ABBAD2"/>
					<stop  offset="0.98" style="stop-color:#8C97AD"/>
					<stop  offset="1" style="stop-color:#8C97AD"/>
				</linearGradient>
				<rect x="206.8" y="142.4" class="st26" width="13.3" height="15.3"/>
			</g>
			<g>
				<defs>
					<path id="SVGID_67_" d="M224.4,147.3c0,3.1,3,3.8,3.9,4c0.8,0.2,1.6,0.3,2.4,0.4c1.1,0.1,2.5,0.3,2.5,1.5c0,1-1.2,1.7-2.7,1.7
						c-0.8,0-1.8-0.2-2.8-0.7c-0.7-0.4-1-0.7-1.4-1.1l-2.8,1.8c0.9,1.1,2.5,3,6.7,3c2,0,4.2-0.4,5.5-2c0.8-0.9,1.2-2,1.2-3.1
						c0-1.7-0.8-3-2.5-3.6c-0.8-0.3-2.9-0.7-4.5-0.9c-0.6-0.1-1.9-0.2-1.9-1.4c0-0.7,0.7-1.5,2.2-1.5c0.9,0,1.9,0.4,2.4,0.6
						c0.6,0.3,1,0.7,1.4,1.2l2.7-1.9c-1.3-1.1-3.1-2.8-6.5-2.8C227.7,142.4,224.4,143.6,224.4,147.3z"/>
				</defs>
				<clipPath id="SVGID_68_">
					<use xlink:href="#SVGID_67_"  style="overflow:visible;"/>
				</clipPath>
				<linearGradient id="SVGID_69_" gradientUnits="userSpaceOnUse" x1="5.6216" y1="154.5132" x2="374.2717" y2="147.2432">
					<stop  offset="0" style="stop-color:#8C97AD"/>
					<stop  offset="0.16" style="stop-color:#8C97AD"/>
					<stop  offset="0.33" style="stop-color:#BAC8E1"/>
					<stop  offset="0.55" style="stop-color:#8C97AD"/>
					<stop  offset="0.72" style="stop-color:#ABBAD2"/>
					<stop  offset="0.98" style="stop-color:#8C97AD"/>
					<stop  offset="1" style="stop-color:#8C97AD"/>
				</linearGradient>
				<rect x="223.6" y="142.4" class="st27" width="13.3" height="15.3"/>
			</g>
			<g>
				<defs>
					<path id="SVGID_70_" d="M248.4,147.3c0,3.1,3,3.8,3.9,4c0.8,0.2,1.6,0.3,2.4,0.4c1.1,0.1,2.5,0.3,2.5,1.5c0,1-1.2,1.7-2.7,1.7
						c-0.8,0-1.8-0.2-2.8-0.7c-0.7-0.4-1-0.7-1.4-1.1l-2.8,1.8c0.9,1.1,2.5,3,6.7,3c2,0,4.2-0.4,5.5-2c0.8-0.9,1.2-2,1.2-3.1
						c0-1.7-0.8-3-2.5-3.6c-0.8-0.3-2.9-0.7-4.5-0.9c-0.6-0.1-1.9-0.2-1.9-1.4c0-0.7,0.7-1.5,2.2-1.5c0.9,0,1.9,0.4,2.4,0.6
						c0.6,0.3,1,0.7,1.4,1.2l2.7-1.9c-1.3-1.1-3.1-2.8-6.5-2.8C251.7,142.4,248.4,143.6,248.4,147.3z"/>
				</defs>
				<clipPath id="SVGID_71_">
					<use xlink:href="#SVGID_70_"  style="overflow:visible;"/>
				</clipPath>
				<linearGradient id="SVGID_72_" gradientUnits="userSpaceOnUse" x1="5.6316" y1="154.9927" x2="374.2817" y2="147.7127">
					<stop  offset="0" style="stop-color:#8C97AD"/>
					<stop  offset="0.16" style="stop-color:#8C97AD"/>
					<stop  offset="0.33" style="stop-color:#BAC8E1"/>
					<stop  offset="0.55" style="stop-color:#8C97AD"/>
					<stop  offset="0.72" style="stop-color:#ABBAD2"/>
					<stop  offset="0.98" style="stop-color:#8C97AD"/>
					<stop  offset="1" style="stop-color:#8C97AD"/>
				</linearGradient>
				<rect x="247.6" y="142.4" class="st28" width="13.3" height="15.3"/>
			</g>
			<g>
				<defs>
					<path id="SVGID_73_" d="M277.9,150.9v-8.2h-3.7v9.1c0,1.1,0,2.8-2.5,2.8c-0.9,0-1.9-0.2-2.4-1c-0.2-0.5-0.3-1.1-0.3-1.8v-9.1
						h-3.7v8.2c0,2,0,4.6,2.8,6c1,0.5,2.3,0.8,3.4,0.8c0.6,0,3.9-0.1,5.4-2.6C277.8,153.8,277.8,152.4,277.9,150.9"/>
				</defs>
				<clipPath id="SVGID_74_">
					<use xlink:href="#SVGID_73_"  style="overflow:visible;"/>
				</clipPath>
				<linearGradient id="SVGID_75_" gradientUnits="userSpaceOnUse" x1="6.0229" y1="155.5048" x2="374.1629" y2="148.2348">
					<stop  offset="0" style="stop-color:#8C97AD"/>
					<stop  offset="0.16" style="stop-color:#8C97AD"/>
					<stop  offset="0.33" style="stop-color:#BAC8E1"/>
					<stop  offset="0.55" style="stop-color:#8C97AD"/>
					<stop  offset="0.72" style="stop-color:#ABBAD2"/>
					<stop  offset="0.98" style="stop-color:#8C97AD"/>
					<stop  offset="1" style="stop-color:#8C97AD"/>
				</linearGradient>
				<rect x="265.4" y="142.8" class="st29" width="12.5" height="14.9"/>
			</g>
			<g>
				<defs>
					<rect id="SVGID_76_" x="283.5" y="142.8" width="3.6" height="14.6"/>
				</defs>
				<clipPath id="SVGID_77_">
					<use xlink:href="#SVGID_76_"  style="overflow:visible;"/>
				</clipPath>
				<linearGradient id="SVGID_78_" gradientUnits="userSpaceOnUse" x1="5.6518" y1="155.6176" x2="374.2918" y2="148.3376">
					<stop  offset="0" style="stop-color:#8C97AD"/>
					<stop  offset="0.16" style="stop-color:#8C97AD"/>
					<stop  offset="0.33" style="stop-color:#BAC8E1"/>
					<stop  offset="0.55" style="stop-color:#8C97AD"/>
					<stop  offset="0.72" style="stop-color:#ABBAD2"/>
					<stop  offset="0.98" style="stop-color:#8C97AD"/>
					<stop  offset="1" style="stop-color:#8C97AD"/>
				</linearGradient>
				<rect x="283.5" y="142.8" class="st30" width="3.6" height="14.6"/>
			</g>
			<g>
				<defs>
					<polygon id="SVGID_79_" points="302.1,142.8 290.8,142.8 290.8,145.7 294.6,145.7 294.6,157.4 298.3,157.4 298.3,145.7 
						302.1,145.7 					"/>
				</defs>
				<clipPath id="SVGID_80_">
					<use xlink:href="#SVGID_79_"  style="overflow:visible;"/>
				</clipPath>
				<linearGradient id="SVGID_81_" gradientUnits="userSpaceOnUse" x1="5.6524" y1="155.8186" x2="374.3024" y2="148.5486">
					<stop  offset="0" style="stop-color:#8C97AD"/>
					<stop  offset="0.16" style="stop-color:#8C97AD"/>
					<stop  offset="0.33" style="stop-color:#BAC8E1"/>
					<stop  offset="0.55" style="stop-color:#8C97AD"/>
					<stop  offset="0.72" style="stop-color:#ABBAD2"/>
					<stop  offset="0.98" style="stop-color:#8C97AD"/>
					<stop  offset="1" style="stop-color:#8C97AD"/>
				</linearGradient>
				<rect x="290.8" y="142.8" class="st31" width="11.3" height="14.6"/>
			</g>
			<g>
				<defs>
					<polygon id="SVGID_82_" points="316.6,142.8 305.8,142.8 305.8,157.4 317.2,157.4 317.2,154.5 309.4,154.5 309.4,151 
						316.1,151 316.1,148.3 309.4,148.3 309.4,145.6 316.6,145.6 					"/>
				</defs>
				<clipPath id="SVGID_83_">
					<use xlink:href="#SVGID_82_"  style="overflow:visible;"/>
				</clipPath>
				<linearGradient id="SVGID_84_" gradientUnits="userSpaceOnUse" x1="5.6617" y1="156.1342" x2="374.3017" y2="148.8542">
					<stop  offset="0" style="stop-color:#8C97AD"/>
					<stop  offset="0.16" style="stop-color:#8C97AD"/>
					<stop  offset="0.33" style="stop-color:#BAC8E1"/>
					<stop  offset="0.55" style="stop-color:#8C97AD"/>
					<stop  offset="0.72" style="stop-color:#ABBAD2"/>
					<stop  offset="0.98" style="stop-color:#8C97AD"/>
					<stop  offset="1" style="stop-color:#8C97AD"/>
				</linearGradient>
				<rect x="305.8" y="142.8" class="st32" width="11.4" height="14.6"/>
			</g>
			<g>
				<defs>
					<path id="SVGID_85_" d="M321.7,147.3c0,3.1,3,3.8,3.9,4c0.8,0.2,1.6,0.3,2.4,0.4c1.1,0.1,2.5,0.3,2.5,1.5c0,1-1.2,1.7-2.7,1.7
						c-0.8,0-1.8-0.2-2.8-0.7c-0.7-0.4-1-0.7-1.4-1.1l-2.8,1.8c0.9,1.1,2.5,3,6.7,3c2,0,4.2-0.4,5.5-2c0.8-0.9,1.2-2,1.2-3.1
						c0-1.7-0.8-3-2.5-3.6c-0.8-0.3-2.9-0.7-4.5-0.9c-0.6-0.1-1.9-0.2-1.9-1.4c0-0.7,0.7-1.5,2.2-1.5c0.9,0,1.9,0.4,2.4,0.6
						c0.6,0.3,1,0.7,1.4,1.2l2.7-1.9c-1.3-1.1-3.1-2.8-6.5-2.8C325,142.4,321.7,143.6,321.7,147.3z"/>
				</defs>
				<clipPath id="SVGID_86_">
					<use xlink:href="#SVGID_85_"  style="overflow:visible;"/>
				</clipPath>
				<linearGradient id="SVGID_87_" gradientUnits="userSpaceOnUse" x1="5.6616" y1="156.4313" x2="374.3116" y2="149.1613">
					<stop  offset="0" style="stop-color:#8C97AD"/>
					<stop  offset="0.16" style="stop-color:#8C97AD"/>
					<stop  offset="0.33" style="stop-color:#BAC8E1"/>
					<stop  offset="0.55" style="stop-color:#8C97AD"/>
					<stop  offset="0.72" style="stop-color:#ABBAD2"/>
					<stop  offset="0.98" style="stop-color:#8C97AD"/>
					<stop  offset="1" style="stop-color:#8C97AD"/>
				</linearGradient>
				<rect x="320.9" y="142.4" class="st33" width="13.3" height="15.3"/>
			</g>
		</g>
		<g>
			<path class="st8" d="M24.8,141.6h5.6c1.5,0,2.9,0.1,3.8,0.4c1.8,0.6,2.5,2,2.5,3.4c0,0.8-0.2,1.3-0.3,1.4
				c-0.7,1.5-2.1,1.8-2.9,1.9c0.9,0.1,2.1,0.3,2.9,1.2c0.5,0.6,0.8,1.4,0.8,2.2c0,1.1-0.6,2.7-2.4,3.5c-1.1,0.5-2.3,0.5-4,0.5h-6.2
				V141.6z M28.3,144.3v3H31c0.8,0,2.2-0.1,2.2-1.6c0-1.4-1.2-1.5-1.9-1.5H28.3z M28.3,150v3.5h2.5c1.2,0,2.8-0.1,2.8-1.7
				c0-1.8-1.4-1.8-2.2-1.8H28.3z"/>
			<path class="st8" d="M54.8,141.6v8.2c0,1.4,0,2.8-0.8,4.1c-1.6,2.5-4.8,2.6-5.4,2.6c-1.1,0-2.4-0.3-3.4-0.8c-2.8-1.4-2.8-4-2.8-6
				v-8.2H46v9.1c0,0.7,0,1.4,0.3,1.8c0.5,0.8,1.4,1,2.4,1c2.5,0,2.5-1.7,2.5-2.8v-9.1H54.8z"/>
			<path class="st8" d="M61.5,151.8c0.4,0.4,0.7,0.7,1.4,1.1c1,0.5,2,0.7,2.8,0.7c1.4,0,2.7-0.7,2.7-1.7c0-1.2-1.5-1.3-2.5-1.5
				c-0.8-0.1-1.6-0.2-2.4-0.4c-0.9-0.2-3.9-0.8-3.9-4c0-3.8,3.4-4.9,5.9-4.9c3.4,0,5.2,1.6,6.5,2.8l-2.7,1.9
				c-0.5-0.5-0.9-0.8-1.4-1.2c-0.5-0.3-1.4-0.6-2.4-0.6c-1.4,0-2.2,0.8-2.2,1.5c0,1.1,1.2,1.3,1.9,1.4c1.6,0.2,3.6,0.6,4.5,0.9
				c1.7,0.6,2.5,1.9,2.5,3.6c0,1.1-0.4,2.2-1.2,3.1c-1.3,1.5-3.4,2-5.5,2c-4.1,0-5.8-1.9-6.7-3L61.5,151.8z"/>
			<rect x="77.1" y="141.6" class="st8" width="3.6" height="14.6"/>
			<path class="st8" d="M86.6,141.6h3.6l3.2,5.4c1.2,2,1.5,2.7,2.2,4l-0.2-9.4h3.5v14.6h-3.6l-2.7-4.6c-1.3-2.2-1.6-2.6-2.6-4.6
				l0.1,9.2h-3.5V141.6z"/>
			<polygon class="st8" points="104.6,141.6 115.4,141.6 115.4,144.4 108.3,144.4 108.3,147.1 114.9,147.1 114.9,149.8 108.3,149.8 
				108.3,153.3 116.1,153.3 116.1,156.2 104.6,156.2 			"/>
			<path class="st8" d="M122.5,151.8c0.4,0.4,0.7,0.7,1.4,1.1c1,0.5,2,0.7,2.8,0.7c1.4,0,2.7-0.7,2.7-1.7c0-1.2-1.5-1.3-2.5-1.5
				c-0.8-0.1-1.6-0.2-2.4-0.4c-0.9-0.2-3.9-0.8-3.9-4c0-3.8,3.4-4.9,5.9-4.9c3.4,0,5.2,1.6,6.5,2.8l-2.7,1.9
				c-0.5-0.5-0.9-0.8-1.4-1.2c-0.5-0.3-1.4-0.6-2.4-0.6c-1.4,0-2.2,0.8-2.2,1.5c0,1.1,1.2,1.3,1.9,1.4c1.6,0.2,3.6,0.6,4.5,0.9
				c1.7,0.6,2.5,1.9,2.5,3.6c0,1.1-0.4,2.2-1.2,3.1c-1.3,1.5-3.4,2-5.5,2c-4.1,0-5.8-1.9-6.7-3L122.5,151.8z"/>
			<path class="st8" d="M139.2,151.8c0.4,0.4,0.7,0.7,1.4,1.1c1,0.5,2,0.7,2.8,0.7c1.4,0,2.7-0.7,2.7-1.7c0-1.2-1.5-1.3-2.5-1.5
				c-0.8-0.1-1.6-0.2-2.4-0.4c-0.9-0.2-3.9-0.8-3.9-4c0-3.8,3.4-4.9,5.9-4.9c3.4,0,5.2,1.6,6.5,2.8l-2.7,1.9
				c-0.5-0.5-0.9-0.8-1.4-1.2c-0.5-0.3-1.4-0.6-2.4-0.6c-1.4,0-2.2,0.8-2.2,1.5c0,1.1,1.2,1.3,1.9,1.4c1.6,0.2,3.6,0.6,4.5,0.9
				c1.7,0.6,2.5,1.9,2.5,3.6c0,1.1-0.4,2.2-1.2,3.1c-1.3,1.5-3.4,2-5.5,2c-4.1,0-5.8-1.9-6.7-3L139.2,151.8z"/>
			<path class="st8" d="M174.3,152.9c-0.5,0.8-1.1,1.7-2.2,2.5c-0.6,0.4-2,1.3-4.1,1.3c-3.9,0-7-2.8-7-7.8c0-4.3,2.9-7.7,7.1-7.7
				c1.7,0,3.2,0.6,4.3,1.4c1,0.8,1.5,1.6,1.9,2.3l-2.9,1.4c-0.2-0.5-0.5-1-1.1-1.5c-0.7-0.6-1.4-0.7-2-0.7c-2.4,0-3.6,2.2-3.6,4.6
				c0,3.2,1.6,4.8,3.6,4.8c1.9,0,2.7-1.3,3.2-2.2L174.3,152.9z"/>
			<polygon class="st8" points="177.9,141.6 181.6,141.6 181.6,153.1 187.3,153.1 187.3,156.2 177.9,156.2 			"/>
			<path class="st8" d="M199,141.6l5.4,14.6h-3.9l-0.7-2.3h-5.4l-0.7,2.3h-3.9l5.4-14.6H199z M197.1,145.1c-0.2,0.7-0.4,1.5-0.6,2.3
				c-0.3,1.1-0.9,2.8-1.2,3.9h3.7L197.1,145.1z"/>
			<path class="st8" d="M209.5,151.8c0.4,0.4,0.7,0.7,1.4,1.1c1,0.5,2,0.7,2.8,0.7c1.4,0,2.7-0.7,2.7-1.7c0-1.2-1.5-1.3-2.5-1.5
				c-0.8-0.1-1.6-0.2-2.4-0.4c-0.9-0.2-3.9-0.8-3.9-4c0-3.8,3.4-4.9,5.9-4.9c3.4,0,5.2,1.6,6.5,2.8l-2.7,1.9
				c-0.5-0.5-0.9-0.8-1.4-1.2c-0.5-0.3-1.4-0.6-2.4-0.6c-1.4,0-2.2,0.8-2.2,1.5c0,1.1,1.2,1.3,1.9,1.4c1.6,0.2,3.6,0.6,4.5,0.9
				c1.7,0.6,2.5,1.9,2.5,3.6c0,1.1-0.4,2.2-1.2,3.1c-1.3,1.5-3.4,2-5.5,2c-4.1,0-5.8-1.9-6.7-3L209.5,151.8z"/>
			<path class="st8" d="M226.2,151.8c0.4,0.4,0.7,0.7,1.4,1.1c1,0.5,2,0.7,2.8,0.7c1.4,0,2.7-0.7,2.7-1.7c0-1.2-1.5-1.3-2.5-1.5
				c-0.8-0.1-1.6-0.2-2.4-0.4c-0.9-0.2-3.9-0.8-3.9-4c0-3.8,3.4-4.9,5.9-4.9c3.4,0,5.2,1.6,6.5,2.8l-2.7,1.9
				c-0.5-0.5-0.9-0.8-1.4-1.2c-0.5-0.3-1.4-0.6-2.4-0.6c-1.4,0-2.2,0.8-2.2,1.5c0,1.1,1.2,1.3,1.9,1.4c1.6,0.2,3.6,0.6,4.5,0.9
				c1.7,0.6,2.5,1.9,2.5,3.6c0,1.1-0.4,2.2-1.2,3.1c-1.3,1.5-3.4,2-5.5,2c-4.1,0-5.8-1.9-6.7-3L226.2,151.8z"/>
			<path class="st8" d="M250.2,151.8c0.4,0.4,0.7,0.7,1.4,1.1c1,0.5,2,0.7,2.8,0.7c1.4,0,2.7-0.7,2.7-1.7c0-1.2-1.5-1.3-2.5-1.5
				c-0.8-0.1-1.6-0.2-2.4-0.4c-0.9-0.2-3.9-0.8-3.9-4c0-3.8,3.4-4.9,5.9-4.9c3.4,0,5.2,1.6,6.5,2.8l-2.7,1.9
				c-0.5-0.5-0.9-0.8-1.4-1.2c-0.5-0.3-1.4-0.6-2.4-0.6c-1.4,0-2.2,0.8-2.2,1.5c0,1.1,1.2,1.3,1.9,1.4c1.6,0.2,3.6,0.6,4.5,0.9
				c1.7,0.6,2.5,1.9,2.5,3.6c0,1.1-0.4,2.2-1.2,3.1c-1.3,1.5-3.4,2-5.5,2c-4.1,0-5.8-1.9-6.7-3L250.2,151.8z"/>
			<path class="st8" d="M277.8,141.6v8.2c0,1.4,0,2.8-0.8,4.1c-1.6,2.5-4.8,2.6-5.4,2.6c-1.1,0-2.4-0.3-3.4-0.8
				c-2.8-1.4-2.8-4-2.8-6v-8.2h3.7v9.1c0,0.7,0,1.4,0.3,1.8c0.5,0.8,1.4,1,2.4,1c2.5,0,2.5-1.7,2.5-2.8v-9.1H277.8z"/>
			<rect x="283.4" y="141.6" class="st8" width="3.6" height="14.6"/>
			<polygon class="st8" points="290.7,141.6 302,141.6 302,144.5 298.2,144.5 298.2,156.2 294.5,156.2 294.5,144.5 290.7,144.5 			
				"/>
			<polygon class="st8" points="305.7,141.6 316.5,141.6 316.5,144.4 309.3,144.4 309.3,147.1 316,147.1 316,149.8 309.3,149.8 
				309.3,153.3 317.1,153.3 317.1,156.2 305.7,156.2 			"/>
			<path class="st8" d="M323.6,151.8c0.4,0.4,0.7,0.7,1.4,1.1c1,0.5,2,0.7,2.8,0.7c1.4,0,2.7-0.7,2.7-1.7c0-1.2-1.5-1.3-2.5-1.5
				c-0.8-0.1-1.6-0.2-2.4-0.4c-0.9-0.2-3.9-0.8-3.9-4c0-3.8,3.4-4.9,5.9-4.9c3.4,0,5.2,1.6,6.5,2.8l-2.7,1.9
				c-0.5-0.5-0.9-0.8-1.4-1.2c-0.5-0.3-1.4-0.6-2.4-0.6c-1.4,0-2.2,0.8-2.2,1.5c0,1.1,1.2,1.3,1.9,1.4c1.6,0.2,3.6,0.6,4.5,0.9
				c1.7,0.6,2.5,1.9,2.5,3.6c0,1.1-0.4,2.2-1.2,3.1c-1.3,1.5-3.4,2-5.5,2c-4.1,0-5.8-1.9-6.7-3L323.6,151.8z"/>
		</g>
	</g>
</g>
</svg>
