<?xml version="1.0" encoding="utf-8"?>
<!-- Generator: Adobe Illustrator 26.2.1, SVG Export Plug-In . SVG Version: 6.00 Build 0)  -->
<svg version="1.1" id="Layer_1" xmlns="http://www.w3.org/2000/svg" xmlns:xlink="http://www.w3.org/1999/xlink" x="0px" y="0px"
	 viewBox="0 0 502.1 309.8" style="enable-background:new 0 0 502.1 309.8;" xml:space="preserve">
<style type="text/css">
	.st0{fill:#8E8E8E;}
	.st1{fill:#957A4B;}
	.st2{fill-rule:evenodd;clip-rule:evenodd;fill:#E21F26;}
	.st3{fill:#212121;}
	.st4{fill-rule:evenodd;clip-rule:evenodd;fill:#EF1B2B;}
	.st5{fill-rule:evenodd;clip-rule:evenodd;fill:#212121;}
	.st6{fill-rule:evenodd;clip-rule:evenodd;fill:#FFFFFF;}
</style>
<g id="Layer_1-2">
	<path class="st0" d="M356.2,281.2l2.5,2.3c1.5-3.3,2.9-6.7,4.4-9.8l-0.2-0.5C360.8,276,358.6,278.7,356.2,281.2 M340.9,261.3
		c1.3,2.3,2.8,4.5,4.3,6.7l0.5-0.4l2.7-2.4c-0.9-1.3-1.7-2.6-2.5-3.9H340.9z M350.5,248.5c1.5,3.7,3.3,7.4,5.2,10.9
		c-1.5,2.6-3.2,5.1-5,7.6l2.8,3.3c1.8-2.4,3.5-4.8,5.1-7.4l-7.7-18.4c-0.1-0.2-0.2-0.5-0.4-0.7L350.5,248.5z M332.7,243.1
		c1.8,5.6,4.2,10.9,7,16.1v-9.6c-0.8-1.9-1.6-3.8-2.2-5.8c-1.4-0.5-2.9-0.7-4.4-0.7H332.7 M366.7,243l0.6,1.7
		c0.2-0.6,0.4-1.1,0.6-1.7H366.7z M264.4,238.3c1.5,1.1,2.8,2.4,4,3.8l1.2-0.2l5.8-5.3C271.9,237.4,268.2,237.9,264.4,238.3
		 M455,236.6c0.2,1.9,0.3,3.8,0.3,5.7l4.2-0.1l0,0c-0.1-2-0.2-4-0.4-6.1C457.8,236.3,456.4,236.5,455,236.6 M291.8,231.7
		c2-0.3,4.1-0.2,6.1,0.4c-1-0.5-1.9-1.1-2.8-1.7C294,230.8,292.9,231.3,291.8,231.7 M282.7,224.5c1.8-0.6,3.6-1.3,5.4-2.1
		c-0.2-0.4-0.4-0.8-0.6-1.2c-0.2-0.5-0.4-1.1-0.6-1.6C285.7,221.4,284.3,223,282.7,224.5 M345.1,218c-0.4,1.1-0.8,2.2-1.3,3.2
		c0,0.6,0.1,1.2,0.2,1.8h4.3c-0.1-1.3-0.3-2.6-0.4-3.9c-0.9-0.5-1.8-1.1-2.6-1.8L345.1,218z M368.3,219.3c0,0.5-0.1,1-0.1,1.6
		c0.2,1,0.4,1.8,0.8,2.1h3.2c0.2-2.3,0.4-4.6,0.5-7C371.4,217.2,369.9,218.4,368.3,219.3 M395.1,218.1c0,1.2,0.2,2.3,0.4,3.4
		c0.6,0.5,1.2,0.9,1.8,1.4h6.5v4.5c11.5,7.3,24.3,12,37.8,13.9h0.4l4.2,0.5h0.1l-0.5-4.3l0,0l-0.2-1.4l-0.9-0.1
		c-1.2-0.2-2.4-0.5-3.5-0.8c0.1,0.6,0.2,1.2,0.3,1.8c-17.2-2.6-33.2-10-46.3-21.3L395.1,218.1z M298.8,212.2
		c0.1,1.5,0.5,2.9,1.2,4.2c0.9-0.5,1.7-1,2.5-1.6c-0.7-1.6-0.7-3.5,0-5.1C301.3,210.6,300,211.4,298.8,212.2 M325.4,209.5
		c-5,5.1-10.6,9.6-16.6,13.5c1.9,0.6,3.8,1,5.8,1.2h0.1c4.7-3.3,9.1-7,13.2-11c0,2.2,0.1,4.3,0.2,6.4c1.8-1.9,2.5-4.6,1.8-7.1
		c-0.7-1.6-1.9-3-3.4-4L325.4,209.5z M400.7,204.8H400c6.4,6,13.6,11.1,21.3,15.2c-1.3-2.1-2.3-4.3-3.2-6.6
		c-4.4-2.7-8.6-5.7-12.5-9.1C404,204.6,402.3,204.9,400.7,204.8 M437.9,210.5l0.7,1c-1.3-2.9-2.7-5.8-4.3-8.6
		C435.1,205.6,436.3,208.2,437.9,210.5 M438.5,190.3c6.3,9.4,11,19.8,13.8,30.7c0.6,0.2,1.3,0.3,1.9,0.4c0.9,0.1,1.7,0.2,2.6,0.3
		c-2.6-11.1-7.1-21.8-13.3-31.4L438.5,190.3z M271.5,190.1c-5.7,9.7-9.6,20.4-11.5,31.5c1.5-0.1,3-0.4,4.5-0.9
		c2.1-10.9,6.2-21.3,12.1-30.7L271.5,190.1z M292.1,187.6l0.8,2.4h-2.7c-4.8,6.2-8.9,13-12.1,20.2c0.6-0.8,1.1-1.6,1.6-2.5l2.2-3.6
		l3.1,1.8c3.2-6,7-11.6,11.5-16.8c-0.7-1.5-1.2-3.1-1.5-4.8C294.1,185.3,293.1,186.5,292.1,187.6 M419.4,167.5v4.1l0.2,0.8
		c1.3,0.1,2.6,0.2,4,0.3c0.5,0.5,1,1,1.5,1.5c1.9-2.1,4.1-4,6.5-5.6h-2.1c-1.4,0-2.9,0-4.3-0.1c-1-1-2.1-1.9-3.2-2.8
		C421.2,166.4,420.3,167,419.4,167.5 M291.3,166.2c-1.3,0.1-2.5,0.1-3.8,0.1c-5.3,0-10.6-0.4-15.8-1.2c3.4,1.3,6.5,3.1,9.4,5.3
		c1.9,0.1,3.7,0.2,5.6,0.2c-0.9,0.9-1.7,1.7-2.5,2.6c1,1,1.9,2.1,2.8,3.3c1-1,1.9-2.1,2.9-3.1c1-1,2-2,3.1-2.9
		c1.4-0.1,2.8-0.2,4.2-0.3c0.3-1.4,0.6-2.7,1-4h-0.5c-1.2-0.7-2.3-1.4-3.4-2.1c-1,0.8-2,1.7-3,2.6 M216.7,142.9L216.7,142.9
		c9.1,8.6,19.7,15.4,31.3,20.1c3.8-0.6,7.7-0.8,11.5-0.4c-14.9-4.3-28.5-12.1-39.8-22.8L216.7,142.9z M436,132.9
		c12.5,0.9,24.6,4.4,35.7,10.1c-11.1,5.8-23.4,9.3-35.9,10.2c-0.8,1.4-1.8,2.7-3,3.9l-0.5,0.5c15.3-0.5,30.3-4.7,43.7-12.2
		c2.9,1.7,5.6,3.6,8.3,5.6c-6.7,5-14.1,9-21.9,12c2.4,0.4,4.7,0.9,7,1.7c6.4-2.9,12.4-6.5,18-10.7l0.3-0.3l3.3-2.6l0,0l-3.3-3.1l0,0
		c-15.9-12.3-35.2-19.3-55.2-20c1.3,1.3,2.4,2.8,3.4,4.4 M454.3,55L454.3,55c-19.9,2.6-38.5,11.3-53.2,25c1.9,0,3.7,0.3,5.5,0.8
		c9.5-8.2,20.5-14.3,32.5-18.1c-3.8,12-10,23.1-18.2,32.6c0.4,1.6,0.7,3.3,0.7,4.9v0.7c10.5-11.2,18.2-24.8,22.3-39.6
		c3.2-0.8,6.5-1.5,9.8-1.9c-3,19.5-12.1,37.6-26.1,51.5c-1,1-2,2-3.1,3c-1.4,0.1-2.8,0.2-4.2,0.3c-0.3,1.3-0.6,2.7-1,4h0.5
		c1.2,0.7,2.3,1.4,3.4,2.1c1-0.8,2-1.7,3-2.6c1.2,0,2.5-0.1,3.8-0.1c25.2-0.1,49.5,9.5,67.9,26.8l2.9-3.1l0,0
		c-19-17.8-44-27.8-70-27.9C445.5,98.7,455,79.7,458,59.2l0-0.4l0.5-4.2v-0.1L454.3,55z M258,42L258,42c0.8,26,11.4,50.7,29.7,69.2
		c-20.8,0-41.1,6.7-57.7,19.2l-0.3,0.3l-3.4,2.6l0,0l3.4,2.7l0,0c15.9,12.3,35.2,19.3,55.2,20c-1.3-1.3-2.5-2.8-3.4-4.4
		c-12.5-0.9-24.6-4.4-35.7-10.2c11.1-5.8,23.4-9.3,35.9-10.2c0.8-1.4,1.8-2.7,3-3.9l0.5-0.5c-15.4,0.5-30.4,4.7-43.8,12.2
		c-2.9-1.7-5.6-3.6-8.3-5.6c15.9-11.7,35.1-18,54.9-18c1.4,0,2.9,0,4.3,0.1c1.1,1,2.1,1.9,3.2,2.8c1.2-0.8,2.4-1.5,3.6-2.2l0,0v-0.4
		l0,0c-0.4-1.3-0.7-2.6-1-4c-1.3-0.1-2.6-0.2-4-0.3c-0.9-0.9-1.8-1.7-2.7-2.6C273.5,91,263.1,67,262.3,41.8L258,42z M364.8,13
		L364.8,13c-12.3,15.9-19.3,35.2-20,55.2c1.3-1.3,2.8-2.4,4.4-3.4c0.9-12.5,4.4-24.6,10.2-35.7c5.8,11.1,9.3,23.3,10.2,35.8
		c1.4,0.8,2.7,1.8,3.9,3l0.5,0.5c-0.5-15.4-4.7-30.4-12.2-43.8c1.7-2.9,3.6-5.6,5.6-8.3c11.7,15.9,18,35.1,18,54.9
		c0,1.4,0,2.9-0.1,4.3c-0.9,1-1.9,2.1-2.8,3.2c0.8,1.2,1.5,2.4,2.2,3.6h0.4c1.3-0.4,2.6-0.7,4-1c0.1-1.3,0.2-2.6,0.3-4
		c0.9-0.9,1.7-1.8,2.6-2.7c17.8-17.9,41.7-28.3,66.9-29.1l-0.1-4.2l0,0c-26,0.8-50.8,11.4-69.3,29.7c0-20.8-6.8-41.1-19.2-57.7
		l-0.3-0.3l-2.6-3.3l0,0L364.8,13z M330.4,70c-14.7-14.7-33.8-24.3-54.4-27.2l-0.4,0l-4.2-0.5l0,0l0.5,4.3l0,0
		c2.6,19.9,11.3,38.5,25,53.2c0-1.9,0.3-3.7,0.8-5.5c-8.2-9.5-14.3-20.5-18.1-32.5c12,3.8,23,10,32.5,18.2c1.6-0.4,3.3-0.6,4.9-0.7
		h0.7c-11.2-10.5-24.8-18.2-39.6-22.4c-0.8-3.2-1.5-6.5-2-9.8c19.5,2.9,37.6,12.1,51.5,26.1c1,1,2,2,3,3.1c0.1,1.4,0.2,2.8,0.3,4.2
		c1.4,0.3,2.7,0.6,4,1l0,0V81l0,0c0.7-1.2,1.4-2.3,2.1-3.4c-0.8-1-1.7-2-2.5-3c0-1.2-0.1-2.5-0.1-3.8c0-25.3,9.6-49.6,27-67.9
		l-3-2.9l0,0C340.4,19,330.4,44,330.4,70"/>
	<path class="st1" d="M327.7,110.7c3.6,11.3,12.4,20.1,23.7,23.7C347.8,123.1,339,114.2,327.7,110.7 M356.4,133.2
		c-3.2-14.7-15.1-25.9-30-28.2c0.2,1.3,0.4,2.6,0.8,3.8c12.5,3.6,22.4,13.4,26,25.9c-0.6,0.4-1.1,0.9-1.5,1.4
		c-14.4-4.2-25-16.5-27-31.4l0,0l-0.2-1.7l0,0l1.6,0.2h0.2c15.7,2.3,28.4,14.1,31.7,29.6C357.4,132.9,356.9,133,356.4,133.2
		 M321,102.9c0.6,17.2,12.4,31.9,29,36.3c-0.2,0.5-0.3,1.1-0.4,1.6c-17.3-4.5-29.7-19.9-30.3-37.8l0,0L321,102.9z M314.6,141.8
		c10.5,5.4,23,5.4,33.5,0C337.6,136.4,325.1,136.4,314.6,141.8 M350.8,137.4c-12.6-8.2-29-7.7-41.1,1.2c1,0.8,2.1,1.5,3.2,2.2
		c11.4-6.3,25.3-6.4,36.7-0.1c-0.1,0.4-0.1,0.9-0.1,1.3v0.8c-13.2,7.2-29.4,6-41.3-3.2l0,0l-1.3-1.1l0,0l1.3-1l0.1-0.1
		c12.7-9.5,30-10,43.3-1.4C351.3,136.6,351,137,350.8,137.4 M304.4,141c12.6,11.7,31.3,13.8,46.2,5.1c0.2,0.5,0.5,1,0.9,1.4
		c-15.5,9-35.1,6.9-48.2-5.4l0,0L304.4,141z M323.5,163.1c0.3-0.6,0.5-1.1,0.9-1.6v1.9L323.5,163.1z M321.6,176h-0.2l-1.7,0.2l0,0
		l0.2-1.6C320.6,174.9,321.2,175.4,321.6,176 M333.5,158.9c0.5-0.6,1.1-1.2,1.6-1.7c4.5-4.5,10.1-7.8,16.3-9.6
		c0.4,0.6,0.9,1.1,1.5,1.5c-2.7,9.1-8.6,16.8-16.7,21.8v-2c7-4.6,12.3-11.4,14.8-19.4c-5.6,1.8-10.6,4.9-14.7,9l-0.6,0.6
		L333.5,158.9z M349.9,144.4c-8.8,1.9-16.6,7.1-21.9,14.4h-2c5.5-8.2,14-13.9,23.6-16C349.7,143.4,349.8,143.9,349.9,144.4
		 M336.2,175.4c3.5-1.8,6.7-4.2,9.6-7c4.9-4.9,8.4-11,10.1-17.6c0.5,0.2,1.1,0.3,1.6,0.4c-3,11.4-10.8,20.9-21.3,26.1V175.4z
		 M319.6,179.8c1.3,0,2.5-0.1,3.8-0.3c0.2,0.5,0.3,1.1,0.4,1.6c-1.4,0.2-2.7,0.3-4.1,0.3l0,0L319.6,179.8z M354.1,150
		c-3.8,5.9-5.8,12.7-5.8,19.7c0,1.2,0.1,2.5,0.2,3.7l-1.5,1.5c-0.2-1.7-0.3-3.4-0.3-5.1c0-7.3,2.1-14.5,6.1-20.6
		C353.2,149.4,353.7,149.7,354.1,150 M367.2,161.2c-0.9-3.8-2.3-7.5-4.3-10.9c0.5-0.3,1-0.5,1.4-0.9c2.5,4.2,4.2,8.7,5,13.5
		L367.2,161.2z M379.2,170c-7.2-5-12.5-12.3-14.9-20.7c0.6-0.4,1.1-0.9,1.5-1.4c8.4,2.5,15.7,7.8,20.7,15l-1.2,1.2
		c-1.3-1.9-2.8-3.7-4.5-5.4c-4.1-4.1-9.2-7.2-14.7-9c1.7,5.6,4.8,10.6,9,14.7c1.6,1.6,3.4,3.1,5.3,4.4L379.2,170z M370.6,168.5
		l0.4,0.4c1.5,1.6,3.2,3,5,4.2l-1.2,1.2c-1.8-1.3-3.5-2.7-5-4.2l-0.4-0.4l-1.2,1.3c0,1.2-0.1,2.4-0.3,3.6v7.7c0.1-0.3,0.2-0.7,0.3-1
		l-0.3-0.3l0.5-0.5c0.9-3.5,1.4-7,1.4-10.6v-0.6L370.6,168.5z M361.1,150.9c0.6,2.6,1.4,5.2,2.5,7.7l-0.8,0.8
		c-0.8-2.8-1.9-5.6-3.3-8.2h-0.8c-0.4,0-0.9,0-1.3-0.1c-3.1,5.5-4.7,11.8-4.7,18.1l1.7-1.7c0.2-5.2,1.6-10.3,4-14.9
		c1.3,2.5,2.3,5.2,3,8l0.9-0.9c-1.3-2.7-2.3-5.6-2.9-8.6C360,151.1,360.5,151,361.1,150.9 M389.3,160.1c-5.3-7.5-13-12.8-21.9-15.2
		c0.2-0.5,0.3-1.1,0.4-1.6c7,1.8,13.4,5.5,18.4,10.6c1.6,1.5,3,3.2,4.3,5L389.3,160.1z M396.4,181.2c0-0.7-0.1-1.3-0.1-2
		c0.5-0.5,1-1,1.5-1.4c0.1,1.1,0.2,2.2,0.2,3.3l0,0L396.4,181.2z M402.8,142.2c-10.5-5.4-23-5.4-33.5,0
		C379.9,147.7,392.3,147.7,402.8,142.2 M366.7,146.6c12.6,8.2,29,7.7,41.1-1.2c-1-0.8-2.1-1.5-3.2-2.2c-11.4,6.3-25.3,6.4-36.8,0.1
		c0.1-0.4,0.1-0.9,0.1-1.3c0-0.3,0-0.5,0-0.8c13.2-7.2,29.4-6,41.3,3.1l0,0l1.3,1.1l0,0l-1.3,1l-0.1,0.1c-12.7,9.5-30,10.1-43.3,1.4
		c0.4-0.4,0.7-0.9,1-1.4 M413.2,143c-12.6-11.7-31.3-13.8-46.2-5.1c-0.2-0.5-0.5-1-0.9-1.4c15.5-9.1,35.1-6.9,48.2,5.4l0,0
		L413.2,143z M390.2,111c-11.3,3.6-20.1,12.4-23.7,23.7C377.8,131.1,386.6,122.3,390.2,111 M367.6,139.6
		c14.7-3.2,25.9-15.1,28.2-29.9c-1.3,0.2-2.6,0.4-3.8,0.8c-3.6,12.5-13.4,22.4-25.9,26c-0.4-0.6-0.9-1.1-1.5-1.5
		c4.2-14.4,16.5-25,31.4-27l0,0l1.7-0.2l0,0l-0.2,1.7v0.2c-2.3,15.7-14.1,28.3-29.6,31.6C367.9,140.6,367.8,140.1,367.6,139.6
		 M397.9,104.2c-17.2,0.6-31.9,12.4-36.3,29c-0.5-0.2-1.1-0.3-1.6-0.4c4.5-17.3,19.9-29.7,37.9-30.3l0,0L397.9,104.2z M359,97.9
		c-5.4,10.5-5.4,23,0,33.5C364.4,120.9,364.4,108.4,359,97.9 M363.4,134.1c8.2-12.6,7.7-29-1.2-41.1c-0.8,1-1.5,2.1-2.1,3.2
		c6.3,11.4,6.4,25.3,0.1,36.8c-0.4-0.1-0.9-0.1-1.3-0.1H358c-7.2-13.2-6-29.4,3.2-41.3l0,0l1.1-1.3l0,0l1,1.3l0.1,0.1
		c9.5,12.7,10.1,30,1.4,43.3C364.3,134.6,363.8,134.3,363.4,134.1 M359.8,87.6c-11.7,12.6-13.8,31.3-5.1,46.2
		c-0.5,0.3-1,0.5-1.4,0.9c-9.1-15.5-6.9-35.1,5.4-48.2l0,0L359.8,87.6z"/>
	<path class="st2" d="M358.8,136.3c3.2,0,5.8,2.6,5.8,5.8s-2.6,5.8-5.8,5.8c-3.2,0-5.8-2.6-5.8-5.8l0,0l0,0
		C353,138.9,355.6,136.3,358.8,136.3L358.8,136.3L358.8,136.3"/>
	<path class="st3" d="M102.8,302.2v3H91.6c0.1-1.1,0.5-2.2,1.1-3.2c1-1.5,2.2-2.8,3.6-4c1-0.8,1.8-1.7,2.6-2.7
		c0.4-0.6,0.6-1.2,0.7-1.9c0-0.6-0.2-1.2-0.6-1.6c-0.4-0.4-1-0.6-1.6-0.6c-0.6,0-1.2,0.2-1.6,0.6c-0.4,0.6-0.7,1.3-0.7,2l-3.2-0.3
		c0-1.5,0.7-2.8,1.8-3.8c1.1-0.8,2.4-1.2,3.7-1.1c1.4-0.1,2.8,0.4,3.9,1.3c0.9,0.8,1.4,2,1.4,3.3c0,0.7-0.1,1.5-0.4,2.1
		c-0.3,0.8-0.7,1.5-1.3,2.1c-0.7,0.8-1.4,1.5-2.1,2.1c-1,0.9-1.6,1.5-1.9,1.8c-0.2,0.3-0.5,0.6-0.7,0.9H102.8z"/>
	<path class="st3" d="M116.8,297.6L116.8,297.6c-0.6,0.3-1.2,0.8-1.7,1.3c-0.3,0.5-0.5,1-0.5,1.6c0,0.6,0.2,1.2,0.7,1.7
		c0.5,0.4,1.1,0.7,1.8,0.6c0.5,0,1-0.1,1.4-0.3c0.5-0.3,1.1-0.6,1.5-1L116.8,297.6z M118.1,294.1L118.1,294.1l0.9-0.7
		c0.5-0.3,0.9-0.8,1-1.5c0-0.4-0.2-0.7-0.5-1c-0.3-0.3-0.8-0.5-1.2-0.4c-0.4,0-0.9,0.1-1.2,0.4c-0.3,0.2-0.4,0.5-0.4,0.9
		c0.1,0.5,0.3,1.1,0.7,1.4L118.1,294.1z M126.8,303.1l-1.9,2.5c-1-0.5-1.9-1.1-2.7-1.9c-0.6,0.6-1.3,1-2.1,1.3
		c-0.9,0.3-1.8,0.4-2.7,0.4c-1.7,0.1-3.4-0.5-4.7-1.7c-0.8-0.8-1.2-1.9-1.2-3.1c0-1,0.3-2,0.9-2.9c0.8-0.9,1.7-1.7,2.8-2.2
		c-0.5-0.6-0.9-1.2-1.3-1.9c-0.3-0.5-0.4-1.1-0.4-1.7c0-1,0.4-1.9,1.2-2.6c1-0.7,2.2-1.1,3.4-1c1.2-0.1,2.4,0.3,3.4,1.1
		c0.8,0.7,1.2,1.7,1.2,2.7c0,0.7-0.2,1.3-0.6,1.9c-0.7,0.8-1.5,1.5-2.4,2l2.3,3c0.3-0.6,0.6-1.2,0.7-1.9l2.9,0.6
		c-0.2,0.8-0.5,1.5-0.8,2.2c-0.2,0.4-0.4,0.8-0.7,1.2c0.4,0.4,0.9,0.8,1.4,1.1C125.9,302.6,126.4,302.9,126.8,303.1"/>
	<path class="st3" d="M134.4,300.8l3.1-0.4c0.1,0.7,0.3,1.3,0.8,1.8c0.4,0.4,1,0.6,1.6,0.6c0.6,0,1.2-0.3,1.7-0.7
		c0.5-0.6,0.7-1.3,0.7-2c0-0.7-0.2-1.4-0.6-1.9c-0.4-0.5-1-0.7-1.6-0.7c-0.5,0-1,0.1-1.5,0.2l0.3-2.6c0.7,0.1,1.4-0.1,2-0.6
		c0.4-0.4,0.7-1,0.7-1.6c0.1-0.9-0.6-1.7-1.5-1.8c-0.1,0-0.2,0-0.3,0c-0.5,0-1,0.2-1.4,0.6c-0.4,0.4-0.7,1-0.7,1.6l-2.9-0.5
		c0.2-0.9,0.5-1.7,0.9-2.4c0.4-0.6,1-1.1,1.7-1.4c0.8-0.3,1.6-0.5,2.5-0.5c1.4-0.1,2.8,0.5,3.8,1.5c0.7,0.7,1.2,1.7,1.2,2.8
		c0,1.5-1,2.9-2.4,3.5c0.9,0.2,1.7,0.7,2.3,1.4c0.6,0.7,0.9,1.6,0.9,2.6c0,1.4-0.6,2.8-1.6,3.7c-2.2,1.9-5.4,2-7.7,0.2
		C135.2,303.3,134.6,302.1,134.4,300.8"/>
	<path class="st3" d="M158,297.9L158,297.9v4.4h3.1c0.8,0,1.5,0,2.3-0.1c1-0.2,1.7-1,1.7-2.1c0-0.5-0.1-0.9-0.4-1.3
		c-0.2-0.3-0.6-0.6-1-0.8c-1-0.2-2-0.3-3-0.2H158z M158,291.3L158,291.3v3.8h2.2c0.8,0,1.6,0,2.4-0.1c0.5,0,1-0.2,1.4-0.6
		c0.3-0.3,0.5-0.8,0.5-1.3c0-0.5-0.2-0.9-0.5-1.2c-0.3-0.3-0.8-0.5-1.3-0.6c-0.3,0-1.3-0.1-2.9-0.1L158,291.3z M154.6,288.6h6.6
		c1,0,2,0,2.9,0.2c0.6,0.1,1.2,0.3,1.7,0.7c0.5,0.4,1,0.8,1.3,1.4c0.3,0.6,0.5,1.3,0.5,1.9c0,1.6-0.9,3-2.3,3.6
		c0.9,0.2,1.7,0.8,2.3,1.5c0.5,0.7,0.8,1.6,0.8,2.5c0,0.8-0.2,1.5-0.5,2.2c-0.3,0.7-0.8,1.3-1.4,1.7c-0.7,0.4-1.4,0.7-2.2,0.8
		c-0.6,0.1-1.9,0.1-4,0.1h-5.7L154.6,288.6z"/>
	<polygon class="st3" points="171.4,305.2 171.4,288.6 174.7,288.6 174.7,295.1 181.3,295.1 181.3,288.6 184.6,288.6 184.6,305.2 
		181.3,305.2 181.3,297.9 174.7,297.9 174.7,305.2 	"/>
	<polygon class="st3" points="188.1,305.2 188.1,288.6 191.5,288.6 191.5,296 198.3,288.6 202.8,288.6 196.5,295 203.1,305.2 
		198.8,305.2 194.2,297.4 191.5,300.2 191.5,305.2 	"/>
	<path class="st3" d="M219.2,298.6L219.2,298.6l-2.2-6.2l-2.2,6.2L219.2,298.6z M225.4,305.2h-3.6l-1.4-3.8h-6.6l-1.4,3.8h-3.6
		l6.5-16.6h3.5L225.4,305.2z"/>
	<path class="st3" d="M230.2,299L230.2,299c-0.1,1.1,0.2,2.1,0.8,3c0.5,0.6,1.2,1,2,1c0.7,0,1.4-0.3,1.8-0.9
		c0.6-0.9,0.8-1.9,0.7-2.9c0.1-1-0.2-2-0.8-2.8c-0.4-0.6-1.1-0.9-1.9-0.9c-0.8,0-1.5,0.3-1.9,0.9C230.5,297.1,230.2,298.1,230.2,299
		 M227.1,293.2h3v1.8c0.4-0.6,0.9-1.1,1.6-1.5c0.7-0.4,1.4-0.6,2.2-0.6c1.4,0,2.7,0.6,3.6,1.6c1,1.3,1.6,2.9,1.5,4.6
		c0.1,1.7-0.4,3.4-1.5,4.7c-0.9,1.1-2.2,1.7-3.6,1.7c-0.6,0-1.3-0.1-1.8-0.4c-0.6-0.4-1.2-0.8-1.7-1.4v6.1h-3.2L227.1,293.2z"/>
	<path class="st3" d="M248,299.4L248,299.4c-0.4,0.1-1.1,0.3-1.9,0.5c-0.6,0.1-1.2,0.3-1.7,0.5c-0.4,0.2-0.6,0.7-0.6,1.1
		c0,0.4,0.2,0.9,0.5,1.2c0.3,0.3,0.8,0.5,1.3,0.5c0.6,0,1.2-0.2,1.6-0.6c0.4-0.2,0.6-0.6,0.8-1c0.1-0.5,0.2-1.1,0.1-1.6V299.4z
		 M243.7,296.8l-2.9-0.5c0.2-1,0.8-1.9,1.7-2.6c1.1-0.6,2.3-0.9,3.5-0.8c1.1-0.1,2.2,0.1,3.2,0.5c0.6,0.3,1.1,0.7,1.5,1.3
		c0.3,0.9,0.5,1.9,0.4,2.8v3.7c0,0.8,0,1.6,0.1,2.3c0.1,0.6,0.3,1.1,0.6,1.6h-3.1c-0.1-0.2-0.2-0.5-0.3-0.9c0-0.1-0.1-0.3-0.1-0.4
		c-0.5,0.5-1.1,0.9-1.8,1.2c-0.6,0.3-1.3,0.4-2,0.4c-1.1,0.1-2.1-0.3-2.9-1c-0.7-0.7-1.1-1.6-1.1-2.6c0-0.6,0.2-1.3,0.5-1.8
		c0.3-0.5,0.8-1,1.4-1.2c0.8-0.3,1.7-0.6,2.5-0.8c1.1-0.2,2.1-0.4,3.1-0.8V297c0-0.5-0.1-1-0.5-1.3c-0.5-0.3-1.1-0.5-1.7-0.4
		c-0.5,0-0.9,0.1-1.3,0.3C244.1,295.9,243.9,296.3,243.7,296.8"/>
	<path class="st3" d="M257.3,305.2h-3.2v-12h3v1.7c0.3-0.6,0.8-1.2,1.4-1.6c0.4-0.3,0.9-0.4,1.4-0.4c0.7,0,1.5,0.2,2.1,0.6l-1,2.8
		c-0.4-0.3-1-0.5-1.5-0.5c-0.4,0-0.8,0.1-1.1,0.4c-0.4,0.4-0.6,0.8-0.7,1.3c-0.2,1.3-0.3,2.7-0.3,4L257.3,305.2z"/>
	<path class="st3" d="M268.8,293.2v2.5h-2.2v4.9c0,0.6,0,1.1,0.1,1.7c0,0.2,0.1,0.3,0.3,0.4c0.2,0.1,0.3,0.2,0.5,0.1
		c0.4,0,0.9-0.1,1.3-0.3l0.2,2.5c-0.8,0.3-1.7,0.5-2.5,0.5c-0.5,0-1.1-0.1-1.5-0.3c-0.4-0.2-0.7-0.4-1-0.8c-0.2-0.4-0.4-0.8-0.5-1.2
		c-0.1-0.7-0.1-1.5-0.1-2.2v-5.2h-1.5v-2.5h1.5v-2.4l3.2-1.9v4.2L268.8,293.2z"/>
	<path class="st3" d="M270.7,293.2h2.9v1.6c0.9-1.2,2.3-1.9,3.8-1.9c0.7,0,1.4,0.1,2,0.5c0.6,0.3,1.1,0.8,1.4,1.4
		c0.5-0.6,1-1.1,1.7-1.4c0.6-0.3,1.3-0.5,2-0.5c0.8,0,1.6,0.2,2.2,0.5c0.6,0.4,1.1,0.9,1.3,1.6c0.3,0.8,0.4,1.6,0.3,2.5v7.7h-3.2
		v-6.9c0.1-0.8,0-1.6-0.3-2.3c-0.3-0.5-0.8-0.7-1.4-0.7c-0.5,0-0.9,0.1-1.3,0.4c-0.4,0.3-0.7,0.7-0.9,1.2c-0.2,0.8-0.3,1.7-0.3,2.5
		v5.8H278v-6.6c0-0.8,0-1.5-0.2-2.3c-0.1-0.3-0.3-0.6-0.5-0.8c-0.3-0.2-0.6-0.3-1-0.2c-0.5,0-0.9,0.1-1.3,0.4
		c-0.4,0.3-0.7,0.7-0.9,1.1c-0.2,0.8-0.3,1.6-0.2,2.5v5.8h-3.2L270.7,293.2z"/>
	<path class="st3" d="M298.8,298.1L298.8,298.1c0-0.8-0.2-1.5-0.8-2.1c-0.9-0.9-2.3-1-3.2-0.1c0,0-0.1,0.1-0.1,0.1
		c-0.5,0.6-0.7,1.3-0.7,2.1L298.8,298.1z M298.6,301.4l3.2,0.5c-0.3,1.1-1,2-1.9,2.7c-1,0.6-2.1,1-3.3,0.9c-1.8,0.1-3.5-0.6-4.6-2
		c-0.8-1.2-1.2-2.7-1.2-4.1c-0.1-1.7,0.5-3.4,1.6-4.7c1-1.1,2.4-1.7,3.9-1.7c1.6-0.1,3.2,0.6,4.2,1.8c1,1.2,1.5,3,1.5,5.4h-8
		c0,0.8,0.3,1.6,0.8,2.2c0.5,0.5,1.1,0.8,1.8,0.8c0.5,0,0.9-0.1,1.2-0.4C298.2,302.3,298.4,301.9,298.6,301.4"/>
	<path class="st3" d="M315.4,305.2h-3.2V299c0-0.8,0-1.7-0.2-2.5c-0.1-0.4-0.4-0.7-0.7-0.9c-0.3-0.2-0.7-0.3-1.1-0.3
		c-0.5,0-1,0.1-1.5,0.5c-0.4,0.3-0.7,0.7-0.9,1.2c-0.2,0.9-0.3,1.8-0.2,2.8v5.5h-3.2v-12h3v1.8c1.3-1.9,3.8-2.5,5.9-1.7
		c0.5,0.2,1,0.6,1.3,1c0.3,0.4,0.5,0.9,0.6,1.3c0.1,0.7,0.2,1.4,0.2,2.1L315.4,305.2z"/>
	<path class="st3" d="M324.2,293.2v2.5H322v4.9c0,0.6,0,1.1,0.1,1.7c0,0.2,0.1,0.3,0.3,0.4c0.2,0.1,0.3,0.2,0.5,0.1
		c0.4,0,0.9-0.1,1.3-0.3l0.3,2.5c-0.8,0.3-1.7,0.5-2.5,0.5c-0.5,0-1.1-0.1-1.5-0.3c-0.4-0.2-0.7-0.4-1-0.8c-0.2-0.4-0.4-0.8-0.4-1.2
		c-0.1-0.7-0.1-1.5-0.1-2.2v-5.2h-1.5v-2.5h1.5v-2.4l3.2-1.9v4.2L324.2,293.2z"/>
	<path class="st3" d="M325.3,301.8l3.2-0.5c0.1,0.6,0.4,1,0.8,1.4c0.5,0.4,1.1,0.5,1.7,0.5c0.7,0,1.3-0.1,1.9-0.5
		c0.3-0.2,0.4-0.5,0.4-0.9c0-0.2-0.1-0.4-0.2-0.6c-0.3-0.2-0.7-0.4-1.1-0.4c-1.7-0.3-3.3-0.8-4.9-1.5c-0.9-0.6-1.5-1.6-1.4-2.7
		c0-1,0.4-2,1.2-2.6c1.1-0.8,2.5-1.2,3.8-1.1c1.3-0.1,2.5,0.2,3.7,0.8c0.8,0.6,1.4,1.4,1.6,2.4l-3,0.6c-0.1-0.4-0.4-0.8-0.7-1.1
		c-0.5-0.3-1-0.4-1.5-0.4c-0.6-0.1-1.2,0.1-1.8,0.4c-0.2,0.1-0.4,0.4-0.4,0.6c0,0.2,0.1,0.4,0.3,0.6c1,0.4,2,0.7,3,0.9
		c1.3,0.2,2.5,0.7,3.5,1.4c0.7,0.6,1,1.5,1,2.4c0,1.1-0.5,2.2-1.4,2.9c-1.2,0.9-2.6,1.3-4.1,1.2c-1.4,0.1-2.7-0.3-3.9-1
		C326.2,303.8,325.6,302.8,325.3,301.8"/>
	<rect x="371.4" y="288.6" class="st3" width="3.4" height="16.6"/>
	<path class="st3" d="M388.9,305.2h-3.2V299c0-0.8,0-1.7-0.2-2.5c-0.2-0.8-1-1.3-1.8-1.2c-0.5,0-1,0.1-1.5,0.5
		c-0.4,0.3-0.7,0.7-0.9,1.2c-0.2,0.9-0.3,1.8-0.2,2.8v5.5h-3.2v-12h3v1.8c0.9-1.3,2.4-2,4-2c0.7,0,1.3,0.1,1.9,0.4
		c0.5,0.2,1,0.6,1.3,1c0.3,0.4,0.5,0.9,0.6,1.3c0.1,0.7,0.2,1.4,0.2,2.1L388.9,305.2z"/>
	<path class="st3" d="M394.6,298.9L394.6,298.9c-0.1,1,0.1,1.9,0.5,2.8c0.4,0.8,1.3,1.3,2.1,1.2c0.7,0,1.4-0.3,1.9-0.9
		c0.6-0.8,0.8-1.8,0.8-2.8c0.1-1.1-0.2-2.1-0.8-3c-0.5-0.6-1.2-0.9-1.9-0.9c-0.7,0-1.4,0.3-1.9,0.9
		C394.9,297,394.6,297.9,394.6,298.9 M403.1,305.2h-2.9v-1.8c-0.4,0.6-1,1.2-1.7,1.5c-0.6,0.3-1.3,0.5-2,0.5c-1.4,0-2.7-0.6-3.5-1.7
		c-1.1-1.3-1.6-3-1.5-4.7c-0.1-1.7,0.4-3.3,1.4-4.6c0.9-1,2.3-1.6,3.6-1.6c1.4,0,2.6,0.6,3.5,1.7v-6h3.2L403.1,305.2z"/>
	<path class="st3" d="M406.3,305.2L406.3,305.2v-12h3.2v12H406.3z M406.3,288.6h3.2v3h-3.2V288.6z"/>
	<path class="st3" d="M428.1,299.4L428.1,299.4c-0.6,0.2-1.3,0.4-1.9,0.5c-0.6,0.1-1.2,0.3-1.7,0.5c-0.4,0.2-0.6,0.7-0.6,1.1
		c0,0.4,0.2,0.9,0.5,1.2c0.3,0.3,0.8,0.5,1.3,0.5c0.6,0,1.2-0.2,1.6-0.6c0.4-0.2,0.6-0.6,0.8-1c0.1-0.5,0.2-1,0.1-1.5V299.4z
		 M423.9,296.8l-2.9-0.5c0.2-1,0.8-1.9,1.7-2.6c1.1-0.6,2.3-0.9,3.5-0.8c1.1-0.1,2.2,0.1,3.2,0.5c0.6,0.3,1.1,0.7,1.5,1.3
		c0.4,0.9,0.5,1.9,0.4,2.8v3.7c0,0.8,0,1.6,0.2,2.3c0.1,0.6,0.3,1.1,0.6,1.6h-3.2c-0.1-0.2-0.2-0.5-0.3-0.9c0-0.1,0-0.3-0.1-0.4
		c-0.5,0.5-1.1,0.9-1.8,1.2c-0.6,0.3-1.3,0.4-2,0.4c-1.1,0.1-2.1-0.3-2.9-1c-0.7-0.7-1.1-1.6-1.1-2.6c0-0.6,0.2-1.3,0.5-1.8
		c0.3-0.5,0.8-1,1.4-1.2c0.8-0.3,1.7-0.6,2.5-0.8c1.1-0.2,2.1-0.4,3.1-0.8V297c0-0.5-0.1-1-0.5-1.3c-0.5-0.3-1.1-0.5-1.7-0.4
		c-0.5,0-0.9,0.1-1.3,0.3C424.3,295.9,424,296.3,423.9,296.8"/>
	<path class="st3" d="M437.5,299L437.5,299c-0.1,1.1,0.2,2.1,0.8,3c0.5,0.6,1.2,1,2,1c0.7,0,1.4-0.3,1.8-0.9
		c0.6-0.9,0.8-1.9,0.7-2.9c0.1-1-0.2-2-0.8-2.8c-0.4-0.6-1.1-0.9-1.9-0.9c-0.7,0-1.5,0.3-1.9,0.9C437.7,297.1,437.5,298.1,437.5,299
		 M434.4,293.2h3v1.8c0.4-0.6,0.9-1.1,1.5-1.5c0.7-0.4,1.4-0.6,2.2-0.6c1.4,0,2.7,0.6,3.5,1.6c1,1.3,1.6,2.9,1.5,4.6
		c0.1,1.7-0.4,3.4-1.5,4.7c-0.9,1.1-2.2,1.7-3.6,1.7c-0.6,0-1.2-0.1-1.8-0.4c-0.6-0.4-1.2-0.8-1.7-1.4v6.1h-3.2L434.4,293.2z"/>
	<path class="st3" d="M456.5,305.2v-1.8c-0.4,0.6-1,1.2-1.7,1.5c-0.7,0.4-1.5,0.5-2.3,0.5c-0.8,0-1.5-0.2-2.2-0.5
		c-0.6-0.3-1.1-0.9-1.4-1.5c-0.3-0.8-0.5-1.8-0.4-2.7v-7.6h3.2v5.5c0,1,0,2.1,0.2,3.1c0.1,0.4,0.3,0.7,0.6,0.9
		c0.4,0.2,0.8,0.3,1.2,0.3c0.5,0,1-0.1,1.5-0.4c0.4-0.3,0.7-0.7,0.9-1.1c0.2-1.1,0.3-2.2,0.2-3.3v-5.1h3.2v12L456.5,305.2z"/>
	<path class="st3" d="M465.8,305.2h-3.2v-12h3v1.7c0.3-0.6,0.8-1.2,1.4-1.6c0.4-0.3,0.9-0.4,1.4-0.4c0.7,0,1.5,0.2,2.1,0.6l-1,2.8
		c-0.4-0.3-1-0.5-1.5-0.5c-0.4,0-0.8,0.1-1.1,0.4c-0.4,0.4-0.6,0.8-0.7,1.3c-0.2,1.3-0.3,2.7-0.3,4L465.8,305.2z"/>
	<path class="st3" d="M415.1,305.2h-3.2v-12h3v1.7c0.3-0.6,0.8-1.2,1.4-1.6c0.4-0.3,0.9-0.4,1.4-0.4c0.7,0,1.5,0.2,2.1,0.6l-1,2.8
		c-0.4-0.3-1-0.5-1.5-0.5c-0.4,0-0.8,0.1-1.1,0.4c-0.4,0.4-0.6,0.8-0.7,1.3c-0.2,1.3-0.3,2.7-0.3,4L415.1,305.2z"/>
	<path class="st3" d="M478.4,299.4L478.4,299.4c-0.4,0.1-1,0.3-1.9,0.5c-0.6,0.1-1.2,0.3-1.7,0.5c-0.4,0.2-0.6,0.7-0.6,1.1
		c0,0.4,0.2,0.9,0.5,1.2c0.3,0.3,0.8,0.5,1.3,0.5c0.6,0,1.2-0.2,1.6-0.6c0.4-0.2,0.6-0.6,0.8-1c0.1-0.5,0.2-1,0.1-1.5V299.4z
		 M474.2,296.8l-2.9-0.5c0.2-1,0.8-1.9,1.7-2.6c1.1-0.6,2.3-0.9,3.5-0.8c1.1-0.1,2.2,0.1,3.2,0.5c0.6,0.3,1.1,0.7,1.5,1.3
		c0.4,0.9,0.5,1.9,0.4,2.8v3.7c0,0.8,0,1.6,0.1,2.3c0.1,0.6,0.3,1.1,0.6,1.6h-3.1c-0.1-0.3-0.2-0.6-0.3-0.9c0-0.1-0.1-0.3-0.1-0.4
		c-0.5,0.5-1.1,0.9-1.7,1.2c-0.6,0.3-1.3,0.4-2,0.4c-1.1,0.1-2.1-0.3-2.9-1c-1.2-1.2-1.4-3-0.6-4.4c0.3-0.5,0.8-1,1.4-1.2
		c0.8-0.3,1.7-0.6,2.5-0.8c1.1-0.2,2.1-0.4,3.1-0.8V297c0-0.5-0.1-1-0.5-1.3c-0.5-0.3-1.1-0.4-1.7-0.4c-0.5,0-0.9,0.1-1.3,0.3
		C474.6,295.9,474.3,296.3,474.2,296.8"/>
	<path class="st3" d="M484.4,293.2h2.9v1.6c0.9-1.2,2.3-1.9,3.8-1.9c0.7,0,1.4,0.1,2,0.5c0.6,0.3,1.1,0.8,1.4,1.4
		c0.5-0.6,1-1.1,1.7-1.4c0.6-0.3,1.3-0.5,2-0.5c0.8,0,1.6,0.2,2.2,0.5c0.6,0.4,1.1,0.9,1.3,1.6c0.3,0.8,0.4,1.6,0.3,2.5v7.7H499
		v-6.9c0.1-0.8,0-1.6-0.3-2.3c-0.3-0.5-0.8-0.7-1.4-0.7c-0.4,0-0.9,0.1-1.2,0.4c-0.4,0.3-0.7,0.7-0.9,1.2c-0.2,0.8-0.3,1.7-0.3,2.5
		v5.8h-3.2v-6.6c0-0.8,0-1.5-0.2-2.3c-0.1-0.3-0.3-0.6-0.5-0.8c-0.3-0.2-0.6-0.3-1-0.2c-0.5,0-0.9,0.1-1.3,0.4
		c-0.4,0.3-0.7,0.7-0.9,1.1c-0.2,0.8-0.3,1.6-0.2,2.5v5.8h-3.2L484.4,293.2z"/>
	<path class="st3" d="M339.2,302h3.2v2.3c0,0.7-0.1,1.5-0.2,2.2c-0.2,0.5-0.5,1-0.9,1.4c-0.5,0.4-1.1,0.8-1.7,1l-0.6-1.3
		c0.5-0.1,1-0.4,1.4-0.9c0.3-0.4,0.5-1,0.4-1.5h-1.5L339.2,302z"/>
	<path class="st4" d="M139.2,142.8L139.2,142.8l0.4,81.1c25,10.4,59.6-1,57.9-44.8C196.1,140.5,157.3,133.6,139.2,142.8 M431,182.6
		L431,182.6c7.2-13.8,32.1-14.9,41,0H431z M373.7,181.3L373.7,181.3l17.7-17.3l2.7,2.3l-3.1,3.3v3.6c2.5-2.5,5.3-4.7,8.5-6.3
		c3.7-1.9,8-1.3,12.1,0.1l0.1-5.2h3.6v26.7H412c-0.2-6.1-1.1-14.2-5.4-16.6c-4.8-2.6-11.6,1.3-15.6,7.2v38.9c0,6.5,2.7,9,5.3,9h3.4
		v3.1h-24.4v-3.1h5.3v-47.3l-4.9,3.8L373.7,181.3z M346.4,181.3L346.4,181.3l17.7-17.3l2.7,2.3l-3.1,3.3v48.4c0,6.5,2.7,9,5.3,9h3.4
		v3.1H348v-3.1h5.3v-47.3l-4.9,3.8L346.4,181.3z M328.5,163L328.5,163v6.6c-4.6-1.7-7.5-3.4-11.8-3.6c-5.1-0.2-10.2,1.2-13.7,5.1
		c-5,5.6-5.7,14.6,0.1,19.9c5.4,4.9,15,7.4,22.3,11.7c4,2.4,7.1,4.6,8.4,8.3c1.2,4.1,0.1,8.5-2.9,11.6c-3.7,3.8-9.2,6.4-16.8,5.7
		c-10.9-1-20.9-7.4-19.5-18.8c1-8.6,16.3-7.5,11.9,1.4c-1.7,3.4,2.7,5.3,4.9,3.6s3.8-4.2,3.9-6.5c0.4-5.9-6-11.5-14.4-9.1
		c-9.7,2.8-13.5,11.7-9.7,20.7c6.8,16.1,42.8,18.7,49.7-2.9c2.3-7.1,1.3-13-2.7-17.6c-6.9-7.9-19.5-9-26.8-14.5
		c-8.2-6.2-3.7-16.9,7.7-14.6c5.2,1,9.4,6.6,9,16.9h3.6v-23.8L328.5,163z M231.4,182.6L231.4,182.6c7.2-13.8,32.1-14.9,41,0H231.4z
		 M229.8,186.1L229.8,186.1l57.3-0.3c-6-17.5-28.6-23.5-46.4-16.8c-30.1,11.4-25.6,57.3,5.2,62.9c16,2.9,34.4-5.4,40.7-20.3
		l-3.1-1.8C264.5,241.8,223.5,222,229.8,186.1 M116,135.3L116,135.3l27.8-0.7c38.6-5.1,67.2,13.1,68.4,44.4
		c1.4,37-29.7,58.1-68.2,52.2h-27.3v-3.8h10.2c-0.2-27.3-0.3-54.6-0.5-81.9c0-2.6-2.6-5.7-5.2-5.7h-5L116,135.3z M429.4,186.1
		l57.3-0.3c-6-17.5-28.6-23.5-46.4-16.8c-30.1,11.4-25.6,57.3,5.2,62.9c16,2.9,34.4-5.4,40.7-20.3l-3.1-1.8
		C464.1,241.8,423,222,429.4,186.1"/>
	<path class="st5" d="M208.2,246.7L208.2,246.7v26c-13.1,8.2-23.8,3.1-28.4-6.1c-2.8-5.7-3.1-12.4-0.7-18.3c1.9-5,6.4-8.6,11.7-9.3
		C196.4,238.1,202.8,240.2,208.2,246.7 M343.9,242.7L343.9,242.7v14.4h2.3V233h-2.5v3.5c-12.4-1.4-18.5,0-24.4,4.9
		c-10.7,8.9-11.9,25.7-0.7,34.4c9.5,7.3,24.7,3.6,31.2-3.2l-1.5-1.7c-5.8,5.1-14,6.2-20.2,3.5c-15-6.7-17.1-32.4,2.5-35.2
		C335.1,238.5,340.5,239.7,343.9,242.7 M284.2,234.5L284.2,234.5l-12.9,11.7l1.5,1.6l3.5-3.1v32.2h-3.8v2.2h16.3v-2.3
		c-2.5-0.2-5.5-1.3-5.5-4.2v-26.1c0-6.8,12.7-9.3,12.7-1.8v31.6h-3.2v2.8h16.2v-2.2c-3.4-0.4-5.9-1.3-5.9-4.6v-26.8
		c0-11.3-13-12.9-19.7-4c-0.5-2.6,0-3.4,1.9-5.3L284.2,234.5z M231,247.9h27.2C252.3,238,235.8,238.8,231,247.9 M230,250.2
		L230,250.2c-4.3,23.9,23,36.9,35.6,15.7l2.1,1.2c-4.1,9.9-16.4,15.4-27,13.5c-20.4-3.7-23.4-34.2-3.4-41.8
		c11.8-4.5,26.8-0.5,30.7,11.1L230,250.2z M203,219L203,219l1.2,1.5l3.1-2.6v22.9c-4.9-5.3-16.6-6-23.5-2.9
		c-21.5,9.9-15.7,41.9,8.1,42.6c5.8,0.2,11.5-1.7,16.2-5.2v3.4h12v-1.9c-3.3,0-5.5-1.5-5.5-5.2v-60.2l2-2.2l-1.5-1.6L203,219z
		 M151.3,247L151.3,247l11.7-11.4l1.8,1.5l-2.1,2.2v32.1c0,4.3,1.8,6,3.5,6h2.2v2.1h-16.2v-2h3.5v-31.4l-3.2,2.5L151.3,247z
		 M139.3,234.7L139.3,234.7v4.4c-3.1-1.1-5-2.2-7.8-2.4c-3.4-0.3-6.7,0.9-9.1,3.4c-3.3,3.8-3.8,9.8,0.1,13.3c3.6,3.2,10,5,14.8,7.8
		c2.7,1.6,4.7,3.1,5.6,5.5c0.8,2.7,0.1,5.7-1.9,7.7c-2.9,3-7.1,4.4-11.2,3.8c-7.3-0.7-13.9-4.9-13-12.5c0.7-5.7,10.9-5,8,1
		c-1.1,2.3,1.8,3.5,3.2,2.4c1.4-1,2.4-2.6,2.6-4.3c0.3-3.9-4-7.7-9.6-6.1c-6.4,1.8-9,7.8-6.4,13.8c4.6,10.7,28.5,12.5,33.1-1.9
		c1.5-4.7,0.9-8.6-1.8-11.7c-4.6-5.3-13-6-17.8-9.7c-5.5-4.1-2.5-11.2,5.1-9.8c3.5,0.7,6.3,4.4,6,11.2h2.4v-15.8L139.3,234.7z
		 M74.4,247.9h27.2C95.8,238,79.2,238.8,74.4,247.9 M73.4,250.2L73.4,250.2c-4.2,23.9,23,36.9,35.6,15.7l2.1,1.2
		c-4.2,9.9-16.4,15.4-27,13.5c-20.4-3.7-23.4-34.2-3.4-41.8c11.8-4.5,26.8-0.5,30.8,11.1L73.4,250.2z M0,216L0,216l0.1,3.1h4
		c1.7-0.1,2.9,1.6,2.9,3.7V273c0,3,0.5,4.5-1.3,4.5H0.8v3.3h24.1v-3.8h-3.6c-2.6,0-5.4-0.6-5.4-4.2l0.2-48.4
		c11.4-11.1,30.9-7,35.1,12.4c5.5,25.3-15.3,34.3-32.6,21.8l-3.9,5L42.8,278c5.7,2.9,15.4,4.6,21.1-0.1c0.8-0.6-0.7-2.6-1.6-2.2
		c-3.6,1.6-7.7,1.6-11.2-0.1l-15.4-7.8c19.3-2.5,27.4-17.9,24.1-32.8c-4.1-18.1-26.5-28-43.5-15.4v-3.8L0,216z M365.5,236.8v2h-5
		l10,26.6c2.3-6.6,4.7-13.3,7-19.9c0.9-2.6,1-6.6-1.7-6.6h-2.4v-2.3h14.2v1.9h-4.7c-6.1,16-11,32.6-18.3,48.1
		c-4.8,10.2-12,19.3-20.2,19v-10.3h2.3c0.8,3.5,6.7,2.9,8.7,0.8c5.9-6.1,8.1-14.8,12.2-22.2l-13-31.1c-0.9-2.1-2.6-4-5.1-4H347v-2.2
		L365.5,236.8z"/>
	<path class="st6" d="M159.2,224.9c2.1,0,3.8-1.7,3.8-3.8s-1.7-3.8-3.8-3.8s-3.8,1.7-3.8,3.8l0,0l0,0
		C155.4,223.2,157.1,224.8,159.2,224.9"/>
</g>
</svg>
