<?xml version="1.0" encoding="utf-8"?>
<!-- Generator: Adobe Illustrator 18.0.0, SVG Export Plug-In . SVG Version: 6.00 Build 0)  -->
<!DOCTYPE svg PUBLIC "-//W3C//DTD SVG 1.1//EN" "http://www.w3.org/Graphics/SVG/1.1/DTD/svg11.dtd">
<svg version="1.1" id="Layer_1" xmlns="http://www.w3.org/2000/svg" xmlns:xlink="http://www.w3.org/1999/xlink" x="0px" y="0px"
	 viewBox="59 0 282 200" enable-background="new 59 0 282 200" xml:space="preserve">
<g id="A" display="none">
	<path display="inline" fill="#B62726" d="M278.9,112.7c-13.2-1.3-29.7-2.2-48.2-1.8l-30.1-42.4V1.5l23.4,33.6L278.9,112.7z"/>
	<path display="inline" fill="#B62726" d="M283.6,120c-14.4-2.1-31.8-3.9-49.9-4.2L292,199h47L283.6,120z"/>
	<path display="inline" fill="#86171A" d="M163.9,120.9l36.8-52.3V1.5l-23.5,33.5l-105,150l-9.8,13.5c0.1-0.1,0.2-0.1,0.5-0.4
		c4.1-2.7,33-21.4,74.9-39.8c47.2-20.8,111-41.5,174.3-38.6C312,119.9,242.2,104.3,163.9,120.9"/>
</g>
<path fill="none" stroke="#0F0F0F" stroke-miterlimit="10" d="M334,195.7l-52.8-75.5c8.9-0.5,17.8-0.6,26.7-0.2
	c0,0-67.6-14.9-143.6,0.9L200,71.1v-1.8l29.2,41.1c18-0.4,33.9,0.5,46.7,1.7l-53.2-75.3L200,4.3V7l-22.8,32.1L75.5,182.3l-9.5,13
	c0.1,0,0.2-0.2,0.5-0.3c4-2.6,32-20.4,72.6-38.1c28.3-12.3,62.8-24.6,99.5-31.5c0.2,0,0.4-0.1,0.6-0.1l49.3,70.4H334z"/>
<path display="none" fill="none" stroke="#C5303B" stroke-miterlimit="10" d="M251.2,114c-12-0.5-23.3-0.4-34,0.2
	c-16.5,0.1-31.5,2.2-45.1,5.6c-44.7,8.8-69.3,24.2-69.3,24.2l-25.9,36.2c-7.3,9-10.9,15.2-10.9,15.2
	c139.9-86.2,241.9-75.2,241.9-75.2C290.2,116,268.6,114.5,251.2,114z"/>
</svg>
