<?xml version="1.0" encoding="utf-8"?>
<!-- Generator: Adobe Illustrator 18.0.0, SVG Export Plug-In . SVG Version: 6.00 Build 0)  -->
<!DOCTYPE svg PUBLIC "-//W3C//DTD SVG 1.1//EN" "http://www.w3.org/Graphics/SVG/1.1/DTD/svg11.dtd">
<svg version="1.1" id="Layer_1" xmlns="http://www.w3.org/2000/svg" xmlns:xlink="http://www.w3.org/1999/xlink" x="0px" y="0px"
	 viewBox="32.5 42.5 335 115" enable-background="new 32.5 42.5 335 115" xml:space="preserve">
<g>
	<g>
		<path fill="#FFFFFF" d="M166,152.6v-8h3.1c0.7,0,1.3,0.1,1.8,0.3c0.5,0.2,0.9,0.5,1.1,1c0.3,0.4,0.4,0.9,0.4,1.5s-0.1,1.1-0.4,1.5
			c-0.3,0.4-0.6,0.7-1.1,1c-0.5,0.2-1.1,0.3-1.8,0.3h-2.5l0.5-0.5v3L166,152.6L166,152.6z M167.1,149.7l-0.5-0.6h2.5
			c0.7,0,1.3-0.2,1.7-0.5c0.4-0.3,0.6-0.8,0.6-1.3s-0.2-1-0.6-1.3c-0.4-0.3-0.9-0.5-1.7-0.5h-2.5l0.5-0.6V149.7z M171.3,152.6
			l-2-2.9h1.2l2.1,2.9H171.3z"/>
		<path fill="#FFFFFF" d="M177.7,151.6h4.7v1h-5.8v-8h5.7v1h-4.5V151.6z M177.6,148h4.1v1h-4.1V148z"/>
		<path fill="#FFFFFF" d="M186.4,152.6v-8h1.1v7h4.4v1L186.4,152.6L186.4,152.6z"/>
		<path fill="#FFFFFF" d="M194.2,152.6l3.6-8h1.1l3.6,8h-1.2l-3.2-7.4h0.5l-3.2,7.4H194.2z M195.8,150.6l0.3-0.9h4.5l0.3,0.9H195.8z
			"/>
		<path fill="#FFFFFF" d="M207.2,152.6v-7h-2.8v-1h6.6v1h-2.8v7H207.2z"/>
		<path fill="#FFFFFF" d="M214.6,152.6v-8h1.1v8H214.6z"/>
		<path fill="#FFFFFF" d="M223.9,152.7c-0.6,0-1.2-0.1-1.7-0.3c-0.5-0.2-1-0.5-1.4-0.9c-0.4-0.4-0.7-0.8-0.9-1.3
			c-0.2-0.5-0.3-1-0.3-1.6c0-0.6,0.1-1.1,0.3-1.6c0.2-0.5,0.5-0.9,0.9-1.3c0.4-0.4,0.8-0.7,1.3-0.9c0.5-0.2,1.1-0.3,1.7-0.3
			c0.6,0,1.2,0.1,1.7,0.3c0.5,0.2,1,0.5,1.3,0.9c0.4,0.4,0.7,0.8,0.9,1.3c0.2,0.5,0.3,1,0.3,1.6c0,0.6-0.1,1.1-0.3,1.6
			c-0.2,0.5-0.5,0.9-0.9,1.3c-0.4,0.4-0.8,0.7-1.3,0.9C225.1,152.6,224.6,152.7,223.9,152.7z M223.9,151.7c0.4,0,0.9-0.1,1.2-0.2
			c0.4-0.1,0.7-0.4,1-0.6c0.3-0.3,0.5-0.6,0.7-1c0.2-0.4,0.2-0.8,0.2-1.2s-0.1-0.9-0.2-1.2c-0.2-0.4-0.4-0.7-0.7-1
			c-0.3-0.3-0.6-0.5-1-0.7c-0.4-0.1-0.8-0.2-1.2-0.2c-0.4,0-0.9,0.1-1.2,0.2s-0.7,0.4-1,0.7s-0.5,0.6-0.7,1
			c-0.2,0.4-0.2,0.8-0.2,1.2c0,0.4,0.1,0.9,0.2,1.2c0.2,0.4,0.4,0.7,0.7,1c0.3,0.3,0.6,0.5,1,0.6
			C223.1,151.6,223.5,151.7,223.9,151.7z"/>
		<path fill="#FFFFFF" d="M232.2,152.6v-8h0.9l5.3,6.6h-0.5v-6.6h1.1v8h-0.9l-5.3-6.6h0.5v6.6H232.2z"/>
		<path fill="#FFFFFF" d="M246,152.7c-0.6,0-1.2-0.1-1.8-0.3s-1-0.4-1.3-0.7l0.4-0.9c0.3,0.3,0.7,0.5,1.2,0.7c0.5,0.2,1,0.3,1.5,0.3
			c0.5,0,0.8-0.1,1.1-0.2s0.5-0.3,0.6-0.4c0.1-0.2,0.2-0.4,0.2-0.6c0-0.3-0.1-0.5-0.3-0.7c-0.2-0.2-0.4-0.3-0.7-0.4
			s-0.6-0.2-0.9-0.3c-0.3-0.1-0.7-0.2-1-0.3s-0.7-0.2-1-0.4s-0.5-0.4-0.7-0.6c-0.2-0.3-0.3-0.6-0.3-1c0-0.4,0.1-0.8,0.3-1.1
			c0.2-0.3,0.6-0.6,1-0.8c0.4-0.2,1-0.3,1.7-0.3c0.5,0,0.9,0.1,1.4,0.2c0.5,0.1,0.9,0.3,1.2,0.5l-0.4,0.9c-0.3-0.2-0.7-0.4-1.1-0.5
			c-0.4-0.1-0.7-0.1-1.1-0.1c-0.4,0-0.8,0.1-1.1,0.2c-0.3,0.1-0.5,0.3-0.6,0.5c-0.1,0.2-0.2,0.4-0.2,0.6c0,0.3,0.1,0.5,0.3,0.7
			c0.2,0.2,0.4,0.3,0.7,0.4s0.6,0.2,0.9,0.3c0.3,0.1,0.7,0.2,1,0.3c0.3,0.1,0.7,0.2,1,0.4c0.3,0.2,0.5,0.4,0.7,0.6
			c0.2,0.3,0.3,0.6,0.3,1c0,0.4-0.1,0.8-0.3,1.1c-0.2,0.3-0.6,0.6-1,0.8C247.3,152.6,246.7,152.7,246,152.7z"/>
		<path fill="#FFFFFF" d="M254.1,152.6H253v-8h1.1V152.6z M258.9,149H254v-1h4.8V149z M258.8,144.6h1.1v8h-1.1V144.6z"/>
		<path fill="#FFFFFF" d="M264.5,152.6v-8h1.1v8H264.5z"/>
		<path fill="#FFFFFF" d="M270.3,152.6v-8h3.1c0.7,0,1.3,0.1,1.8,0.3c0.5,0.2,0.9,0.5,1.1,1c0.3,0.4,0.4,0.9,0.4,1.5
			s-0.1,1.1-0.4,1.5c-0.3,0.4-0.6,0.7-1.1,1c-0.5,0.2-1.1,0.3-1.8,0.3h-2.5l0.5-0.5v3L270.3,152.6L270.3,152.6z M271.4,149.7
			l-0.5-0.6h2.5c0.7,0,1.3-0.2,1.7-0.5c0.4-0.3,0.6-0.8,0.6-1.3c0-0.6-0.2-1-0.6-1.3c-0.4-0.3-0.9-0.5-1.7-0.5h-2.5l0.5-0.6V149.7z"
			/>
		<path fill="#FFFFFF" d="M283.1,152.7c-0.6,0-1.2-0.1-1.8-0.3s-1-0.4-1.3-0.7l0.4-0.9c0.3,0.3,0.7,0.5,1.2,0.7
			c0.5,0.2,1,0.3,1.5,0.3c0.5,0,0.8-0.1,1.1-0.2c0.3-0.1,0.5-0.3,0.6-0.4s0.2-0.4,0.2-0.6c0-0.3-0.1-0.5-0.3-0.7
			c-0.2-0.2-0.4-0.3-0.7-0.4c-0.3-0.1-0.6-0.2-0.9-0.3c-0.3-0.1-0.7-0.2-1-0.3s-0.7-0.2-1-0.4c-0.3-0.2-0.5-0.4-0.7-0.6
			c-0.2-0.3-0.3-0.6-0.3-1c0-0.4,0.1-0.8,0.3-1.1c0.2-0.3,0.6-0.6,1-0.8c0.4-0.2,1-0.3,1.7-0.3c0.5,0,0.9,0.1,1.4,0.2
			c0.5,0.1,0.9,0.3,1.2,0.5l-0.4,0.9c-0.3-0.2-0.7-0.4-1.1-0.5c-0.4-0.1-0.7-0.1-1.1-0.1c-0.4,0-0.8,0.1-1.1,0.2
			c-0.3,0.1-0.5,0.3-0.6,0.5c-0.1,0.2-0.2,0.4-0.2,0.6c0,0.3,0.1,0.5,0.3,0.7c0.2,0.2,0.4,0.3,0.7,0.4c0.3,0.1,0.6,0.2,0.9,0.3
			c0.3,0.1,0.7,0.2,1,0.3c0.3,0.1,0.7,0.2,1,0.4c0.3,0.2,0.5,0.4,0.7,0.6c0.2,0.3,0.3,0.6,0.3,1c0,0.4-0.1,0.8-0.3,1.1
			c-0.2,0.3-0.6,0.6-1,0.8C284.4,152.6,283.8,152.7,283.1,152.7z"/>
		<path fill="#FFFFFF" d="M296.5,152.6h-1.1v-8h5.7v1h-4.5L296.5,152.6L296.5,152.6z M296.4,148.4h4.1v1h-4.1L296.4,148.4
			L296.4,148.4z"/>
		<path fill="#FFFFFF" d="M308.4,152.7c-0.6,0-1.2-0.1-1.7-0.3c-0.5-0.2-1-0.5-1.4-0.9c-0.4-0.4-0.7-0.8-0.9-1.3
			c-0.2-0.5-0.3-1-0.3-1.6c0-0.6,0.1-1.1,0.3-1.6c0.2-0.5,0.5-0.9,0.9-1.3c0.4-0.4,0.8-0.7,1.3-0.9c0.5-0.2,1.1-0.3,1.7-0.3
			c0.6,0,1.2,0.1,1.7,0.3c0.5,0.2,1,0.5,1.3,0.9c0.4,0.4,0.7,0.8,0.9,1.3c0.2,0.5,0.3,1,0.3,1.6c0,0.6-0.1,1.1-0.3,1.6
			c-0.2,0.5-0.5,0.9-0.9,1.3c-0.4,0.4-0.8,0.7-1.3,0.9C309.6,152.6,309,152.7,308.4,152.7z M308.4,151.7c0.4,0,0.9-0.1,1.2-0.2
			s0.7-0.4,1-0.6c0.3-0.3,0.5-0.6,0.7-1c0.2-0.4,0.2-0.8,0.2-1.2s-0.1-0.9-0.2-1.2c-0.2-0.4-0.4-0.7-0.7-1c-0.3-0.3-0.6-0.5-1-0.7
			c-0.4-0.1-0.8-0.2-1.2-0.2c-0.4,0-0.9,0.1-1.2,0.2c-0.4,0.1-0.7,0.4-1,0.7c-0.3,0.3-0.5,0.6-0.7,1c-0.2,0.4-0.2,0.8-0.2,1.2
			c0,0.4,0.1,0.9,0.2,1.2c0.2,0.4,0.4,0.7,0.7,1c0.3,0.3,0.6,0.5,1,0.6C307.5,151.6,308,151.7,308.4,151.7z"/>
		<path fill="#FFFFFF" d="M316.6,152.6v-8h3.1c0.7,0,1.3,0.1,1.8,0.3c0.5,0.2,0.9,0.5,1.1,1c0.3,0.4,0.4,0.9,0.4,1.5
			s-0.1,1.1-0.4,1.5c-0.3,0.4-0.6,0.7-1.1,1c-0.5,0.2-1.1,0.3-1.8,0.3h-2.5l0.5-0.5v3L316.6,152.6L316.6,152.6z M317.8,149.7
			l-0.5-0.6h2.5c0.7,0,1.3-0.2,1.7-0.5c0.4-0.3,0.6-0.8,0.6-1.3s-0.2-1-0.6-1.3c-0.4-0.3-0.9-0.5-1.7-0.5h-2.5l0.5-0.6V149.7z
			 M322,152.6l-2-2.9h1.2l2.1,2.9H322z"/>
		<path fill="#FFFFFF" d="M328.3,151.6h4.7v1h-5.8v-8h5.7v1h-4.5V151.6z M328.2,148h4.1v1h-4.1V148z"/>
		<path fill="#FFFFFF" d="M339.3,152.6l-3.5-8h1.2l3.2,7.4h-0.7l3.3-7.4h1.1l-3.5,8H339.3z"/>
		<path fill="#FFFFFF" d="M348.3,151.6h4.7v1h-5.8v-8h5.7v1h-4.5V151.6z M348.2,148h4.1v1h-4.1V148z"/>
		<path fill="#FFFFFF" d="M357,152.6v-8h3.1c0.7,0,1.3,0.1,1.8,0.3c0.5,0.2,0.9,0.5,1.1,1c0.3,0.4,0.4,0.9,0.4,1.5s-0.1,1.1-0.4,1.5
			c-0.3,0.4-0.6,0.7-1.1,1c-0.5,0.2-1.1,0.3-1.8,0.3h-2.5l0.5-0.5v3L357,152.6L357,152.6z M358.2,149.7l-0.5-0.6h2.5
			c0.7,0,1.3-0.2,1.7-0.5c0.4-0.3,0.6-0.8,0.6-1.3s-0.2-1-0.6-1.3c-0.4-0.3-0.9-0.5-1.7-0.5h-2.5l0.5-0.6V149.7z M362.4,152.6
			l-2-2.9h1.2l2.1,2.9H362.4z"/>
	</g>
	<path fill="none" d="M103.9,129.9"/>
	<path fill="#FFFFFF" d="M110.7,97.6c-1.9-2.7-4.3-4.9-7.2-6.5c-3.3-1.9-7.4-3.2-12-4.1c-4.9-0.9-10.1-1.5-15.6-2
		c-10.1-1.1-17.2-2.8-21-5.1c-2.6-1.6-2.9-3.2-2.9-4.3c0-1.5,0.9-3,2.8-4.4c4.1-2.9,10.3-4.4,18.3-4.4c5.4,0,11.3,0.7,17.4,1.9
		c5.8,1.3,10.7,3,14.6,4.8l2.8,1.3V60l-1.1-0.5c-4.1-2-9.1-3.6-14.9-4.8c-12.4-2.4-24.7-2.3-35.1,0.3c-5.4,1.3-9.9,3.5-13.2,6.3
		c-4.8,4.2-7.3,9.2-7.3,15c0,4.8,1.9,9.1,5.7,12.7c3.1,3.1,7.7,5.3,13.4,6.5c5.2,1.3,11.4,2.2,18.3,2.8c9.9,1,17,2.6,20.9,5
		c2.9,1.8,2.9,3.5,2.9,4.1c0,1.5-0.9,3-2.7,4.3c-4.1,2.8-10.6,4.3-19.3,4.3c-5.8,0-12-0.7-18.4-1.9c-5.9-1.2-11-2.7-15.2-4.7
		l-2.8-1.3v14.8l1.1,0.5c4.1,2.1,9.3,3.8,15.4,4.8c6.1,1.2,12.4,1.8,18.9,1.8c5.6,0,10.7-0.4,15.3-1.3c4.9-1,9-2.4,12.1-4.2
		c3.3-1.8,6.1-4.3,8.2-7.4c2.2-3.2,3.3-6.7,3.3-10.3C113.4,103.5,112.5,100.4,110.7,97.6L110.7,97.6z"/>
	<polygon fill="#FFFFFF" points="283.4,52.7 246.9,104.8 245.2,107.3 245.2,129.5 230.2,129.5 230.2,107.3 228.4,104.8 192,52.7 
		210.5,52.7 230.2,80.8 237.7,91.6 245.2,80.8 264.9,52.7 	"/>
	<path fill="#FFFFFF" d="M319.3,66.1L310,52.8l-9.3,13.2l-44.2,63.1l-0.3,0.4h18.5l7.9-11.4h54.5l7.9,11.4h18.5L319.3,66.1z
		 M293.6,102.7L310,79.3l16.4,23.4H293.6z"/>
	<g>
		<path fill="#F5873D" d="M195.6,95.6c-5.2-0.5-11.7-0.9-19-0.7l-11.8-16.7V51.9l9.2,13.2L195.6,95.6z"/>
		<path fill="#F5873D" d="M219.1,129.5h-18.5l-20.3-28.9c5.6-1.1,11.2-1.8,17-2.1l0,0L219.1,129.5z"/>
	</g>
	<path fill="#F8B641" d="M150.3,99.2L164.8,79V53l-9.2,13l-41.3,58.1l-3.8,5.3c0,0,0.1-0.1,0.2-0.1c1.6-1,13-8.3,29.5-15.5
		c11.5-5,25.5-10,40.4-12.8c5.6-1,11.2-1.8,17-2.1l0,0c3.7-0.2,7.4-0.2,11.2-0.1C208.5,98.8,181.1,92.8,150.3,99.2z"/>
	<rect x="39.2" y="148.5" fill="#FFFFFF" width="117.2" height="2"/>
	<path fill="#C5303B" d="M185.5,96.4c-4.9-0.2-9.5-0.2-13.8,0.1c-6.7,0-12.8,0.9-18.3,2.3c-18.2,3.6-28.1,9.8-28.1,9.8l-10.5,14.7
		c-3,3.6-4.4,6.2-4.4,6.2c56.8-35,98.2-30.5,98.2-30.5C201.4,97.2,192.6,96.6,185.5,96.4z"/>
</g>
</svg>
