<?xml version="1.0" encoding="utf-8"?>
<!-- Generator: Adobe Illustrator 26.2.1, SVG Export Plug-In . SVG Version: 6.00 Build 0)  -->
<svg version="1.1" id="Layer_1" xmlns="http://www.w3.org/2000/svg" xmlns:xlink="http://www.w3.org/1999/xlink" x="0px" y="0px"
	 viewBox="0 0 181 63.8" style="enable-background:new 0 0 181 63.8;" xml:space="preserve">
<style type="text/css">
	.st0{fill-rule:evenodd;clip-rule:evenodd;fill:#FFFFFF;}
	.st1{fill:#243136;}
	.st2{fill:#D9B265;}
</style>
<g>
	<path class="st0" d="M105,56.3v-1.6l0,0c1.9,0,3.3-1.5,3.3-3.4l0,0c0-1.9-1.4-3.4-3.3-3.4v-1.6l0,0c2.9,0,5,2.3,5,5l0,0
		C110,54,108,56.3,105,56.3 M116,56.3c2.5,0,4.2-1.5,4.2-4.3v-5.4h-1.7v5.5c0,1.8-0.9,2.7-2.4,2.7s-2.5-0.9-2.5-2.7v-5.4h-1.7v5.5
		C111.9,54.9,113.5,56.3,116,56.3z M124.9,56.2h1.7v-8h3.1v-1.6h-7.8v1.6h3.1L124.9,56.2L124.9,56.2z M131.5,56.2h1.7v-4.1h4.6v4.1
		h1.7v-9.6h-1.7v4h-4.6v-4h-1.7V56.2z M152.3,46.5l-2.4,3.5l-2.4-3.5h-2l3.4,4.7l-3.5,4.9h1.9l2.5-3.6l2.6,3.6h2l-3.5-4.9l3.4-4.7
		H152.3z M105,46.3v1.6l0,0c-1.9,0-3.3,1.5-3.3,3.4l0,0c0,1.9,1.4,3.4,3.3,3.4v1.6l0,0c-2.9,0-5-2.3-5-5l0,0
		C99.9,48.7,102.1,46.4,105,46.3z M80.7,53.8v-1.5h1.7l-1.7-3.8v-2h0.8l4.3,9.7H84l-1-2.3h-2.3V53.8z M95,56.3c2,0,3.5-1.1,3.5-2.8
		l0,0c0-1.6-1-2.3-3.1-2.8c-1.8-0.5-2.3-0.8-2.3-1.5l0,0c0-0.7,0.6-1.1,1.6-1.1c0.9,0,1.8,0.3,2.6,1l0.9-1.2c-1-0.8-2-1.2-3.5-1.2
		c-1.9,0-3.3,1.1-3.3,2.8l0,0c0,1.8,1.1,2.4,3.2,2.8c1.8,0.5,2.1,0.8,2.1,1.5l0,0c0,0.7-0.7,1.2-1.7,1.2c-1.2,0-2.1-0.5-3.1-1.2
		l-1,1.2C92,55.8,93.5,56.3,95,56.3z M80.7,46.4v2l0,0L79,52.3h1.7v1.5h-2.3l-1,2.3h-1.4v-1l3.8-8.7C79.9,46.4,80.7,46.4,80.7,46.4z
		 M76.2,47.2l0.5-0.7h-0.5V47.2z M76.2,46.5v0.7l-3.4,5.1v3.8h-1.7v-3.7l-3.4-5.2v-0.7h1.6l2.7,4.3l2.7-4.3
		C74.7,46.5,76.2,46.5,76.2,46.5z M76.2,55.1l-0.5,1h0.5V55.1z M67.6,56.2h0.5l-0.5-1V56.2z M67.6,46.5v0.7l-0.5-0.7H67.6z
		 M67.6,55.1l-3.8-8.7H63v2l1.7,3.8H63v1.5h2.3l1,2.3h1.4V55.1L67.6,55.1z M36.6,56.2h0.1l-0.1-0.3V56.2z M63,46.4v2l0,0l-1.7,3.8
		H63v1.5h-2.3l-1,2.3H58l4.2-9.7C62.2,46.4,63,46.4,63,46.4z M36.6,48.1v-1.6h7.7v1.6h-3.1v8h-1.7v-8H36.6z M53.6,56.3
		c2,0,3.4-1.1,3.4-2.8l0,0c0-1.6-1-2.3-3.1-2.8c-1.8-0.5-2.3-0.8-2.3-1.5l0,0c0-0.7,0.6-1.1,1.6-1.1c0.9,0,1.7,0.3,2.6,1l0.9-1.2
		c-1-0.8-2-1.2-3.5-1.2c-1.9,0-3.3,1.1-3.3,2.8l0,0c0,1.8,1.1,2.4,3.2,2.8c1.8,0.5,2.1,0.8,2.1,1.5l0,0c0,0.7-0.7,1.2-1.7,1.2
		c-1.1,0-2.1-0.5-3.1-1.2l-1,1.2C50.8,55.8,52.1,56.3,53.6,56.3z M31.7,53.8h2.3l1,2.3h1.7v-0.3l-4.1-9.4h-0.8v2l1.7,3.8h-1.7
		L31.7,53.8L31.7,53.8z M36.6,48.1h-0.1v-1.6h0.1V48.1z M26.7,56.2h1.7l1-2.3h2.3v-1.5h-1.6l1.7-3.8l0,0v-2H31L26.7,56.2z"/>
	<path class="st0" d="M0,40.9h17.2c7.9,0,12.7-3.5,12.7-9.2v-0.1c0-4.5-2.6-6.8-6.7-8.1c2.9-1.2,5.2-3.6,5.2-7.5v-0.1
		c0-2.3-0.8-4.1-2.1-5.4c-1.9-1.9-5-2.9-9.2-2.9H0V40.9z M19.3,17.9c0,1.9-1.6,2.9-4.4,2.9H9.2V15h6.1C17.9,15,19.3,16,19.3,17.9
		L19.3,17.9L19.3,17.9z M20.7,30.3L20.7,30.3c0,2-1.6,3.2-4.4,3.2H9.2v-6.1h7C19.2,27.3,20.7,28.5,20.7,30.3z M34.4,40.9h9.3V7.5
		h-9.3V40.9z M48.7,40.9h29.5v-7.8H61.5l16.7-18.9V7.5H49.3v7.8h16.2L48.7,34.2V40.9z M91.2,40.9h9.3V15.7h10.1V7.5H81.3v8.1h9.9
		L91.2,40.9L91.2,40.9z M152.7,40.9h9.3v-9.5h4.6c8.3,0,14.4-4.2,14.4-12v-0.1c0-7.3-5.4-11.6-13.8-11.6h-14.4v33.2H152.7z
		 M162,24.2v-8.8h4.4c3.3,0,5.3,1.5,5.3,4.3v0.1c0,2.6-2,4.4-5.3,4.4H162L162,24.2z"/>
	<g>
		<path class="st1" d="M130.2,41c9.5,0,16.6-7.5,16.6-16.6v-0.1c0-9.2-7-16.5-16.6-16.5c-9.5,0-16.6,7.5-16.6,16.6v0.1
			C113.7,33.7,120.7,41,130.2,41 M130.4,30.7c-3.5,0-5.9-2.9-5.9-6.3v-0.1c0-3.4,2.3-6.3,5.8-6.3s5.8,2.9,5.8,6.3v0.1
			C136.1,27.9,133.7,30.7,130.4,30.7z"/>
		<path class="st2" d="M128,14.4c0.1,0.6,0.2,1,0.5,1.5l1.1,2.7l-2-2.4c-0.1-0.1-0.2-0.2-0.2-0.3c-0.8-0.8-1.7-1.5-2.7-2
			c-1-0.6-2-0.9-3.2-1.1l-1-0.2l0.8-0.7c1-0.8,2.1-1.5,3.4-1.9c1.2-0.5,2.5-0.9,3.7-1l0.9-0.1l-0.3,0.8c-0.2,0.6-0.5,1.1-0.7,1.7
			c-0.2,0.6-0.2,1.1-0.2,1.8C127.8,13.5,127.9,14,128,14.4 M127,14.4c-0.1-0.5-0.1-0.9-0.1-1.5c0-0.7,0.1-1.4,0.3-2
			c0.1-0.3,0.2-0.7,0.3-1c-0.9,0.2-1.8,0.5-2.6,0.9c-0.8,0.3-1.6,0.8-2.4,1.2c0.9,0.2,1.7,0.6,2.4,1C125.6,13.4,126.3,13.9,127,14.4
			z"/>
		<path class="st2" d="M130.4,16.1c0.6-0.9,0.9-2,0.9-3.1c0-1-0.3-2.1-0.9-3.1c-0.7,1-0.9,2-0.9,2.9
			C129.3,14.3,129.9,15.5,130.4,16.1 M132.2,13.1c0,1.5-0.5,2.9-1.5,4.2l-0.3,0.5l-0.3-0.3c0,0-1.6-1.9-1.6-4.4
			c0-1.2,0.3-2.6,1.5-4.1l0.3-0.5l0.3,0.5C131.7,10,132.2,11.5,132.2,13.1z"/>
		<path class="st2" d="M133.3,16.1l-2,2.1l1-2.5c0.5-1,0.6-2.1,0.6-3.2c-0.1-1-0.3-2.1-0.9-3.1l-0.5-0.8l0.9,0.1
			c1.2,0.2,2.6,0.6,3.7,1c1.2,0.5,2.4,1.1,3.4,1.9l0.8,0.7l-1,0.2c-1.1,0.2-2.1,0.7-3.2,1.1c-1,0.6-1.9,1.2-2.7,2L133.3,16.1z
			 M133.6,14.4c0.7-0.6,1.4-1,2-1.4c0.8-0.5,1.6-0.8,2.4-1c-0.8-0.5-1.6-0.9-2.4-1.2c-0.9-0.3-1.7-0.7-2.6-0.8
			c0.3,0.9,0.6,1.8,0.6,2.6C133.9,13.2,133.7,13.9,133.6,14.4z"/>
		<path class="st2" d="M134.2,17.5c0.6,0.3,1.1,0.8,1.6,1.2s0.9,1,1.2,1.7c0.9-0.8,1.6-1.8,2.1-2.8c0.6-1,0.9-2.1,1.1-3.4
			c-1.1,0.1-2.3,0.6-3.4,1.1C136,15.9,135,16.6,134.2,17.5 M135.2,19.4c-0.6-0.6-1.2-1-1.9-1.4l-0.6-0.2l0.3-0.5
			c0.9-1.2,2.1-2.1,3.4-2.9c1.4-0.7,2.7-1.1,4.3-1.2h0.6v0.6c-0.1,1.6-0.6,3.1-1.2,4.3c-0.7,1.4-1.7,2.5-2.8,3.5l-0.5,0.3l-0.2-0.6
			C136.2,20.7,135.8,20,135.2,19.4z"/>
		<path class="st2" d="M140.1,21c0.6-0.1,1.2-0.1,1.8-0.1c0.9,0,1.8,0.2,2.6,0.6c-0.2-0.9-0.5-1.8-0.8-2.7c-0.3-0.8-0.8-1.6-1.2-2.4
			c-0.2,0.9-0.6,1.7-1,2.5C141.1,19.6,140.6,20.3,140.1,21 M141.9,21.8c-1,0-2.1,0.1-3.2,0.6l-2.5,1.1l2-1.9l0.5-0.3
			c0.8-0.8,1.5-1.8,2-2.8c0.6-1,0.9-2.1,1.1-3.3l0.2-1l0.7,0.8c0.8,1,1.5,2.3,1.9,3.4c0.5,1.2,0.8,2.5,1,3.8l0.1,0.9l-0.8-0.5
			C143.9,22.1,142.9,21.9,141.9,21.8z"/>
		<path class="st2" d="M138.5,24.4c0.9,0.6,1.9,0.9,3.1,0.9s2.1-0.3,3.1-0.9c-0.9-0.6-1.9-0.9-3.1-0.9S139.4,23.8,138.5,24.4
			 M141.4,26.3c-1.5,0-2.9-0.6-4.1-1.6l-0.5-0.3l0.5-0.3c1.2-1,2.6-1.6,4.1-1.6s2.9,0.6,4.1,1.6l0.5,0.3l-0.5,0.3
			C144.4,25.7,142.9,26.3,141.4,26.3z"/>
		<path class="st2" d="M141.4,27.9c-0.5,0-0.9,0-1.4-0.1c0.6,0.7,1,1.4,1.4,2.1c0.5,0.8,0.8,1.6,1,2.5c0.5-0.8,0.9-1.6,1.2-2.4
			c0.3-0.9,0.7-1.8,0.8-2.7c-0.3,0.1-0.7,0.2-1,0.3C142.8,27.9,142.1,27.9,141.4,27.9 M140.1,26.9c0.5,0.1,0.9,0.1,1.4,0.1
			c0.6,0,1.2-0.1,1.8-0.2c0.6-0.1,1.1-0.3,1.7-0.7l0.8-0.5l-0.1,0.9c-0.2,1.4-0.6,2.6-1,3.8s-1.1,2.4-1.9,3.4l-0.7,0.8l-0.2-1
			c-0.2-1.1-0.7-2.3-1.1-3.3c-0.6-1-1.2-1.9-2-2.8c-0.8-0.8-1.6-1.5-2.4-2.3l2.5,1.1C139.2,26.6,139.6,26.8,140.1,26.9z"/>
		<path class="st2" d="M137.1,28.3c-0.3,0.6-0.8,1.1-1.2,1.7c-0.5,0.5-1,0.9-1.6,1.2c0.8,0.9,1.7,1.7,2.7,2.3s2.1,0.9,3.4,1.1
			c-0.1-1.2-0.6-2.4-1.1-3.4C138.7,30.1,137.9,29.1,137.1,28.3 M135.2,29.4c0.6-0.6,1-1.2,1.4-1.9l0.2-0.6l0.5,0.3
			c1.2,1,2.1,2.1,2.8,3.5c0.7,1.4,1.1,2.8,1.2,4.3v0.6h-0.6c-1.5-0.1-2.9-0.6-4.3-1.2c-1.4-0.7-2.5-1.7-3.4-2.9l-0.3-0.5l0.6-0.2
			C134,30.4,134.6,29.9,135.2,29.4z"/>
		<path class="st2" d="M133.6,34.3c0.1,0.6,0.1,1.2,0.1,1.8c0,0.9-0.2,1.8-0.6,2.6c0.9-0.2,1.8-0.5,2.6-0.8c0.8-0.3,1.6-0.8,2.4-1.2
			c-0.9-0.2-1.7-0.6-2.4-1C135,35.3,134.3,34.9,133.6,34.3 M132.8,36.1c0.1-1.1-0.1-2.1-0.6-3.2l-1-2.6c0.7,0.8,1.5,1.7,2.3,2.5
			c0.8,0.8,1.7,1.5,2.7,2c1,0.6,2,0.9,3.2,1.1l1,0.2l-0.8,0.7c-1,0.8-2.1,1.5-3.4,1.9c-1.2,0.5-2.5,0.9-3.7,1l-0.9,0.1l0.5-0.8
			C132.5,38.3,132.8,37.2,132.8,36.1z"/>
		<path class="st2" d="M123.6,20.4c0.3-0.6,0.8-1.1,1.2-1.7s1-0.9,1.6-1.2c-0.8-0.9-1.7-1.7-2.7-2.3c-1-0.6-2.1-0.9-3.4-1.1
			c0.2,1.2,0.6,2.4,1.1,3.4C121.9,18.6,122.7,19.6,123.6,20.4 M125.4,19.4c-0.6,0.6-1,1.2-1.4,1.9l-0.2,0.6l-0.5-0.3
			c-1.2-1-2.1-2.1-2.8-3.5c-0.7-1.4-1.1-2.8-1.2-4.3v-0.6h0.6c1.5,0.1,2.9,0.6,4.3,1.2c1.4,0.7,2.5,1.7,3.4,2.9l0.3,0.5l-0.6,0.2
			C126.6,18.4,125.9,18.8,125.4,19.4z"/>
		<path class="st2" d="M122.2,21.3l2.1,2l-2.5-1c-1-0.5-2-0.6-3.2-0.6c-1,0-2.1,0.3-3.1,0.9l-0.8,0.5l0.1-0.9c0.2-1.4,0.6-2.6,1-3.8
			c0.5-1.2,1.1-2.4,1.9-3.4l0.7-0.8l0.2,1c0.2,1.1,0.7,2.3,1.1,3.3c0.6,1,1.2,1.9,2,2.8L122.2,21.3z M120.5,21
			c-0.6-0.7-1-1.4-1.4-2.1c-0.5-0.8-0.8-1.6-1-2.5c-0.5,0.8-0.9,1.6-1.2,2.4c-0.3,0.9-0.7,1.8-0.8,2.7c0.8-0.3,1.7-0.6,2.6-0.6
			C119.3,20.9,120,20.9,120.5,21z"/>
		<path class="st2" d="M122.1,24.4c-0.9-0.6-1.9-0.9-3.1-0.9s-2.1,0.3-3.1,0.9c0.9,0.6,1.9,0.9,3.1,0.9
			C120.2,25.3,121.3,24.9,122.1,24.4 M119.2,22.5c1.5,0,2.9,0.6,4.1,1.6l0.5,0.3l-0.5,0.3c-1.2,1-2.6,1.6-4.1,1.6s-2.9-0.6-4.1-1.6
			l-0.5-0.3l0.5-0.3C116.2,23,117.7,22.5,119.2,22.5z"/>
		<path class="st2" d="M120.5,27.8c-0.6,0.1-1.2,0.1-1.8,0.1c-0.9,0-1.8-0.2-2.6-0.6c0.2,0.9,0.5,1.8,0.8,2.7
			c0.3,0.8,0.8,1.6,1.2,2.4c0.2-0.9,0.6-1.7,1-2.5C119.5,29.1,120,28.5,120.5,27.8 M118.7,27c1,0,2.1-0.1,3.2-0.6l2.5-1.1
			c-0.8,0.8-1.6,1.5-2.4,2.3c-0.8,0.8-1.5,1.7-2,2.8c-0.6,1-0.9,2.1-1.1,3.3l-0.2,1l-0.7-0.8c-0.8-1-1.5-2.3-1.9-3.4
			c-0.5-1.2-0.8-2.5-1-3.8l-0.1-0.9l0.8,0.5C116.7,26.6,117.7,26.9,118.7,27z"/>
		<path class="st2" d="M126.4,31.3c-0.6-0.3-1.1-0.8-1.6-1.2s-0.9-1-1.2-1.7c-0.9,0.8-1.6,1.8-2.1,2.8c-0.6,1-0.9,2.1-1.1,3.4
			c1.1-0.2,2.3-0.6,3.4-1.1C124.7,32.9,125.6,32.2,126.4,31.3 M125.4,29.4c0.6,0.6,1.2,1,1.9,1.4l0.6,0.2l-0.3,0.5
			c-0.9,1.2-2.1,2.1-3.4,2.9c-1.2,0.8-2.7,1.1-4.3,1.2h-0.6V35c0.1-1.6,0.6-3.1,1.2-4.3c0.7-1.2,1.7-2.5,2.8-3.5l0.5-0.3l0.2,0.6
			C124.5,28.1,124.9,28.8,125.4,29.4z"/>
		<path class="st2" d="M127.1,34.2c-0.7,0.6-1.4,1-2,1.5c-0.8,0.5-1.7,0.9-2.7,1.1c0.8,0.5,1.5,0.9,2.4,1.2c0.9,0.3,1.8,0.7,2.7,0.8
			c-0.2-0.8-0.3-1.7-0.5-2.7C127.1,35.5,127.1,34.8,127.1,34.2 M124.7,34.8c1-0.6,2-1.4,2.8-2.4l1.8-2l-1,2.5
			c-0.2,0.6-0.3,1.9-0.2,3.2c0.1,1.2,0.2,2.5,0.6,3.2l0.5,0.8l-0.9-0.1c-1.2-0.2-2.6-0.6-3.7-1c-1.1-0.5-2.4-1.1-3.4-1.9l-0.8-0.7
			l1-0.2C122.4,35.8,123.6,35.3,124.7,34.8z"/>
		<path class="st2" d="M130.4,38.9c0.6-0.9,0.9-2,0.9-3.1c0-1.1-0.3-2.1-0.9-3.1c-0.6,0.9-0.9,2-0.9,3.1
			C129.3,36.8,129.7,37.8,130.4,38.9 M132.2,35.7c0,1.5-0.5,2.9-1.5,4.2l-0.3,0.5l-0.3-0.5c-1-1.2-1.5-2.7-1.5-4.2
			c0-1.5,0.5-2.9,1.5-4.2l0.3-0.5l0.3,0.5C131.7,32.7,132.2,34.2,132.2,35.7z"/>
	</g>
</g>
</svg>
