<?xml version="1.0" encoding="utf-8"?>
<!-- Generator: Adobe Illustrator 18.0.0, SVG Export Plug-In . SVG Version: 6.00 Build 0)  -->
<!DOCTYPE svg PUBLIC "-//W3C//DTD SVG 1.1//EN" "http://www.w3.org/Graphics/SVG/1.1/DTD/svg11.dtd">
<svg version="1.1" id="Layer_1" xmlns="http://www.w3.org/2000/svg" xmlns:xlink="http://www.w3.org/1999/xlink" x="0px" y="0px"
	 viewBox="0 30.7 400 138.7" enable-background="new 0 30.7 400 138.7" xml:space="preserve">
<g>
	<path fill="#141414" d="M383.9,113l13.9-21.6h-12.4c-1.9,0.4-3.2,1.3-4.3,3.2l-4.7,7.1L383.9,113z"/>
	<path fill="#141414" d="M239.3,64.1l3.4-9c0.9-2.6,2.3-6.9,2.3-6.9l0,0c0,0,1.3,4.1,2.3,6.9l3.4,9H239.3L239.3,64.1z M256.7,81.2
		h12l-18.6-46.5h-10.5l-18.6,46.5h12l2.6-7.3h18.4L256.7,81.2L256.7,81.2z M215.7,34.6L207.2,47c-1.3,2.1-2.3,3.4-2.4,3.4l0,0
		c0,0-1.1-1.3-2.4-3.4l-8.4-12.4h-12.6l17.8,25.9v20.6h11.1V60.5L228,34.6H215.7L215.7,34.6z M159,64.1l3.4-9
		c0.9-2.6,2.3-6.9,2.3-6.9l0,0c0,0,1.3,4.1,2.3,6.9l3.4,9H159L159,64.1z M176.5,81.2h12l-18.6-46.5h-10.5l-18.6,46.5h12l2.6-7.3
		h18.4L176.5,81.2z M137.8,46.5c-2.3-7.3-9.2-12.8-18.2-12.8c-10.1,0-17.4,6.6-17.4,13.9c0,8.3,6.4,11.3,12,13.3
		c6.8,2.6,12,3.4,12,7.1c0,2.3-1.9,4.1-5.8,4.1c-4.9,0-8.3-3.6-9.4-7.1l-10.7,2.8c3,8.6,9.9,14.1,19.7,14.1c10.9,0,18.2-6,18.2-14.6
		c0-8.1-7.3-12-14.3-14.4c-5.6-2.1-10.3-3.2-10.3-6.2c0-1.9,1.9-3.6,5.3-3.6s6.9,1.9,8.1,6L137.8,46.5L137.8,46.5z"/>
	<rect y="33.7" fill="#1C1C1C" width="85.5" height="104.1"/>
	<rect x="3.2" y="36.9" fill="none" stroke="#D7B56D" stroke-width="0.74" stroke-miterlimit="22.93" width="78.9" height="97.9"/>
	<polygon fill="#D7B56D" points="43.1,82.1 41.6,80.8 43.5,80 	"/>
	<path fill="#D7B56D" d="M33.4,68.6c0.9,3.4,3.4,7.7,5.3,9.8c6.9-3,14.3-4.3,23.1-1.7c-2.1,17.4-13.1,30-22.1,36l3.4,2.3
		c12.9-8.3,25.3-22.3,29.1-44.1C54.8,63,39.4,66.5,33.4,68.6"/>
	<path fill="#D7B56D" d="M36.8,95.2c2.4-2.6,4.9-6.8,5.8-9.4c-6-4.5-10.9-10.3-12.9-19.1c16.1-6.9,32.4-3.6,42.2,1.1l0.4-4.1
		c-13.5-7.1-32.1-10.7-52.7-3C21.2,79.5,32.1,90.9,36.8,95.2"/>
	<path fill="#D7B56D" d="M57.9,78.9c-3.4-0.9-8.3-0.9-11.1-0.4c-0.9,7.5-3.6,14.6-10.1,20.6C22.7,88.7,17.3,72.9,16.7,62l-3.6,1.9
		c0.6,15.2,6.8,33.2,23.6,47.1C52.3,100.3,56.8,85.1,57.9,78.9"/>
	<path fill="#141414" d="M393.8,165.9h1.1v-13.7h5.1v-0.9h-11.3v0.9h5.1V165.9z M379,166.3c2.8,0,4.9-1.7,4.9-3.9l0,0
		c0-2.1-1.5-3.4-4.9-4.1c-3.6-0.8-4.3-1.7-4.3-3.2l0,0c0-1.5,1.5-2.8,3.6-2.8c1.7,0,3,0.6,4.3,1.7l0.8-0.9c-1.5-1.1-2.8-1.9-5.1-1.9
		c-2.6,0-4.7,1.7-4.7,3.8l0,0c0,2.3,1.5,3.4,4.9,4.1c3.4,0.8,4.1,1.5,4.1,3.2l0,0c0,1.7-1.5,3-3.8,3c-2.3,0-3.6-0.8-5.3-2.3
		l-0.8,0.8C374.9,165.4,376.6,166.1,379,166.3L379,166.3z M357.2,165.9h10.5V165h-9.4v-5.8h8.4v-0.9h-8.4v-5.8h9.4v-0.9h-10.5V165.9
		L357.2,165.9z M335.7,166.1h0.9l4.3-12.8l4.3,12.8h0.9l5.3-14.8h-1.1l-4.5,12.9l-4.3-13.1h-0.8l-4.3,13.1l-4.5-13.1h-1.1
		L335.7,166.1L335.7,166.1z M303,160.9l3.9-8.4l3.9,8.4H303z M299.7,165.9h1.1l1.9-4.1h8.6l1.9,4.1h1.1l-6.8-14.8h-1.1L299.7,165.9
		L299.7,165.9z M283.7,165v-12.6h3.8c4.1,0,6.8,2.8,6.8,6.4l0,0c0,3.6-2.6,6.2-6.8,6.2H283.7z M282.6,165.9h4.9
		c4.5,0,7.7-3.2,7.7-7.3l0,0c0-4.1-3.2-7.3-7.7-7.3h-4.9V165.9L282.6,165.9z M274.4,165.9h1.1v-14.6h-1.1V165.9z M260.5,165.4
		c-3.6,0-6.2-3-6.2-6.6l0,0c0-3.6,2.6-6.6,6.2-6.6s6.2,3,6.2,6.6l0,0C266.7,162.4,264,165.2,260.5,165.4z M260.5,166.3
		c4.5,0,7.3-3.6,7.3-7.5l0,0c0-3.9-3-7.5-7.3-7.5c-4.3,0-7.3,3.6-7.3,7.5l0,0C253,162.7,256,166.3,260.5,166.3z M234.4,165.9h1.1
		V153l10.3,12.9h0.8v-14.6h-1.1V164l-10.1-12.8h-0.9V165.9L234.4,165.9z M206.3,159v-6.6h5.1c2.6,0,4.1,1.3,4.1,3.2l0,0
		c0,2.1-1.9,3.4-4.3,3.4C211.3,159,206.3,159,206.3,159z M205.3,165.9h1.1v-6h4.9l4.7,6h1.3l-4.9-6.2c2.4-0.4,4.3-1.7,4.3-4.1l0,0
		c0-1.1-0.4-2.1-1.1-2.8c-0.9-0.9-2.3-1.5-4.1-1.5h-6.2V165.9L205.3,165.9z M188.5,165.9H199V165h-9.4v-5.8h8.4v-0.9h-8.4v-5.8h9.4
		v-0.9h-10.5V165.9L188.5,165.9z M176.3,165.9h1.1v-13.7h5.1v-0.9h-11.3v0.9h5.1C176.3,152.4,176.3,165.9,176.3,165.9z M157,160.9
		l3.9-8.4l3.9,8.4H157z M153.6,165.9h1.1l1.9-4.1h8.6l1.9,4.1h1.1l-6.8-14.8h-1.1L153.6,165.9L153.6,165.9z M138,165.9h10.5V165
		h-9.4v-5.8h8.4v-0.9h-8.4v-5.8h9.4v-0.9H138V165.9L138,165.9z M121.3,159v-6.6h5.1c2.6,0,4.1,1.3,4.1,3.2l0,0
		c0,2.1-1.9,3.4-4.3,3.4H121.3z M120.2,165.9h1.1v-6h4.9l4.7,6h1.3l-4.9-6.2c2.4-0.4,4.3-1.7,4.3-4.1l0,0c0-1.1-0.4-2.1-1.1-2.8
		c-0.9-0.9-2.3-1.5-4.1-1.5h-6.2V165.9L120.2,165.9z M107.8,166.3c2.4,0,4.5-1.1,5.8-2.3v-5.6h-6v0.9h4.9v4.1
		c-1.1,0.9-2.8,1.7-4.7,1.7c-3.9,0-6.2-2.8-6.2-6.6l0,0c0-3.6,2.4-6.6,6-6.6c2.3,0,3.6,0.8,4.7,1.7l0.8-0.8c-1.5-1.3-3-1.9-5.3-1.9
		c-4.3,0-7.3,3.6-7.3,7.5l0,0C100.3,162.9,103.1,166.3,107.8,166.3L107.8,166.3z"/>
	<g>
		<path fill="#141414" stroke="#FFFFFF" stroke-miterlimit="10" d="M398.1,138.2h-14.6l-8.1-12.2l-7.7,12.2h-14.6l15.2-23.1
			l-15.8-23.3h14.8l29.8,44.6C397.6,137,397.9,137.6,398.1,138.2z"/>
		<path fill="#141414" d="M323.1,90.3v18h-17.4v-18h-11.3v46.5h11.3v-18h17.4v18h11.3V90.3H323.1z M247.9,90.3v10.5h13.9v36H273v-36
			h14.3V90.3H247.9L247.9,90.3z M230.1,90.3v25.5c0,8.1-3.2,11.4-9.4,11.4s-9.4-3.4-9.4-11.4V90.3h-11.3v25.9
			c0,14.1,8.3,21.6,20.6,21.6c12.4,0,20.6-7.7,20.6-21.6V90.3H230.1z M155.3,113.6c0-7.9,5.1-13.1,12.6-13.1
			c7.5,0,12.6,5.3,12.6,13.1s-5.1,13.1-12.6,13.1C160.3,126.7,155.3,121.5,155.3,113.6z M143.6,113.6c0,14.1,10.7,24.2,24.2,24.2
			s24.2-10.1,24.2-24.2s-10.9-24.2-24.2-24.2S143.6,99.5,143.6,113.6z M137.8,102.2c-2.3-7.3-9.2-12.8-18.2-12.8
			c-10.1,0-17.4,6.6-17.4,13.9c0,8.3,6.4,11.3,12,13.3c6.8,2.4,12,3.4,12,7.1c0,2.3-1.9,4.1-5.8,4.1c-4.9,0-8.3-3.6-9.4-7.1l-10.7,3
			c3,8.6,9.9,14.1,19.7,14.1c10.9,0,18.2-6,18.2-14.6c0-8.1-7.3-11.8-14.3-14.4c-5.6-2.1-10.3-3.2-10.3-6.2c0-1.9,1.9-3.6,5.3-3.6
			s6.9,1.9,8.1,6L137.8,102.2L137.8,102.2z"/>
	</g>
</g>
</svg>
