<?xml version="1.0" encoding="utf-8"?>
<!-- Generator: Adobe Illustrator 24.1.2, SVG Export Plug-In . SVG Version: 6.00 Build 0)  -->
<svg version="1.1" id="Layer_1" xmlns="http://www.w3.org/2000/svg" xmlns:xlink="http://www.w3.org/1999/xlink" x="0px" y="0px"
	 viewBox="0 0 487.6 208.2" style="enable-background:new 0 0 487.6 208.2;" xml:space="preserve">
<style type="text/css">
	.st0{fill:#22356C;}
	.st1{fill:#F6883E;}
	.st2{fill:#F9B641;}
	.st3{fill:#D20000;}
	.st4{fill:#231F20;}
</style>
<g>
	<path class="st0" d="M87.4,83.3c-7.4-3-34.8-7.1-34.8-18.4c0-8.4,10.2-10.8,16.4-10.8c5.6,0,12.3,1.7,15.8,5
		c2.2,2.2,3.2,3.7,3.9,5.6c0.9,2.4,1.5,5,5,5H112c4.3,0,5.4-0.7,5.4-5.2c0-24.5-25.8-35.3-49.5-35.3c-23.2,0.9-45.2,12.8-45.2,37
		c0,23.6,17.3,31,36.1,37c15.8,5,32.3,5.2,32.3,15.6c0,10.4-8.2,12.6-18.2,12.6c-6.9,0-14.5-1.7-18.2-6.1c-2.4-2.8-3.3-5.2-3.5-7.6
		c-0.4-4.6-2.4-5.2-6.7-5.2h-18c-4.3,0-5.4,0.9-5.4,5.2c0,26,26.8,39.4,50,39.4c28.6,0,49.5-12.6,49.5-39
		C120.5,92.7,100.8,87.3,87.4,83.3L87.4,83.3z M347.5,31.9h-20.1c-4.3,0-6.1,0.6-8.6,5.6l-21,40l-21.8-40c-2.6-5-4.5-5.6-8.7-5.6
		H246c-3.5,0-3.9,3.2-3,5.2l39.8,71.2v40.5c0,4.3,1.9,5.4,5.4,5.4h18.6c3.3,0,5.4-1.1,5.4-5.4v-40.5l38.3-71.2
		C351.4,35.1,351.1,31.9,347.5,31.9L347.5,31.9z M462.2,149.1L421.1,37.7c-1.7-3.9-3.5-5.8-7.6-5.8h-17.8c-4.1,0-6.1,1.9-7.6,5.8
		l-41.3,111.4c-0.9,2.2-0.9,5.2,3.2,5.2h19.5c4.1,0,5.6-1.1,7.1-5.6l5.2-14.7h45.5l5.2,14.7c1.5,4.5,3,5.6,7.1,5.6h19.5
		C463.2,154.3,463.2,151.3,462.2,149.1L462.2,149.1z M390.6,108l13.9-41.1l13.9,41.1H390.6L390.6,108z"/>
	<path class="st1" d="M230,100.8c-6.5-0.8-14.6-1.4-23.7-1.1l-14.8-26.2V31.9L203,52.7L230,100.8L230,100.8z"/>
	<path class="st1" d="M259.5,154.3h-23.1L211,108.7c7-1.7,14.1-2.8,21.3-3.4c0,0,0,0,0,0L259.5,154.3L259.5,154.3z"/>
	<path class="st2" d="M173.3,106.5l18.1-31.9v-41l-11.6,20.5l-51.7,91.6l-4.8,8.3c0,0,0.1-0.1,0.2-0.2c2-1.7,16.3-13.1,36.9-24.3
		c14.4-7.9,31.9-15.7,50.6-20.1c7-1.6,14.1-2.8,21.3-3.3c0,0,0,0,0,0c4.6-0.3,9.3-0.4,14-0.1C246.3,105.9,211.9,96.4,173.3,106.5
		L173.3,106.5z"/>
	<path class="st3" d="M217.4,102.1c-6.1-0.3-11.9-0.3-17.3,0.1c-8.4,0.1-16,1.4-22.9,3.6c-22.7,5.6-35.2,15.5-35.2,15.5l-13.2,23.1
		c-3.7,5.7-5.5,9.7-5.5,9.7c71.1-55.1,122.9-48.1,122.9-48.1C237.3,103.3,226.3,102.4,217.4,102.1L217.4,102.1z"/>
	<polygon points="21.1,181.6 180.6,181.6 180.6,178.9 21.1,178.9 21.1,181.6 	"/>
	<path class="st4" d="M202.6,185.7l-2.7-3.8c1.5-0.5,2.4-1.8,2.4-3.4c0-2.1-1.7-3.6-4.1-3.6h-4.9v10.8h2.3v-3.5h1.7l2.5,3.5H202.6
		L202.6,185.7z M195.8,177h2.3c1.1,0,1.9,0.6,1.9,1.5c0,0.9-0.8,1.5-1.9,1.5h-2.3V177L195.8,177z"/>
	<polygon class="st4" points="215.7,177 215.7,174.9 207.4,174.9 207.4,185.7 215.7,185.7 215.7,183.6 209.7,183.6 209.7,181.2 
		215.1,181.2 215.1,179.1 209.7,179.1 209.7,177 215.7,177 	"/>
	<polygon class="st4" points="222.9,183.6 222.9,174.9 220.6,174.9 220.6,185.7 228.3,185.7 228.3,183.6 222.9,183.6 	"/>
	<path class="st4" d="M240.9,185.7h2.6l-4.4-10.8h-2.6l-4.4,10.8h2.6l0.7-1.7h4.8L240.9,185.7L240.9,185.7z M236.2,182l1.6-3.9
		l1.6,3.9H236.2L236.2,182z"/>
	<polygon class="st4" points="249.8,185.7 252.1,185.7 252.1,177 255.5,177 255.5,174.9 246.4,174.9 246.4,177 249.8,177 
		249.8,185.7 	"/>
	<polygon class="st4" points="260.3,185.7 262.6,185.7 262.6,174.9 260.3,174.9 260.3,185.7 	"/>
	<path class="st4" d="M273.3,185.8c3.1,0,5.7-2.6,5.7-5.6c0-3-2.6-5.6-5.7-5.6c-3.1,0-5.7,2.5-5.7,5.6
		C267.6,183.3,270.2,185.8,273.3,185.8L273.3,185.8z M273.3,183.7c-1.8,0-3.3-1.6-3.3-3.5c0-1.9,1.5-3.5,3.3-3.5
		c1.8,0,3.4,1.6,3.4,3.5C276.7,182.1,275.2,183.7,273.3,183.7L273.3,183.7z"/>
	<polygon class="st4" points="284.1,185.7 286.4,185.7 286.4,178.7 291.6,185.7 293.9,185.7 293.9,174.9 291.6,174.9 291.6,181.8 
		286.4,174.9 284.1,174.9 284.1,185.7 	"/>
	<path class="st4" d="M303.5,185.8c2.6,0,4.2-1.4,4.2-3.4c0-2-1.5-2.7-3.9-3.2c-1.7-0.4-2.3-0.6-2.3-1.4c0-0.6,0.6-1.2,1.6-1.2
		c1,0,2.1,0.4,3.1,1.2l1.2-1.7c-1.1-0.9-2.5-1.5-4.2-1.5c-2.4,0-4,1.4-4,3.4c0,2.1,1.6,2.7,3.9,3.3c1.6,0.4,2.3,0.6,2.3,1.4
		c0,0.7-0.6,1.2-1.8,1.2c-1.4,0-2.5-0.5-3.5-1.4l-1.3,1.6C300,185.2,301.6,185.8,303.5,185.8L303.5,185.8z"/>
	<polygon class="st4" points="319.8,174.9 319.8,179.1 314.9,179.1 314.9,174.9 312.6,174.9 312.6,185.7 314.9,185.7 314.9,181.2 
		319.8,181.2 319.8,185.7 322.1,185.7 322.1,174.9 319.8,174.9 	"/>
	<polygon class="st4" points="327.5,185.7 329.9,185.7 329.9,174.9 327.5,174.9 327.5,185.7 	"/>
	<path class="st4" d="M335.3,185.7h2.3v-3.5h2.5c2.3,0,4.1-1.5,4.1-3.6s-1.7-3.6-4.1-3.6h-4.9V185.7L335.3,185.7z M337.6,180v-3h2.3
		c1.1,0,1.9,0.6,1.9,1.5c0,0.9-0.8,1.5-1.9,1.5H337.6L337.6,180z"/>
	<path class="st4" d="M352.9,185.8c2.6,0,4.2-1.4,4.2-3.4c0-2-1.5-2.7-3.9-3.2c-1.7-0.4-2.3-0.6-2.3-1.4c0-0.6,0.6-1.2,1.6-1.2
		c1,0,2.1,0.4,3.1,1.2l1.2-1.7c-1.1-0.9-2.5-1.5-4.2-1.5c-2.4,0-4,1.4-4,3.4c0,2.1,1.6,2.7,3.9,3.3c1.6,0.4,2.3,0.6,2.3,1.4
		c0,0.7-0.6,1.2-1.8,1.2c-1.4,0-2.5-0.5-3.5-1.4l-1.3,1.6C349.4,185.2,351.1,185.8,352.9,185.8L352.9,185.8z"/>
	<polygon class="st4" points="377.2,177 377.2,174.9 368.9,174.9 368.9,185.7 371.2,185.7 371.2,181.4 376.6,181.4 376.6,179.3 
		371.2,179.3 371.2,177 377.2,177 	"/>
	<path class="st4" d="M387.4,185.8c3.1,0,5.7-2.6,5.7-5.6c0-3-2.6-5.6-5.7-5.6c-3.1,0-5.7,2.5-5.7,5.6
		C381.7,183.3,384.3,185.8,387.4,185.8L387.4,185.8z M387.4,183.7c-1.8,0-3.3-1.6-3.3-3.5c0-1.9,1.5-3.5,3.3-3.5
		c1.8,0,3.4,1.6,3.4,3.5C390.7,182.1,389.2,183.7,387.4,183.7L387.4,183.7z"/>
	<path class="st4" d="M407.2,185.7l-2.7-3.8c1.5-0.5,2.4-1.8,2.4-3.4c0-2.1-1.7-3.6-4.1-3.6h-4.9v10.8h2.3v-3.5h1.7l2.5,3.5H407.2
		L407.2,185.7z M400.4,177h2.3c1.1,0,1.9,0.6,1.9,1.5c0,0.9-0.8,1.5-1.9,1.5h-2.3V177L400.4,177z"/>
	<polygon class="st4" points="420.3,177 420.3,174.9 412,174.9 412,185.7 420.3,185.7 420.3,183.6 414.3,183.6 414.3,181.2 
		419.7,181.2 419.7,179.1 414.3,179.1 414.3,177 420.3,177 	"/>
	<polygon class="st4" points="433.2,174.9 430.1,182.5 427,174.9 424.4,174.9 428.8,185.7 431.4,185.7 435.8,174.9 433.2,174.9 	"/>
	<polygon class="st4" points="448.6,177 448.6,174.9 440.3,174.9 440.3,185.7 448.6,185.7 448.6,183.6 442.6,183.6 442.6,181.2 
		448,181.2 448,179.1 442.6,179.1 442.6,177 448.6,177 	"/>
	<path class="st4" d="M462.7,185.7l-2.7-3.8c1.5-0.5,2.4-1.8,2.4-3.4c0-2.1-1.7-3.6-4.1-3.6h-4.9v10.8h2.3v-3.5h1.7l2.5,3.5H462.7
		L462.7,185.7z M455.9,177h2.3c1.1,0,1.9,0.6,1.9,1.5c0,0.9-0.8,1.5-1.9,1.5h-2.3V177L455.9,177z"/>
	<path class="st4" d="M169.5-22.1L164-37c-0.2-0.5-0.5-0.8-1-0.8h-2.4c-0.5,0-0.8,0.2-1,0.8l-5.5,14.9c-0.1,0.3-0.1,0.7,0.4,0.7h2.6
		c0.5,0,0.7-0.1,0.9-0.7l0.7-2h6.1l0.7,2c0.2,0.6,0.4,0.7,0.9,0.7h2.6C169.6-21.5,169.6-21.9,169.5-22.1L169.5-22.1z M159.9-27.6
		l1.9-5.5l1.9,5.5H159.9L159.9-27.6z"/>
	<path class="st4" d="M185.1-22.3l-3.5-5.1c1.5-0.5,3.5-2.3,3.5-5c0-1.6-0.5-3-1.4-3.9c-1-1-2.2-1.6-4.9-1.6h-6.3
		c-0.6,0-0.7,0.3-0.7,0.7v14.9c0,0.6,0.2,0.7,0.7,0.7h2.5c0.4,0,0.7-0.1,0.7-0.7v-12.1h3.3c1.3,0,2.3,0.8,2.3,2.1c0,1.2-1.1,2-2.4,2
		h-0.5c-0.6,0-0.7,0.3-0.7,0.7v2c0,0.7,0,1,0.3,1.3l2.7,4c0.3,0.5,0.6,0.7,1.2,0.7h2.9C185.2-21.5,185.3-21.9,185.1-22.3L185.1-22.3
		z"/>
	<path class="st4" d="M200.8-26.3c0-0.6-0.2-0.8-0.7-0.8h-2.4c-0.5,0-0.6,0.4-0.7,0.9c-0.2,1.2-1.3,1.7-2.6,1.7
		c-1.6,0-2.8-0.9-2.8-2.5v-5.2c0-1.6,1.1-2.5,2.8-2.5c1.3,0,2,0.4,2.6,1.2c0.2,0.3,0.2,0.8,0.7,0.8h2.4c0.6,0,0.8-0.1,0.8-0.7
		c-0.3-3.2-3.4-4.7-6.5-4.7c-3,0-6.7,1.7-6.7,5.6v5.9c0,3.9,3.7,5.6,6.7,5.6C197.5-21.1,200.8-23.1,200.8-26.3L200.8-26.3
		L200.8-26.3z"/>
	<path class="st4" d="M216.6-37.8h-2.5c-0.4,0-0.7,0.1-0.7,0.7v5.6h-5.5v-5.6c0-0.6-0.2-0.7-0.7-0.7h-2.5c-0.4,0-0.7,0.1-0.7,0.7
		v14.9c0,0.6,0.3,0.7,0.7,0.7h2.5c0.5,0,0.7-0.1,0.7-0.7v-5.6h5.5v5.6c0,0.6,0.3,0.7,0.7,0.7h2.5c0.4,0,0.7-0.1,0.7-0.7v-14.9
		C217.3-37.7,217-37.8,216.6-37.8L216.6-37.8z"/>
	<path class="st4" d="M228.1-24.9h-1.6v-9.5h1.5c0.6,0,0.7-0.3,0.7-0.7v-2c0-0.4-0.1-0.7-0.7-0.7h-6.9c-0.6,0-0.7,0.3-0.7,0.7v2
		c0,0.4,0.1,0.7,0.7,0.7h1.5v9.5h-1.6c-0.6,0-0.7,0.3-0.7,0.7v2c0,0.4,0.1,0.7,0.7,0.7h7c0.6,0,0.7-0.3,0.7-0.7v-2
		C228.8-24.6,228.7-24.9,228.1-24.9L228.1-24.9z"/>
	<path class="st4" d="M245.1-37.8h-2.6c-0.7,0-0.8,0.2-1,0.8L238-26.7L234.6-37c-0.2-0.6-0.4-0.8-1-0.8h-2.8c-0.5,0-0.6,0.4-0.4,0.7
		l5.3,14.9c0.3,0.6,0.5,0.7,1,0.7h2.4c0.5,0,0.7-0.1,1-0.7l5.3-14.9C245.6-37.4,245.5-37.8,245.1-37.8L245.1-37.8z"/>
	<path class="st4" d="M259.7-24.9h-7.9v-3.3h6.7c0.6,0,0.7-0.3,0.7-0.7v-1.9c0-0.4-0.1-0.7-0.7-0.7h-6.7v-2.7h7.5
		c0.6,0,0.7-0.3,0.7-0.7v-2.1c0-0.4-0.1-0.7-0.7-0.7h-10.7c-0.6,0-0.7,0.3-0.7,0.7v14.9c0,0.4,0.1,0.7,0.7,0.7h11.1
		c0.6,0,0.7-0.3,0.7-0.7v-2C260.4-24.7,260.2-24.9,259.7-24.9L259.7-24.9z"/>
	<path class="st4" d="M281.5-37.8h-10.7c-0.6,0-0.7,0.3-0.7,0.7v14.9c0,0.4,0.1,0.7,0.7,0.7h2.5c0.6,0,0.7-0.1,0.7-0.7V-28h6.5
		c0.6,0,0.7-0.3,0.7-0.7v-2c0-0.4-0.1-0.7-0.7-0.7H274v-2.9h7.5c0.6,0,0.7-0.3,0.7-0.7v-2C282.3-37.5,282.1-37.8,281.5-37.8
		L281.5-37.8z"/>
	<path class="st4" d="M297.9-32.6c0-3.9-3.7-5.6-6.7-5.6c-3,0-6.6,1.7-6.6,5.6v5.9c0,3.9,3.7,5.6,6.6,5.6c3,0,6.7-1.7,6.7-5.6V-32.6
		L297.9-32.6z M294-27c0,1.6-1.1,2.5-2.8,2.5c-1.6,0-2.8-0.9-2.8-2.5v-5.2c0-1.6,1.1-2.5,2.8-2.5c1.6,0,2.8,0.9,2.8,2.5V-27L294-27z
		"/>
	<path class="st4" d="M313.7-37.8h-2.4c-0.4,0-0.7,0.1-0.7,0.7v8.6l-5.3-8.5c-0.3-0.5-0.5-0.8-1.1-0.8h-2.3c-0.6,0-0.7,0.3-0.7,0.7
		v14.9c0,0.6,0.3,0.7,0.7,0.7h2.5c0.4,0,0.7-0.1,0.7-0.7v-8.6l5.3,8.5c0.3,0.5,0.5,0.8,1.1,0.8h2.3c0.6,0,0.7-0.3,0.7-0.7v-14.9
		C314.4-37.7,314.1-37.8,313.7-37.8L313.7-37.8z"/>
	<path class="st4" d="M329.1-37.8h-11.5c-0.6,0-0.7,0.3-0.7,0.7v2.1c0,0.4,0.1,0.7,0.7,0.7h3.8v12.1c0,0.6,0.3,0.7,0.7,0.7h2.5
		c0.4,0,0.7-0.1,0.7-0.7v-12.1h3.8c0.6,0,0.7-0.3,0.7-0.7v-2.1C329.9-37.5,329.7-37.8,329.1-37.8L329.1-37.8z"/>
</g>
</svg>
