<?xml version="1.0" encoding="utf-8"?>
<!-- Generator: Adobe Illustrator 18.0.0, SVG Export Plug-In . SVG Version: 6.00 Build 0)  -->
<!DOCTYPE svg PUBLIC "-//W3C//DTD SVG 1.1//EN" "http://www.w3.org/Graphics/SVG/1.1/DTD/svg11.dtd">
<svg version="1.1" id="Layer_1" xmlns="http://www.w3.org/2000/svg" xmlns:xlink="http://www.w3.org/1999/xlink" x="0px" y="0px"
	 viewBox="65.7 4.5 268.7 192.2" style="enable-background:new 65.7 4.5 268.7 192.2;" xml:space="preserve">
<style type="text/css">
	.st0{display:none;}
	.st1{display:inline;fill:#B62726;}
	.st2{display:inline;fill:#86171A;}
	.st3{fill:#F5873D;}
	.st4{fill:#F8B641;}
	.st5{fill:#C5303B;}
</style>
<g id="A" class="st0">
	<path class="st1" d="M278.9,112.7c-13.2-1.3-29.7-2.2-48.2-1.8l-30.1-42.4V1.5l23.4,33.6L278.9,112.7z"/>
	<path class="st1" d="M283.6,120c-14.4-2.1-31.8-3.9-49.9-4.2L292,199h47L283.6,120z"/>
	<path class="st2" d="M163.9,120.9l36.8-52.3V1.5l-23.5,33.5l-105,150l-9.8,13.5c0.1-0.1,0.2-0.1,0.5-0.4c4.1-2.7,33-21.4,74.9-39.8
		c47.2-20.8,111-41.5,174.3-38.6C312,119.9,242.2,104.3,163.9,120.9"/>
</g>
<g>
	<path class="st3" d="M201.3,6.2l75.9,105.1c-12.8-1.2-28.8-2.1-46.7-1.7l-29.2-39.2L201.3,6.2"/>
	<path class="st3" d="M281.4,119.4l51.3,75.5l-42.8,0.1L240,124.8c6-1.2,16.3-2.8,24.8-3.8C274.7,119.7,281.4,119.4,281.4,119.4"/>
</g>
<path class="st4" d="M105,141.8l73.5-103.5l22.8-32.1v64.1l-35.8,50.3"/>
<path class="st5" d="M252.5,113.3c-12-0.5-23.3-0.4-34,0.2c-18.7,1.1-29,2.2-45.7,5.4c-45.5,9.9-67.8,23-67.8,23l-26.9,37.5
	c-7.3,9-10.9,15.2-10.9,15.2c140-86.3,242.2-75.2,242.1-75.2C291.7,115.3,270,113.7,252.5,113.3z"/>
</svg>
