<?xml version="1.0" encoding="utf-8"?>
<!-- Generator: Adobe Illustrator 24.1.2, SVG Export Plug-In . SVG Version: 6.00 Build 0)  -->
<svg version="1.1" id="Layer_1" xmlns="http://www.w3.org/2000/svg" xmlns:xlink="http://www.w3.org/1999/xlink" x="0px" y="0px"
	 viewBox="0 0 167.9 138.7" style="enable-background:new 0 0 167.9 138.7;" xml:space="preserve">
<style type="text/css">
	.st0{fill:#A80707;}
	.st1{font-family:'Montserrat-Bold';}
	.st2{font-size:14.0005px;}
	.st3{font-size:14px;}
	.st4{font-size:14.0004px;}
	.st5{font-size:14.0006px;}
	.st6{font-size:22px;}
</style>
<g>
	<g>
		<path class="st0" d="M114.3,106.8L114.3,106.8"/>
		<polygon class="st0" points="80.1,37.8 78.2,34.1 77.6,38.2 73.5,39 77.2,40.8 76.6,44.9 79.5,41.9 83.2,43.7 81.3,40.1 
			84.2,37.1 		"/>
		<polygon class="st0" points="92.8,38.6 91.5,36.1 91.1,38.9 88.4,39.3 90.9,40.6 90.5,43.3 92.4,41.3 94.9,42.5 93.6,40.1 
			95.5,38.1 		"/>
		<polygon class="st0" points="67.6,43 66.3,40.6 65.9,43.3 63.2,43.8 65.7,45 65.3,47.7 67.2,45.7 69.7,47 68.4,44.5 70.4,42.5 		
			"/>
		<polygon class="st0" points="88.3,99.3 90.3,102.9 90.9,98.8 94.9,98.1 91.2,96.3 91.8,92.2 88.9,95.2 85.2,93.4 87.1,97 
			84.3,100 		"/>
		<polygon class="st0" points="100.8,94.1 102.1,96.5 102.5,93.8 105.2,93.3 102.7,92.1 103.1,89.3 101.2,91.3 98.7,90.1 100,92.6 
			98.1,94.6 		"/>
		<polygon class="st0" points="75.7,98.5 77,101 77.4,98.2 80.1,97.7 77.6,96.5 78,93.8 76.1,95.8 73.6,94.6 74.9,97 72.9,99 		"/>
		<path class="st0" d="M150.3,36.6l-7,1.2c-6.3-12.2-16.5-22.3-28.8-28.6C101.5,2.7,87,0.5,72.7,3c-14.4,2.5-27.2,9.5-37.1,20.1
			c-9.4,10.1-15.5,23.1-17.3,36.7l-7,1.2c-3.5,0.6-5.9,4-5.3,7.6l4.7,26.5c0.6,3.5,4,5.9,7.6,5.3l7-1.2
			c6.3,12.2,16.5,22.3,28.8,28.6c12.9,6.6,27.4,8.8,41.7,6.2c14.3-2.5,27.2-9.5,37.1-20.1c9.4-10.1,15.5-23.1,17.3-36.7l7-1.2
			c3.5-0.6,5.9-4,5.3-7.6l-4.7-26.5C157.2,38.4,153.8,36,150.3,36.6L150.3,36.6z M73,5.1c27.3-4.8,55.1,8.8,68,33.1l-2.4,0.4
			c-12.8-23.4-38.9-36-65.3-31.3S26.9,32.7,22.8,59.1l-2.4,0.4C24.3,32.2,45.7,9.9,73,5.1L73,5.1z M112.6,43.3
			c-8.7-9.8-22-14.4-34.9-12.1S53.8,42.3,48.9,54.5l-2.5,0.4C51.3,41.4,63,31.5,77.3,29s28.6,2.8,37.8,13.8L112.6,43.3L112.6,43.3z
			 M111.6,43.4L49.9,54.3c4.8-11.7,15.4-20.2,27.9-22.4C90.2,29.7,103.1,34.1,111.6,43.4z M117.4,42.4C107.7,30.2,92.3,24.2,76.9,27
			S49,40.5,44.1,55.3l-20.5,3.6c4.1-25.9,24-46.2,49.9-50.8s51.6,7.7,64.3,30.6L117.4,42.4L117.4,42.4z M95.4,132
			c-27.3,4.8-55.1-8.8-68.1-33.1l2.4-0.4c12.8,23.4,38.9,35.9,65.3,31.3c26.4-4.6,46.6-25.4,50.6-51.7l2.4-0.4
			C144.1,104.9,122.7,127.2,95.4,132L95.4,132z M55.9,93.8c8.7,9.8,22,14.4,35,12.1s23.8-11.2,28.7-23.4l2.5-0.4
			c-4.9,13.5-16.5,23.4-30.8,25.9s-28.6-2.8-37.8-13.8L55.9,93.8L55.9,93.8z M56.8,93.7l61.7-10.9c-4.9,11.7-15.4,20.2-27.9,22.4
			S65.4,103,56.8,93.7z M51.1,94.7c9.7,12.3,25.1,18.2,40.5,15.4c15.4-2.7,27.9-13.6,32.8-28.4l20.4-3.6
			c-4.1,25.9-24,46.2-49.9,50.8c-25.9,4.6-51.6-7.7-64.3-30.6L51.1,94.7L51.1,94.7z M160.5,68.8c0.4,2.4-1.2,4.7-3.6,5.2l-139,24.5
			c-2.4,0.4-4.7-1.2-5.1-3.6L8,68.3c-0.4-2.4,1.2-4.7,3.6-5.2l139-24.5c2.4-0.4,4.7,1.2,5.1,3.6L160.5,68.8L160.5,68.8z"/>
		<path class="st0" d="M151,40.8L12,65.3c-1.3,0.2-2.1,1.4-1.9,2.7l4.7,26.5c0.2,1.3,1.4,2.1,2.7,1.9l139-24.5
			c1.3-0.2,2.1-1.4,1.9-2.7l-4.7-26.5C153.5,41.4,152.3,40.5,151,40.8L151,40.8z M157.5,69.3c0.1,0.8-0.4,1.6-1.2,1.7l-139,24.5
			c-0.8,0.1-1.6-0.4-1.7-1.2l-4.7-26.5c-0.1-0.8,0.4-1.6,1.2-1.7l139-24.5c0.8-0.1,1.6,0.4,1.7,1.2L157.5,69.3L157.5,69.3z"/>
	</g>
</g>
<g>
	<text transform="matrix(-0.5372 0.8435 -0.8435 -0.5372 127.6021 88.9213)" class="st0 st1 st2">C</text>
	<text transform="matrix(-0.7042 0.71 -0.71 -0.7042 122.0864 97.519)" class="st0 st1 st3">E</text>
	<text transform="matrix(-0.8466 0.5322 -0.5322 -0.8466 115.4014 104.3128)" class="st0 st1 st3">R</text>
	<text transform="matrix(-0.9394 0.3428 -0.3428 -0.9394 106.6159 109.7167)" class="st0 st1 st3">T</text>
	<text transform="matrix(-0.9768 0.2143 -0.2143 -0.9768 98.4398 112.5492)" class="st0 st1 st4">I</text>
	<text transform="matrix(-0.9991 4.177205e-02 -4.177205e-02 -0.9991 93.97 113.7807)" class="st0 st1 st3">F</text>
	<text transform="matrix(-0.9971 -7.662688e-02 7.662688e-02 -0.9971 85.0256 114.0094)" class="st0 st1 st5">I</text>
	<text transform="matrix(-0.9798 -0.2002 0.2002 -0.9798 80.4129 113.8391)" class="st0 st1 st5">C</text>
	<text transform="matrix(-0.9214 -0.3886 0.3886 -0.9214 70.3111 111.8187)" class="st0 st1 st3">A</text>
	<text transform="matrix(-0.8207 -0.5714 0.5714 -0.8207 60.4424 107.5578)" class="st0 st1 st3">T</text>
</g>
<g>
	<text transform="matrix(0.5751 -0.8181 0.8181 0.5751 42.9669 45.7501)" class="st0 st1 st2">C</text>
	<text transform="matrix(0.7359 -0.6771 0.6771 0.7359 48.8707 37.414)" class="st0 st1 st3">E</text>
	<text transform="matrix(0.87 -0.493 0.493 0.87 55.8561 30.9317)" class="st0 st1 st3">R</text>
	<text transform="matrix(0.9541 -0.2996 0.2996 0.9541 64.8796 25.935)" class="st0 st1 st3">T</text>
	<text transform="matrix(0.9855 -0.1695 0.1695 0.9855 73.1769 23.4778)" class="st0 st1 st4">I</text>
	<text transform="matrix(1 3.871532e-03 -3.871532e-03 1 77.6983 22.4508)" class="st0 st1 st3">F</text>
	<text transform="matrix(0.9925 0.1221 -0.1221 0.9925 86.6436 22.6311)" class="st0 st1 st5">I</text>
	<text transform="matrix(0.9696 0.2447 -0.2447 0.9696 91.2438 23.0122)" class="st0 st1 st5">C</text>
	<text transform="matrix(0.9027 0.4302 -0.4302 0.9027 101.2425 25.4903)" class="st0 st1 st3">A</text>
	<text transform="matrix(0.7938 0.6083 -0.6083 0.7938 110.9082 30.1978)" class="st0 st1 st3">T</text>
</g>
<text transform="matrix(0.9845 -0.1754 0.1754 0.9845 20.8579 88.2546)" class="st0 st1 st6">OC Applied</text>
</svg>
