<?xml version="1.0" encoding="UTF-8"?>
<svg id="svg134" width="480.73pt" height="312.647pt" version="1.1" viewBox="0 0 480.73 312.647" xmlns="http://www.w3.org/2000/svg">
 <g id="g937" fill="#e30016" fill-rule="evenodd">
  <g id="g624">
   <path id="path584" d="m470.714 292.617c5.5291 0 10.0162 4.4872 10.0162 10.0162s-4.4871 10.0138-10.0162 10.0138c-5.529 0-10.0138-4.4848-10.0138-10.0138s4.4848-10.0162 10.0138-10.0162z"/>
   <path id="path582" d="m470.714 271.716c5.5291 0 10.0162 4.4871 10.0162 10.0162 0 5.529-4.4871 10.0138-10.0162 10.0138-5.529 0-10.0138-4.4848-10.0138-10.0138 0-5.5291 4.4848-10.0162 10.0138-10.0162z"/>
   <path id="path580" d="m470.714 229.913c5.5291 0 10.0162 4.4871 10.0162 10.0162 0 5.529-4.4871 10.0162-10.0162 10.0162-5.529 0-10.0138-4.4872-10.0138-10.0162 0-5.5291 4.4848-10.0162 10.0138-10.0162z"/>
   <path id="path578" d="m470.714 188.11c5.5291 0 10.0162 4.4872 10.0162 10.0162 0 5.5291-4.4871 10.0162-10.0162 10.0162-5.529 0-10.0138-4.4871-10.0138-10.0162 0-5.529 4.4848-10.0162 10.0138-10.0162z"/>
   <path id="path576" d="m470.714 167.211c5.5291 0 10.0162 4.4848 10.0162 10.0138 0 5.5291-4.4871 10.0162-10.0162 10.0162-5.529 0-10.0138-4.4871-10.0138-10.0162 0-5.529 4.4848-10.0138 10.0138-10.0138z"/>
   <path id="path574" d="m470.714 146.31c5.5291 0 10.0162 4.4848 10.0162 10.0138s-4.4871 10.0162-10.0162 10.0162c-5.529 0-10.0138-4.4872-10.0138-10.0162s4.4848-10.0138 10.0138-10.0138z"/>
   <path id="path572" d="m470.714 104.507c5.5291 0 10.0162 4.4848 10.0162 10.0139 0 5.529-4.4871 10.0162-10.0162 10.0162-5.529 0-10.0138-4.4872-10.0138-10.0162 0-5.5291 4.4848-10.0139 10.0138-10.0139z"/>
   <path id="path570" d="m470.714 83.6056c5.5291 0 10.0162 4.4848 10.0162 10.0139 0 5.5314-4.4871 10.0162-10.0162 10.0162-5.529 0-10.0138-4.4848-10.0138-10.0162 0-5.5291 4.4848-10.0139 10.0138-10.0139z"/>
   <path id="path568" d="m470.714 62.7042c5.5291 0 10.0162 4.4848 10.0162 10.0139 0 5.5314-4.4871 10.0162-10.0162 10.0162-5.529 0-10.0138-4.4848-10.0138-10.0162 0-5.5291 4.4848-10.0139 10.0138-10.0139z"/>
   <path id="path566" d="m470.714 41.8028c5.5291 0 10.0162 4.4848 10.0162 10.0138 0 5.5314-4.4871 10.0162-10.0162 10.0162-5.529 0-10.0138-4.4848-10.0138-10.0162 0-5.529 4.4848-10.0138 10.0138-10.0138z"/>
   <path id="path564" d="m450.684 250.815c5.529 0 10.0162 4.4871 10.0162 10.0162 0 5.529-4.4872 10.0138-10.0162 10.0138s-10.0162-4.4848-10.0162-10.0138c0-5.5291 4.4872-10.0162 10.0162-10.0162z"/>
   <path id="path562" d="m450.684 209.012c5.529 0 10.0162 4.4872 10.0162 10.0162 0 5.5291-4.4872 10.0162-10.0162 10.0162s-10.0162-4.4871-10.0162-10.0162c0-5.529 4.4872-10.0162 10.0162-10.0162z"/>
   <path id="path560" d="m450.684 188.11c5.529 0 10.0162 4.4872 10.0162 10.0162 0 5.5291-4.4872 10.0162-10.0162 10.0162s-10.0162-4.4871-10.0162-10.0162c0-5.529 4.4872-10.0162 10.0162-10.0162z"/>
   <path id="path558" d="m450.684 125.408c5.529 0 10.0162 4.4848 10.0162 10.0138s-4.4872 10.0162-10.0162 10.0162-10.0162-4.4872-10.0162-10.0162 4.4872-10.0138 10.0162-10.0138z"/>
   <path id="path556" d="m450.684 104.507c5.529 0 10.0162 4.4848 10.0162 10.0139 0 5.529-4.4872 10.0162-10.0162 10.0162s-10.0162-4.4872-10.0162-10.0162c0-5.5291 4.4872-10.0139 10.0162-10.0139z"/>
   <path id="path554" d="m450.684 83.6056c5.529 0 10.0162 4.4848 10.0162 10.0139 0 5.5314-4.4872 10.0162-10.0162 10.0162s-10.0162-4.4848-10.0162-10.0162c0-5.5291 4.4872-10.0139 10.0162-10.0139z"/>
   <path id="path552" d="m450.684 41.8028c5.529 0 10.0162 4.4848 10.0162 10.0138 0 5.5314-4.4872 10.0162-10.0162 10.0162s-10.0162-4.4848-10.0162-10.0162c0-5.529 4.4872-10.0138 10.0162-10.0138z"/>
   <path id="path550" d="m450.684 20.9014c5.529 0 10.0162 4.4848 10.0162 10.0162 0 5.529-4.4872 10.0138-10.0162 10.0138s-10.0162-4.4848-10.0162-10.0138c0-5.5314 4.4872-10.0162 10.0162-10.0162z"/>
   <path id="path548" d="m430.654 250.815c5.529 0 10.0138 4.4871 10.0138 10.0162 0 5.529-4.4848 10.0138-10.0138 10.0138-5.5291 0-10.0162-4.4848-10.0162-10.0138 0-5.5291 4.4871-10.0162 10.0162-10.0162z"/>
   <path id="path546" d="m430.654 188.11c5.529 0 10.0138 4.4872 10.0138 10.0162 0 5.5291-4.4848 10.0162-10.0138 10.0162-5.5291 0-10.0162-4.4871-10.0162-10.0162 0-5.529 4.4871-10.0162 10.0162-10.0162z"/>
   <path id="path544" d="m430.654 146.31c5.529 0 10.0138 4.4848 10.0138 10.0138s-4.4848 10.0162-10.0138 10.0162c-5.5291 0-10.0162-4.4872-10.0162-10.0162s4.4871-10.0138 10.0162-10.0138z"/>
   <path id="path542" d="m430.654 125.408c5.529 0 10.0138 4.4848 10.0138 10.0138s-4.4848 10.0162-10.0138 10.0162c-5.5291 0-10.0162-4.4872-10.0162-10.0162s4.4871-10.0138 10.0162-10.0138z"/>
   <path id="path540" d="m430.654 83.6056c5.529 0 10.0138 4.4848 10.0138 10.0139 0 5.5314-4.4848 10.0162-10.0138 10.0162-5.5291 0-10.0162-4.4848-10.0162-10.0162 0-5.5291 4.4871-10.0139 10.0162-10.0139z"/>
   <path id="path538" d="m430.654 62.7042c5.529 0 10.0138 4.4848 10.0138 10.0139 0 5.5314-4.4848 10.0162-10.0138 10.0162-5.5291 0-10.0162-4.4848-10.0162-10.0162 0-5.5291 4.4871-10.0139 10.0162-10.0139z"/>
   <path id="path536" d="m430.654 41.8028c5.529 0 10.0138 4.4848 10.0138 10.0138 0 5.5314-4.4848 10.0162-10.0138 10.0162-5.5291 0-10.0162-4.4848-10.0162-10.0162 0-5.529 4.4871-10.0138 10.0162-10.0138z"/>
   <path id="path534" d="m430.654 20.9014c5.529 0 10.0138 4.4848 10.0138 10.0162 0 5.529-4.4848 10.0138-10.0138 10.0138-5.5291 0-10.0162-4.4848-10.0162-10.0138 0-5.5314 4.4871-10.0162 10.0162-10.0162z"/>
   <path id="path532" d="m410.624 292.617c5.5291 0 10.0139 4.4872 10.0139 10.0162s-4.4848 10.0138-10.0139 10.0138c-5.5314 0-10.0162-4.4848-10.0162-10.0138 2e-3 -5.529 4.4848-10.0162 10.0162-10.0162z"/>
   <path id="path530" d="m410.624 229.913c5.5291 0 10.0139 4.4871 10.0139 10.0162 0 5.529-4.4848 10.0162-10.0139 10.0162-5.5314 0-10.0162-4.4872-10.0162-10.0162 2e-3 -5.5291 4.4848-10.0162 10.0162-10.0162z"/>
   <path id="path528" d="m410.624 188.11c5.5291 0 10.0139 4.4872 10.0139 10.0162 0 5.5291-4.4848 10.0162-10.0139 10.0162-5.5314 0-10.0162-4.4871-10.0162-10.0162 2e-3 -5.529 4.4848-10.0162 10.0162-10.0162z"/>
   <path id="path526" d="m410.624 167.211c5.5291 0 10.0139 4.4848 10.0139 10.0138 0 5.5291-4.4848 10.0162-10.0139 10.0162-5.5314 0-10.0162-4.4871-10.0162-10.0162 2e-3 -5.529 4.4848-10.0138 10.0162-10.0138z"/>
   <path id="path524" d="m410.624 125.408c5.5291 0 10.0139 4.4848 10.0139 10.0138s-4.4848 10.0162-10.0139 10.0162c-5.5314 0-10.0162-4.4872-10.0162-10.0162 2e-3 -5.529 4.4848-10.0138 10.0162-10.0138z"/>
   <path id="path522" d="m410.624 104.507c5.5291 0 10.0139 4.4848 10.0139 10.0139 0 5.529-4.4848 10.0162-10.0139 10.0162-5.5314 0-10.0162-4.4872-10.0162-10.0162 2e-3 -5.5291 4.4848-10.0139 10.0162-10.0139z"/>
   <path id="path520" d="m410.624 83.6056c5.5291 0 10.0139 4.4848 10.0139 10.0139 0 5.5314-4.4848 10.0162-10.0139 10.0162-5.5314 0-10.0162-4.4848-10.0162-10.0162 2e-3 -5.5291 4.4848-10.0139 10.0162-10.0139z"/>
   <path id="path518" d="m410.624 62.7042c5.5291 0 10.0139 4.4848 10.0139 10.0139 0 5.5314-4.4848 10.0162-10.0139 10.0162-5.5314 0-10.0162-4.4848-10.0162-10.0162 2e-3 -5.5291 4.4848-10.0139 10.0162-10.0139z"/>
   <path id="path516" d="m410.624 41.8028c5.5291 0 10.0139 4.4848 10.0139 10.0138 0 5.5314-4.4848 10.0162-10.0139 10.0162-5.5314 0-10.0162-4.4848-10.0162-10.0162 2e-3 -5.529 4.4848-10.0138 10.0162-10.0138z"/>
   <path id="path514" d="m410.624 20.9014c5.5291 0 10.0139 4.4848 10.0139 10.0162 0 5.529-4.4848 10.0138-10.0139 10.0138-5.5314 0-10.0162-4.4848-10.0162-10.0138 2e-3 -5.5314 4.4848-10.0162 10.0162-10.0162z"/>
   <path id="path278" d="m430.654 0c5.529 0 10.0138 4.4848 10.0138 10.0162 0 5.529-4.4848 10.0138-10.0138 10.0138-5.5291 0-10.0162-4.4848-10.0162-10.0138 0-5.5314 4.4871-10.0162 10.0162-10.0162z"/>
   <path id="path276" d="m410.624 0c5.5291 0 10.0139 4.4848 10.0139 10.0162 0 5.529-4.4848 10.0138-10.0139 10.0138-5.5314 0-10.0162-4.4848-10.0162-10.0138 2e-3 -5.5314 4.4848-10.0162 10.0162-10.0162z"/>
  </g>
  <g id="g679">
   <path id="path512" d="m370.561 41.8028c5.5314 0 10.0162 4.4848 10.0162 10.0138 0 5.5314-4.4848 10.0162-10.0162 10.0162-5.529 0-10.0138-4.4848-10.0138-10.0162 0-5.529 4.4848-10.0138 10.0138-10.0138z"/>
   <path id="path510" d="m350.531 41.8028c5.529 0 10.0162 4.4848 10.0162 10.0138 0 5.5314-4.4872 10.0162-10.0162 10.0162s-10.0138-4.4848-10.0138-10.0162c0-5.529 4.4848-10.0138 10.0138-10.0138z"/>
   <path id="path508" d="m350.531 20.9014c5.529 0 10.0162 4.4848 10.0162 10.0162 0 5.529-4.4872 10.0138-10.0162 10.0138s-10.0138-4.4848-10.0138-10.0138c0-5.5314 4.4848-10.0162 10.0138-10.0162z"/>
   <path id="path506" d="m330.501 41.8028c5.529 0 10.0162 4.4848 10.0162 10.0138 0 5.5314-4.4872 10.0162-10.0162 10.0162-5.5291 0-10.0162-4.4848-10.0162-10.0162 0-5.529 4.4871-10.0138 10.0162-10.0138z"/>
   <path id="path504" d="m330.501 20.9014c5.529 0 10.0162 4.4848 10.0162 10.0162 0 5.529-4.4872 10.0138-10.0162 10.0138-5.5291 0-10.0162-4.4848-10.0162-10.0138 0-5.5314 4.4871-10.0162 10.0162-10.0162z"/>
   <path id="path502" d="m310.471 292.617c5.5291 0 10.0139 4.4872 10.0139 10.0162s-4.4848 10.0138-10.0139 10.0138c-5.529 0-10.0162-4.4848-10.0162-10.0138s4.4872-10.0162 10.0162-10.0162z"/>
   <path id="path500" d="m310.471 250.815c5.5291 0 10.0139 4.4871 10.0139 10.0162 0 5.529-4.4848 10.0138-10.0139 10.0138-5.529 0-10.0162-4.4848-10.0162-10.0138 0-5.5291 4.4872-10.0162 10.0162-10.0162z"/>
   <path id="path498" d="m310.471 209.012c5.5291 0 10.0139 4.4872 10.0139 10.0162 0 5.5291-4.4848 10.0162-10.0139 10.0162-5.529 0-10.0162-4.4871-10.0162-10.0162 0-5.529 4.4872-10.0162 10.0162-10.0162z"/>
   <path id="path496" d="m310.471 188.11c5.5291 0 10.0139 4.4872 10.0139 10.0162 0 5.5291-4.4848 10.0162-10.0139 10.0162-5.529 0-10.0162-4.4871-10.0162-10.0162 0-5.529 4.4872-10.0162 10.0162-10.0162z"/>
   <path id="path494" d="m310.471 146.31c5.5291 0 10.0139 4.4848 10.0139 10.0138s-4.4848 10.0162-10.0139 10.0162c-5.529 0-10.0162-4.4872-10.0162-10.0162s4.4872-10.0138 10.0162-10.0138z"/>
   <path id="path492" d="m310.471 125.408c5.5291 0 10.0139 4.4848 10.0139 10.0138s-4.4848 10.0162-10.0139 10.0162c-5.529 0-10.0162-4.4872-10.0162-10.0162s4.4872-10.0138 10.0162-10.0138z"/>
   <path id="path490" d="m310.471 104.507c5.5291 0 10.0139 4.4848 10.0139 10.0139 0 5.529-4.4848 10.0162-10.0139 10.0162-5.529 0-10.0162-4.4872-10.0162-10.0162 0-5.5291 4.4872-10.0139 10.0162-10.0139z"/>
   <path id="path488" d="m310.471 83.6056c5.5291 0 10.0139 4.4848 10.0139 10.0139 0 5.5314-4.4848 10.0162-10.0139 10.0162-5.529 0-10.0162-4.4848-10.0162-10.0162 0-5.5291 4.4872-10.0139 10.0162-10.0139z"/>
   <path id="path486" d="m310.471 62.7042c5.5291 0 10.0139 4.4848 10.0139 10.0139 0 5.5314-4.4848 10.0162-10.0139 10.0162-5.529 0-10.0162-4.4848-10.0162-10.0162 0-5.5291 4.4872-10.0139 10.0162-10.0139z"/>
   <path id="path484" d="m310.471 41.8028c5.5291 0 10.0139 4.4848 10.0139 10.0138 0 5.5314-4.4848 10.0162-10.0139 10.0162-5.529 0-10.0162-4.4848-10.0162-10.0162 0-5.529 4.4872-10.0138 10.0162-10.0138z"/>
   <path id="path482" d="m310.471 20.9014c5.5291 0 10.0139 4.4848 10.0139 10.0162 0 5.529-4.4848 10.0138-10.0139 10.0138-5.529 0-10.0162-4.4848-10.0162-10.0138 0-5.5314 4.4872-10.0162 10.0162-10.0162z"/>
   <path id="path480" d="m290.441 229.913c5.5291 0 10.0138 4.4871 10.0138 10.0162 0 5.529-4.4847 10.0162-10.0138 10.0162-5.529 0-10.0162-4.4872-10.0162-10.0162 0-5.5291 4.4872-10.0162 10.0162-10.0162z"/>
   <path id="path478" d="m290.441 167.211c5.5291 0 10.0138 4.4848 10.0138 10.0138 0 5.5291-4.4847 10.0162-10.0138 10.0162-5.529 0-10.0162-4.4871-10.0162-10.0162 0-5.529 4.4872-10.0138 10.0162-10.0138z"/>
   <path id="path476" d="m290.441 146.31c5.5291 0 10.0138 4.4848 10.0138 10.0138s-4.4847 10.0162-10.0138 10.0162c-5.529 0-10.0162-4.4872-10.0162-10.0162s4.4872-10.0138 10.0162-10.0138z"/>
   <path id="path474" d="m290.441 125.408c5.5291 0 10.0138 4.4848 10.0138 10.0138s-4.4847 10.0162-10.0138 10.0162c-5.529 0-10.0162-4.4872-10.0162-10.0162s4.4872-10.0138 10.0162-10.0138z"/>
   <path id="path472" d="m290.441 104.507c5.5291 0 10.0138 4.4848 10.0138 10.0139 0 5.529-4.4847 10.0162-10.0138 10.0162-5.529 0-10.0162-4.4872-10.0162-10.0162 0-5.5291 4.4872-10.0139 10.0162-10.0139z"/>
   <path id="path470" d="m290.441 83.6056c5.5291 0 10.0138 4.4848 10.0138 10.0139 0 5.5314-4.4847 10.0162-10.0138 10.0162-5.529 0-10.0162-4.4848-10.0162-10.0162 0-5.5291 4.4872-10.0139 10.0162-10.0139z"/>
   <path id="path468" d="m290.441 62.7042c5.5291 0 10.0138 4.4848 10.0138 10.0139 0 5.5314-4.4847 10.0162-10.0138 10.0162-5.529 0-10.0162-4.4848-10.0162-10.0162 0-5.5291 4.4872-10.0139 10.0162-10.0139z"/>
   <path id="path466" d="m290.441 20.9014c5.5291 0 10.0138 4.4848 10.0138 10.0162 0 5.529-4.4847 10.0138-10.0138 10.0138-5.529 0-10.0162-4.4848-10.0162-10.0138 0-5.5314 4.4872-10.0162 10.0162-10.0162z"/>
   <path id="path464" d="m270.411 271.716c5.529 0 10.0138 4.4871 10.0138 10.0162 0 5.529-4.4848 10.0138-10.0138 10.0138-5.5314 0-10.0162-4.4848-10.0162-10.0138 0-5.5291 4.4848-10.0162 10.0162-10.0162z"/>
   <path id="path462" d="m270.411 229.913c5.529 0 10.0138 4.4871 10.0138 10.0162 0 5.529-4.4848 10.0162-10.0138 10.0162-5.5314 0-10.0162-4.4872-10.0162-10.0162 0-5.5291 4.4848-10.0162 10.0162-10.0162z"/>
   <path id="path460" d="m270.411 188.11c5.529 0 10.0138 4.4872 10.0138 10.0162 0 5.5291-4.4848 10.0162-10.0138 10.0162-5.5314 0-10.0162-4.4871-10.0162-10.0162 0-5.529 4.4848-10.0162 10.0162-10.0162z"/>
   <path id="path458" d="m270.411 167.211c5.529 0 10.0138 4.4848 10.0138 10.0138 0 5.5291-4.4848 10.0162-10.0138 10.0162-5.5314 0-10.0162-4.4871-10.0162-10.0162 0-5.529 4.4848-10.0138 10.0162-10.0138z"/>
   <path id="path456" d="m270.411 125.408c5.529 0 10.0138 4.4848 10.0138 10.0138s-4.4848 10.0162-10.0138 10.0162c-5.5314 0-10.0162-4.4872-10.0162-10.0162s4.4848-10.0138 10.0162-10.0138z"/>
   <path id="path454" d="m270.411 104.507c5.529 0 10.0138 4.4848 10.0138 10.0139 0 5.529-4.4848 10.0162-10.0138 10.0162-5.5314 0-10.0162-4.4872-10.0162-10.0162 0-5.5291 4.4848-10.0139 10.0162-10.0139z"/>
   <path id="path452" d="m270.411 62.7042c5.529 0 10.0138 4.4848 10.0138 10.0139 0 5.5314-4.4848 10.0162-10.0138 10.0162-5.5314 0-10.0162-4.4848-10.0162-10.0162 0-5.5291 4.4848-10.0139 10.0162-10.0139z"/>
   <path id="path450" d="m270.411 41.8028c5.529 0 10.0138 4.4848 10.0138 10.0138 0 5.5314-4.4848 10.0162-10.0138 10.0162-5.5314 0-10.0162-4.4848-10.0162-10.0162 0-5.529 4.4848-10.0138 10.0162-10.0138z"/>
   <path id="path448" d="m270.411 20.9014c5.529 0 10.0138 4.4848 10.0138 10.0162 0 5.529-4.4848 10.0138-10.0138 10.0138-5.5314 0-10.0162-4.4848-10.0162-10.0138 0-5.5314 4.4848-10.0162 10.0162-10.0162z"/>
   <path id="path446" d="m250.379 292.617c5.5314 0 10.0162 4.4872 10.0162 10.0162s-4.4848 10.0138-10.0162 10.0138c-5.529 0-10.0138-4.4848-10.0138-10.0138s4.4848-10.0162 10.0138-10.0162z"/>
   <path id="path444" d="m250.379 250.815c5.5314 0 10.0162 4.4871 10.0162 10.0162 0 5.529-4.4848 10.0138-10.0162 10.0138-5.529 0-10.0138-4.4848-10.0138-10.0138 0-5.5291 4.4848-10.0162 10.0138-10.0162z"/>
   <path id="path442" d="m250.379 209.012c5.5314 0 10.0162 4.4872 10.0162 10.0162 0 5.5291-4.4848 10.0162-10.0162 10.0162-5.529 0-10.0138-4.4871-10.0138-10.0162 0-5.529 4.4848-10.0162 10.0138-10.0162z"/>
   <path id="path440" d="m250.379 188.11c5.5314 0 10.0162 4.4872 10.0162 10.0162 0 5.5291-4.4848 10.0162-10.0162 10.0162-5.529 0-10.0138-4.4871-10.0138-10.0162 0-5.529 4.4848-10.0162 10.0138-10.0162z"/>
   <path id="path438" d="m250.379 146.31c5.5314 0 10.0162 4.4848 10.0162 10.0138s-4.4848 10.0162-10.0162 10.0162c-5.529 0-10.0138-4.4872-10.0138-10.0162s4.4848-10.0138 10.0138-10.0138z"/>
   <path id="path436" d="m250.379 104.507c5.5314 0 10.0162 4.4848 10.0162 10.0139 0 5.529-4.4848 10.0162-10.0162 10.0162-5.529 0-10.0138-4.4872-10.0138-10.0162 0-5.5291 4.4848-10.0139 10.0138-10.0139z"/>
   <path id="path434" d="m250.379 83.6056c5.5314 0 10.0162 4.4848 10.0162 10.0139 0 5.5314-4.4848 10.0162-10.0162 10.0162-5.529 0-10.0138-4.4848-10.0138-10.0162 0-5.5291 4.4848-10.0139 10.0138-10.0139z"/>
   <path id="path432" d="m250.379 62.7042c5.5314 0 10.0162 4.4848 10.0162 10.0139 0 5.5314-4.4848 10.0162-10.0162 10.0162-5.529 0-10.0138-4.4848-10.0138-10.0162 0-5.5291 4.4848-10.0139 10.0138-10.0139z"/>
   <path id="path430" d="m250.379 41.8028c5.5314 0 10.0162 4.4848 10.0162 10.0138 0 5.5314-4.4848 10.0162-10.0162 10.0162-5.529 0-10.0138-4.4848-10.0138-10.0162 0-5.529 4.4848-10.0138 10.0138-10.0138z"/>
   <path id="path428" d="m230.349 41.8028c5.529 0 10.0162 4.4848 10.0162 10.0138 0 5.5314-4.4872 10.0162-10.0162 10.0162-5.5291 0-10.0139-4.4848-10.0139-10.0162 0-5.529 4.4848-10.0138 10.0139-10.0138z"/>
   <path id="path426" d="m230.349 20.9014c5.529 0 10.0162 4.4848 10.0162 10.0162 0 5.529-4.4872 10.0138-10.0162 10.0138-5.5291 0-10.0139-4.4848-10.0139-10.0138 0-5.5314 4.4848-10.0162 10.0139-10.0162z"/>
   <path id="path424" d="m210.319 20.9014c5.5291 0 10.0162 4.4848 10.0162 10.0162 0 5.529-4.4871 10.0138-10.0162 10.0138-5.529 0-10.0138-4.4848-10.0138-10.0138 0-5.5314 4.4848-10.0162 10.0138-10.0162z"/>
   <path id="path274" d="m330.501 0c5.529 0 10.0162 4.4848 10.0162 10.0162 0 5.529-4.4872 10.0138-10.0162 10.0138-5.5291 0-10.0162-4.4848-10.0162-10.0138 0-5.5314 4.4871-10.0162 10.0162-10.0162z"/>
   <path id="path272" d="m310.471 0c5.5291 0 10.0139 4.4848 10.0139 10.0162 0 5.529-4.4848 10.0138-10.0139 10.0138-5.529 0-10.0162-4.4848-10.0162-10.0138 0-5.5314 4.4872-10.0162 10.0162-10.0162z"/>
   <path id="path270" d="m290.441 0c5.5291 0 10.0138 4.4848 10.0138 10.0162 0 5.529-4.4847 10.0138-10.0138 10.0138-5.529 0-10.0162-4.4848-10.0162-10.0138 0-5.5314 4.4872-10.0162 10.0162-10.0162z"/>
   <path id="path268" d="m270.411 0c5.529 0 10.0138 4.4848 10.0138 10.0162 0 5.529-4.4848 10.0138-10.0138 10.0138-5.5314 0-10.0162-4.4848-10.0162-10.0138 0-5.5314 4.4848-10.0162 10.0162-10.0162z"/>
   <path id="path266" d="m250.379 0c5.5314 0 10.0162 4.4848 10.0162 10.0162 0 5.529-4.4848 10.0138-10.0162 10.0138-5.529 0-10.0138-4.4848-10.0138-10.0138 0-5.5314 4.4848-10.0162 10.0138-10.0162z"/>
   <path id="path264" d="m230.349 0c5.529 0 10.0162 4.4848 10.0162 10.0162 0 5.529-4.4872 10.0138-10.0162 10.0138-5.5291 0-10.0139-4.4848-10.0139-10.0138 0-5.5314 4.4848-10.0162 10.0139-10.0162z"/>
   <path id="path262" d="m210.319 0c5.5291 0 10.0162 4.4848 10.0162 10.0162 0 5.529-4.4871 10.0138-10.0162 10.0138-5.529 0-10.0138-4.4848-10.0138-10.0138 0-5.5314 4.4848-10.0162 10.0138-10.0162z"/>
   <path id="path260" d="m190.289 0c5.5314 0 10.0162 4.4848 10.0162 10.0162 0 5.529-4.4872 10.0138-10.0162 10.0138s-10.0162-4.4848-10.0162-10.0138c0-5.5314 4.4872-10.0162 10.0162-10.0162z"/>
  </g>
  <g id="g761">
   <path id="path422" d="m190.289 167.211c5.5314 0 10.0162 4.4848 10.0162 10.0138 0 5.5291-4.4872 10.0162-10.0162 10.0162s-10.0162-4.4871-10.0162-10.0162c0-5.529 4.4872-10.0138 10.0162-10.0138z"/>
   <path id="path420" d="m190.289 146.31c5.5314 0 10.0162 4.4848 10.0162 10.0138s-4.4872 10.0162-10.0162 10.0162-10.0162-4.4872-10.0162-10.0162 4.4872-10.0138 10.0162-10.0138z"/>
   <path id="path418" d="m190.289 125.408c5.5314 0 10.0162 4.4848 10.0162 10.0138s-4.4872 10.0162-10.0162 10.0162-10.0162-4.4872-10.0162-10.0162 4.4872-10.0138 10.0162-10.0138z"/>
   <path id="path416" d="m190.289 83.6056c5.5314 0 10.0162 4.4848 10.0162 10.0139 0 5.5314-4.4872 10.0162-10.0162 10.0162s-10.0162-4.4848-10.0162-10.0162c0-5.5291 4.4872-10.0139 10.0162-10.0139z"/>
   <path id="path414" d="m190.289 62.7042c5.5314 0 10.0162 4.4848 10.0162 10.0139 0 5.5314-4.4872 10.0162-10.0162 10.0162s-10.0162-4.4848-10.0162-10.0162c0-5.5291 4.4872-10.0139 10.0162-10.0139z"/>
   <path id="path412" d="m190.289 41.8028c5.5314 0 10.0162 4.4848 10.0162 10.0138 0 5.5314-4.4872 10.0162-10.0162 10.0162s-10.0162-4.4848-10.0162-10.0162c0-5.529 4.4872-10.0138 10.0162-10.0138z"/>
   <path id="path410" d="m170.259 188.11c5.529 0 10.0138 4.4872 10.0138 10.0162 0 5.5291-4.4848 10.0162-10.0138 10.0162-5.5291 0-10.0162-4.4871-10.0162-10.0162 0-5.529 4.4871-10.0162 10.0162-10.0162z"/>
   <path id="path408" d="m170.259 167.211c5.529 0 10.0138 4.4848 10.0138 10.0138 0 5.5291-4.4848 10.0162-10.0138 10.0162-5.5291 0-10.0162-4.4871-10.0162-10.0162 0-5.529 4.4871-10.0138 10.0162-10.0138z"/>
   <path id="path406" d="m170.259 125.408c5.529 0 10.0138 4.4848 10.0138 10.0138s-4.4848 10.0162-10.0138 10.0162c-5.5291 0-10.0162-4.4872-10.0162-10.0162s4.4871-10.0138 10.0162-10.0138z"/>
   <path id="path404" d="m170.259 104.507c5.529 0 10.0138 4.4848 10.0138 10.0139 0 5.529-4.4848 10.0162-10.0138 10.0162-5.5291 0-10.0162-4.4872-10.0162-10.0162 0-5.5291 4.4871-10.0139 10.0162-10.0139z"/>
   <path id="path402" d="m170.259 83.6056c5.529 0 10.0138 4.4848 10.0138 10.0139 0 5.5314-4.4848 10.0162-10.0138 10.0162-5.5291 0-10.0162-4.4848-10.0162-10.0162 0-5.5291 4.4871-10.0139 10.0162-10.0139z"/>
   <path id="path400" d="m170.259 62.7042c5.529 0 10.0138 4.4848 10.0138 10.0139 0 5.5314-4.4848 10.0162-10.0138 10.0162-5.5291 0-10.0162-4.4848-10.0162-10.0162 0-5.5291 4.4871-10.0139 10.0162-10.0139z"/>
   <path id="path398" d="m170.259 41.8028c5.529 0 10.0138 4.4848 10.0138 10.0138 0 5.5314-4.4848 10.0162-10.0138 10.0162-5.5291 0-10.0162-4.4848-10.0162-10.0162 0-5.529 4.4871-10.0138 10.0162-10.0138z"/>
   <path id="path396" d="m170.259 20.9014c5.529 0 10.0138 4.4848 10.0138 10.0162 0 5.529-4.4848 10.0138-10.0138 10.0138-5.5291 0-10.0162-4.4848-10.0162-10.0138 0-5.5314 4.4871-10.0162 10.0162-10.0162z"/>
   <path id="path394" d="m150.229 209.012c5.529 0 10.0138 4.4872 10.0138 10.0162 0 5.5291-4.4848 10.0162-10.0138 10.0162-5.5314 0-10.0162-4.4871-10.0162-10.0162 0-5.529 4.4848-10.0162 10.0162-10.0162z"/>
   <path id="path392" d="m150.229 188.11c5.529 0 10.0138 4.4872 10.0138 10.0162 0 5.5291-4.4848 10.0162-10.0138 10.0162-5.5314 0-10.0162-4.4871-10.0162-10.0162 0-5.529 4.4848-10.0162 10.0162-10.0162z"/>
   <path id="path390" d="m150.229 167.211c5.529 0 10.0138 4.4848 10.0138 10.0138 0 5.5291-4.4848 10.0162-10.0138 10.0162-5.5314 0-10.0162-4.4871-10.0162-10.0162 0-5.529 4.4848-10.0138 10.0162-10.0138z"/>
   <path id="path388" d="m150.229 146.31c5.529 0 10.0138 4.4848 10.0138 10.0138s-4.4848 10.0162-10.0138 10.0162c-5.5314 0-10.0162-4.4872-10.0162-10.0162s4.4848-10.0138 10.0162-10.0138z"/>
   <path id="path386" d="m150.229 83.6056c5.529 0 10.0138 4.4848 10.0138 10.0139 0 5.5314-4.4848 10.0162-10.0138 10.0162-5.5314 0-10.0162-4.4848-10.0162-10.0162 0-5.5291 4.4848-10.0139 10.0162-10.0139z"/>
   <path id="path384" d="m150.229 62.7042c5.529 0 10.0138 4.4848 10.0138 10.0139 0 5.5314-4.4848 10.0162-10.0138 10.0162-5.5314 0-10.0162-4.4848-10.0162-10.0162 0-5.5291 4.4848-10.0139 10.0162-10.0139z"/>
   <path id="path382" d="m150.229 20.9014c5.529 0 10.0138 4.4848 10.0138 10.0162 0 5.529-4.4848 10.0138-10.0138 10.0138-5.5314 0-10.0162-4.4848-10.0162-10.0138 0-5.5314 4.4848-10.0162 10.0162-10.0162z"/>
   <path id="path380" d="m130.199 209.012c5.5291 0 10.0139 4.4872 10.0139 10.0162 0 5.5291-4.4848 10.0162-10.0139 10.0162-5.5314 0-10.0162-4.4871-10.0162-10.0162 0-5.529 4.4848-10.0162 10.0162-10.0162z"/>
   <path id="path378" d="m130.199 167.211c5.5291 0 10.0139 4.4848 10.0139 10.0138 0 5.5291-4.4848 10.0162-10.0139 10.0162-5.5314 0-10.0162-4.4871-10.0162-10.0162 0-5.529 4.4848-10.0138 10.0162-10.0138z"/>
   <path id="path376" d="m130.199 146.31c5.5291 0 10.0139 4.4848 10.0139 10.0138s-4.4848 10.0162-10.0139 10.0162c-5.5314 0-10.0162-4.4872-10.0162-10.0162s4.4848-10.0138 10.0162-10.0138z"/>
   <path id="path374" d="m130.199 125.408c5.5291 0 10.0139 4.4848 10.0139 10.0138s-4.4848 10.0162-10.0139 10.0162c-5.5314 0-10.0162-4.4872-10.0162-10.0162s4.4848-10.0138 10.0162-10.0138z"/>
   <path id="path372" d="m130.199 104.507c5.5291 0 10.0139 4.4848 10.0139 10.0139 0 5.529-4.4848 10.0162-10.0139 10.0162-5.5314 0-10.0162-4.4872-10.0162-10.0162 0-5.5291 4.4848-10.0139 10.0162-10.0139z"/>
   <path id="path370" d="m130.199 62.7042c5.5291 0 10.0139 4.4848 10.0139 10.0139 0 5.5314-4.4848 10.0162-10.0139 10.0162-5.5314 0-10.0162-4.4848-10.0162-10.0162 0-5.5291 4.4848-10.0139 10.0162-10.0139z"/>
   <path id="path368" d="m130.199 41.8028c5.5291 0 10.0139 4.4848 10.0139 10.0138 0 5.5314-4.4848 10.0162-10.0139 10.0162-5.5314 0-10.0162-4.4848-10.0162-10.0162 0-5.529 4.4848-10.0138 10.0162-10.0138z"/>
   <path id="path366" d="m130.199 20.9014c5.5291 0 10.0139 4.4848 10.0139 10.0162 0 5.529-4.4848 10.0138-10.0139 10.0138-5.5314 0-10.0162-4.4848-10.0162-10.0138 0-5.5314 4.4848-10.0162 10.0162-10.0162z"/>
   <path id="path364" d="m110.166 209.012c5.5314 0 10.0162 4.4872 10.0162 10.0162 0 5.5291-4.4848 10.0162-10.0162 10.0162-5.529 0-10.0138-4.4871-10.0138-10.0162 0-5.529 4.4848-10.0162 10.0138-10.0162z"/>
   <path id="path362" d="m110.166 167.211c5.5314 0 10.0162 4.4848 10.0162 10.0138 0 5.5291-4.4848 10.0162-10.0162 10.0162-5.529 0-10.0138-4.4871-10.0138-10.0162 0-5.529 4.4848-10.0138 10.0138-10.0138z"/>
   <path id="path360" d="m110.166 20.9014c5.5314 0 10.0162 4.4848 10.0162 10.0162 0 5.529-4.4848 10.0138-10.0162 10.0138-5.529 0-10.0138-4.4848-10.0138-10.0138 0-5.5314 4.4848-10.0162 10.0138-10.0162z"/>
   <path id="path358" d="m90.1363 188.11c5.529 0 10.0162 4.4872 10.0162 10.0162 0 5.5291-4.4872 10.0162-10.0162 10.0162s-10.0138-4.4871-10.0138-10.0162c0-5.529 4.4848-10.0162 10.0138-10.0162z"/>
   <path id="path356" d="m90.1363 167.211c5.529 0 10.0162 4.4848 10.0162 10.0138 0 5.5291-4.4872 10.0162-10.0162 10.0162s-10.0138-4.4871-10.0138-10.0162c0-5.529 4.4848-10.0138 10.0138-10.0138z"/>
   <path id="path354" d="m90.1363 20.9014c5.529 0 10.0162 4.4848 10.0162 10.0162 0 5.529-4.4872 10.0138-10.0162 10.0138s-10.0138-4.4848-10.0138-10.0138c0-5.5314 4.4848-10.0162 10.0138-10.0162z"/>
   <path id="path352" d="m70.1063 292.617c5.529 0 10.0162 4.4872 10.0162 10.0162s-4.4872 10.0138-10.0162 10.0138c-5.5291 0-10.0162-4.4848-10.0162-10.0138s4.4871-10.0162 10.0162-10.0162z"/>
   <path id="path350" d="m70.1063 250.815c5.529 0 10.0162 4.4871 10.0162 10.0162 0 5.529-4.4872 10.0138-10.0162 10.0138-5.5291 0-10.0162-4.4848-10.0162-10.0138 0-5.5291 4.4871-10.0162 10.0162-10.0162z"/>
   <path id="path348" d="m70.1063 229.913c5.529 0 10.0162 4.4871 10.0162 10.0162 0 5.529-4.4872 10.0162-10.0162 10.0162-5.5291 0-10.0162-4.4872-10.0162-10.0162 0-5.5291 4.4871-10.0162 10.0162-10.0162z"/>
   <path id="path346" d="m70.1063 209.012c5.529 0 10.0162 4.4872 10.0162 10.0162 0 5.5291-4.4872 10.0162-10.0162 10.0162-5.5291 0-10.0162-4.4871-10.0162-10.0162 0-5.529 4.4871-10.0162 10.0162-10.0162z"/>
   <path id="path344" d="m70.1063 188.11c5.529 0 10.0162 4.4872 10.0162 10.0162 0 5.5291-4.4872 10.0162-10.0162 10.0162-5.5291 0-10.0162-4.4871-10.0162-10.0162 0-5.529 4.4871-10.0162 10.0162-10.0162z"/>
   <path id="path342" d="m70.1063 167.211c5.529 0 10.0162 4.4848 10.0162 10.0138 0 5.5291-4.4872 10.0162-10.0162 10.0162-5.5291 0-10.0162-4.4871-10.0162-10.0162 0-5.529 4.4871-10.0138 10.0162-10.0138z"/>
   <path id="path340" d="m70.1063 146.31c5.529 0 10.0162 4.4848 10.0162 10.0138s-4.4872 10.0162-10.0162 10.0162c-5.5291 0-10.0162-4.4872-10.0162-10.0162s4.4871-10.0138 10.0162-10.0138z"/>
   <path id="path338" d="m70.1063 104.507c5.529 0 10.0162 4.4848 10.0162 10.0139 0 5.529-4.4872 10.0162-10.0162 10.0162-5.5291 0-10.0162-4.4872-10.0162-10.0162 0-5.5291 4.4871-10.0139 10.0162-10.0139z"/>
   <path id="path336" d="m70.1063 83.6056c5.529 0 10.0162 4.4848 10.0162 10.0139 0 5.5314-4.4872 10.0162-10.0162 10.0162-5.5291 0-10.0162-4.4848-10.0162-10.0162 0-5.5291 4.4871-10.0139 10.0162-10.0139z"/>
   <path id="path334" d="m70.1063 41.8028c5.529 0 10.0162 4.4848 10.0162 10.0138 0 5.5314-4.4872 10.0162-10.0162 10.0162-5.5291 0-10.0162-4.4848-10.0162-10.0162 0-5.529 4.4871-10.0138 10.0162-10.0138z"/>
   <path id="path332" d="m70.1063 20.9014c5.529 0 10.0162 4.4848 10.0162 10.0162 0 5.529-4.4872 10.0138-10.0162 10.0138-5.5291 0-10.0162-4.4848-10.0162-10.0138 0-5.5314 4.4871-10.0162 10.0162-10.0162z"/>
   <path id="path330" d="m50.0763 271.716c5.529 0 10.0138 4.4871 10.0138 10.0162 0 5.529-4.4848 10.0138-10.0138 10.0138-5.5291 0-10.0162-4.4848-10.0162-10.0138 0-5.5291 4.4871-10.0162 10.0162-10.0162z"/>
   <path id="path328" d="m50.0763 229.913c5.529 0 10.0138 4.4871 10.0138 10.0162 0 5.529-4.4848 10.0162-10.0138 10.0162-5.5291 0-10.0162-4.4872-10.0162-10.0162 0-5.5291 4.4871-10.0162 10.0162-10.0162z"/>
   <path id="path326" d="m50.0763 188.11c5.529 0 10.0138 4.4872 10.0138 10.0162 0 5.5291-4.4848 10.0162-10.0138 10.0162-5.5291 0-10.0162-4.4871-10.0162-10.0162 0-5.529 4.4871-10.0162 10.0162-10.0162z"/>
   <path id="path324" d="m50.0763 146.31c5.529 0 10.0138 4.4848 10.0138 10.0138s-4.4848 10.0162-10.0138 10.0162c-5.5291 0-10.0162-4.4872-10.0162-10.0162s4.4871-10.0138 10.0162-10.0138z"/>
   <path id="path322" d="m50.0763 125.408c5.529 0 10.0138 4.4848 10.0138 10.0138s-4.4848 10.0162-10.0138 10.0162c-5.5291 0-10.0162-4.4872-10.0162-10.0162s4.4871-10.0138 10.0162-10.0138z"/>
   <path id="path320" d="m50.0763 104.507c5.529 0 10.0138 4.4848 10.0138 10.0139 0 5.529-4.4848 10.0162-10.0138 10.0162-5.5291 0-10.0162-4.4872-10.0162-10.0162 0-5.5291 4.4871-10.0139 10.0162-10.0139z"/>
   <path id="path318" d="m50.0763 83.6056c5.529 0 10.0138 4.4848 10.0138 10.0139 0 5.5314-4.4848 10.0162-10.0138 10.0162-5.5291 0-10.0162-4.4848-10.0162-10.0162 0-5.5291 4.4871-10.0139 10.0162-10.0139z"/>
   <path id="path316" d="m50.0763 62.7042c5.529 0 10.0138 4.4848 10.0138 10.0139 0 5.5314-4.4848 10.0162-10.0138 10.0162-5.5291 0-10.0162-4.4848-10.0162-10.0162 0-5.5291 4.4871-10.0139 10.0162-10.0139z"/>
   <path id="path314" d="m50.0763 41.8028c5.529 0 10.0138 4.4848 10.0138 10.0138 0 5.5314-4.4848 10.0162-10.0138 10.0162-5.5291 0-10.0162-4.4848-10.0162-10.0162 0-5.529 4.4871-10.0138 10.0162-10.0138z"/>
   <path id="path312" d="m50.0763 20.9014c5.529 0 10.0138 4.4848 10.0138 10.0162 0 5.529-4.4848 10.0138-10.0138 10.0138-5.5291 0-10.0162-4.4848-10.0162-10.0138 0-5.5314 4.4871-10.0162 10.0162-10.0162z"/>
   <path id="path310" d="m30.0462 209.012c5.5291 0 10.0139 4.4872 10.0139 10.0162 0 5.5291-4.4848 10.0162-10.0139 10.0162-5.529 0-10.0162-4.4871-10.0162-10.0162 0-5.529 4.4872-10.0162 10.0162-10.0162z"/>
   <path id="path308" d="m30.0462 167.211c5.5291 0 10.0139 4.4848 10.0139 10.0138 0 5.5291-4.4848 10.0162-10.0139 10.0162-5.529 0-10.0162-4.4871-10.0162-10.0162 0-5.529 4.4872-10.0138 10.0162-10.0138z"/>
   <path id="path306" d="m30.0462 125.408c5.5291 0 10.0139 4.4848 10.0139 10.0138s-4.4848 10.0162-10.0139 10.0162c-5.529 0-10.0162-4.4872-10.0162-10.0162s4.4872-10.0138 10.0162-10.0138z"/>
   <path id="path304" d="m30.0462 62.7042c5.5291 0 10.0139 4.4848 10.0139 10.0139 0 5.5314-4.4848 10.0162-10.0139 10.0162-5.529 0-10.0162-4.4848-10.0162-10.0162 0-5.5291 4.4872-10.0139 10.0162-10.0139z"/>
   <path id="path302" d="m30.0462 41.8028c5.5291 0 10.0139 4.4848 10.0139 10.0138 0 5.5314-4.4848 10.0162-10.0139 10.0162-5.529 0-10.0162-4.4848-10.0162-10.0162 0-5.529 4.4872-10.0138 10.0162-10.0138z"/>
   <path id="path300" d="m10.0162 292.617c5.529 0 10.0138 4.4872 10.0138 10.0162s-4.4848 10.0138-10.0138 10.0138c-5.5314 0-10.0162-4.4848-10.0162-10.0138s4.4848-10.0162 10.0162-10.0162z"/>
   <path id="path298" d="m10.0162 250.815c5.529 0 10.0138 4.4871 10.0138 10.0162 0 5.529-4.4848 10.0138-10.0138 10.0138-5.5314 0-10.0162-4.4848-10.0162-10.0138 0-5.5291 4.4848-10.0162 10.0162-10.0162z"/>
   <path id="path296" d="m10.0162 229.913c5.529 0 10.0138 4.4871 10.0138 10.0162 0 5.529-4.4848 10.0162-10.0138 10.0162-5.5314 0-10.0162-4.4872-10.0162-10.0162 0-5.5291 4.4848-10.0162 10.0162-10.0162z"/>
   <path id="path294" d="m10.0162 188.11c5.529 0 10.0138 4.4872 10.0138 10.0162 0 5.5291-4.4848 10.0162-10.0138 10.0162-5.5314 0-10.0162-4.4871-10.0162-10.0162 0-5.529 4.4848-10.0162 10.0162-10.0162z"/>
   <path id="path292" d="m10.0162 167.211c5.529 0 10.0138 4.4848 10.0138 10.0138 0 5.5291-4.4848 10.0162-10.0138 10.0162-5.5314 0-10.0162-4.4871-10.0162-10.0162 0-5.529 4.4848-10.0138 10.0162-10.0138z"/>
   <path id="path290" d="m10.0162 146.31c5.529 0 10.0138 4.4848 10.0138 10.0138s-4.4848 10.0162-10.0138 10.0162c-5.5314 0-10.0162-4.4872-10.0162-10.0162s4.4848-10.0138 10.0162-10.0138z"/>
   <path id="path288" d="m10.0162 104.507c5.529 0 10.0138 4.4848 10.0138 10.0139 0 5.529-4.4848 10.0162-10.0138 10.0162-5.5314 0-10.0162-4.4872-10.0162-10.0162 0-5.5291 4.4848-10.0139 10.0162-10.0139z"/>
   <path id="path286" d="m10.0162 83.6056c5.529 0 10.0138 4.4848 10.0138 10.0139 0 5.5314-4.4848 10.0162-10.0138 10.0162-5.5314 0-10.0162-4.4848-10.0162-10.0162 0-5.5291 4.4848-10.0139 10.0162-10.0139z"/>
   <path id="path284" d="m10.0162 62.7042c5.529 0 10.0138 4.4848 10.0138 10.0139 0 5.5314-4.4848 10.0162-10.0138 10.0162-5.5314 0-10.0162-4.4848-10.0162-10.0162 0-5.5291 4.4848-10.0139 10.0162-10.0139z"/>
   <path id="path282" d="m10.0162 41.8028c5.529 0 10.0138 4.4848 10.0138 10.0138 0 5.5314-4.4848 10.0162-10.0138 10.0162-5.5314 0-10.0162-4.4848-10.0162-10.0162 0-5.529 4.4848-10.0138 10.0162-10.0138z"/>
   <path id="path280" d="m10.0162 20.9014c5.529 0 10.0138 4.4848 10.0138 10.0162 0 5.529-4.4848 10.0138-10.0138 10.0138-5.5314 0-10.0162-4.4848-10.0162-10.0138 0-5.5314 4.4848-10.0162 10.0162-10.0162z"/>
   <path id="path258" d="m150.229 0c5.529 0 10.0138 4.4848 10.0138 10.0162 0 5.529-4.4848 10.0138-10.0138 10.0138-5.5314 0-10.0162-4.4848-10.0162-10.0138 0-5.5314 4.4848-10.0162 10.0162-10.0162z"/>
   <path id="path256" d="m130.199 0c5.5291 0 10.0139 4.4848 10.0139 10.0162 0 5.529-4.4848 10.0138-10.0139 10.0138-5.5314 0-10.0162-4.4848-10.0162-10.0138 0-5.5314 4.4848-10.0162 10.0162-10.0162z"/>
   <path id="path254" d="m110.166 0c5.5314 0 10.0162 4.4848 10.0162 10.0162 0 5.529-4.4848 10.0138-10.0162 10.0138-5.529 0-10.0138-4.4848-10.0138-10.0138 0-5.5314 4.4848-10.0162 10.0138-10.0162z"/>
   <path id="path252" d="m90.1363 0c5.529 0 10.0162 4.4848 10.0162 10.0162 0 5.529-4.4872 10.0138-10.0162 10.0138s-10.0138-4.4848-10.0138-10.0138c0-5.5314 4.4848-10.0162 10.0138-10.0162z"/>
   <path id="path250" d="m70.1063 0c5.529 0 10.0162 4.4848 10.0162 10.0162 0 5.529-4.4872 10.0138-10.0162 10.0138-5.5291 0-10.0162-4.4848-10.0162-10.0138 0-5.5314 4.4871-10.0162 10.0162-10.0162z"/>
   <path id="path248" d="m50.0763 0c5.529 0 10.0138 4.4848 10.0138 10.0162 0 5.529-4.4848 10.0138-10.0138 10.0138-5.5291 0-10.0162-4.4848-10.0162-10.0138 0-5.5314 4.4871-10.0162 10.0162-10.0162z"/>
   <path id="path246" d="m30.0462 0c5.5291 0 10.0139 4.4848 10.0139 10.0162 0 5.529-4.4848 10.0138-10.0139 10.0138-5.529 0-10.0162-4.4848-10.0162-10.0138 0-5.5314 4.4872-10.0162 10.0162-10.0162z"/>
   <path id="path132" d="M 10.0162,0 C 15.5452,0 20.03,4.4848 20.03,10.0162 20.03,15.5452 15.5452,20.03 10.0162,20.03 4.4848,20.03 0,15.5452 0,10.0162 0,4.4848 4.4848,0 10.0162,0 Z"/>
  </g>
 </g>
</svg>
