<svg width="37" height="37" viewBox="0 0 37 37" fill="none" xmlns="http://www.w3.org/2000/svg">
<g clip-path="url(#clip0_2676_2760)">
<path d="M24.9361 13.4978C27.3115 9.5487 27.3411 3.54964 22.9344 0.970717C19.0274 -1.31286 13.5725 0.569951 10.7745 5.16744C8.46837 8.95056 8.40469 14.6862 12.3781 17.405L5.4947 28.821L4.20567 28.0604C3.98121 27.928 3.6918 28.0011 3.55716 28.2243L0.370907 33.5105C-0.294555 34.6144 0.132032 36.073 1.18163 36.6923C2.30765 37.2256 3.73948 37.1212 4.4554 35.9335L7.64284 30.6456C7.76972 30.3814 7.71451 30.1632 7.4773 29.991L6.31334 29.3042L13.1966 17.8882C17.4814 20.0274 22.6777 17.3264 24.9361 13.4978ZM21.7764 11.1008L23.3727 8.47788L25.4445 9.68873C25.2405 10.6836 24.8746 11.6717 24.3547 12.6076L21.7764 11.1008ZM10.0931 10.9964L11.3858 11.7519L10.4671 13.2615C10.4192 13.1129 10.1072 11.6141 10.0931 10.9964ZM10.1341 9.91953C10.2616 8.62615 10.6674 7.31922 11.3342 6.0987L13.91 7.60419L11.88 10.9399L10.1341 9.91953ZM14.7307 8.08377L17.1859 9.51868L15.1558 12.8544L12.7007 11.4195L14.7307 8.08377ZM15.2249 7.27178L16.8212 4.6489L19.2764 6.08381L17.6801 8.7067L15.2249 7.27178ZM18.0064 9.99826L20.4617 11.4332L18.4315 14.7689L15.9764 13.334L18.0064 9.99826ZM18.5007 9.18627L20.0969 6.56339L22.5521 7.99831L20.9559 10.6212L18.5007 9.18627ZM25.5957 8.67628L23.8669 7.66589L25.2589 5.37867C25.3067 5.52726 25.6866 7.70541 25.5957 8.67628ZM24.8078 4.29193L23.0463 7.18624L20.5912 5.75132L22.8472 2.04423C23.6645 2.61259 24.3322 3.37943 24.8078 4.29193ZM22.0268 1.56434L19.7705 5.27175L17.3153 3.83691L19.0724 0.949728C19.1337 0.948065 21.1595 1.14639 22.0268 1.56434ZM16.4947 3.35726L14.7737 2.35138C15.7559 1.71404 16.8156 1.28159 17.8814 1.07875L16.4947 3.35726ZM13.9352 2.96219L16.0005 4.16924L14.4042 6.79213L11.8269 5.28585C12.4304 4.3804 13.1474 3.60081 13.9352 2.96219ZM10.9182 14.3482L12.2064 12.2315L14.6616 13.6665L12.8788 16.5959C12.0615 16.0275 11.3937 15.2607 10.9182 14.3482ZM13.6992 17.0758L15.4823 14.146L17.9374 15.5809L16.653 17.6912C15.6274 17.7179 14.6213 17.5202 13.6992 17.0758ZM18.758 16.0604L20.0408 16.8102C19.3278 17.1666 18.5877 17.4197 17.8446 17.5612L18.758 16.0604ZM20.9898 16.264L19.2521 15.2485L21.2822 11.9127L23.8571 13.4176C23.0616 14.5931 22.0738 15.5535 20.9898 16.264Z" fill="#515151"/>
<path d="M36.6775 20.0618L34.5012 19.0223C34.3658 18.9576 34.2076 18.9607 34.0747 19.0307L32.3208 19.9556L30.5027 19.0335C30.3677 18.965 30.2079 18.965 30.0728 19.0335L28.2599 19.9529L26.5992 19.0351C26.4587 18.9575 26.2883 18.956 26.1465 19.0313L24.1885 20.0709C23.9779 20.1828 23.8828 20.4333 23.9661 20.6567L27.5307 30.2168V34.2212C27.5307 35.7414 28.7675 36.9783 30.2878 36.9783C31.8081 36.9783 33.0449 35.7414 33.0449 34.2212V30.2299L35.1565 25.0106C35.255 24.7672 35.1376 24.4902 34.8942 24.3917C34.6509 24.2933 34.3739 24.4108 34.2755 24.6541L34.0369 25.2438H32.007L32.7547 20.8013L34.3069 19.9828L35.8843 20.7363L35.5342 21.7461C35.4482 21.994 35.5795 22.2648 35.8275 22.3508C36.0753 22.4366 36.3462 22.3055 36.4322 22.0575L36.9216 20.6463C37.0009 20.4177 36.8958 20.1661 36.6775 20.0618ZM29.325 29.7383H28.3667L27.0452 26.1942H28.7284L29.325 29.7383ZM32.0945 32.1005H28.4812V30.6888H32.0945V32.1005ZM26.365 19.9916L27.8198 20.7956L28.5685 25.2437H26.6909L25.0023 20.715L26.365 19.9916ZM33.6524 26.1942L32.2184 29.7383H31.2506L31.8471 26.1942H33.6524Z" fill="#515151"/>
</g>
<defs>
<clipPath id="clip0_2676_2760">
<rect width="37" height="37" fill="white"/>
</clipPath>
</defs>
</svg>
