<svg width="31" height="37" viewBox="0 0 31 37" fill="none" xmlns="http://www.w3.org/2000/svg">
<path fill-rule="evenodd" clip-rule="evenodd" d="M28.9812 20.6156C29.9588 20.4157 30.6971 19.549 30.6971 18.5133V2.14604C30.6971 0.963045 29.734 8.54183e-05 28.551 8.54183e-05L2.14613 0C0.963128 0 0 0.962786 0 2.14587V18.5132C0 19.5488 0.737711 20.4154 1.71518 20.6155C1.71108 20.5519 1.70878 20.4878 1.70878 20.4232C1.70878 18.7881 3.03833 17.4585 4.67344 17.4585H6.05071V10.9184C6.05071 10.156 6.67131 9.53519 7.43369 9.53519H23.262C24.0245 9.53519 24.645 10.156 24.645 10.9184V17.4585H26.0231C27.6582 17.4585 28.9876 18.7882 28.9876 20.4232C28.9876 20.4879 28.9853 20.552 28.9812 20.6156ZM7.22532 17.4585H23.4706V10.7099H7.22532V17.4585Z" fill="#515151"/>
<path fill-rule="evenodd" clip-rule="evenodd" d="M7.69916 25.7645C7.80765 25.7645 7.9128 25.7343 8.00532 25.6779C9.3784 24.8408 10.954 23.3333 11.6839 21.9126C11.8322 21.6239 11.718 21.2703 11.4295 21.1219C11.1404 20.9732 10.7872 21.0872 10.6386 21.3762C10.5034 21.6394 10.3449 21.8908 10.1712 22.1303C9.51087 23.0415 8.36491 24.0835 7.39043 24.6766C7.11431 24.8447 7.02947 25.2086 7.19753 25.4835C7.30473 25.6588 7.49423 25.7645 7.69916 25.7645Z" fill="#515151"/>
<path fill-rule="evenodd" clip-rule="evenodd" d="M9.32581 31.1789C9.42508 31.1789 9.52161 31.1537 9.60859 31.1058C10.5021 30.6129 11.3969 30.0273 12.2324 29.4447C13.9116 28.2739 15.5537 26.9312 16.9381 25.4207C17.8971 24.3743 18.7866 23.1847 19.3732 21.8864C19.5068 21.5911 19.3752 21.2426 19.0799 21.1091C18.784 20.9753 18.4365 21.1062 18.3028 21.4022C17.6825 22.7759 16.6761 24.0271 15.6259 25.097C14.3232 26.4242 12.8222 27.6113 11.2886 28.6613C10.5723 29.1518 9.80304 29.6558 9.04177 30.0766C8.75788 30.2336 8.65392 30.5902 8.81063 30.8746C8.91442 31.0632 9.11132 31.1789 9.32581 31.1789Z" fill="#515151"/>
<path fill-rule="evenodd" clip-rule="evenodd" d="M26.023 22.2316C27.0199 22.2316 27.8314 21.4201 27.8314 20.4232C27.8314 19.4264 27.02 18.6147 26.023 18.6147H4.67334C3.67632 18.6147 2.86487 19.4263 2.86487 20.4232C2.86487 21.4202 3.67641 22.2316 4.67334 22.2316H26.023Z" fill="#515151"/>
<path fill-rule="evenodd" clip-rule="evenodd" d="M22.9525 25.8672C23.1578 25.8672 23.3478 25.7611 23.455 25.5852C23.6228 25.3091 23.5343 24.946 23.2585 24.7781C22.2138 24.1419 20.5173 22.7261 20.2124 21.5027C20.1343 21.1891 19.8144 20.9961 19.5007 21.0742C19.1873 21.1523 18.9945 21.4725 19.0724 21.7861C19.4691 23.3807 21.299 24.9593 22.6483 25.7811C22.7403 25.8373 22.8446 25.8672 22.9525 25.8672Z" fill="#515151"/>
<path fill-rule="evenodd" clip-rule="evenodd" d="M21.3759 31.1487C21.6284 31.1487 21.853 30.9861 21.9326 30.7461C22.0347 30.4385 21.8677 30.1063 21.5606 30.0035C21.2458 29.8979 20.9004 29.7321 20.6045 29.5848C19.8131 29.1908 19.0524 28.7156 18.3394 28.1939C15.9092 26.4158 13.9796 24.0508 12.6093 21.376C12.4614 21.0872 12.1077 20.9733 11.8189 21.1212C11.5299 21.2691 11.416 21.623 11.5641 21.9119C13.0274 24.7671 15.0803 27.2978 17.6832 29.1871C18.6567 29.8938 20.0338 30.7367 21.1932 31.1191C21.2522 31.1387 21.3139 31.1487 21.3759 31.1487Z" fill="#515151"/>
<path fill-rule="evenodd" clip-rule="evenodd" d="M21.2361 37C21.3832 37 21.5255 36.9449 21.6339 36.8451C21.7733 36.7169 21.8424 36.5283 21.8191 36.3404C21.4176 33.0946 21.8702 29.8384 22.9887 26.7756C23.5835 25.147 24.4244 23.4085 25.4244 21.9814C25.6104 21.7158 25.5463 21.3495 25.2806 21.1635C25.0148 20.9775 24.6486 21.0417 24.4625 21.3074C23.4887 22.6978 22.6606 24.3692 22.0514 25.9452C20.9104 28.896 20.3469 32.0481 20.5365 35.2137L20.5619 35.6362L20.1572 35.5117C15.8605 34.1905 11.3937 31.5479 9.18151 27.5081C9.02566 27.2235 8.66871 27.1186 8.38405 27.2746C8.09966 27.4304 7.9951 27.7875 8.15087 28.072C9.87364 31.2189 12.7388 33.5143 15.9099 35.0934C17.0546 35.6635 18.2524 36.1484 19.471 36.5367C20.003 36.7062 20.5679 36.8733 21.1156 36.9877C21.1552 36.9959 21.1956 37 21.2361 37Z" fill="#515151"/>
<path fill-rule="evenodd" clip-rule="evenodd" d="M9.45992 37.0002C9.50012 37.0002 9.54006 36.9959 9.57941 36.9877C10.1283 36.8721 10.6911 36.7066 11.2245 36.5368C12.4431 36.1488 13.6407 35.6642 14.7855 35.0945C17.9569 33.516 20.8215 31.2213 22.5441 28.0743C22.6998 27.7898 22.595 27.4327 22.3106 27.277C22.0262 27.1212 21.6691 27.226 21.5134 27.5103C19.3024 31.5509 14.8353 34.1921 10.5385 35.512L10.134 35.6362L10.1593 35.2138C10.3489 32.0482 9.78546 28.896 8.64463 25.945C8.0358 24.37 7.20719 22.6967 6.23332 21.3075C6.04699 21.0417 5.68091 20.977 5.41512 21.1634C5.1495 21.3495 5.08489 21.7156 5.27104 21.9813C6.27181 23.4089 7.11288 25.1457 7.7083 26.775C8.82763 29.838 9.27992 33.0944 8.87697 36.3404C8.85358 36.5283 8.92263 36.7168 9.06192 36.8451C9.17049 36.945 9.31251 37.0002 9.45992 37.0002Z" fill="#515151"/>
</svg>
