<svg width="78" height="78" viewBox="0 0 78 78" fill="none" xmlns="http://www.w3.org/2000/svg">
<path d="M63.5189 22.9164L47.4353 6.83276H46.9569H14.3008V71.1672H63.7009V23.8784V23.0984L63.5189 22.9164Z" stroke="#F6883E" stroke-width="2" stroke-linecap="round" stroke-linejoin="round"/>
<path d="M22.9102 32.3337L24.959 34.3565C25.0775 34.476 25.236 34.5475 25.4041 34.5571C25.5721 34.5667 25.7377 34.5137 25.869 34.4085L30.9286 30.3577" stroke="#F6883E" stroke-width="2" stroke-linecap="round" stroke-linejoin="round"/>
<path d="M34.9961 32.4219H53.3729" stroke="#F6883E" stroke-width="2" stroke-linecap="round" stroke-linejoin="round"/>
<path d="M22.6523 43.9035L24.6751 45.9263C24.793 46.0469 24.9517 46.1191 25.12 46.1287C25.2884 46.1384 25.4543 46.0847 25.5851 45.9783L30.6447 41.9275" stroke="#F6883E" stroke-width="2" stroke-linecap="round" stroke-linejoin="round"/>
<path d="M34.7305 43.9919H53.1125" stroke="#F6883E" stroke-width="2" stroke-linecap="round" stroke-linejoin="round"/>
<path d="M22.3867 55.4736L24.4095 57.4964C24.5279 57.6159 24.6865 57.6874 24.8545 57.697C25.0225 57.7066 25.1882 57.6536 25.3195 57.5484L30.3791 53.4976" stroke="#F6883E" stroke-width="2" stroke-linecap="round" stroke-linejoin="round"/>
<path d="M34.4688 55.562H52.8456" stroke="#F6883E" stroke-width="2" stroke-linecap="round" stroke-linejoin="round"/>
<path d="M63.6981 23.0568H47.5469V6.83276L63.6981 23.0568Z" fill="#F6883E" stroke="#F6883E" stroke-width="2" stroke-linecap="round" stroke-linejoin="round"/>
</svg>
