<svg width="150" height="150" viewBox="0 0 150 150" fill="none" xmlns="http://www.w3.org/2000/svg">
<path d="M70.0703 79.79L73.9003 83.62C74.7455 84.4666 75.7494 85.1383 76.8544 85.5965C77.9595 86.0548 79.144 86.2907 80.3403 86.2907C81.5366 86.2907 82.7212 86.0548 83.8262 85.5965C84.9313 85.1383 85.9351 84.4666 86.7803 83.62L90.0003 80.4L78.1103 68.51" stroke="#515151" stroke-width="2" stroke-linecap="round" stroke-linejoin="round"/>
<path d="M85.3008 75.47C87.2523 75.4643 89.1506 74.8328 90.7166 73.6682C92.2826 72.5036 93.4337 70.8674 94.0008 69" stroke="#515151" stroke-width="2" stroke-linecap="round" stroke-linejoin="round"/>
<path d="M35.7011 66.58L29.8711 72.26C28.3211 74.94 29.3811 76.82 30.2011 81.77L36.0011 118.31" stroke="#515151" stroke-width="2" stroke-linecap="round" stroke-linejoin="round"/>
<path d="M73.4602 68.3H94.2002H121.09V13.14H35.6602V68.3H55.4102" fill="#F6883E"/>
<path d="M73.4602 68.3H94.2002H121.09V13.14H35.6602V68.3H55.4102" stroke="#F6883E" stroke-linecap="round" stroke-linejoin="round"/>
<path d="M82.75 49.5H111.44" stroke="white" stroke-width="2" stroke-linecap="round" stroke-linejoin="round"/>
<path d="M82.75 57.69H111.44" stroke="white" stroke-width="2" stroke-linecap="round" stroke-linejoin="round"/>
<path d="M78.7383 41.31H111.438" stroke="white" stroke-width="2" stroke-linecap="round" stroke-linejoin="round"/>
<path d="M61.9219 26.52H94.6219" stroke="white" stroke-width="2" stroke-linecap="round" stroke-linejoin="round"/>
<path d="M49.7886 19.87C51.1197 19.87 52.4208 20.2647 53.5276 21.0042C54.6343 21.7437 55.4969 22.7948 56.0063 24.0245C56.5157 25.2543 56.649 26.6075 56.3893 27.913C56.1296 29.2185 55.4886 30.4176 54.5474 31.3588C53.6062 32.3 52.4071 32.941 51.1016 33.2007C49.7961 33.4604 48.4429 33.3271 47.2131 32.8177C45.9834 32.3083 44.9323 31.4457 44.1928 30.339C43.4533 29.2322 43.0586 27.9311 43.0586 26.6C43.0573 25.7158 43.2305 24.8401 43.5682 24.023C43.906 23.2059 44.4016 22.4634 45.0268 21.8382C45.652 21.213 46.3945 20.7174 47.2116 20.3796C48.0287 20.0419 48.9044 19.8687 49.7886 19.87Z" fill="#F6883E" stroke="white" stroke-width="2" stroke-linecap="round" stroke-linejoin="round"/>
<path d="M64.6689 118.72C65.5416 116.891 66.2673 114.995 66.8389 113.05C69.9889 102.54 70.1489 93.78 67.6389 86.76L76.1389 58.38C76.3773 57.5822 76.4562 56.7453 76.3711 55.917C76.2861 55.0887 76.0387 54.2853 75.6431 53.5527C75.2475 52.82 74.7115 52.1724 74.0656 51.6469C73.4198 51.1214 72.6767 50.7283 71.8789 50.49L69.4589 49.76C67.8504 49.2805 66.1175 49.4574 64.639 50.2519C63.1605 51.0464 62.0567 52.394 61.5689 54L46.8789 89.62" fill="white"/>
<path d="M64.6689 118.72C65.5416 116.891 66.2673 114.995 66.8389 113.05C69.9889 102.54 70.1489 93.78 67.6389 86.76L76.1389 58.38C76.3773 57.5822 76.4562 56.7453 76.3711 55.917C76.2861 55.0887 76.0387 54.2853 75.6431 53.5527C75.2475 52.82 74.7115 52.1724 74.0656 51.6469C73.4198 51.1214 72.6767 50.7283 71.8789 50.49L69.4589 49.76C67.8504 49.2805 66.1175 49.4574 64.639 50.2519C63.1605 51.0464 62.0567 52.394 61.5689 54L46.8789 89.62" stroke="#515151" stroke-width="2" stroke-linecap="round" stroke-linejoin="round"/>
<path d="M28.9102 136.86V119.06H78.7002V136.86" stroke="#515151" stroke-width="2" stroke-linecap="round" stroke-linejoin="round"/>
<path d="M28.9102 136.86V119.06H78.7002V136.86" stroke="#515151" stroke-width="2" stroke-linecap="round" stroke-linejoin="round"/>
</svg>
