<svg width="78" height="78" viewBox="0 0 78 78" fill="none" xmlns="http://www.w3.org/2000/svg">
<path d="M63.5181 22.9164L47.4345 6.83276H46.9561H14.3V71.1672H63.7001V23.8784V23.0984L63.5181 22.9164Z" stroke="#F6883E" stroke-width="2" stroke-linecap="round" stroke-linejoin="round"/>
<path d="M22.9111 32.3337L24.9599 34.3565C25.0784 34.476 25.2369 34.5475 25.405 34.5571C25.573 34.5667 25.7386 34.5137 25.8699 34.4085L30.9295 30.3577" stroke="#F6883E" stroke-width="2" stroke-linecap="round" stroke-linejoin="round"/>
<path d="M34.9961 32.4219H53.3729" stroke="#F6883E" stroke-width="2" stroke-linecap="round" stroke-linejoin="round"/>
<path d="M22.6511 43.9035L24.6739 45.9263C24.7918 46.0469 24.9505 46.1191 25.1188 46.1287C25.2872 46.1384 25.4531 46.0847 25.5839 45.9783L30.6435 41.9275" stroke="#F6883E" stroke-width="2" stroke-linecap="round" stroke-linejoin="round"/>
<path d="M34.7307 43.9919H53.1127" stroke="#F6883E" stroke-width="2" stroke-linecap="round" stroke-linejoin="round"/>
<path d="M22.386 55.4736L24.4088 57.4964C24.5272 57.6159 24.6858 57.6874 24.8538 57.697C25.0218 57.7066 25.1875 57.6536 25.3188 57.5484L30.3784 53.4976" stroke="#F6883E" stroke-width="2" stroke-linecap="round" stroke-linejoin="round"/>
<path d="M34.4707 55.562H52.8475" stroke="#F6883E" stroke-width="2" stroke-linecap="round" stroke-linejoin="round"/>
<path d="M63.7 23.0568H47.5488V6.83276L63.7 23.0568Z" fill="#F6883E" stroke="#F6883E" stroke-width="2" stroke-linecap="round" stroke-linejoin="round"/>
</svg>
