<svg width="150" height="150" viewBox="0 0 150 150" fill="none" xmlns="http://www.w3.org/2000/svg">
<path d="M122.15 44.07L91.22 13.14H90.3H27.5V136.86H122.5V45.92V44.42L122.15 44.07Z" stroke="#515151" stroke-width="2" stroke-linecap="round" stroke-linejoin="round"/>
<path d="M44.0586 62.18L47.9986 66.07C48.2264 66.2999 48.5313 66.4373 48.8544 66.4558C49.1775 66.4743 49.4961 66.3725 49.7486 66.17L59.4786 58.38" stroke="#515151" stroke-width="2" stroke-linecap="round" stroke-linejoin="round"/>
<path d="M67.3008 62.35H102.641" stroke="#515151" stroke-width="2" stroke-linecap="round" stroke-linejoin="round"/>
<path d="M43.5586 84.43L47.4486 88.32C47.6753 88.552 47.9804 88.6908 48.3042 88.7093C48.628 88.7278 48.947 88.6246 49.1986 88.42L58.9286 80.63" stroke="#515151" stroke-width="2" stroke-linecap="round" stroke-linejoin="round"/>
<path d="M66.7891 84.6H102.139" stroke="#515151" stroke-width="2" stroke-linecap="round" stroke-linejoin="round"/>
<path d="M43.0508 106.68L46.9408 110.57C47.1686 110.8 47.4735 110.937 47.7966 110.956C48.1197 110.974 48.4383 110.872 48.6908 110.67L58.4208 102.88" stroke="#515151" stroke-width="2" stroke-linecap="round" stroke-linejoin="round"/>
<path d="M66.2891 106.85H101.629" stroke="#515151" stroke-width="2" stroke-linecap="round" stroke-linejoin="round"/>
<path d="M122.501 44.34H91.4414V13.14L122.501 44.34Z" fill="#F6883E" stroke="#F6883E" stroke-width="2" stroke-linecap="round" stroke-linejoin="round"/>
</svg>
