<svg width="32" height="28" viewBox="0 0 32 28" fill="none" xmlns="http://www.w3.org/2000/svg">
<path d="M28.6801 25.8963V26.7209C28.6801 26.9275 28.5117 27.0952 28.3057 27.0952H3.04383C2.83715 27.0952 2.66949 26.9275 2.66949 26.7209V25.8963C2.66949 25.6904 2.83715 25.522 3.04383 25.522H28.3057C28.5117 25.522 28.6801 25.6904 28.6801 25.8963Z" fill="#515151"/>
<path d="M7.06325 11.1897V21.4529H5.43222C5.2978 21.4529 5.18362 21.3387 5.18362 21.2043V11.4383C5.18362 11.3039 5.2978 11.1897 5.43222 11.1897H7.06325Z" fill="#515151"/>
<path d="M9.68359 11.4383V21.2043C9.68359 21.3387 9.56941 21.4529 9.435 21.4529H7.80252V11.1897H9.435C9.56941 11.1897 9.68359 11.3032 9.68359 11.4383Z" fill="#515151"/>
<path d="M18.7052 17.9436V24.7821H12.3697V17.9436C12.3697 16.8458 13.2723 15.9526 14.3809 15.9526H16.6941C17.8027 15.9526 18.7052 16.8458 18.7052 17.9436Z" fill="#515151"/>
<path d="M3.41382 7.86035V24.7821H11.6304V17.9436C11.6304 16.4383 12.864 15.2127 14.3808 15.2127H16.6941C18.2109 15.2127 19.4445 16.4383 19.4445 17.9436V24.7821H27.6611V7.86035H3.41382ZM10.4229 21.2035C10.4229 21.7498 9.97915 22.1928 9.43427 22.1928H5.43147C4.88587 22.1928 4.44288 21.7498 4.44288 21.2042V11.4382C4.44288 10.8926 4.88587 10.4496 5.43147 10.4496H9.43427C9.97915 10.4496 10.4229 10.8926 10.4229 11.4382V21.2035ZM26.6313 21.2035C26.632 21.7498 26.1883 22.1928 25.6427 22.1928H21.6399C21.0951 22.1928 20.6513 21.7498 20.6513 21.2042V11.4382C20.6513 10.8926 21.0951 10.4496 21.6399 10.4496H25.6427C26.1883 10.4496 26.6313 10.8926 26.6313 11.4382V21.2035Z" fill="#515151"/>
<path d="M23.2724 11.1897V21.4521H21.6407C21.5062 21.4521 21.3921 21.338 21.3921 21.2035V11.4383C21.3921 11.3032 21.5062 11.1897 21.6407 11.1897H23.2724Z" fill="#515151"/>
<path d="M25.8921 11.4383V21.2035C25.8921 21.338 25.7779 21.4521 25.6435 21.4521H24.0124V11.1897H25.6435C25.7779 11.1897 25.8921 11.3032 25.8921 11.4383Z" fill="#515151"/>
<path d="M22.8649 2.69541C22.8649 2.77779 22.8425 2.85367 22.7962 2.92955C22.7622 2.98592 22.7109 3.03434 22.6423 3.0777H21.1045V2.16064H22.062C22.3323 2.16064 22.4847 2.20184 22.5635 2.23652C22.6582 2.27772 22.7275 2.33697 22.781 2.42369C22.8374 2.51402 22.8649 2.60291 22.8649 2.69541Z" fill="#515151"/>
<path d="M23.0368 4.3035C23.0368 4.41262 23.0144 4.51018 22.9696 4.60268C22.9263 4.69156 22.8757 4.75732 22.82 4.79924C22.7586 4.84621 22.6719 4.88379 22.5642 4.91125C22.4399 4.94305 22.2788 4.95967 22.0851 4.95967H21.1059H21.1045V3.81787H22.6842C22.7969 3.85762 22.8807 3.91471 22.9393 3.99203C23.0058 4.07803 23.0368 4.17775 23.0368 4.3035Z" fill="#515151"/>
<path d="M28.0304 0H3.04383V0.000722811C1.36582 0.000722811 0 1.36654 0 3.04455V4.07578C0 5.75451 1.36582 7.11961 3.04383 7.11961H28.0311C29.7098 7.11889 31.0742 5.75379 31.0742 4.07578V3.04455C31.0742 1.36582 29.7084 0 28.0304 0ZM11.1528 4.2998C11.035 4.76086 10.8138 5.12291 10.4951 5.37656C10.1736 5.63021 9.78188 5.75957 9.32949 5.75957C8.87711 5.75957 8.49699 5.66057 8.19781 5.46762C7.89574 5.27105 7.66594 4.9885 7.51346 4.62717C7.36965 4.2868 7.29738 3.91969 7.29738 3.53451C7.29738 3.10814 7.38193 2.7273 7.54887 2.40139C7.72375 2.06102 7.97668 1.79869 8.30115 1.62092C8.61334 1.44965 8.96238 1.36221 9.33672 1.36221C9.77104 1.36221 10.1454 1.47783 10.4511 1.70619C10.7575 1.93455 10.9714 2.25613 11.0884 2.6601C11.1455 2.85594 11.0321 3.06189 10.8362 3.11826C10.6404 3.17463 10.4344 3.06189 10.3781 2.86533C10.3058 2.61602 10.1851 2.43102 10.0081 2.29877C9.83174 2.16652 9.61205 2.10221 9.33744 2.10221C9.08596 2.10221 8.8641 2.15713 8.65814 2.26986C8.4623 2.37754 8.31561 2.53074 8.20793 2.73959C8.09592 2.95928 8.03811 3.22666 8.03811 3.53451C8.03811 3.81996 8.09158 4.09096 8.19564 4.33955C8.29104 4.56574 8.424 4.73195 8.60178 4.84758C8.77811 4.96176 9.02309 5.02029 9.33021 5.02029C9.61566 5.02029 9.84619 4.9473 10.0355 4.79771C10.2263 4.64523 10.3586 4.42266 10.4359 4.11697C10.4865 3.91824 10.6881 3.799 10.8861 3.84959C11.0841 3.90018 11.2033 4.1018 11.1528 4.2998ZM14.6584 5.69887H12.4485C12.244 5.69887 12.0785 5.53266 12.0785 5.32887V1.79219C12.0785 1.58768 12.244 1.42219 12.4485 1.42219C12.653 1.42219 12.8185 1.58768 12.8185 1.79219V4.95887H14.6584C14.8629 4.95887 15.0284 5.12436 15.0284 5.32887C15.0284 5.53266 14.8629 5.69887 14.6584 5.69887ZM19.3231 3.83586C19.3231 4.24055 19.2761 4.56068 19.1779 4.81506C19.068 5.09979 18.8714 5.33248 18.5925 5.5052C18.3251 5.67357 17.9819 5.75957 17.5714 5.75957C17.1775 5.75957 16.8451 5.68658 16.5813 5.5435C16.2959 5.38957 16.0878 5.16049 15.9649 4.8642C15.8558 4.60187 15.8016 4.26512 15.8016 3.83658V1.79219C15.8016 1.58768 15.9671 1.42219 16.1716 1.42219C16.3761 1.42219 16.5416 1.58768 16.5416 1.79219V3.83586C16.5416 4.16033 16.577 4.41037 16.6478 4.57947C16.7049 4.7175 16.7981 4.81867 16.9333 4.89238C17.0887 4.97621 17.3026 5.01957 17.5707 5.01957C17.8402 5.01957 18.0512 4.97187 18.2001 4.87865C18.3425 4.78977 18.4357 4.68281 18.4877 4.54984C18.5513 4.38363 18.5838 4.14443 18.5838 3.83658V1.79219C18.5838 1.58768 18.7493 1.42219 18.9538 1.42219C19.1576 1.42219 19.3231 1.58768 19.3231 1.79219V3.83586ZM23.6338 4.92852C23.5384 5.12219 23.4141 5.27756 23.2645 5.39029C23.1243 5.4958 22.9501 5.57602 22.747 5.62732C22.5606 5.67574 22.3438 5.69887 22.0844 5.69887H20.7359C20.5314 5.69887 20.3659 5.53266 20.3659 5.32887V1.79219C20.3659 1.58768 20.5314 1.42219 20.7359 1.42219H22.0634C22.3864 1.42219 22.6473 1.46699 22.8598 1.55949C23.0939 1.66211 23.2789 1.82182 23.4112 2.03572C23.5398 2.2424 23.6056 2.4657 23.6056 2.69695C23.6056 2.91664 23.5456 3.12549 23.4278 3.31772C23.4133 3.34084 23.3989 3.36252 23.383 3.3842C23.4365 3.43262 23.4849 3.48465 23.5282 3.54246C23.6937 3.75998 23.7776 4.01508 23.7776 4.30342C23.7776 4.52455 23.7291 4.73484 23.6338 4.92852Z" fill="#515151"/>
</svg>
