<svg width="150" height="150" viewBox="0 0 150 150" fill="none" xmlns="http://www.w3.org/2000/svg">
<path d="M121.361 62.37V109.2H28.6406V52.86H50.8506H121.361V62.37Z" stroke="#515151" stroke-width="2" stroke-linecap="round" stroke-linejoin="round"/>
<path d="M146.508 122V117.91H86.2883C85.7183 119.91 83.9383 119.83 81.7983 119.83H68.1983C66.0583 119.83 64.2783 119.83 63.7083 117.91H3.48828V122C3.48828 122 8.43828 125.69 12.0683 125.69H137.928C141.558 125.64 146.508 122 146.508 122Z" stroke="#515151" stroke-width="2" stroke-linecap="round" stroke-linejoin="round"/>
<path d="M130.09 117.86V48.32C130.088 47.3245 129.69 46.3707 128.985 45.6677C128.281 44.9648 127.326 44.57 126.33 44.57H23.6702C22.6747 44.57 21.7198 44.9648 21.015 45.6677C20.3101 46.3707 19.9128 47.3245 19.9102 48.32V117.86" stroke="#515151" stroke-width="2" stroke-linecap="round" stroke-linejoin="round"/>
<path d="M102.642 33.75V94.97H47.3516V24.36H94.6716L102.642 33.75Z" fill="#F6883E" stroke="#F6883E" stroke-width="2" stroke-linecap="round" stroke-linejoin="round"/>
<path d="M102.13 34.82L93.55 24.8L93 34.29L102.13 34.82Z" fill="white" stroke="white" stroke-width="2" stroke-linecap="round" stroke-linejoin="round"/>
<path d="M56.8008 42.05H93.2008" stroke="white" stroke-width="2" stroke-miterlimit="10" stroke-linecap="round"/>
<path d="M56.8008 50.6H93.2008" stroke="white" stroke-width="2" stroke-miterlimit="10" stroke-linecap="round"/>
<path d="M56.8008 59.15H93.2008" stroke="white" stroke-width="2" stroke-miterlimit="10" stroke-linecap="round"/>
<path d="M56.8008 67.7H75.0008" stroke="white" stroke-width="2" stroke-miterlimit="10" stroke-linecap="round"/>
<path d="M56.8008 75.04H81.4708" stroke="white" stroke-width="2" stroke-miterlimit="10" stroke-linecap="round"/>
<path d="M56.8008 82.39H81.4708" stroke="white" stroke-width="2" stroke-miterlimit="10" stroke-linecap="round"/>
<path d="M79.7305 67.7H90.1305" stroke="white" stroke-width="2" stroke-miterlimit="10" stroke-linecap="round"/>
</svg>
