<svg width="35" height="36" viewBox="0 0 35 36" fill="none" xmlns="http://www.w3.org/2000/svg">
<path d="M34.5524 35.1645L27.7828 12.0799C27.7408 11.9333 27.6047 11.8286 27.4476 11.8286H24.452V1.61651C24.452 0.726197 23.7258 0 22.8355 0C21.9417 0 21.2155 0.726197 21.2155 1.61651V11.8286H18.9008V1.61651C18.9008 0.726197 18.1746 0 17.2843 0C16.3905 0 15.6643 0.726197 15.6643 1.61651V11.8286H13.3496V1.61651C13.3496 0.726197 12.6234 0 11.7331 0C10.8394 0 10.1132 0.726197 10.1132 1.61651V11.8286H7.1176C6.96397 11.8286 6.82782 11.9334 6.78244 12.0799L0.012808 35.1645C-0.0151588 35.2692 0.0023295 35.3844 0.0686693 35.4717C0.135009 35.559 0.239722 35.6113 0.347976 35.6113H34.2171C34.3289 35.6113 34.4301 35.559 34.4964 35.4717C34.5629 35.3844 34.5838 35.2692 34.5524 35.1645ZM0.815896 34.913L7.37957 12.5268H10.1132V16.4406C10.1132 17.3344 10.8394 18.0606 11.7332 18.0606C12.6235 18.0606 13.3496 17.3344 13.3496 16.4406V12.5268H15.6644V16.4406C15.6644 17.3344 16.3906 18.0606 17.2844 18.0606C18.1747 18.0606 18.9009 17.3344 18.9009 16.4406V12.5268H21.2156V16.4406C21.2156 17.3344 21.9418 18.0606 22.8356 18.0606C23.7259 18.0606 24.4521 17.3344 24.4521 16.4406V12.5268H27.1858L33.7529 34.913H0.815896Z" fill="#515151"/>
<path d="M22.064 22.9552C22.064 22.9552 22.064 22.9518 22.0605 22.9518V22.9483C20.308 20.1867 16.684 19.3907 13.9432 21.1293C11.1781 22.8854 10.3856 26.5129 12.1243 29.2501C12.1278 29.2501 12.1278 29.2536 12.1278 29.2536C13.87 31.9978 17.4869 32.8112 20.2416 31.0655C23.0137 29.3059 23.7922 25.6784 22.064 22.9552ZM12.1836 27.7488L13.1961 27.1065C13.3567 27.0052 13.4056 26.7887 13.3043 26.6246C13.1996 26.4605 12.9831 26.4152 12.8225 26.5164L11.9916 27.0436C11.6111 25.0082 12.4839 22.882 14.3168 21.7194C16.443 20.3717 19.1977 20.7348 20.9015 22.5922L12.292 28.0491C12.2534 27.9513 12.215 27.85 12.1836 27.7488ZM19.868 30.4755C18.0351 31.6381 15.7413 31.5229 14.062 30.3079L14.8894 29.7842C15.0535 29.6794 15.1024 29.4631 14.9977 29.3024C14.893 29.1383 14.6764 29.0894 14.5159 29.1942L13.5034 29.8331C13.4301 29.7632 13.3567 29.6899 13.2869 29.6166L21.8965 24.1562C22.8321 26.4605 22.0047 29.1209 19.868 30.4755Z" fill="#515151"/>
<path d="M19.2335 26.2016L18.0539 26.9496C17.8909 27.053 17.8425 27.2687 17.9457 27.4314C18.0496 27.5954 18.2662 27.642 18.4275 27.5395L19.6072 26.7915C19.7702 26.6882 19.8186 26.4724 19.7153 26.3097C19.6116 26.1464 19.3958 26.0983 19.2335 26.2016Z" fill="#515151"/>
<path d="M16.8745 27.6975L15.6952 28.4455C15.5322 28.5488 15.4838 28.7646 15.5871 28.9273C15.6905 29.0907 15.9068 29.1382 16.0689 29.0354L17.2482 28.2874C17.4111 28.184 17.4595 27.9683 17.3563 27.8056C17.2529 27.6423 17.0371 27.5941 16.8745 27.6975Z" fill="#515151"/>
<path d="M21.5922 24.7059L20.4129 25.4536C20.2499 25.557 20.2015 25.7728 20.3048 25.9354C20.4086 26.0994 20.6252 26.146 20.7866 26.0435L21.9659 25.2958C22.1288 25.1925 22.1772 24.9767 22.074 24.814C21.9706 24.6511 21.7551 24.6026 21.5922 24.7059Z" fill="#515151"/>
<path d="M19.0917 23.3674L20.271 22.6197C20.4339 22.5164 20.4823 22.3006 20.3791 22.1379C20.2761 21.9753 20.0606 21.9265 19.8973 22.0298L18.718 22.7775C18.555 22.8809 18.5066 23.0966 18.6099 23.2593C18.7137 23.4233 18.9304 23.4699 19.0917 23.3674Z" fill="#515151"/>
<path d="M16.7326 24.8635L17.9123 24.1155C18.0752 24.0121 18.1237 23.7964 18.0204 23.6337C17.917 23.4704 17.7013 23.4223 17.5386 23.5256L16.3589 24.2736C16.196 24.3769 16.1476 24.5927 16.2508 24.7554C16.3547 24.9194 16.5713 24.966 16.7326 24.8635Z" fill="#515151"/>
<path d="M14.3739 26.3593L15.5532 25.6113C15.7162 25.508 15.7646 25.2922 15.6614 25.1295C15.558 24.9662 15.3419 24.9182 15.1796 25.0214L14.0003 25.7694C13.8373 25.8728 13.7889 26.0886 13.8921 26.2512C13.9956 26.4146 14.212 26.4623 14.3739 26.3593Z" fill="#515151"/>
</svg>
