<svg width="37" height="37" viewBox="0 0 37 37" fill="none" xmlns="http://www.w3.org/2000/svg">
<g clip-path="url(#clip0_2676_2639)">
<path d="M8.7059 28.2768H10.8824V30.4533H13.0588V28.2768H15.2353V30.4533H17.4118V28.2768H19.5883V30.4533H21.7647V28.2768H23.9412V30.4533H26.1177V28.2768H28.2941V26.1003H8.7059V28.2768Z" fill="#515151"/>
<path d="M0 32.6299H37V36.9828H0V32.6299Z" fill="#515151"/>
<path d="M30.4706 14.1299H34.8235V30.4534H30.4706V14.1299Z" fill="#515151"/>
<path d="M28.2941 18.0822L24.3414 14.1299H21.2632L28.2941 21.1602V18.0822Z" fill="#515151"/>
<path d="M19.1966 0.597627L18.5 0.0170898L17.8033 0.597627C11.155 6.13798 0.950102 6.42817 0 6.6155V11.9532H37V6.6155C36.1163 6.44131 25.9691 6.24129 19.1966 0.597627Z" fill="#515151"/>
<path d="M2.17648 14.1299H6.52942V30.4534H2.17648V14.1299Z" fill="#515151"/>
<path d="M8.7059 18.0321V21.1101L15.6861 14.1299H12.6081L8.7059 18.0321Z" fill="#515151"/>
</g>
<defs>
<clipPath id="clip0_2676_2639">
<rect width="37" height="37" fill="white"/>
</clipPath>
</defs>
</svg>
