<svg width="37" height="25" viewBox="0 0 37 25" fill="none" xmlns="http://www.w3.org/2000/svg">
<path d="M25.0903 0.787175C24.3229 0.0463909 23.1648 -0.221028 22.1093 0.199202C21.4293 0.469856 20.9144 0.977442 20.621 1.58918C20.8985 1.47345 21.1907 1.38797 21.4946 1.34118L25.0903 0.787175Z" fill="#515151"/>
<path d="M20.5446 3.83878C21.1175 5.27356 22.7447 5.97328 24.1803 5.40173C25.3768 4.92551 26.0621 3.71683 25.9281 2.49634L21.7714 3.1367C21.2836 3.21174 20.8493 3.46883 20.5446 3.83878Z" fill="#515151"/>
<path d="M36.9009 21.5169L33.9773 13.7048C33.7169 13.0092 33.0018 12.5954 32.2682 12.715L27.1934 13.5489C26.7881 12.3401 26.7053 10.9749 26.6003 9.76482L24.7293 9.65594C24.3876 9.63615 24.0739 9.48434 23.8463 9.22849C23.6187 8.97277 23.5044 8.64375 23.5243 8.30192C23.5635 7.62497 24.1249 7.09462 24.8024 7.09462C24.8275 7.09462 24.8529 7.09536 24.8784 7.09686L26.08 7.16679C25.6767 6.39913 24.977 5.85658 24.2282 5.95799C23.2157 6.095 22.0884 7.06724 22.0168 8.76073C22.0117 8.88193 22.0116 9.00649 22.0177 9.13504C22.0189 9.15769 22.0206 9.17872 22.0218 9.20124L24.158 16.1621C24.2276 16.2538 24.2969 16.3384 24.3662 16.4161C24.6032 16.6821 24.8382 16.8693 25.0719 16.9941L30.9553 15.9454C31.6358 15.8241 32.2881 16.2791 32.4095 16.9596C32.4686 17.291 32.39 17.6152 32.2163 17.8751L33.9873 22.6073C34.2212 23.2322 34.8142 23.6181 35.4444 23.618C35.6254 23.618 35.8097 23.5861 35.9893 23.5189C36.7939 23.2178 37.2021 22.3214 36.9009 21.5169Z" fill="#515151"/>
<path d="M31.3297 18.0461C31.8063 17.9611 32.1267 17.5017 32.0419 17.0251C31.9569 16.5485 31.4974 16.2281 31.0208 16.3129L24.558 17.4649L25.0784 19.1603L27.6721 18.6981L27.76 19.0615L28.7471 23.1414H18.0775C17.846 23.4185 17.4983 23.5952 17.1099 23.5952C16.7215 23.5952 16.3738 23.4184 16.1423 23.1414H14.0527L15.9354 12.3834C15.8805 12.2422 15.8493 12.0892 15.8493 11.9288C15.8493 11.5123 16.0531 11.1435 16.3653 10.9139C16.3669 10.9083 16.3678 10.9026 16.3694 10.897L16.6093 10.097C15.6488 10.3386 14.8928 11.1218 14.7153 12.1366L12.7894 23.1415H11.7731V5.45006C11.7731 3.94435 10.5412 2.7124 9.03549 2.7124H4.04226C2.53655 2.7124 1.30461 3.94435 1.30461 5.45006V23.1413H-7.62939e-06V24.3857H33.2279V23.1413H30.0273L28.9874 18.8427L28.8994 18.4792L31.3297 18.0461ZM3.17119 20.9918H4.91196V22.1288H3.17119V20.9918ZM7.83565 14.2001V14.667H5.2421V14.2001H7.83565ZM5.2421 13.6106V4.57898H7.83565V13.6106H5.2421ZM7.83565 15.2565V15.7232H5.2421V15.2565H7.83565ZM7.83565 16.3127V16.7796H5.2421V16.3127H7.83565ZM7.83565 17.3689V17.8357H5.2421V17.3689H7.83565ZM7.83565 18.4253V18.8922H5.2421V18.4253H7.83565ZM7.33914 19.4815L7.58379 19.9962H5.66681L5.91146 19.4815H7.33914ZM7.83565 20.9918V22.1288H5.2421V20.9918H7.83565ZM8.16579 20.9918H9.90656V22.1288H8.16579V20.9918ZM9.90656 5.45006V19.9963H8.5905L8.83514 19.4815H9.20311V18.8921H8.16579V18.4252H9.20311V17.8357H8.16579V17.3689H9.20311V16.7795H8.16579V16.3126H9.20311V15.7231H8.16579V15.2563H9.20311V14.6669H8.16579V14.2H9.20311V13.6105H8.16579V4.57898H9.03549C9.50761 4.57898 9.90656 4.97793 9.90656 5.45006ZM4.04226 4.57898H4.91196V13.6106H3.87452V14.2001H4.91196V14.667H3.87452V15.2565H4.91196V15.7232H3.87452V16.3127H4.91196V16.7796H3.87452V17.369H4.91196V17.8358H3.87452V18.4253H4.91196V18.8922H3.87452V19.4816H4.41545L4.6601 19.9963H3.17119V5.45006C3.17119 4.97793 3.57014 4.57898 4.04226 4.57898Z" fill="#515151"/>
<path d="M20.4223 11.262L23.0933 19.9655C23.2343 20.4286 24.9185 19.9161 24.7776 19.4529L21.007 7.16659C20.866 6.70343 20.3717 6.43974 19.9086 6.58073C19.7267 6.6361 19.5762 6.74648 19.4683 6.88747L19.2879 7.48926C19.2926 7.55247 19.3037 7.61606 19.3228 7.67903L20.0405 10.0176H19.5197H18.5296L18.1635 11.2385C18.1684 11.2462 18.1729 11.2542 18.1778 11.262H19.9017H20.4223Z" fill="#515151"/>
<path d="M18.0037 21.4467V12.8167C17.8968 12.9243 17.7701 13.0119 17.6304 13.0756V21.1876C17.7701 21.2515 17.8968 21.3391 18.0037 21.4467Z" fill="#515151"/>
<path d="M18.0843 22.3347C18.0843 21.7965 17.648 21.3601 17.1097 21.3601C16.5714 21.3601 16.1351 21.7964 16.1351 22.3347C16.1351 22.8729 16.5714 23.3093 17.1097 23.3093C17.648 23.3093 18.0843 22.8729 18.0843 22.3347ZM17.1097 21.8159C17.3962 21.8159 17.6284 22.0481 17.6284 22.3346C17.6284 22.621 17.3962 22.8532 17.1097 22.8532C16.8232 22.8532 16.591 22.621 16.591 22.3346C16.591 22.0481 16.8232 21.8159 17.1097 21.8159Z" fill="#515151"/>
<path d="M33.0299 3.90703L32.7754 4.3957L34.5183 5.34803C34.8201 5.51304 35.198 5.40191 35.3626 5.1004C35.5274 4.79888 35.4165 4.42084 35.115 4.25608L33.1686 3.19263C33.1927 3.43727 33.1461 3.68379 33.0299 3.90703Z" fill="#515151"/>
<path d="M19.903 4.44188C20.1526 3.60951 20.8689 2.98619 21.7278 2.85392L27.3866 1.98222C27.8756 1.90706 28.3837 1.99616 28.8175 2.23322L30.5256 3.16651L30.7563 2.72338C30.8817 2.48247 31.0773 2.29568 31.3093 2.17685L29.4141 1.14114C28.7417 0.773673 27.9548 0.635671 27.1971 0.75227L21.5381 1.62396C20.2075 1.82891 19.0979 2.79468 18.711 4.08437L16.7176 10.7314C16.8412 10.6908 16.9727 10.6682 17.1097 10.6682C17.4283 10.6682 17.7188 10.7879 17.9411 10.9836L19.903 4.44188ZM28.3 1.24219C28.408 1.1007 28.6102 1.07357 28.7517 1.18158C28.8932 1.2896 28.9203 1.49181 28.8123 1.6333C28.7043 1.77478 28.5021 1.80191 28.3606 1.6939C28.2191 1.58589 28.192 1.38355 28.3 1.24219ZM19.6561 2.9913C19.7641 2.84981 19.9663 2.82281 20.1078 2.9307C20.2493 3.03871 20.2763 3.24092 20.1684 3.38241C20.0604 3.52389 19.8582 3.5509 19.7167 3.44301C19.5752 3.335 19.5481 3.13278 19.6561 2.9913Z" fill="#515151"/>
<path d="M17.1097 10.9543C16.5715 10.9543 16.1351 11.3906 16.1351 11.929C16.1351 12.4671 16.5714 12.9036 17.1097 12.9036C17.648 12.9036 18.0843 12.4673 18.0843 11.929C18.0843 11.3906 17.6479 10.9543 17.1097 10.9543ZM17.1097 12.4476C16.8232 12.4476 16.591 12.2154 16.591 11.929C16.591 11.6425 16.8232 11.4103 17.1097 11.4103C17.3962 11.4103 17.6284 11.6425 17.6284 11.929C17.6284 12.2154 17.3962 12.4476 17.1097 12.4476Z" fill="#515151"/>
<path d="M32.776 3.7747C33.03 3.28703 32.8405 2.68587 32.3528 2.43189C31.8653 2.17778 31.264 2.36755 31.0101 2.8551L28.5413 7.59659L24.8619 7.38243C24.3117 7.3502 23.8421 7.76956 23.8102 8.31834C23.7783 8.86724 24.1972 9.33811 24.7461 9.36997L29.0688 9.62146C29.0882 9.62258 29.1076 9.6232 29.1269 9.6232C29.4963 9.6232 29.8375 9.418 30.0096 9.08749L32.776 3.7747Z" fill="#515151"/>
</svg>
