<svg width="150" height="150" viewBox="0 0 150 150" fill="none" xmlns="http://www.w3.org/2000/svg">
<path d="M25.3306 126L32.1106 132.79L38.3106 126.59L17.0706 105.39L10.3906 98.7L7.58063 95.9L1.39062 102.09L16.8606 117.56" stroke="#515151" stroke-width="2" stroke-linecap="round" stroke-linejoin="round"/>
<path d="M130.242 78.21C122.982 85.81 97.9316 90.48 96.5916 90.21L95.0016 89.93L94.7416 89.88C87.4516 88.61 79.1116 85.77 69.2216 81.24C48.3516 71.65 26.9716 87.35 16.8516 96.63L24.4516 104.24L38.8416 118.62C53.1916 108.1 68.6616 111.79 82.3916 115.06C91.3916 117.22 99.9616 119.26 106.812 116.85C121.872 111.56 140.412 85.92 147.692 75.13C148.111 74.5148 148.403 73.8215 148.549 73.0914C148.695 72.3613 148.692 71.6092 148.542 70.88C148.335 69.8345 147.836 68.869 147.102 68.0954C146.369 67.3218 145.432 66.7718 144.399 66.5091C143.366 66.2464 142.28 66.2818 141.266 66.6112C140.252 66.9405 139.353 67.5504 138.672 68.37L135.162 74.51" stroke="#515151" stroke-width="2" stroke-linecap="round" stroke-linejoin="round"/>
<path d="M73.5586 94.52C82.8986 98.06 91.9986 99 95.7386 96.84C96.2932 96.5432 96.7659 96.1141 97.1148 95.5908C97.4637 95.0674 97.678 94.466 97.7386 93.84C97.8829 93.2233 97.8933 92.5829 97.7691 91.9619C97.6449 91.3409 97.389 90.7537 97.0186 90.24" stroke="#515151" stroke-width="2" stroke-linecap="round" stroke-linejoin="round"/>
<path d="M89.6113 66.34C103.186 66.34 114.191 55.3352 114.191 41.76C114.191 28.1848 103.186 17.18 89.6113 17.18C76.0361 17.18 65.0312 28.1848 65.0312 41.76C65.0312 55.3352 76.0361 66.34 89.6113 66.34Z" fill="#F6883E" stroke="#F6883E" stroke-linecap="round" stroke-linejoin="round"/>
<path d="M99.1791 36.33L86.4191 49.1L80.0391 42.72" stroke="white" stroke-width="2" stroke-linecap="round" stroke-linejoin="round"/>
</svg>
