<svg width="18" height="23" viewBox="0 0 18 23" fill="none" xmlns="http://www.w3.org/2000/svg">
<path d="M8.3389 1.99977L8 3.99098C4.68631 3.99098 2.00003 6.6773 2 9.99097C2 11.3752 2.46775 12.6824 3.31445 13.7391C3.39984 13.8456 4.12027 14.5917 4.23145 14.7127C5.22754 15.7973 5.84058 16.7894 5.97266 17.991H10.0273C10.1594 16.7895 10.7721 15.7975 11.7676 14.7137C11.8796 14.5917 12.5977 13.848 12.6836 13.741C13.5313 12.684 14 11.376 14 9.99097L15.9902 9.65114C15.9949 9.76385 16 9.87711 16 9.99097C16 11.8834 15.3426 13.6222 14.2441 14.992C13.6238 15.7654 12 16.991 12 18.491V20.991C12 22.0956 11.1046 22.991 10 22.991H6C4.89543 22.991 4 22.0956 4 20.991V18.491C3.99996 16.991 2.37453 15.7644 1.75391 14.99C0.65647 13.6206 0 11.8825 0 9.99097C3e-05 5.57273 3.58174 1.99098 8 1.99098C8.1135 1.99098 8.2265 1.99508 8.3389 1.99977ZM6 20.991H10V19.991H6V20.991ZM13.5293 0.319336C13.7059 -0.106439 14.2942 -0.106451 14.4707 0.319336L14.7236 0.930665C15.1556 1.97346 15.9616 2.80618 16.9746 3.25684L17.6924 3.57618C18.1026 3.759 18.1026 4.35619 17.6924 4.53907L16.9326 4.87696C15.9449 5.31623 15.1534 6.11946 14.7139 7.12793L14.4668 7.69336C14.2864 8.10749 13.7137 8.10749 13.5332 7.69336L13.2871 7.12793C12.8476 6.1193 12.0552 5.31628 11.0674 4.87696L10.3076 4.53907C9.8975 4.35621 9.8974 3.75898 10.3076 3.57618L11.0254 3.25684C12.0385 2.80618 12.8445 1.97347 13.2764 0.930665L13.5293 0.319336Z" fill="#F6883E"/>
</svg>
