<svg width="15" height="15" viewBox="0 0 15 15" fill="none" xmlns="http://www.w3.org/2000/svg">
<path d="M7.50002 5.25C6.25697 5.25 5.25 6.25732 5.25 7.5C5.25 8.74297 6.25734 9.75 7.50002 9.75C8.74299 9.75 9.75002 8.74267 9.75002 7.5C9.75002 6.25702 8.74269 5.25 7.50002 5.25ZM7.50002 3.75C9.57032 3.75 11.25 5.42782 11.25 7.5C11.25 9.57037 9.57219 11.25 7.50002 11.25C5.42965 11.25 3.75 9.57217 3.75 7.5C3.75 5.42965 5.42783 3.75 7.50002 3.75ZM12.375 3.56186C12.375 4.07944 11.9544 4.49938 11.4375 4.49938C10.9199 4.49938 10.5 4.0788 10.5 3.56186C10.5 3.04492 10.9205 2.625 11.4375 2.625C11.9537 2.62435 12.375 3.04492 12.375 3.56186ZM7.50002 1.5C5.64414 1.5 5.34165 1.50491 4.47847 1.54335C3.89038 1.57096 3.49616 1.65005 3.12989 1.79225C2.80439 1.91849 2.56958 2.06923 2.31941 2.31941C2.06827 2.57055 1.9178 2.80472 1.79207 3.13037C1.64954 3.49749 1.57046 3.89108 1.54335 4.47836C1.50454 5.3064 1.5 5.59579 1.5 7.5C1.5 9.35587 1.50491 9.65835 1.54334 10.5215C1.57097 11.1093 1.65017 11.5041 1.79202 11.8695C1.91859 12.1954 2.06964 12.4308 2.31861 12.6798C2.57074 12.9316 2.80561 13.0825 3.12817 13.207C3.49891 13.3504 3.89288 13.4296 4.47836 13.4566C5.3064 13.4954 5.59579 13.5 7.50002 13.5C9.35589 13.5 9.65837 13.495 10.5215 13.4566C11.108 13.4291 11.5031 13.3497 11.8695 13.2079C12.1946 13.0817 12.4307 12.9301 12.6798 12.6814C12.932 12.4288 13.0826 12.1945 13.2073 11.8712C13.3502 11.5018 13.4296 11.1073 13.4567 10.5217C13.4954 9.6936 13.5 9.40417 13.5 7.5C13.5 5.64414 13.4951 5.34166 13.4567 4.47853C13.4291 3.89179 13.3496 3.49612 13.2077 3.12988C13.0818 2.80528 12.9305 2.56976 12.6806 2.31941C12.429 2.06786 12.1955 1.9177 11.8696 1.79206C11.5028 1.64965 11.1086 1.57047 10.5216 1.54336C9.69362 1.50454 9.40419 1.5 7.50002 1.5ZM7.50002 0C9.53747 0 9.79187 0.00749996 10.5919 0.045C11.39 0.0818774 11.9344 0.208125 12.4125 0.39375C12.9068 0.584378 13.3244 0.841875 13.7412 1.25875C14.1575 1.67563 14.415 2.09437 14.6063 2.5875C14.7912 3.065 14.9175 3.61 14.955 4.40812C14.9906 5.20813 15 5.4625 15 7.5C15 9.53752 14.9925 9.79185 14.955 10.5919C14.9181 11.39 14.7912 11.9344 14.6063 12.4125C14.4156 12.9069 14.1575 13.3243 13.7412 13.7413C13.3244 14.1575 12.905 14.415 12.4125 14.6062C11.9344 14.7913 11.39 14.9175 10.5919 14.955C9.79187 14.9906 9.53747 15 7.50002 15C5.4625 15 5.20812 14.9925 4.40813 14.955C3.61 14.9181 3.06625 14.7913 2.5875 14.6062C2.09375 14.4156 1.67562 14.1575 1.25875 13.7413C0.841875 13.3243 0.585 12.905 0.39375 12.4125C0.208125 11.9344 0.0825001 11.39 0.0450001 10.5919C0.00937514 9.79185 0 9.53752 0 7.5C0 5.4625 0.00750014 5.20813 0.0450001 4.40812C0.0818701 3.60937 0.208125 3.06562 0.39375 2.5875C0.58437 2.09375 0.841875 1.67563 1.25875 1.25875C1.67562 0.841875 2.09438 0.585 2.5875 0.39375C3.06563 0.208125 3.60938 0.0825 4.40813 0.045C5.20812 0.00937496 5.4625 0 7.50002 0Z" fill="white"/>
</svg>
