<svg width="15" height="14" viewBox="0 0 15 14" fill="none" xmlns="http://www.w3.org/2000/svg">
<path d="M3.00004 1.50068C2.99976 2.11141 2.62924 2.661 2.06318 2.89028C1.49713 3.11957 0.84858 2.98277 0.423352 2.54439C-0.00187504 2.10601 -0.11886 1.45359 0.127553 0.894785C0.373973 0.335975 0.934583 -0.017643 1.54504 0.000679464C2.35584 0.025017 3.00041 0.68951 3.00004 1.50068ZM3.04504 4.11068H0.0450374V13.5007H3.04504V4.11068ZM7.78505 4.11068H4.80004V13.5007H7.75505V8.57316C7.75505 5.82816 11.3326 5.57316 11.3326 8.57316V13.5007H14.2951V7.55316C14.2951 2.92568 9.00005 3.09818 7.75505 5.37066L7.78505 4.11068Z" fill="white"/>
</svg>
