<svg width="182" height="63" viewBox="0 0 182 63" fill="none" xmlns="http://www.w3.org/2000/svg">
<path d="M174.674 37.3821L180.999 27.571H175.357C174.492 27.7527 173.901 28.1615 173.4 29.0245L171.262 32.2495L174.674 37.3821Z" fill="#141414"/>
<path d="M108.882 15.1709L110.428 11.0829C110.838 9.90196 111.475 7.94883 111.475 7.94883C111.475 7.94883 112.067 9.81112 112.521 11.0829L114.068 15.1709H108.882ZM116.799 22.938H122.259L113.796 1.81689H109.018L100.555 22.938H106.015L107.198 19.6222H115.57L116.799 22.938ZM98.1435 1.77147L94.276 7.40377C93.6845 8.35762 93.2295 8.94811 93.184 8.94811C93.184 8.94811 92.6835 8.35762 92.092 7.40377L88.27 1.77147H82.537L90.636 13.5357V22.8926H95.6865V13.5357L103.74 1.77147H98.1435ZM72.345 15.1709L73.892 11.0829C74.3015 9.90196 74.9385 7.94883 74.9385 7.94883C74.9385 7.94883 75.53 9.81112 75.985 11.0829L77.532 15.1709H72.345ZM80.3075 22.938H85.7675L77.3045 1.81689H72.527L64.064 22.938H69.524L70.707 19.6222H79.079L80.3075 22.938ZM62.699 7.17666C61.6525 3.86087 58.513 1.36267 54.418 1.36267C49.8225 1.36267 46.501 4.36051 46.501 7.6763C46.501 11.4463 49.413 12.809 51.961 13.7174C55.055 14.8984 57.421 15.2617 57.421 16.9423C57.421 17.987 56.5565 18.8046 54.782 18.8046C52.5525 18.8046 51.0055 17.1694 50.505 15.5797L45.6365 16.8515C47.0015 20.7578 50.141 23.256 54.6 23.256C59.5595 23.256 62.881 20.5307 62.881 16.6244C62.881 12.9452 59.5595 11.1738 56.3745 10.0837C53.8265 9.1298 51.688 8.63016 51.688 7.2675C51.688 6.40449 52.5525 5.63232 54.0995 5.63232C55.6465 5.63232 57.239 6.49533 57.785 8.35762L62.699 7.17666Z" fill="#141414"/>
<path d="M38.9025 1.36267H0V48.6467H38.9025V1.36267Z" fill="#1C1C1C"/>
<path d="M37.3555 2.81616H1.456V47.2841H37.3555V2.81616Z" stroke="#D7B56D" stroke-width="0.74" stroke-miterlimit="22.93"/>
<path d="M19.6105 23.3468L18.928 22.7563L19.7925 22.3929L19.6105 23.3468Z" fill="#D7B56D"/>
<path d="M15.197 17.2149C15.6065 18.7592 16.744 20.7124 17.6085 21.6662C20.748 20.3036 24.115 19.7131 28.119 20.8941C27.1635 28.7975 22.1585 34.5206 18.0635 37.2459L19.6105 38.2906C25.48 34.5206 31.122 28.1616 32.851 18.2596C24.934 14.6713 17.927 16.261 15.197 17.2149Z" fill="#D7B56D"/>
<path d="M16.744 29.297C17.836 28.1161 18.9735 26.2084 19.383 25.0274C16.653 22.9834 14.4235 20.349 13.5135 16.3518C20.839 13.2177 28.2555 14.7167 32.7145 16.8515L32.8965 14.9892C26.754 11.7642 18.291 10.1291 8.918 13.6265C9.646 22.1658 14.6055 27.3439 16.744 29.297Z" fill="#D7B56D"/>
<path d="M26.3445 21.8933C24.7975 21.4845 22.568 21.4845 21.294 21.7116C20.8845 25.1183 19.656 28.3432 16.6985 31.0685C10.3285 26.3447 7.8715 19.168 7.5985 14.217L5.9605 15.0801C6.2335 21.9842 9.0545 30.1601 16.6985 36.4737C23.7965 31.6136 25.844 24.7095 26.3445 21.8933Z" fill="#D7B56D"/>
<path d="M179.179 61.4103H179.68V55.1875H182V54.7787H176.859V55.1875H179.179V61.4103ZM172.445 61.592C173.719 61.592 174.674 60.8198 174.674 59.8205C174.674 58.8667 173.992 58.2762 172.445 57.9583C170.807 57.5949 170.489 57.1861 170.489 56.5048C170.489 55.8234 171.171 55.233 172.126 55.233C172.9 55.233 173.492 55.5055 174.083 56.0051L174.447 55.5963C173.764 55.0967 173.173 54.7333 172.126 54.7333C170.943 54.7333 169.988 55.5055 169.988 56.4593C169.988 57.504 170.671 58.0037 172.218 58.3216C173.764 58.685 174.083 59.003 174.083 59.7751C174.083 60.5473 173.4 61.1378 172.354 61.1378C171.307 61.1378 170.716 60.7744 169.943 60.0931L169.579 60.4565C170.58 61.1832 171.353 61.5012 172.445 61.592ZM162.526 61.4103H167.304V61.0015H163.026V58.3671H166.849V57.9583H163.026V55.3238H167.304V54.915H162.526V61.4103ZM152.744 61.5012H153.153L155.109 55.6872L157.066 61.5012H157.476L159.887 54.7787H159.386L157.339 60.6381L155.382 54.6879H155.019L153.062 60.6381L151.014 54.6879H150.514L152.744 61.5012ZM137.865 59.1392L139.639 55.3238L141.414 59.1392H137.865ZM136.364 61.4103H136.864L137.729 59.548H141.641L142.506 61.4103H143.007L139.912 54.6879H139.412L136.364 61.4103ZM129.084 61.0015V55.2784H130.812C132.678 55.2784 133.906 56.5502 133.906 58.1854C133.906 59.8206 132.724 61.0015 130.812 61.0015H129.084ZM128.583 61.4103H130.812C132.86 61.4103 134.316 59.9568 134.316 58.0945C134.316 56.2322 132.86 54.7787 130.812 54.7787H128.583V61.4103ZM124.852 61.4103H125.353V54.7787H124.852V61.4103ZM118.528 61.1832C116.89 61.1832 115.707 59.8206 115.707 58.1854C115.707 56.5502 116.89 55.1875 118.528 55.1875C120.166 55.1875 121.349 56.5502 121.349 58.1854C121.349 59.8206 120.12 61.0924 118.528 61.1832ZM118.528 61.592C120.575 61.592 121.849 59.9568 121.849 58.1854C121.849 56.4139 120.484 54.7787 118.528 54.7787C116.571 54.7787 115.206 56.4139 115.206 58.1854C115.115 59.9568 116.48 61.592 118.528 61.592ZM106.652 61.4103H107.153V55.5509L111.839 61.4103H112.203V54.7787H111.702V60.5473L107.107 54.7333H106.698V61.4103H106.652ZM93.8665 58.2762V55.2784H96.187C97.37 55.2784 98.0525 55.8689 98.0525 56.7319C98.0525 57.6857 97.188 58.2762 96.096 58.2762C96.1415 58.2762 93.8665 58.2762 93.8665 58.2762ZM93.4115 61.4103H93.912V58.685H96.1415L98.28 61.4103H98.8715L96.642 58.5942C97.734 58.4125 98.5985 57.822 98.5985 56.7319C98.5985 56.2322 98.4165 55.778 98.098 55.4601C97.6885 55.0513 97.0515 54.7787 96.2325 54.7787H93.4115V61.4103ZM85.7675 61.4103H90.545V61.0015H86.268V58.3671H90.09V57.9583H86.268V55.3238H90.545V54.915H85.7675V61.4103ZM80.2165 61.4103H80.717V55.1875H83.0375V54.7787H77.896V55.1875H80.2165C80.2165 55.2784 80.2165 61.4103 80.2165 61.4103ZM71.435 59.1392L73.2095 55.3238L74.984 59.1392H71.435ZM69.888 61.4103H70.3885L71.253 59.548H75.166L76.0305 61.4103H76.531L73.437 54.6879H72.9365L69.888 61.4103ZM62.79 61.4103H67.5675V61.0015H63.2905V58.3671H67.1125V57.9583H63.2905V55.3238H67.5675V54.915H62.79V61.4103ZM55.1915 58.2762V55.2784H57.512C58.695 55.2784 59.3775 55.8689 59.3775 56.7319C59.3775 57.6857 58.513 58.2762 57.421 58.2762H55.1915ZM54.691 61.4103H55.1915V58.685H57.421L59.5595 61.4103H60.151L57.9215 58.5942C59.0135 58.4125 59.878 57.822 59.878 56.7319C59.878 56.2322 59.696 55.778 59.3775 55.4601C58.968 55.0513 58.331 54.7787 57.512 54.7787H54.691V61.4103ZM49.049 61.592C50.141 61.592 51.0965 61.0924 51.688 60.5473V58.0037H48.958V58.4125H51.1875V60.2748C50.687 60.6836 49.9135 61.0469 49.049 61.0469C47.2745 61.0469 46.228 59.7751 46.228 58.0491C46.228 56.4139 47.32 55.0513 48.958 55.0513C50.0045 55.0513 50.596 55.4146 51.0965 55.8234L51.4605 55.4601C50.778 54.8696 50.0955 54.597 49.049 54.597C47.0925 54.597 45.7275 56.2322 45.7275 58.0037C45.6365 60.0477 46.9105 61.592 49.049 61.592Z" fill="#141414"/>
<path d="M181.135 48.8284H174.492L170.807 43.2869L167.304 48.8284H160.66L167.576 38.336L160.387 27.7527H167.121L180.681 48.0108C180.908 48.2833 181.045 48.5559 181.135 48.8284Z" fill="#141414" stroke="white" stroke-miterlimit="10"/>
<path d="M147.011 27.0714V35.2473H139.094V27.0714H133.952V48.1925H139.094V40.0166H147.011V48.1925H152.152V27.0714H147.011ZM112.795 27.0714V31.8407H119.119V48.1925H124.215V31.8407H130.722V27.0714H112.795ZM104.696 27.0714V38.6539C104.696 42.3331 103.24 43.832 100.419 43.832C97.5975 43.832 96.1415 42.2877 96.1415 38.6539V27.0714H91V38.8356C91 45.2401 94.7765 48.6467 100.373 48.6467C106.015 48.6467 109.746 45.1493 109.746 38.8356V27.0714H104.696ZM70.6615 37.6547C70.6615 34.0663 72.982 31.7044 76.3945 31.7044C79.807 31.7044 82.1275 34.1118 82.1275 37.6547C82.1275 41.1976 79.807 43.6049 76.3945 43.6049C72.9365 43.6049 70.6615 41.243 70.6615 37.6547ZM65.338 37.6547C65.338 44.0591 70.2065 48.6467 76.349 48.6467C82.4915 48.6467 87.36 44.0591 87.36 37.6547C87.36 31.2502 82.4005 26.6626 76.349 26.6626C70.2975 26.6626 65.338 31.2502 65.338 37.6547ZM62.699 32.4766C61.6525 29.1608 58.513 26.6626 54.418 26.6626C49.8225 26.6626 46.501 29.6604 46.501 32.9762C46.501 36.7462 49.413 38.1089 51.961 39.0173C55.055 40.1074 57.421 40.5617 57.421 42.2423C57.421 43.287 56.5565 44.1046 54.782 44.1046C52.5525 44.1046 51.0055 42.4694 50.505 40.8796L45.6365 42.2423C47.0015 46.1485 50.141 48.6467 54.6 48.6467C59.5595 48.6467 62.881 45.9214 62.881 42.0152C62.881 38.336 59.5595 36.6554 56.3745 35.4744C53.8265 34.5206 51.688 34.0209 51.688 32.6583C51.688 31.7953 52.5525 31.0231 54.0995 31.0231C55.6465 31.0231 57.239 31.8861 57.785 33.7484L62.699 32.4766Z" fill="#141414"/>
</svg>
