<?xml version="1.0" encoding="utf-8"?>
<!-- Generator: Adobe Illustrator 24.1.2, SVG Export Plug-In . SVG Version: 6.00 Build 0)  -->
<svg version="1.1" id="Layer_1" xmlns="http://www.w3.org/2000/svg" xmlns:xlink="http://www.w3.org/1999/xlink" x="0px" y="0px"
	 viewBox="0 0 512 512" style="enable-background:new 0 0 512 512;" xml:space="preserve">
<style type="text/css">
	.st0{fill:#A26E4D;}
</style>
<g>
	<g>
		<path class="st0" d="M116,377.4h280.1c21,0,38.1-17,38.1-38.1V109.2c0-52.6-42.6-95.2-95.2-95.2H173.1
			c-52.6,0-95.2,42.6-95.2,95.2v230.1C77.9,360.3,94.9,377.4,116,377.4L116,377.4z M359.1,325c-14,0-25.4-11.4-25.4-25.4
			c0-14,11.4-25.4,25.4-25.4c14,0,25.4,11.4,25.4,25.4C384.5,313.7,373.2,325,359.1,325z M384.5,112.4v104.7H276V112.4H384.5z
			 M127.5,112.4H236v104.7H127.5V112.4z M152.9,274.3c14,0,25.4,11.4,25.4,25.4c0,14-11.4,25.4-25.4,25.4c-14,0-25.4-11.4-25.4-25.4
			C127.5,285.6,138.8,274.3,152.9,274.3z"/>
	</g>
	<g>
		<path class="st0" d="M404.1,498h47.9l-70.3-92h-47.9l19.1,25H159.2l19.1-25h-47.9l-70.3,92h47.8l24.7-32.4h246.7L404.1,498z"/>
	</g>
</g>
</svg>
