<svg width="37" height="37" viewBox="0 0 37 37" fill="none" xmlns="http://www.w3.org/2000/svg">
<path fill-rule="evenodd" clip-rule="evenodd" d="M36.3281 36.7398H0.650264C0.303456 36.7398 0 36.4364 0 36.0896V30.9091C0 30.5407 0.303456 30.2589 0.650264 30.2589H6.48096V34.0954C6.48096 34.2688 6.63269 34.4206 6.80609 34.4206C7.00117 34.4206 7.13122 34.2688 7.13122 34.0954V30.2589V28.915C7.13122 28.5465 7.43468 28.2647 7.78149 28.2647H13.6122V32.4481C13.6122 32.6432 13.7639 32.7949 13.9373 32.7949C14.1324 32.7949 14.2841 32.6432 14.2841 32.4481V28.2647V26.9209C14.2841 26.5524 14.5659 26.2706 14.9344 26.2706H20.7434V30.454C20.7434 30.649 20.8951 30.8008 21.0902 30.8008C21.2636 30.8008 21.4153 30.649 21.4153 30.454V26.2706V24.5582C21.4153 24.2114 21.6971 23.908 22.0656 23.908H27.8963V28.113C27.8963 28.2864 28.048 28.4381 28.2214 28.4381C28.3948 28.4381 28.5466 28.2864 28.5466 28.113V21.8705C28.5466 21.502 28.85 21.2202 29.1968 21.2202H36.3281C36.6965 21.2202 36.9783 21.502 36.9783 21.8705V29.3702V29.5436V36.0896C36.9783 36.4364 36.6965 36.7398 36.3281 36.7398Z" fill="#515151"/>
<path fill-rule="evenodd" clip-rule="evenodd" d="M35.4827 12.7886H1.51728C1.14879 12.7886 0.867012 12.4851 0.867012 12.1383C0.867012 11.7698 1.14879 11.488 1.51728 11.488H35.4827C35.8512 11.488 36.133 11.7698 36.133 12.1383C36.133 12.4851 35.8512 12.7886 35.4827 12.7886Z" fill="#515151"/>
<path fill-rule="evenodd" clip-rule="evenodd" d="M12.6585 25.317H2.94786C2.57937 25.317 2.29759 25.0353 2.29759 24.6668V14.9562C2.29759 14.6094 2.57937 14.3059 2.94786 14.3059H12.6585C13.0053 14.3059 13.3087 14.6094 13.3087 14.9562V24.6668C13.3087 25.0353 13.0053 25.317 12.6585 25.317ZM9.19039 20.18C9.38547 20.18 9.53719 20.0066 9.53719 19.8115V16.972C9.53719 16.7769 9.38547 16.6035 9.19039 16.6035H6.41593C6.22085 16.6035 6.04745 16.7769 6.04745 16.972V22.651C6.04745 22.846 6.22085 23.0194 6.41593 23.0194C6.61101 23.0194 6.76274 22.846 6.76274 22.651V20.18H9.19039ZM6.76274 19.443V17.3405H8.8219V19.443H6.76274Z" fill="#515151"/>
<path fill-rule="evenodd" clip-rule="evenodd" d="M14.9344 23.7131C14.5876 23.7131 14.2841 23.4313 14.2841 23.0628V14.9562C14.2841 14.6094 14.5876 14.3059 14.9344 14.3059C15.3029 14.3059 15.5846 14.6094 15.5846 14.9562V23.0628C15.5846 23.4313 15.3029 23.7131 14.9344 23.7131Z" fill="#515151"/>
<path fill-rule="evenodd" clip-rule="evenodd" d="M0.650264 23.7131C0.303456 23.7131 0 23.4313 0 23.0628V14.9562C0 14.6094 0.303456 14.3059 0.650264 14.3059C1.01875 14.3059 1.30053 14.6094 1.30053 14.9562V23.0628C1.30053 23.4313 1.01875 23.7131 0.650264 23.7131Z" fill="#515151"/>
<path fill-rule="evenodd" clip-rule="evenodd" d="M23.9947 23.0411H20.4833C20.1582 23.0411 19.8764 22.781 19.8764 22.4558V19.9198H18.7493C18.5108 19.9198 18.2941 19.7898 18.2074 19.573C18.099 19.3562 18.1207 19.1178 18.2724 18.9444L21.7622 14.5226C22.0006 14.2408 22.4774 14.2408 22.7159 14.5226L26.1623 18.8794C26.2706 18.9878 26.3357 19.1395 26.3357 19.3129C26.3357 19.638 26.0756 19.9198 25.7288 19.9198H24.6016V22.4558C24.6016 22.781 24.3199 23.0411 23.9947 23.0411Z" fill="#515151"/>
<path fill-rule="evenodd" clip-rule="evenodd" d="M35.9162 10.7077H35.266C35.3093 10.5126 35.331 10.2959 35.331 10.0791C35.331 8.21504 33.8137 6.71943 31.9713 6.71943C30.1289 6.71943 28.6116 8.21504 28.6116 10.0791C28.6116 10.2959 28.6333 10.5126 28.6766 10.7077H27.0726C27.116 10.5126 27.1377 10.2959 27.1377 10.0791C27.1377 8.21504 25.6421 6.71943 23.778 6.71943C21.9356 6.71943 20.4183 8.21504 20.4183 10.0791C20.4183 10.2959 20.4399 10.5126 20.4833 10.7077H19.833C19.4862 10.7077 19.2044 10.4259 19.2044 10.0791V4.85534C19.2044 4.48686 19.4862 4.20508 19.833 4.20508H33.2935C35.0926 4.20508 36.5665 5.65733 36.5665 7.4564V10.0791C36.5665 10.4259 36.263 10.7077 35.9162 10.7077Z" fill="#515151"/>
<path fill-rule="evenodd" clip-rule="evenodd" d="M32.6432 5.48389H22.0656C21.8705 5.48389 21.6971 5.41886 21.5671 5.26714C21.437 5.11541 21.3937 4.92033 21.4153 4.74692L22.1306 0.541886C22.1957 0.216755 22.4558 0 22.7809 0H30.8442C31.1043 0 31.3427 0.151728 31.4511 0.390158L33.2068 4.50849C33.2718 4.61687 33.2935 4.72525 33.2935 4.8553C33.2935 5.20211 33.0117 5.48389 32.6432 5.48389ZM22.8242 4.20504H31.6678L30.4323 1.27885H23.3228L22.8242 4.20504Z" fill="#515151"/>
<path fill-rule="evenodd" clip-rule="evenodd" d="M26.0756 5.48389C25.7071 5.48389 25.4253 5.20211 25.4253 4.8553V0.650264C25.4253 0.281781 25.7071 0 26.0756 0C26.4224 0 26.7042 0.281781 26.7042 0.650264V4.8553C26.7042 5.20211 26.4224 5.48389 26.0756 5.48389Z" fill="#515151"/>
<path fill-rule="evenodd" clip-rule="evenodd" d="M31.9713 12.7885C30.4757 12.7885 29.2619 11.5747 29.2619 10.0791C29.2619 8.58345 30.4757 7.36963 31.9713 7.36963C33.4669 7.36963 34.6807 8.58345 34.6807 10.0791C34.6807 11.5747 33.4669 12.7885 31.9713 12.7885ZM31.9713 10.8594C31.5378 10.8594 31.1693 10.5126 31.1693 10.0791C31.1693 9.62388 31.5378 9.27707 31.9713 9.27707C32.4048 9.27707 32.7733 9.62388 32.7733 10.0791C32.7733 10.5126 32.4048 10.8594 31.9713 10.8594Z" fill="#515151"/>
<path fill-rule="evenodd" clip-rule="evenodd" d="M17.1453 10.7077H16.495C16.5384 10.5126 16.56 10.2959 16.56 10.0791C16.56 8.21504 15.0644 6.71943 13.222 6.71943C11.3579 6.71943 9.86232 8.21504 9.86232 10.0791C9.86232 10.2959 9.884 10.5126 9.92735 10.7077H8.32337C8.34504 10.5126 8.36672 10.2959 8.36672 10.0791C8.36672 8.21504 6.87111 6.71943 5.0287 6.71943C3.16461 6.71943 1.669 8.21504 1.669 10.0791C1.669 10.2959 1.69068 10.5126 1.73403 10.7077H1.08377C0.715283 10.7077 0.433502 10.4259 0.433502 10.0791V4.85534C0.433502 4.48686 0.715283 4.20508 1.08377 4.20508H14.5442C16.3433 4.20508 17.7955 5.65733 17.7955 7.4564V10.0791C17.7955 10.4259 17.5138 10.7077 17.1453 10.7077Z" fill="#515151"/>
<path fill-rule="evenodd" clip-rule="evenodd" d="M13.894 5.48389H3.29466C3.09958 5.48389 2.92618 5.41886 2.79613 5.26714C2.68775 5.11541 2.62272 4.92033 2.66608 4.74692L3.38137 0.541886C3.42472 0.216755 3.7065 0 4.00995 0H12.0949C12.355 0 12.5718 0.151728 12.6801 0.390158L14.4358 4.50849C14.5009 4.61687 14.5442 4.72525 14.5442 4.8553C14.5442 5.20211 14.2408 5.48389 13.894 5.48389ZM4.0533 4.20504H12.8969L11.6614 1.27885H4.55184L4.0533 4.20504Z" fill="#515151"/>
<path fill-rule="evenodd" clip-rule="evenodd" d="M7.30462 5.48389C6.95781 5.48389 6.65436 5.20211 6.65436 4.8553V0.650264C6.65436 0.281781 6.95781 0 7.30462 0C7.65143 0 7.95489 0.281781 7.95489 0.650264V4.8553C7.95489 5.20211 7.65143 5.48389 7.30462 5.48389Z" fill="#515151"/>
<path fill-rule="evenodd" clip-rule="evenodd" d="M23.778 12.7885C22.2824 12.7885 21.0685 11.5747 21.0685 10.0791C21.0685 8.58345 22.2824 7.36963 23.778 7.36963C25.2736 7.36963 26.4874 8.58345 26.4874 10.0791C26.4874 11.5747 25.2736 12.7885 23.778 12.7885ZM23.778 10.8594C23.3445 10.8594 22.976 10.5126 22.976 10.0791C22.976 9.62388 23.3445 9.27707 23.778 9.27707C24.2115 9.27707 24.58 9.62388 24.58 10.0791C24.58 10.5126 24.2115 10.8594 23.778 10.8594Z" fill="#515151"/>
<path fill-rule="evenodd" clip-rule="evenodd" d="M13.222 12.7885C11.7264 12.7885 10.5126 11.5747 10.5126 10.0791C10.5126 8.58345 11.7264 7.36963 13.222 7.36963C14.696 7.36963 15.9315 8.58345 15.9315 10.0791C15.9315 11.5747 14.696 12.7885 13.222 12.7885ZM13.222 10.8594C12.7668 10.8594 12.42 10.5126 12.42 10.0791C12.42 9.62388 12.7668 9.27707 13.222 9.27707C13.6555 9.27707 14.0023 9.62388 14.0023 10.0791C14.0023 10.5126 13.6555 10.8594 13.222 10.8594Z" fill="#515151"/>
<path fill-rule="evenodd" clip-rule="evenodd" d="M5.0287 12.7885C3.53309 12.7885 2.31927 11.5747 2.31927 10.0791C2.31927 8.58345 3.53309 7.36963 5.0287 7.36963C6.5243 7.36963 7.73813 8.58345 7.73813 10.0791C7.73813 11.5747 6.5243 12.7885 5.0287 12.7885ZM5.0287 10.8594C4.57351 10.8594 4.22671 10.5126 4.22671 10.0791C4.22671 9.62388 4.57351 9.27707 5.0287 9.27707C5.46221 9.27707 5.80902 9.62388 5.80902 10.0791C5.80902 10.5126 5.46221 10.8594 5.0287 10.8594Z" fill="#515151"/>
</svg>
