<svg width="37" height="34" viewBox="0 0 37 34" fill="none" xmlns="http://www.w3.org/2000/svg">
<path fill-rule="evenodd" clip-rule="evenodd" d="M25.0525 7.11279C22.2853 7.11279 20.0421 9.35603 20.0421 12.1232C20.0421 14.8903 22.2853 17.1336 25.0525 17.1336C27.8196 17.1336 30.0629 14.8903 30.0629 12.1232C30.0629 9.35603 27.8196 7.11279 25.0525 7.11279Z" fill="#515151"/>
<path fill-rule="evenodd" clip-rule="evenodd" d="M24.9899 1.47047C24.2147 0.127734 22.4898 -0.431683 21.0986 0.371515L11.1044 6.2609C9.71733 7.06546 9.34115 8.83641 10.1154 10.1775L11.8566 13.1933C12.0416 13.5137 11.912 13.8329 11.7137 13.9512L5.32451 17.521C5.31293 17.5275 5.30148 17.5341 5.29013 17.5409L4.85136 17.8064C4.4514 18.0482 4.23642 18.507 4.30656 18.9692C4.37671 19.4313 4.7182 19.8057 5.17193 19.9181L7.15296 20.4084C8.78265 20.8117 10.4857 20.8148 12.1169 20.4173L15.5059 19.5915C16.1332 19.4385 16.7765 19.3613 17.4223 19.3613H19.9311C20.3445 19.3613 20.7267 19.1404 20.933 18.7821C21.1394 18.4238 21.1388 17.9826 20.9313 17.6249L20.4353 16.7697L16.742 10.3728C16.5556 10.0499 16.6886 9.72821 16.8895 9.61223L24.0031 5.38594C25.3884 4.58084 25.7638 2.81095 24.9899 1.47047Z" fill="#515151"/>
<path fill-rule="evenodd" clip-rule="evenodd" d="M0.0699335 17.1242C0.288164 16.5241 0.951577 16.2145 1.55171 16.4328L5.70066 17.9415C8.24262 18.8659 11.0288 18.8659 13.5708 17.9415C16.5027 16.8753 19.709 16.8319 22.6687 17.8185L22.9897 17.9256C25.7914 18.8594 28.8334 18.77 31.5753 17.6732L34.6438 16.4458C35.2367 16.2087 35.9097 16.4971 36.1468 17.09C36.384 17.6828 36.0956 18.3557 35.5027 18.593L32.4341 19.8203C29.1843 21.1202 25.5789 21.2262 22.2585 20.1194L21.9375 20.0124C19.4727 19.1909 16.8027 19.2269 14.3611 20.1148C11.3086 21.2248 7.96284 21.2248 4.91037 20.1148L0.761425 18.6059C0.161291 18.3878 -0.148297 17.7244 0.0699335 17.1242Z" fill="#515151"/>
<path fill-rule="evenodd" clip-rule="evenodd" d="M0.0699335 23.291C0.288164 22.6908 0.951577 22.3813 1.55171 22.5996L5.70066 24.1082C8.24262 25.0326 11.0288 25.0326 13.5708 24.1082C16.5027 23.042 19.709 22.9987 22.6687 23.9852L22.9897 24.0924C25.7914 25.0261 28.8334 24.9367 31.5753 23.84L34.6438 22.6125C35.2367 22.3754 35.9097 22.6638 36.1468 23.2568C36.384 23.8495 36.0956 24.5225 35.5027 24.7597L32.4341 25.9871C29.1843 27.287 25.5789 27.3929 22.2585 26.2861L21.9375 26.1792C19.4727 25.3576 16.8027 25.3937 14.3611 26.2815C11.3086 27.3915 7.96284 27.3915 4.91037 26.2815L0.761425 24.7727C0.161291 24.5545 -0.148297 23.8912 0.0699335 23.291Z" fill="#515151"/>
<path fill-rule="evenodd" clip-rule="evenodd" d="M0.0699335 29.4577C0.288164 28.8576 0.951577 28.548 1.55171 28.7663L5.70066 30.275C8.24262 31.1994 11.0288 31.1994 13.5708 30.275C16.5027 29.2088 19.709 29.1654 22.6687 30.152L22.9897 30.2591C25.7914 31.1929 28.8334 31.1035 31.5753 30.0067L34.6438 28.7793C35.2367 28.5421 35.9097 28.8306 36.1468 29.4235C36.384 30.0163 36.0956 30.6892 35.5027 30.9265L32.4341 32.1538C29.1843 33.4537 25.5789 33.5597 22.2585 32.4529L21.9375 32.3459C19.4727 31.5243 16.8027 31.5604 14.3611 32.4483C11.3086 33.5583 7.96284 33.5583 4.91037 32.4483L0.761425 30.9394C0.161291 30.7213 -0.148297 30.0579 0.0699335 29.4577Z" fill="#515151"/>
</svg>
