<svg width="36" height="36" viewBox="0 0 36 36" fill="none" xmlns="http://www.w3.org/2000/svg">
<path d="M20.0136 18.1637C21.8404 18.1637 23.3212 16.6829 23.3212 14.8562C23.3212 13.0294 21.8404 11.5486 20.0136 11.5486C18.1869 11.5486 16.7061 13.0294 16.7061 14.8562C16.7061 16.6829 18.1869 18.1637 20.0136 18.1637Z" fill="#515151"/>
<path d="M25.9561 27.6939C24.3303 26.0682 23.8818 24.6667 21.1348 22.4803L15.4727 22.0318C14.5758 21.9758 13.847 21.1348 13.903 20.2379C13.903 19.9015 14.0712 19.5652 14.2955 19.2848C14.1273 19.2848 14.0152 19.2288 13.903 19.2288V6.95152L6.95152 0L0 6.95152V35.8788H1.90606V29.9924H11.9409V35.8788H13.847V22.5924C15.3045 22.8167 18.7242 23.8818 21.8636 28.1424C24.7788 32.0667 29.7682 35.0939 35.2061 35.8227L35.4303 35.8788L35.8227 32.5152C35.7106 32.4591 30.4409 32.2348 25.9561 27.6939ZM7.00758 5.55C8.24091 5.55 9.30606 6.55909 9.30606 7.79242C9.30606 9.02576 8.24091 10.0909 7.00758 10.0909C5.77424 10.0909 4.76515 9.08182 4.76515 7.79242C4.76515 6.50303 5.71818 5.55 7.00758 5.55ZM11.997 27.9742H1.90606V23.8818H11.9409V27.9742H11.997ZM11.997 21.9197H1.90606V17.0424H11.9409V21.9197H11.997Z" fill="#515151"/>
<path d="M15.5288 21.4712C22.1439 21.9757 13.2864 21.303 21.3591 21.9196C24.6106 24.4984 25.0591 26.3484 26.9091 27.8621L30.6652 28.4787L31.5621 30.8333C32.347 31.1696 33.1879 31.4499 34.0288 31.6742C34.197 31.0575 33.9167 30.9454 32.4591 27.0772C32.2909 26.6848 32.0106 26.4606 31.6182 26.4045L29.1515 25.956C29.7682 24.9469 29.8242 23.7136 29.2636 22.5924C27.4136 19.1727 27.4136 18.8924 26.9091 18.3878L28.7591 12.7257C28.9273 12.1651 28.647 11.4924 28.0303 11.3242C27.4697 11.156 26.797 11.4363 26.6288 12.053L24.8909 17.3787C24.2182 17.2666 23.4894 17.3787 22.8727 17.7712C22.0879 18.2196 21.4712 18.8924 21.247 19.7333C21.1909 19.7333 15.697 19.2848 15.753 19.2848C15.1924 19.2287 14.5758 19.6772 14.5758 20.2939C14.4636 20.8545 14.9121 21.4151 15.5288 21.4712Z" fill="#515151"/>
</svg>
