<?xml version="1.0" encoding="UTF-8"?>
<svg id="Layer_1" data-name="Layer 1" xmlns="http://www.w3.org/2000/svg" viewBox="0 0 1080 1080">
  <defs>
    <style>
      .cls-1 {
        fill: #34398a;
      }

      .cls-2 {
        fill: #c1282e;
      }

      .cls-3 {
        fill: #fefefe;
      }

      .cls-3, .cls-4, .cls-5 {
        fill-rule: evenodd;
      }

      .cls-6 {
        fill: #ee751d;
      }

      .cls-4 {
        fill: #e31e24;
      }

      .cls-7 {
        fill: #086733;
      }

      .cls-5 {
        fill: #2b2a29;
      }

      .cls-8 {
        fill: #fde902;
      }

      .cls-9 {
        fill: #5c3085;
      }
    </style>
  </defs>
  <rect class="cls-9" x="405.6" y="495.97" width="148.68" height="133.48"/>
  <rect class="cls-8" x="254.83" y="495.97" width="148.68" height="133.48"/>
  <rect class="cls-2" x="555.73" y="495.97" width="148.68" height="133.48"/>
  <rect class="cls-7" x="855.31" y="495.97" width="148.68" height="133.48"/>
  <rect class="cls-1" x="104.62" y="495.97" width="148.66" height="133.48"/>
  <rect class="cls-6" x="705.46" y="495.97" width="148.66" height="133.48"/>
  <path class="cls-5" d="M596.38,480.08v-64.65l-41.29-104.21h39.05l12.56,40.33c3.64,10.77,7.27,23.29,10.06,35.82h.56c2.24-12.28,5.29-24.56,8.64-36.58l11.16-39.57h37.94l-42.13,102.96v65.9h-36.56ZM341.03,446.51c7.54,3.76,20.64,6.5,30.98,6.5,17.02,0,25.67-8.02,25.67-19.03,0-12.28-8.36-18.31-24.28-27.56-25.67-14.04-35.43-31.82-35.43-47.12,0-27.05,20.09-49.61,59.15-49.61,12.56,0,24.28,3,29.6,6.01l-5.88,28.32c-5.29-3.01-13.4-5.76-23.72-5.76-15.62,0-23.15,8.53-23.15,17.55,0,10.03,5.58,15.26,25.67,26.31,25.12,13.52,34.06,30.56,34.06,48.34,0,30.83-25.4,51.14-61.97,51.14-15.08,0-29.59-3.52-35.99-6.79l5.29-28.3ZM485.04,441.49l-8.38,38.59h-35.43l40.73-168.88h43.81l36.56,168.88h-35.43l-8.1-38.59h-33.76ZM739.26,415.94l-6.14-35.33c-1.94-10.28-4.46-27.31-6.14-38.34h-.83c-1.96,11.28-4.74,28.58-6.7,38.34l-6.98,35.33h26.79ZM515.44,415.94l-6.14-35.33c-1.94-10.28-4.46-27.31-6.12-38.34h-.84c-1.94,11.28-4.76,28.58-6.7,38.34l-6.96,35.33h26.77ZM708.85,441.49l-8.38,38.59h-35.43l40.73-168.88h43.82l36.55,168.88h-35.44l-8.1-38.59h-33.75Z"/>
  <path class="cls-3" d="M164.22,539.66v24.45h12.66c5.22.1,9.14-1.04,11.79-3.39,2.65-2.36,3.99-5.35,3.99-8.99,0-4.36-1.66-7.49-5.01-9.32-3.34-1.84-7.62-2.75-12.82-2.75h-10.6ZM136.53,520.65h47.73c13.35.1,22.89,2.75,28.58,7.95,5.69,5.22,8.54,12.92,8.54,23.13s-2.9,18.04-8.69,22.62c-5.8,4.56-12.18,7.33-19.14,8.32-1.39.2-2.75.35-4.13.45-1.37.1-2.75.15-4.12.15h-21.07v34.9h-27.69v-97.51Z"/>
  <path class="cls-4" d="M315.32,520.93h56.26v12h-28.55v73.25h28.55v11.99h-84.8v-11.99h28.55v-73.25h-28.55v-12h28.55Z"/>
  <path class="cls-3" d="M490.32,580.01l-11.64-39.33-12.66,39.33h24.3ZM463.96,520.65h32.99l38.14,97.51h-30.78l-6.34-17.81h-38.15l-6.62,17.81h-28.43l39.18-97.51Z"/>
  <polygon class="cls-3" points="590.37 520.65 665.64 520.65 665.64 545.98 619.09 598.14 671.97 598.14 671.97 618.16 588.16 618.16 588.16 599.16 639.13 540.68 590.37 540.68 590.37 520.65"/>
  <polygon class="cls-3" points="740.1 520.65 815.37 520.65 815.37 545.98 768.81 598.14 821.69 598.14 821.69 618.16 737.88 618.16 737.88 599.16 788.85 540.68 740.1 540.68 740.1 520.65"/>
  <path class="cls-3" d="M940.03,580.01l-11.64-39.33-12.66,39.33h24.3ZM913.65,520.65h33.01l38.15,97.51h-30.79l-6.34-17.81h-38.15l-6.63,17.81h-28.43l39.18-97.51Z"/>
  <path class="cls-5" d="M329.18,499.1c5.07,0,9.19,4.12,9.19,9.2s-4.12,9.18-9.19,9.18-9.2-4.11-9.2-9.18,4.11-9.2,9.2-9.2Z"/>
  <path class="cls-5" d="M982.83,709.25h4.18v-31.15l24.55,31.15h3.41v-37.99h-4.18v30.45l-23.94-30.45h-4.02v37.99ZM933.37,709.53h3.57l10.49-30.84,10.42,30.84h3.64l13.57-38.28h-4.49l-10.87,31.66-10.42-31.76h-3.52l-10.42,31.76-10.87-31.66h-4.66l13.56,38.28ZM896.3,705.94c-8.69,0-15-7.05-15-15.69v-.1c0-8.64,6.19-15.59,14.88-15.59s14.98,7.06,14.98,15.69v.12c0,8.63-6.19,15.57-14.86,15.57ZM896.19,709.91c11.56,0,19.45-9.17,19.45-19.66v-.1c0-10.49-7.77-19.54-19.33-19.54s-19.45,9.17-19.45,19.64v.12c0,10.47,7.75,19.54,19.33,19.54ZM856.02,709.25h4.33v-34.03h12.76v-3.97h-29.85v3.97h12.76v34.03ZM788.42,709.25h4.28v-17.09h21.95v17.09h4.28v-37.99h-4.28v16.89h-21.95v-16.89h-4.28v37.99ZM766.71,709.79c7.54,0,12.97-4.23,12.97-10.73v-.11c0-5.81-3.9-8.91-12.38-10.75-8.36-1.8-10.3-3.8-10.3-7.38v-.11c0-3.43,3.14-6.14,8.08-6.14,3.9,0,7.44,1.25,10.96,4.13l2.5-3.31c-3.85-3.09-7.82-4.67-13.35-4.67-7.23,0-12.5,4.4-12.5,10.37v.11c0,6.24,4.02,9.05,12.76,10.97,7.98,1.68,9.87,3.69,9.87,7.21v.12c0,3.74-3.35,6.45-8.46,6.45s-9.07-1.78-13.04-5.37l-2.65,3.14c4.56,4.07,9.5,6.07,15.53,6.07ZM738.26,709.25h4.28v-37.99h-4.28v37.99ZM688.42,709.53h3.57l10.49-30.84,10.42,30.84h3.64l13.57-38.28h-4.49l-10.87,31.66-10.42-31.76h-3.52l-10.44,31.76-10.85-31.66h-4.67l13.58,38.28ZM645.96,715.88c4.12-.92,6.03-3.04,6.03-7.44v-4.89h-4.99v5.69h1.94c.21,2.34-.92,3.76-3.64,4.72l.66,1.91ZM612.62,695.31l8.69-19.33,8.62,19.33h-17.32ZM602.04,709.25h4.4l4.51-10.04h20.68l4.46,10.04h4.61l-17.32-38.26h-4.02l-17.32,38.26ZM578.53,675.22c9.61,0,15.74,6.62,15.74,15.03v.12c0,8.41-6.13,14.93-15.74,14.93h-8.91v-30.08h8.91ZM565.34,709.25h13.19c11.94,0,20.2-8.29,20.2-19v-.1c0-10.7-8.26-18.9-20.2-18.9h-13.19v37.99ZM549.92,709.25h4.3v-37.99h-4.3v37.99ZM521.14,705.94c-8.68,0-14.98-7.05-14.98-15.69v-.1c0-8.64,6.19-15.59,14.89-15.59s14.98,7.06,14.98,15.69v.12c0,8.63-6.19,15.57-14.88,15.57ZM521.04,709.91c11.56,0,19.42-9.17,19.42-19.66v-.1c0-10.49-7.75-19.54-19.33-19.54s-19.42,9.17-19.42,19.64v.12c0,10.47,7.75,19.54,19.33,19.54ZM460.5,709.25h4.18v-31.15l24.53,31.15h3.42v-37.99h-4.18v30.45l-23.94-30.45h-4.02v37.99ZM428.68,715.88c4.13-.92,6.04-3.04,6.04-7.44v-4.89h-5v5.69h1.96c.21,2.34-.92,3.76-3.64,4.72l.64,1.91ZM415.83,709.25h4.23v-38.26h-3.14l-9.29,3.19,1.04,3.47,7.16-2.22v33.81ZM389.71,709.91c7.05,0,12.69-4.67,12.69-11.46v-.1c0-6.95-5.91-10.16-12.53-10.7l11.94-13.25v-3.14h-24.26v3.85h18.57l-12,13.52.87,2.55h2.44c6.24,0,10.65,2.62,10.65,7.34v.1c0,4.46-3.7,7.39-8.32,7.39s-8.2-2.07-11.08-5.65l-3.14,2.76c3.09,4.02,7.82,6.78,14.17,6.78ZM363.11,709.25h4.23v-38.26h-3.14l-9.28,3.19,1.02,3.47,7.18-2.22v33.81ZM307.51,690.63v-15.41h11.72c6.14,0,9.73,2.82,9.73,7.49v.12c0,4.87-4.08,7.8-9.78,7.8h-11.67ZM303.22,709.25h4.29v-14.77h10.85l11.03,14.77h5.27l-11.67-15.52c5.98-1.09,10.31-4.78,10.31-11.06v-.12c0-2.98-1.09-5.65-2.93-7.49-2.39-2.39-6.12-3.8-10.8-3.8h-16.35v37.99ZM274.83,705.94c-8.69,0-14.98-7.05-14.98-15.69v-.1c0-8.64,6.17-15.59,14.86-15.59s14.98,7.06,14.98,15.69v.12c0,8.63-6.19,15.57-14.86,15.57ZM274.72,709.91c11.56,0,19.44-9.17,19.44-19.66v-.1c0-10.49-7.77-19.54-19.32-19.54s-19.45,9.17-19.45,19.64v.12c0,10.47,7.77,19.54,19.33,19.54ZM234.55,709.25h4.35v-34.03h12.76v-3.97h-29.86v3.97h12.76v34.03ZM201.8,709.91c6.9,0,11.24-2.66,15.21-6.68l-2.83-2.77c-3.64,3.48-7.06,5.48-12.26,5.48-8.37,0-14.72-6.88-14.72-15.69v-.1c0-8.74,6.31-15.59,14.72-15.59,5.15,0,8.74,2.17,11.94,5.22l2.93-3.14c-3.78-3.59-7.92-6.03-14.81-6.03-11.18,0-19.21,8.89-19.21,19.64v.12c0,10.92,8.08,19.54,19.05,19.54ZM148.05,709.25h27.75v-3.9h-23.46v-13.3h20.74v-3.9h-20.74v-12.97h23.18v-3.92h-27.47v37.99ZM126.33,709.79c7.56,0,12.99-4.23,12.99-10.73v-.11c0-5.81-3.92-8.91-12.38-10.75-8.37-1.8-10.32-3.8-10.32-7.38v-.11c0-3.43,3.14-6.14,8.1-6.14,3.9,0,7.43,1.25,10.97,4.13l2.49-3.31c-3.85-3.09-7.81-4.67-13.35-4.67-7.23,0-12.48,4.4-12.48,10.37v.11c0,6.24,4.02,9.05,12.76,10.97,7.97,1.68,9.88,3.69,9.88,7.21v.12c0,3.74-3.38,6.45-8.48,6.45s-9.05-1.78-13.02-5.37l-2.66,3.14c4.56,4.07,9.5,6.07,15.52,6.07Z"/>
</svg>