<?xml version="1.0" encoding="UTF-8"?>
<svg version="1.1" xmlns="http://www.w3.org/2000/svg" width="675" height="233">
<path d="M0 0 C222.75 0 445.5 0 675 0 C675 76.89 675 153.78 675 233 C452.25 233 229.5 233 0 233 C0 156.11 0 79.22 0 0 Z " fill="#FEFEFE" transform="translate(0,0)"/>
<path d="M0 0 C0.8711308 -0.00384115 1.7422616 -0.00768229 2.6397903 -0.01163983 C4.08401831 -0.01034011 4.08401831 -0.01034011 5.55742264 -0.00901413 C6.57578618 -0.01198525 7.59414973 -0.01495637 8.64337277 -0.01801753 C12.07804877 -0.02673435 15.51269004 -0.02821529 18.94737625 -0.02970505 C21.40095978 -0.03433113 23.85454258 -0.03935551 26.30812454 -0.04475021 C32.99001539 -0.0578969 39.67189257 -0.06436011 46.35379314 -0.06876087 C50.52517894 -0.07152187 54.6965624 -0.075759 58.86794662 -0.08026505 C70.41448572 -0.09245984 81.96102296 -0.10275826 93.50756836 -0.10614014 C94.24689156 -0.1063597 94.98621476 -0.10657927 95.74794169 -0.10680549 C96.48904973 -0.10702377 97.23015777 -0.10724204 97.99372363 -0.10746694 C99.49552711 -0.1079104 100.99733059 -0.10835697 102.49913406 -0.10880661 C103.24408289 -0.10902804 103.98903172 -0.10924947 104.75655475 -0.10947761 C116.82540702 -0.11342498 128.89419887 -0.13087618 140.96302781 -0.15416613 C153.35031844 -0.17787787 165.73757877 -0.19034193 178.12489247 -0.19150805 C185.08132543 -0.192425 192.03767973 -0.19818192 198.99409103 -0.21632767 C205.53739386 -0.23333543 212.08057367 -0.23498257 218.62390137 -0.22618866 C221.02732238 -0.2254162 223.4307513 -0.22978834 225.83415222 -0.23964691 C229.11204292 -0.2523053 232.38939933 -0.24652251 235.66728592 -0.23606491 C236.6211817 -0.24412132 237.57507749 -0.25217772 238.55787921 -0.26047826 C245.09390889 -0.21162018 249.34982402 0.6995567 254.21041679 5.39669418 C256.27110156 8.7999236 256.36442634 10.92108327 256.36079788 14.88716507 C256.36562671 15.5535284 256.37045554 16.21989173 256.3754307 16.90644789 C256.38667393 19.13223455 256.36940523 21.35686514 256.35216141 23.58259964 C256.35430799 25.18111863 256.35818674 26.77963609 256.36366653 28.37814713 C256.37335488 32.71497928 256.35806298 37.05139935 256.33776045 41.38818169 C256.32018311 45.92755153 256.32371467 50.46690876 256.32448196 55.00630569 C256.32260929 62.62930057 256.30525009 70.25213615 256.27794266 77.87508011 C256.24649222 86.68708732 256.2359465 95.49892008 256.23741376 104.31097937 C256.23876506 113.69387968 256.22488013 123.07671278 256.20652056 132.45959282 C256.20225915 135.1626206 256.20083836 137.86563753 256.20004272 140.56866837 C256.19803248 144.81715074 256.18581168 149.06548688 256.16571045 153.31392097 C256.15987281 154.87277137 256.15740722 156.4316386 256.15856552 157.9904995 C256.15954856 160.11905153 256.14822036 162.24719536 256.1337471 164.37569046 C256.13039541 165.56660545 256.12704372 166.75752045 256.12359047 167.98452377 C255.81126389 171.80489124 255.06965979 174.80406861 252.46397781 177.67830276 C248.45078401 180.823503 245.71023458 182.25354087 240.64362335 182.26564884 C239.778085 182.27010669 238.91254664 182.27456453 238.02077985 182.27915746 C236.59361713 182.27888092 236.59361713 182.27888092 235.13762283 182.27859879 C234.12727753 182.28227547 233.11693223 182.28595216 232.07597041 182.28974026 C228.67437665 182.30079514 225.27281343 182.304624 221.87120438 182.30842972 C219.43879982 182.31469296 217.00639622 182.32133963 214.57399368 182.32834244 C207.2633225 182.34758183 199.95265384 182.35817208 192.64196503 182.36707023 C189.19901637 182.37145388 185.75606924 182.37682047 182.3131218 182.3820591 C170.86777058 182.39907041 159.42242032 182.41356472 147.97705841 182.42080784 C145.00720341 182.42271772 142.03734841 182.42463806 139.06749344 182.42659378 C138.32935365 182.42707752 137.59121387 182.42756126 136.83070621 182.42805966 C124.87250405 182.43636052 112.91440191 182.46169879 100.95624343 182.49417446 C88.6785279 182.52724611 76.40086321 182.54525667 64.1231029 182.54845208 C57.22978052 182.55061703 50.33660401 182.55936341 43.44332504 182.58491325 C36.95908332 182.60889156 30.47503292 182.61244525 23.99075317 182.60215187 C21.61032234 182.60165532 19.22987878 182.60801078 16.8494873 182.62170792 C13.60032661 182.63935859 10.35211568 182.63235354 7.10295486 182.61917496 C6.16043594 182.6301442 5.21791701 182.64111345 4.2468369 182.6524151 C-1.73502562 182.59381748 -5.23337146 181.6208407 -10.13367844 178.13142776 C-15.68235426 171.70144674 -14.69071729 163.7940745 -14.63538742 155.74446487 C-14.63917385 154.17682791 -14.64467656 152.60919429 -14.6517601 151.04156876 C-14.66568872 146.79777101 -14.65456384 142.55437986 -14.63804889 138.31060481 C-14.62416985 133.86379623 -14.63066162 129.41701058 -14.63418198 124.97018814 C-14.63688156 117.50458113 -14.6234292 110.03913513 -14.60023117 102.57356644 C-14.57361325 93.94781374 -14.57187836 85.32233002 -14.58361953 76.69655031 C-14.59440547 68.39007949 -14.58820447 60.08370578 -14.57406425 51.77724266 C-14.56831251 48.24587134 -14.56838072 44.71457127 -14.57312965 41.18319893 C-14.57790848 37.02409974 -14.5677604 32.86529445 -14.546175 28.70625114 C-14.54061964 27.18168377 -14.54013035 25.65708808 -14.54512787 24.13251877 C-14.55110295 22.04804505 -14.53853465 19.96446324 -14.52135849 17.88006973 C-14.51892859 16.7147972 -14.5164987 15.54952467 -14.51399517 14.34894085 C-13.92749639 9.38710948 -12.26661081 6.15383015 -8.57117844 2.81892776 C-5.39452582 0.61970672 -3.80035439 0.00627079 0 0 Z " fill="#C2161C" transform="translate(216.1336784362793,9.868572235107422)"/>
<path d="M0 0 C-3.0874546 3.31907248 -6.7537318 5.09522675 -10.75 7.125 C-23.2010928 13.60930994 -34.81416714 20.53969347 -45.89868164 29.19067383 C-50.80612494 33 -50.80612494 33 -53 33 C-53 33.66 -53 34.32 -53 35 C-54.6171875 36.41015625 -54.6171875 36.41015625 -56.875 38.0625 C-66.09330942 44.50062795 -66.09330942 44.50062795 -73 53 C-72.29359375 52.69707031 -71.5871875 52.39414063 -70.859375 52.08203125 C-63.87918589 49.23207967 -56.9354495 47.06818127 -49.625 45.25 C-48.78163086 45.03964111 -47.93826172 44.82928223 -47.06933594 44.61254883 C-38.5088367 42.5418701 -30.41869233 41.84051493 -21.625 41.875 C-20.11099609 41.86919922 -20.11099609 41.86919922 -18.56640625 41.86328125 C-17.60863281 41.86457031 -16.65085937 41.86585937 -15.6640625 41.8671875 C-14.79217285 41.86831543 -13.9202832 41.86944336 -13.02197266 41.87060547 C-11 42 -11 42 -10 43 C-7.67182036 43.36760731 -5.3381615 43.70241581 -3 44 C-3 42.35 -3 40.7 -3 39 C-5.97 39 -8.94 39 -12 39 C-12 31.74 -12 24.48 -12 17 C-9.03 17 -6.06 17 -3 17 C-2.11504503 26.37104106 -1.8829591 35.59771406 -2 45 C-0.35 45 1.3 45 3 45 C2.67 45.99 2.34 46.98 2 48 C1.01 48 0.02 48 -1 48 C-1 55.92 -1 63.84 -1 72 C-5.29 72 -9.58 72 -14 72 C-14 64.74 -14 57.48 -14 50 C-18.45982339 50.59444195 -22.91761969 51.20022248 -27.375 51.8125 C-28.62667969 51.97814453 -29.87835938 52.14378906 -31.16796875 52.31445312 C-38.37432729 53.31428821 -45.10458117 54.69820999 -52 57 C-53.33827228 57.3972599 -54.67805676 57.78947267 -56.01953125 58.17578125 C-68.95081752 62.05117188 -80.56797671 67.54676213 -92.19921875 74.36328125 C-93.77553231 75.28444636 -95.36701265 76.18350633 -97 77 C-96.36310196 72.24634068 -94.45647909 68.41229839 -92.3125 64.1875 C-91.95019287 63.47190918 -91.58788574 62.75631836 -91.21459961 62.01904297 C-88.58397062 56.9251411 -85.78674588 52.3264029 -82 48 C-81.32195312 47.21496094 -80.64390625 46.42992187 -79.9453125 45.62109375 C-77.66932631 43.04190525 -75.34600742 40.51555081 -73 38 C-72.34644531 37.28070313 -71.69289062 36.56140625 -71.01953125 35.8203125 C-63.83404333 28.23177014 -55.35693878 22.21691232 -47 16 C-45.49039041 14.86915008 -43.98125604 13.73766543 -42.47265625 12.60546875 C-41.8062915 12.1055542 -41.13992676 11.60563965 -40.45336914 11.09057617 C-39.97375732 10.73068604 -39.49414551 10.3707959 -39 10 C-46.94730797 10.43464125 -54.19562128 11.84855694 -61.8125 14.125 C-62.8555127 14.43123291 -63.89852539 14.73746582 -64.97314453 15.05297852 C-72.27702284 17.2774496 -78.9144425 20.0219846 -85.5859375 23.71484375 C-88 25 -88 25 -90 25 C-88.50164772 20.33845958 -85.11536409 19.13389249 -81 17 C-82.58468677 17.45363171 -84.16769924 17.91311452 -85.75 18.375 C-86.63171875 18.63023438 -87.5134375 18.88546875 -88.421875 19.1484375 C-90.98807656 19.91118927 -90.98807656 19.91118927 -93.140625 21.1640625 C-95 22 -95 22 -98 21 C-70.26307237 -0.80790378 -33.93200224 -5.37536669 0 0 Z " fill="#DEDDE0" transform="translate(327,69)"/>
<path d="M0 0 C5.9609733 3.63286785 10.99849705 9.40599074 13.12890625 16.1015625 C14.62800167 24.3938561 14.5916803 32.97995094 10.5625 40.5 C10.06943359 41.53060547 10.06943359 41.53060547 9.56640625 42.58203125 C6.50316982 48.29512618 2.49012827 51.02927122 -3.4375 53.5 C-12.26019792 56.14344193 -19.9494137 53.91026857 -27.8125 49.6875 C-30.876435 47.13422083 -31.94918658 45.18534753 -33.4375 41.5 C-33.994375 40.38625 -34.55125 39.2725 -35.125 38.125 C-36.64317353 33.97211263 -36.76287783 29.81527839 -36.8125 25.4375 C-36.82627686 24.76477051 -36.84005371 24.09204102 -36.85424805 23.39892578 C-36.7818987 15.50995254 -33.6130402 9.90578984 -28.3671875 4.30078125 C-20.86115954 -2.70383189 -9.49163408 -4.14449519 0 0 Z " fill="#AEABAD" transform="translate(369.4375,86.5)"/>
<path d="M0 0 C4.29 0 8.58 0 13 0 C15.98241474 3.72801842 18.38714651 7.13207186 20.8125 11.1875 C23.89018711 16.30189182 27.18597999 21.18741061 30.75 25.9765625 C32 28 32 28 32 31 C32.99 31 33.98 31 35 31 C35.05416188 29.39620659 35.09286638 27.79188594 35.125 26.1875 C35.14820313 25.29417969 35.17140625 24.40085937 35.1953125 23.48046875 C35.18285827 20.74597286 35.18285827 20.74597286 33 18 C32.77914599 15.26657306 32.67542537 12.66878189 32.6875 9.9375 C32.67138672 9.20466797 32.65527344 8.47183594 32.63867188 7.71679688 C32.63671875 5.58984375 32.63671875 5.58984375 33 2 C36 0 36 0 46 0 C46 18.48 46 36.96 46 56 C42.04 56 38.08 56 34 56 C31.375 53.0625 31.375 53.0625 30 50 C29.34 49.67 28.68 49.34 28 49 C27.06850598 47.27940595 26.20519246 45.52169565 25.375 43.75 C22.02480869 36.85059612 18.09003708 30.47728321 14 24 C13.98541748 24.89831543 13.97083496 25.79663086 13.95581055 26.72216797 C13.89480303 30.0510659 13.82066372 33.37912883 13.73754883 36.70751953 C13.70426822 38.14881342 13.67624596 39.59023863 13.65356445 41.03173828 C13.6200738 43.10245797 13.567767 45.17197093 13.51171875 47.2421875 C13.48553467 48.4885498 13.45935059 49.73491211 13.43237305 51.01904297 C13.28968994 52.00275879 13.14700684 52.98647461 13 54 C10 56 10 56 0 56 C0 37.52 0 19.04 0 0 Z " fill="#7D7C7E" transform="translate(388,85)"/>
<path d="M0 0 C-3.08734305 3.31895256 -6.75352759 5.09576966 -10.75 7.125 C-16.54338265 10.13431637 -22.26747768 13.21808369 -27.875 16.5625 C-28.49608643 16.92931885 -29.11717285 17.2961377 -29.75708008 17.67407227 C-33.62641899 20.01155088 -36.97995644 22.63569711 -40.4375 25.5625 C-47.03404621 30.60985732 -54.1170745 29.7121338 -62 29 C-55.02434826 21.84806825 -47.21998673 15.66265752 -39 10 C-46.94730797 10.43464125 -54.19562128 11.84855694 -61.8125 14.125 C-62.8555127 14.43123291 -63.89852539 14.73746582 -64.97314453 15.05297852 C-72.27702284 17.2774496 -78.9144425 20.0219846 -85.5859375 23.71484375 C-88 25 -88 25 -90 25 C-88.50164772 20.33845958 -85.11536409 19.13389249 -81 17 C-82.58468677 17.45363171 -84.16769924 17.91311452 -85.75 18.375 C-86.63171875 18.63023438 -87.5134375 18.88546875 -88.421875 19.1484375 C-90.98807656 19.91118927 -90.98807656 19.91118927 -93.140625 21.1640625 C-95 22 -95 22 -98 21 C-70.26307237 -0.80790378 -33.93200224 -5.37536669 0 0 Z " fill="#E8E6E7" transform="translate(327,69)"/>
<path d="M0 0 C-1.28965176 1.37562854 -2.62689293 2.70766393 -4 4 C-4.66 4 -5.32 4 -6 4 C-6 4.66 -6 5.32 -6 6 C-7.6171875 7.41015625 -7.6171875 7.41015625 -9.875 9.0625 C-19.09330942 15.50062795 -19.09330942 15.50062795 -26 24 C-25.09636719 23.62746094 -24.19273437 23.25492188 -23.26171875 22.87109375 C-21.49248047 22.16146484 -21.49248047 22.16146484 -19.6875 21.4375 C-18.51574219 20.96183594 -17.34398437 20.48617187 -16.13671875 19.99609375 C-13 19 -13 19 -10 20 C-10 20.33 -10 20.66 -10 21 C1.55 21 13.1 21 25 21 C25 21.33 25 21.66 25 22 C24.44650879 22.07516846 23.89301758 22.15033691 23.32275391 22.2277832 C8.9550198 24.18963439 8.9550198 24.18963439 -5 28 C-6.90719517 28.56307667 -8.8144262 29.12603392 -10.72216797 29.68725586 C-23.04686183 33.37372409 -34.1302872 38.87630563 -45.19921875 45.36328125 C-46.77553231 46.28444636 -48.36701265 47.18350633 -50 48 C-49.36310196 43.24634068 -47.45647909 39.41229839 -45.3125 35.1875 C-44.95019287 34.47190918 -44.58788574 33.75631836 -44.21459961 33.01904297 C-41.58397062 27.9251411 -38.78674588 23.3264029 -35 19 C-34.32195312 18.21496094 -33.64390625 17.42992188 -32.9453125 16.62109375 C-31.43099599 14.90504303 -29.88996082 13.21223096 -28.32421875 11.54296875 C-25.97404425 9.05341137 -25.97404425 9.05341137 -24.01953125 6.36328125 C-17.27569907 -1.94585046 -9.87378722 -0.9182282 0 0 Z " fill="#9D9EA3" transform="translate(280,98)"/>
<path d="M0 0 C0.928125 0.061875 1.85625 0.12375 2.8125 0.1875 C5 1 5 1 6.3125 3.5625 C6.6528125 4.7690625 6.6528125 4.7690625 7 6 C5.68 5.67 4.36 5.34 3 5 C3.79117904 6.99983534 3.79117904 6.99983534 5 9 C5.99 9.33 6.98 9.66 8 10 C9.25433458 13.76300374 9.10695422 17.27210909 9.0625 21.1875 C9.05798828 21.93708984 9.05347656 22.68667969 9.04882812 23.45898438 C9.03706354 25.30602383 9.01912865 27.15302213 9 29 C7.68 29 6.36 29 5 29 C5.33 30.98 5.66 32.96 6 35 C0.8399235 37.63269209 -2.17815359 38.53784622 -8 37 C-10.4375 35.4375 -10.4375 35.4375 -12 34 C-11.34 34 -10.68 34 -10 34 C-10.33 32.35 -10.66 30.7 -11 29 C-12.32 29.33 -13.64 29.66 -15 30 C-15.82020418 27.11288129 -16.16181621 24.49986689 -16.1875 21.5 C-16.20167969 20.7471875 -16.21585937 19.994375 -16.23046875 19.21875 C-15.96865148 16.69820411 -15.24107913 15.1967533 -14 13 C-13.64679688 12.29359375 -13.29359375 11.5871875 -12.9296875 10.859375 C-11.953125 8.90625 -10.9765625 6.953125 -10 5 C-10.99 5.33 -11.98 5.66 -13 6 C-12 3 -12 3 -9.875 1.3125 C-6.33021632 -0.30577081 -3.8661001 -0.27615001 0 0 Z " fill="#C0181E" transform="translate(361,93)"/>
<path d="M0 0 C0 18.48 0 36.96 0 56 C-3.96 56 -7.92 56 -12 56 C-14.625 53.0625 -14.625 53.0625 -16 50 C-16.66 49.67 -17.32 49.34 -18 49 C-18.73075648 46.6859378 -19.40138258 44.35171131 -20 42 C-18.0625 42.8125 -18.0625 42.8125 -16 44 C-15.67 44.99 -15.34 45.98 -15 47 C-14.40832031 46.97679687 -13.81664062 46.95359375 -13.20703125 46.9296875 C-12.41683594 46.91164062 -11.62664062 46.89359375 -10.8125 46.875 C-10.03519531 46.85179687 -9.25789063 46.82859375 -8.45703125 46.8046875 C-6 47 -6 47 -1 49 C-1 44.38 -1 39.76 -1 35 C-2.98 35 -4.96 35 -7 35 C-7.66 34.67 -8.32 34.34 -9 34 C-9.33 34.99 -9.66 35.98 -10 37 C-11.43954532 32.68136403 -10.96706534 28.5501608 -10.83984375 24.03125 C-10.75107565 20.82085685 -10.75107565 20.82085685 -13 18 C-13.22085401 15.26657306 -13.32457463 12.66878189 -13.3125 9.9375 C-13.32861328 9.20466797 -13.34472656 8.47183594 -13.36132812 7.71679688 C-13.36328125 5.58984375 -13.36328125 5.58984375 -13 2 C-10 0 -10 0 0 0 Z " fill="#999697" transform="translate(434,85)"/>
<path d="M0 0 C1.28197266 -0.01160156 1.28197266 -0.01160156 2.58984375 -0.0234375 C5.56853662 0.45654145 6.96008046 1.21892242 9.0625 3.375 C9.0625 4.695 9.0625 6.015 9.0625 7.375 C6.6875 7.5 6.6875 7.5 4.0625 7.375 C3.4025 6.715 2.7425 6.055 2.0625 5.375 C-0.00624034 4.7324765 -0.00624034 4.7324765 -1.9375 4.375 C-1.28768088 7.48043749 -1.28768088 7.48043749 1.0234375 8.40234375 C2.62739283 9.00707125 4.23155826 9.61124179 5.8359375 10.21484375 C8.0625 11.375 8.0625 11.375 11.0625 15.375 C13.0425 10.425 15.0225 5.475 17.0625 0.375 C19.0425 0.375 21.0225 0.375 23.0625 0.375 C26.20419523 7.6021408 28.99207946 14.76662534 31.0625 22.375 C28.7525 22.375 26.4425 22.375 24.0625 22.375 C24.0625 21.055 24.0625 19.735 24.0625 18.375 C21.4225 18.375 18.7825 18.375 16.0625 18.375 C16.0625 19.695 16.0625 21.015 16.0625 22.375 C13.7525 22.375 11.4425 22.375 9.0625 22.375 C9.0625 21.715 9.0625 21.055 9.0625 20.375 C8.4953125 20.69726562 7.928125 21.01953125 7.34375 21.3515625 C3.6443225 23.01123717 0.03835075 22.98049654 -3.9375 22.375 C-6.5 20.5625 -6.5 20.5625 -7.9375 18.375 C-7.9375 17.385 -7.9375 16.395 -7.9375 15.375 C-6.2875 15.375 -4.6375 15.375 -2.9375 15.375 C-2.6075 16.365 -2.2775 17.355 -1.9375 18.375 C-0.2875 18.045 1.3625 17.715 3.0625 17.375 C3.0625 16.715 3.0625 16.055 3.0625 15.375 C2.43601562 15.12105469 1.80953125 14.86710937 1.1640625 14.60546875 C0.34679687 14.26128906 -0.47046875 13.91710937 -1.3125 13.5625 C-2.12460937 13.22605469 -2.93671875 12.88960937 -3.7734375 12.54296875 C-5.9375 11.375 -5.9375 11.375 -7.9375 8.375 C-8.28833719 5.56830248 -8.43821163 4.05015311 -6.7265625 1.7421875 C-4.37994684 -0.05107774 -2.92901564 -0.02642721 0 0 Z " fill="#F9EDE9" transform="translate(347.9375,54.625)"/>
<path d="M0 0 C10 0 10 0 12.33203125 1.6875 C12.82058594 2.450625 13.30914062 3.21375 13.8125 4 C14.35648437 4.81597656 14.90046875 5.63195312 15.4609375 6.47265625 C15.96882813 7.30667969 16.47671875 8.14070313 17 9 C17.50789063 9.76183594 18.01578125 10.52367188 18.5390625 11.30859375 C22 16.57733939 22 16.57733939 22 19 C20.41753293 19.08153933 18.83383727 19.13943557 17.25 19.1875 C15.92742187 19.23970703 15.92742187 19.23970703 14.578125 19.29296875 C12 19 12 19 8 16 C8.33 20.62 8.66 25.24 9 30 C9.66 29.67 10.32 29.34 11 29 C11.05386629 31.12472576 11.09273071 33.24983652 11.125 35.375 C11.14820313 36.55835938 11.17140625 37.74171875 11.1953125 38.9609375 C11 42 11 42 9 44 C9 41.69 9 39.38 9 37 C8.34 37 7.68 37 7 37 C7 39.97 7 42.94 7 46 C3 48 3 48 0 48 C0 44.37 0 40.74 0 37 C1.98 36.34 3.96 35.68 6 35 C6.33 31.04 6.66 27.08 7 23 C4.69 23.33 2.38 23.66 0 24 C0 16.08 0 8.16 0 0 Z " fill="#FBFBFB" transform="translate(389,86)"/>
<path d="M0 0 C-4.41880242 4.91938418 -10.68873301 7.58778552 -17.18417358 8.39639282 C-20.6511539 8.47992485 -24.07781995 8.4083671 -27.54296875 8.26953125 C-28.79257889 8.24026047 -30.04218903 8.21098969 -31.32966614 8.18083191 C-34.6135027 8.09926131 -37.89555991 7.99523155 -41.17834473 7.87976074 C-44.54351829 7.76710441 -47.90942788 7.68472682 -51.27539062 7.59960938 C-57.85127429 7.42728178 -64.42572804 7.22526235 -71 7 C-51.8619597 -5.75869353 -21.47725548 -3.4023375 0 0 Z " fill="#BFB8B8" transform="translate(327,69)"/>
<path d="M0 0 C-0.53625 0.15855469 -1.0725 0.31710938 -1.625 0.48046875 C-3.33850098 0.99057348 -5.05057073 1.50549454 -6.76171875 2.0234375 C-9.09443688 2.726911 -11.43086086 3.41813758 -13.76953125 4.1015625 C-26.79085808 7.96433321 -38.49691857 13.50511832 -50.19921875 20.36328125 C-51.77553231 21.28444636 -53.36701265 22.18350633 -55 23 C-54.38153621 18.08128014 -52.24673652 14.15278646 -50 9.8125 C-49.63132813 9.08869141 -49.26265625 8.36488281 -48.8828125 7.61914062 C-47.92672882 5.74361151 -46.96382391 3.87156324 -46 2 C-45.67 1.34 -45.34 0.68 -45 0 C-39.23438773 -0.16776425 -33.46863657 -0.32830841 -27.70263672 -0.48217773 C-25.74131873 -0.53553259 -23.78005328 -0.59085676 -21.81884766 -0.64819336 C-18.99913866 -0.73028615 -16.17931632 -0.80528481 -13.359375 -0.87890625 C-12.48319519 -0.90594131 -11.60701538 -0.93297638 -10.70428467 -0.96083069 C-9.88373596 -0.98092697 -9.06318726 -1.00102325 -8.21777344 -1.02172852 C-7.49829529 -1.04171402 -6.77881714 -1.06169952 -6.03753662 -1.08229065 C-3.9014967 -0.99602172 -2.05010367 -0.58873192 0 0 Z " fill="#7A7E82" transform="translate(285,123)"/>
<path d="M0 0 C0.94166016 -0.03158203 1.88332031 -0.06316406 2.85351562 -0.09570312 C9.31388152 -0.06423301 12.80493619 1.40446486 17.38061523 5.98364258 C19.16294187 8.07732437 20.45193464 9.98907934 21.4375 12.5625 C21.7365625 13.29984375 22.035625 14.0371875 22.34375 14.796875 C22.9375 16.8125 22.9375 16.8125 22.9375 19.8125 C19.9675 19.8125 16.9975 19.8125 13.9375 19.8125 C13.59138672 18.67361328 13.59138672 18.67361328 13.23828125 17.51171875 C12.74908203 16.02091797 12.74908203 16.02091797 12.25 14.5 C11.93675781 13.51386719 11.62351562 12.52773437 11.30078125 11.51171875 C9.63016962 8.20400347 8.30952395 7.28348436 4.9375 5.8125 C0.60602426 5.05591035 -3.91034314 4.87715617 -8.00390625 6.65625 C-12.29093617 9.83660302 -13.57034172 13.92153674 -15.0625 18.8125 C-17.7025 18.8125 -20.3425 18.8125 -23.0625 18.8125 C-21.86210399 8.60913394 -21.86210399 8.60913394 -18.28735352 5.0402832 C-12.17251481 0.82055343 -7.3602858 -0.14669985 0 0 Z " fill="#F1F1F1" transform="translate(358.0625,87.1875)"/>
<path d="M0 0 C5.9609733 3.63286785 10.99849705 9.40599074 13.12890625 16.1015625 C14.66607108 24.60443825 14.30750015 32.69791636 10.5625 40.5 C9.9025 39.84 9.2425 39.18 8.5625 38.5 C6.35177023 38.25746187 6.35177023 38.25746187 3.9375 38.375 C3.12023437 38.39304688 2.30296875 38.41109375 1.4609375 38.4296875 C0.83445312 38.45289063 0.20796875 38.47609375 -0.4375 38.5 C-0.4375 37.84 -0.4375 37.18 -0.4375 36.5 C-1.9225 36.995 -1.9225 36.995 -3.4375 37.5 C-3.4375 36.84 -3.4375 36.18 -3.4375 35.5 C-2.1175 35.5 -0.7975 35.5 0.5625 35.5 C0.42163398 32.89547729 0.27501536 30.29149803 0.125 27.6875 C0.08568359 26.94951172 0.04636719 26.21152344 0.00585938 25.45117188 C-0.39114432 18.70210902 -1.53412302 16.15192175 -6.4375 11.5 C-6.1075 10.84 -5.7775 10.18 -5.4375 9.5 C-4.4475 9.83 -3.4575 10.16 -2.4375 10.5 C-2.4375 9.51 -2.4375 8.52 -2.4375 7.5 C0.87808515 11.88512875 2.11246653 14.87458159 2.5625 20.5 C5.5325 20.5 8.5025 20.5 11.5625 20.5 C11.09603434 18.80292427 10.5870825 17.11752067 10.0625 15.4375 C9.7840625 14.49777344 9.505625 13.55804688 9.21875 12.58984375 C6.81886787 8.11270516 3.97255972 5.06280852 -0.4375 2.5 C-4.23996962 1.6345596 -7.80706921 1.69342904 -11.6875 1.875 C-12.6671875 1.88144531 -13.646875 1.88789062 -14.65625 1.89453125 C-19.67866262 2.01117198 -22.53006327 2.11453188 -26.4375 5.5 C-27.0975 5.17 -27.7575 4.84 -28.4375 4.5 C-20.60603908 -2.21268079 -9.76186965 -4.32584812 0 0 Z " fill="#A09594" transform="translate(369.4375,86.5)"/>
<path d="M0 0 C0.33 0 0.66 0 1 0 C1.33 7.59 1.66 15.18 2 23 C3.98 23 5.96 23 8 23 C8.08082094 24.95766281 8.13910778 26.91626728 8.1875 28.875 C8.22230469 29.96554688 8.25710938 31.05609375 8.29296875 32.1796875 C8.19628906 33.11039063 8.09960938 34.04109375 8 35 C5 37 5 37 1 37 C1 40.63 1 44.26 1 48 C2.98 47.34 4.96 46.68 7 46 C7.33 43.03 7.66 40.06 8 37 C8.66 37 9.32 37 10 37 C10.33 38.65 10.66 40.3 11 42 C11 38.37 11 34.74 11 31 C10.34 30.67 9.68 30.34 9 30 C9 25.38 9 20.76 9 16 C13 18 13 18 14.42578125 20.078125 C15.86765954 22.23054533 15.86765954 22.23054533 18.48046875 22.609375 C19.82044922 22.67898437 19.82044922 22.67898437 21.1875 22.75 C22.08855469 22.80671875 22.98960937 22.8634375 23.91796875 22.921875 C24.60503906 22.94765625 25.29210937 22.9734375 26 23 C26 23.33 26 23.66 26 24 C23.03 24 20.06 24 17 24 C16.67 24.99 16.34 25.98 16 27 C15.34 25.68 14.68 24.36 14 23 C13.98541748 23.89831543 13.97083496 24.79663086 13.95581055 25.72216797 C13.89480303 29.0510659 13.82066372 32.37912883 13.73754883 35.70751953 C13.70426822 37.14881342 13.67624596 38.59023863 13.65356445 40.03173828 C13.6200738 42.10245797 13.567767 44.17197093 13.51171875 46.2421875 C13.48553467 47.4885498 13.45935059 48.73491211 13.43237305 50.01904297 C13.28968994 51.00275879 13.14700684 51.98647461 13 53 C10 55 10 55 0 55 C0 36.85 0 18.7 0 0 Z " fill="#979798" transform="translate(388,86)"/>
<path d="M0 0 C0 7.92 0 15.84 0 24 C-4.29 24 -8.58 24 -13 24 C-13 16.74 -13 9.48 -13 2 C-13.99 1.67 -14.98 1.34 -16 1 C-10.46346649 0.20906664 -5.72195861 0 0 0 Z " fill="#A2A2A4" transform="translate(326,117)"/>
<path d="M0 0 C2.31 0 4.62 0 7 0 C8.17461555 3.10121711 9.33830456 6.20642241 10.5 9.3125 C10.83386719 10.19357422 11.16773438 11.07464844 11.51171875 11.98242188 C11.82753906 12.82998047 12.14335937 13.67753906 12.46875 14.55078125 C12.90864258 15.72120972 12.90864258 15.72120972 13.35742188 16.9152832 C14 19 14 19 14 22 C12.02 22 10.04 22 8 22 C7.67 21.01 7.34 20.02 7 19 C4.69 19 2.38 19 0 19 C-0.33 19.99 -0.66 20.98 -1 22 C-2.98 22 -4.96 22 -7 22 C-5.0827282 14.49068545 -2.75950985 7.24196241 0 0 Z " fill="#F7E7E3" transform="translate(399,55)"/>
<path d="M0 0 C1.28197266 -0.01160156 1.28197266 -0.01160156 2.58984375 -0.0234375 C5.56853662 0.45654145 6.96008046 1.21892242 9.0625 3.375 C9.0625 4.695 9.0625 6.015 9.0625 7.375 C6.6875 7.5 6.6875 7.5 4.0625 7.375 C3.4025 6.715 2.7425 6.055 2.0625 5.375 C-0.00624034 4.7324765 -0.00624034 4.7324765 -1.9375 4.375 C-1.27522394 7.48603016 -1.27522394 7.48603016 1.09375 8.5078125 C1.9084375 8.83523437 2.723125 9.16265625 3.5625 9.5 C7.99832888 11.31082888 7.99832888 11.31082888 9.0625 12.375 C9.63873479 18.59833572 9.63873479 18.59833572 7.625 21.3125 C3.76728213 22.91204155 0.17282328 23.06885274 -3.9375 22.375 C-6.5 20.5625 -6.5 20.5625 -7.9375 18.375 C-7.9375 17.385 -7.9375 16.395 -7.9375 15.375 C-6.2875 15.375 -4.6375 15.375 -2.9375 15.375 C-2.6075 16.365 -2.2775 17.355 -1.9375 18.375 C-0.2875 18.045 1.3625 17.715 3.0625 17.375 C3.0625 16.715 3.0625 16.055 3.0625 15.375 C2.43601562 15.12105469 1.80953125 14.86710937 1.1640625 14.60546875 C0.34679687 14.26128906 -0.47046875 13.91710937 -1.3125 13.5625 C-2.12460937 13.22605469 -2.93671875 12.88960937 -3.7734375 12.54296875 C-5.9375 11.375 -5.9375 11.375 -7.9375 8.375 C-8.28833719 5.56830248 -8.43821163 4.05015311 -6.7265625 1.7421875 C-4.37994684 -0.05107774 -2.92901564 -0.02642721 0 0 Z " fill="#FCF6F4" transform="translate(347.9375,54.625)"/>
<path d="M0 0 C-0.33 0.33 -0.66 0.66 -1 1 C6.26 1.33 13.52 1.66 21 2 C21 2.33 21 2.66 21 3 C20.30777344 3.15855469 19.61554688 3.31710938 18.90234375 3.48046875 C7.76674642 6.13599328 -3.55299049 9.00899411 -13.36328125 15.08203125 C-15 16 -15 16 -17 16 C-15.50164772 11.33845958 -12.11536409 10.13389249 -8 8 C-9.58468677 8.45363171 -11.16769924 8.91311452 -12.75 9.375 C-13.63171875 9.63023438 -14.5134375 9.88546875 -15.421875 10.1484375 C-17.98807656 10.91118927 -17.98807656 10.91118927 -20.140625 12.1640625 C-22 13 -22 13 -25 12 C-6.19236016 -2.06412005 -6.19236016 -2.06412005 0 0 Z " fill="#CABFBE" transform="translate(254,78)"/>
<path d="M0 0 C0.90903076 -0.00064453 1.81806152 -0.00128906 2.75463867 -0.00195312 C10.95459411 0.06122839 18.90413458 0.90498667 27 2.1875 C24.38967358 5.04642893 22.48142728 6.1158607 18.51325989 6.30775452 C17.52508774 6.30553391 16.53691559 6.30331329 15.51879883 6.30102539 C14.39786331 6.30094986 13.2769278 6.30087433 12.12202454 6.30079651 C10.91257675 6.29563522 9.70312897 6.29047394 8.45703125 6.28515625 C7.21829758 6.2837413 5.9795639 6.28232635 4.70329285 6.28086853 C1.41368463 6.27621602 -1.8758746 6.2672339 -5.16546631 6.25616455 C-8.52371623 6.24592629 -11.88197333 6.24136574 -15.24023438 6.23632812 C-21.82684212 6.22529145 -28.41341705 6.20854767 -35 6.1875 C-31.66493721 3.96412481 -29.22073899 3.43199854 -25.3125 2.625 C-24.13300781 2.37621094 -22.95351563 2.12742187 -21.73828125 1.87109375 C-14.42555473 0.53386581 -7.41994396 -0.00549066 0 0 Z " fill="#928888" transform="translate(300,66.8125)"/>
<path d="M0 0 C-1.28965176 1.37562854 -2.62689293 2.70766393 -4 4 C-4.66 4 -5.32 4 -6 4 C-6 4.66 -6 5.32 -6 6 C-7.86328125 7.65625 -7.86328125 7.65625 -10.3125 9.5 C-11.11300781 10.1084375 -11.91351563 10.716875 -12.73828125 11.34375 C-17.09497752 14.53414589 -18.81137864 15.20307757 -24.1875 14.625 C-25.27417969 14.51414062 -26.36085937 14.40328125 -27.48046875 14.2890625 C-28.31191406 14.19367188 -29.14335937 14.09828125 -30 14 C-28.59793875 12.32436582 -27.18673051 10.6556719 -25.734375 9.0234375 C-23.98329243 7.06022547 -23.98329243 7.06022547 -22.640625 4.9765625 C-17.03324994 -2.40949605 -8.3678126 -0.59299459 0 0 Z " fill="#787B7F" transform="translate(280,98)"/>
<path d="M0 0 C0.7734375 0.495 0.7734375 0.495 1.5625 1 C4.84447094 2.34644962 7.48432783 2.25568525 11 2 C11.99 1.34 12.98 0.68 14 0 C16.4519043 -0.22705078 16.4519043 -0.22705078 19.32421875 -0.1953125 C20.86625977 -0.18564453 20.86625977 -0.18564453 22.43945312 -0.17578125 C23.51130859 -0.15902344 24.58316406 -0.14226562 25.6875 -0.125 C26.77095703 -0.11597656 27.85441406 -0.10695312 28.97070312 -0.09765625 C31.6473571 -0.0740734 34.32356797 -0.04116126 37 0 C35.78995454 3.63013639 34.96377988 3.87693578 31.6875 5.625 C30.90761719 6.05039063 30.12773437 6.47578125 29.32421875 6.9140625 C23.12649853 9.80980405 16.83173513 9.75343889 10.375 7.75 C6.45084719 6.31499784 3.27218719 4.60096931 0 2 C0 1.34 0 0.68 0 0 Z " fill="#969395" transform="translate(339,132)"/>
<path d="M0 0 C2.31 0 4.62 0 7 0 C7.99 2.31 8.98 4.62 10 7 C11.32 4.69 12.64 2.38 14 0 C15.98 0 17.96 0 20 0 C18.98195636 3.47831578 17.86396243 6.21848458 15.9375 9.3125 C13.50420584 13.34688363 13.21016958 17.36576074 13 22 C11.02 22 9.04 22 7 22 C6.99742187 21.41734375 6.99484375 20.8346875 6.9921875 20.234375 C6.62580395 12.46704383 3.77059075 6.71095969 0 0 Z " fill="#FAF2EE" transform="translate(375,55)"/>
<path d="M0 0 C2.97 0 5.94 0 9 0 C9 6.27 9 12.54 9 19 C6.03 19 3.06 19 0 19 C0 12.73 0 6.46 0 0 Z " fill="#FCFCFC" transform="translate(315,86)"/>
<path d="M0 0 C0.78375 0.02255859 1.5675 0.04511719 2.375 0.06835938 C4.2925026 0.12681982 6.2090106 0.21648717 8.125 0.3125 C-2.11374314 10.55124314 -2.11374314 10.55124314 -10.07885742 10.65307617 C-13.35076138 10.61194939 -16.60744977 10.48901832 -19.875 10.3125 C-18.22980726 8.61891924 -16.56280902 6.96264716 -14.875 5.3125 C-13.96492188 4.39082031 -13.05484375 3.46914062 -12.1171875 2.51953125 C-7.87484254 -0.36833008 -4.98691083 -0.27470272 0 0 Z " fill="#FAF8F7" transform="translate(284.875,87.6875)"/>
<path d="M0 0 C6.45207583 0.09926271 6.45207583 0.09926271 9.72265625 2.09765625 C14.08172322 6.75288064 15.43788456 11.40551244 16.3125 17.625 C13.3425 17.625 10.3725 17.625 7.3125 17.625 C7.08175781 16.86574219 6.85101563 16.10648438 6.61328125 15.32421875 C6.28714844 14.33035156 5.96101563 13.33648437 5.625 12.3125 C5.31175781 11.32636719 4.99851562 10.34023437 4.67578125 9.32421875 C3.02306521 6.0519357 1.61170528 5.13547952 -1.6875 3.625 C-5.38273952 2.90576792 -5.38273952 2.90576792 -8.6875 2.625 C-5.88374843 -0.17875157 -3.91691541 0.15817512 0 0 Z " fill="#FAFAFA" transform="translate(364.6875,89.375)"/>
<path d="M0 0 C0.99 0.99 1.98 1.98 3 3 C2.01 3.495 2.01 3.495 1 4 C1.33 8.62 1.66 13.24 2 18 C2.66 17.67 3.32 17.34 4 17 C4.05386629 19.12472576 4.09273071 21.24983652 4.125 23.375 C4.14820313 24.55835937 4.17140625 25.74171875 4.1953125 26.9609375 C4 30 4 30 2 32 C2 29.69 2 27.38 2 25 C1.34 25 0.68 25 0 25 C0 27.97 0 30.94 0 34 C-4 36 -4 36 -7 36 C-7 32.37 -7 28.74 -7 25 C-5.02 24.34 -3.04 23.68 -1 23 C-0.67 19.04 -0.34 15.08 0 11 C-2.31 11.33 -4.62 11.66 -7 12 C-7 10.68 -7 9.36 -7 8 C-3.535 7.505 -3.535 7.505 0 7 C0 4.69 0 2.38 0 0 Z " fill="#A7A7A9" transform="translate(396,98)"/>
<path d="M0 0 C4.29 0 8.58 0 13 0 C13 9.57 13 19.14 13 29 C12.67 29 12.34 29 12 29 C11.27507668 19.64072209 10.85743333 10.39355936 11 1 C8.03 1 5.06 1 2 1 C2 8.26 2 15.52 2 23 C4.97 23 7.94 23 11 23 C11 24.65 11 26.3 11 28 C8.66705225 28.04241723 6.33297433 28.04092937 4 28 C3.67 27.67 3.34 27.34 3 27 C0.30764224 26.76321284 -2.36498156 26.57801975 -5.0625 26.4375 C-6.20041992 26.37272461 -6.20041992 26.37272461 -7.36132812 26.30664062 C-9.24065438 26.20026367 -11.12030244 26.09960066 -13 26 C-13 25.67 -13 25.34 -13 25 C-6.565 24.505 -6.565 24.505 0 24 C0 16.08 0 8.16 0 0 Z " fill="#9B7169" transform="translate(313,85)"/>
<path d="M0 0 C1.6396875 0.2475 1.6396875 0.2475 3.3125 0.5 C6.59444632 0.94500967 7.97409476 0.86454435 11 0 C11.99 0.33 12.98 0.66 14 1 C14 1.66 14 2.32 14 3 C15.32 3 16.64 3 18 3 C18 3.99 18 4.98 18 6 C18.66 6 19.32 6 20 6 C20 5.01 20 4.02 20 3 C20.66 3 21.32 3 22 3 C21.44271087 6.34373475 20.64826111 9.03312999 19 12 C18.34 11.67 17.68 11.34 17 11 C16.59270772 8.67843403 16.25561323 6.3431213 16 4 C15.34 4 14.68 4 14 4 C14.33 5.98 14.66 7.96 15 10 C11 10 11 10 8.8125 9.4375 C8.214375 9.293125 7.61625 9.14875 7 9 C6.67 9.33 6.34 9.66 6 10 C3 10.125 3 10.125 0 10 C-1 9 -1 9 -1.1328125 7.1875 C-1.13023437 6.465625 -1.12765625 5.74375 -1.125 5 C-1.12757813 4.278125 -1.13015625 3.55625 -1.1328125 2.8125 C-1 1 -1 1 0 0 Z " fill="#E02529" transform="translate(275,151)"/>
<path d="M0 0 C1.98 0 3.96 0 6 0 C7.2263757 2.45275141 7.11415314 4.0505781 7.09765625 6.7890625 C7.09282227 8.20058594 7.09282227 8.20058594 7.08789062 9.640625 C7.07951172 10.62546875 7.07113281 11.6103125 7.0625 12.625 C7.05798828 13.61757812 7.05347656 14.61015625 7.04882812 15.6328125 C7.03702145 18.0886016 7.020554 20.54427104 7 23 C4.69 22.67 2.38 22.34 0 22 C0 14.74 0 7.48 0 0 Z " fill="#F0F0F0" transform="translate(426,86)"/>
<path d="M0 0 C4 2 4 2 5.42578125 4.078125 C6.86765954 6.23054533 6.86765954 6.23054533 9.48046875 6.609375 C10.37378906 6.65578125 11.26710938 6.7021875 12.1875 6.75 C13.08855469 6.80671875 13.98960937 6.8634375 14.91796875 6.921875 C15.60503906 6.94765625 16.29210937 6.9734375 17 7 C17 7.33 17 7.66 17 8 C14.03 8 11.06 8 8 8 C7.67 8.99 7.34 9.98 7 11 C6.34 9.68 5.68 8.36 5 7 C4.98541748 7.89831543 4.97083496 8.79663086 4.95581055 9.72216797 C4.89480303 13.0510659 4.82066372 16.37912883 4.73754883 19.70751953 C4.70426822 21.14881342 4.67624596 22.59023863 4.65356445 24.03173828 C4.6200738 26.10245797 4.567767 28.17197093 4.51171875 30.2421875 C4.48553467 31.4885498 4.45935059 32.73491211 4.43237305 34.01904297 C4.28968994 35.00275879 4.14700684 35.98647461 4 37 C0.68629 39.20914 -0.3446021 39.22481553 -4.1875 39.125 C-5.08855469 39.10695312 -5.98960937 39.08890625 -6.91796875 39.0703125 C-7.60503906 39.04710937 -8.29210937 39.02390625 -9 39 C-9 38.67 -9 38.34 -9 38 C-6.03 38 -3.06 38 0 38 C0 33.05 0 28.1 0 23 C0.66 23.99 1.32 24.98 2 26 C2 22.37 2 18.74 2 15 C1.34 14.67 0.68 14.34 0 14 C0 9.38 0 4.76 0 0 Z " fill="#9B7D77" transform="translate(397,102)"/>
<path d="M0 0 C0.33 0 0.66 0 1 0 C1 7.92 1 15.84 1 24 C2.98 24 4.96 24 7 24 C7.33 27.3 7.66 30.6 8 34 C2.25 34.125 2.25 34.125 0 33 C-0.33 33.99 -0.66 34.98 -1 36 C-2.43954532 31.68136403 -1.96706534 27.5501608 -1.83984375 23.03125 C-1.75107565 19.82085685 -1.75107565 19.82085685 -4 17 C-4.14245897 14.23344676 -4.18769445 11.57346694 -4.125 8.8125 C-4.11597656 8.06291016 -4.10695313 7.31332031 -4.09765625 6.54101562 C-4.07412578 4.69387346 -4.03825561 2.84689588 -4 1 C-3.67 1 -3.34 1 -3 1 C-3 4.63 -3 8.26 -3 12 C-2.34 12 -1.68 12 -1 12 C-1.020625 10.7625 -1.04125 9.525 -1.0625 8.25 C-1.06766681 5.3359175 -0.93015558 2.79046673 0 0 Z " fill="#6D6E70" transform="translate(425,86)"/>
<path d="M0 0 C0.33 0 0.66 0 1 0 C1 4.95 1 9.9 1 15 C-13.19 15 -27.38 15 -42 15 C-42 14.67 -42 14.34 -42 14 C-34.08053968 12.12873511 -26.42028652 11.80726326 -18.3125 11.8125 C-17.31976074 11.81185547 -16.32702148 11.81121094 -15.30419922 11.81054688 C-8.134753 11.865247 -8.134753 11.865247 -7 13 C-4.67182036 13.36760731 -2.3381615 13.70241581 0 14 C0 12.35 0 10.7 0 9 C-2.97 9 -5.94 9 -9 9 C-9 8.01 -9 7.02 -9 6 C-6.03 6 -3.06 6 0 6 C0 4.02 0 2.04 0 0 Z " fill="#C2BDC0" transform="translate(324,99)"/>
<path d="M0 0 C0.33 0.66 0.66 1.32 1 2 C6.61 2 12.22 2 18 2 C16.68 2.99 15.36 3.98 14 5 C13.11054688 5.70382813 13.11054688 5.70382813 12.203125 6.421875 C4.82359555 11.43995503 -2.57481685 10.04410245 -11 9 C-7.58249062 5.46151684 -4.03411452 2.79284851 0 0 Z " fill="#C7C1C1" transform="translate(288,79)"/>
<path d="M0 0 C3.09974786 0.3690176 4.17203943 1.47277957 6.625 3.3125 C9.25031524 3.47963569 9.25031524 3.47963569 11.625 3.3125 C12.625 4.3125 12.625 4.3125 12.6875 7.375 C12.666875 8.344375 12.64625 9.31375 12.625 10.3125 C10.16637599 10.36633848 7.7089245 10.40609038 5.25 10.4375 C4.20199219 10.46263672 4.20199219 10.46263672 3.1328125 10.48828125 C1.29602514 10.50594267 -0.54101963 10.41553261 -2.375 10.3125 C-4.375 8.3125 -4.375 8.3125 -4.625 5.3125 C-4.31811239 1.62984874 -3.74513637 0.4927811 0 0 Z " fill="#EF6E54" transform="translate(243.375,150.6875)"/>
<path d="M0 0 C5.94 0 11.88 0 18 0 C15.25118542 2.74881458 13.25171107 4.095252 9.875 5.875 C8.90691406 6.390625 7.93882812 6.90625 6.94140625 7.4375 C5.97074219 7.953125 5.00007812 8.46875 4 9 C2.26842759 9.95397963 0.53900441 10.91187868 -1.1875 11.875 C-1.92355469 12.28492188 -2.65960938 12.69484375 -3.41796875 13.1171875 C-4.20107422 13.55417969 -4.20107422 13.55417969 -5 14 C-4.13266425 8.85989442 -2.18187203 4.7156589 0 0 Z " fill="#DCD4D4" transform="translate(235,132)"/>
<path d="M0 0 C0.33 0 0.66 0 1 0 C1 7.92 1 15.84 1 24 C-3.29 24 -7.58 24 -12 24 C-12 16.74 -12 9.48 -12 2 C-10.68 2.33 -9.36 2.66 -8 3 C-8.33 3.66 -8.66 4.32 -9 5 C-9.22858114 7.0374763 -9.41024278 9.08040303 -9.5625 11.125 C-9.64628906 12.22070312 -9.73007812 13.31640625 -9.81640625 14.4453125 C-9.87699219 15.28835937 -9.93757813 16.13140625 -10 17 C-7.03 17 -4.06 17 -1 17 C-1.020625 17.804375 -1.04125 18.60875 -1.0625 19.4375 C-1.29633621 21.93354885 -1.29633621 21.93354885 0 23 C0 15.41 0 7.82 0 0 Z " fill="#9A726B" transform="translate(325,117)"/>
<path d="M0 0 C0.66 0 1.32 0 2 0 C2 0.66 2 1.32 2 2 C2.66 1.67 3.32 1.34 4 1 C6.3329866 0.95977609 8.66706666 0.95679753 11 1 C11.625 3.3125 11.625 3.3125 12 6 C11.01 7.485 11.01 7.485 10 9 C2.17535135 10.35408011 -6.19794207 10.47970064 -14 9 C-14.33 8.34 -14.66 7.68 -15 7 C-13.824375 7.04125 -12.64875 7.0825 -11.4375 7.125 C-7.27590326 7.13983635 -3.93512333 6.31170778 0 5 C0 4.34 0 3.68 0 3 C-0.66 2.67 -1.32 2.34 -2 2 C-1.34 1.34 -0.68 0.68 0 0 Z " fill="#B2B1B2" transform="translate(367,123)"/>
<path d="M0 0 C6.41868512 -0.3633218 6.41868512 -0.3633218 9 1.25 C10 3 10 3 9.8125 5.125 C9 7 9 7 7 8 C7.56739868 12.12973628 7.56739868 12.12973628 9 16 C7.68 16 6.36 16 5 16 C4.67 13.69 4.34 11.38 4 9 C1.2160817 10.39195915 1.02101003 12.15575779 0 15 C0.66 15.33 1.32 15.66 2 16 C0.02 16 -1.96 16 -4 16 C-3.71125 15.18015625 -3.4225 14.3603125 -3.125 13.515625 C-2.75375 12.43796875 -2.3825 11.3603125 -2 10.25 C-1.62875 9.18265625 -1.2575 8.1153125 -0.875 7.015625 C0.18577477 3.88307438 0.18577477 3.88307438 0 0 Z " fill="#373737" transform="translate(207,203)"/>
<path d="M0 0 C0.99 0 1.98 0 3 0 C3.66 1.32 4.32 2.64 5 4 C5.33 2.68 5.66 1.36 6 0 C6.99 0 7.98 0 9 0 C9.33 1.32 9.66 2.64 10 4 C10.33 3.67 10.66 3.34 11 3 C13.5 2.875 13.5 2.875 16 3 C17 4 17 4 17.125 6.5 C17 9 17 9 16 10 C14.33388095 10.042721 12.66617115 10.04063832 11 10 C10.34 10 9.68 10 9 10 C7 9.75 7 9.75 5 9 C3.75 6.9375 3.75 6.9375 3 5 C2.67 6.65 2.34 8.3 2 10 C1.34 10 0.68 10 0 10 C0 6.7 0 3.4 0 0 Z " fill="#EEC1B1" transform="translate(355,151)"/>
<path d="M0 0 C1.62580966 0.11398665 3.25067157 0.24155659 4.875 0.375 C5.77992188 0.44460937 6.68484375 0.51421875 7.6171875 0.5859375 C10 1 10 1 12 3 C13.98821313 3.39764263 15.98944339 3.73775349 18 4 C18 5.98 18 7.96 18 10 C15.7482505 9.74411938 13.49859986 9.46972223 11.25 9.1875 C9.37054688 8.96126953 9.37054688 8.96126953 7.453125 8.73046875 C4.04793684 8.01014049 2.30471516 7.58989456 0 5 C-0.25 2.3125 -0.25 2.3125 0 0 Z " fill="#D7D7D9" transform="translate(414,122)"/>
<path d="M0 0 C2.64 0.33 5.28 0.66 8 1 C8 5.62 8 10.24 8 15 C3.38 14.34 -1.24 13.68 -6 13 C-6 12.34 -6 11.68 -6 11 C-4.20793453 11.14084796 -2.41635083 11.28783701 -0.625 11.4375 C0.87160156 11.55931641 0.87160156 11.55931641 2.3984375 11.68359375 C5 12 5 12 7 13 C7 11.02 7 9.04 7 7 C4.69 7 2.38 7 0 7 C-0.33 6.01 -0.66 5.02 -1 4 C-4.3 3.67 -7.6 3.34 -11 3 C-11 4.65 -11 6.3 -11 8 C-12.5625 6.75 -12.5625 6.75 -14 5 C-13.58984375 2.890625 -13.58984375 2.890625 -13 1 C-11.18757948 0.97312721 -9.37504767 0.95366285 -7.5625 0.9375 C-6.55316406 0.92589844 -5.54382813 0.91429688 -4.50390625 0.90234375 C-2 1 -2 1 -1 2 C-0.67 1.34 -0.34 0.68 0 0 Z " fill="#A6A5A7" transform="translate(425,119)"/>
<path d="M0 0 C6.75 -0.125 6.75 -0.125 9 1 C9 2.98 9 4.96 9 7 C8.01 7.495 8.01 7.495 7 8 C7.56739868 12.12973628 7.56739868 12.12973628 9 16 C7.68 16 6.36 16 5 16 C4.67 13.69 4.34 11.38 4 9 C3.01 9 2.02 9 1 9 C1 11.31 1 13.62 1 16 C-0.65 16 -2.3 16 -4 16 C-3.71125 15.26394531 -3.4225 14.52789062 -3.125 13.76953125 C-2.568125 12.30580078 -2.568125 12.30580078 -2 10.8125 C-1.62875 9.84957031 -1.2575 8.88664063 -0.875 7.89453125 C-0.02363228 5.07817642 0.17072647 2.91835561 0 0 Z " fill="#2A2A2A" transform="translate(331,203)"/>
<path d="M0 0 C1.12350861 0.00141495 2.24701721 0.0028299 3.40457153 0.00428772 C6.98067933 0.00986961 10.55672373 0.02241884 14.1328125 0.03515625 C16.56249909 0.04017359 18.99218667 0.04473609 21.421875 0.04882812 C27.36720901 0.05983311 33.31250622 0.07655324 39.2578125 0.09765625 C37.52230764 2.30167153 36.67492363 3.04180647 33.84700012 3.42045593 C32.89435776 3.39602921 31.94171539 3.37160248 30.96020508 3.34643555 C29.87931107 3.3261882 28.79841705 3.30594086 27.68476868 3.28507996 C25.93621834 3.2290435 25.93621834 3.2290435 24.15234375 3.171875 C22.95800217 3.14543411 21.76366058 3.11899323 20.53312683 3.0917511 C16.71168788 3.00385508 12.8911849 2.89474884 9.0703125 2.78515625 C6.48245561 2.72191154 3.89456464 2.66004504 1.30664062 2.59960938 C-5.04345097 2.44829244 -11.3929022 2.27954987 -17.7421875 2.09765625 C-17.7421875 1.76765625 -17.7421875 1.43765625 -17.7421875 1.09765625 C-11.84436738 -0.18776608 -6.00210841 -0.02856236 0 0 Z " fill="#CFCCCD" transform="translate(277.7421875,73.90234375)"/>
<path d="M0 0 C2.31 0 4.62 0 7 0 C6.34 0.66 5.68 1.32 5 2 C4.35232207 4.57061311 4.35232207 4.57061311 4 7 C5.98 7 7.96 7 10 7 C10 4.69 10 2.38 10 0 C11.98 0 13.96 0 16 0 C15.67 0.66 15.34 1.32 15 2 C14.34 2 13.68 2 13 2 C12.67 6.62 12.34 11.24 12 16 C10.02 16 8.04 16 6 16 C6.99 13.36 7.98 10.72 9 8 C7.02 8.33 5.04 8.66 3 9 C3 11.31 3 13.62 3 16 C1.02 16 -0.96 16 -3 16 C-2.54625 15.01 -2.0925 14.02 -1.625 13 C0.06692715 9.07889869 1.05143901 5.15907513 2 1 C1.34 0.67 0.68 0.34 0 0 Z " fill="#363636" transform="translate(254,203)"/>
<path d="M0 0 C0.78375 0.04125 1.5675 0.0825 2.375 0.125 C2.375 0.785 2.375 1.445 2.375 2.125 C3.365 1.795 4.355 1.465 5.375 1.125 C7.5625 2.0625 7.5625 2.0625 9.375 3.125 C9.375 3.785 9.375 4.445 9.375 5.125 C8.715 5.125 8.055 5.125 7.375 5.125 C7.375 6.775 7.375 8.425 7.375 10.125 C5.58406809 10.20586147 3.79210372 10.26412702 2 10.3125 C0.50339844 10.36470703 0.50339844 10.36470703 -1.0234375 10.41796875 C-1.88195312 10.32128906 -2.74046875 10.22460938 -3.625 10.125 C-5.625 7.125 -5.625 7.125 -5.375 4.5625 C-4.336523 1.18744974 -3.59386412 0.17113639 0 0 Z " fill="#DE4E41" transform="translate(309.625,150.875)"/>
<path d="M0 0 C3.3 0 6.6 0 10 0 C10 2.97 10 5.94 10 9 C7.69 9.33 5.38 9.66 3 10 C2.67 11.65 2.34 13.3 2 15 C-0.35119399 11.47320901 -0.21443452 9.97120515 -0.125 5.8125 C-0.10695313 4.72582031 -0.08890625 3.63914062 -0.0703125 2.51953125 C-0.04710937 1.68808594 -0.02390625 0.85664062 0 0 Z " fill="#7D7C7D" transform="translate(334,112)"/>
<path d="M0 0 C1.32 0 2.64 0 4 0 C4.33 0.99 4.66 1.98 5 3 C5.66 2.01 6.32 1.02 7 0 C7.66 0 8.32 0 9 0 C9.33 0.99 9.66 1.98 10 3 C10.66 2.01 11.32 1.02 12 0 C12.66 0 13.32 0 14 0 C13.745504 1.48206495 13.47088238 2.96068615 13.1875 4.4375 C13.03667969 5.26121094 12.88585937 6.08492187 12.73046875 6.93359375 C12.36888672 7.95646484 12.36888672 7.95646484 12 9 C11.01 9.33 10.02 9.66 9 10 C8.67 9.01 8.34 8.02 8 7 C7.67 7.99 7.34 8.98 7 10 C6.01 10 5.02 10 4 10 C3.34 7.36 2.68 4.72 2 2 C0.61070346 3.16247951 0.61070346 3.16247951 0.875 6.375 C0.82699539 9.95322972 0.82699539 9.95322972 2 13 C1.01 12.67 0.02 12.34 -1 12 C-1.2226746 10.56465159 -1.42761906 9.12654475 -1.625 7.6875 C-1.74101562 6.88699219 -1.85703125 6.08648437 -1.9765625 5.26171875 C-2 3 -2 3 0 0 Z " fill="#F5DFD6" transform="translate(398,151)"/>
<path d="M0 0 C1.18916016 0.01353516 1.18916016 0.01353516 2.40234375 0.02734375 C4.35169281 0.05082988 6.30088575 0.08669863 8.25 0.125 C5.4609375 5.0234375 5.4609375 5.0234375 3.5625 5.9375 C-1.70265138 6.36440417 -6.61218679 6.4094533 -11.75 5.125 C-12.08 4.135 -12.41 3.145 -12.75 2.125 C-8.77389214 -0.58986934 -4.61098023 -0.09940753 0 0 Z " fill="#787070" transform="translate(360.75,134.875)"/>
<path d="M0 0 C4.02986136 0.74974165 5.29125855 3.32659916 7.6875 6.5 C8.3475 6.83 9.0075 7.16 9.6875 7.5 C9.6875 8.16 9.6875 8.82 9.6875 9.5 C6.89165203 10.44774508 4.5916815 11.22571619 1.6875 11.5 C-1.7023845 9.69686994 -2.95909822 8.48952499 -4.25 4.875 C-4.270625 4.09125 -4.29125 3.3075 -4.3125 2.5 C-2.3125 0.5 -2.3125 0.5 0 0 Z " fill="#EAEAEB" transform="translate(341.3125,123.5)"/>
<path d="M0 0 C-1.39376251 3.36825939 -2.7929101 5.2139827 -6 7 C-9.015625 7.29296875 -9.015625 7.29296875 -12.25 7.1875 C-13.86648437 7.14689453 -13.86648437 7.14689453 -15.515625 7.10546875 C-16.74539062 7.05326172 -16.74539062 7.05326172 -18 7 C-13.88681748 -1.53104522 -8.85295819 -0.8165979 0 0 Z " fill="#E0DDDF" transform="translate(262,112)"/>
<path d="M0 0 C6.38765483 -0.11951953 12.74791297 0.01472556 19.125 0.375 C20.40632813 0.44460937 21.68765625 0.51421875 23.0078125 0.5859375 C23.99523437 0.72257812 24.98265625 0.85921875 26 1 C26.33 1.66 26.66 2.32 27 3 C23.65613602 4.01085428 20.6251882 4.11543463 17.140625 4.09765625 C16.02558594 4.09443359 14.91054688 4.09121094 13.76171875 4.08789062 C12.60285156 4.07951172 11.44398438 4.07113281 10.25 4.0625 C9.07566406 4.05798828 7.90132813 4.05347656 6.69140625 4.04882812 C3.79421928 4.03705094 0.89713546 4.02060326 -2 4 C-1.34 2.68 -0.68 1.36 0 0 Z " fill="#ECEBEC" transform="translate(254,76)"/>
<path d="M0 0 C-0.33 0.33 -0.66 0.66 -1 1 C6.26 1.33 13.52 1.66 21 2 C21 2.33 21 2.66 21 3 C9.96308188 5.25572049 -0.78461253 5.20127315 -12 5 C-8.57151237 1.36743573 -5.0640084 -1.6880028 0 0 Z " fill="#D7D4D5" transform="translate(254,78)"/>
<path d="M0 0 C1.75 0.8125 1.75 0.8125 2.75 1.8125 C3.19437646 5.10088577 3.0444593 6.40898169 1.0625 9.125 C-1.65351831 11.1069593 -2.96161423 11.25687646 -6.25 10.8125 C-7.25 9.8125 -7.25 9.8125 -7.625 7 C-7.25 3.8125 -7.25 3.8125 -5 1.375 C-2.25 -0.1875 -2.25 -0.1875 0 0 Z " fill="#1B1B1B" transform="translate(276.25,208.1875)"/>
<path d="M0 0 C3.0780003 2.77020027 4.80482008 5.01606693 6 9 C6 10.32 6 11.64 6 13 C9.3 12.67 12.6 12.34 16 12 C15.67 13.32 15.34 14.64 15 16 C12.03 15.67 9.06 15.34 6 15 C6 17.97 6 20.94 6 24 C5.67 24 5.34 24 5 24 C4.80083984 22.75283203 4.80083984 22.75283203 4.59765625 21.48046875 C4.42105469 20.39378906 4.24445313 19.30710937 4.0625 18.1875 C3.88847656 17.10855469 3.71445312 16.02960938 3.53515625 14.91796875 C2.58035733 9.71187536 0.80851004 7.61320183 -3 4 C-2.67 3.34 -2.34 2.68 -2 2 C-1.01 2.33 -0.02 2.66 1 3 C0.67 2.01 0.34 1.02 0 0 Z " fill="#B4B4B6" transform="translate(366,94)"/>
<path d="M0 0 C1.2684375 0.0309375 1.2684375 0.0309375 2.5625 0.0625 C3.2225 0.0625 3.8825 0.0625 4.5625 0.0625 C6.22916667 0.0625 7.89583333 0.0625 9.5625 0.0625 C9.5625 2.3725 9.5625 4.6825 9.5625 7.0625 C7.9125 7.0625 6.2625 7.0625 4.5625 7.0625 C4.2325 6.0725 3.9025 5.0825 3.5625 4.0625 C2.5725 5.5475 2.5725 5.5475 1.5625 7.0625 C-0.0875 6.7325 -1.7375 6.4025 -3.4375 6.0625 C-3.480221 4.39638095 -3.47813832 2.72867115 -3.4375 1.0625 C-2.4375 0.0625 -2.4375 0.0625 0 0 Z " fill="#F4CEC3" transform="translate(323.4375,153.9375)"/>
<path d="M0 0 C0.99 0 1.98 0 3 0 C3 1.98 3 3.96 3 6 C4.32 6 5.64 6 7 6 C6.67 8.31 6.34 10.62 6 13 C6.66 13.33 7.32 13.66 8 14 C7.34 14.66 6.68 15.32 6 16 C5.01 16 4.02 16 3 16 C3.33 13.36 3.66 10.72 4 8 C1.84622436 10.62198774 0.59927826 12.64404172 0 16 C-0.99 16 -1.98 16 -3 16 C-2.7834375 14.92878906 -2.566875 13.85757813 -2.34375 12.75390625 C-2.06244961 11.35678098 -1.78120235 9.95964501 -1.5 8.5625 C-1.35691406 7.85544922 -1.21382813 7.14839844 -1.06640625 6.41992188 C-0.3198649 3.23467273 -0.3198649 3.23467273 0 0 Z " fill="#2F2F2F" transform="translate(361,203)"/>
<path d="M0 0 C2.64 0 5.28 0 8 0 C8 0.99 8 1.98 8 3 C7.34 3 6.68 3 6 3 C6 4.65 6 6.3 6 8 C4.52093108 8.02689216 3.04172517 8.04634621 1.5625 8.0625 C0.32693359 8.07990234 0.32693359 8.07990234 -0.93359375 8.09765625 C-3 8 -3 8 -4 7 C-4.04080783 5.00041636 -4.04254356 2.99954746 -4 1 C-3.34 1 -2.68 1 -2 1 C-2 2.65 -2 4.3 -2 6 C-1.34 6 -0.68 6 0 6 C0 4.02 0 2.04 0 0 Z " fill="#EC6D52" transform="translate(261,153)"/>
<path d="M0 0 C2.64 0 5.28 0 8 0 C8 2.64 8 5.28 8 8 C3.545 8.495 3.545 8.495 -1 9 C-0.67 6.03 -0.34 3.06 0 0 Z " fill="#D8D8D9" transform="translate(316,123)"/>
<path d="M0 0 C1.52491998 3.04983996 1.23562548 5.6423369 1 9 C-0.5 10.9375 -0.5 10.9375 -2 12 C-2 11.01 -2 10.02 -2 9 C-3.32 8.67 -4.64 8.34 -6 8 C-7.125 2.25 -7.125 2.25 -6 0 C-3 -1 -3 -1 0 0 Z " fill="#D98D83" transform="translate(433,152)"/>
<path d="M0 0 C0.33 0 0.66 0 1 0 C1 2.97 1 5.94 1 9 C3.97 9 6.94 9 10 9 C10 10.65 10 12.3 10 14 C7.66705225 14.04241723 5.33297433 14.04092937 3 14 C2.67 13.67 2.34 13.34 2 13 C-0.69235776 12.76321284 -3.36498156 12.57801975 -6.0625 12.4375 C-6.82111328 12.39431641 -7.57972656 12.35113281 -8.36132812 12.30664062 C-10.24065438 12.20026367 -12.12030244 12.09960066 -14 12 C-14 11.67 -14 11.34 -14 11 C-9.38 11 -4.76 11 0 11 C0 7.37 0 3.74 0 0 Z " fill="#9B999C" transform="translate(314,99)"/>
<path d="M0 0 C0 3.3 0 6.6 0 10 C-2.31 10.33 -4.62 10.66 -7 11 C-7 7.7 -7 4.4 -7 1 C-2.25 0 -2.25 0 0 0 Z " fill="#666668" transform="translate(396,111)"/>
<path d="M0 0 C0.66 0 1.32 0 2 0 C1.67 5.61 1.34 11.22 1 17 C-1.64 17 -4.28 17 -7 17 C-7 15.02 -7 13.04 -7 11 C-5.02 10.34 -3.04 9.68 -1 9 C-0.67 6.03 -0.34 3.06 0 0 Z " fill="#BABBBD" transform="translate(396,123)"/>
<path d="M0 0 C0 0.33 0 0.66 0 1 C11.55 1 23.1 1 35 1 C35 1.33 35 1.66 35 2 C29.90807713 3.03485633 25.05052659 3.13009967 19.8828125 3.09765625 C19.02565643 3.0962413 18.16850037 3.09482635 17.28536987 3.09336853 C14.5652101 3.08780022 11.84513462 3.07525364 9.125 3.0625 C7.27343869 3.0574809 5.42187609 3.05291871 3.5703125 3.04882812 C-0.95315715 3.03784117 -5.47656432 3.02059852 -10 3 C-9 1 -9 1 -6.125 -0.1875 C-3 -1 -3 -1 0 0 Z " fill="#BFACAB" transform="translate(270,118)"/>
<path d="M0 0 C1.55907264 0.02653741 3.11789956 0.07416901 4.67578125 0.140625 C5.47306641 0.15867187 6.27035156 0.17671875 7.09179688 0.1953125 C9.05780574 0.24240253 11.02319619 0.31414601 12.98828125 0.390625 C11.50390625 2.375 11.50390625 2.375 8.98828125 4.390625 C6.09378176 4.6812374 3.6087819 4.77248545 0.73828125 4.640625 C-0.37933594 4.61355469 -0.37933594 4.61355469 -1.51953125 4.5859375 C-3.35081576 4.53898149 -5.18143524 4.46724152 -7.01171875 4.390625 C-5.28944225 0.8195374 -3.79017889 0.10573277 0 0 Z " fill="#B1ADB0" transform="translate(267.01171875,97.609375)"/>
<path d="M0 0 C0.66 0 1.32 0 2 0 C2 0.66 2 1.32 2 2 C3.32 2 4.64 2 6 2 C6 2.99 6 3.98 6 5 C6.66 5 7.32 5 8 5 C8 4.01 8 3.02 8 2 C8.66 2 9.32 2 10 2 C9.44271087 5.34373475 8.64826111 8.03312999 7 11 C6.34 10.67 5.68 10.34 5 10 C4.59270772 7.67843403 4.25561323 5.3431213 4 3 C3.34 3 2.68 3 2 3 C2.33 4.98 2.66 6.96 3 9 C1 9 -1 9 -3 9 C-3 6.69 -3 4.38 -3 2 C-2.01 2 -1.02 2 0 2 C0 1.34 0 0.68 0 0 Z " fill="#FAE2DA" transform="translate(287,152)"/>
<path d="M0 0 C-3.72095946 1.24031982 -7.21931099 1.19322218 -11.09765625 1.24609375 C-12.71940681 1.27901393 -14.34115147 1.31222587 -15.96289062 1.34570312 C-18.51957379 1.3932361 -21.07622996 1.43770995 -23.63305664 1.47680664 C-26.1006682 1.51640414 -28.56780443 1.56795641 -31.03515625 1.62109375 C-31.80287857 1.6295079 -32.57060089 1.63792206 -33.36158752 1.64659119 C-37.6429043 1.59872715 -37.6429043 1.59872715 -41 4 C-43.625 4.125 -43.625 4.125 -46 4 C-45.67 2.68 -45.34 1.36 -45 0 C-39.23438773 -0.16776425 -33.46863657 -0.32830841 -27.70263672 -0.48217773 C-25.74131873 -0.53553259 -23.78005328 -0.59085676 -21.81884766 -0.64819336 C-18.99913866 -0.73028615 -16.17931632 -0.80528481 -13.359375 -0.87890625 C-12.48319519 -0.90594131 -11.60701538 -0.93297638 -10.70428467 -0.96083069 C-9.88373596 -0.98092697 -9.06318726 -1.00102325 -8.21777344 -1.02172852 C-7.49829529 -1.04171402 -6.77881714 -1.06169952 -6.03753662 -1.08229065 C-3.9014967 -0.99602172 -2.05010367 -0.58873192 0 0 Z " fill="#87888B" transform="translate(285,123)"/>
<path d="M0 0 C2.97 0 5.94 0 9 0 C10 4 10 4 9 7 C6.03 6.67 3.06 6.34 0 6 C0 4.02 0 2.04 0 0 Z " fill="#6E6F72" transform="translate(372,113)"/>
<path d="M0 0 C1.84658203 0.00966797 1.84658203 0.00966797 3.73046875 0.01953125 C6.8125 0.1875 6.8125 0.1875 8.8125 1.1875 C8.8125 1.8475 8.8125 2.5075 8.8125 3.1875 C7.93513184 3.20937378 7.93513184 3.20937378 7.04003906 3.23168945 C4.38020603 3.3063357 1.72160552 3.40293899 -0.9375 3.5 C-1.85789062 3.52255859 -2.77828125 3.54511719 -3.7265625 3.56835938 C-4.61601562 3.60380859 -5.50546875 3.63925781 -6.421875 3.67578125 C-7.64729004 3.71505737 -7.64729004 3.71505737 -8.89746094 3.75512695 C-11.64744617 4.27434058 -13.08979473 5.37833451 -15.1875 7.1875 C-15.8475 6.8575 -16.5075 6.5275 -17.1875 6.1875 C-11.50104712 1.31339754 -7.50550449 -0.08699742 0 0 Z " fill="#B7A09C" transform="translate(358.1875,84.8125)"/>
<path d="M0 0 C15.84 0 31.68 0 48 0 C46 2 46 2 43.84521484 2.13525391 C42.97590332 2.08288574 42.1065918 2.03051758 41.2109375 1.9765625 C39.79941406 1.89921875 39.79941406 1.89921875 38.359375 1.8203125 C37.37453125 1.75585938 36.3896875 1.69140625 35.375 1.625 C34.38242187 1.56828125 33.38984375 1.5115625 32.3671875 1.453125 C29.91075233 1.31140759 27.45530265 1.15997723 25 1 C24.67 1.66 24.34 2.32 24 3 C17.84765625 3.09765625 17.84765625 3.09765625 16 3 C15.67 2.67 15.34 2.34 15 2 C12.47403741 1.76346477 9.96892793 1.57826308 7.4375 1.4375 C6.72658203 1.39431641 6.01566406 1.35113281 5.28320312 1.30664062 C3.52238088 1.20028223 1.7612168 1.09961154 0 1 C0 0.67 0 0.34 0 0 Z " fill="#E4DEDD" transform="translate(265,76)"/>
<path d="M0 0 C-0.1875 2.3125 -0.1875 2.3125 -1 5 C-3.5625 6.8125 -3.5625 6.8125 -6 8 C-4.02 8 -2.04 8 0 8 C-1.1875 9.5 -1.1875 9.5 -3 11 C-5.625 11.25 -5.625 11.25 -8 11 C-9 10 -9 10 -9.375 7.75 C-8.62467187 2.24759369 -5.29021859 0 0 0 Z " fill="#3E3E3E" transform="translate(472,208)"/>
<path d="M0 0 C2.69082872 0.17635452 5.32851446 0.61835921 8 1 C8 3.97 8 6.94 8 10 C6.68 10.33 5.36 10.66 4 11 C4.33 8.36 4.66 5.72 5 3 C2.84622436 5.62198774 1.59927826 7.64404172 1 11 C0.01 11 -0.98 11 -2 11 C-1.85957123 9.35369672 -1.71250671 7.70795821 -1.5625 6.0625 C-1.48128906 5.14597656 -1.40007812 4.22945312 -1.31640625 3.28515625 C-1 1 -1 1 0 0 Z " fill="#3B3B3B" transform="translate(287,208)"/>
<path d="M0 0 C0.33 0.99 0.66 1.98 1 3 C2.65 3 4.3 3 6 3 C8 8.625 8 8.625 8 12 C7.01 12.66 6.02 13.32 5 14 C4.67 11.03 4.34 8.06 4 5 C2.68 4.67 1.36 4.34 0 4 C-0.20970559 8.14093698 -0.20970559 8.14093698 1 12 C-0.65 12.33 -2.3 12.66 -4 13 C-2.8 2.8 -2.8 2.8 0 0 Z " fill="#1E1E1E" transform="translate(444,206)"/>
<path d="M0 0 C1.98 0 3.96 0 6 0 C5.54625 0.804375 5.0925 1.60875 4.625 2.4375 C2.7414944 6.56672383 1.83834096 10.56172434 1 15 C4.54518884 13.60240095 4.54518884 13.60240095 8 12 C7.67 13.32 7.34 14.64 7 16 C3.37 16 -0.26 16 -4 16 C-3.34 15.01 -2.68 14.02 -2 13 C-0.54927437 8.71946388 0.28337276 4.53396416 0 0 Z " fill="#1F1F1F" transform="translate(398,203)"/>
<path d="M0 0 C0 6.93 0 13.86 0 21 C-0.33 21 -0.66 21 -1 21 C-1.33 14.4 -1.66 7.8 -2 1 C-4.31 1 -6.62 1 -9 1 C-9.33 4.96 -9.66 8.92 -10 13 C-10.66 13 -11.32 13 -12 13 C-12 9.04 -12 5.08 -12 1 C-10 0 -10 0 0 0 Z " fill="#907F7A" transform="translate(434,85)"/>
<path d="M0 0 C-0.33 1.65 -0.66 3.3 -1 5 C-2.98 5.66 -4.96 6.32 -7 7 C-7 7.66 -7 8.32 -7 9 C-5.35 9 -3.7 9 -2 9 C-2.33 9.66 -2.66 10.32 -3 11 C-4.66611905 11.042721 -6.33382885 11.04063832 -8 11 C-8.33 10.67 -8.66 10.34 -9 10 C-8.6496945 3.69450102 -8.6496945 3.69450102 -6.1875 1.0625 C-4 0 -4 0 0 0 Z " fill="#737373" transform="translate(306,208)"/>
<path d="M0 0 C1.51400391 0.01740234 1.51400391 0.01740234 3.05859375 0.03515625 C4.07050781 0.04417969 5.08242188 0.05320313 6.125 0.0625 C7.29869141 0.07990234 7.29869141 0.07990234 8.49609375 0.09765625 C8.49609375 0.75765625 8.49609375 1.41765625 8.49609375 2.09765625 C7.50609375 2.59265625 7.50609375 2.59265625 6.49609375 3.09765625 C5.84396083 5.1222888 5.84396083 5.1222888 5.49609375 7.09765625 C4.83609375 7.09765625 4.17609375 7.09765625 3.49609375 7.09765625 C3.49609375 6.10765625 3.49609375 5.11765625 3.49609375 4.09765625 C2.50609375 5.58265625 2.50609375 5.58265625 1.49609375 7.09765625 C-0.15390625 6.76765625 -1.80390625 6.43765625 -3.50390625 6.09765625 C-3.54662725 4.4315372 -3.54454457 2.7638274 -3.50390625 1.09765625 C-2.50390625 0.09765625 -2.50390625 0.09765625 0 0 Z " fill="#F2CCBF" transform="translate(342.50390625,153.90234375)"/>
<path d="M0 0 C2.31 0 4.62 0 7 0 C7.625 2.375 7.625 2.375 8 5 C7.34 5.66 6.68 6.32 6 7 C3.8359375 6.9765625 3.8359375 6.9765625 1.375 6.625 C0.55773437 6.51414063 -0.25953125 6.40328125 -1.1015625 6.2890625 C-1.72804688 6.19367188 -2.35453125 6.09828125 -3 6 C-2.01 4.02 -1.02 2.04 0 0 Z " fill="#D3D3D5" transform="translate(371,124)"/>
<path d="M0 0 C0.86625 0.3403125 0.86625 0.3403125 1.75 0.6875 C1.625 2.5625 1.625 2.5625 0.75 4.6875 C-2.3125 5.9375 -2.3125 5.9375 -5.25 6.6875 C-5.25 7.3475 -5.25 8.0075 -5.25 8.6875 C-3.6 8.6875 -1.95 8.6875 -0.25 8.6875 C-0.58 9.3475 -0.91 10.0075 -1.25 10.6875 C-2.91611905 10.730221 -4.58382885 10.72813832 -6.25 10.6875 C-6.58 10.3575 -6.91 10.0275 -7.25 9.6875 C-6.90102041 3.40586735 -6.90102041 3.40586735 -4.4375 0.6875 C-2.25 -0.3125 -2.25 -0.3125 0 0 Z " fill="#323232" transform="translate(428.25,208.3125)"/>
<path d="M0 0 C1.2375 0.1546875 1.2375 0.1546875 2.5 0.3125 C3.16 1.3025 3.82 2.2925 4.5 3.3125 C2.85 3.3125 1.2 3.3125 -0.5 3.3125 C-0.83 4.9625 -1.16 6.6125 -1.5 8.3125 C-0.18 8.3125 1.14 8.3125 2.5 8.3125 C2.5 7.6525 2.5 6.9925 2.5 6.3125 C1.84 5.9825 1.18 5.6525 0.5 5.3125 C1.82 5.3125 3.14 5.3125 4.5 5.3125 C4.5 6.9625 4.5 8.6125 4.5 10.3125 C1.125 10.4375 1.125 10.4375 -2.5 10.3125 C-4.5 8.3125 -4.5 8.3125 -4.75 5.3125 C-4.43541678 1.53750135 -3.81908518 0.47738565 0 0 Z " fill="#FEF6F2" transform="translate(243.5,150.6875)"/>
<path d="M0 0 C1.26457031 0.04640625 2.52914063 0.0928125 3.83203125 0.140625 C5.74048828 0.19476563 5.74048828 0.19476563 7.6875 0.25 C9.15123047 0.31960937 9.15123047 0.31960937 10.64453125 0.390625 C8.98445978 2.82144395 8.17506359 4.00374838 5.64453125 5.390625 C1.56812531 5.5390507 -2.33509262 5.0382454 -6.35546875 4.390625 C-4.58051784 1.03867309 -3.85822213 0.44915275 0 0 Z " fill="#8A8C90" transform="translate(256.35546875,107.609375)"/>
<path d="M0 0 C17.16 0 34.32 0 52 0 C51.01 0.99 50.02 1.98 49 3 C48.34 2.67 47.68 2.34 47 2 C45.4892243 1.88194823 43.97361169 1.82303551 42.45849609 1.79467773 C41.51767181 1.77473251 40.57684753 1.75478729 39.60751343 1.73423767 C38.58976837 1.71752518 37.57202332 1.70081268 36.5234375 1.68359375 C35.48305328 1.66281265 34.44266907 1.64203156 33.37075806 1.62062073 C30.03890751 1.55510128 26.7069765 1.49622908 23.375 1.4375 C21.11978326 1.39431706 18.86457473 1.35070285 16.609375 1.30664062 C11.07300236 1.19941748 5.53654922 1.09765554 0 1 C0 0.67 0 0.34 0 0 Z " fill="#AEAAAA" transform="translate(269,72)"/>
<path d="M0 0 C3.16115776 1.36983503 3.9927092 1.9890638 6 5 C8.56282742 5.72965366 8.56282742 5.72965366 11 6 C11 6.66 11 7.32 11 8 C9.68 8 8.36 8 7 8 C7.5882524 10.05488356 7.5882524 10.05488356 9 12 C11.64787088 12.70373017 11.64787088 12.70373017 14.625 12.75 C16.12933594 12.83507812 16.12933594 12.83507812 17.6640625 12.921875 C18.43492187 12.94765625 19.20578125 12.9734375 20 13 C20 13.33 20 13.66 20 14 C15.94483097 14.3443068 12.04210448 14.54433674 8 14 C5.375 11.0625 5.375 11.0625 4 8 C3.34 7.67 2.68 7.34 2 7 C1.26924352 4.6859378 0.59861742 2.35171131 0 0 Z " fill="#806664" transform="translate(414,127)"/>
<path d="M0 0 C0 2.31 0 4.62 0 7 C-2.64738916 8.4606285 -3.89448334 9 -7 9 C-7 6.36 -7 3.72 -7 1 C-4.53721199 -0.231394 -2.7204945 -0.07159196 0 0 Z " fill="#DDDDDE" transform="translate(396,125)"/>
<path d="M0 0 C0.66 0.33 1.32 0.66 2 1 C1.3503125 2.4540625 1.3503125 2.4540625 0.6875 3.9375 C-0.55719101 6.81256094 -1.56461351 9.69822255 -2.5 12.6875 C-3.55706819 15.91376019 -4.49266816 18.59714032 -7 21 C-7.99 21 -8.98 21 -10 21 C-10 20.01 -10 19.02 -10 18 C-9.01 18 -8.02 18 -7 18 C-5.45080188 13.30814962 -5.45080188 13.30814962 -5.1875 8.4375 C-4.89096218 4.58250835 -2.59057911 2.78487255 0 0 Z " fill="#434343" transform="translate(420,203)"/>
<path d="M0 0 C0.78375 0.04125 1.5675 0.0825 2.375 0.125 C2.705 1.115 3.035 2.105 3.375 3.125 C1.725 3.125 0.075 3.125 -1.625 3.125 C-1.625 4.445 -1.625 5.765 -1.625 7.125 C-0.635 7.455 0.355 7.785 1.375 8.125 C1.375 7.465 1.375 6.805 1.375 6.125 C0.715 5.795 0.055 5.465 -0.625 5.125 C0.695 5.125 2.015 5.125 3.375 5.125 C3.375 6.775 3.375 8.425 3.375 10.125 C0 10.3125 0 10.3125 -3.625 10.125 C-5.625 7.125 -5.625 7.125 -5.375 4.5625 C-4.336523 1.18744974 -3.59386412 0.17113639 0 0 Z " fill="#F9E0D7" transform="translate(309.625,150.875)"/>
<path d="M0 0 C3.96 0 7.92 0 12 0 C11.67 0.99 11.34 1.98 11 3 C11.99 2.67 12.98 2.34 14 2 C14 2.66 14 3.32 14 4 C8.72 4 3.44 4 -2 4 C-1.34 2.68 -0.68 1.36 0 0 Z " fill="#AAA8AB" transform="translate(243,119)"/>
<path d="M0 0 C2.08153935 -0.13536022 4.16561206 -0.23215465 6.25 -0.3125 C7.41015625 -0.37050781 8.5703125 -0.42851563 9.765625 -0.48828125 C13 0 13 0 15.21484375 2.234375 C15.80394531 3.14703125 16.39304687 4.0596875 17 5 C17.57363281 5.76441406 18.14726562 6.52882813 18.73828125 7.31640625 C19.51751953 8.42822266 19.51751953 8.42822266 20.3125 9.5625 C20.84488281 10.30628906 21.37726563 11.05007812 21.92578125 11.81640625 C23.22082387 14.44887471 22.82640404 15.28457079 22 18 C21.28972656 16.92878906 20.57945312 15.85757813 19.84765625 14.75390625 C18.91933146 13.35673055 17.99094274 11.95959733 17.0625 10.5625 C16.35963867 9.50192383 16.35963867 9.50192383 15.64257812 8.41992188 C15.19462891 7.74638672 14.74667969 7.07285156 14.28515625 6.37890625 C13.87144775 5.7557251 13.45773926 5.13254395 13.03149414 4.49047852 C12.0794855 3.01980114 12.0794855 3.01980114 11 2 C9.15108054 1.76636119 7.29511969 1.58696365 5.4375 1.4375 C4.42558594 1.35371094 3.41367187 1.26992187 2.37109375 1.18359375 C1.19740234 1.09271484 1.19740234 1.09271484 0 1 C0 0.67 0 0.34 0 0 Z " fill="#A18C88" transform="translate(388,85)"/>
<path d="M0 0 C0.66 0 1.32 0 2 0 C2 3.3 2 6.6 2 10 C-0.31 9.67 -2.62 9.34 -5 9 C-5 7.35 -5 5.7 -5 4 C-3.35 3.67 -1.7 3.34 0 3 C0 2.01 0 1.02 0 0 Z " fill="#FCF5F3" transform="translate(381,151)"/>
<path d="M0 0 C0.33 0 0.66 0 1 0 C1 3.96 1 7.92 1 12 C2.670625 11.9690625 2.670625 11.9690625 4.375 11.9375 C8 12 8 12 10 13 C10 14.65 10 16.3 10 18 C9.34 17.34 8.68 16.68 8 16 C5.78927023 15.75746187 5.78927023 15.75746187 3.375 15.875 C2.14910156 15.90207031 2.14910156 15.90207031 0.8984375 15.9296875 C-0.04128906 15.96449219 -0.04128906 15.96449219 -1 16 C-1 15.34 -1 14.68 -1 14 C-1.99 14.33 -2.98 14.66 -4 15 C-4 14.34 -4 13.68 -4 13 C-2.68 13 -1.36 13 0 13 C0 8.71 0 4.42 0 0 Z " fill="#928C8D" transform="translate(370,109)"/>
<path d="M0 0 C3.37885612 -0.28526928 6.63291991 -0.46087248 10 0 C12.125 2.5 12.125 2.5 13 5 C9.37 5 5.74 5 2 5 C1.34 3.35 0.68 1.7 0 0 Z " fill="#666769" transform="translate(406,111)"/>
<path d="M0 0 C1.3921875 0.0928125 1.3921875 0.0928125 2.8125 0.1875 C5 1 5 1 6.3125 3.5625 C6.6528125 4.7690625 6.6528125 4.7690625 7 6 C6.195625 5.67 5.39125 5.34 4.5625 5 C-1.47473199 3.30533839 -7.30652951 3.06143458 -13 6 C-12 3 -12 3 -9.875 1.3125 C-6.33021632 -0.30577081 -3.8661001 -0.27615001 0 0 Z " fill="#6B6164" transform="translate(361,93)"/>
<path d="M0 0 C0.721875 0.268125 1.44375 0.53625 2.1875 0.8125 C2.1875 1.8025 2.1875 2.7925 2.1875 3.8125 C1.1975 3.8125 0.2075 3.8125 -0.8125 3.8125 C-0.8125 3.1525 -0.8125 2.4925 -0.8125 1.8125 C-4.03654978 3.48204819 -4.03654978 3.48204819 -4.5 6.4375 C-4.603125 7.22125 -4.70625 8.005 -4.8125 8.8125 C-2.8325 8.4825 -0.8525 8.1525 1.1875 7.8125 C0 9.3125 0 9.3125 -1.8125 10.8125 C-4.5 11 -4.5 11 -6.8125 10.8125 C-7.625 8.125 -7.625 8.125 -7.8125 4.8125 C-4.13185047 -0.2754567 -4.13185047 -0.2754567 0 0 Z " fill="#505050" transform="translate(231.8125,208.1875)"/>
<path d="M0 0 C1.65 0 3.3 0 5 0 C5 1.32 5 2.64 5 4 C4.34 4 3.68 4 3 4 C3 3.34 3 2.68 3 2 C2.01 2.495 2.01 2.495 1 3 C1.99 4.485 1.99 4.485 3 6 C2.625 8.6875 2.625 8.6875 2 11 C0.02 11 -1.96 11 -4 11 C-4 10.34 -4 9.68 -4 9 C-4.66 8.67 -5.32 8.34 -6 8 C-4.68 7.67 -3.36 7.34 -2 7 C-2 7.99 -2 8.98 -2 10 C-1.01 10 -0.02 10 1 10 C0.46375 9.0925 -0.0725 8.185 -0.625 7.25 C-2 4 -2 4 -1.1875 1.625 C-0.795625 1.08875 -0.40375 0.5525 0 0 Z " fill="#474747" transform="translate(434,208)"/>
<path d="M0 0 C2.33944736 0.28730055 4.6739143 0.61936779 7 1 C7 1.99 7 2.98 7 4 C5.35 3.67 3.7 3.34 2 3 C1.67 4.65 1.34 6.3 1 8 C2.98 7.67 4.96 7.34 7 7 C6.67 7.99 6.34 8.98 6 10 C4.00045254 10.04254356 1.99958364 10.04080783 0 10 C-1 9 -1 9 -1.1328125 7.1875 C-1.13023437 6.465625 -1.12765625 5.74375 -1.125 5 C-1.12757813 4.278125 -1.13015625 3.55625 -1.1328125 2.8125 C-1 1 -1 1 0 0 Z " fill="#F9DACF" transform="translate(275,151)"/>
<path d="M0 0 C0.33 0 0.66 0 1 0 C1.33 2.31 1.66 4.62 2 7 C2.66 6.01 3.32 5.02 4 4 C4.08090971 5.62418745 4.13914995 7.24951745 4.1875 8.875 C4.22230469 9.77992188 4.25710938 10.68484375 4.29296875 11.6171875 C4.19628906 12.40351563 4.09960938 13.18984375 4 14 C0.68629 16.20914 -0.3446021 16.22481553 -4.1875 16.125 C-5.08855469 16.10695312 -5.98960937 16.08890625 -6.91796875 16.0703125 C-7.60503906 16.04710937 -8.29210937 16.02390625 -9 16 C-9 15.67 -9 15.34 -9 15 C-6.03 15 -3.06 15 0 15 C0 10.05 0 5.1 0 0 Z " fill="#634947" transform="translate(397,125)"/>
<path d="M0 0 C0.66 0.99 1.32 1.98 2 3 C2.66 2.67 3.32 2.34 4 2 C4.05399736 3.45792884 4.09279177 4.91642712 4.125 6.375 C4.14820313 7.18710938 4.17140625 7.99921875 4.1953125 8.8359375 C4 11 4 11 2 13 C2 10.69 2 8.38 2 6 C1.34 6 0.68 6 0 6 C0 6.66 0 7.32 0 8 C-2.31 8.33 -4.62 8.66 -7 9 C-7 8.01 -7 7.02 -7 6 C-5.5459375 5.62875 -5.5459375 5.62875 -4.0625 5.25 C-2.5465625 4.63125 -2.5465625 4.63125 -1 4 C-0.03122943 1.96756452 -0.03122943 1.96756452 0 0 Z " fill="#C1C1C2" transform="translate(396,117)"/>
<path d="M0 0 C0.33 0 0.66 0 1 0 C1 4.95 1 9.9 1 15 C-0.98 15 -2.96 15 -5 15 C-5 14.67 -5 14.34 -5 14 C-3.35 14 -1.7 14 0 14 C0 12.35 0 10.7 0 9 C-2.97 9 -5.94 9 -9 9 C-9 8.01 -9 7.02 -9 6 C-6.03 6 -3.06 6 0 6 C0 4.02 0 2.04 0 0 Z " fill="#B8B8BA" transform="translate(324,99)"/>
<path d="M0 0 C0.99 0 1.98 0 3 0 C3.66 1.98 4.32 3.96 5 6 C5.66 6 6.32 6 7 6 C7 4.35 7 2.7 7 1 C7.33 1 7.66 1 8 1 C8 3.97 8 6.94 8 10 C5 9 5 9 3.8125 6.9375 C3.544375 6.298125 3.27625 5.65875 3 5 C2.67 6.65 2.34 8.3 2 10 C1.34 10 0.68 10 0 10 C0 6.7 0 3.4 0 0 Z " fill="#F9EAE3" transform="translate(355,151)"/>
<path d="M0 0 C0.33 0 0.66 0 1 0 C0.67 5.61 0.34 11.22 0 17 C-1.32 17 -2.64 17 -4 17 C-4 11.72 -4 6.44 -4 1 C-3.67 1 -3.34 1 -3 1 C-3 4.63 -3 8.26 -3 12 C-2.34 12 -1.68 12 -1 12 C-1.020625 10.7625 -1.04125 9.525 -1.0625 8.25 C-1.06766681 5.3359175 -0.93015558 2.79046673 0 0 Z " fill="#927772" transform="translate(425,86)"/>
<path d="M0 0 C1.6026782 -0.10824843 3.20745748 -0.18570645 4.8125 -0.25 C5.70582031 -0.29640625 6.59914063 -0.3428125 7.51953125 -0.390625 C10 0 10 0 13 4 C8.71 4 4.42 4 0 4 C0 2.68 0 1.36 0 0 Z " fill="#D0D0D1" transform="translate(389,86)"/>
<path d="M0 0 C1.2065625 0.0309375 1.2065625 0.0309375 2.4375 0.0625 C2.4375 1.3825 2.4375 2.7025 2.4375 4.0625 C1.7775 4.0625 1.1175 4.0625 0.4375 4.0625 C0.4375 3.4025 0.4375 2.7425 0.4375 2.0625 C-0.5525 2.5575 -0.5525 2.5575 -1.5625 3.0625 C-0.5725 4.5475 -0.5725 4.5475 0.4375 6.0625 C0.0625 8.75 0.0625 8.75 -0.5625 11.0625 C-2.5425 11.0625 -4.5225 11.0625 -6.5625 11.0625 C-6.5625 10.4025 -6.5625 9.7425 -6.5625 9.0625 C-7.2225 8.7325 -7.8825 8.4025 -8.5625 8.0625 C-7.2425 7.7325 -5.9225 7.4025 -4.5625 7.0625 C-4.5625 8.0525 -4.5625 9.0425 -4.5625 10.0625 C-3.5725 10.0625 -2.5825 10.0625 -1.5625 10.0625 C-1.8925 9.505625 -2.2225 8.94875 -2.5625 8.375 C-3.70261312 5.73848842 -3.7931312 3.90695144 -3.5625 1.0625 C-2.5625 0.0625 -2.5625 0.0625 0 0 Z " fill="#424242" transform="translate(312.5625,207.9375)"/>
<path d="M0 0 C0.99 0 1.98 0 3 0 C4.25664978 2.90600261 5 4.79604584 5 8 C4.01 8 3.02 8 2 8 C1.67 7.34 1.34 6.68 1 6 C-1.64 6.33 -4.28 6.66 -7 7 C-7 6.34 -7 5.68 -7 5 C-6.030625 4.54625 -5.06125 4.0925 -4.0625 3.625 C-0.92920418 2.34213779 -0.92920418 2.34213779 0 0 Z " fill="#EEEEEE" transform="translate(306,210)"/>
<path d="M0 0 C0.66 0 1.32 0 2 0 C2.33 0.99 2.66 1.98 3 3 C3.66 2.01 4.32 1.02 5 0 C5.66 0 6.32 0 7 0 C6.745504 1.48206495 6.47088238 2.96068615 6.1875 4.4375 C6.03667969 5.26121094 5.88585937 6.08492187 5.73046875 6.93359375 C5.36888672 7.95646484 5.36888672 7.95646484 5 9 C4.01 9.33 3.02 9.66 2 10 C-1.07692308 4.58461538 -1.07692308 4.58461538 -0.6875 1.625 C-0.460625 1.08875 -0.23375 0.5525 0 0 Z " fill="#F5DED6" transform="translate(405,151)"/>
<path d="M0 0 C2.5 1.375 2.5 1.375 5 3 C5 3.66 5 4.32 5 5 C-0.19689119 6.84974093 -0.19689119 6.84974093 -3 7 C-6 4.625 -6 4.625 -8 2 C-5.36 2 -2.72 2 0 2 C0 1.34 0 0.68 0 0 Z " fill="#B5B6B7" transform="translate(346,128)"/>
<path d="M0 0 C1.71225714 1.63072108 3.03065932 3.05135436 4.25 5.09375 C5.8805634 7.27307873 5.8805634 7.27307873 8.69921875 7.390625 C9.68535156 7.34421875 10.67148437 7.2978125 11.6875 7.25 C12.68136719 7.21390625 13.67523438 7.1778125 14.69921875 7.140625 C15.45847656 7.09421875 16.21773438 7.0478125 17 7 C17 7.99 17 8.98 17 10 C12.66666667 10 8.33333333 10 4 10 C0 3.375 0 3.375 0 0 Z " fill="#9D9798" transform="translate(405,111)"/>
<path d="M0 0 C0.99 0 1.98 0 3 0 C3.33 4.95 3.66 9.9 4 15 C5.98 15 7.96 15 10 15 C10.33 14.34 10.66 13.68 11 13 C11 14.32 11 15.64 11 17 C5.25 17.125 5.25 17.125 3 16 C2.67 16.99 2.34 17.98 2 19 C0.56132323 14.6839697 0.9810975 10.54908853 1.0625 6.03125 C1.14893023 2.95245029 1.14893023 2.95245029 0 0 Z " fill="#747476" transform="translate(422,103)"/>
<path d="M0 0 C0.99 0.495 0.99 0.495 2 1 C3.25433458 4.76300374 3.10695422 8.27210909 3.0625 12.1875 C3.05798828 12.93708984 3.05347656 13.68667969 3.04882812 14.45898438 C3.03706354 16.30602383 3.01912865 18.15302213 3 20 C2.01 20 1.02 20 0 20 C0 13.4 0 6.8 0 0 Z " fill="#1C181D" transform="translate(367,102)"/>
<path d="M0 0 C6.6 0 13.2 0 20 0 C20 0.99 20 1.98 20 3 C13.07 3 6.14 3 -1 3 C-0.67 2.01 -0.34 1.02 0 0 Z " fill="#75797D" transform="translate(238,126)"/>
<path d="M0 0 C7.26 0 14.52 0 22 0 C17.5 3.375 17.5 3.375 13.671875 3.07421875 C12.87265625 3.01943359 12.0734375 2.96464844 11.25 2.90820312 C10.0125 2.79895508 10.0125 2.79895508 8.75 2.6875 C7.90953125 2.62626953 7.0690625 2.56503906 6.203125 2.50195312 C4.13429401 2.34914175 2.06694492 2.17649838 0 2 C0 1.34 0 0.68 0 0 Z " fill="#98989C" transform="translate(236,130)"/>
<path d="M0 0 C4.62 0 9.24 0 14 0 C10.13209997 2.90092502 8.78152821 3.48619206 4.25 4.1875 C3.26515625 4.34605469 2.2803125 4.50460938 1.265625 4.66796875 C0.51796875 4.77753906 -0.2296875 4.88710937 -1 5 C-0.67 3.35 -0.34 1.7 0 0 Z " fill="#77787B" transform="translate(263,124)"/>
<path d="M0 0 C0.66 0 1.32 0 2 0 C1.8125 1.8125 1.8125 1.8125 1 4 C-1.5625 5.75 -1.5625 5.75 -4 7 C-2.02 7 -0.04 7 2 7 C0.8125 8.5 0.8125 8.5 -1 10 C-3.625 10.25 -3.625 10.25 -6 10 C-7 9 -7 9 -7.25 6.5625 C-7.1675 5.716875 -7.085 4.87125 -7 4 C-6.01 3.34 -5.02 2.68 -4 2 C-4 2.66 -4 3.32 -4 4 C-3.01 3.67 -2.02 3.34 -1 3 C-0.67 2.01 -0.34 1.02 0 0 Z " fill="#313131" transform="translate(377,209)"/>
<path d="M0 0 C0.99 0 1.98 0 3 0 C2.67 2.31 2.34 4.62 2 7 C2.66 7.33 3.32 7.66 4 8 C3.54625 8.5775 3.0925 9.155 2.625 9.75 C1.15886484 11.7800333 0.05142216 13.73539843 -1 16 C-1.66 16 -2.32 16 -3 16 C-2.86722656 15.43152344 -2.73445312 14.86304688 -2.59765625 14.27734375 C-1.5115242 9.52848903 -0.61687618 4.83219676 0 0 Z " fill="#2C2C2C" transform="translate(237,203)"/>
<path d="M0 0 C1.0625 1.875 1.0625 1.875 2 4 C1.67 4.66 1.34 5.32 1 6 C-2.63 6 -6.26 6 -10 6 C-10 8.64 -10 11.28 -10 14 C-10.33 14 -10.66 14 -11 14 C-11 11.03 -11 8.06 -11 5 C-7.17679443 3.57741188 -4.08718695 2.75957724 0 3 C0 2.01 0 1.02 0 0 Z " fill="#939294" transform="translate(344,106)"/>
<path d="M0 0 C1.20703125 1.64453125 1.20703125 1.64453125 1.20703125 3.64453125 C-2.09296875 3.64453125 -5.39296875 3.64453125 -8.79296875 3.64453125 C-9.45296875 2.32453125 -10.11296875 1.00453125 -10.79296875 -0.35546875 C-9.35886507 -0.6050088 -7.92036803 -0.82939517 -6.48046875 -1.04296875 C-5.67996094 -1.17058594 -4.87945312 -1.29820313 -4.0546875 -1.4296875 C-1.79296875 -1.35546875 -1.79296875 -1.35546875 0 0 Z " fill="#B6B6B7" transform="translate(412.79296875,105.35546875)"/>
<path d="M0 0 C1.32 0.33 2.64 0.66 4 1 C3.7834375 1.83144531 3.566875 2.66289062 3.34375 3.51953125 C3.0653125 4.60621094 2.786875 5.69289062 2.5 6.8125 C2.2215625 7.89144531 1.943125 8.97039062 1.65625 10.08203125 C0.89029052 12.98933975 0.89029052 12.98933975 1 16 C0.01 16 -0.98 16 -2 16 C-1.33333333 10.66666667 -0.66666667 5.33333333 0 0 Z " fill="#2E2E2E" transform="translate(459,203)"/>
<path d="M0 0 C2 1.8125 2 1.8125 4 4 C4 4.99 4 5.98 4 7 C3.01 7 2.02 7 1 7 C1 6.01 1 5.02 1 4 C0.443125 4.33 -0.11375 4.66 -0.6875 5 C-3.30284522 6.1309601 -5.1806646 6.15662974 -8 6 C-8 5.34 -8 4.68 -8 4 C-5.36 2.68 -2.72 1.36 0 0 Z " fill="#F4F4F4" transform="translate(431,211)"/>
<path d="M0 0 C2.33944736 0.28730055 4.6739143 0.61936779 7 1 C7 1.66 7 2.32 7 3 C6.1028125 3.309375 6.1028125 3.309375 5.1875 3.625 C2.18981233 5.50926082 1.38638224 7.81132084 0 11 C-0.66 11 -1.32 11 -2 11 C-1.85957123 9.35369672 -1.71250671 7.70795821 -1.5625 6.0625 C-1.48128906 5.14597656 -1.40007812 4.22945312 -1.31640625 3.28515625 C-1 1 -1 1 0 0 Z " fill="#3C3C3C" transform="translate(382,208)"/>
<path d="M0 0 C2.64 0.66 5.28 1.32 8 2 C8 3.32 8 4.64 8 6 C6.35 6 4.7 6 3 6 C2.67 5.34 2.34 4.68 2 4 C-0.52733235 3.34444881 -0.52733235 3.34444881 -3 3 C-3.33 3.66 -3.66 4.32 -4 5 C-4 4.01 -4 3.02 -4 2 C-2.68 2 -1.36 2 0 2 C0 1.34 0 0.68 0 0 Z " fill="#C83A33" transform="translate(343,67)"/>
<path d="M0 0 C0.33 0.66 0.66 1.32 1 2 C3.52733235 2.65555119 3.52733235 2.65555119 6 3 C6 3.99 6 4.98 6 6 C3.36 6 0.72 6 -2 6 C-2.33 6.99 -2.66 7.98 -3 9 C-2.67 7.02 -2.34 5.04 -2 3 C-4.97 2.505 -4.97 2.505 -8 2 C-8 1.67 -8 1.34 -8 1 C-5.36 0.67 -2.72 0.34 0 0 Z " fill="#B5B1B2" transform="translate(318,117)"/>
<path d="M0 0 C2.97 0 5.94 0 9 0 C9 1.32 9 2.64 9 4 C4.545 4.495 4.545 4.495 0 5 C0 3.35 0 1.7 0 0 Z " fill="#5E5F61" transform="translate(334,114)"/>
<path d="M0 0 C3 3 3 3 3.29296875 6.13671875 C3.25816406 7.30847656 3.22335937 8.48023437 3.1875 9.6875 C3.14689453 11.45673828 3.14689453 11.45673828 3.10546875 13.26171875 C3.07066406 14.16535156 3.03585937 15.06898437 3 16 C2.67 15.01 2.34 14.02 2 13 C1.01 13 0.02 13 -1 13 C-0.67 8.71 -0.34 4.42 0 0 Z " fill="#3C2425" transform="translate(421,103)"/>
<path d="M0 0 C4.97631579 4.81578947 4.97631579 4.81578947 5.0625 9.125 C5.041875 10.07375 5.02125 11.0225 5 12 C4.34 12 3.68 12 3 12 C2.67 11.01 2.34 10.02 2 9 C0.37347684 7.29413425 -1.29006566 5.6222454 -3 4 C-2.67 3.34 -2.34 2.68 -2 2 C-1.01 2.33 -0.02 2.66 1 3 C0.67 2.01 0.34 1.02 0 0 Z " fill="#A9A5A5" transform="translate(366,94)"/>
<path d="M0 0 C1.2065625 0.0309375 1.2065625 0.0309375 2.4375 0.0625 C3.37173645 3.07281744 3.48199911 3.92900268 2.4375 7.0625 C0.7875 7.0625 -0.8625 7.0625 -2.5625 7.0625 C-2.94383299 5.0710944 -3.27575582 3.06970923 -3.5625 1.0625 C-2.5625 0.0625 -2.5625 0.0625 0 0 Z " fill="#F5E1D9" transform="translate(415.5625,153.9375)"/>
<path d="M0 0 C0.99 0.33 1.98 0.66 3 1 C2.67 1.33 2.34 1.66 2 2 C9.26 2.33 16.52 2.66 24 3 C24 3.33 24 3.66 24 4 C15.09 4 6.18 4 -3 4 C-2.67 3.01 -2.34 2.02 -2 1 C-1.34 0.67 -0.68 0.34 0 0 Z " fill="#E3D9D7" transform="translate(251,77)"/>
<path d="M0 0 C1.66611905 -0.042721 3.33382885 -0.04063832 5 0 C6 1 6 1 6.0625 4.0625 C6.041875 5.031875 6.02125 6.00125 6 7 C4.02 7 2.04 7 0 7 C0 5.68 0 4.36 0 3 C0.99 3 1.98 3 3 3 C2.01 2.67 1.02 2.34 0 2 C0 1.34 0 0.68 0 0 Z " fill="#FBE0D8" transform="translate(250,154)"/>
<path d="M0 0 C5.94 0 11.88 0 18 0 C15 3 15 3 11.42578125 3.07421875 C10.05326192 2.96149977 8.68203828 2.83199844 7.3125 2.6875 C6.61060547 2.62626953 5.90871094 2.56503906 5.18554688 2.50195312 C3.4557033 2.34897376 1.72761503 2.17637398 0 2 C0 1.34 0 0.68 0 0 Z " fill="#BEB9BC" transform="translate(235,132)"/>
<path d="M0 0 C1.57043101 0.01330874 3.14079971 0.03717648 4.7109375 0.0703125 C5.51273437 0.07933594 6.31453125 0.08835937 7.140625 0.09765625 C9.12252273 0.12125027 11.10426731 0.15712185 13.0859375 0.1953125 C12.09765625 1.71484375 12.09765625 1.71484375 10.0859375 3.1953125 C7.25537171 3.25069947 4.69524385 3.1588292 1.8984375 2.8828125 C1.14884766 2.82158203 0.39925781 2.76035156 -0.37304688 2.69726562 C-2.22128995 2.54422639 -4.067896 2.37164371 -5.9140625 2.1953125 C-3.9140625 0.1953125 -3.9140625 0.1953125 0 0 Z " fill="#D8D3D2" transform="translate(282.9140625,85.8046875)"/>
<path d="M0 0 C1.2065625 0.0309375 1.2065625 0.0309375 2.4375 0.0625 C2.4375 2.0425 2.4375 4.0225 2.4375 6.0625 C0.78135343 6.44468767 -0.88707024 6.77645102 -2.5625 7.0625 C-3.5625 6.0625 -3.5625 6.0625 -3.6875 3.5625 C-3.51717518 0.15600356 -3.41884482 0.08338646 0 0 Z " fill="#FAEAE5" transform="translate(323.5625,153.9375)"/>
<path d="M0 0 C6.27 0 12.54 0 19 0 C13.375 4.5 13.375 4.5 9 5 C9.33 4.01 9.66 3.02 10 2 C6.7 1.67 3.4 1.34 0 1 C0 0.67 0 0.34 0 0 Z " fill="#888485" transform="translate(356,134)"/>
<path d="M0 0 C0 0.33 0 0.66 0 1 C2.31 1.33 4.62 1.66 7 2 C7 2.33 7 2.66 7 3 C1.39 3 -4.22 3 -10 3 C-9 1 -9 1 -6.125 -0.1875 C-3 -1 -3 -1 0 0 Z " fill="#C2B7B7" transform="translate(270,118)"/>
<path d="M0 0 C1.33895632 1.66215268 2.67130142 3.32963607 4 5 C4.8971875 6.0209375 4.8971875 6.0209375 5.8125 7.0625 C7 9 7 9 6.6875 11.25 C6.460625 11.8275 6.23375 12.405 6 13 C5.67 12.01 5.34 11.02 5 10 C1.37 10 -2.26 10 -6 10 C-6 9.67 -6 9.34 -6 9 C-3.03 9 -0.06 9 3 9 C2.505 8.071875 2.01 7.14375 1.5 6.1875 C0 3 0 3 0 0 Z " fill="#888181" transform="translate(411,101)"/>
<path d="M0 0 C0.99 0 1.98 0 3 0 C2.67 2.31 2.34 4.62 2 7 C0.68 7.33 -0.64 7.66 -2 8 C-1.125 1.125 -1.125 1.125 0 0 Z " fill="#F7F7F7" transform="translate(273,210)"/>
<path d="M0 0 C1.65 0 3.3 0 5 0 C5.33 2.31 5.66 4.62 6 7 C4.02 7 2.04 7 0 7 C0 5.68 0 4.36 0 3 C0.99 3 1.98 3 3 3 C2.01 2.67 1.02 2.34 0 2 C0 1.34 0 0.68 0 0 Z " fill="#F7E3DD" transform="translate(385,154)"/>
<path d="M0 0 C0.33 0 0.66 0 1 0 C1.06058594 0.81984375 1.12117188 1.6396875 1.18359375 2.484375 C1.26738281 3.56203125 1.35117187 4.6396875 1.4375 5.75 C1.55931641 7.35101563 1.55931641 7.35101563 1.68359375 8.984375 C1.94090773 11.43679962 2.31812218 13.63921291 3 16 C2.01 16.33 1.02 16.66 0 17 C-0.83057001 14.09959681 -1.13532287 11.51427898 -1.125 8.5 C-1.12757813 7.7471875 -1.13015625 6.994375 -1.1328125 6.21875 C-1.00158417 4.026465 -0.60331338 2.10680863 0 0 Z " fill="#3F3F43" transform="translate(346,106)"/>
<path d="M0 0 C0.66 0 1.32 0 2 0 C1.67 1.98 1.34 3.96 1 6 C2.98 6 4.96 6 7 6 C5.875 7.5625 5.875 7.5625 4 9 C0.8125 8.6875 0.8125 8.6875 -2 8 C-2.20086443 4.28400809 -2.1519437 3.22791555 0 0 Z " fill="#3C3C3C" transform="translate(350,210)"/>
<path d="M0 0 C0.66 0 1.32 0 2 0 C2 1.65 2 3.3 2 5 C2.66 5 3.32 5 4 5 C4 3.35 4 1.7 4 0 C4.66 0 5.32 0 6 0 C6 2.31 6 4.62 6 7 C4.33388095 7.042721 2.66617115 7.04063832 1 7 C0 6 0 6 -0.0625 2.9375 C-0.041875 1.968125 -0.02125 0.99875 0 0 Z " fill="#FDF0EA" transform="translate(257,154)"/>
<path d="M0 0 C-0.33 3.3 -0.66 6.6 -1 10 C-2.32 10.33 -3.64 10.66 -5 11 C-4.8864371 9.35333797 -4.75882619 7.70763918 -4.625 6.0625 C-4.55539062 5.14597656 -4.48578125 4.22945312 -4.4140625 3.28515625 C-4.27742188 2.53105469 -4.14078125 1.77695313 -4 1 C-2 0 -2 0 0 0 Z " fill="#373737" transform="translate(413,208)"/>
<path d="M0 0 C0 1.32 0 2.64 0 4 C-2.64 4 -5.28 4 -8 4 C-8 3.01 -8 2.02 -8 1 C-5.29120665 -0.35439668 -2.99066732 -0.06501451 0 0 Z " fill="#696A6C" transform="translate(324,135)"/>
<path d="M0 0 C3.0390625 -0.29296875 3.0390625 -0.29296875 6.625 -0.1875 C7.81351562 -0.16042969 9.00203125 -0.13335937 10.2265625 -0.10546875 C11.14179688 -0.07066406 12.05703125 -0.03585938 13 0 C12.67 0.99 12.34 1.98 12 3 C7.38 3 2.76 3 -2 3 C-1.34 2.01 -0.68 1.02 0 0 Z " fill="#CDC4C5" transform="translate(249,112)"/>
<path d="M0 0 C1.65 0 3.3 0 5 0 C4.67 0.66 4.34 1.32 4 2 C4.89163577 4.11683841 4.89163577 4.11683841 6 6 C5 7 5 7 2.4375 7.0625 C1.2309375 7.0315625 1.2309375 7.0315625 0 7 C0 4.66666667 0 2.33333333 0 0 Z " fill="#F9ECE7" transform="translate(420,154)"/>
<path d="M0 0 C0.66 0 1.32 0 2 0 C1.34 2.97 0.68 5.94 0 9 C-0.33 7.68 -0.66 6.36 -1 5 C-3.97 4.67 -6.94 4.34 -10 4 C-9.67 3.01 -9.34 2.02 -9 1 C-4.545 1.99 -4.545 1.99 0 3 C0 2.01 0 1.02 0 0 Z " fill="#8C8889" transform="translate(381,117)"/>
<path d="M0 0 C0.99 0 1.98 0 3 0 C2.67 2.31 2.34 4.62 2 7 C2.66 7.33 3.32 7.66 4 8 C3.34 8.66 2.68 9.32 2 10 C1.01 10 0.02 10 -1 10 C-0.67 6.7 -0.34 3.4 0 0 Z " fill="#303030" transform="translate(343,209)"/>
<path d="M0 0 C0.66 0 1.32 0 2 0 C2 0.99 2 1.98 2 3 C2.66 3 3.32 3 4 3 C4 2.01 4 1.02 4 0 C4.66 0 5.32 0 6 0 C5.44271087 3.34373475 4.64826111 6.03312999 3 9 C2.34 8.67 1.68 8.34 1 8 C0.40644386 5.35139573 0.25790731 2.70802678 0 0 Z " fill="#FCF2EE" transform="translate(291,154)"/>
<path d="M0 0 C1.2375 0.1546875 1.2375 0.1546875 2.5 0.3125 C3.16 1.3025 3.82 2.2925 4.5 3.3125 C2.85 3.3125 1.2 3.3125 -0.5 3.3125 C-0.78875 3.951875 -1.0775 4.59125 -1.375 5.25 C-2.5 7.3125 -2.5 7.3125 -4.5 8.3125 C-4.625 5.4375 -4.625 5.4375 -4.5 2.3125 C-2.5 0.3125 -2.5 0.3125 0 0 Z " fill="#FACEBF" transform="translate(243.5,150.6875)"/>
<path d="M0 0 C4.29 0 8.58 0 13 0 C12.67 0.99 12.34 1.98 12 3 C7.71 2.67 3.42 2.34 -1 2 C-0.67 1.34 -0.34 0.68 0 0 Z " fill="#AAA7AB" transform="translate(251,110)"/>
<path d="M0 0 C0.99 0 1.98 0 3 0 C2.67 3.96 2.34 7.92 2 12 C1.34 12 0.68 12 0 12 C0 8.04 0 4.08 0 0 Z " fill="#AAA8AA" transform="translate(422,86)"/>
<path d="M0 0 C0.99 0 1.98 0 3 0 C3 2.97 3 5.94 3 9 C1.68 9.33 0.36 9.66 -1 10 C-0.67 6.7 -0.34 3.4 0 0 Z " fill="#282828" transform="translate(292,209)"/>
<path d="M0 0 C0.99 0 1.98 0 3 0 C2.67 2.31 2.34 4.62 2 7 C2.66 7.33 3.32 7.66 4 8 C3.34 8.66 2.68 9.32 2 10 C1.01 10 0.02 10 -1 10 C-0.67 6.7 -0.34 3.4 0 0 Z " fill="#2D2D2D" transform="translate(219,209)"/>
<path d="M0 0 C3.3 0.33 6.6 0.66 10 1 C10 1.66 10 2.32 10 3 C7.03 3 4.06 3 1 3 C0.67 3.66 0.34 4.32 0 5 C0 3.35 0 1.7 0 0 Z " fill="#CACACB" transform="translate(414,122)"/>
<path d="M0 0 C2.97 0 5.94 0 9 0 C9 0.99 9 1.98 9 3 C6.03 3 3.06 3 0 3 C0 2.01 0 1.02 0 0 Z " fill="#D2D2D3" transform="translate(315,86)"/>
<path d="M0 0 C1.32 0 2.64 0 4 0 C3.67 1.65 3.34 3.3 3 5 C2.01 5.33 1.02 5.66 0 6 C-0.66 5.34 -1.32 4.68 -2 4 C-1.34 2.68 -0.68 1.36 0 0 Z " fill="#828282" transform="translate(468,208)"/>
<path d="M0 0 C1.98 0 3.96 0 6 0 C5.67 0.66 5.34 1.32 5 2 C4.34 2 3.68 2 3 2 C2.67 4.31 2.34 6.62 2 9 C1.34 9 0.68 9 0 9 C0 6.03 0 3.06 0 0 Z " fill="#272727" transform="translate(264,203)"/>
<path d="M0 0 C1.98 0 3.96 0 6 0 C6 3.3 6 6.6 6 10 C5.67 10 5.34 10 5 10 C5 7.69 5 5.38 5 3 C3.02 3 1.04 3 -1 3 C-0.67 2.01 -0.34 1.02 0 0 Z " fill="#979799" transform="translate(319,117)"/>
<path d="M0 0 C0.99 0 1.98 0 3 0 C3 2.97 3 5.94 3 9 C1.68 9.33 0.36 9.66 -1 10 C-0.67 6.7 -0.34 3.4 0 0 Z " fill="#252525" transform="translate(241,209)"/>
<path d="M0 0 C0.66 0 1.32 0 2 0 C1.67 5.61 1.34 11.22 1 17 C0.01 16.67 -0.98 16.34 -2 16 C-2 15.01 -2 14.02 -2 13 C-1.34 13 -0.68 13 0 13 C0 8.71 0 4.42 0 0 Z " fill="#9D9D9F" transform="translate(396,123)"/>
<path d="M0 0 C0.99 0 1.98 0 3 0 C3 0.66 3 1.32 3 2 C-2.22270869 4.66464729 -5.0819503 5.32854177 -11 4 C-11 3.67 -11 3.34 -11 3 C-10.37351562 2.95101562 -9.74703125 2.90203125 -9.1015625 2.8515625 C-8.28429687 2.77679688 -7.46703125 2.70203125 -6.625 2.625 C-5.81289063 2.55539063 -5.00078125 2.48578125 -4.1640625 2.4140625 C-1.79665809 2.17107412 -1.79665809 2.17107412 0 0 Z " fill="#614746" transform="translate(364,126)"/>
<path d="M0 0 C-2.36797991 2.61724095 -4.89600354 4.32861729 -8 6 C-8.66 6 -9.32 6 -10 6 C-7.82304683 0.97626191 -5.41372848 -0.29263397 0 0 Z " fill="#FBEBE5" transform="translate(247,88)"/>
<path d="M0 0 C0.99 0 1.98 0 3 0 C4.39195915 4.17587745 2.82323219 6.13474776 1 10 C0.34 10 -0.32 10 -1 10 C-0.67 6.7 -0.34 3.4 0 0 Z " fill="#202020" transform="translate(281,209)"/>
<path d="M0 0 C2 0 2 0 3.625 1.125 C5.55651159 3.75887944 5.21205536 5.81916956 5 9 C4.01 9 3.02 9 2 9 C1.34 6.03 0.68 3.06 0 0 Z " fill="#F9ECE7" transform="translate(400,152)"/>
<path d="M0 0 C3.3 0 6.6 0 10 0 C9.01 1.485 9.01 1.485 8 3 C4.375 3.1875 4.375 3.1875 1 3 C0.67 2.01 0.34 1.02 0 0 Z " fill="#E3E2E3" transform="translate(415,125)"/>
<path d="M0 0 C-0.33 1.32 -0.66 2.64 -1 4 C-2.98 4.33 -4.96 4.66 -7 5 C-7 3.68 -7 2.36 -7 1 C-4.50935112 0.31292445 -2.62113708 0 0 0 Z " fill="#C1C1C3" transform="translate(396,105)"/>
<path d="M0 0 C1.32 0.33 2.64 0.66 4 1 C3.67 2.32 3.34 3.64 3 5 C1.35 5 -0.3 5 -2 5 C-1.34 3.35 -0.68 1.7 0 0 Z " fill="#8A8A8A" transform="translate(426,208)"/>
<path d="M0 0 C0.66 1.32 1.32 2.64 2 4 C3.98 4 5.96 4 8 4 C7.67 4.99 7.34 5.98 7 7 C5.00045254 7.04254356 2.99958364 7.04080783 1 7 C0 6 0 6 -0.0625 2.9375 C-0.041875 1.968125 -0.02125 0.99875 0 0 Z " fill="#FCEEE9" transform="translate(274,154)"/>
<path d="M0 0 C0.66 0 1.32 0 2 0 C3.64826111 2.96687001 4.44271087 5.65626525 5 9 C4.01 9 3.02 9 2 9 C0.50178941 5.62902617 0 3.79557881 0 0 Z " fill="#E45849" transform="translate(289,155)"/>
<path d="M0 0 C0.99 0 1.98 0 3 0 C3.33 0.99 3.66 1.98 4 3 C3.01 3 2.02 3 1 3 C1 5.31 1 7.62 1 10 C-0.32 8.68 -1.64 7.36 -3 6 C-2.01 6 -1.02 6 0 6 C-0.185625 5.38125 -0.37125 4.7625 -0.5625 4.125 C-1 2 -1 2 0 0 Z " fill="#EB8169" transform="translate(283,151)"/>
<path d="M0 0 C1.485 0.99 1.485 0.99 3 2 C2.67 4.64 2.34 7.28 2 10 C1.34 10 0.68 10 0 10 C0 6.7 0 3.4 0 0 Z " fill="#2E2D34" transform="translate(397,103)"/>
<path d="M0 0 C2.475 0.495 2.475 0.495 5 1 C5.33 2.32 5.66 3.64 6 5 C4.35 4.67 2.7 4.34 1 4 C0.67 2.68 0.34 1.36 0 0 Z " fill="#C5312D" transform="translate(346,59)"/>
<path d="M0 0 C0.99 0 1.98 0 3 0 C3.33 1.98 3.66 3.96 4 6 C2.35 6.33 0.7 6.66 -1 7 C-0.67 4.69 -0.34 2.38 0 0 Z " fill="#4B4B4B" transform="translate(441,212)"/>
<path d="M0 0 C2.0625 0.4375 2.0625 0.4375 4 1 C4 2.32 4 3.64 4 5 C2.35 5.33 0.7 5.66 -1 6 C-1.042721 4.33388095 -1.04063832 2.66617115 -1 1 C-0.67 0.67 -0.34 0.34 0 0 Z " fill="#E3998E" transform="translate(377,154)"/>
<path d="M0 0 C0.66 0.33 1.32 0.66 2 1 C1.67 1.66 1.34 2.32 1 3 C2.32 3.66 3.64 4.32 5 5 C4.67 5.66 4.34 6.32 4 7 C2.35 6.67 0.7 6.34 -1 6 C-1.042721 4.33388095 -1.04063832 2.66617115 -1 1 C-0.67 0.67 -0.34 0.34 0 0 Z " fill="#FCF5F2" transform="translate(340,154)"/>
<path d="M0 0 C5.41538462 -0.36923077 5.41538462 -0.36923077 8.375 1.5 C8.91125 1.995 9.4475 2.49 10 3 C7.03 3 4.06 3 1 3 C0.67 2.01 0.34 1.02 0 0 Z " fill="#707173" transform="translate(422,136)"/>
<path d="M0 0 C0.99 0.99 1.98 1.98 3 3 C0.03 3.66 -2.94 4.32 -6 5 C-6.66 4.01 -7.32 3.02 -8 2 C-5.36 2 -2.72 2 0 2 C0 1.34 0 0.68 0 0 Z " fill="#D0CFD1" transform="translate(346,128)"/>
<path d="M0 0 C0.33 0.99 0.66 1.98 1 3 C4.54518884 1.60240095 4.54518884 1.60240095 8 0 C7.67 1.32 7.34 2.64 7 4 C3.37 4 -0.26 4 -4 4 C-3.34 3.34 -2.68 2.68 -2 2 C-1.34 2.33 -0.68 2.66 0 3 C0 2.01 0 1.02 0 0 Z " fill="#484848" transform="translate(398,215)"/>
<path d="M0 0 C0.33 0 0.66 0 1 0 C1 1.65 1 3.3 1 5 C2.65 5 4.3 5 6 5 C5.67 5.66 5.34 6.32 5 7 C3.33388095 7.042721 1.66617115 7.04063832 0 7 C-1 6 -1 6 -1.125 3.5 C-1 1 -1 1 0 0 Z " fill="#282828" transform="translate(298,212)"/>
<path d="M0 0 C1.2065625 0.0309375 1.2065625 0.0309375 2.4375 0.0625 C2.1075 1.7125 1.7775 3.3625 1.4375 5.0625 C-0.5 4.75 -0.5 4.75 -2.5625 4.0625 C-2.8925 3.0725 -3.2225 2.0825 -3.5625 1.0625 C-2.5625 0.0625 -2.5625 0.0625 0 0 Z " fill="#E69E97" transform="translate(368.5625,153.9375)"/>
<path d="M0 0 C0.66 0 1.32 0 2 0 C3 6.75 3 6.75 3 9 C2.01 8.67 1.02 8.34 0 8 C-1.125 2.25 -1.125 2.25 0 0 Z " fill="#F6E2DA" transform="translate(427,152)"/>
<path d="M0 0 C0.66 0 1.32 0 2 0 C3.06546953 3.1964086 3.07427838 5.65747276 3 9 C2.01 9 1.02 9 0 9 C-1.125 2.25 -1.125 2.25 0 0 Z " fill="#FDF9F7" transform="translate(335,152)"/>
<path d="M0 0 C1.98 0 3.96 0 6 0 C6 0.99 6 1.98 6 3 C4.02 3.33 2.04 3.66 0 4 C0 2.68 0 1.36 0 0 Z " fill="#F7F6F7" transform="translate(389,127)"/>
<path d="M0 0 C2.97 0 5.94 0 9 0 C6.64031256 2.09749995 5.45383006 2.96905704 2.25 3.1875 C1.13625 3.0946875 1.13625 3.0946875 0 3 C0 2.01 0 1.02 0 0 Z " fill="#867473" transform="translate(268,124)"/>
<path d="M0 0 C1.98 0 3.96 0 6 0 C6 1.32 6 2.64 6 4 C3.03 3.505 3.03 3.505 0 3 C0 2.01 0 1.02 0 0 Z " fill="#B5B5B7" transform="translate(426,122)"/>
<path d="M0 0 C2.64 0 5.28 0 8 0 C8 1.65 8 3.3 8 5 C7.34 4.34 6.68 3.68 6 3 C3.67724823 2.59952556 1.34260643 2.2602896 -1 2 C-0.67 1.34 -0.34 0.68 0 0 Z " fill="#ACACAE" transform="translate(372,122)"/>
<path d="M0 0 C-0.33 0.66 -0.66 1.32 -1 2 C-1.763125 1.938125 -2.52625 1.87625 -3.3125 1.8125 C-6.04525312 1.74101915 -6.04525312 1.74101915 -7.8125 3.5 C-8.204375 3.995 -8.59625 4.49 -9 5 C-9 3.35 -9 1.7 -9 0 C-5.67465243 -1.10844919 -3.37817425 -0.84454356 0 0 Z " fill="#B6B6B8" transform="translate(345,123)"/>
<path d="M0 0 C0.598125 0.20625 1.19625 0.4125 1.8125 0.625 C1.1525 0.625 0.4925 0.625 -0.1875 0.625 C-0.5175 1.945 -0.8475 3.265 -1.1875 4.625 C-2.1775 4.625 -3.1675 4.625 -4.1875 4.625 C-4.5175 3.635 -4.8475 2.645 -5.1875 1.625 C-2.1875 -0.375 -2.1875 -0.375 0 0 Z " fill="#A9A9A9" transform="translate(377.1875,208.375)"/>
<path d="M0 0 C0.66 0.33 1.32 0.66 2 1 C-0.75 7.875 -0.75 7.875 -3 9 C-2.25 2.25 -2.25 2.25 0 0 Z " fill="#2D2D2D" transform="translate(420,203)"/>
<path d="M0 0 C1.32 0 2.64 0 4 0 C3.67 1.65 3.34 3.3 3 5 C1.68 5 0.36 5 -1 5 C-0.67 3.35 -0.34 1.7 0 0 Z " fill="#E9E9E9" transform="translate(334,205)"/>
<path d="M0 0 C1.32 0 2.64 0 4 0 C3.67 1.65 3.34 3.3 3 5 C1.68 4.67 0.36 4.34 -1 4 C-0.67 2.68 -0.34 1.36 0 0 Z " fill="#EAEAEA" transform="translate(210,205)"/>
<path d="M0 0 C1.98 0.495 1.98 0.495 4 1 C3.67 2.65 3.34 4.3 3 6 C1.68 5.67 0.36 5.34 -1 5 C-0.67 3.35 -0.34 1.7 0 0 Z " fill="#EA8374" transform="translate(296,157)"/>
<path d="M0 0 C1.2065625 0.0309375 1.2065625 0.0309375 2.4375 0.0625 C2.7675 1.0525 3.0975 2.0425 3.4375 3.0625 C2.674375 3.000625 1.91125 2.93875 1.125 2.875 C-1.60775312 2.80351915 -1.60775312 2.80351915 -3.375 4.5625 C-3.766875 5.0575 -4.15875 5.5525 -4.5625 6.0625 C-3.48963568 0.08511307 -3.48963568 0.08511307 0 0 Z " fill="#FBEEE8" transform="translate(309.5625,150.9375)"/>
<path d="M0 0 C0.99 0 1.98 0 3 0 C3.33 1.65 3.66 3.3 4 5 C2.35 4.67 0.7 4.34 -1 4 C-0.67 2.68 -0.34 1.36 0 0 Z " fill="#807372" transform="translate(347,122)"/>
<path d="M0 0 C3.125 -0.1875 3.125 -0.1875 6 0 C5.67 0.99 5.34 1.98 5 3 C2.69 3 0.38 3 -2 3 C-1.34 2.01 -0.68 1.02 0 0 Z " fill="#E9E9ED" transform="translate(247,115)"/>
<path d="M0 0 C0.99 0.495 0.99 0.495 2 1 C3.23098442 4.9167686 2.83220851 8.02389268 2 12 C1.67 12 1.34 12 1 12 C0.01751476 7.9472484 -0.08159574 4.16138263 0 0 Z " fill="#5B4B4C" transform="translate(367,102)"/>
<path d="M0 0 C-2.97 1.65 -5.94 3.3 -9 5 C-8.67 3.68 -8.34 2.36 -8 1 C-4.70594381 -0.82039948 -3.63772813 -1.21257604 0 0 Z " fill="#D5322E" transform="translate(247,86)"/>
<path d="M0 0 C3.875 0.875 3.875 0.875 5 2 C5.04063832 3.66617115 5.042721 5.33388095 5 7 C4.01 6.67 3.02 6.34 2 6 C2 4.68 2 3.36 2 2 C1.34 2 0.68 2 0 2 C0 1.34 0 0.68 0 0 Z " fill="#5C5C5C" transform="translate(274,208)"/>
<path d="M0 0 C0 0.99 0 1.98 0 3 C-2.31 3.33 -4.62 3.66 -7 4 C-7 3.01 -7 2.02 -7 1 C-4.50935112 0.31292445 -2.62113708 0 0 0 Z " fill="#7E7E80" transform="translate(396,118)"/>
<path d="M0 0 C0.804375 0.4640625 0.804375 0.4640625 1.625 0.9375 C4.3984957 2.17827439 7.00042837 2.5909675 10 3 C9.67 3.66 9.34 4.32 9 5 C6.03 4.67 3.06 4.34 0 4 C0 2.68 0 1.36 0 0 Z " fill="#878789" transform="translate(372,109)"/>
<path d="M0 0 C1.65 0 3.3 0 5 0 C5.33 0.99 5.66 1.98 6 3 C3.69 3 1.38 3 -1 3 C-0.67 2.01 -0.34 1.02 0 0 Z " fill="#727275" transform="translate(318,110)"/>
<path d="M0 0 C0 0.66 0 1.32 0 2 C-0.99 2.495 -0.99 2.495 -2 3 C-2.72159424 4.64363134 -3.39351421 6.31050386 -4 8 C-4.66 7.67 -5.32 7.34 -6 7 C-5.37162381 3.35541809 -4.14650034 0 0 0 Z " fill="#979698" transform="translate(351,94)"/>
<path d="M0 0 C0.66 0.33 1.32 0.66 2 1 C1.34 2.98 0.68 4.96 0 7 C-0.99 7 -1.98 7 -3 7 C-2.625 4.0625 -2.625 4.0625 -2 1 C-1.34 0.67 -0.68 0.34 0 0 Z " fill="#353535" transform="translate(361,212)"/>
<path d="M0 0 C1.98 0 3.96 0 6 0 C5.01 1.98 4.02 3.96 3 6 C2.34 5.67 1.68 5.34 1 5 C0.375 2.4375 0.375 2.4375 0 0 Z " fill="#2C2C2C" transform="translate(398,203)"/>
<path d="M0 0 C1.32 0 2.64 0 4 0 C4 0.66 4 1.32 4 2 C3.34 2 2.68 2 2 2 C2 3.65 2 5.3 2 7 C1.34 7 0.68 7 0 7 C0 4.69 0 2.38 0 0 Z " fill="#FEF9F6" transform="translate(265,154)"/>
<path d="M0 0 C1.32 0 2.64 0 4 0 C4 0.66 4 1.32 4 2 C3.34 2 2.68 2 2 2 C2 3.65 2 5.3 2 7 C1.34 7 0.68 7 0 7 C0 4.69 0 2.38 0 0 Z " fill="#FDFAF8" transform="translate(315,154)"/>
<path d="M0 0 C0.66 0 1.32 0 2 0 C2.625 2.375 2.625 2.375 3 5 C2.34 5.66 1.68 6.32 1 7 C-1 4 -1 4 -0.625 1.8125 C-0.41875 1.214375 -0.2125 0.61625 0 0 Z " fill="#EFCBBE" transform="translate(405,151)"/>
<path d="M0 0 C2.97 0.99 5.94 1.98 9 3 C8.67 3.99 8.34 4.98 8 6 C5.0280615 4.87548273 2.66559313 3.77706209 0 2 C0 1.34 0 0.68 0 0 Z " fill="#9C9393" transform="translate(339,132)"/>
<path d="M0 0 C1.32 0.33 2.64 0.66 4 1 C3.67 4.96 3.34 8.92 3 13 C2.67 13 2.34 13 2 13 C1.93941406 12.31292969 1.87882812 11.62585938 1.81640625 10.91796875 C1.73261719 10.01691406 1.64882813 9.11585937 1.5625 8.1875 C1.48128906 7.29417969 1.40007812 6.40085937 1.31640625 5.48046875 C1.06510233 2.87256441 1.06510233 2.87256441 0 0 Z " fill="#888688" transform="translate(345,103)"/>
<path d="M0 0 C0.66 0 1.32 0 2 0 C2.33 1.98 2.66 3.96 3 6 C1.68 6 0.36 6 -1 6 C-0.67 4.02 -0.34 2.04 0 0 Z " fill="#CA4C43" transform="translate(367,62)"/>
<path d="M0 0 C5.75 0.875 5.75 0.875 8 2 C4.77208445 4.1519437 3.71599191 4.20086443 0 4 C0 2.68 0 1.36 0 0 Z " fill="#464646" transform="translate(464,215)"/>
<path d="M0 0 C5.75 0.875 5.75 0.875 8 2 C4.77208445 4.1519437 3.71599191 4.20086443 0 4 C0 2.68 0 1.36 0 0 Z " fill="#484848" transform="translate(371,215)"/>
<path d="M0 0 C3.32901247 2.21934164 3.75023244 3.34683329 5 7 C3.68 7 2.36 7 1 7 C0.67 4.69 0.34 2.38 0 0 Z " fill="#252525" transform="translate(211,212)"/>
<path d="M0 0 C0.66 0 1.32 0 2 0 C1.74438677 2.3431213 1.40729228 4.67843403 1 7 C0.01 7.495 0.01 7.495 -1 8 C-0.67 5.36 -0.34 2.72 0 0 Z " fill="#171717" transform="translate(208,204)"/>
<path d="M0 0 C0.66 0 1.32 0 2 0 C1.67 1.32 1.34 2.64 1 4 C1.66 4 2.32 4 3 4 C3 4.66 3 5.32 3 6 C1.68 6 0.36 6 -1 6 C-1.042721 4.33388095 -1.04063832 2.66617115 -1 1 C-0.67 0.67 -0.34 0.34 0 0 Z " fill="#ED423D" transform="translate(243,153)"/>
<path d="M0 0 C1.60080151 4.00200378 0.29279692 7.04556236 -1 11 C-1.66 10.67 -2.32 10.34 -3 10 C-3 9.01 -3 8.02 -3 7 C-2.34 7 -1.68 7 -1 7 C-0.67 4.69 -0.34 2.38 0 0 Z " fill="#645758" transform="translate(400,106)"/>
<path d="M0 0 C0.7425 0.0825 1.485 0.165 2.25 0.25 C-0.68828597 2.75298434 -2.92902761 3.71930939 -6.75 4.25 C-3.42692308 0.31153846 -3.42692308 0.31153846 0 0 Z " fill="#F1D9D0" transform="translate(235.75,86.75)"/>
<path d="M0 0 C0.99 0.33 1.98 0.66 3 1 C3 1.99 3 2.98 3 4 C1.02 4 -0.96 4 -3 4 C-2.67 3.01 -2.34 2.02 -2 1 C-1.34 0.67 -0.68 0.34 0 0 Z " fill="#E8E0DE" transform="translate(251,77)"/>
</svg>
