<?xml version="1.0" encoding="UTF-8"?>
<svg id="Layer_1" data-name="Layer 1" xmlns="http://www.w3.org/2000/svg" viewBox="0 0 1080 1080">
  <defs>
    <style>
      .cls-1 {
        fill: #aa761e;
      }

      .cls-1, .cls-2 {
        fill-rule: evenodd;
      }

      .cls-2 {
        fill: #1b1918;
      }
    </style>
  </defs>
  <path class="cls-2" d="M904.3,739.58v-36.56h8c5.22,0,8.88.27,11.01.79s3.98,1.41,5.59,2.63c2.11,1.61,3.71,3.69,4.81,6.22,1.07,2.52,1.63,5.42,1.63,8.66s-.55,6.12-1.63,8.62c-1.11,2.5-2.7,4.58-4.81,6.21-1.61,1.22-3.42,2.11-5.45,2.63-2.04.52-5.22.79-9.53.79h-9.62ZM910.24,734.22h5c2.74,0,4.8-.18,6.18-.55,1.37-.35,2.56-.99,3.59-1.85,1.37-1.17,2.41-2.65,3.1-4.41.69-1.74,1.04-3.79,1.04-6.12s-.35-4.38-1.04-6.12c-.69-1.76-1.73-3.23-3.1-4.41-1.04-.87-2.27-1.48-3.71-1.85s-3.69-.55-6.76-.55h-4.29v25.87ZM894.61,739.58l-4.14-9.41h-14.48l-4.24,9.41h-6.24l17.7-37.98,17.68,37.98h-6.27ZM878.18,725.22h10.18l-3.74-8.34c-.22-.54-.45-1.14-.69-1.83-.22-.69-.45-1.46-.69-2.31-.2.8-.4,1.54-.64,2.23-.21.69-.45,1.33-.69,1.92l-3.74,8.34ZM841.01,739.58v-36.56h9.21c2.64,0,4.58.15,5.84.44,1.26.27,2.31.74,3.2,1.39,1.14.84,2.01,1.93,2.63,3.27.62,1.36.94,2.83.94,4.46,0,1.96-.45,3.59-1.34,4.9-.9,1.31-2.21,2.22-3.93,2.74,2.13.32,3.81,1.29,5.02,2.9,1.23,1.61,1.83,3.64,1.83,6.07,0,1.48-.25,2.89-.77,4.23-.5,1.33-1.24,2.47-2.18,3.39-1.01,1.01-2.25,1.73-3.73,2.15-1.49.42-3.96.62-7.46.62h-9.26ZM846.83,734.62h2.05c2.08,0,3.64-.09,4.68-.24,1.02-.18,1.83-.47,2.43-.89.74-.47,1.29-1.13,1.7-1.95.4-.81.6-1.71.6-2.68,0-1.18-.23-2.18-.72-3.05-.49-.87-1.17-1.54-2.08-2.01-.55-.28-1.21-.5-1.93-.64-.72-.12-1.7-.18-2.89-.18h-3.84v11.64ZM846.83,718.46h2.27c2.83,0,4.83-.37,6-1.16,1.16-.77,1.76-2.08,1.76-3.89,0-2.01-.55-3.41-1.63-4.21-1.07-.81-3.12-1.21-6.14-1.21h-2.27v10.47ZM831.31,739.58l-4.14-9.41h-14.5l-4.24,9.41h-6.22l17.68-37.98,17.68,37.98h-6.26ZM814.87,725.22h10.2l-3.76-8.34c-.2-.54-.44-1.14-.67-1.83-.24-.69-.47-1.46-.7-2.31-.18.8-.4,1.54-.64,2.23-.22.69-.43,1.33-.67,1.92l-3.76,8.34ZM792.67,739.58v-36.56h5.94v36.56h-5.94ZM759.39,739.58l18.61-31.49h-15.48v-5.07h24.63l-18.44,31.24h18.66v5.32h-27.97ZM753.41,739.58l-4.14-9.41h-14.48l-4.24,9.41h-6.24l17.7-37.98,17.68,37.98h-6.27ZM736.99,725.22h10.18l-3.74-8.34c-.22-.54-.45-1.14-.67-1.83-.24-.69-.47-1.46-.7-2.31-.2.8-.4,1.54-.64,2.23-.21.69-.45,1.33-.69,1.92l-3.74,8.34ZM691.02,739.58v-36.56h5.94v13.51h17.98v-13.51h5.94v36.56h-5.94v-17.73h-17.98v17.73h-5.94ZM670.22,720.88h14.46c0,.24.02.59.03,1.04.05,1.19.07,1.98.07,2.4,0,5.14-1.48,9.13-4.41,11.96-2.95,2.85-7.1,4.28-12.45,4.28-3,0-5.65-.45-8-1.32-2.35-.89-4.41-2.22-6.16-3.99-1.73-1.76-3.07-3.84-3.97-6.22-.94-2.38-1.4-4.92-1.4-7.63s.47-5.3,1.4-7.64c.95-2.33,2.35-4.38,4.19-6.17,1.78-1.74,3.86-3.07,6.26-3.99,2.4-.91,4.96-1.37,7.68-1.37,2.87,0,5.45.54,7.72,1.58,2.26,1.06,4.29,2.65,6.07,4.81l-4.33,3.27c-1.22-1.43-2.62-2.48-4.16-3.19-1.55-.7-3.27-1.04-5.2-1.04-3.96,0-7.18,1.26-9.7,3.79-2.5,2.55-3.76,5.84-3.76,9.9s1.26,7.48,3.76,10.05c2.52,2.56,5.76,3.86,9.75,3.86,3.39,0,6.07-.79,8.02-2.37,1.95-1.59,2.92-3.74,2.92-6.47v-.52h-8.79v-5ZM622.62,733.39l4.87,1.79-6.49,13.39-3.2-1.28,4.83-13.91ZM604.81,721.53c-.07-.29-.18-1.06-.32-2.33-.14-1.07-.27-1.96-.35-2.65-.15.82-.37,1.66-.64,2.5-.27.82-.62,1.68-1.04,2.53l-9.56,19.48-9.56-19.88c-.4-.81-.76-1.59-1.04-2.37-.29-.76-.54-1.52-.76-2.26-.02.75-.09,1.56-.18,2.4-.12.85-.27,1.73-.49,2.64l-3.93,18h-5.47l8.64-38.08,10.79,23.07c.17.35.42.95.75,1.81.35.85.76,1.89,1.24,3.14.35-1.04.91-2.38,1.66-3.99.18-.43.34-.75.44-.99l10.54-23.03,8.84,38.08h-5.52l-4.04-18.05ZM565.3,739.58l-4.14-9.41h-14.48l-4.25,9.41h-6.24l17.7-37.98,17.69,37.98h-6.27ZM548.87,725.22h10.18l-3.74-8.34c-.21-.54-.45-1.14-.67-1.83-.24-.69-.47-1.46-.7-2.31-.2.8-.4,1.54-.64,2.23-.22.69-.46,1.33-.69,1.92l-3.74,8.34ZM518.1,723.22v16.36h-5.58v-36.56h8.28c2.44,0,4.31.17,5.66.49,1.34.3,2.48.82,3.44,1.56,1.13.89,2,2.03,2.62,3.42.6,1.41.92,2.93.92,4.6,0,2.92-.7,5.22-2.13,6.88-1.41,1.64-3.49,2.65-6.26,2.98l12.58,16.63h-6.71l-12.16-16.36h-.66ZM518.46,718.63h1.07c3.16,0,5.24-.37,6.27-1.11,1.03-.74,1.55-2.03,1.55-3.89,0-2.01-.55-3.42-1.66-4.24-1.11-.84-3.15-1.24-6.16-1.24h-1.07v10.48ZM474.34,703.03h5.87v22.2c0,3.29.76,5.77,2.28,7.42,1.53,1.68,3.81,2.5,6.85,2.5s5.27-.82,6.79-2.5c1.53-1.64,2.28-4.13,2.28-7.42v-22.2h5.94v22.75c0,4.93-1.26,8.64-3.74,11.09-2.5,2.47-6.27,3.69-11.29,3.69s-8.79-1.22-11.26-3.67c-2.48-2.45-3.72-6.16-3.72-11.11v-22.75ZM452.84,723.18v16.41h-5.57v-36.56h8.99c2.67,0,4.61.15,5.89.44,1.24.28,2.35.77,3.29,1.44,1.14.84,2.03,2,2.7,3.42.64,1.44.95,3.02.95,4.75s-.32,3.34-.95,4.8c-.67,1.48-1.56,2.62-2.7,3.46-.94.65-2.05,1.14-3.29,1.41-1.28.28-3.22.44-5.89.44h-3.42ZM453.21,718.31h1.52c3.29,0,5.49-.35,6.6-1.07,1.09-.7,1.64-1.98,1.64-3.79,0-1.93-.58-3.31-1.76-4.11-1.17-.79-3.34-1.19-6.48-1.19h-1.52v10.17ZM437.58,739.58l-4.14-9.41h-14.48l-4.24,9.41h-6.24l17.7-37.98,17.68,37.98h-6.27ZM421.15,725.22h10.18l-3.74-8.34c-.22-.54-.45-1.14-.69-1.83-.22-.69-.45-1.46-.69-2.31-.2.8-.42,1.54-.64,2.23-.21.69-.45,1.33-.69,1.92l-3.74,8.34ZM390.37,723.22v16.36h-5.57v-36.56h8.29c2.43,0,4.31.17,5.65.49,1.34.3,2.48.82,3.42,1.56,1.14.89,2.01,2.03,2.64,3.42.6,1.41.92,2.93.92,4.6,0,2.92-.72,5.22-2.13,6.88-1.41,1.64-3.5,2.65-6.26,2.98l12.57,16.63h-6.7l-12.16-16.36h-.67ZM390.74,718.63h1.07c3.15,0,5.24-.37,6.27-1.11,1.02-.74,1.54-2.03,1.54-3.89,0-2.01-.55-3.42-1.66-4.24-1.11-.84-3.16-1.24-6.16-1.24h-1.07v10.48ZM370.32,739.58v-36.56h5.94v36.56h-5.94ZM332.39,739.58v-36.56h8c5.2,0,8.88.27,11.01.79,2.11.52,3.98,1.41,5.57,2.63,2.11,1.61,3.72,3.69,4.81,6.22,1.09,2.52,1.63,5.42,1.63,8.66s-.54,6.12-1.63,8.62-2.7,4.58-4.81,6.21c-1.59,1.22-3.41,2.11-5.45,2.63-2.04.52-5.22.79-9.53.79h-9.6ZM338.31,734.22h5c2.75,0,4.81-.18,6.19-.55,1.37-.35,2.56-.99,3.57-1.85,1.39-1.17,2.43-2.65,3.12-4.41.69-1.74,1.04-3.79,1.04-6.12s-.35-4.38-1.04-6.12c-.69-1.76-1.73-3.23-3.12-4.41-1.03-.87-2.27-1.48-3.69-1.85-1.44-.37-3.71-.55-6.78-.55h-4.29v25.87ZM291.32,739.58v-37.98l23.24,22.33c.62.64,1.26,1.31,1.93,2.01.64.72,1.33,1.53,2.05,2.44v-25.35h5.47v37.98l-23.69-22.75c-.62-.62-1.24-1.26-1.83-1.95-.61-.69-1.16-1.39-1.7-2.15v25.42h-5.47ZM276.84,739.58v-36.56h5.94v36.56h-5.94ZM260.13,689.52h691.92v62.71H260.13v-62.71Z"/>
  <path class="cls-2" d="M640.02,296.59h14.95v-21.07c0-.79.01-.8.37-1.28,1.61-2.1,3.44-5.02,5.07-7.23.49-.66,1.01-1.41,1.44-2.08l2.18-3.08c.24-.37.47-.67.74-1.06l12.24-17.5c.27-.37.51-.69.74-1.06l3.98-5.65c.12-.17.22-.34.35-.52l3.96-5.67c.15-.2.24-.34.39-.55.15-.21.22-.3.35-.5l5.25-7.46c.22-.37.09.07.17-.5-5.87,0-11.74-.09-17.61-.02-.07,0-.22,0-.27.02h-.08l-.17.05c-.25.06-2.5,3.39-2.98,4.11l-4.57,6.51c-.3.4-.57.79-.82,1.18-.14.2-.24.35-.39.55l-7.9,11.28c-.3.4-.52.75-.81,1.17l-3.32,4.75c-.32.4-.57.77-.85,1.21-.77,1.16-4.83,6.66-4.92,7.09-.06-.28-.55-.85-.76-1.13l-1.62-2.33c-1.14-1.54-2.18-3.22-3.32-4.75-.32-.44-.54-.81-.85-1.22-.15-.2-.24-.35-.39-.55-.13-.2-.25-.37-.42-.61-.25-.37-.54-.77-.82-1.16l-.81-1.18s-.17-.23-.21-.3l-4.78-6.83c-.13-.2-.23-.32-.38-.54-.18-.27-.27-.35-.44-.61l-.8-1.17c-.27-.4-.54-.77-.84-1.22-.58-.81-1.11-1.59-1.68-2.37-.15-.2-.24-.32-.39-.55-2.13-3.24-4.48-6.33-6.66-9.51-.17-.23-.27-.37-.42-.6-.27-.44-.57-1.18-1.14-1.28-.77-.12-17.32-.02-17.97-.02.05.45,0,.2.13.47l8.46,12.08c.24.34.46.65.72,1.01l.74,1.06c.13.17.22.32.37.5.13.18.22.32.34.51l1.44,2.08c.15.2.22.28.37.5l15.18,21.69c.13.18.25.34.37.5l6.51,9.29c.25.37.47.67.7,1.02l1.41,2.03c.32.46.49.49.49,1.24-.07,7.08,0,14.16,0,21.24h0ZM683.86,296.59c.05-.23.09-.27.2-.43l4.87-6.91c.15-.23.28-.42.45-.65l2.07-2.98c.23-.24,1.19-.1,1.52-.1h51.59c.34.62,1.46,1.96,1.93,2.7l2.67,3.86c.12.17.13.17.25.35l.97,1.34c.49.76,1.63,2.16,1.92,2.83h18.24c-.03-.54-.1-.47-.37-.82-.76-.96-1.31-1.96-2.05-2.94l-2.1-2.98c-1.17-1.78-2.48-3.49-3.67-5.27-.18-.27-.27-.36-.44-.61-.17-.24-.24-.34-.39-.54l-4.06-5.84c-.55-.79-1.09-1.55-1.68-2.37l-1.63-2.33c-.28-.44-.52-.77-.8-1.16-.3-.4-.52-.77-.82-1.17l-8.17-11.68c-.17-.24-.27-.35-.44-.61-.17-.25-.25-.35-.42-.6l-11.04-15.79c-.17-.24-.24-.3-.4-.54l-2.1-2.98c-.15-.2-.23-.35-.38-.55l-11.24-16.09c-.2-.17-.1-.12-.42-.2-.2.45-.57.82-.85,1.24l-2.05,2.94c-.15.23-.24.32-.39.55-.27.4-.52.74-.8,1.18l-4.93,7.01c-.28.38-.57.8-.82,1.16l-10.23,14.62c-.15.25-.28.4-.42.6l-10.23,14.62c-1.9,2.8-4.31,6-6.12,8.76-.17.25-.25.37-.42.6l-3.69,5.27c-.29.42-.5.74-.81,1.17l-.82,1.14c-.27.37-.55.77-.81,1.17-.15.22-.27.37-.43.61-.15.2-.24.35-.39.55-.87,1.14-1.63,2.38-2.47,3.54l-4.08,5.82c-.45.69-1.07,1.34-1.46,2.07-.17.32-.05-.15-.14.45h18.3ZM702.16,270.21c.22-.47,15.63-22.43,15.79-22.58.12-.13.01-.05.13-.12l4.01,5.69c1.73,2.63,4.18,5.82,5.96,8.5l4.95,7.08c.27.39.81,1.06.96,1.44l-31.79-.02ZM453.63,289.88c.28.27.67.43,1.02.62.12.07.24.12.35.18l2.85,1.28c1.83.72,3.2,1.13,5,1.7.15.05-.05,0,.22.06l1.85.49c.13.03-.07-.02.18.05,1.02.3,2.85.69,4.04.88,2.38.38,6.64,1.26,8.98,1.36,1.28.07,2.5.28,3.78.35l10.06.09c1.01.01,2.08-.17,2.92-.17,1.24-.01,1.22-.15,1.89-.17.34-.01.81-.01,1.01-.05l6.24-.99c.39-.06.45-.12.84-.18l1.66-.4c1.93-.4,3.62-1.09,5.39-1.78.28-.12.45-.2.72-.3.96-.39,1.86-.91,2.74-1.43,1.74-1.04,3.27-2.06,4.73-3.54,1.41-1.41,2.62-2.92,3.64-4.63,1.02-1.71,2.04-3.98,2.26-5.96.07-.62.2-1.22.25-1.81.28-2.7-.29-5.55-1.36-7.97l-1.07-2.03c-1.26-2.1-3.12-3.84-5.06-5.28-.79-.61-1.59-1.18-2.52-1.63l-6.16-2.53c-.12-.05-.24-.09-.39-.13l-3.3-.82c-4.46-.92-9.04-1.51-13.55-1.95l-10.92-1.37c-.29-.03-.62-.05-.89-.12l-5.88-1.36c-2.55-.61-6.71-2.3-8.07-4.23-.95-1.38-.9-3.2.07-4.51,1.06-1.43,2.42-2.33,3.96-3.14.97-.52,2.01-.97,3.05-1.31l1.59-.47s.05-.02.07-.02l2.21-.52c2.33-.47,5.07-.75,7.48-.75,3.94,0,7.86.2,11.56.7,1.84.25,6.27.89,7.92,1.44l.73.2c.22.05.62.15.82.2l3.82,1.07c2.07.7,4.2,1.38,6.23,2.28l1.07.49c.12.03.25.08.37.13l1.39.67c.28.14.4.2.7.34l.79.29v-14.7c-2.42-1.09-3.14-1.51-5.81-2.48l-3.11-1.04c-1.07-.31-2.13-.62-3.22-.89-.15-.03-.65-.17-.82-.22l-2.55-.54c-.96-.25-2.52-.47-3.54-.62l-2.7-.37c-1.22-.21-3.41-.47-4.65-.47l-3.91-.18c-1.86-.27-4.09.03-6.07.02-.74,0-1.24.05-1.98.08-.49.03-1.46.1-1.92.17-.64.09-1.12.15-1.78.18-1.22.07-2.43.37-3.6.52-1.44.2-2.87.54-4.29.91-1.86.47-3.62.99-5.42,1.71-.27.12-.46.2-.72.32-2.47.99-5.1,2.53-7.05,4.35-2.45,2.28-4.73,4.87-5.79,8.17l-.64,1.96c-.13.55-.27,1.14-.34,1.75-.24,2.11-.3,4.46.2,6.37l.28,1.01c.14.61.34,1.04.54,1.55.57,1.43,1.33,2.77,2.27,3.94.3.37.58.75.91,1.09,1.47,1.58,3.2,3.12,5.12,4.17,1.16.65,2.25,1.19,3.49,1.7.28.12.47.2.73.3l2.27.76c2.45.72,6.06,1.54,8.44,1.88.43.05.57.12.85.17,1.95.32,6.54.99,8.25,1.06.32.02.6.12.85.15.34.05.65,0,.99.05.54.07,1.29.17,1.85.22.35.03.65-.02.99.05.97.15,2.95.28,3.67.43,1.11.25,2.38.29,3.46.57l4.26.91c2.6.61,3.69,1.13,6.07,2.08,1.28.51,2.74,1.49,3.49,2.64l.55,1.16c.2.66.12,1.41-.1,1.96-1.19,2.94-4.9,4.6-7.79,5.47l-.2.05c-1.11.34-2.42.58-3.54.84-1.39.32-4.53.67-5.87.7-.34.02-.7-.02-1.04,0-.37.02-.54.1-.94.1-1.37,0-2.75-.02-4.13-.02-.43.02-.62-.03-.94-.06-.34-.03-.67.02-1.01-.03-1.43-.17-4.38-.25-5.59-.5-.35-.09-.54-.05-.95-.09l-12.5-2.45c-.14-.03-.24-.05-.36-.09l-6.21-2.03c-.99-.35-1.91-.82-2.89-1.22-.75-.32-2.21-1.23-2.92-1.26v14.44ZM576.34,246.55l1.85,2.68s.02.03.03.05c.02.02.03.03.03.03,0,.02.1.18.17.27l2.15,3c.03.05.1.15.18.27l1.48,2.04c.42.55.79,1.26,1.24,1.77.02.01.03.03.03.05l.74.99s.02.03.03.05c0,.02.03.03.03.05l1.28,1.83c.27.37,1.93,2.87,2.16,2.98.44.22,4.38.1,4.81.1,1.71,0,5.17.02,7.03.17l6.81.52c-.05-.35,0-.3-.15-.54l-6.56-9.18c-.08-.12-.1-.22-.2-.39-.12-.18-.14-.15-.29-.34-.27-.3-.43-.72-.69-1.02l-1.41-1.93c-.1-.12-.12-.18-.2-.32l-.45-.67c-.1-.13-.17-.22-.25-.34-.09-.12-.15-.18-.22-.3l-.17-.27s-.02-.03-.03-.05l-2.89-4.08c-.1-.13-.1-.17-.2-.32-.14-.18-.15-.17-.27-.34l-.39-.55s-.03-.03-.05-.05l-.43-.58s-.03-.03-.03-.05l-.54-.77c-.12-.13-.1-.12-.2-.28l-2.92-4.14c-.1-.12-.05-.03-.15-.18l-.45-.67s-.17-.25-.2-.32l-3.84-5.44s-.03-.03-.03-.05l-4.28-6.12c-.18-.28-.32-.43-.51-.7l-1.12-1.63c-.1-.12-.03-.01-.12-.13l-.17-.18s-.02-.03-.03-.05c-.23-.36-.15-.51-.55-.66-.15.18-.07,0-.15.25l.02.77c-.23.1-.13.07-.28.2l-.46.59c-.06.1-.1.13-.18.25-.64.95.25-.17-.27.4l-.59.87s-.03.03-.03.05l-.43.61c-.18.27-.09.03-.34.35-.17.2-.17.3-.29.5l-.64.82c-.07.14-.13.24-.25.42l-.34.52s-.03.03-.03.05l-.69.87c-.05.07-.12.15-.15.2l-.39.55s-.05.08-.06.12l-2.7,3.83c-.03.05-.12.2-.14.2l-1.8,2.52c-.1.13-.15.25-.27.4-.02.02-.03.03-.03.05l-.08.09s-.03.03-.03.05l-2.07,2.92s-.03.03-.05.05l-.84,1.22s-.02.03-.03.05l-.2.23c-.07.09-.27.4-.27.4l-.64.92s-.02.03-.03.05l-3.02,4.21s-.07.07-.09.09l-.42.6c-.25.25-.25.42-.44.69l-.77,1.04s-.03.03-.03.05l-1.29,1.8c-.18.25-.35.35-.49.66-.21.43.09.05-.25.42l-1.39,1.96s-.02.03-.03.05c-.02.02-.03.03-.03.05l-4.92,6.86s-.03.03-.03.05l-.57.81s-.03.03-.05.03l-2.01,2.9s-.02.03-.03.05l-.84,1.14s-.02.03-.03.05l-2.43,3.42s-.02.03-.03.05l-2.11,3.04s-.03.03-.03.05c-.02.02-.03.03-.03.05-.01.02-.03.03-.03.05l-.81,1.09s-.02.05-.03.07l-.65.87c-.18.27-.84,1.16-.87,1.39-.3.1-.59.65-.77.92l-1.16,1.59c-1.18,1.73-2.49,3.39-3.64,5.13-.17.24-.3.39-.49.64l-3.19,4.46c-.17.25-.27.39-.45.65-.17.24-.3.4-.47.64-1.09,1.46-2.27,2.89-3.29,4.38-.17.25-.27.42-.44.67l-.45.69c-.24.4-.28.29-.37.81.45-.07.34-.05.67-.27l5.15-3.08c.97-.52,1.9-1.14,2.9-1.66l2.44-1.34c3.05-1.56,6.89-3.77,9.91-5.12.02-.02.1-.05.12-.05.02-.02.05-.02.06-.03.02-.02.03-.02.05-.03.1-.03.12-.05.24-.12l10.3-4.65c.84-.42,1.85-.7,2.7-1.09.03,0,.07-.02.12-.05l.42-.17c.39-.17.64-.27,1.04-.42.22-.09.4-.15.57-.22l1.58-.64c.25-.09.42-.13.59-.2l.55-.22c.25-.1.35-.1.59-.2l2.18-.82s.03,0,.07-.02l1.22-.42c.85-.37,1.73-.58,2.62-.89l15.17-4.35c.94-.21,6.54-1.54,7.35-1.54l1.52,2.1s.02.03.03.05l1.68,2.45s.05.09.06.1l3.99,5.7c.1.13.03.03.13.15l2.03,2.95c.06.1.05.06.15.18l1.36,1.98c.18.27.42.57.64.84l2.75,3.96s.05.08.07.1c.02.02.03.03.03.05.02,0,.03.03.05.05l1.96,2.85c.13.17.2.25.34.43.08.12.06.12.12.2.1.15.07.12.13.22l.51.62c.06.09.03.03.15.2l.45.66c.39.49.64,1.06,1.04,1.54l.34.32s.05.05.09.05h17.95c-.07-.72-.02-.17-.14-.46-.3-.69-1.31-1.91-1.8-2.58,0-.02-.01-.03-.03-.05,0-.02-.02-.03-.03-.05l-1.22-1.78s-.1-.17-.17-.27c-.1-.15-.07-.09-.15-.2l-1.64-2.3c-.09-.13-.09-.15-.15-.27l-5.72-8.13c-.08-.12-.18-.3-.32-.46l-1.98-2.82c-.39-.54-.77-1.29-1.19-1.76l-.09-.09c-.2-.21-.17-.23-.32-.45l-.99-1.41c-.13-.18-.2-.27-.32-.44-.24-.35-.39-.58-.62-.94l-3.76-5.36c-.07-.1-.07-.01-.09-.18.27.13,2.18-.03,2.55-.09.89-.12,5.6-.05,6.68.1.32.05.91.05,1.36.05-.3-.37.09-.12-.47-.3l-1.16-.2c-1.64-.27-3.67-.72-5.43-.94-.32-.03-.54,0-.85-.06-1.38-.27-4.53-.42-4.9-.52-.39-.08-.4-.12-.85-.12-.3,0-.62.02-.92-.02l-5.1-.32c-.62-.02-1.09-.1-1.81-.1-.55,0-1.19.05-1.73-.03-.6-.09-10.23-.12-10.9-.02l-5.24.24c-1.49-.02-3.79.2-5.13.38l-3.17.44c-.37.07-.5.05-.84.13l-5.2,1.01c-.69,0-1.76.25-2.41.4-.24.07-.3.12-.62.12.17-.14.27-.46.39-.57.18-.2.07-.03.27-.25l.74-1.07s.02-.05.03-.06l.67-.94s.03-.03.03-.07l1.89-2.65c.08-.12.05-.07.1-.15l1.4-1.96s.1-.13.12-.15c0-.02.05-.09.07-.1l1.09-1.47c.27-.27.37-.61.58-.88.5-.6.85-1.24,1.33-1.86l2.62-3.68c.17-.25.25-.28.46-.58l.5-.76s.03-.03.03-.05l.6-.77s.03-.03.05-.05l.42-.62s.08-.15.08-.17l.47-.55-.07-.69Z"/>
  <path class="cls-2" d="M781.65,257.07h126.36v3.56h-126.36v-3.56ZM313.38,257.07h126.36v3.56h-126.36v-3.56Z"/>
  <path class="cls-1" d="M508.41,367.23c-6.9,2.92-13.07,7.09-18.39,12.39-5.3,5.3-9.48,11.49-12.38,18.37-3.02,7.13-4.54,14.7-4.54,22.51s1.52,15.37,4.54,22.5c2.9,6.88,7.08,13.07,12.38,18.37,5.32,5.32,11.49,9.48,18.39,12.39,7.13,3.02,14.69,4.55,22.5,4.55s15.37-1.53,22.5-4.55c6.88-2.92,13.07-7.08,18.39-12.39,5.3-5.3,9.46-11.49,12.38-18.37,3.02-7.13,4.55-14.7,4.55-22.5s-1.53-15.38-4.55-22.51c-2.92-6.88-7.08-13.07-12.38-18.37-5.32-5.3-11.51-9.48-18.39-12.39-7.13-3-14.7-4.53-22.5-4.53s-15.37,1.53-22.5,4.53ZM507.14,364.22c-7.28,3.07-13.81,7.48-19.43,13.08-5.6,5.62-10.02,12.15-13.09,19.41-3.19,7.53-4.8,15.53-4.8,23.79s1.61,16.24,4.8,23.77c3.07,7.27,7.49,13.81,13.09,19.41,5.62,5.62,12.15,10.02,19.43,13.1,7.53,3.17,15.52,4.8,23.77,4.8s16.24-1.63,23.77-4.8c7.28-3.08,13.81-7.48,19.43-13.1,5.6-5.6,10-12.15,13.09-19.41,3.17-7.53,4.8-15.53,4.8-23.77s-1.62-16.26-4.8-23.79c-3.08-7.27-7.48-13.79-13.09-19.41-5.62-5.6-12.15-10.02-19.43-13.08-7.53-3.19-15.52-4.8-23.77-4.8s-16.24,1.61-23.77,4.8ZM501.13,350.01c-9.11,3.86-17.3,9.36-24.33,16.39-7.01,7.03-12.53,15.22-16.39,24.33-3.99,9.43-6.01,19.45-6.01,29.78s2.01,20.35,6.01,29.78c3.86,9.11,9.38,17.28,16.39,24.31,7.03,7.03,15.22,12.55,24.33,16.39,9.43,3.99,19.45,6.02,29.78,6.02s20.35-2.03,29.78-6.02c9.11-3.84,17.3-9.36,24.31-16.39,7.03-7.03,12.55-15.2,16.41-24.31,3.98-9.43,6-19.46,6-29.78s-2.03-20.35-6-29.78c-3.86-9.11-9.38-17.3-16.41-24.33-7.01-7.03-15.2-12.53-24.31-16.39-9.43-3.99-19.44-6.02-29.78-6.02s-20.35,2.03-29.78,6.02ZM499.83,346.98c-9.5,4.01-18.03,9.76-25.37,17.09-7.33,7.33-13.09,15.87-17.09,25.37-4.16,9.85-6.27,20.28-6.27,31.07s2.11,21.22,6.27,31.05c4.01,9.51,9.76,18.04,17.09,25.37,7.33,7.33,15.87,13.09,25.37,17.11,9.85,4.16,20.3,6.26,31.07,6.26s21.22-2.1,31.07-6.26c9.5-4.02,18.03-9.78,25.37-17.11,7.32-7.33,13.07-15.86,17.1-25.37,4.16-9.83,6.27-20.28,6.27-31.05s-2.11-21.22-6.27-31.07c-4.03-9.5-9.78-18.04-17.1-25.37-7.33-7.33-15.87-13.09-25.37-17.09-9.85-4.16-20.3-6.27-31.07-6.27s-21.23,2.11-31.07,6.27ZM496.77,339.7c-10.44,4.48-19.82,10.75-27.83,18.82-8.07,8.07-14.41,17.45-18.82,27.89-4.53,10.8-6.89,22.24-6.89,34.11s2.37,23.29,6.89,34.09c4.42,10.44,10.75,19.82,18.82,27.89,8.02,8.08,17.4,14.36,27.83,18.82,10.8,4.53,22.29,6.83,34.16,6.83s23.29-2.3,34.11-6.83c10.42-4.46,19.79-10.74,27.88-18.82,8.01-8.07,14.34-17.45,18.76-27.89,4.6-10.8,6.9-22.23,6.9-34.09s-2.3-23.3-6.9-34.11c-4.41-10.44-10.75-19.82-18.76-27.89-8.09-8.07-17.46-14.34-27.88-18.82-10.82-4.53-22.31-6.83-34.11-6.83s-23.36,2.3-34.16,6.83ZM845.59,498.3c-2.55-.17-5.13-.35-7.77-.54v-150.45c2.47-.35,4.68-.54,6.71-.54h6.16c27.14,0,47.11,6.58,59.87,19.7,12.79,13.14,19.18,32.21,19.18,57.26,0,19.59-3.07,34.83-9.2,45.68-6.12,10.85-14.88,18.42-26.25,22.72-11.39,4.29-25.05,6.43-40.97,6.43-2.63,0-5.22-.07-7.73-.25ZM860.15,336.02h-72.21v7.89c6.64,0,11.81.52,15.49,1.56,3.67,1.06,6.31,3.12,7.89,6.18,1.58,3.07,2.35,7.83,2.35,14.31v110.02c0,7.01-.52,12.31-1.56,15.89-1.06,3.59-3.42,5.96-7.1,7.1-3.67,1.14-9.36,1.71-17.06,1.71v7.87h75.1c14.19,0,27.04-1.71,38.6-5.12,11.56-3.42,21.49-8.68,29.81-15.75,8.3-7.1,14.69-16.16,19.16-27.18,4.47-11.04,6.7-24.08,6.7-39.13,0-16.11-2.5-29.59-7.48-40.45-4.98-10.85-11.86-19.59-20.6-26.25-8.77-6.66-19.04-11.42-30.87-14.31-11.81-2.89-24.54-4.33-38.2-4.33ZM709.95,336.02h-73.8v7.89c7.01,0,12.23.69,15.63,2.1,3.42,1.4,5.64,3.93,6.7,7.6,1.06,3.69,1.58,8.94,1.58,15.77v106.87c0,6.82-.52,11.99-1.58,15.5-1.06,3.49-3.27,5.85-6.7,7.08-3.41,1.22-8.62,1.85-15.63,1.85v7.87h130.25l7.89-51.2h-8.4c-2.64,7.53-5.03,13.88-7.22,19.04-2.2,5.17-4.91,9.31-8.15,12.46-3.24,3.16-7.57,5.39-12.99,6.7-5.43,1.32-12.53,1.98-21.27,1.98h-12.08c-7.72,0-12.97-.87-15.77-2.64-2.8-1.74-4.2-5.52-4.2-11.29v-113.96c0-6.83.65-12.08,1.96-15.75,1.33-3.67,3.86-6.26,7.62-7.75,3.76-1.48,9.14-2.22,16.15-2.22v-7.89ZM430.83,435.54v-8.41h-64.86v8.41c6.64,0,11.63.57,14.97,1.71,3.32,1.14,5.52,3.32,6.56,6.56,1.06,3.24,1.58,8,1.58,14.31v28.35c-5.25,3.86-10.72,7.01-16.41,9.46-5.7,2.45-12.65,3.68-20.87,3.68-18.74,0-33.49-6.61-44.26-19.83-10.77-13.2-16.16-33.22-16.16-59.99,0-23.29,5.14-41.71,15.37-55.28,10.23-13.57,24.65-20.35,43.2-20.35,14.01,0,25.47,3.78,34.39,11.29,8.94,7.53,14.88,20.04,17.85,37.55h8.94v-60.13h-7.61c-1.76,2.8-3.2,5.08-4.33,6.83-1.14,1.76-2.85,2.62-5.13,2.62-2.1,0-4.77-.79-8.01-2.35-3.24-1.59-7.7-3.15-13.39-4.73-5.7-1.58-13.35-2.37-22.99-2.37-16.46,0-31.12,3.45-43.97,10.37-12.88,6.91-23.03,17.08-30.47,30.47-7.45,13.39-11.15,29.79-11.15,49.22,0,28.02,7.04,49.78,21.12,65.26,14.09,15.5,35.06,23.23,62.89,23.23,14.55,0,26.61-1.61,36.24-4.85,9.63-3.24,19.18-7.58,28.62-13v-38.08c0-8.22,1.14-13.61,3.42-16.14,2.26-2.53,7.1-3.81,14.44-3.81Z"/>
  <path class="cls-2" d="M300.36,653.2h-36.27v-5.18c3.22,0,5.8-.51,7.77-1.55s3.86-3.14,5.71-6.3c1.84-3.17,4.14-8.04,6.91-14.6l36.62-86.72h7.08l40.93,93.8c2.53,5.65,4.98,9.61,7.35,11.93,2.35,2.3,5.84,3.44,10.45,3.44v5.18h-46.47v-5.18c1.73,0,3.51-.1,5.35-.34,1.85-.24,3.41-.81,4.66-1.73,1.28-.92,1.9-2.37,1.9-4.31,0-1.28-.2-2.73-.59-4.41-.42-1.68-1.19-3.78-2.33-6.31l-7.43-17.28-1.21-3.44-19.7-50.11h-.52l-20.22,50.11-1.21,3.44-8.47,20.05c-.45,1.37-.89,2.73-1.28,4.06-.42,1.33-.62,2.78-.62,4.41,0,2.42.92,3.99,2.77,4.75,1.85.74,4.78,1.11,8.81,1.11v5.18ZM433.2,654.07h-6.9l-39.56-93.46c-1.63-3.91-3.23-7-4.85-9.24-1.61-2.23-3.45-3.88-5.52-4.92-2.08-1.04-4.66-1.56-7.78-1.56v-5.17h46.3v5.17c-1.49,0-3.17.12-5.02.35s-3.42.77-4.75,1.64c-1.33.85-1.98,2.38-1.98,4.58s.97,5.81,2.93,10.54l20.9,51.31,6.73,18.13h.87l6.04-17.26,21.78-54.94c.57-1.26,1.02-2.62,1.37-4.06s.52-2.9.52-4.39c0-2.31-.92-3.86-2.77-4.68-1.84-.79-4.78-1.21-8.8-1.21v-5.17h36.27v5.17c-2.41,0-4.46.27-6.12.79-1.68.52-3.17,1.54-4.5,3.1-1.32,1.56-2.73,3.83-4.23,6.83-1.51,2.98-3.29,6.91-5.37,11.74l-35.58,86.72ZM586.25,653.2h-92.24v-5.17c4.72,0,8.25-.32,10.62-.96,2.36-.64,3.97-2.05,4.83-4.23.87-2.19,1.31-5.54,1.31-10.03v-72.02c0-4.38-.43-7.72-1.31-10.02-.86-2.31-2.47-3.86-4.83-4.68-2.37-.79-5.91-1.21-10.62-1.21v-5.17h90.69l1.02,28.32h-5.52c-.8-5.76-2.04-10.1-3.72-13.04-1.66-2.93-4.38-4.93-8.1-5.97-3.74-1.03-9.19-1.55-16.34-1.55h-25.38v43.87h20.22c5.28,0,9.32-.45,12.08-1.37,2.77-.92,4.66-2.65,5.7-5.18s1.56-6.11,1.56-10.7h5.52v40.08h-5.52c0-4.73-.52-8.24-1.56-10.55-1.04-2.3-2.93-3.79-5.7-4.48-2.75-.7-6.79-1.04-12.08-1.04h-20.22v47.49h22.28c6.68,0,12.06-.3,16.16-.94,4.08-.64,7.31-1.81,9.66-3.54,2.37-1.73,4.33-4.21,5.87-7.43,1.56-3.22,3.2-7.43,4.93-12.62h5.54l-4.84,32.13ZM703.72,654.59h-5.7l-71.52-92.42h-4.83l-3.12-6.74c-2.18-2.98-4.11-5.24-5.77-6.73-1.68-1.49-3.41-2.5-5.18-3.02-1.8-.52-4.01-.79-6.66-.79v-5.17h29.38l63.92,83.43h.85v-55.97c0-5.42-.35-9.73-1.04-12.97-.69-3.22-2.18-5.57-4.5-7.08-2.3-1.49-5.92-2.25-10.87-2.25v-5.17h40.77v5.17c-4.38,0-7.72.79-10.02,2.33-2.31,1.56-3.84,4.04-4.58,7.43-.76,3.41-1.13,7.87-1.13,13.39v86.55ZM641.37,653.2h-40.44v-5.17c4.62,0,8.06-.49,10.37-1.48,2.3-.97,3.86-2.97,4.66-5.96.81-3,1.21-7.37,1.21-13.14v-77.39h8.47v77.39c0,5.77.4,10.12,1.21,13.06.8,2.93,2.35,4.91,4.66,5.95,2.3,1.04,5.58,1.56,9.85,1.56v5.17ZM788.53,655.28c-15.32,0-26.49-3.54-33.5-10.62-7.03-7.08-10.54-18.64-10.54-34.64v-49.91c0-4.05-.47-7.15-1.39-9.33-.92-2.2-2.59-3.72-5-4.58-2.43-.88-5.94-1.31-10.54-1.31v-5.17h49.74v5.17c-4.83,0-8.47.43-10.89,1.31-2.42.85-4.03,2.45-4.83,4.75-.81,2.3-1.21,5.64-1.21,10.02v48.89c0,7.48.97,13.79,2.93,18.92,1.96,5.12,5.32,9.01,10.1,11.64,4.78,2.65,11.26,3.98,19.44,3.98,11.29,0,19.43-2.67,24.44-8.02,5.02-5.37,7.52-13.98,7.52-25.84v-43.54c0-6.09-.35-10.74-1.04-13.89-.69-3.17-2.19-5.33-4.5-6.49-2.3-1.14-5.87-1.73-10.7-1.73v-5.17h42.31v5.17c-4.95,0-8.57.59-10.87,1.73-2.31,1.16-3.77,3.26-4.41,6.31-.62,3.05-.94,7.58-.94,13.57v41.63c0,15.67-3.6,27.44-10.8,35.33-7.2,7.89-18.97,11.83-35.33,11.83ZM952.47,653.2h-92.24v-5.17c4.71,0,8.25-.32,10.62-.96,2.35-.64,3.96-2.05,4.83-4.23.85-2.19,1.29-5.54,1.29-10.03v-72.02c0-4.38-.44-7.72-1.29-10.02-.87-2.31-2.48-3.86-4.83-4.68-2.37-.79-5.91-1.21-10.62-1.21v-5.17h90.68l1.04,28.32h-5.54c-.81-5.76-2.03-10.1-3.71-13.04-1.66-2.93-4.38-4.93-8.12-5.97-3.74-1.03-9.18-1.55-16.32-1.55h-25.38v43.87h20.2c5.3,0,9.33-.45,12.1-1.37,2.77-.92,4.66-2.65,5.7-5.18s1.56-6.11,1.56-10.7h5.52v40.08h-5.52c0-4.73-.52-8.24-1.56-10.55-1.04-2.3-2.94-3.79-5.7-4.48-2.77-.7-6.79-1.04-12.1-1.04h-20.2v47.49h22.28c6.67,0,12.06-.3,16.15-.94,4.08-.64,7.3-1.81,9.66-3.54,2.37-1.73,4.33-4.21,5.87-7.43,1.56-3.22,3.21-7.43,4.93-12.62h5.52l-4.83,32.13ZM344.58,615.37h-48.02l2.59-6.89h42.85l2.59,6.89Z"/>
</svg>