<?xml version="1.0" encoding="UTF-8"?>
<svg id="Layer_1" data-name="Layer 1" xmlns="http://www.w3.org/2000/svg" viewBox="0 0 1080 1080">
  <defs>
    <style>
      .cls-1 {
        fill: #c9ba79;
      }

      .cls-1, .cls-2, .cls-3, .cls-4, .cls-5 {
        fill-rule: evenodd;
      }

      .cls-2 {
        fill: #102a83;
      }

      .cls-3 {
        fill: #947a4b;
      }

      .cls-4, .cls-6 {
        fill: #1b1918;
      }

      .cls-5 {
        fill: #e30016;
      }
    </style>
  </defs>
  <path class="cls-1" d="M911.86,399.16c-44.82,1.27-89.73,19.36-124.45,54.05-1.66,1.67-3.28,3.35-4.86,5.05-.14,2.5-.35,4.95-.6,7.4-2.47.5-4.93,1.1-7.36,1.77h-.04l-.25.09-.12.02-.25.08-.13.02-.06.02c-1.29-2.27-2.64-4.51-4.08-6.67,1.69-2.02,3.39-3.99,5.16-5.94.12-2.64.19-5.28.19-7.94,0-38.36-12.48-73.74-33.43-102.06-3.74,4.95-7.2,10.1-10.39,15.47,13.51,24.11,21.62,51.81,22.66,81.35l-.97-.93c-2.25-2.17-4.7-3.99-7.28-5.51-1.77-23.99-8.42-46.61-18.94-66.76-10.48,20.06-17.13,42.56-18.92,66.45-2.97,1.66-5.74,3.74-8.25,6.26,1.45-38.76,15.09-74.32,37.11-102.74l5.05-6.24.06.09,4.91,6.22.48.58c22.35,29.71,35.7,66.94,35.8,107.34,36.03-35.49,82.43-53.99,128.75-55.3l.23,7.86ZM984.29,583.58c-32.6-30.81-77.15-49.77-126.23-49.77-2.35,0-4.68.04-7.01.12-1.83,1.62-3.7,3.2-5.57,4.74-2.05-1.37-4.18-2.68-6.32-3.93h-.04l-.11-.06-.12-.09-.11-.06-.12-.06-.11-.06-.12-.06-.11-.06-.08-.06c.69-2.47,1.31-4.97,1.83-7.48,2.58-.23,5.17-.42,7.78-.56,1.95-1.77,3.86-3.6,5.74-5.49,27.13-27.11,43.34-60.93,48.54-95.8-6.14.85-12.25,2.06-18.28,3.6-7.53,26.61-21.39,51.95-41.56,73.57l-.02-1.27c-.04-3.16-.48-6.22-1.25-9.13,15.74-18.23,27.03-38.94,33.85-60.62-21.6,6.78-42.23,18-60.4,33.64-3.26-.92-6.72-1.41-10.27-1.41,28.46-26.4,63.26-41.91,98.94-46.47v.02l7.98-.85-.02.11-.92,7.88-.08.75c-5.2,36.8-22.08,72.57-50.58,101.22,50.58.37,96.44,20.11,130.14,51.93l-5.39,5.72ZM918.49,617.14c14.68-5.57,28.38-13.1,40.7-22.23-4.92-3.74-10.1-7.21-15.47-10.39-24.09,13.49-51.81,21.6-81.35,22.64l.94-.96c2.18-2.27,4.01-4.72,5.51-7.3,24.01-1.77,46.61-8.42,66.76-18.94-20.06-10.46-42.56-17.11-66.44-18.92-1.67-2.95-3.75-5.74-6.24-8.25,38.75,1.47,74.3,15.11,102.74,37.11l6.22,5.05-.06.06-6.22,4.92-.61.48c-10.33,7.75-21.55,14.45-33.51,19.86-4.2-1.39-8.54-2.43-12.97-3.14ZM848.87,638.61c-.96-.94-1.91-1.83-2.89-2.73-2.47-.17-4.95-.35-7.38-.6l-.33-1.56v-7.63c1.7-1,3.37-2.01,4.99-3.1,2.02,1.67,3.99,3.39,5.97,5.16,2.62.11,5.26.17,7.92.17,1.29,0,2.55-.02,3.84-.04-4.59,3.01-8.63,6.48-12.12,10.33ZM899.51,725.51c-5.09-19.96-13.66-39.31-25.64-57.09l9.38-.04c11.64,18.29,19.85,38.06,24.68,58.42-1.6-.08-3.2-.24-4.85-.54-1.2-.19-2.39-.46-3.57-.75ZM905.08,765.2c-.1-3.53-.29-7.07-.6-10.58,2.6-.19,5.22-.5,7.8-.94.35,3.76.56,7.53.67,11.29l-7.86.23ZM866,691.81c2.95,5.26,5.63,10.62,8,16.07-.44-.61-.87-1.21-1.29-1.83-3.01-4.47-5.22-9.25-6.71-14.24ZM841.84,723.73c-14.1-7.36-27.47-16.71-39.67-28.08l1.27-.02c3.16-.04,6.22-.48,9.15-1.25,7.4,6.38,15.22,12.05,23.34,16.96,1.58,4.33,3.53,8.46,5.91,12.39ZM793.15,715.85c25.3,21.79,55.34,35.01,86.2,39.62-.15-1.12-.31-2.25-.5-3.37,2.12.61,4.3,1.12,6.57,1.54l1.69.27.33,2.56v.02l.83,7.97h-.1l-7.86-.92-.77-.09c-24.47-3.45-48.46-12.08-70.23-25.84v-8.4h-12.14c-1.1-.84-2.18-1.67-3.26-2.52-.59-2.29-.75-5.39-.75-6.38v-4.47ZM720.66,837.61c4.43-4.66,8.58-9.58,12.5-14.72l.35.83c-2.83,5.72-5.36,12.12-8.21,18.25l-4.64-4.36ZM742.96,725.35c.09-.96.17-1.91.23-2.87,2.98-1.67,5.74-3.74,8.25-6.26-.17,4.36-.48,8.71-.95,13h-5.97c-.77-.42-1.27-2.08-1.56-3.87ZM698.08,729.38c-.13-1.1-.23-2.2-.34-3.33.92-1.92,1.71-3.89,2.37-5.94l.39-1.27c1.54,1.25,3.16,2.35,4.82,3.33.19,2.41.42,4.83.69,7.22h-7.94ZM742.32,766.57c-.35,1.04-.7,2.06-1.08,3.1l-1.16-3.1h2.24ZM710.41,811.13c3.33-4.51,6.45-9.21,9.31-14.05-3.64-6.51-6.88-13.29-9.71-20.29v-8.73c.31.48.54.96.69,1.25l14.34,34.22c-2.93,4.74-6.07,9.33-9.39,13.76l-5.24-6.15ZM701.34,800.71c1.52,2.45,3.1,4.86,4.72,7.23l-5.05,4.41c-.31.27-.61.52-.92.77-2.81-4.01-5.47-8.15-7.94-12.41h9.19ZM685.75,768.13c1.29,3.62,2.68,7.17,4.2,10.69v17.94c-5.18-9.46-9.53-19.46-12.95-29.89,2.85-.06,5.92.33,8.75,1.27ZM632.63,729.3c10.92-7.05,21.29-15.37,30.87-24.92l2.04-2.08c2.74,2.02,5.19,4.45,6.24,7.46,1.54,4.45-.21,9.81-3.33,13.23-.27-3.97-.42-7.96-.42-12-7.73,7.61-15.95,14.45-24.53,20.5l-.17-.02c-3.53-.33-7.2-1.04-10.71-2.16ZM600.97,745.62c2.06-.81,4.09-1.67,6.11-2.56,1.67,1.17,3.39,2.22,5.2,3.2-3.58-.98-7.42-1.19-11.31-.64ZM549.91,757.78c6.88-.61,13.76-1.62,20.58-3.04l-10.87,9.86-2.33.29c-2.16-2.68-4.64-5.06-7.38-7.11ZM594.01,728.36c-3.31,1.37-6.61,2.64-9.96,3.83,2.83-2.8,5.45-5.82,7.73-9.08.36.98.73,2,1.14,2.98.34.77.69,1.54,1.08,2.28ZM613.9,709.32c2.33-1.43,4.64-2.91,6.92-4.45-1.31,3.41-1.14,6.67,0,9.44-1.56.99-3.14,1.95-4.72,2.91-1.27-2.33-2.04-4.95-2.21-7.9ZM575.61,705.41c5.82-13.14,13.31-25.76,22.45-37.51l5.05-.02-1.5-4.41c1.75-2.1,3.53-4.18,5.41-6.22.45,3.03,1.35,6.03,2.7,8.86-8.42,9.77-15.57,20.27-21.41,31.22l-5.69-3.3-3.99,6.7c-.94,1.6-1.96,3.16-3.02,4.68ZM572.57,668.05c-11.1,17.84-18.58,37.23-22.5,57.09-2.66.81-5.42,1.35-8.29,1.58,3.6-20.31,10.79-40.19,21.54-58.63l9.25-.04ZM563.53,621.48c9.54,1.5,19.33,2.29,29.33,2.29,2.35,0,4.68-.04,7.01-.12,1.83-1.62,3.7-3.2,5.57-4.74,2.05,1.37,4.18,2.68,6.32,3.93h.04l.11.09.12.06.21.12.12.06.11.06.12.06.09.06c-.71,2.47-1.31,4.97-1.83,7.48-2.58.23-5.17.42-7.8.56-1.93,1.77-3.84,3.59-5.74,5.49-1.87,1.87-3.68,3.76-5.44,5.69-1.58-2.16-3.28-4.18-5.14-6.09,1.52-1.62,3.05-3.25,4.66-4.85-3.49-.02-6.97-.14-10.42-.35-5.22-4.11-11.14-7.38-17.44-9.81ZM466.63,574c20.56,19.42,45.88,34.14,74.07,42.37-7.13-.58-14.37-.29-21.39.84-21.72-8.94-41.39-21.72-58.06-37.48l5.39-5.72ZM545.84,392.38c1.27,44.84,19.36,89.75,54.06,124.45,1.66,1.67,3.35,3.28,5.05,4.89,2.47.15,4.93.34,7.38.59.52,2.47,1.1,4.92,1.77,7.35l.02.04.02.13.04.14.04.12.02.13.04.12.02.13.02.04c-2.27,1.29-4.51,2.64-6.67,4.07-2.02-1.66-3.99-3.39-5.94-5.14-2.62-.12-5.28-.19-7.95-.19-38.36,0-73.72,12.45-102.05,33.41,4.94,3.74,10.1,7.21,15.47,10.39,24.11-13.5,51.83-21.6,81.35-22.64l-.94.97c-2.16,2.25-3.99,4.7-5.51,7.28-23.99,1.77-46.59,8.42-66.73,18.94,20.04,10.48,42.53,17.11,66.42,18.92,1.67,2.95,3.75,5.74,6.26,8.25-38.75-1.48-74.32-15.11-102.74-37.11l-6.24-5.05.08-.06,6.22-4.93.61-.48c29.69-22.33,66.92-35.67,107.32-35.8-35.49-36.03-53.97-82.41-55.3-128.75v.02l7.88-.25ZM730.24,319.97c-30.79,32.6-49.77,77.13-49.77,126.21,0,2.35.04,4.7.15,7.03,1.62,1.83,3.18,3.68,4.72,5.55-1.37,2.08-2.68,4.18-3.91,6.34l-.02.02-.06.13-.06.1-.06.13-.06.1-.08.13-.06.1-.11.21c-2.49-.7-4.99-1.31-7.5-1.83-.23-2.6-.42-5.18-.54-7.8-1.79-1.94-3.62-3.85-5.49-5.74-27.13-27.13-60.95-43.33-95.8-48.54.86,6.13,2.06,12.24,3.58,18.29,26.61,7.5,51.95,21.37,73.57,41.54l-1.25.02c-3.16.04-6.22.47-9.15,1.27-18.23-15.74-38.92-27.03-60.62-33.84,6.78,21.6,18,42.2,33.64,60.39-.92,3.26-1.39,6.72-1.42,10.27-26.38-28.46-41.89-63.26-46.44-98.94v-.02l-.83-7.96h.1l7.86.92.77.1c36.8,5.2,72.56,22.08,101.21,50.56.37-50.58,20.1-96.44,51.93-130.14v.02l5.72,5.39Z"/>
  <path class="cls-3" d="M667.73,520.4c3.14,9.98,8.69,19.42,16.65,27.38,7.96,7.96,17.4,13.53,27.38,16.65-3.14-9.98-8.69-19.42-16.65-27.38-7.96-7.96-17.4-13.51-27.38-16.65ZM721.03,562.27c-2.6-12.24-8.69-23.97-18.27-33.55-10.6-10.61-23.83-16.95-37.44-18.98.33,2.41.81,4.81,1.41,7.15,11.14,3.16,21.72,9.15,30.56,17.98,8.75,8.75,14.7,19.21,17.88,30.25-1.04.79-2,1.71-2.83,2.7-11-3.18-21.44-9.14-30.14-17.86-11.46-11.46-18.15-25.84-20.04-40.6v-.02l-.31-3.1h.04l3.08.35.29.02c14.45,2.06,28.46,8.69,39.69,19.92,10.04,10.04,16.45,22.35,19.13,35.2-1.04.08-2.06.27-3.04.52v.02ZM655.25,505.95c.5,17.5,7.57,35.07,21.14,48.63,9.44,9.46,20.83,15.74,32.81,18.86-.31.98-.54,1.97-.69,3.01-12.52-3.24-24.43-9.81-34.3-19.69-14.14-14.14-21.5-32.45-22.02-50.72l3.05-.09ZM643.34,578.33c9.27,4.84,19.87,7.59,31.14,7.59s21.87-2.75,31.15-7.59c-9.27-4.82-19.88-7.57-31.15-7.59-11.27,0-21.87,2.77-31.14,7.59ZM710.64,570.24c-10.47-6.82-23.08-10.81-36.63-10.81-14.99,0-28.81,4.89-39.89,13.08,1.94,1.46,3.95,2.81,6.05,4.06,10.11-5.66,21.83-8.9,34.32-8.9s23.99,3.18,34.03,8.73c-.11.79-.16,1.58-.16,2.41,0,.5.02,1.02.06,1.52-10.02,5.53-21.6,8.69-33.93,8.69-16.22,0-31.1-5.45-42.89-14.56l-2.43-1.97.04-.04,2.43-1.91.23-.19c11.64-8.77,26.28-13.99,42.14-13.99,14.2,0,27.42,4.2,38.42,11.37-.67.79-1.27,1.62-1.79,2.51ZM624.32,576.91c12.74,12.04,30.14,19.46,49.31,19.46,13.39,0,25.88-3.6,36.55-9.86.48.92,1.02,1.79,1.64,2.6-11.14,6.57-24.22,10.34-38.19,10.34-19.98,0-38.13-7.73-51.43-20.29h.02l2.1-2.25ZM659.79,617.99c.49-1.02,1.04-2.02,1.58-3.01v3.59l-1.58-.58ZM656.4,642.05l-.37.04-3.12.34v-.04l.35-2.99c1.21.64,2.27,1.56,3.14,2.66ZM678.54,610.17c.96-1.1,1.95-2.16,3-3.2,8.75-8.76,19.23-14.72,30.25-17.9.79,1.06,1.7,2.02,2.7,2.85-3.18,11-9.13,21.41-17.86,30.14-4.05,4.05-8.48,7.53-13.16,10.37v-3.64c3.86-2.53,7.57-5.51,10.97-8.91,7.98-7.97,13.53-17.4,16.67-27.38-9.98,3.12-19.44,8.69-27.4,16.65l-1.06,1.08-4.11-.06ZM708.93,583.23c-12.22,2.58-23.95,8.67-33.56,18.25-2.66,2.68-5.07,5.53-7.19,8.5l-3.73-.08c2.52-3.73,5.43-7.28,8.73-10.61,10.06-10.04,22.37-16.42,35.22-19.1.09,1.04.25,2.05.52,3.03ZM683.47,640.95c6.38-3.33,12.39-7.7,17.78-13.08,9.46-9.46,15.76-20.85,18.88-32.81.95.31,1.95.54,2.99.69-3.24,12.52-9.81,24.43-19.69,34.31-6.01,6.01-12.77,10.79-19.96,14.34v-3.45ZM652.61,648.99c2.33-.06,4.66-.25,6.98-.54.29.97.54,1.97.75,2.99-2.54.34-5.09.54-7.65.62h.02l-.1-3.08ZM716.92,593.6c-6.84,10.48-10.81,23.1-10.81,36.65,0,2.3.1,4.59.33,6.84l-2.78,2.72c-.42-3.14-.62-6.32-.62-9.56,0-14.22,4.18-27.44,11.37-38.42.77.67,1.62,1.27,2.52,1.77ZM741.22,614.39c-1.64-7.28-4.41-14.11-8.04-20.33.92-.46,1.79-1,2.62-1.62,4.47,7.59,7.63,16.07,9.21,25.14l-3.78-3.18ZM763.44,630.9c-3.43-2.39-6.73-5.11-9.81-8.19-8.75-8.76-14.72-19.21-17.88-30.25,1.04-.79,2-1.7,2.83-2.7,11,3.18,21.44,9.15,30.14,17.86,3.14,3.14,5.93,6.49,8.34,10.02l-2.25,2.18c-2.37-3.53-5.14-6.88-8.28-10.02-7.96-7.96-17.4-13.51-27.38-16.65,3.14,9.98,8.69,19.42,16.65,27.38,3.1,3.1,6.4,5.82,9.89,8.19l-2.27,2.18ZM747.43,628.11l.73.75c2.93,2.93,6.07,5.55,9.36,7.84l-2.25,2.18c-3.26-2.31-6.38-4.91-9.29-7.84l-.69-.69-2.29,2.43c-.06,2.29-.25,4.53-.52,6.78v14.26c.21-.62.39-1.27.58-1.91l-.52-.62.98-.96c1.68-6.27,2.6-12.89,2.6-19.73l-.02-1.1,1.33-1.39ZM729.89,595.31c1.04,4.89,2.62,9.67,4.76,14.28l-1.5,1.45c-1.46-5.36-3.56-10.47-6.17-15.22-.5.06-1,.09-1.52.09-.81,0-1.62-.06-2.39-.17-5.51,9.94-8.67,21.42-8.73,33.66l3.16-3.1c.5-9.98,3.16-19.36,7.51-27.68,2.43,4.66,4.32,9.63,5.61,14.89l1.7-1.66c-2.49-5.16-4.32-10.54-5.47-16.01,1.04-.09,2.06-.27,3.03-.54ZM782.44,612.38c-2.33-3.28-4.97-6.42-7.92-9.37-9.44-9.46-20.83-15.74-32.81-18.86.31-.98.54-1.97.69-3.02,12.52,3.25,24.43,9.81,34.3,19.69,2.95,2.95,5.61,6.09,7.98,9.38l-2.25,2.18ZM795.65,651.63c-.02-1.22-.11-2.45-.19-3.68.85-.87,1.83-1.77,2.83-2.62.23,2.08.37,4.14.44,6.22l-3.08.08ZM807.58,579.26c-9.27-4.84-19.87-7.59-31.14-7.59s-21.87,2.75-31.15,7.59c9.27,4.82,19.87,7.57,31.15,7.59,11.27,0,21.87-2.77,31.14-7.59ZM740.28,587.35c10.47,6.82,23.08,10.81,36.63,10.81,14.99,0,28.81-4.88,39.9-13.08-1.94-1.45-3.95-2.8-6.05-4.05-10.11,5.65-21.83,8.9-34.32,8.9s-23.99-3.18-34.04-8.73c.11-.79.17-1.58.17-2.39,0-.52-.02-1.04-.06-1.54,10.02-5.53,21.6-8.69,33.93-8.69,16.21,0,31.1,5.44,42.89,14.55v.02l2.43,1.95-.04.04-2.43,1.92-.23.19c-11.64,8.77-26.28,13.99-42.14,13.99-14.2,0-27.44-4.2-38.42-11.37.67-.79,1.27-1.62,1.79-2.52ZM826.6,580.67c-12.74-12.03-30.14-19.46-49.33-19.46-13.37,0-25.87,3.6-36.53,9.86-.48-.92-1.02-1.79-1.64-2.6,11.14-6.57,24.22-10.33,38.17-10.33,20,0,38.15,7.73,51.45,20.29h-.02l-2.1,2.25ZM783.84,521.05c-9.96,3.14-19.39,8.69-27.38,16.65-7.96,7.96-13.51,17.4-16.65,27.38,9.98-3.12,19.42-8.69,27.4-16.65,7.96-7.96,13.51-17.4,16.63-27.38ZM741.99,574.36c12.22-2.58,23.95-8.67,33.56-18.26,10.58-10.6,16.92-23.82,18.96-37.44-2.39.34-4.78.81-7.15,1.39-3.14,11.16-9.14,21.72-17.98,30.56-8.73,8.75-19.21,14.72-30.25,17.9-.77-1.06-1.69-2-2.68-2.85,3.16-11,9.13-21.41,17.86-30.14,11.46-11.45,25.84-18.13,40.6-20.02l3.12-.33v.04l-.35,3.08-.04.29c-2.04,14.45-8.69,28.48-19.89,39.71-10.06,10.04-22.37,16.42-35.22,19.11-.09-1.04-.25-2.06-.52-3.03ZM798.31,508.59c-17.53.5-35.07,7.57-48.63,21.12-9.46,9.46-15.76,20.85-18.88,32.83-.95-.33-1.97-.56-2.99-.71,3.24-12.51,9.81-24.43,19.69-34.3,14.14-14.14,32.43-21.5,50.73-22.02h-.02l.11,3.08ZM725.91,496.68c-4.84,9.27-7.58,19.87-7.58,31.12s2.74,21.87,7.58,31.14c4.85-9.27,7.59-19.87,7.59-31.14s-2.74-21.85-7.59-31.12ZM734,563.98c6.82-10.48,10.81-23.08,10.81-36.65,0-14.99-4.86-28.81-13.06-39.87-1.45,1.93-2.8,3.95-4.06,6.05,5.66,10.11,8.88,21.83,8.88,34.31s-3.16,23.99-8.73,34.03c-.79-.1-1.58-.14-2.4-.14-.52,0-1.02.02-1.52.06-5.53-10.02-8.69-21.62-8.69-33.95,0-16.2,5.45-31.1,14.56-42.87l1.97-2.43.02.02,1.93,2.43.16.23c8.78,11.66,13.99,26.28,13.99,42.14,0,14.22-4.18,27.44-11.37,38.42-.77-.67-1.62-1.27-2.52-1.77ZM727.33,477.64c-12.04,12.74-19.46,30.14-19.46,49.34,0,13.36,3.61,25.88,9.87,36.55-.92.46-1.79,1-2.62,1.62-6.55-11.14-10.33-24.2-10.33-38.17,0-20,7.73-38.15,20.31-51.44l2.22,2.1Z"/>
  <path class="cls-5" d="M725.46,568.05c5.93,0,10.73,4.81,10.73,10.75s-4.8,10.72-10.73,10.72-10.72-4.8-10.72-10.72,4.8-10.75,10.72-10.75Z"/>
  <path class="cls-4" d="M249.3,876.74v5.51h-20.73c.21-2.08.87-4.05,2.02-5.92,1.12-1.85,3.35-4.32,6.65-7.4,2.66-2.47,4.31-4.16,4.91-5.06.81-1.2,1.22-2.43,1.22-3.61,0-1.31-.35-2.33-1.08-3.04-.71-.72-1.68-1.08-2.93-1.08s-2.21.37-2.95,1.12c-.71.75-1.14,2-1.25,3.7l-5.9-.58c.35-3.26,1.45-5.59,3.31-7.02,1.85-1.42,4.18-2.12,6.95-2.12,3.05,0,5.44.84,7.19,2.47,1.75,1.64,2.6,3.68,2.6,6.13,0,1.39-.25,2.7-.75,3.95-.5,1.27-1.27,2.6-2.35,3.95-.73.92-2.02,2.25-3.89,3.95-1.87,1.7-3.05,2.87-3.56,3.43-.48.54-.89,1.1-1.2,1.62h11.75Z"/>
  <path class="cls-4" d="M275.49,868.11c-1.37.69-2.37,1.52-3.06,2.5-.67.96-1,1.95-1,2.95,0,1.29.42,2.33,1.25,3.13.83.81,1.95,1.21,3.35,1.21.94,0,1.83-.19,2.68-.54.85-.35,1.79-.97,2.8-1.83l-6.02-7.42ZM277.8,861.69l1.6-1.22c1.19-.92,1.79-1.81,1.79-2.73,0-.75-.31-1.39-.87-1.93-.56-.52-1.33-.79-2.31-.79-.92,0-1.66.23-2.2.69-.52.48-.81,1.02-.81,1.64,0,.72.46,1.62,1.37,2.66l1.43,1.68ZM293.93,878.46l-3.59,4.58c-1.77-.85-3.43-2.04-5.06-3.53-1.25,1.12-2.55,1.95-3.97,2.5-1.41.54-3.1.79-5.03.79-3.85,0-6.74-1.08-8.67-3.24-1.5-1.67-2.25-3.6-2.25-5.76,0-2,.59-3.76,1.77-5.34,1.17-1.58,2.93-2.95,5.28-4.12-1.06-1.25-1.85-2.45-2.37-3.58-.54-1.12-.81-2.2-.81-3.22,0-1.87.75-3.45,2.25-4.74,1.5-1.31,3.64-1.95,6.38-1.95s4.76.69,6.26,2.04c1.5,1.37,2.26,3.03,2.26,5.01,0,1.23-.37,2.43-1.12,3.56-.75,1.1-2.24,2.37-4.51,3.81l4.3,5.67c.5-.89.94-2.08,1.31-3.51l5.34,1.21c-.52,1.89-1,3.28-1.39,4.16-.38.87-.81,1.62-1.27,2.2.67.62,1.52,1.31,2.58,2.04,1.04.75,1.81,1.23,2.3,1.45Z"/>
  <path class="cls-4" d="M308.23,874.03l5.72-.67c.19,1.46.69,2.56,1.47,3.33.81.79,1.79,1.17,2.91,1.17,1.23,0,2.25-.46,3.08-1.39.84-.93,1.27-2.16,1.27-3.74,0-1.5-.39-2.66-1.21-3.56-.79-.85-1.77-1.29-2.93-1.29-.75,0-1.66.15-2.72.44l.67-4.82c1.6.04,2.8-.29,3.66-1.04.85-.75,1.27-1.71,1.27-2.93,0-1.06-.29-1.89-.93-2.5-.61-.62-1.44-.94-2.45-.94s-1.89.36-2.6,1.06c-.7.68-1.14,1.72-1.31,3.08l-5.44-.92c.37-1.87.94-3.37,1.7-4.49.77-1.12,1.85-2,3.2-2.64,1.39-.62,2.91-.96,4.61-.96,2.91,0,5.24.94,6.98,2.79,1.46,1.52,2.19,3.22,2.19,5.15,0,2.68-1.48,4.87-4.45,6.47,1.77.4,3.18,1.25,4.24,2.56,1.06,1.31,1.6,2.91,1.6,4.78,0,2.73-1,5.01-2.97,6.92-2,1.91-4.45,2.87-7.4,2.87-2.78,0-5.11-.81-6.96-2.41-1.83-1.6-2.89-3.7-3.18-6.32Z"/>
  <path class="cls-4" d="M351.98,868.77v8.25h5.78c2.24,0,3.66-.04,4.28-.19.92-.17,1.67-.56,2.25-1.21.59-.67.89-1.54.89-2.64,0-.92-.23-1.72-.69-2.35-.44-.64-1.1-1.12-1.95-1.42-.83-.31-2.68-.46-5.51-.46h-5.05ZM351.98,856.51v7.13h4.09c2.43,0,3.93-.04,4.53-.1,1.06-.13,1.89-.5,2.51-1.1.61-.61.89-1.42.89-2.41s-.25-1.75-.77-2.33c-.54-.6-1.31-.96-2.35-1.08-.62-.09-2.39-.11-5.34-.11h-3.58ZM345.74,851.36h12.35c2.45,0,4.26.1,5.47.31,1.21.21,2.27.62,3.23,1.27.96.67,1.72,1.52,2.37,2.6.64,1.06.94,2.27.94,3.6,0,1.45-.37,2.78-1.14,3.99-.79,1.2-1.85,2.12-3.18,2.7,1.87.56,3.34,1.5,4.32,2.81,1.02,1.33,1.52,2.89,1.52,4.66,0,1.39-.31,2.78-.97,4.11-.65,1.31-1.52,2.37-2.66,3.16-1.12.79-2.52,1.29-4.18,1.47-1.04.11-3.56.19-7.53.21h-10.52v-30.89Z"/>
  <polygon class="cls-4" points="376.9 882.25 376.9 851.36 383.14 851.36 383.14 863.52 395.34 863.52 395.34 851.36 401.58 851.36 401.58 882.25 395.34 882.25 395.34 868.73 383.14 868.73 383.14 882.25 376.9 882.25"/>
  <polygon class="cls-4" points="408.11 882.25 408.11 851.36 414.34 851.36 414.34 865.08 426.94 851.36 435.34 851.36 423.7 863.39 435.97 882.25 427.9 882.25 419.42 867.74 414.34 872.92 414.34 882.25 408.11 882.25"/>
  <path class="cls-4" d="M465.94,870.03l-4.26-11.46-4.18,11.46h8.44ZM477.42,882.25h-6.78l-2.7-7.03h-12.35l-2.53,7.03h-6.61l12.01-30.89h6.62l12.35,30.89Z"/>
  <path class="cls-4" d="M486.38,870.69c0,2.49.49,4.36,1.5,5.55.97,1.21,2.2,1.83,3.66,1.83,1.35,0,2.5-.56,3.41-1.66.92-1.1,1.37-2.91,1.37-5.43,0-2.35-.48-4.09-1.42-5.24-.94-1.12-2.1-1.7-3.49-1.7s-2.64.56-3.62,1.68c-.94,1.12-1.41,2.78-1.41,4.97ZM480.52,859.88h5.51v3.28c.73-1.12,1.69-2.03,2.91-2.74,1.22-.71,2.6-1.06,4.08-1.06,2.6,0,4.8,1.04,6.61,3.06,1.81,2.04,2.7,4.89,2.7,8.52s-.89,6.63-2.72,8.69c-1.81,2.08-4.06,3.12-6.63,3.12-1.25,0-2.37-.25-3.37-.73-1-.5-2.06-1.33-3.18-2.53v11.27h-5.9v-30.87Z"/>
  <path class="cls-4" d="M519.37,871.5c-.75.25-1.95.56-3.6.92-1.64.35-2.72.71-3.22,1.02-.77.56-1.17,1.25-1.17,2.08s.31,1.56.94,2.16c.62.6,1.39.92,2.37.92,1.06,0,2.08-.35,3.05-1.06.71-.52,1.19-1.19,1.39-1.97.17-.48.23-1.46.23-2.87v-1.19ZM511.45,866.7l-5.36-.96c.6-2.18,1.64-3.76,3.12-4.82,1.5-1.02,3.66-1.56,6.57-1.56,2.64,0,4.61.33,5.9.95,1.29.63,2.2,1.42,2.72,2.37.54.97.79,2.72.79,5.3l-.06,6.9c0,1.95.08,3.43.29,4.36.16.92.54,1.93,1.06,2.99h-5.86c-.14-.39-.35-.99-.58-1.75-.09-.35-.15-.58-.19-.71-1.02,1-2.1,1.73-3.25,2.22-1.14.48-2.39.73-3.7.73-2.29,0-4.12-.62-5.45-1.87-1.31-1.25-1.97-2.83-1.97-4.74,0-1.27.31-2.39.92-3.37.61-.99,1.44-1.75,2.52-2.29,1.08-.52,2.66-.97,4.72-1.39,2.76-.5,4.68-1,5.74-1.46v-.58c0-1.12-.27-1.93-.85-2.43-.54-.48-1.6-.73-3.16-.73-1.06,0-1.87.21-2.45.62-.6.42-1.08,1.14-1.46,2.19Z"/>
  <path class="cls-4" d="M536.69,882.25h-5.91v-22.37h5.49v3.18c.93-1.52,1.8-2.5,2.53-2.98.77-.47,1.6-.72,2.56-.72,1.35,0,2.64.37,3.89,1.12l-1.81,5.15c-1-.64-1.93-.95-2.78-.95s-1.52.23-2.1.69c-.58.45-1.04,1.29-1.35,2.45-.35,1.23-.52,3.73-.52,7.53v6.9Z"/>
  <path class="cls-4" d="M558.08,859.88v4.7h-4.03v9.02c0,1.83.02,2.89.11,3.2.09.31.25.56.52.75.27.19.62.29,1,.29.56,0,1.35-.19,2.39-.56l.5,4.59c-1.37.58-2.93.87-4.68.87-1.06,0-2.04-.16-2.89-.52-.85-.38-1.47-.84-1.87-1.42-.4-.56-.67-1.33-.84-2.31-.12-.67-.19-2.08-.19-4.16v-9.77h-2.72v-4.7h2.72v-4.45l5.94-3.45v7.9h4.03Z"/>
  <path class="cls-4" d="M561.74,859.88h5.47v3.06c1.93-2.39,4.28-3.57,6.97-3.57,1.43,0,2.68.31,3.72.89,1.06.58,1.91,1.47,2.6,2.68.98-1.2,2.06-2.1,3.18-2.68,1.14-.59,2.35-.89,3.64-.89,1.64,0,3.04.35,4.18,1.02,1.12.67,1.97,1.64,2.53,2.93.42.95.62,2.5.62,4.64v14.3h-5.92v-12.78c0-2.22-.19-3.66-.6-4.31-.54-.83-1.39-1.27-2.54-1.27-.83,0-1.6.25-2.35.77-.71.49-1.25,1.25-1.58,2.22-.29.97-.48,2.51-.48,4.61v10.75h-5.9v-12.26c0-2.18-.11-3.58-.34-4.22-.21-.62-.54-1.08-.97-1.39-.44-.31-1.02-.48-1.81-.48-.89,0-1.72.25-2.45.75-.73.48-1.25,1.18-1.58,2.12-.31.94-.48,2.47-.48,4.61v10.87h-5.9v-22.37Z"/>
  <path class="cls-4" d="M613.84,869.15c-.04-1.72-.5-3.03-1.33-3.91-.83-.89-1.87-1.35-3.08-1.35-1.29,0-2.35.48-3.2,1.42-.83.94-1.25,2.22-1.25,3.84h8.86ZM613.51,875.13l5.89.98c-.75,2.16-1.95,3.81-3.58,4.95-1.64,1.12-3.68,1.68-6.15,1.68-3.89,0-6.76-1.27-8.63-3.81-1.48-2.03-2.22-4.61-2.22-7.71,0-3.7.97-6.61,2.93-8.71,1.92-2.1,4.37-3.16,7.32-3.16,3.35,0,5.97,1.1,7.9,3.31,1.91,2.2,2.85,5.57,2.76,10.1h-14.84c.06,1.77.52,3.12,1.44,4.08.92.99,2.05,1.47,3.41,1.47.94,0,1.71-.23,2.33-.75.64-.5,1.12-1.33,1.45-2.43Z"/>
  <path class="cls-4" d="M644.88,882.25h-5.91v-11.41c0-2.41-.12-3.99-.37-4.7s-.67-1.25-1.25-1.64c-.56-.39-1.25-.6-2.06-.6-1.02,0-1.93.29-2.77.85-.79.56-1.35,1.31-1.66,2.25-.29.92-.46,2.62-.46,5.14v10.12h-5.9v-22.37h5.49v3.28c1.95-2.53,4.41-3.8,7.38-3.8,1.29,0,2.49.25,3.58.7,1.08.48,1.91,1.09,2.45,1.81.56.75.96,1.56,1.17,2.5.21.92.31,2.25.31,3.97v13.91Z"/>
  <path class="cls-4" d="M661.14,859.88v4.7h-4.03v9.02c0,1.83.04,2.89.12,3.2.09.31.25.56.52.75.27.19.6.29,1,.29.56,0,1.35-.19,2.39-.56l.49,4.59c-1.39.58-2.93.87-4.68.87-1.06,0-2.02-.16-2.89-.52-.85-.38-1.47-.84-1.87-1.42-.42-.56-.69-1.33-.83-2.31-.15-.67-.21-2.08-.21-4.16v-9.77h-2.72v-4.7h2.72v-4.45l5.95-3.45v7.9h4.03Z"/>
  <path class="cls-4" d="M663.17,875.86l5.95-.89c.24,1.14.75,2.02,1.54,2.6.77.61,1.85.89,3.24.89,1.52,0,2.68-.27,3.45-.83.52-.39.79-.92.79-1.58,0-.46-.16-.83-.44-1.1-.29-.31-.96-.56-1.97-.79-4.78-1.04-7.8-2.02-9.08-2.89-1.77-1.21-2.64-2.89-2.64-5.03,0-1.94.75-3.58,2.28-4.89,1.52-1.33,3.89-2,7.11-2s5.34.52,6.84,1.5c1.48,1,2.5,2.47,3.06,4.43l-5.57,1.04c-.23-.87-.69-1.54-1.35-2-.69-.48-1.62-.71-2.87-.71-1.56,0-2.66.23-3.35.67-.44.29-.64.71-.64,1.19,0,.44.19.77.56,1.08.54.39,2.39.94,5.53,1.67,3.16.71,5.36,1.6,6.61,2.62,1.25,1.06,1.85,2.55,1.85,4.41,0,2.06-.85,3.83-2.58,5.3-1.71,1.47-4.24,2.2-7.59,2.2-3.05,0-5.47-.6-7.23-1.85-1.79-1.23-2.93-2.91-3.5-5.03Z"/>
  <rect class="cls-6" x="749.03" y="851.36" width="6.24" height="30.89"/>
  <path class="cls-4" d="M781.53,882.25h-5.93v-11.41c0-2.41-.12-3.99-.37-4.7s-.67-1.25-1.22-1.64c-.59-.39-1.27-.6-2.06-.6-1.02,0-1.95.29-2.77.85-.81.56-1.37,1.31-1.66,2.25-.34.92-.48,2.62-.48,5.14v10.12h-5.9v-22.37h5.49v3.28c1.95-2.53,4.43-3.8,7.38-3.8,1.31,0,2.49.25,3.57.7,1.09.48,1.89,1.09,2.45,1.81.56.75.94,1.56,1.17,2.5.23.92.34,2.25.34,3.97v13.91Z"/>
  <path class="cls-4" d="M792.23,870.58c0,2.37.34,4.1,1,5.18.96,1.54,2.29,2.33,3.99,2.33,1.37,0,2.53-.6,3.49-1.77.96-1.14,1.44-2.89,1.44-5.18,0-2.58-.48-4.43-1.39-5.55-.94-1.14-2.12-1.7-3.58-1.7s-2.58.56-3.51,1.69c-.96,1.12-1.44,2.76-1.44,5.01ZM808.04,882.25h-5.49v-3.28c-.92,1.27-2,2.22-3.23,2.85-1.25.63-2.49.94-3.78.94-2.55,0-4.76-1.04-6.59-3.12-1.83-2.06-2.74-4.94-2.74-8.65s.87-6.67,2.66-8.65c1.78-1.97,4.03-2.97,6.78-2.97,2.5,0,4.66,1.06,6.49,3.12v-11.12h5.9v30.89Z"/>
  <path class="cls-4" d="M813.88,882.25v-22.37h5.92v22.37h-5.92ZM813.88,856.84v-5.49h5.92v5.49h-5.92Z"/>
  <path class="cls-4" d="M854.54,871.5c-.75.25-1.93.56-3.59.92-1.64.35-2.7.71-3.2,1.02-.79.56-1.17,1.25-1.17,2.08s.29,1.56.92,2.16c.62.6,1.42.92,2.37.92,1.09,0,2.08-.35,3.06-1.06.72-.52,1.18-1.19,1.41-1.97.15-.48.21-1.46.21-2.87v-1.19ZM846.64,866.7l-5.36-.96c.59-2.18,1.62-3.76,3.1-4.82,1.5-1.02,3.66-1.56,6.57-1.56,2.66,0,4.61.33,5.9.95,1.29.63,2.2,1.42,2.72,2.37.54.97.79,2.72.79,5.3l-.06,6.9c0,1.95.11,3.43.29,4.36.19.92.54,1.93,1.08,2.99h-5.88c-.15-.39-.34-.99-.56-1.75-.08-.35-.17-.58-.19-.71-1.04,1-2.12,1.73-3.26,2.22-1.14.48-2.37.73-3.68.73-2.3,0-4.14-.62-5.44-1.87-1.35-1.25-2-2.83-2-4.74,0-1.27.29-2.39.92-3.37.6-.99,1.45-1.75,2.53-2.29,1.09-.52,2.66-.97,4.7-1.39,2.77-.5,4.68-1,5.74-1.46v-.58c0-1.12-.27-1.93-.83-2.43-.56-.48-1.6-.73-3.18-.73-1.04,0-1.87.21-2.45.62-.6.42-1.08,1.14-1.43,2.19Z"/>
  <path class="cls-4" d="M871.9,870.69c0,2.49.5,4.36,1.5,5.55.98,1.21,2.2,1.83,3.64,1.83s2.52-.56,3.43-1.66c.92-1.1,1.37-2.91,1.37-5.43,0-2.35-.46-4.09-1.41-5.24-.94-1.12-2.1-1.7-3.5-1.7s-2.64.56-3.59,1.68c-.96,1.12-1.44,2.78-1.44,4.97ZM866.04,859.88h5.53v3.28c.7-1.12,1.68-2.03,2.89-2.74,1.22-.71,2.58-1.06,4.07-1.06,2.6,0,4.81,1.04,6.61,3.06,1.81,2.04,2.72,4.89,2.72,8.52s-.92,6.63-2.75,8.69c-1.83,2.08-4.03,3.12-6.63,3.12-1.22,0-2.35-.25-3.36-.73-1-.5-2.06-1.33-3.18-2.53v11.27h-5.9v-30.87Z"/>
  <path class="cls-4" d="M907.29,882.25v-3.35c-.84,1.19-1.89,2.12-3.2,2.83-1.33.67-2.75,1.02-4.22,1.02s-2.85-.33-4.03-.99c-1.2-.64-2.08-1.58-2.6-2.77-.54-1.2-.81-2.85-.81-4.97v-14.14h5.92v10.27c0,3.16.12,5.07.33,5.8.21.71.61,1.25,1.19,1.68.58.42,1.31.61,2.2.61,1.02,0,1.91-.27,2.72-.81.79-.58,1.33-1.25,1.64-2.06.27-.83.44-2.87.44-6.07v-9.42h5.91v22.37h-5.49Z"/>
  <path class="cls-4" d="M924.58,882.25h-5.93v-22.37h5.51v3.18c.94-1.52,1.79-2.5,2.52-2.98.77-.47,1.62-.72,2.58-.72,1.35,0,2.64.37,3.89,1.12l-1.83,5.15c-1-.64-1.91-.95-2.76-.95s-1.54.23-2.12.69c-.58.45-1.02,1.29-1.35,2.45-.33,1.23-.49,3.73-.49,7.53v6.9Z"/>
  <path class="cls-4" d="M830.28,882.25h-5.93v-22.37h5.49v3.18c.95-1.52,1.81-2.5,2.53-2.98.77-.47,1.6-.72,2.56-.72,1.35,0,2.66.37,3.91,1.12l-1.83,5.15c-1-.64-1.93-.95-2.78-.95s-1.54.23-2.1.69c-.6.45-1.02,1.29-1.35,2.45-.33,1.23-.49,3.73-.49,7.53v6.9Z"/>
  <path class="cls-4" d="M948.03,871.5c-.75.25-1.95.56-3.6.92-1.64.35-2.7.71-3.23,1.02-.77.56-1.14,1.25-1.14,2.08s.31,1.56.92,2.16c.62.6,1.39.92,2.37.92,1.06,0,2.08-.35,3.05-1.06.71-.52,1.19-1.19,1.39-1.97.17-.48.23-1.46.23-2.87v-1.19ZM940.13,866.7l-5.38-.96c.6-2.18,1.64-3.76,3.12-4.82,1.47-1.02,3.66-1.56,6.57-1.56,2.64,0,4.61.33,5.9.95,1.29.63,2.2,1.42,2.72,2.37.54.97.81,2.72.81,5.3l-.06,6.9c0,1.95.08,3.43.27,4.36.19.92.56,1.93,1.06,2.99h-5.84c-.17-.39-.35-.99-.58-1.75-.11-.35-.17-.58-.21-.71-1,1-2.1,1.73-3.25,2.22-1.14.48-2.37.73-3.7.73-2.29,0-4.12-.62-5.43-1.87-1.33-1.25-2-2.83-2-4.74,0-1.27.29-2.39.89-3.37.61-.99,1.46-1.75,2.56-2.29,1.08-.52,2.66-.97,4.7-1.39,2.76-.5,4.68-1,5.74-1.46v-.58c0-1.12-.27-1.93-.83-2.43-.56-.48-1.62-.73-3.18-.73-1.06,0-1.87.21-2.47.62-.58.42-1.04,1.14-1.42,2.19Z"/>
  <path class="cls-4" d="M959.24,859.88h5.47v3.06c1.95-2.39,4.28-3.57,6.98-3.57,1.44,0,2.66.31,3.72.89,1.06.58,1.92,1.47,2.6,2.68.97-1.2,2.03-2.1,3.18-2.68,1.12-.59,2.35-.89,3.64-.89,1.64,0,3.03.35,4.18,1.02,1.12.67,1.97,1.64,2.54,2.93.42.95.6,2.5.6,4.64v14.3h-5.91v-12.78c0-2.22-.21-3.66-.62-4.31-.54-.83-1.37-1.27-2.51-1.27-.84,0-1.62.25-2.33.77-.75.49-1.27,1.25-1.58,2.22-.33.97-.5,2.51-.5,4.61v10.75h-5.9v-12.26c0-2.18-.12-3.58-.33-4.22-.21-.62-.54-1.08-.98-1.39-.44-.31-1.04-.48-1.81-.48-.92,0-1.72.25-2.45.75-.73.48-1.27,1.18-1.58,2.12-.31.94-.46,2.47-.46,4.61v10.87h-5.94v-22.37Z"/>
  <path class="cls-2" d="M354.16,732.77c3.83,0,6.96-3.11,6.96-6.96s-3.13-6.97-6.96-6.97-6.99,3.12-6.99,6.97,3.14,6.96,6.99,6.96Z"/>
  <path class="cls-4" d="M689.1,876.32h5.93v4.24c0,1.7-.15,3.05-.44,4.06-.29.97-.86,1.87-1.67,2.66-.83.79-1.87,1.39-3.14,1.85l-1.16-2.43c1.2-.39,2.03-.93,2.53-1.62.52-.69.79-1.64.81-2.83h-2.87v-5.92Z"/>
  <path class="cls-2" d="M354.24,732.83c3.83,0,6.97-3.14,6.97-6.98s-3.14-6.97-6.97-6.97-6.96,3.14-6.96,6.97,3.14,6.98,6.96,6.98Z"/>
  <path class="cls-5" d="M317.05,580.24l.81,150.83c46.53,19.29,110.95-1.79,107.77-83.45-2.77-71.62-74.93-84.57-108.59-67.38ZM859.82,654.21c13.43-25.64,59.79-27.78,76.19,0h-76.19ZM753.19,651.88l32.91-32.1,5.05,4.24-5.86,6.19v6.67c4.91-4.91,10-8.83,15.76-11.72,6.94-3.5,14.94-2.41,22.43.27l.17-9.63h6.75v49.6h-5.94c-.44-11.29-2.02-26.45-10.1-30.89-8.94-4.93-21.6,2.41-29.06,13.34v72.43c0,12.14,5.03,16.75,9.89,16.75h6.26v5.87h-45.42v-5.7h9.89v-87.96l-9.08,7.07-3.64-4.45ZM702.53,651.88l32.91-32.1,5.06,4.24-5.87,6.19v90.08c0,12.14,5.03,16.75,9.89,16.75h6.26v5.87h-45.42v-5.7h9.89v-87.96l-9.08,7.07-3.64-4.45ZM669.22,617.87v12.2c-8.63-3.2-13.93-6.28-21.85-6.67-9.53-.46-19.06,2.22-25.47,9.44-9.27,10.48-10.6,27.23.27,37.05,10.04,9.06,27.86,13.85,41.43,21.85,7.53,4.44,13.2,8.56,15.59,15.44,2.1,6.07,1.02,14.94-5.34,21.52-6.86,7.09-17.13,11.93-31.27,10.58-20.33-1.93-38.92-13.68-36.34-34.9,1.93-15.93,30.33-13.89,22.2,2.62-3.16,6.4,5.01,9.89,9.08,6.65,4.34-3.48,7.07-7.78,7.34-12.06.75-10.94-11.17-21.41-26.72-17-17.96,5.09-25.11,21.66-18,38.44,12.68,29.92,79.52,34.8,92.47-5.34,4.28-13.23,2.5-24.12-4.94-32.68-12.83-14.74-36.3-16.82-49.77-26.98-15.26-11.56-6.9-31.37,14.31-27.24,9.62,1.89,17.46,12.37,16.82,31.4h6.57v-44.2l-6.38-.1ZM488.54,654.21c13.45-25.64,59.79-27.78,76.19,0h-76.19ZM485.63,660.67l106.53-.59c-11.1-32.58-53.22-43.76-86.3-31.25-56.03,21.22-47.55,106.65,9.69,117.07,29.67,5.41,64.01-10.1,75.65-37.77l-5.8-3.39c-35.28,59.46-111.7,22.81-99.77-44.07ZM273.89,566.27l51.66-1.29c71.81-9.52,125.03,24.45,127.17,82.64,2.56,68.9-55.17,108.11-126.86,97.15h-50.68v-7.11h19.04c-.31-50.79-.64-101.57-.96-152.35-.04-4.8-4.89-10.64-9.69-10.64h-9.38l-.31-8.4ZM856.91,660.67l106.5-.59c-11.08-32.58-53.2-43.76-86.28-31.25-56.05,21.22-47.56,106.65,9.67,117.07,29.69,5.41,64.01-10.1,75.68-37.77l-5.82-3.39c-35.28,59.46-111.68,22.81-99.75-44.07Z"/>
  <path class="cls-2" d="M445.44,773.39v48.4c-24.41,15.28-44.24,5.74-52.78-11.33-5.3-10.54-5.67-23.61-1.35-33.99,3.6-8.58,10.23-15.32,21.81-17.23,10.42-1.72,22.37,2.31,32.33,14.16ZM697.81,766.12v26.74h4.35v-44.95h-4.68v6.47c-23-2.58-34.33.06-45.32,9.17-19.81,16.45-22.14,47.81-1.35,63.91,17.61,13.64,45.97,6.69,58.11-5.95l-2.72-3.22c-10.83,9.44-26.09,11.52-37.52,6.42-27.94-12.39-31.81-60.27,4.55-65.4,8.3-1.17,18.36,1.04,24.59,6.82ZM586.71,750.65l-23.99,21.75,2.72,2.89,6.47-5.8v59.92h-7.11v4.18h30.27v-4.36c-4.66-.31-10.12-2.42-10.12-7.88v-48.5c0-12.56,23.66-17.28,23.66-3.28v58.71h-5.99v5.19h30.14v-4.09c-6.25-.81-10.95-2.47-10.95-8.48v-49.73c0-21.04-24.18-23.97-36.72-7.44-.93-4.84.11-6.38,3.58-9.81l-1.95-3.24ZM487.81,775.7h50.54c-10.89-18.44-41.62-17-50.54,0ZM485.88,779.99c-7.92,44.36,42.76,68.69,66.17,29.25l3.85,2.25c-7.71,18.33-30.5,28.62-50.19,25.05-37.96-6.92-43.59-63.58-6.42-77.65,21.95-8.3,49.89-.87,57.23,20.72l-70.64.38ZM435.69,722l2.25,2.75,5.8-4.84v42.68c-9.13-9.84-30.89-11.2-43.64-5.34-40.04,18.42-29.23,77.94,15.13,79.23,10.62.31,21.67-3.02,30.11-9.65v6.28h22.22v-3.53c-6.19-.02-10.14-2.83-10.14-9.69v-112.06l3.7-4.18-2.72-2.91-22.7,21.27ZM339.6,774.01l21.81-21.29,3.35,2.81-3.87,4.11v59.77c0,8.04,3.33,11.1,6.55,11.1h4.16v3.89h-30.12v-3.76h6.55v-58.38l-6.02,4.7-2.39-2.95ZM317.19,751.09v8.15c-5.76-2.14-9.27-4.2-14.57-4.45-6.34-.31-12.68,1.48-16.96,6.3-6.19,6.98-7.09,18.13.16,24.67,6.7,6.03,18.58,9.23,27.61,14.56,5.03,2.95,8.82,5.72,10.4,10.29,1.41,4.06.7,9.98-3.56,14.37-4.58,4.72-11.42,7.94-20.83,7.03-13.56-1.29-25.95-9.11-24.22-23.26,1.29-10.6,20.21-9.23,14.8,1.75-2.1,4.26,3.33,6.59,6.05,4.45,2.89-2.31,4.7-5.2,4.91-8.05.47-7.28-7.47-14.26-17.82-11.33-11.97,3.39-16.74,14.45-12,25.62,8.46,19.96,52.97,23.18,61.62-3.56,2.87-8.81,1.67-16.07-3.31-21.77-8.54-9.84-24.18-11.22-33.16-18-10.19-7.69-4.6-20.89,9.52-18.13,6.45,1.25,11.66,8.23,11.2,20.89h4.39v-29.44l-4.24-.08ZM196.57,775.7h50.56c-10.89-18.44-41.62-17-50.56,0ZM194.64,779.99c-7.9,44.36,42.78,68.69,66.2,29.25l3.84,2.25c-7.71,18.33-30.5,28.62-50.18,25.05-37.98-6.92-43.6-63.58-6.41-77.65,21.92-8.3,49.86-.87,57.23,20.72l-70.68.38ZM58.14,716.31l.21,5.74,7.36-.04c3.24-.04,5.42,3.12,5.42,6.95v93.49c0,5.53.98,8.46-2.52,8.46h-9v6.11h44.8v-7.03h-6.7c-4.86,0-9.96-1.2-9.96-7.86l.31-90.1c21.16-20.67,57.38-12.95,65.22,22.97,10.23,47.03-28.48,63.87-60.69,40.54l-7.25,9.36,52.33,26.92c10.6,5.44,28.65,8.46,39.19-.14,1.39-1.12-1.29-4.87-2.93-4.16-6.2,2.73-14.2,3.12-20.85-.23l-28.73-14.51c35.8-4.7,51.06-33.28,44.8-61.1-7.55-33.59-49.37-52.06-81.02-28.73v-7.01l-30,.38ZM738.06,754.99v3.72h-9.34l18.67,49.42c4.34-12.33,8.69-24.68,13.03-37.03,1.75-4.91,1.89-12.25-3.23-12.25h-4.49v-4.2h26.4v3.58h-8.71c-11.27,29.83-20.35,60.66-33.97,89.5-8.92,18.94-22.29,35.95-37.51,35.42v-19.16h4.34c1.56,6.61,12.45,5.34,16.26,1.47,11.04-11.27,15.01-27.61,22.64-41.39l-24.24-57.8c-1.62-3.89-4.89-7.42-9.5-7.42h-4.84v-4.03l34.47.17Z"/>
</svg>