<svg width="20" height="20" viewBox="0 0 20 20" fill="none" xmlns="http://www.w3.org/2000/svg">
<path d="M18 10C18 5.58172 14.4183 2 10 2C5.58172 2 2 5.58172 2 10C2 14.4183 5.58172 18 10 18C14.4183 18 18 14.4183 18 10ZM20 10C20 15.5228 15.5228 20 10 20C4.47715 20 0 15.5228 0 10C0 4.47715 4.47715 0 10 0C15.5228 0 20 4.47715 20 10ZM11.5003 6C11.8278 6.43606 12.0625 6.94584 12.175 7.5H14V9H12.175C11.8275 10.7117 10.3142 12 8.5 12H8.3107L12.0303 15.7197L10.9697 16.7803L6 11.8107V10.5H8.5C9.4797 10.5 10.3131 9.8739 10.622 9H6V7.5H10.622C10.3131 6.62611 9.4797 6 8.5 6H6V4.5H14V6H11.5003Z" fill="#F6883E"/>
</svg>
