<svg width="36" height="35" viewBox="0 0 36 35" fill="none" xmlns="http://www.w3.org/2000/svg">
<path d="M24.3924 32.8057C25.4775 32.7257 26.444 31.9719 26.7311 30.8591C26.8664 30.3483 26.836 29.8319 26.6787 29.3653C27.0846 29.4012 27.496 29.4178 27.8991 29.4178C30.9447 29.4178 33.7749 28.5259 33.924 28.4762C34.1449 28.4044 34.3244 28.2581 34.4459 28.0758C34.4514 28.0675 34.4569 28.0593 34.4625 28.0482C34.5039 27.9847 34.537 27.9157 34.5591 27.8411C34.5646 27.819 34.5729 27.7942 34.5784 27.7693C34.5812 27.7583 34.584 27.7472 34.5867 27.7362C34.5895 27.7169 34.5922 27.6975 34.5978 27.6782L35.3129 24.7265C35.3488 24.5636 35.3599 24.3924 35.3046 24.224C35.139 23.7076 34.5867 23.4232 34.0731 23.5889C34.0593 23.5944 33.5568 23.7518 32.7754 23.9285C32.8113 23.8899 32.8499 23.8512 32.8831 23.8125C32.9687 23.7187 33.046 23.6275 33.1205 23.5337C33.1481 23.4978 33.1702 23.4646 33.1951 23.4287L33.3828 23.183H33.358C34.0455 22.0537 33.9461 20.8884 33.057 19.9993C32.6843 19.6155 32.5186 19.5465 32.2866 19.4802C32.0381 19.4057 31.6599 19.298 30.1633 17.8428L30.1025 17.7849C29.8181 17.4977 29.5337 17.1967 29.2383 16.8681C29.0395 16.65 28.7578 16.3297 28.4431 15.9542L28.4569 15.9514L28.3243 15.7968L28.3409 15.7554L28.2332 15.6863C28.0344 15.4516 27.8301 15.1976 27.623 14.9325L27.5843 14.8801C27.5236 14.7751 27.3883 14.5101 27.2254 14.176C27.2889 14.0931 27.3027 13.9799 27.2447 13.8971C27.2005 13.8336 27.126 13.806 27.0487 13.817C27.0045 13.7204 26.9548 13.6237 26.9078 13.5243C26.814 13.3338 26.7173 13.1322 26.6152 12.9251C26.6676 12.8478 26.6759 12.7457 26.6262 12.6684C26.5848 12.6049 26.5185 12.58 26.4495 12.5828C26.3059 12.2928 26.1596 11.9974 26.0104 11.6964C26.0712 11.6191 26.0878 11.5114 26.0353 11.4286C25.9911 11.3568 25.911 11.3292 25.831 11.343C25.6984 11.0779 25.5631 10.8156 25.4306 10.5616C25.5217 10.4843 25.5493 10.3545 25.4941 10.2578C25.4416 10.1695 25.3312 10.1446 25.2346 10.1916C25.091 9.91821 24.9474 9.65866 24.8093 9.41567C24.9004 9.34112 24.9336 9.21134 24.8784 9.1147C24.8231 9.0153 24.7016 8.99321 24.5995 9.05396C24.2985 8.55142 24.0279 8.15381 23.8181 7.94672C23.8153 7.94396 23.8125 7.94119 23.807 7.93843L29.6911 0H19.0937L16.661 3.74694C16.5727 3.75799 16.4843 3.78836 16.4043 3.84082C16.2331 3.95127 16.0674 4.13903 15.8741 4.3544C15.6974 4.55597 15.4986 4.78239 15.2694 4.97015C14.1263 5.89239 12.3094 8.02955 11.8814 8.69776C11.8593 8.70052 11.8262 8.70881 11.7903 8.71709C11.1497 8.85239 9.88784 9.25552 9.24172 10.4042C8.33605 12.0305 10.2109 14.002 13.3145 16.4678C14.684 17.5115 15.6808 18.0858 16.4816 18.5469C17.6937 19.2455 18.569 19.7508 19.8999 21.3716C20.3914 21.9929 21.1038 22.5949 21.9432 23.1416C21.6119 23.056 21.2695 22.9648 20.9105 22.871L16.7991 21.7858C13.1626 20.8829 10.4953 20.1595 9.07328 19.6928C5.88134 18.6408 2.82746 15.7913 2.79709 15.7637C2.40224 15.3937 1.78373 15.4102 1.41373 15.8051C1.30328 15.921 1.23149 16.0591 1.19007 16.2027L1.18455 16.1999C1.18455 16.1999 0.403134 19.2013 0.394851 19.2428C0.306493 19.5769 0.400373 19.9469 0.67097 20.2009C0.742761 20.2699 1.69537 21.1618 3.11463 22.1586C3.17813 22.2 3.24164 22.2442 3.30515 22.2884C3.55642 22.4651 3.82425 22.6418 4.10037 22.8157C4.37925 22.9897 4.66918 23.1664 4.96739 23.3349C5.06127 23.3873 5.15239 23.437 5.24627 23.4895C5.43403 23.5916 5.62179 23.691 5.81507 23.7877C6.00836 23.8843 6.2044 23.9754 6.40045 24.0666C6.49985 24.1107 6.59925 24.1549 6.69866 24.1963C6.34246 24.5222 6.07463 24.9529 5.94209 25.4554C5.58037 26.8526 6.41702 28.2774 7.81418 28.6419C9.21134 29.0063 10.6389 28.1669 11.0034 26.7698C11.111 26.3528 11.1138 25.9304 11.0227 25.5383L11.3375 25.6211C11.4231 25.646 11.5087 25.6681 11.5943 25.6901C11.9781 25.7896 12.3646 25.8917 12.754 25.9939C12.8175 26.0104 12.8837 26.027 12.9472 26.0436C13.077 26.0767 13.204 26.1099 13.3338 26.143C13.7204 26.2424 14.1014 26.339 14.4714 26.4329C14.6537 26.4799 14.8359 26.524 15.0126 26.5682C15.1065 26.5931 15.1976 26.6151 15.2887 26.6372C15.3771 26.6593 15.4654 26.6814 15.551 26.7035L19.6238 27.7776L19.6514 27.7859C19.8088 27.8273 19.9662 27.8687 20.1181 27.9074C20.662 28.051 21.1756 28.1835 21.656 28.305C21.8631 28.3575 22.0619 28.4072 22.2552 28.4569C21.9846 28.7578 21.7803 29.1251 21.6726 29.5448C21.3081 30.9419 22.1475 32.3667 23.5447 32.7312C23.6993 32.7726 23.8567 32.7947 24.0113 32.8057H0V34.4873H35.3433V32.8057H24.3924ZM9.80776 26.4605C9.61724 27.1978 8.86343 27.6396 8.12619 27.449C7.38896 27.2557 6.9444 26.5019 7.13769 25.7647C7.27851 25.218 7.73134 24.8342 8.25597 24.7486C8.43821 24.721 8.62873 24.7265 8.81925 24.7762C9.04015 24.8342 9.23343 24.9391 9.39358 25.0854C9.76634 25.4168 9.94306 25.9414 9.80776 26.4605ZM23.5281 8.24493L23.5585 8.2753C23.7435 8.4741 23.9837 8.83582 24.2488 9.28866C24.1522 9.35493 24.0555 9.4212 23.9561 9.4847C23.8512 9.55649 23.8153 9.69731 23.8733 9.80224C23.9285 9.9044 24.061 9.93202 24.166 9.86022C24.2654 9.79395 24.362 9.72493 24.4614 9.65866C24.5967 9.89888 24.7375 10.1584 24.8811 10.429C24.779 10.5008 24.6768 10.5726 24.5719 10.6444C24.4697 10.7162 24.4338 10.857 24.4946 10.9619C24.5525 11.0641 24.6878 11.089 24.79 11.0144C24.8866 10.9481 24.986 10.8791 25.0827 10.8101C25.2125 11.0613 25.3422 11.3154 25.472 11.5722C25.3533 11.6578 25.2346 11.7434 25.1131 11.8262C25.0109 11.9007 24.9778 12.0443 25.0413 12.1465C25.1048 12.2459 25.2401 12.2707 25.3422 12.1962C25.4499 12.1189 25.5576 12.0388 25.6653 11.9615C25.8089 12.2487 25.9469 12.5303 26.0822 12.8009C25.9552 12.8948 25.8282 12.9859 25.704 13.0798C25.6018 13.1543 25.5687 13.2979 25.6349 13.4001C25.7012 13.4995 25.8393 13.5216 25.9414 13.4443C26.0519 13.3614 26.1623 13.2786 26.2755 13.1985C26.3584 13.3697 26.4412 13.5381 26.5157 13.6928C26.5793 13.8225 26.6345 13.9413 26.6869 14.049C26.5682 14.1401 26.4467 14.2312 26.3252 14.3223C26.2231 14.3996 26.1954 14.5432 26.2617 14.6454C26.3307 14.7448 26.4688 14.7641 26.571 14.684C26.6759 14.6067 26.7781 14.5266 26.883 14.4493C26.9382 14.5653 26.9907 14.6675 27.0321 14.7531C27.1508 14.9822 27.2199 15.1065 27.2751 15.1755C27.4684 15.424 27.6506 15.6504 27.8328 15.8686C27.7887 15.921 27.7224 15.9597 27.6175 15.9597C27.5595 15.9597 27.4877 15.9487 27.4021 15.9238C26.5903 15.6974 25.8144 14.3085 24.9143 12.6987C24.5001 11.956 24.0693 11.1911 23.5806 10.4263C22.9372 9.41567 22.3463 8.7806 21.8162 8.52933C22.5148 8.1759 23.1167 7.90254 23.5281 8.24493ZM12.2045 9.05948V8.96836L12.2901 8.86896L12.2763 8.85515C12.6987 8.28634 14.2478 6.32866 15.529 5.29045C15.7857 5.0806 15.9984 4.84037 16.1861 4.63052C16.2275 4.58358 16.269 4.53664 16.3104 4.4897C16.4263 4.35993 16.534 4.24948 16.6251 4.19425C16.7301 4.12799 16.8074 4.1694 16.835 4.19149C16.8433 4.19701 16.8488 4.20254 16.8543 4.20806C16.904 4.25776 16.9206 4.33507 16.8957 4.41791C16.3546 6.30381 17.031 7.78933 18.9611 8.96008C19.1461 9.07328 19.3339 9.13403 19.5189 9.16716L19.6569 9.18649C20.0794 9.22239 20.477 9.1009 20.7752 8.98217C20.7946 8.97664 20.8111 8.96836 20.8304 8.96008C21.206 9.45709 22.327 10.9454 22.8378 12.0222C23.4149 13.3449 24.7375 15.9984 25.6929 16.7549C26.4771 17.401 27.8687 17.9395 28.9235 17.1387C28.9235 17.1387 28.9263 17.1415 28.929 17.1443C29.1886 17.4314 29.4371 17.6937 29.6856 17.9478C29.0699 17.9312 27.8273 18.2957 24.5967 21.1176C23.2879 20.2175 22.396 19.1931 21.7002 18.3951C21.3799 18.0306 21.1066 17.7158 20.8525 17.4839C19.251 16.0204 16.7963 13.806 14.1152 11.4093C12.3591 9.81328 12.1548 9.22791 12.1354 9.07328L12.2045 9.05948ZM20.2202 21.1121C18.8424 19.4305 17.9395 18.9087 16.6887 18.188C15.8575 17.7075 14.9132 17.1663 13.5685 16.1392C10.0977 13.3835 8.94903 11.7793 9.60343 10.6085C10.1225 9.68075 11.1276 9.30522 11.7323 9.15612C11.782 9.41567 11.9836 9.76082 12.3343 10.1888C12.6849 10.6168 13.1875 11.1249 13.8363 11.7185C16.5175 14.1152 18.9749 16.3297 20.5737 17.7904C20.8084 18.0057 21.0762 18.3122 21.3882 18.6684C22.0481 19.4305 22.951 20.4632 24.2847 21.391C26.027 22.6004 28.5121 23.6303 32.1707 23.6303C32.2756 23.6303 32.3805 23.6275 32.4882 23.6275C32.4716 23.6441 32.4551 23.6634 32.4385 23.68C32.4192 23.7021 32.3971 23.7214 32.375 23.7435L32.2756 23.8429C32.2425 23.8705 32.2121 23.9009 32.179 23.9313C32.1486 23.9589 32.1154 23.9865 32.0851 24.0169C32.0575 24.0417 32.0271 24.0666 31.9995 24.0914C30.5084 24.3731 28.4541 24.6105 26.6566 24.2626C25.9 24.1163 24.8342 23.8733 23.4784 23.5337C22.1034 22.8406 20.916 21.9874 20.2202 21.1121ZM23.854 31.5384C23.1167 31.3451 22.6749 30.5913 22.8654 29.854C22.998 29.3349 23.4122 28.9622 23.9009 28.8545C24.108 28.8075 24.3289 28.8075 24.5498 28.8655C24.7348 28.9125 24.9004 28.9953 25.044 29.1085C24.9695 29.0919 24.9004 29.0781 24.8231 29.0616C24.9004 29.0809 24.975 29.0975 25.0468 29.1113C25.3809 29.3681 25.5825 29.7712 25.5825 30.2019C25.5825 30.3151 25.5687 30.4311 25.5383 30.5471C25.345 31.2871 24.5912 31.7289 23.854 31.5384Z" fill="#515151"/>
</svg>
