<svg width="21" height="20" viewBox="0 0 21 20" fill="none" xmlns="http://www.w3.org/2000/svg">
<path d="M8.2122 1.38197C8.81091 -0.460655 11.4177 -0.460657 12.0164 1.38196L13.033 4.51064C13.3007 5.33469 14.0687 5.89261 14.9351 5.89261H18.2248C20.1622 5.89261 20.9678 8.37184 19.4004 9.51064L16.739 11.4443C16.038 11.9536 15.7447 12.8563 16.0124 13.6803L17.029 16.809C17.6277 18.6516 15.5187 20.1839 13.9513 19.0451L11.2899 17.1115C10.5889 16.6022 9.63972 16.6022 8.93875 17.1115L6.27734 19.0451C4.70991 20.1839 2.60095 18.6516 3.19965 16.809L4.21622 13.6803C4.48397 12.8563 4.19065 11.9536 3.48968 11.4443L0.82827 9.51064C-0.739158 8.37184 0.0663919 5.89261 2.00384 5.89261H5.29352C6.15998 5.89261 6.92789 5.33469 7.19564 4.51064L8.2122 1.38197Z" fill="#D9D9D9"/>
</svg>
