<svg width="27" height="36" viewBox="0 0 27 36" fill="none" xmlns="http://www.w3.org/2000/svg">
<path d="M25.855 6.86016C25.0245 6.45832 24.0244 6.79766 23.6136 7.62814L21.4169 12.1199L18.8629 8.97655C18.5325 8.56578 18.0503 8.37825 17.5591 8.37825V8.35146H12.3351V8.38718C12.0226 8.37825 11.7011 8.4229 11.4154 8.59257L5.83417 11.9413C5.33409 12.2449 5.02155 12.7896 5.02155 13.379V18.4065C5.02155 19.3352 5.77166 20.0764 6.69144 20.0764C7.62015 20.0764 8.36133 19.3263 8.36133 18.4065V14.3345L11.71 12.3253V18.4065C11.71 18.853 11.8886 19.2727 12.2012 19.5942L18.4075 25.8005V33.4802C18.4075 34.4089 19.1576 35.1501 20.0774 35.1501C21.0061 35.1501 21.7473 34.4 21.7473 33.4802V25.104C21.7473 24.6575 21.5687 24.2378 21.2561 23.9163L18.1842 20.8444C18.3092 20.6122 18.3985 20.3532 18.3985 20.0764V13.7362L20.4435 16.2544C20.765 16.6473 21.2472 16.8706 21.7473 16.8706C21.8098 16.8706 21.8723 16.8706 21.9348 16.8617C22.5063 16.7991 22.9974 16.4509 23.2475 15.9329L26.5962 9.08371C27.0248 8.26216 26.6855 7.26201 25.855 6.86016Z" fill="#515151"/>
<path d="M15.5238 7.4481C17.5805 7.4481 19.2478 5.78079 19.2478 3.72405C19.2478 1.66731 17.5805 0 15.5238 0C13.467 0 11.7997 1.66731 11.7997 3.72405C11.7997 5.78079 13.467 7.4481 15.5238 7.4481Z" fill="#515151"/>
<path d="M8.99536 25.9878L1.31564 27.6755C0.413719 27.872 -0.157796 28.765 0.0386621 29.6669C0.20833 30.4527 0.904863 30.9796 1.67283 30.9796C1.78892 30.9796 1.91394 30.9707 2.03003 30.9439L10.3973 29.1043C10.8349 29.0061 11.2189 28.7382 11.46 28.3542L14.1926 23.9428L11.7636 21.5139L8.99536 25.9878Z" fill="#515151"/>
</svg>
