<?xml version="1.0" encoding="utf-8"?>
<!-- Generator: Adobe Illustrator 24.1.2, SVG Export Plug-In . SVG Version: 6.00 Build 0)  -->
<svg version="1.1" id="_1_-_10" xmlns="http://www.w3.org/2000/svg" xmlns:xlink="http://www.w3.org/1999/xlink" x="0px" y="0px"
	 viewBox="0 0 512 512" style="enable-background:new 0 0 512 512;" xml:space="preserve">
<style type="text/css">
	.st0{fill:#A26E4D;}
</style>
<g id="Graduate">
	<path class="st0" d="M474.5,336c11.8-8.7,14.3-25.3,5.7-37.1c-2.8-3.8-6.5-6.8-10.8-8.6v-36.5l-21.3,9.1v27.4
		c-13.5,5.8-19.6,21.5-13.8,34.9c1.9,4.3,4.9,8.1,8.6,10.8c-6.8,5-10.8,12.9-10.8,21.3V384c0,5.9,4.8,10.7,10.7,10.7h32
		c5.9,0,10.7-4.8,10.7-10.7v-26.7C485.3,348.9,481.3,341,474.5,336L474.5,336z"/>
	<path class="st0" d="M416,276.4v78.9c0.1,18.7-9.6,36-25.6,45.7c-83,48.5-185.8,48.5-268.8,0c-16-9.6-25.7-27-25.6-45.7v-78.9
		l130.9,55.4c18.6,7.8,39.6,7.8,58.2,0L416,276.4z"/>
	<path class="st0" d="M491.1,162.5L276.8,71.9c-13.3-5.6-28.3-5.6-41.6,0L20.9,162.5c-16.3,6.9-23.9,25.7-17,41.9
		c3.2,7.7,9.3,13.8,17,17l214.3,90.7c13.3,5.6,28.3,5.6,41.6,0l214.3-90.7c16.3-6.9,23.9-25.7,17-41.9
		C504.8,171.9,498.7,165.8,491.1,162.5z"/>
</g>
</svg>
