<svg width="15" height="12" viewBox="0 0 15 12" fill="none" xmlns="http://www.w3.org/2000/svg">
<path d="M13.2044 2.24612C13.1473 2.02271 12.9857 1.85416 12.8006 1.80216C12.4717 1.71047 10.875 1.5 7.50002 1.5C4.125 1.5 2.52866 1.71055 2.19845 1.80242C2.01509 1.85342 1.85349 2.02195 1.79559 2.24612C1.71399 2.56442 1.5 3.89696 1.5 6C1.5 8.103 1.71399 9.4356 1.79582 9.7548C1.85271 9.97732 2.01434 10.1459 2.19865 10.1976C2.52866 10.2895 4.125 10.5 7.50002 10.5C10.875 10.5 12.4717 10.2895 12.8015 10.1976C12.9849 10.1466 13.1465 9.97808 13.2044 9.7539C13.286 9.4356 13.5 8.1 13.5 6C13.5 3.9 13.286 2.56442 13.2044 2.24612ZM14.6574 1.87363C15 3.21 15 6 15 6C15 6 15 8.79 14.6574 10.1264C14.4665 10.8655 13.9095 11.4464 13.2035 11.6427C11.9221 12 7.50002 12 7.50002 12C7.50002 12 3.08054 12 1.79654 11.6427C1.08786 11.4436 0.530858 10.8627 0.34257 10.1264C1.3411e-07 8.79 0 6 0 6C0 6 1.3411e-07 3.21 0.34257 1.87363C0.533468 1.13455 1.09048 0.553635 1.79654 0.35727C3.08054 -1.11759e-07 7.50002 0 7.50002 0C7.50002 0 11.9221 -1.11759e-07 13.2035 0.35727C13.9121 0.556365 14.4692 1.13727 14.6574 1.87363ZM6.00002 8.625V3.375L10.5 6L6.00002 8.625Z" fill="white"/>
</svg>
