<?xml version="1.0" encoding="utf-8"?>
<!-- Generator: Adobe Illustrator 18.0.0, SVG Export Plug-In . SVG Version: 6.00 Build 0)  -->
<!DOCTYPE svg PUBLIC "-//W3C//DTD SVG 1.1//EN" "http://www.w3.org/Graphics/SVG/1.1/DTD/svg11.dtd">
<svg version="1.1" id="Layer_1" xmlns="http://www.w3.org/2000/svg" xmlns:xlink="http://www.w3.org/1999/xlink" x="0px" y="0px"
	 viewBox="0 0 713 713" enable-background="new 0 0 713 713" xml:space="preserve">
<path fill="#f0c25d" d="M85,404.7c-6.1,2.9-8.8,10.1-6.1,16.3l28,60.2c1.4,3,3.9,5.3,7,6.5c1.4,0.5,2.8,0.7,4.2,0.7
	c1.8,0,3.6-0.4,5.2-1.1l211.8-98.9L316,589c-0.4,3.9,1.2,7.8,4.1,10.5c9.3,7.7,20.9,12.1,32.9,12.5c3.3,0,6.6-0.4,9.8-1.2
	c17.2-4.5,30.5-19.8,39.6-46l83.4-246.8l165.1-77c48.6-22.7,73.6-68.7,56.8-104.5c-9.5-18.8-27.8-31.5-48.7-34
	c-23.2-3.5-46.9,0.1-68,10.5l-190.5,89.3L195.6,122c-25.8-9.7-46.2-9.5-60.6,0.9c-12,9.9-18.9,24.7-18.6,40.2
	c0.1,3.9,2.1,7.6,5.4,9.8l137.9,94.8l-79,37.4L48.4,271.5c-5.4-1.3-11.1,1.1-13.8,6L1.5,337c-1.7,3.1-2,6.9-0.7,10.3
	c1.2,3.4,3.9,6,7.2,7.3l98.1,40.5L85,404.7z M142.1,156.9c0.7-5.3,3.4-10.1,7.5-13.5c7.1-5.1,20.1-4.4,37.4,2.1l182.4,71.2
	l-83.2,38.9L142.1,156.9z M29.9,336.8l21.7-38.5L179.1,330c2.7,0.7,5.6,0.4,8.2-0.7l414.3-193.5c16.5-8.1,35-11.1,53.2-8.5
	c12.8,1.2,24.1,8.5,30.4,19.7c10.5,22.4-10.1,55.2-44.9,71.4l-143.5,67.3l8.7-25.8c2.2-6.6-1.4-13.8-8-16c-6.6-2.2-13.8,1.4-16,8
	L378.9,557c-6.1,17.3-13.7,27.7-22.2,29.9c-5.2,1-10.7,0-15.2-2.9l24.9-261.7c0.7-6.9-4.4-13-11.3-13.6c-6.9-0.7-13,4.4-13.6,11.3
	l-3.9,40l-213.8,99.7l-17.6-37.4l35.1-16.4c4.5-2,7.4-6.5,7.4-11.4c0-4.9-2.9-9.4-7.4-11.4L29.9,336.8z"/>
</svg>
