<svg height="512" viewBox="0 0 24 24" width="512" xmlns="http://www.w3.org/2000/svg">
    <g fill="#f0c25d" id="Layer_3" data-name="Layer 3">
        <path
            d="m12 1a11 11 0 1 1 -11 11 11.0125 11.0125 0 0 1 11-11m0-1a12 12 0 1 0 12 12 12 12 0 0 0 -12-12z" />
    </g>
    <g fill="#f0c25d" id="Layer_4" data-name="Layer 4">
        <path
            d="m18 9.5h-3.5v-3.5a1.5017 1.5017 0 0 0 -1.5-1.5h-2a1.5017 1.5017 0 0 0 -1.5 1.5v3.5h-3.5a1.5017 1.5017 0 0 0 -1.5 1.5v2a1.5017 1.5017 0 0 0 1.5 1.5h3.5v3.5a1.5017 1.5017 0 0 0 1.5 1.5h2a1.5017 1.5017 0 0 0 1.5-1.5v-3.5h3.5a1.5017 1.5017 0 0 0 1.5-1.5v-2a1.5017 1.5017 0 0 0 -1.5-1.5zm.5 3.5a.5006.5006 0 0 1 -.5.5h-4a.5.5 0 0 0 -.5.5v4a.5006.5006 0 0 1 -.5.5h-2a.5006.5006 0 0 1 -.5-.5v-4a.5.5 0 0 0 -.5-.5h-4a.5006.5006 0 0 1 -.5-.5v-2a.5006.5006 0 0 1 .5-.5h4a.5.5 0 0 0 .5-.5v-4a.5006.5006 0 0 1 .5-.5h2a.5006.5006 0 0 1 .5.5v4a.5.5 0 0 0 .5.5h4a.5006.5006 0 0 1 .5.5z" />
    </g>
</svg>