<svg id="Layer_1" height="512" viewBox="0 0 512 512" width="512" xmlns="http://www.w3.org/2000/svg"
    data-name="Layer 1">
    <path fill="#f0c25d"
        d="m449.294 299.328c-6.09-41.611-13.667-93.4-19.967-155.318a41.118 41.118 0 0 0 -41.027-37.083h-31.033v-5.661a101.267 101.267 0 0 0 -202.534 0v5.661h-31.033a41.117 41.117 0 0 0 -41.026 37.078c-6.3 61.926-13.877 113.712-19.967 155.323-13.725 93.784-21.284 145.445 5.454 176.572 25.806 30.045 78.78 35.418 187.765 36.1h.148c108.985-.678 161.959-6.051 187.765-36.1 26.738-31.127 19.179-82.788 5.455-176.572zm-270.561-198.062a77.267 77.267 0 0 1 154.534 0v5.661h-154.534zm246.9 359c-19.47 22.669-72.401 27.127-169.633 27.734-97.232-.607-150.163-5.065-169.633-27.733-19.614-22.837-12.617-70.656.086-157.467 6.123-41.843 13.743-93.918 20.1-156.374a17.187 17.187 0 0 1 17.149-15.5h31.034v46.314a12 12 0 1 0 24 0v-46.313h154.531v45.611a12 12 0 1 0 24 0v-45.611h31.033a17.188 17.188 0 0 1 17.149 15.507c6.354 62.451 13.974 114.526 20.1 156.369 12.701 86.808 19.698 134.627.084 157.464z" />
</svg>