<?xml version="1.0" encoding="utf-8"?>
<!-- Generator: Adobe Illustrator 18.0.0, SVG Export Plug-In . SVG Version: 6.00 Build 0)  -->
<!DOCTYPE svg PUBLIC "-//W3C//DTD SVG 1.1//EN" "http://www.w3.org/Graphics/SVG/1.1/DTD/svg11.dtd">
<svg version="1.1" id="Layer_1" xmlns="http://www.w3.org/2000/svg" xmlns:xlink="http://www.w3.org/1999/xlink" x="0px" y="0px"
	 viewBox="0 0 512 512" enable-background="new 0 0 512 512" xml:space="preserve">
<g id="_x32_3_Train">
	<g>
		<path fill="#f0c25d" d="M201.3,370.1c10.7-10.7,8.2-29.9-5.7-43.8c-13.9-13.9-33.2-16.5-43.9-5.8c-10.7,10.7-8.1,30,5.8,43.9
			C169.8,376.7,189.5,381.9,201.3,370.1L201.3,370.1z M168.2,353.6c-5.6-5.6-11.1-17-5.8-22.3c5-5,16-0.5,22.4,5.8
			c5.6,5.7,11,17,5.7,22.3C185.2,364.7,173.9,359.3,168.2,353.6L168.2,353.6z"/>
		<path fill="#f0c25d" d="M346.4,403.6c40.5-7.3,71.4-42.8,71.4-85.4v-200c0-47.9-39-86.8-86.8-86.8h-18.1
			c-3.5-16.7-18.3-29.2-36-29.2h-41.7c-17.7,0-32.5,12.6-36,29.2h-18.1c-47.9,0-86.8,39-86.8,86.8v200c0,42.6,30.8,78,71.3,85.4
			l-82.2,93.6c-2.8,3.2-2.5,8,0.7,10.8c3.2,2.8,8,2.4,10.8-0.7l17.1-19.4h288.2l17.1,19.4c2.8,3.1,7.6,3.5,10.8,0.7
			c3.2-2.8,3.5-7.6,0.7-10.8L346.4,403.6z M327.5,405.1l23,26.1H161.6l23-26.1H327.5z M235.2,17.4h41.7c11.9,0,21.6,9.7,21.6,21.6
			s-9.7,21.6-21.6,21.6h-41.7c-11.9,0-21.6-9.7-21.6-21.6S223.3,17.4,235.2,17.4z M109.5,318.2v-200c0-39.5,32.1-71.6,71.6-71.6
			h18.1c3.5,16.7,18.3,29.2,36,29.2h41.7c17.7,0,32.5-12.6,36-29.2H331c39.5,0,71.6,32.1,71.6,71.6v200c0,39.5-32.1,71.6-71.6,71.6
			H181.1C141.6,389.8,109.5,357.7,109.5,318.2z M125.3,472.6l22.9-26.1h215.6l22.9,26.1H125.3z"/>
		<path fill="#f0c25d" d="M330.9,289.6c29.7,0,53.8-24.2,53.8-53.8v-101c0-17.9-14.5-32.4-32.4-32.4H159.6
			c-17.9,0-32.4,14.5-32.4,32.4v101c0,29.7,24.2,53.8,53.8,53.8L330.9,289.6L330.9,289.6z M142.5,235.7v-101
			c0-9.4,7.7-17.1,17.1-17.1h192.8c9.4,0,17.1,7.7,17.1,17.1v101c0,21.3-17.3,38.6-38.6,38.6H181.1
			C159.8,274.3,142.5,257,142.5,235.7L142.5,235.7z"/>
		<path fill="#f0c25d" d="M316.5,326.3c-13.9,13.9-16.4,33.2-5.7,43.8c11.9,11.9,31.7,6.4,43.8-5.7c15.4-15.4,15.2-34.5,5.8-43.9
			C349.7,309.8,330.4,312.3,316.5,326.3L316.5,326.3z M343.8,353.6c-5.6,5.6-17,11-22.3,5.7c-5.3-5.3,0-16.6,5.7-22.3
			c5.9-5.9,17.2-11,22.4-5.8C354.9,336.6,349.5,347.9,343.8,353.6z"/>
		<path fill="#f0c25d" d="M278.1,332H234c-4.2,0-7.6,3.4-7.6,7.6s3.4,7.6,7.6,7.6h44.1c4.2,0,7.6-3.4,7.6-7.6S282.3,332,278.1,332
			L278.1,332z"/>
		<path fill="#f0c25d" d="M337.7,167.5c3,3,7.8,3,10.8,0c3-3,3-7.8,0-10.8l-18.2-18.2c-3-3-7.8-3-10.8,0c-3,3-3,7.8,0,10.8
			L337.7,167.5z"/>
		<path fill="#f0c25d" d="M331.9,208.8c3,3,7.8,3,10.8,0c3-3,3-7.8,0-10.8l-53.6-53.6c-3-3-7.8-3-10.8,0c-3,3-3,7.8,0,10.8
			L331.9,208.8z"/>
	</g>
</g>
</svg>
