<?xml version="1.0" encoding="utf-8"?>
<!-- Generator: Adobe Illustrator 18.0.0, SVG Export Plug-In . SVG Version: 6.00 Build 0)  -->
<!DOCTYPE svg PUBLIC "-//W3C//DTD SVG 1.1//EN" "http://www.w3.org/Graphics/SVG/1.1/DTD/svg11.dtd">
<svg version="1.1" id="Layer_1" xmlns="http://www.w3.org/2000/svg" xmlns:xlink="http://www.w3.org/1999/xlink" x="0px" y="0px"
	 viewBox="0 0 841.9 447.3" style="enable-background:new 0 0 841.9 447.3;" xml:space="preserve">
	<style type="text/css">
		.st0{fill-rule:evenodd;clip-rule:evenodd;fill:#fff;}
		.st1{fill:#fff;}
		.st2{fill:#fff;}
	</style>
	<g>
		<path class="st0" d="M492.9,102.9c-0.6-4.7-1.4-9.2-1.6-13.8c-0.4-9.9,2.3-18.8,10.4-25.2c6.8-5.4,13.9-10.4,20.8-15.6
			c2.2-1.7,4.7-3.2,4.2-6.7c-0.8,0.1-1.5,0.2-2.3,0.2c-4,0.1-7-2.8-7.1-6.8c-0.1-3.7,3-7,6.8-6.8c2.6,0.1,3.4-0.6,3.8-3.3
			c0.6-4.1,2.8-7.7,5.8-10.9c3.6,4.1,5.8,8.5,6,14c1,0.1,2,0.2,2.9,0.2c4.5,0.1,7.3,3.2,7,7.5c-0.3,3.9-3.7,6.6-7.9,6.1
			c-0.5,0-0.9-0.2-1.5-0.2c-0.6,2.2,0.3,3.8,1.8,5c2.8,2.2,5.8,4.3,8.6,6.5c4.5,3.5,9.1,7,13.5,10.6c8.9,7.4,11.7,17.1,10.5,28.2
			c-0.4,3.8-1.2,7.7-1.8,11.5c5.2,0.4,10.5,0.7,15.7,1.3c7.1,0.8,13.9,2.6,20.3,5.8c13.7,6.6,15.7,19.9,11.4,31.6
			c-2.1,5.8-8.6,9.4-15.2,9c1.2-1.4,2.4-2.7,3.4-4.1c2.1-2.8,2.2-4.1,0.4-7.2c-1.4-2.4-3-4.7-4.3-7.2c-3.5-6.7-2.7-9.8,4-14
			c-1.3-1.2-2.4-2.8-3.8-3.3c-4.9-1.9-9.8-3.6-14.9-4.9c-6.1-1.6-12.3-1.6-18.4,0c-3.6,1-7,2.5-10.4,4c-1.3,0.6-2,0.8-3-0.4
			c-1.6-2-3.4-3.8-5.2-5.6c-0.9-1-1.1-1.9-0.2-2.9c3.9-4.8,4.2-10.5,3.7-16.3c-0.1-1.9-1.3-2.7-3.1-2.2c-1.4,0.3-2.7,0.9-4.1,1.4
			c-0.9-2.4-0.4-4.5,1.2-6.2c3.4-3.8,7.4-2.6,11.5-0.9c1.1-3,0.5-5.7-1.2-7.8c-4-5.3-8.1-10.4-12.4-15.4c-3.7-4.3-7.8-8.2-11.6-12.4
			c-1.2-1.3-2-2.8-3.1-4.3c-2.2,2.6-4.1,5.2-6.3,7.4c-5.3,5.5-10.7,10.9-15.9,16.5c-2.4,2.6-4.2,5.6-6.2,8.5c-1.3,2.1-1.8,4.4-0.9,7
			c3.9-1.6,7.8-2.8,11.2,0.8c1.8,1.8,2.1,4,1.4,6.5c-1.4-0.5-2.7-1.1-4-1.5c-1.9-0.5-3.1,0.4-3.3,2.3c-0.5,5.6-0.3,11.1,3.2,15.8
			c1.2,1.6,0.7,2.7-0.4,3.9c-1.9,2.1-3.9,4.1-6,6.3c-14.2-9-28.8-7.2-43.5-1.8c-3.4,1.3-4.6,2.5-5.4,4.6c0.1,0.2,0.3,0.4,0.5,0.5
			c5.3,2,6,7.1,3.6,11.7c-1.3,2.5-2.8,5-4.4,7.4c-2.9,4.4-2.8,5.9,0.6,9.9c0.7,0.8,1.4,1.5,2.4,2.7c-4.7,0.1-8.5-1.1-11.6-4
			c-1.4-1.3-2.8-3-3.5-4.7c-3.9-9.2-3.6-24.5,11.1-31.7c8.3-4,17-5.6,26.1-6.2C485.9,103.1,489.5,103,492.9,102.9"/>
		<path class="st0" d="M521.7,151.8c-1.8-2.9-1.1-5.4,0.4-8c3.2-5.7,6.3-11.5,9.4-17.3c0.1-0.2,0.3-0.4,0.7-1
			c0.7,1.6,1.2,2.9,1.8,4.1c2.5,4.8,5.1,9.6,7.7,14.4c1.5,2.6,2.1,5.1,0.2,8c6.1-0.9,10.1,2.2,13.9,6.5c-6.4-1.3-9.8,0.6-12.3,6.5
			c-0.7,1.7-1.4,3.4-2.3,5c-1.5,2.3-3.5,2.5-5.5,0.7c-1.5-1.4-2.6-3.2-3.9-4.8c-1,1.3-2,2.8-3.2,4.1c-2.4,2.6-4.7,2.3-6.5-0.7
			c-0.7-1.2-1.1-2.7-1.8-3.9c-1.1-1.9-2.1-4-3.6-5.6c-2.3-2.5-5.3-2.5-8.5-1.6C511.4,153.4,516.5,150.9,521.7,151.8"/>
		<path class="st0" d="M457.5,183.2c1.7-0.9,3.8-1.4,4.9-2.8c2.6-3.1,4.8-6.5,6.8-10c1.9-3.3,3.9-6.6,7.2-8.8c3.4-2.3,7-3.8,11.4-2.7
			c-0.4-2.6-0.8-5.1-1-7.6c-0.5-6.5,0.3-12.7,4.5-18.1c1-1.3,1.9-1.8,3.4-1.1c2.8,1.3,5.6,2.6,8.4,3.9c1.4,0.7,1.5,1.6,0.8,3.1
			c-2.7,5.5-4.7,11.2-3.4,17.4c0.5,2.3,1.8,4.4,2.6,6.6c0.3,0.7,0.2,1.8-0.1,2.5c-0.6,1.1-1.5,2.1-2.4,3c-2.1,2.3-4,4.1-7.7,2.5
			c-3.2-1.4-6.7-0.5-9.6,1.4c-5.1,3.3-9.9,6.9-14.8,10.4c-1.8,1.3-3.6,2.6-5.5,3.9c-5.3,3.7-10.9,3.5-16.6,1.3
			c-4.2-1.6-5.6-4.3-4.6-8.4c1.1-4.5,4.3-7,8.3-6.6c3.7,0.4,6.5,3.5,6.7,7.5c0,0.6,0.1,1.2,0.1,1.9
			C457.1,182.8,457.3,183,457.5,183.2"/>
		<path class="st0" d="M560.8,165.3c6.2-8.4,4.8-16.7,0.9-24.9c-1-2.1-0.7-3.2,1.2-4.1c2.7-1.2,5.5-2.4,8.3-3.3
			c0.7-0.2,2,0.3,2.5,0.9c3.2,3.8,4.6,8.4,4.5,13.3c0,4.2-0.6,8.3-0.9,12.5c8.7-0.6,14,4.4,17.9,11.8c1.8,3.5,4,6.8,6.4,10
			c1.3,1.8,3.3,2.9,5.9,2.6c0-2.8,0.5-5.4,2.7-7.4c2.3-2,4.9-2.6,7.7-1.4c3.5,1.5,4.8,4.5,5,8c0.2,2.9-1.3,4.9-3.9,6
			c-5.7,2.4-11.4,3.2-16.8-0.6c-4.2-3-8.2-6.3-12.4-9.3c-2.8-2.1-5.7-4.1-8.7-5.9c-3.6-2.1-7.5-2.4-11.5-1c-0.8,0.3-2.3,0-2.9-0.5
			C564.8,169.7,562.8,167.4,560.8,165.3"/>
		<path class="st0" d="M455.3,191.3c2.3-0.9,4.6-1.9,6.9-2.7c0.4-0.1,1.1-0.1,1.5,0.2c22,12.1,45.1,7.4,59.9-12.1
			c1.1-1.4,2.8-2.4,4.2-3.7c1.5-1.3,3.1-2.7,4.3-3.8c7.2,4.1,11.3,11.5,17.4,16.7c14.2,12,34.9,13.7,50.8,4.1
			c0.5-0.3,1.3-0.4,1.9-0.2c2.3,0.8,4.5,1.8,6.7,2.7c-21.3,18.2-63.8,11-76.5-18.1c-8.4,16.7-23.1,24.5-40.9,27
			C478.5,203.3,461.4,197.8,455.3,191.3"/>
		<path class="st0" d="M506.8,58c-2.8,2.4-5.1,4.5-7.5,6.6c-0.6,0.5-1.4,0.6-2.2,0.7c-5.8,0.9-11.1,2.8-15.6,6.7
			c-1.3,1.1-2.3,2.7-3.1,3.6c2.1,1.3,4.5,1.9,5.6,3.4c1.9,2.7,1.6,6.1,0.6,9.2c-1,3.4-0.8,4.6,1.8,6.5c0.9,0.7,2.2,0.8,3.3,1.2
			c-3,3.8-7.6,4.8-12.3,2.2c-2-1.1-3.2-0.9-4.9,0.5c-2.2,1.8-4.7,3.3-7.4,4.2c-6.7,2.4-12.7-0.9-14.8-8c1,0.5,1.8,1.1,2.7,1.5
			c4.4,2.1,8,1.1,10.3-3.3c2.2-4.2,4-8.6,6.2-12.9c3.6-7,7.9-13.5,14.4-18.1C490.8,57.2,498.3,56.2,506.8,58"/>
		<path class="st0" d="M591.2,97.8c-7.6,3.6-11.4,3.3-14.7-0.8c1.4-0.9,3-1.7,4.4-2.8c1.8-1.5,1.2-3.3,0.6-5.2
			c-0.4-1.5-0.6-3.1-0.5-4.7c0.3-5.1,1.8-6.6,7.5-6.9c-1.5-1.8-2.5-3.5-3.9-4.7c-4.1-3.6-9.1-5.4-14.4-6.6c-1.6-0.4-3.2-1.3-4.5-2.3
			c-2-1.5-3.8-3.3-6-5.3c8.2-1.6,15.4-0.6,22,3.9c7.5,5.2,11.9,12.6,15.8,20.6c1.6,3.4,3,6.9,4.6,10.2c2.8,5.8,6.8,6.9,12.4,3.6
			c0.3-0.2,0.5-0.3,0.9-0.5c-0.8,5.6-7,9.6-12.8,8.3C599.1,103.8,596.2,102.1,591.2,97.8"/>
		<path class="st0" d="M567.5,125.9c-2,1.1-4,2-5.8,3.2c-1.8,1.2-3.4,2.5-5.5,4.1c-2.8-3.5-5.7-6.9-8.3-10.5
			c-6.2-8.4-11.2-17.4-13.1-27.7c-1.9-10.4-0.2-20,8-27.5c1.7-1.6,4-2.6,5.9-4c1.5-1,2.7-0.9,3.8,0.7c0.7,1,1.6,1.9,2.4,2.9
			c-2.4,1.2-4.7,2.2-6.7,3.5c-7.9,5-10.5,13.6-6.9,22.2c2.5,5.9,6.3,11,10.6,15.8C557.1,114.4,562.2,120.1,567.5,125.9"/>
		<path class="st0" d="M511.6,66.9c4.5-5.6,3.5-5.6,9.3-1.7c9.7,6.5,12.2,16.3,10.8,27.3c-1.1,9-5,17-10.2,24.4
			c-3.9,5.5-8.1,10.8-12,15.9c-4-2.7-7.5-5.1-11.3-7.7c0.7-0.7,1.5-1.7,2.4-2.7c6.2-6.9,12.6-13.6,18.6-20.6c2.1-2.5,3.8-5.5,5.2-8.5
			c4.5-9.6,1.2-19.1-8.1-24.1C514.8,68.4,513.3,67.7,511.6,66.9"/>
		<path class="st0" d="M493.7,124.4c4.2,2.5,8.2,4.4,11.8,7c4.2,3,6.1,7.6,7.2,12.5c0.5,2.4-1.5,1.9-2.6,2.8
			c-1.4-9.8-8-13.9-16.5-15.8c-8-1.8-16.1-2.2-24.1-0.1c-3,0.8-5.9,2.2-8.7,3.3c0.9-2.2,1.8-4.6,3-6.9c0.3-0.6,1.2-1.1,1.9-1.2
			c3.9-0.6,7.9-1,11.8-1.5c0.8-0.1,1.5,0,2.5,0c-0.5-3.7-2.2-7.6,1.3-10.2c3.3-2.4,7.3-1.7,10.5,0.5
			C495.3,117.3,494.4,121.3,493.7,124.4"/>
		<path class="st0" d="M552.1,145.7c2.4-10.8,5.4-13.9,19.6-20c-0.1-1.7-0.3-3.4-0.3-5.1c-0.2-3.1,1.7-5,4.3-5.8
			c2.1-0.6,4.5-0.7,6.8-0.6c2.1,0.1,3.7,2.4,3.8,5.1c0,1.9-0.3,3.8-0.5,6.1c1.4,0,2.8,0,4.3,0c0.7,0,1.4,0.1,2.1,0.2
			c5.1,0.4,10.2,0.7,11.4,7.3c0.1,0.9,0.8,1.7,1.6,3.1c-4.9-3.2-9.6-4.8-14.7-5.4c-7.3-0.9-14.5-0.6-21.5,1.5
			c-7.3,2.1-12.6,6.4-13.9,14.6C553.9,146.5,553,146.1,552.1,145.7"/>
		<path class="st0" d="M588.2,179.1c-2.4,1.2-4.5,2.2-6.6,3.2c1,7.5-1.5,10.3-8.9,10.1c-2.6-0.1-5.3-0.4-6.4-3.2
			c-1.1-2.7-0.2-5.1,1.9-7.2c-2.2-1.4-4.5-2.7-6.6-4.2c-5.2-3.7-8.8-8.4-9.6-15c-0.4-3.5,0.1-4.4,3.8-5.3c1.1,2.2,2,4.4,3.3,6.5
			c2.5,4.5,5.7,8.4,10.4,10.9c3.3,1.7,6.8,2.4,10.3,1.2c2.4-0.9,4.1-0.3,5.8,1.2C586.4,177.8,587.2,178.3,588.2,179.1"/>
		<path class="st0" d="M508.8,157.1c3.5,0.7,4.2,1.5,4,4.6c-0.4,6.1-3.5,10.7-8.1,14.3c-2.6,2-5.4,3.6-8.2,5.4l0,0.3
			c1.8,2.1,2.7,4.3,1.6,7c-1.2,2.7-3.7,3-6.2,3.1c-1.3,0.1-2.7-0.1-4-0.4c-3.9-0.8-5.8-3.5-5.3-7.5c0.1-0.8,0.3-1.5,0.5-2.4
			c-2.1-1.1-4.1-2.1-6.6-3.4c2.9-1.7,4.5-4.3,8.5-2.9c5.5,2,10.5-0.2,14.7-4C503.8,167.3,506.7,162.5,508.8,157.1"/>
		<path class="st0" d="M600.2,136.1c-0.5,0.3-0.7,0.6-1,0.8c-4.8,3.8-5.6,7.5-2.6,12.9c3.4,6.1,3.5,15.2,0.1,21.8
			c-1-2.7-3.7-4.4-2.2-7.6c0.3-0.7,0.2-1.6,0.2-2.3c-0.1-1.2-0.4-1.7-1.9-1.6c-2.2,0.1-4.4-0.1-6.5-0.6c-2.2-0.5-3.3-2.3-3.6-4.6
			c-1.2-9.7,7-19,16.7-19C599.5,135.8,599.7,136,600.2,136.1"/>
		<path class="st0" d="M465.1,134.8c8.3-0.2,14.8,5.1,16.9,13.3c2.1,8-1.2,11.8-9.4,11c-0.5-0.1-1.1-0.2-2-0.3
			c-0.1,1.2-0.7,2.5-0.3,3.4c1.5,3.3-0.8,5.4-2.2,8.3c-2-3.5-2.4-7.1-2.4-10.7c0-3.8,0.8-7.6,2.8-11c3.2-5.5,2.6-8.8-2.1-13
			C466,135.6,465.7,135.3,465.1,134.8"/>
		<path class="st0" d="M620.1,145.6c3.1,8.3,3.4,21.7,0.6,29.1c-2.1-0.6-4.1-1.2-6.3-1.8l0-0.3c3-7,2.9-14.2,0.9-21.4
			c-0.1-0.5,0.1-1.4,0.5-1.8C617.1,148.1,618.5,147,620.1,145.6"/>
		<path class="st0" d="M444.9,143.9c1.7,1.5,3.2,2.8,4.6,4.2c0.3,0.3,0.6,1,0.4,1.4c-2.3,7.4-2.6,14.8,0.6,22
			c-2.2,0.6-4.2,1.1-6.7,1.8C441.6,163.5,441.6,153.7,444.9,143.9"/>
		<path class="st0" d="M540,187.9c1.1,1,2.1,1.9,3.1,2.7c-3.8,3.6-7.6,7.1-11.2,10.5c-3.3-3.3-6.9-6.9-10.7-10.7
			c0.9-0.8,1.9-1.7,3.1-2.7c2.7,2.5,5.2,4.9,7.8,7.4C534.8,192.6,537.3,190.3,540,187.9"/>
		<path class="st0" d="M546.4,181.6c2.9-3,5.6-5.9,8.1-8.5c1.6,1.6,3.2,3.2,4.8,4.7c-3,2.2-6,4.6-9.2,7
			C548.8,183.8,547.7,182.7,546.4,181.6"/>
		<path class="st0" d="M505.2,177.3c1.7-1.6,3.3-3,5-4.6c2.4,2.6,5,5.5,7.9,8.6c-1.2,1.1-2.4,2.1-3.6,3.2
			C511.3,182.1,508.3,179.7,505.2,177.3"/>
		<path class="st0" d="M542.7,130.8c-1.1-2-2-3.7-2.9-5.5c-0.2-0.4-0.2-1.2,0.1-1.5c1.3-1.6,2.6-3.1,4.1-4.7c1.4,2,2.6,3.8,4,5.8
			C546.4,126.8,544.7,128.7,542.7,130.8"/>
		<path class="st0" d="M522.7,130.6c-1.9-2.2-3.5-4-5.2-6c1.4-1.9,2.7-3.6,4.2-5.6c1.4,1.6,2.7,3,3.9,4.6c0.3,0.4,0.3,1.2,0,1.6
			C524.7,127,523.8,128.6,522.7,130.6"/>
		<path class="st1" d="M36,179.4c2.9,0.1,5.8,0.3,8.8,0.6c3,0.3,6.2,0.8,9.5,1.3c0.3-0.1,0.7-0.2,1.2-0.4c4-1.2,6.6-1.9,7.7-1.9
			c1.1,0,2,0.4,2.8,1.3c0.8,0.9,1.9,2.8,3.4,5.9c8.2,17,15.9,32.6,23.2,46.9c7.3,14.2,14.3,27.3,21,39.2
			c8.6-17.3,18.8-39.1,30.7-65.2c4-9,7-15.4,8.7-19.1l0.3-0.7c2.2-4.9,4.5-7.3,6.9-7.3c0.6,0,1.5,0.1,2.6,0.4c1.1,0.2,2.3,0.6,3.7,1
			c3.2-0.5,6.2-1,9-1.3c2.8-0.3,5.5-0.5,7.9-0.7v2.7c-5.2,0.2-8.6,1.3-10.2,3.2c-1.6,1.9-2.4,7.5-2.4,16.9c0,3.6,0,6.3,0,8.1
			c0,1.8,0.1,3.4,0.1,4.9l1.5,40.4c0.6,17.2,1.8,27.7,3.8,31.5c2,3.8,5.7,5.8,11.1,5.8h0.6v2.7c-3.4-0.2-6.9-0.4-10.5-0.8
			c-3.6-0.4-7.3-0.9-11.2-1.6c-3.8,0.7-7.5,1.2-11,1.6c-3.5,0.4-6.9,0.7-10.2,0.8l-0.1-2.7c5,0,8.4-1.2,10.2-3.7
			c1.7-2.5,2.6-8.4,2.6-17.6c0-5.6,0-9.6,0-11.9c0-2.4-0.1-4.4-0.1-6.1l-0.8-32c0-0.8-0.1-4-0.4-9.6c-0.3-5.6-0.5-10.5-0.7-14.8
			c-10.2,21.2-19.3,40.7-27.5,58.6c-8.1,17.8-14,31.1-17.6,39.9h-3.2c-7.6-16.3-15.4-32.6-23.5-48.8C76,230.7,67.6,214.5,59,198.4
			c-1,15.6-1.8,29.9-2.4,43c-0.5,13-0.8,22.5-0.8,28.6c0,9.9,1,16.1,3.1,18.8c2.1,2.6,6.2,4,12.5,4.2v2.7c-2.9,0-5.9-0.3-9.2-0.7
			c-3.2-0.4-6.8-1-10.6-1.9c-3.1,0.6-6.2,1.1-9.5,1.6c-3.2,0.4-6.6,0.7-9.9,1v-2.7c4.5-0.5,7.7-1.3,9.5-2.6c1.8-1.3,3.2-3.6,4.2-7.1
			c0.5-1.9,1-4.4,1.4-7.6c0.4-3.1,0.9-8.4,1.4-15.7c1.1-13.1,1.9-24.1,2.4-32.9c0.5-8.8,0.8-15.8,0.8-20.9v-3c0-9.4-1-15.1-2.9-17.2
			c-1.9-2.1-6.3-3.3-13-3.7V179.4z"/>
		<path class="st1" d="M256.7,250v17.7c0,8.6,0.6,14.2,1.8,16.8c1.2,2.7,3.3,4,6.4,4c0.9,0,1.8-0.1,2.6-0.4c0.8-0.3,1.6-0.7,2.5-1.4
			l1.5,2.1c-3,2.8-5.8,4.8-8.5,6c-2.6,1.3-5.2,1.9-7.8,1.9c-3.2,0-5.6-1.2-7.4-3.6c-1.8-2.4-2.8-5.8-3-10.4
			c-2.9,4.6-6.5,8.1-11.1,10.6c-4.5,2.4-9.6,3.7-15.2,3.7c-6.1,0-10.9-1.5-14.3-4.4c-3.4-2.9-5.1-7-5.1-12.2c0-9.5,9-16.7,27.1-21.6
			c2.7-0.7,4.7-1.3,6.1-1.7c5.2-1.5,8.4-2.9,9.7-4.4c1.3-1.5,1.9-4.1,1.9-7.8c0-7.8-1.1-13.4-3.2-16.7c-2.2-3.3-5.7-4.9-10.7-4.9
			c-3.7,0-6.7,1.1-9,3.3c-2.3,2.2-3.4,5-3.4,8.6c0,1.3,0.1,2.6,0.4,3.9c0.3,1.3,0.6,2.6,1.2,3.9c-1.2,0.6-2.3,1-3.3,1.2
			c-1,0.3-2,0.4-2.9,0.4c-2.2,0-4-0.7-5.4-2c-1.4-1.3-2.1-3-2.1-5c0-5.1,2.5-9.4,7.5-12.7c5-3.3,11.4-5,19.1-5
			c8.5,0,14.7,2.4,18.7,7.2C254.7,232,256.7,239.6,256.7,250 M244,257.8c-2.9,1-6.9,2.2-12,3.6c-13.1,3.5-19.6,9-19.6,16.3
			c0,4.1,1.2,7.4,3.5,9.8c2.4,2.4,5.6,3.6,9.7,3.6c5.7,0,10.1-1.9,13.4-5.6c3.3-3.8,4.9-9,4.9-15.6V257.8z"/>
		<path class="st1" d="M301.4,219.1l0.8,0.7c-0.4,4.7-0.6,8.3-0.7,10.9c-0.1,2.6-0.2,5.1-0.2,7.4l0.5,0.2c2.4-5.8,6-10.3,10.8-13.5
			c4.8-3.2,10.4-4.7,16.8-4.7c8.5,0,14.6,2.7,18.3,8c3.7,5.3,5.5,14.4,5.5,27.3v9.4c0,13.1,0.9,21.1,2.6,23.9
			c1.7,2.8,5.1,4.4,10.2,4.7v2.3c-2.6-0.1-5.4-0.3-8.4-0.7c-2.9-0.3-6-0.8-9.2-1.4c-1.8,0.6-3.4,1-4.8,1.4c-1.4,0.3-2.8,0.6-4,0.8
			c0.3-2.8,0.5-5.9,0.6-9.5c0.1-3.6,0.2-8,0.2-13.2c0-20.8-1.3-33.7-3.9-38.8c-2.6-5.1-7.1-7.7-13.7-7.7c-6.2,0-11.2,2.3-14.8,7
			c-3.6,4.7-5.5,11.1-5.5,19.3v13.2c0,12.3,0.8,19.8,2.5,22.6c1.7,2.7,5,4.3,10.1,4.6l-0.1,2.3c-2,0-4.2-0.2-6.8-0.5
			c-2.6-0.3-6.6-0.9-12.2-1.8c-5.7,0.9-9.8,1.5-12.4,1.8c-2.6,0.3-4.9,0.5-6.9,0.5v-2.4c5.1-0.3,8.6-1.8,10.3-4.6
			c1.7-2.8,2.6-10.8,2.6-23.9v-9.9c0-12.7-0.8-20.4-2.5-23c-1.7-2.6-5.2-3.9-10.4-4v-2.3c3.2-0.5,6.2-0.9,9.1-1.2
			c2.9-0.3,5.7-0.5,8.5-0.6c1-0.7,2-1.4,3.2-2.2C298.5,220.8,299.8,220,301.4,219.1"/>
		<path class="st1" d="M413.3,219.5c11,0,20.2,3.7,27.6,11.1c7.4,7.4,11.1,16.7,11.1,27.8c0,11-3.7,20.2-11.1,27.7
			c-7.4,7.4-16.6,11.2-27.7,11.2c-10.9,0-20-3.7-27.3-11.2c-7.4-7.4-11.1-16.7-11.1-27.8s3.7-20.3,11-27.7
			C393.1,223.1,402.3,219.5,413.3,219.5 M436.5,258.4c0-11-2.1-19.7-6.2-26c-4.1-6.3-9.8-9.5-16.9-9.5c-7.1,0-12.7,3.1-16.9,9.4
			c-4.2,6.3-6.2,14.9-6.2,25.8c0,11,2.1,19.7,6.2,26c4.2,6.3,9.7,9.5,16.7,9.5c7.2,0,12.8-3.2,17-9.5
			C434.4,278,436.5,269.3,436.5,258.4z"/>
		<path class="st1" d="M486.7,219.1l0.8,0.7c-0.4,3.3-0.6,7-0.9,11.1c-0.2,4.1-0.3,9-0.4,14.7l1.4,0.2c2.2-8.2,5-14.4,8.6-18.6
			c3.5-4.2,7.6-6.3,12.3-6.3c2.9,0,5.3,0.8,7.3,2.4c2,1.6,3,3.5,3,5.8c0,1.7-0.5,3.1-1.5,4.2c-1,1.2-2.5,2-4.6,2.6
			c-1.2-1.7-2.6-3-4-3.9c-1.4-0.9-3-1.3-4.7-1.3c-4.8,0-8.7,3.2-11.6,9.7c-2.9,6.5-4.4,15.2-4.4,26.3c0,12,1,19.4,3,22
			c2,2.6,6.2,4.1,12.6,4.4l-0.1,2.4c-3.2,0-6.6-0.3-10.2-0.6c-3.6-0.4-7.5-0.9-11.8-1.6c-4.2,0.7-7.8,1.2-10.8,1.5
			c-3,0.3-5.7,0.6-8.1,0.7v-2.4c5-0.3,8.3-1.8,10-4.5c1.7-2.7,2.5-10.3,2.5-22.6v-11.3c0-12.7-0.8-20.4-2.5-23
			c-1.7-2.6-5.2-3.9-10.4-4v-2.3c3.1-0.6,6-1.1,8.8-1.4c2.8-0.3,5.6-0.4,8.3-0.4c1.1-0.8,2.2-1.6,3.5-2.3
			C484.1,220.6,485.4,219.9,486.7,219.1"/>
		<path class="st1" d="M549.8,219l0.9,0.5c-0.3,4.8-0.5,9.5-0.6,14.1c-0.1,4.6-0.2,9.1-0.2,13.5v19.2c0,12.3,0.8,19.8,2.5,22.6
			c1.7,2.7,5.1,4.3,10.1,4.6v2.3c-2.5-0.2-5.3-0.4-8.4-0.8c-3.1-0.4-6.7-0.9-10.8-1.5c-4.3,0.7-8,1.2-10.9,1.5c-3,0.3-5.6,0.6-8,0.7
			v-2.4c5-0.3,8.4-1.7,10-4.5c1.7-2.7,2.5-10.2,2.5-22.5v-13.1c0-11.9-0.8-19.1-2.5-21.6c-1.6-2.5-5-3.8-10.1-3.9v-2.3
			c3.1-0.5,6-0.8,8.9-1.1c2.9-0.3,5.8-0.5,8.6-0.7c1.6-1,3.6-2.2,6.2-3.7C548.8,219.5,549.4,219.2,549.8,219"/>
		<path class="st1" d="M630.6,250v17.7c0,8.6,0.6,14.2,1.8,16.8c1.2,2.7,3.3,4,6.4,4c0.9,0,1.8-0.1,2.6-0.4c0.8-0.3,1.6-0.7,2.5-1.4
			l1.5,2.1c-3,2.8-5.8,4.8-8.5,6c-2.6,1.3-5.2,1.9-7.8,1.9c-3.2,0-5.6-1.2-7.4-3.6c-1.8-2.4-2.8-5.8-3-10.4
			c-2.9,4.6-6.5,8.1-11.1,10.6c-4.5,2.4-9.6,3.7-15.2,3.7c-6.1,0-10.9-1.5-14.3-4.4c-3.4-2.9-5.1-7-5.1-12.2c0-9.5,9-16.7,27.1-21.6
			c2.7-0.7,4.7-1.3,6.1-1.7c5.2-1.5,8.4-2.9,9.7-4.4c1.3-1.5,1.9-4.1,1.9-7.8c0-7.8-1.1-13.4-3.2-16.7c-2.2-3.3-5.7-4.9-10.7-4.9
			c-3.7,0-6.7,1.1-9,3.3c-2.3,2.2-3.4,5-3.4,8.6c0,1.3,0.1,2.6,0.4,3.9c0.3,1.3,0.6,2.6,1.2,3.9c-1.2,0.6-2.3,1-3.3,1.2
			c-1,0.3-2,0.4-2.9,0.4c-2.2,0-4-0.7-5.4-2c-1.4-1.3-2.1-3-2.1-5c0-5.1,2.5-9.4,7.5-12.7c5-3.3,11.4-5,19.1-5
			c8.5,0,14.7,2.4,18.7,7.2C628.7,232,630.6,239.6,630.6,250 M617.9,257.8c-2.9,1-6.9,2.2-12,3.6c-13.1,3.5-19.6,9-19.6,16.3
			c0,4.1,1.2,7.4,3.5,9.8c2.4,2.4,5.6,3.6,9.7,3.6c5.7,0,10.1-1.9,13.4-5.6c3.3-3.8,4.9-9,4.9-15.6V257.8z"/>
		<path class="st1" d="M675.3,175.5l0.8,0.5c-0.3,4.7-0.5,9.4-0.6,14c-0.1,4.6-0.2,9.1-0.2,13.5v64.1c0,11.5,0.9,18.6,2.6,21.3
			c1.7,2.7,5.1,4.1,10.2,4.3l-0.1,2.4c-2,0-4.3-0.2-6.9-0.5c-2.6-0.3-6.6-0.9-12.2-1.8c-3.7,0.6-7.2,1.2-10.4,1.5
			c-3.2,0.4-6.2,0.6-8.9,0.7v-2.3c5.1-0.2,8.6-1.7,10.3-4.5c1.7-2.8,2.6-10.8,2.6-24.1v-53.5c0-12.8-0.9-20.4-2.6-23
			c-1.7-2.6-5.2-3.9-10.4-4v-2.3c3.2-0.5,6.2-0.8,9.2-1.1c2.9-0.3,5.8-0.5,8.7-0.7c1.3-0.8,2.6-1.6,3.8-2.3
			C672.5,177,673.9,176.3,675.3,175.5"/>
		<path class="st1" d="M209.4,169.6c0.1-0.6,0.3-0.9,0.6-0.9c0.3,0,0.5,0.2,1,1.1l9.8,20.2l9.8-20.5c0.3-0.6,0.5-0.9,0.8-0.9
			c0.3,0,0.5,0.4,0.6,1.1l3.3,22.2c0.3,2.3,0.7,3.3,1.8,3.6c1,0.3,1.8,0.4,2.2,0.4c0.3,0,0.6,0,0.6,0.2c0,0.3-0.4,0.4-0.9,0.4
			c-0.9,0-5.8-0.1-7.3-0.2c-0.8-0.1-1-0.2-1-0.4l0.4-0.4c0.2-0.1,0.3-0.5,0.2-1.5l-2.2-15.8h-0.1l-7.8,16.3c-0.8,1.7-1,2-1.3,2
			c-0.3,0-0.7-0.7-1.3-1.8c-0.9-1.6-3.7-7.1-4.1-8.1c-0.3-0.8-2.5-5.3-3.7-8h-0.1l-1.9,14.3c-0.1,0.6-0.1,1.1-0.1,1.7
			c0,0.7,0.5,1,1.1,1.1c0.6,0.1,1.1,0.2,1.5,0.2l0.5,0.2c0,0.3-0.3,0.4-0.9,0.4c-1.5,0-3.1-0.1-3.8-0.1c-0.7,0-2.4,0.1-3.6,0.1
			c-0.4,0-0.7-0.1-0.7-0.4c0-0.2,0.2-0.2,0.6-0.2c0.3,0,0.5,0,1.1-0.1c1-0.2,1.3-1.6,1.5-2.8L209.4,169.6z"/>
		<path class="st1" d="M247.3,187.2l-0.3,0.3l-1.9,5.1c-0.4,0.9-0.5,1.8-0.5,2.2c0,0.6,0.3,1.1,1.4,1.1h0.5c0.4,0,0.5,0.1,0.5,0.3
			c0,0.3-0.2,0.4-0.6,0.4c-1.1,0-2.7-0.1-3.8-0.1c-0.4,0-2.4,0.1-4.2,0.1c-0.5,0-0.7-0.1-0.7-0.4l0.4-0.3c0.3,0,0.8,0,1.1-0.1
			c1.7-0.2,2.3-1.4,3.1-3.2l9-22.5c0.4-1,0.6-1.4,1-1.4c0.3,0,0.5,0.3,0.9,1.2c0.9,2,6.6,16.6,8.9,22c1.4,3.2,2.4,3.7,3.2,3.9
			c0.5,0.1,1.1,0.1,1.5,0.1l0.5,0.3c0,0.3-0.3,0.4-1.7,0.4c-1.3,0-3.9,0-6.8-0.1c-0.6,0-1.1,0-1.1-0.3c0-0.2,0.1-0.3,0.5-0.3
			c0.2-0.1,0.5-0.4,0.3-0.8l-2.9-7.6l-0.4-0.3H247.3z M254.6,185.4l0.2-0.2l-3.2-8.9l-0.2-0.3l-0.2,0.3l-3.3,8.8l0.1,0.3H254.6z"/>
		<path class="st1" d="M289.3,180.8l0.2-0.3v-0.8c0-5.4,0-6.4-0.1-7.6c-0.1-1.2-0.4-1.8-1.5-2c-0.3-0.1-0.9-0.1-1.4-0.1
			c-0.4,0-0.6-0.1-0.6-0.3c0-0.3,0.3-0.3,0.7-0.3c1.9,0,4.2,0.1,5.2,0.1c0.9,0,3.1-0.1,4.5-0.1c0.5,0,0.8,0.1,0.8,0.3
			c0,0.3-0.2,0.3-0.7,0.3c-0.3,0-0.6,0-1,0.1c-1,0.2-1.3,0.8-1.3,2c-0.1,1.2-0.1,2.2-0.1,7.6v6.3c0,3.3,0,6.1,0.2,7.7
			c0.1,1,0.3,1.8,1.4,1.9c0.5,0.1,1.3,0.1,1.8,0.1c0.4,0,0.6,0.1,0.6,0.3c0,0.3-0.3,0.4-0.7,0.4c-2.3,0-4.6-0.1-5.6-0.1
			c-0.8,0-3.1,0.1-4.5,0.1c-0.5,0-0.8-0.1-0.8-0.4c0-0.2,0.1-0.3,0.6-0.3c0.5,0,1-0.1,1.3-0.1c0.7-0.1,0.9-0.9,1-2
			c0.2-1.5,0.2-4.3,0.2-7.6V183l-0.2-0.2h-13.7l-0.2,0.2v3.2c0,3.3,0,6.1,0.2,7.7c0.1,1,0.3,1.8,1.4,1.9c0.5,0.1,1.3,0.1,1.8,0.1
			c0.4,0,0.6,0.1,0.6,0.3c0,0.3-0.3,0.4-0.7,0.4c-2.3,0-4.6-0.1-5.6-0.1c-0.8,0-3.1,0.1-4.5,0.1c-0.5,0-0.7-0.1-0.7-0.4
			c0-0.2,0.1-0.3,0.6-0.3c0.5,0,1-0.1,1.3-0.1c0.7-0.1,0.9-0.9,1-2c0.2-1.5,0.2-4.3,0.2-7.6v-6.3c0-5.4,0-6.4-0.1-7.6
			c-0.1-1.2-0.4-1.8-1.5-2c-0.3-0.1-0.9-0.1-1.4-0.1c-0.4,0-0.6-0.1-0.6-0.3c0-0.3,0.3-0.3,0.8-0.3c1.9,0,4.2,0.1,5.2,0.1
			c0.9,0,3.1-0.1,4.5-0.1c0.5,0,0.8,0.1,0.8,0.3c0,0.3-0.2,0.3-0.6,0.3c-0.3,0-0.6,0-1,0.1c-1,0.2-1.3,0.8-1.3,2
			c-0.1,1.2-0.1,2.2-0.1,7.6v0.8l0.2,0.3H289.3z"/>
		<path class="st1" d="M307.2,187.2l-0.3,0.3l-1.9,5.1c-0.4,0.9-0.5,1.8-0.5,2.2c0,0.6,0.3,1.1,1.4,1.1h0.5c0.4,0,0.5,0.1,0.5,0.3
			c0,0.3-0.2,0.4-0.6,0.4c-1.1,0-2.7-0.1-3.8-0.1c-0.4,0-2.4,0.1-4.2,0.1c-0.5,0-0.7-0.1-0.7-0.4l0.4-0.3c0.3,0,0.8,0,1.1-0.1
			c1.6-0.2,2.3-1.4,3.1-3.2l9-22.5c0.4-1,0.6-1.4,1-1.4c0.3,0,0.5,0.3,0.9,1.2c0.9,2,6.6,16.6,8.9,22c1.4,3.2,2.4,3.7,3.2,3.9
			c0.5,0.1,1.1,0.1,1.5,0.1l0.5,0.3c0,0.3-0.3,0.4-1.7,0.4c-1.3,0-3.9,0-6.8-0.1c-0.6,0-1.1,0-1.1-0.3c0-0.2,0.1-0.3,0.5-0.3
			c0.2-0.1,0.5-0.4,0.3-0.8l-2.9-7.6l-0.4-0.3H307.2z M314.6,185.4l0.2-0.2l-3.2-8.9l-0.2-0.3l-0.2,0.3l-3.3,8.8l0.1,0.3H314.6z"/>
		<path class="st1" d="M352.7,194.1c0,1,0,1-0.5,1.3c-2.3,1.2-5.9,1.6-8.6,1.6c-8.8,0-16.6-4.2-16.6-14c0-5.7,3-9.7,6.2-11.7
			c3.4-2.1,6.6-2.3,9.6-2.3c2.5,0,5.6,0.4,6.3,0.6c0.8,0.1,2,0.4,2.8,0.4c0.4,0,0.5,0.2,0.5,0.4c0,0.4-0.3,1.4-0.3,5.9
			c0,0.6-0.1,0.7-0.4,0.7l-0.4-0.5c-0.1-0.8-0.3-2-1.2-3c-1.1-1.1-3.9-2.8-8-2.8c-2,0-4.6,0.1-7.1,2.2c-2,1.7-3.3,4.4-3.3,8.8
			c0,7.7,4.9,13.5,12.5,13.5c0.9,0,2.2,0,3-0.4c0.5-0.3,0.7-0.7,0.7-1.3v-3.4c0-1.8,0-3.2,0-4.2c0-1.2-0.4-1.8-1.5-2
			c-0.3-0.1-0.9-0.1-1.4-0.1c-0.3,0-0.5-0.1-0.5-0.3c0-0.3,0.3-0.4,0.8-0.4c1.9,0,4.1,0.1,5.2,0.1c1.1,0,3-0.1,4.2-0.1
			c0.5,0,0.7,0.1,0.7,0.4l-0.5,0.3c-0.3,0-0.5,0-1,0.1c-1,0.2-1.3,0.8-1.4,2c0,1.1,0,2.5,0,4.3V194.1z"/>
		<path class="st1" d="M361.1,179.8c0-5.4,0-6.4-0.1-7.6c-0.1-1.2-0.4-1.8-1.5-2c-0.3-0.1-0.9-0.1-1.4-0.1c-0.4,0-0.6-0.1-0.6-0.3
			c0-0.3,0.3-0.3,0.8-0.3c1.9,0,4.2,0.1,5.2,0.1c0.9,0,3.1-0.1,4.4-0.1c0.5,0,0.8,0.1,0.8,0.3c0,0.3-0.2,0.3-0.6,0.3
			c-0.4,0-0.6,0-1,0.1c-1,0.2-1.3,0.8-1.3,2c-0.1,1.2-0.1,2.2-0.1,7.6v5c0,5.2,1,7.4,2.8,8.8c1.6,1.3,3.3,1.5,4.5,1.5
			c1.6,0,3.5-0.5,4.9-1.9c2-2,2.1-5.2,2.1-8.9v-4.5c0-5.4,0-6.4-0.1-7.6c-0.1-1.2-0.4-1.8-1.5-2c-0.3-0.1-0.9-0.1-1.3-0.1
			c-0.4,0-0.6-0.1-0.6-0.3c0-0.3,0.3-0.3,0.8-0.3c1.8,0,4.1,0.1,4.1,0.1c0.4,0,2.7-0.1,4.1-0.1c0.5,0,0.8,0.1,0.8,0.3
			c0,0.3-0.2,0.3-0.6,0.3c-0.4,0-0.6,0-1,0.1c-1,0.2-1.3,0.8-1.3,2c-0.1,1.2-0.1,2.2-0.1,7.6v3.8c0,4-0.4,8.2-3.4,10.8
			c-2.6,2.2-5.1,2.6-7.5,2.6c-1.9,0-5.3-0.1-8-2.5c-1.8-1.6-3.2-4.3-3.2-9.5V179.8z"/>
		<path class="st1" d="M395.2,191.6c0.1,2.8,0.5,3.7,1.3,4c0.6,0.2,1.3,0.3,1.9,0.3c0.4,0,0.6,0.1,0.6,0.3c0,0.3-0.3,0.4-0.8,0.4
			c-2.3,0-3.8-0.1-4.4-0.1c-0.3,0-2,0.1-3.9,0.1c-0.5,0-0.8,0-0.8-0.4c0-0.2,0.2-0.3,0.6-0.3c0.5,0,1.1,0,1.6-0.2
			c0.9-0.3,1.1-1.3,1.1-4.4l0.3-21.2c0-0.7,0.1-1.2,0.5-1.2c0.4,0,0.7,0.5,1.3,1.1c0.4,0.5,5.9,6.3,11.1,11.5
			c2.4,2.4,7.3,7.6,7.9,8.2h0.2l-0.4-16.1c0-2.2-0.4-2.9-1.2-3.2c-0.5-0.2-1.4-0.2-1.9-0.2c-0.4,0-0.6-0.1-0.6-0.3
			c0-0.3,0.4-0.3,0.9-0.3c1.9,0,3.6,0.1,4.3,0.1c0.4,0,1.8-0.1,3.5-0.1c0.5,0,0.8,0,0.8,0.3c0,0.2-0.2,0.3-0.6,0.3
			c-0.4,0-0.6,0-1.1,0.1c-1,0.3-1.3,1-1.3,3l-0.4,22.6c0,0.8-0.1,1.1-0.5,1.1c-0.4,0-0.8-0.4-1.2-0.8c-2.3-2.1-6.9-6.8-10.6-10.5
			c-3.9-3.9-7.9-8.4-8.5-9h-0.1L395.2,191.6z"/>
		<path class="st1" d="M722.7,175.5l0.8,0.5c-0.3,4.7-0.5,9.4-0.6,14c-0.1,4.6-0.2,9.1-0.2,13.5v64.1c0,11.5,0.9,18.6,2.6,21.3
			c1.7,2.7,5.1,4.1,10.2,4.3l-0.1,2.4c-2,0-4.3-0.2-6.9-0.5c-2.6-0.3-6.6-0.9-12.2-1.8c-3.7,0.6-7.2,1.2-10.4,1.5
			c-3.2,0.4-6.2,0.6-8.9,0.7v-2.3c5.1-0.2,8.6-1.7,10.3-4.5c1.7-2.8,2.6-10.8,2.6-24.1v-53.5c0-12.8-0.9-20.4-2.6-23
			c-1.7-2.6-5.2-3.9-10.4-4v-2.3c3.2-0.5,6.2-0.8,9.2-1.1c2.9-0.3,5.8-0.5,8.7-0.7c1.3-0.8,2.6-1.6,3.8-2.3
			C719.9,177,721.2,176.3,722.7,175.5"/>
		<g>
			<path class="st1" d="M796.1,229.2c4,3.8,6.3,8.8,6.3,15.2c0,1.1-1.4,3.1-3.4,3.1c-2,0-32.8,0-41.1-0.2c-0.5,0-1.3,0.9-1.4,1.4
				c-0.5,1.4-0.9,4.5-0.9,6.3c0,7,2.9,15.3,6.9,20.6c4,5.4,11.6,9.9,20.2,9.9c7.9,0,13.4-2,16.4-6.5c0.7-1.1,1.6-2.2,2.3-2.2
				c1.1,0,1.4,1.3,1.4,2.2c0,1.4-0.7,3.4-1.3,4.3c-6.3,9.2-15.9,13.5-26.2,13.5c-19.5,0-32.5-14.8-32.5-35.9
				c0-14.4,7.6-28.9,21.7-35.4c4.7-2.2,10.6-3.2,13.7-3.2C784.5,222.3,791.6,224.6,796.1,229.2z M758.2,240.3c-0.4,0.9,0.4,2,0.7,2
				c4.7,0.2,14.3,0.2,23.3,0c4.3,0,6.1-0.9,6.1-4.5c0-5.1-5.4-10.8-11.9-10.8C768.3,227,761.4,232,758.2,240.3z"/>
		</g>
		<g>
			<path class="st2" d="M25.1,368.4c-2.1-0.8-3.8-1.9-5-3.1l1.1-1.7c1.1,1.2,2.7,2.2,4.6,2.9c1.9,0.8,3.9,1.1,6,1.1
				c3.1,0,5.4-0.6,6.9-1.7c1.6-1.2,2.3-2.7,2.3-4.6c0-1.4-0.4-2.6-1.2-3.4c-0.8-0.9-1.9-1.5-3.1-2c-1.2-0.5-2.9-0.9-5-1.4
				c-2.4-0.6-4.3-1.1-5.7-1.7c-1.4-0.6-2.6-1.4-3.6-2.6c-1-1.1-1.5-2.7-1.5-4.6c0-1.6,0.4-3,1.2-4.3c0.8-1.3,2.1-2.3,3.8-3.1
				c1.7-0.8,3.8-1.1,6.4-1.1c1.8,0,3.5,0.3,5.2,0.8c1.7,0.5,3.2,1.2,4.5,2.1l-0.9,1.9c-1.3-0.9-2.7-1.6-4.3-2
				c-1.5-0.5-3.1-0.7-4.6-0.7c-3,0-5.2,0.6-6.8,1.8c-1.5,1.2-2.3,2.7-2.3,4.6c0,1.4,0.4,2.6,1.2,3.4c0.8,0.9,1.9,1.5,3.1,2
				c1.2,0.5,2.9,1,5,1.5c2.4,0.6,4.2,1.1,5.7,1.7c1.4,0.6,2.6,1.4,3.6,2.5c1,1.1,1.5,2.6,1.5,4.5c0,1.6-0.4,3-1.3,4.3
				c-0.8,1.3-2.1,2.3-3.9,3.1c-1.7,0.8-3.9,1.1-6.4,1.1C29.5,369.6,27.3,369.2,25.1,368.4z"/>
			<path class="st2" d="M73.6,367.2v2.1H51.4v-32.2h21.5v2.1H53.7V352h17.1v2.1H53.7v13.2H73.6z"/>
			<path class="st2" d="M87.2,367.5c-2.5-1.4-4.5-3.4-6-5.8c-1.5-2.5-2.2-5.3-2.2-8.4c0-3.1,0.7-5.9,2.2-8.4c1.5-2.5,3.4-4.4,6-5.8
				c2.5-1.4,5.4-2.1,8.5-2.1c2.3,0,4.5,0.4,6.4,1.1c2,0.8,3.6,1.9,5,3.3l-1.5,1.5c-2.6-2.5-5.9-3.8-9.9-3.8c-2.7,0-5.1,0.6-7.4,1.8
				c-2.2,1.2-3.9,2.9-5.2,5.1c-1.3,2.2-1.9,4.6-1.9,7.2c0,2.7,0.6,5.1,1.9,7.2c1.3,2.2,3,3.9,5.2,5.1c2.2,1.2,4.7,1.8,7.4,1.8
				c4,0,7.3-1.3,9.9-3.9l1.5,1.5c-1.4,1.5-3.1,2.6-5,3.4c-2,0.8-4.1,1.1-6.4,1.1C92.6,369.6,89.8,368.9,87.2,367.5z"/>
			<path class="st2" d="M121.2,339.3h-11.6v-2.1h25.5v2.1h-11.6v30.1h-2.3V339.3z"/>
			<path class="st2" d="M146,367.5c-2.5-1.4-4.5-3.4-6-5.9s-2.2-5.3-2.2-8.3s0.7-5.8,2.2-8.3c1.5-2.5,3.5-4.4,6-5.9
				c2.5-1.4,5.4-2.1,8.5-2.1c3.2,0,6,0.7,8.5,2.1c2.5,1.4,4.5,3.4,6,5.8c1.5,2.5,2.2,5.3,2.2,8.4c0,3.1-0.7,5.9-2.2,8.4
				c-1.5,2.5-3.5,4.4-6,5.8c-2.5,1.4-5.4,2.1-8.5,2.1C151.4,369.6,148.6,368.9,146,367.5z M161.9,365.6c2.2-1.2,3.9-2.9,5.1-5.1
				c1.3-2.2,1.9-4.6,1.9-7.2c0-2.7-0.6-5.1-1.9-7.2c-1.3-2.2-3-3.9-5.1-5.1c-2.2-1.2-4.6-1.8-7.3-1.8c-2.7,0-5.1,0.6-7.3,1.8
				c-2.2,1.2-3.9,2.9-5.2,5.1c-1.3,2.2-1.9,4.6-1.9,7.2c0,2.7,0.6,5.1,1.9,7.2c1.3,2.2,3,3.9,5.2,5.1c2.2,1.2,4.6,1.8,7.3,1.8
				C157.3,367.4,159.7,366.8,161.9,365.6z"/>
			<path class="st2" d="M201.8,369.4l-7.7-10.8c-1.1,0.2-2.2,0.2-3.1,0.2h-9.2v10.5h-2.3v-32.2H191c4,0,7.2,1,9.5,2.9
				c2.3,1.9,3.4,4.6,3.4,8c0,2.5-0.7,4.7-2,6.4c-1.3,1.7-3.2,2.9-5.6,3.7l8,11.3H201.8z M191,356.8c3.4,0,6.1-0.8,7.9-2.3
				c1.8-1.5,2.7-3.7,2.7-6.5c0-2.8-0.9-4.9-2.7-6.5c-1.8-1.5-4.4-2.3-7.9-2.3h-9.2v17.5H191z"/>
			<path class="st2" d="M209.8,356h11.8v2.1h-11.8V356z"/>
			<path class="st2" d="M235.1,337.2v32.2h-2.3v-30.1h-7.9v-2.1H235.1z"/>
			<path class="st2" d="M264.7,367.2v2.1h-22.1v-1.7l13.6-13.5c1.8-1.8,3-3.3,3.6-4.6c0.6-1.3,0.9-2.6,0.9-3.9c0-2.1-0.7-3.7-2.1-4.8
				c-1.4-1.2-3.4-1.7-6-1.7c-2,0-3.8,0.3-5.3,0.9c-1.5,0.6-2.8,1.5-3.9,2.8l-1.7-1.5c1.2-1.4,2.8-2.5,4.7-3.3c1.9-0.8,4-1.1,6.4-1.1
				c3.2,0,5.7,0.8,7.5,2.3c1.9,1.5,2.8,3.6,2.8,6.2c0,1.7-0.4,3.2-1.1,4.7c-0.7,1.5-2.1,3.2-4.1,5.2L246,367.2H264.7z"/>
			<path class="st2" d="M291.4,355.5c1.2,1.4,1.8,3.1,1.8,5.1c0,2.8-1.1,5-3.3,6.6c-2.2,1.6-5.2,2.4-9,2.4c-3.8,0-6.7-0.8-8.9-2.4
				c-2.2-1.6-3.2-3.8-3.2-6.6c0-2,0.6-3.7,1.8-5.1c1.2-1.4,2.9-2.3,5.1-2.9c-1.8-0.6-3.2-1.5-4.2-2.8c-1-1.2-1.5-2.7-1.5-4.5
				c0-2.6,1-4.6,3-6.1c2-1.5,4.7-2.2,8-2.2c3.3,0,6,0.8,8,2.3c2,1.5,3,3.5,3,6.1c0,1.7-0.5,3.2-1.5,4.5c-1,1.2-2.4,2.2-4.3,2.8
				C288.5,353.1,290.2,354.1,291.4,355.5z M288.3,365.7c1.7-1.3,2.6-3,2.6-5.1c0-2.1-0.9-3.8-2.6-5.1c-1.7-1.3-4.2-1.9-7.3-1.9
				c-3.1,0-5.5,0.6-7.2,1.9c-1.7,1.3-2.6,3-2.6,5.1c0,2.2,0.9,3.9,2.6,5.1c1.7,1.3,4.1,1.9,7.2,1.9
				C284.1,367.6,286.5,366.9,288.3,365.7z M274.7,349.9c1.5,1.1,3.6,1.7,6.4,1.7c2.7,0,4.9-0.6,6.4-1.7c1.5-1.1,2.3-2.6,2.3-4.6
				c0-2-0.8-3.5-2.4-4.7c-1.6-1.1-3.7-1.7-6.4-1.7c-2.7,0-4.8,0.6-6.3,1.7c-1.5,1.1-2.3,2.7-2.3,4.6
				C272.4,347.3,273.1,348.8,274.7,349.9z"/>
			<path class="st2" d="M301.6,366.2c0.4,0.4,0.6,0.8,0.6,1.4c0,0.3,0,0.6-0.1,1c-0.1,0.3-0.2,0.7-0.3,1.1l-1.8,6.3h-1.7l1.5-6.5
				c-0.5-0.1-0.8-0.3-1.1-0.7c-0.3-0.3-0.4-0.7-0.4-1.2c0-0.6,0.2-1,0.6-1.4c0.4-0.4,0.8-0.6,1.4-0.6S301.2,365.8,301.6,366.2z"/>
			<path class="st2" d="M344.4,367.2v2.1h-22.2v-32.2h21.5v2.1h-19.2V352h17.1v2.1h-17.1v13.2H344.4z"/>
			<path class="st2" d="M373.1,369.4L362,354.5l-11,14.9h-2.8l12.4-16.6l-11.5-15.6h2.8l10.2,13.8l10.2-13.8h2.6l-11.5,15.5
				l12.4,16.6H373.1z"/>
			<path class="st2" d="M403.5,340.1c2.3,1.9,3.4,4.6,3.4,8c0,3.4-1.1,6-3.4,7.9s-5.5,2.9-9.5,2.9h-9.2v10.5h-2.3v-32.2H394
				C398,337.2,401.2,338.1,403.5,340.1z M401.8,354.5c1.8-1.5,2.7-3.6,2.7-6.4c0-2.8-0.9-4.9-2.7-6.5c-1.8-1.5-4.4-2.3-7.9-2.3h-9.2
				v17.4h9.2C397.4,356.7,400,356,401.8,354.5z"/>
			<path class="st2" d="M437.7,369.4l-7.7-10.8c-1.1,0.2-2.2,0.2-3.1,0.2h-9.2v10.5h-2.3v-32.2h11.5c4,0,7.2,1,9.5,2.9
				c2.3,1.9,3.4,4.6,3.4,8c0,2.5-0.7,4.7-2,6.4c-1.3,1.7-3.2,2.9-5.6,3.7l8,11.3H437.7z M426.9,356.8c3.4,0,6.1-0.8,7.9-2.3
				c1.8-1.5,2.7-3.7,2.7-6.5c0-2.8-0.9-4.9-2.7-6.5s-4.4-2.3-7.9-2.3h-9.2v17.5H426.9z"/>
			<path class="st2" d="M470.6,367.2v2.1h-22.2v-32.2h21.5v2.1h-19.2V352h17.1v2.1h-17.1v13.2H470.6z"/>
			<path class="st2" d="M480.9,368.4c-2.1-0.8-3.8-1.9-5-3.1l1.1-1.7c1.1,1.2,2.7,2.2,4.6,2.9c1.9,0.8,3.9,1.1,6,1.1
				c3.1,0,5.4-0.6,6.9-1.7c1.6-1.2,2.3-2.7,2.3-4.6c0-1.4-0.4-2.6-1.2-3.4c-0.8-0.9-1.9-1.5-3.1-2c-1.2-0.5-2.9-0.9-5-1.4
				c-2.4-0.6-4.3-1.1-5.7-1.7c-1.4-0.6-2.6-1.4-3.6-2.6c-1-1.1-1.5-2.7-1.5-4.6c0-1.6,0.4-3,1.2-4.3c0.8-1.3,2.1-2.3,3.8-3.1
				c1.7-0.8,3.8-1.1,6.4-1.1c1.8,0,3.5,0.3,5.2,0.8c1.7,0.5,3.2,1.2,4.5,2.1l-0.9,1.9c-1.3-0.9-2.7-1.6-4.3-2
				c-1.5-0.5-3.1-0.7-4.6-0.7c-3,0-5.2,0.6-6.8,1.8c-1.5,1.2-2.3,2.7-2.3,4.6c0,1.4,0.4,2.6,1.2,3.4c0.8,0.9,1.9,1.5,3.1,2
				c1.2,0.5,2.9,1,5,1.5c2.4,0.6,4.2,1.1,5.7,1.7c1.4,0.6,2.6,1.4,3.6,2.5s1.5,2.6,1.5,4.5c0,1.6-0.4,3-1.3,4.3
				c-0.8,1.3-2.1,2.3-3.9,3.1c-1.7,0.8-3.9,1.1-6.4,1.1C485.2,369.6,483,369.2,480.9,368.4z"/>
			<path class="st2" d="M508.9,368.4c-2.1-0.8-3.8-1.9-5-3.1l1.1-1.7c1.1,1.2,2.7,2.2,4.6,2.9c1.9,0.8,3.9,1.1,6,1.1
				c3.1,0,5.4-0.6,6.9-1.7c1.6-1.2,2.3-2.7,2.3-4.6c0-1.4-0.4-2.6-1.2-3.4c-0.8-0.9-1.9-1.5-3.1-2c-1.2-0.5-2.9-0.9-5-1.4
				c-2.4-0.6-4.3-1.1-5.7-1.7c-1.4-0.6-2.6-1.4-3.6-2.6c-1-1.1-1.5-2.7-1.5-4.6c0-1.6,0.4-3,1.2-4.3c0.8-1.3,2.1-2.3,3.8-3.1
				c1.7-0.8,3.8-1.1,6.4-1.1c1.8,0,3.5,0.3,5.2,0.8c1.7,0.5,3.2,1.2,4.5,2.1l-0.9,1.9c-1.3-0.9-2.7-1.6-4.3-2
				c-1.5-0.5-3.1-0.7-4.6-0.7c-3,0-5.2,0.6-6.8,1.8c-1.5,1.2-2.3,2.7-2.3,4.6c0,1.4,0.4,2.6,1.2,3.4c0.8,0.9,1.9,1.5,3.1,2
				c1.2,0.5,2.9,1,5,1.5c2.4,0.6,4.2,1.1,5.7,1.7c1.4,0.6,2.6,1.4,3.6,2.5c1,1.1,1.5,2.6,1.5,4.5c0,1.6-0.4,3-1.3,4.3
				c-0.8,1.3-2.1,2.3-3.9,3.1c-1.7,0.8-3.9,1.1-6.4,1.1C513.2,369.6,511,369.2,508.9,368.4z"/>
			<path class="st2" d="M578.2,337.2l-10.9,32.2h-2.5l-10-28.9l-10,28.9h-2.5l-10.9-32.2h2.5l9.8,29l10.1-29h2.3l10,29l9.9-29H578.2z
				"/>
			<path class="st2" d="M605.5,360.3h-18.7l-4.1,9.1h-2.5l14.8-32.2h2.3l14.8,32.2h-2.5L605.5,360.3z M604.6,358.3l-8.5-18.6
				l-8.4,18.6H604.6z"/>
			<path class="st2" d="M627.9,358.3v11.1h-2.3v-11.1l-13-21.1h2.6l11.6,18.9l11.6-18.9h2.4L627.9,358.3z"/>
			<path class="st2" d="M647.1,366.2c0.4,0.4,0.6,0.8,0.6,1.4c0,0.3,0,0.6-0.1,1c-0.1,0.3-0.2,0.7-0.3,1.1l-1.8,6.3h-1.7l1.5-6.5
				c-0.5-0.1-0.8-0.3-1.1-0.7c-0.3-0.3-0.4-0.7-0.4-1.2c0-0.6,0.2-1,0.6-1.4c0.4-0.4,0.8-0.6,1.4-0.6S646.7,365.8,647.1,366.2z"/>
			<path class="st2" d="M693.9,337.2v32.2H692l-21.9-27.9v27.9h-2.3v-32.2h2l21.9,27.9v-27.9H693.9z"/>
			<path class="st2" d="M710.2,367.5c-2.5-1.4-4.5-3.4-6-5.9c-1.5-2.5-2.2-5.3-2.2-8.3s0.7-5.8,2.2-8.3c1.5-2.5,3.5-4.4,6-5.9
				c2.5-1.4,5.4-2.1,8.5-2.1s6,0.7,8.5,2.1c2.5,1.4,4.5,3.4,6,5.8c1.5,2.5,2.2,5.3,2.2,8.4c0,3.1-0.7,5.9-2.2,8.4
				c-1.5,2.5-3.5,4.4-6,5.8c-2.5,1.4-5.4,2.1-8.5,2.1S712.8,368.9,710.2,367.5z M726.1,365.6c2.2-1.2,3.9-2.9,5.1-5.1
				c1.3-2.2,1.9-4.6,1.9-7.2c0-2.7-0.6-5.1-1.9-7.2c-1.3-2.2-3-3.9-5.1-5.1c-2.2-1.2-4.6-1.8-7.3-1.8c-2.7,0-5.1,0.6-7.3,1.8
				c-2.2,1.2-3.9,2.9-5.2,5.1c-1.3,2.2-1.9,4.6-1.9,7.2c0,2.7,0.6,5.1,1.9,7.2c1.3,2.2,3,3.9,5.2,5.1c2.2,1.2,4.6,1.8,7.3,1.8
				C721.5,367.4,723.9,366.8,726.1,365.6z"/>
			<path class="st2" d="M743.7,337.2h2.3v32.2h-2.3V337.2z"/>
			<path class="st2" d="M757.2,337.2h12.7c3.3,0,6.3,0.7,8.9,2.1c2.6,1.4,4.6,3.3,6,5.7c1.4,2.4,2.2,5.2,2.2,8.3
				c0,3.1-0.7,5.9-2.2,8.3c-1.4,2.4-3.5,4.3-6,5.7c-2.6,1.4-5.6,2.1-8.9,2.1h-12.7V337.2z M769.8,367.2c3,0,5.6-0.6,7.9-1.8
				c2.3-1.2,4-2.8,5.2-4.9c1.2-2.1,1.8-4.5,1.8-7.3c0-2.7-0.6-5.1-1.8-7.3c-1.2-2.1-3-3.8-5.2-4.9c-2.3-1.2-4.9-1.8-7.9-1.8h-10.2
				v27.9H769.8z"/>
			<path class="st2" d="M815.1,360.3h-18.7l-4.1,9.1h-2.5l14.8-32.2h2.3l14.8,32.2h-2.5L815.1,360.3z M814.2,358.3l-8.5-18.6
				l-8.4,18.6H814.2z"/>
		</g>
		<g>
			<path class="st2" d="M116.4,433l-7.7-10.8c-1.1,0.2-2.2,0.2-3.1,0.2h-9.2V433H94v-32.2h11.5c4,0,7.2,1,9.5,2.9
				c2.3,1.9,3.4,4.6,3.4,8c0,2.5-0.7,4.7-2,6.4c-1.3,1.7-3.2,2.9-5.6,3.7l8,11.3H116.4z M105.6,420.4c3.4,0,6.1-0.8,7.9-2.3
				c1.8-1.5,2.7-3.7,2.7-6.5c0-2.8-0.9-4.9-2.7-6.5c-1.8-1.5-4.4-2.3-7.9-2.3h-9.2v17.5H105.6z"/>
			<path class="st2" d="M149.3,430.9v2.1h-22.2v-32.2h21.5v2.1h-19.2v12.7h17.1v2.1h-17.1v13.2H149.3z"/>
			<path class="st2" d="M180.2,433l-7.7-10.8c-1.1,0.2-2.2,0.2-3.1,0.2h-9.2V433h-2.3v-32.2h11.5c4,0,7.2,1,9.5,2.9
				c2.3,1.9,3.4,4.6,3.4,8c0,2.5-0.7,4.7-2,6.4c-1.3,1.7-3.2,2.9-5.6,3.7l8,11.3H180.2z M169.4,420.4c3.4,0,6.1-0.8,7.9-2.3
				c1.8-1.5,2.7-3.7,2.7-6.5c0-2.8-0.9-4.9-2.7-6.5c-1.8-1.5-4.4-2.3-7.9-2.3h-9.2v17.5H169.4z"/>
			<path class="st2" d="M210.9,424h-18.7l-4.1,9.1h-2.5l14.8-32.2h2.3l14.8,32.2H215L210.9,424z M210,422l-8.5-18.6l-8.4,18.6H210z"
				/>
			<path class="st2" d="M261.4,400.9V433h-1.9l-21.9-27.9V433h-2.3v-32.2h2l21.9,27.9v-27.9H261.4z"/>
			<path class="st2" d="M277.7,431.1c-2.5-1.4-4.5-3.4-6-5.9c-1.5-2.5-2.2-5.3-2.2-8.3c0-3.1,0.7-5.8,2.2-8.3c1.5-2.5,3.5-4.4,6-5.9
				c2.5-1.4,5.4-2.1,8.5-2.1c3.2,0,6,0.7,8.5,2.1c2.5,1.4,4.5,3.4,6,5.8c1.5,2.5,2.2,5.3,2.2,8.4c0,3.1-0.7,5.9-2.2,8.4
				c-1.5,2.5-3.5,4.4-6,5.8c-2.5,1.4-5.4,2.1-8.5,2.1C283.1,433.3,280.2,432.5,277.7,431.1z M293.5,429.3c2.2-1.2,3.9-2.9,5.1-5.1
				c1.3-2.2,1.9-4.6,1.9-7.2c0-2.7-0.6-5.1-1.9-7.2c-1.3-2.2-3-3.9-5.1-5.1c-2.2-1.2-4.6-1.8-7.3-1.8c-2.7,0-5.1,0.6-7.3,1.8
				c-2.2,1.2-3.9,2.9-5.2,5.1c-1.3,2.2-1.9,4.6-1.9,7.2c0,2.7,0.6,5.1,1.9,7.2c1.3,2.2,3,3.9,5.2,5.1c2.2,1.2,4.6,1.8,7.3,1.8
				C288.9,431.1,291.4,430.5,293.5,429.3z"/>
			<path class="st2" d="M320.2,419.6H332v2.1h-11.8V419.6z"/>
			<path class="st2" d="M355.3,429.7c-2.3-2.4-3.4-5.8-3.4-10.3v-18.5h2.3v18.4c0,4,0.9,6.9,2.7,8.9c1.8,2,4.4,2.9,7.9,2.9
				c3.4,0,6-1,7.8-2.9c1.8-2,2.7-4.9,2.7-8.9v-18.4h2.3v18.5c0,4.5-1.1,8-3.4,10.3c-2.3,2.4-5.4,3.5-9.5,3.5
				C360.8,433.3,357.6,432.1,355.3,429.7z"/>
			<path class="st2" d="M409.7,403.7c2.3,1.9,3.4,4.6,3.4,8c0,3.4-1.1,6-3.4,7.9c-2.3,1.9-5.5,2.9-9.5,2.9H391V433h-2.3v-32.2h11.5
				C404.3,400.9,407.4,401.8,409.7,403.7z M408.1,418.1c1.8-1.5,2.7-3.6,2.7-6.4c0-2.8-0.9-4.9-2.7-6.5c-1.8-1.5-4.4-2.3-7.9-2.3H391
				v17.4h9.2C403.6,420.4,406.3,419.6,408.1,418.1z"/>
			<path class="st2" d="M443.9,433l-7.7-10.8c-1.1,0.2-2.2,0.2-3.1,0.2h-9.2V433h-2.3v-32.2h11.5c4,0,7.2,1,9.5,2.9
				c2.3,1.9,3.4,4.6,3.4,8c0,2.5-0.7,4.7-2,6.4c-1.3,1.7-3.2,2.9-5.6,3.7l8,11.3H443.9z M433.1,420.4c3.4,0,6.1-0.8,7.9-2.3
				c1.8-1.5,2.7-3.7,2.7-6.5c0-2.8-0.9-4.9-2.7-6.5s-4.4-2.3-7.9-2.3h-9.2v17.5H433.1z"/>
			<path class="st2" d="M476.8,430.9v2.1h-22.2v-32.2h21.5v2.1H457v12.7h17.1v2.1H457v13.2H476.8z"/>
			<path class="st2" d="M507.7,433l-7.7-10.8c-1.1,0.2-2.2,0.2-3.1,0.2h-9.2V433h-2.3v-32.2h11.5c4,0,7.2,1,9.5,2.9
				c2.3,1.9,3.4,4.6,3.4,8c0,2.5-0.7,4.7-2,6.4c-1.3,1.7-3.2,2.9-5.6,3.7l8,11.3H507.7z M496.9,420.4c3.4,0,6.1-0.8,7.9-2.3
				c1.8-1.5,2.7-3.7,2.7-6.5c0-2.8-0.9-4.9-2.7-6.5s-4.4-2.3-7.9-2.3h-9.2v17.5H496.9z"/>
			<path class="st2" d="M538.4,424h-18.7l-4.1,9.1h-2.5l14.8-32.2h2.3L545,433h-2.5L538.4,424z M537.5,422l-8.5-18.6l-8.4,18.6H537.5
				z"/>
			<path class="st2" d="M571.9,403.7c2.3,1.9,3.4,4.6,3.4,8c0,3.4-1.1,6-3.4,7.9c-2.3,1.9-5.5,2.9-9.5,2.9h-9.2V433h-2.3v-32.2h11.5
				C566.5,400.9,569.6,401.8,571.9,403.7z M570.3,418.1c1.8-1.5,2.7-3.6,2.7-6.4c0-2.8-0.9-4.9-2.7-6.5c-1.8-1.5-4.4-2.3-7.9-2.3
				h-9.2v17.4h9.2C565.8,420.4,568.5,419.6,570.3,418.1z"/>
			<path class="st2" d="M606.1,433l-7.7-10.8c-1.1,0.2-2.2,0.2-3.1,0.2h-9.2V433h-2.3v-32.2h11.5c4,0,7.2,1,9.5,2.9
				c2.3,1.9,3.4,4.6,3.4,8c0,2.5-0.7,4.7-2,6.4c-1.3,1.7-3.2,2.9-5.6,3.7l8,11.3H606.1z M595.3,420.4c3.4,0,6.1-0.8,7.9-2.3
				c1.8-1.5,2.7-3.7,2.7-6.5c0-2.8-0.9-4.9-2.7-6.5c-1.8-1.5-4.4-2.3-7.9-2.3h-9.2v17.5H595.3z"/>
			<path class="st2" d="M614.8,432c-1.5-0.8-2.7-1.9-3.7-3.4l1.4-1.6c0.9,1.3,1.9,2.3,3.1,3s2.5,1,4,1c2.1,0,3.7-0.6,4.8-1.9
				c1.1-1.2,1.6-3.1,1.6-5.7V403h-11.9v-2.1h14.2v22.7c0,3.2-0.7,5.6-2.2,7.3s-3.6,2.4-6.5,2.4C618,433.3,616.3,432.8,614.8,432z"/>
			<path class="st2" d="M657.8,430.9v2.1h-22.1v-1.7l13.6-13.5c1.8-1.8,3-3.3,3.6-4.6c0.6-1.3,0.9-2.6,0.9-3.9c0-2.1-0.7-3.7-2.1-4.8
				c-1.4-1.2-3.4-1.7-6-1.7c-2,0-3.8,0.3-5.3,0.9c-1.5,0.6-2.8,1.5-3.9,2.8l-1.7-1.5c1.2-1.4,2.8-2.5,4.7-3.3c1.9-0.8,4-1.1,6.4-1.1
				c3.2,0,5.7,0.8,7.5,2.3c1.9,1.5,2.8,3.6,2.8,6.2c0,1.7-0.4,3.2-1.1,4.7c-0.7,1.5-2.1,3.2-4.1,5.2l-11.9,11.8H657.8z"/>
			<path class="st2" d="M668.2,431.3c-1.9-1.3-3.4-3.2-4.5-5.7c-1.1-2.5-1.6-5.3-1.6-8.6c0-3.3,0.5-6.2,1.6-8.6
				c1.1-2.5,2.5-4.3,4.5-5.7c1.9-1.3,4.1-2,6.5-2c2.5,0,4.6,0.7,6.5,2c1.9,1.3,3.4,3.2,4.5,5.7c1.1,2.5,1.6,5.3,1.6,8.6
				c0,3.3-0.5,6.2-1.6,8.6c-1.1,2.5-2.5,4.3-4.5,5.7c-1.9,1.3-4.1,2-6.5,2C672.3,433.3,670.1,432.6,668.2,431.3z M680.1,429.4
				c1.5-1.1,2.7-2.7,3.6-4.9c0.9-2.1,1.3-4.7,1.3-7.6s-0.4-5.5-1.3-7.6c-0.9-2.1-2.1-3.8-3.6-4.9c-1.5-1.1-3.3-1.7-5.4-1.7
				s-3.8,0.6-5.4,1.7c-1.5,1.1-2.8,2.7-3.6,4.9c-0.9,2.1-1.3,4.7-1.3,7.6s0.4,5.5,1.3,7.6c0.9,2.1,2.1,3.8,3.6,4.9
				c1.5,1.1,3.3,1.7,5.4,1.7S678.6,430.5,680.1,429.4z"/>
			<path class="st2" d="M710.5,416.8c2.1,1.6,3.2,4,3.2,7c0,1.8-0.4,3.5-1.3,4.9c-0.8,1.4-2.1,2.6-3.8,3.4c-1.7,0.8-3.8,1.2-6.2,1.2
				c-2.3,0-4.5-0.4-6.5-1.2c-2-0.8-3.6-1.8-4.8-3.1l1.2-1.8c1,1.2,2.4,2.1,4.2,2.8c1.8,0.7,3.7,1.1,5.9,1.1c2.9,0,5.1-0.7,6.6-2
				c1.5-1.3,2.3-3.1,2.3-5.3c0-2.4-0.9-4.3-2.6-5.5c-1.8-1.3-4.7-1.9-8.9-1.9h-6.5l1.7-15.6H712v2.1h-15.1l-1.2,11.4h4.6
				C705,414.3,708.4,415.1,710.5,416.8z"/>
			<path class="st2" d="M726.2,400.9V433h-2.3V403H716v-2.1H726.2z"/>
		</g>
	</g>
</svg>
