<?xml version="1.0" encoding="utf-8"?>
<!-- Generator: Adobe Illustrator 18.0.0, SVG Export Plug-In . SVG Version: 6.00 Build 0)  -->
<!DOCTYPE svg PUBLIC "-//W3C//DTD SVG 1.1//EN" "http://www.w3.org/Graphics/SVG/1.1/DTD/svg11.dtd">
<svg version="1.1" id="Layer_1" xmlns="http://www.w3.org/2000/svg" xmlns:xlink="http://www.w3.org/1999/xlink" x="0px" y="0px"
	 viewBox="0 0 1219.6 739.2" style="enable-background:new 0 0 1219.6 739.2;" xml:space="preserve">
<style type="text/css">
	.st0{display:none;fill:#2C327B;}
	.st1{fill:#FFFFFF;}
</style>
<rect x="-248.3" y="-36.7" class="st0" width="1728" height="864"/>
<g>
	<g>
		<polygon class="st1" points="1211.5,628 10.3,628 10.3,232.3 468.4,232.3 468.4,238.8 17.7,238.8 17.7,621.5 1204.2,621.5 
			1204.2,238.8 748.7,238.8 748.7,232.3 1211.5,232.3 		"/>
		<path class="st1" d="M761.4,54.5l0,209.6c0,10.6,1,18.3,2.9,23.1c1.9,4.8,5.5,8.1,10.8,9.9c5.2,1.8,13.6,2.9,25.2,3.3v8.5
			c-15-0.8-35.3-1.2-60.8-1.3c-27.5,0-47.9,0.4-61.3,1.2l0-8.5c11.5-0.4,19.9-1.5,25-3.3c5.2-1.8,8.7-5.1,10.7-9.9
			c1.9-4.8,2.9-12.5,2.9-23.1l0-226.1L601.3,310.9h-7.7L487.1,36.7l-0.6,223c0,10.9-1,23.7,1.2,29.2c1.6,3.9,6,7.4,10.9,9.5
			c4.8,1.1,10.7,1.8,17.8,2v8.4c-3.7-0.3-7.9-0.5-12.6-0.7c0,0,0,0,0,0.1c-9.9-0.4-22-0.6-36.3-0.6c-9,0-17.1,0.1-24.2,0.3
			c-7.9,0.2-14.7,0.5-20.2,0.9v-8.4c8.4-0.3,15.1-1.2,20.2-2.6c1.7-0.5,3.2-1,4.5-1.6c5.4-2.4,9.1-6.4,11.1-11.9
			c2-5.5,3-13.7,3-24.6l0-205.3c0-10.6-1-18.3-2.9-23.1c-2-4.8-5.5-8.1-10.8-9.9c-5.2-1.8-13.6-2.9-25.2-3.3V9.6
			c10.4,0.8,25.3,1.2,44.5,1.3c16.8,0,30.5-0.4,41-1.2l105.3,245.1l103-243.8h22.7c25.6,0,45.9-0.4,60.9-1.2v8.5
			c-11.6,0.4-19.9,1.5-25.2,3.3c-5.2,1.8-8.8,5.1-10.8,9.9C762.4,36.2,761.4,43.9,761.4,54.5"/>
		<path class="st1" d="M158,468.8c-0.7-1.6-1.8-2.4-3.2-2.4c-1,0-2.4,0.5-4.1,1.5c-3.9,2.5-7.6,4.5-10.9,6
			c-3.3,1.6-7.1,2.8-11.4,3.8c-4.3,1-9.1,1.5-14.4,1.5c-12.6,0-23.6-2.5-33.1-7.5c-9.5-5-16.8-12.3-22-21.8
			c-5.2-9.5-7.8-20.9-7.8-34c0-12.9,2.7-24.3,8.1-34.2c5.4-9.9,12.8-17.6,22.4-23.1c9.6-5.5,20.5-8.2,32.7-8.2c7.9,0,14.6,1,20.2,3
			c5.6,2,11,4.8,16.3,8.4c1.4,1,2.7,1.5,3.9,1.5c2.7,0,4.4-3.5,5-10.4h4.6c-0.5,7.6-0.8,21-0.8,40.2h-4.6c-1-5.2-1.9-9.3-2.7-12.2
			c-0.8-2.9-1.8-5.4-2.9-7.4c-1.1-2-2.6-4.1-4.5-6.3c-4-4.6-9.1-8-15.2-10.3c-6.1-2.3-12.8-3.4-19.9-3.4c-8.6,0-16.1,2.5-22.6,7.5
			c-6.5,5-11.5,12.2-15,21.4c-3.6,9.3-5.3,20.2-5.3,32.6c0,12.7,1.9,23.6,5.8,32.7c3.9,9.1,9.2,16,16,20.8
			c6.8,4.7,14.5,7.1,23.1,7.1c6.6,0,13-1.1,19.3-3.3c6.3-2.2,11.1-5.5,14.6-10c2.7-3.2,4.7-6.6,5.8-10.4c1.2-3.7,2.3-9.5,3.4-17.3
			h4.6c0,20.1,0.3,34.1,0.8,42h-4.6C159.2,473.1,158.7,470.4,158,468.8"/>
		<path class="st1" d="M271.9,357.9c9.5,5,16.8,12.3,22,21.8c5.2,9.5,7.8,20.9,7.8,34c0,12.9-2.7,24.3-8.1,34.2
			c-5.4,9.9-12.8,17.6-22.4,23.1c-9.6,5.5-20.5,8.2-32.7,8.2c-12.6,0-23.6-2.5-33.1-7.5c-9.5-5-16.8-12.3-22-21.8
			c-5.2-9.5-7.8-20.9-7.8-34c0-12.9,2.7-24.3,8.1-34.2c5.4-9.9,12.8-17.6,22.4-23.1c9.6-5.5,20.5-8.2,32.7-8.2
			C251.4,350.4,262.4,352.9,271.9,357.9 M215.6,361.3c-6.5,5.2-11.4,12.5-14.9,21.8c-3.5,9.3-5.2,20-5.2,32c0,12.1,1.9,22.8,5.8,32
			c3.9,9.2,9.2,16.4,15.8,21.4c6.7,5,14.1,7.5,22.2,7.5c8.5,0,15.9-2.6,22.3-7.8c6.4-5.2,11.4-12.5,14.9-21.8c3.5-9.3,5.2-20,5.2-32
			c0-12.1-1.9-22.8-5.8-32c-3.9-9.2-9.1-16.3-15.8-21.4c-6.7-5-14.1-7.5-22.2-7.5C229.5,353.5,222.1,356.1,215.6,361.3"/>
		<path class="st1" d="M347.3,357.7c-2.2,0.7-3.7,2.1-4.5,4.1c-0.8,2-1.2,5.2-1.2,9.6l0,86.8c0,4.4,0.4,7.6,1.2,9.5
			c0.8,2,2.3,3.3,4.5,4c2.2,0.7,5.6,1,10.4,1l14.5,0c8.3,0,14.6-1,18.9-3.1c4.3-2,7.4-5.3,9.3-9.8c1.9-4.5,3.4-11.1,4.4-19.8l4.6,0
			c-0.4,3.6-0.6,8.4-0.6,14.4c0,6.6,0.4,14.1,1.4,22.4c-9-0.3-24.1-0.5-45.5-0.5c-25.4,0-44.6,0.2-57.6,0.5l0-3.5
			c4.8-0.2,8.3-0.6,10.4-1.4c2.2-0.7,3.7-2.1,4.5-4.1c0.8-2,1.2-5.2,1.2-9.6l0-86.8c0-4.4-0.4-7.6-1.2-9.6c-0.8-2-2.3-3.4-4.5-4.1
			c-2.2-0.7-5.6-1.2-10.4-1.4v-3.5c5.5,0.3,14,0.5,25.4,0.5c10.7,0,19.1-0.2,25.2-0.5l0,3.5C352.9,356.5,349.5,357,347.3,357.7"/>
		<path class="st1" d="M452.1,357.7c-2.2,0.7-3.7,2.1-4.5,4.1c-0.8,2-1.2,5.2-1.2,9.6l0,86.8c0,4.4,0.4,7.6,1.2,9.5
			c0.8,2,2.3,3.3,4.5,4c2.2,0.7,5.6,1,10.4,1l14.5,0c8.3,0,14.6-1,18.9-3.1c4.3-2,7.4-5.3,9.3-9.8c1.9-4.5,3.4-11.1,4.4-19.8h4.6
			c-0.4,3.6-0.6,8.4-0.6,14.4c0,6.6,0.4,14.1,1.4,22.4c-9-0.3-24.1-0.5-45.5-0.5c-25.4,0-44.6,0.2-57.6,0.5l0-3.5
			c4.8-0.2,8.3-0.6,10.4-1.4c2.2-0.7,3.7-2.1,4.5-4.1c0.8-2,1.2-5.2,1.2-9.6l0-86.8c0-4.4-0.4-7.6-1.2-9.6c-0.8-2-2.3-3.4-4.5-4.1
			c-2.2-0.7-5.6-1.2-10.4-1.4v-3.5c5.5,0.3,14,0.5,25.4,0.5c10.7,0,19.1-0.2,25.2-0.5l0,3.5C457.7,356.5,454.3,357,452.1,357.7"/>
		<path class="st1" d="M618.4,454.4c0,6.6,0.4,14.1,1.4,22.4c-9-0.3-24.1-0.5-45.5-0.5c-25.4,0-44.6,0.2-57.6,0.5l0-3.5
			c4.8-0.2,8.3-0.6,10.4-1.4c2.2-0.7,3.7-2.1,4.5-4.1c0.8-2,1.2-5.2,1.2-9.6l0-86.8c0-4.4-0.4-7.6-1.2-9.6c-0.8-2-2.3-3.4-4.5-4.1
			c-2.2-0.7-5.6-1.2-10.4-1.4v-3.5c13,0.3,32.2,0.5,57.6,0.5c19.4,0,33.3-0.2,41.5-0.5c-0.9,7.6-1.4,14.5-1.4,20.7
			c0,4.6,0.2,8.2,0.6,10.9h-4.6c-1-7.6-2.2-13.2-3.6-16.9c-1.5-3.7-3.9-6.4-7.4-8.1c-3.5-1.7-8.7-2.5-15.7-2.5l-16.5,0
			c-4.8,0-8.3,0.3-10.4,1c-2.2,0.7-3.7,2-4.5,4c-0.8,2-1.2,5.1-1.2,9.5l0,41.3l13.2,0c6.7,0,11.1-1.8,13.3-5.3
			c2.2-3.5,3.6-7.1,4.1-10.7c0.5-3.6,0.9-6,1.1-7.1l4.6,0c-0.5,5.8-0.7,11.2-0.7,16.5l0.1,8.4c0,5.9,0.4,14.2,1.2,24.9l-4.6,0
			c-0.1-0.8-0.5-3.6-1.1-8.5c-0.6-4.8-2.4-8.5-5.4-11c-3-2.5-7.1-3.7-12.5-3.7l-13.2,0l0,42c0,4.4,0.4,7.6,1.2,9.5
			c0.8,2,2.3,3.3,4.5,4c2.2,0.7,5.6,1,10.4,1l14.5,0c8.3,0,14.6-1,18.9-2.9c4.3-1.9,7.4-5,9.3-9.3c1.9-4.3,3.4-10.5,4.4-18.8l4.6,0
			C618.6,444.9,618.4,449.1,618.4,454.4"/>
		<path class="st1" d="M734.8,468.9c-0.7-1.6-1.8-2.4-3.2-2.4c-1,0-2.4,0.5-4.1,1.5c-3.9,2.4-7.6,4.5-10.9,6
			c-3.3,1.6-7.1,2.8-11.4,3.8c-4.3,1-9.1,1.5-14.4,1.5c-12.6,0-23.6-2.5-33.1-7.5c-9.5-5-16.8-12.3-22-21.8
			c-5.2-9.5-7.8-20.9-7.8-34c0-12.9,2.7-24.3,8.1-34.2c5.4-9.9,12.8-17.6,22.4-23.1c9.6-5.5,20.5-8.2,32.7-8.2c7.9,0,14.6,1,20.2,3
			c5.6,2,11,4.8,16.3,8.4c1.4,1,2.7,1.5,3.9,1.5c2.7,0,4.4-3.5,5-10.4h4.6c-0.5,7.6-0.8,21-0.8,40.2h-4.6c-1-5.2-1.9-9.3-2.7-12.2
			c-0.8-2.9-1.8-5.4-2.9-7.4c-1.1-2-2.6-4.1-4.5-6.3c-4-4.6-9.1-8-15.2-10.3c-6.1-2.3-12.8-3.4-19.9-3.4c-8.6,0-16.1,2.5-22.6,7.5
			c-6.5,5-11.5,12.2-15,21.4c-3.6,9.3-5.3,20.2-5.3,32.6c0,12.7,1.9,23.6,5.8,32.7c3.9,9.1,9.2,16,16,20.8
			c6.8,4.7,14.5,7.1,23.1,7.1c6.6,0,13-1.1,19.3-3.3c6.3-2.2,11.1-5.6,14.6-10c2.7-3.2,4.7-6.6,5.8-10.4c1.2-3.7,2.3-9.5,3.4-17.3
			h4.6c0,20.1,0.3,34.1,0.8,42h-4.6C736.1,473.2,735.6,470.5,734.8,468.9"/>
		<path class="st1" d="M749.2,375.3c0-6.8-0.5-14.3-1.5-22.4c11,0.3,29.7,0.5,56,0.5c26.2,0,44.7-0.2,55.7-0.5
			c-0.9,8.3-1.4,15.8-1.4,22.4c0,5.9,0.2,10.7,0.6,14.4l-4.6,0c-1-9.1-2.3-15.8-3.9-20.1c-1.6-4.4-4.4-7.5-8.3-9.6
			c-4-2-10.1-3-18.3-3l-10.8,0l0,99.5c0,4.8,0.5,8.4,1.5,10.6c1,2.3,2.9,3.8,5.6,4.7c2.7,0.9,7,1.4,12.9,1.5l0,3.5
			c-7-0.3-16.7-0.5-29.2-0.5c-13.2,0-23,0.2-29.4,0.5l0-3.5c5.9-0.2,10.2-0.7,12.9-1.5c2.7-0.9,4.6-2.4,5.6-4.7
			c1-2.2,1.6-5.8,1.6-10.6l0-99.5l-10.8,0c-8.2,0-14.3,1-18.3,3c-4,2-6.8,5.2-8.3,9.6c-1.6,4.4-2.9,11.1-3.9,20.1h-4.6
			C749,386,749.2,381.2,749.2,375.3"/>
		<path class="st1" d="M901.9,357.8c-2.2,0.7-3.7,2.1-4.5,4.1c-0.8,2-1.2,5.2-1.2,9.6l0,86.8c0,4.4,0.4,7.6,1.2,9.6
			c0.8,2,2.3,3.4,4.5,4.1c2.2,0.7,5.6,1.2,10.4,1.4l0,3.5c-6.1-0.3-14.5-0.5-25.2-0.5c-11.4,0-19.8,0.2-25.4,0.5l0-3.5
			c4.8-0.2,8.3-0.6,10.4-1.4c2.2-0.7,3.7-2.1,4.5-4.1c0.8-2,1.2-5.2,1.2-9.6l0-86.8c0-4.4-0.4-7.6-1.2-9.6c-0.8-2-2.3-3.4-4.5-4.1
			c-2.2-0.7-5.6-1.2-10.4-1.4v-3.5c5.5,0.3,14,0.5,25.4,0.5c10.7,0,19.1-0.2,25.2-0.5l0,3.5C907.5,356.6,904,357.1,901.9,357.8"/>
		<path class="st1" d="M1013.9,358c9.5,5,16.8,12.3,22,21.8c5.2,9.5,7.8,20.9,7.8,34c0,12.9-2.7,24.3-8.1,34.2
			c-5.4,9.9-12.8,17.6-22.4,23.1c-9.6,5.5-20.5,8.2-32.7,8.2c-12.6,0-23.6-2.5-33.1-7.5c-9.5-5-16.8-12.3-22-21.8
			c-5.2-9.5-7.8-20.9-7.8-34c0-12.9,2.7-24.3,8.1-34.2c5.4-9.9,12.8-17.6,22.4-23.1c9.6-5.5,20.5-8.2,32.7-8.2
			C993.4,350.5,1004.5,353,1013.9,358 M957.7,361.5c-6.5,5.2-11.4,12.5-14.9,21.8c-3.5,9.3-5.2,20-5.2,32c0,12.1,1.9,22.8,5.8,32
			c3.9,9.2,9.2,16.4,15.8,21.4c6.7,5,14.1,7.5,22.2,7.5c8.5,0,15.9-2.6,22.3-7.8c6.4-5.2,11.4-12.5,14.9-21.8c3.5-9.3,5.2-20,5.2-32
			c0-12.1-1.9-22.8-5.8-32c-3.9-9.2-9.1-16.3-15.8-21.4c-6.7-5-14.1-7.5-22.2-7.5C971.6,353.6,964.1,356.2,957.7,361.5"/>
		<path class="st1" d="M1163.6,358.2c-2.2,1-3.8,2.6-4.6,4.9c-0.8,2.3-1.3,5.7-1.3,10.2l0,104.4l-4.6,0l-83.3-113.6l0,92.4
			c0,4.5,0.4,7.9,1.4,10.2c0.9,2.3,2.6,3.9,5.1,4.9c2.5,1,6.3,1.6,11.6,1.8v3.5c-4.7-0.3-11.5-0.5-20.3-0.5c-7.9,0-14,0.2-18.4,0.5
			l0-3.5c4.6-0.2,8-0.8,10.2-1.7c2.2-1,3.8-2.6,4.6-4.9c0.8-2.3,1.3-5.7,1.3-10.2l0-85c0-4.4-0.4-7.6-1.2-9.6
			c-0.8-2-2.3-3.4-4.5-4.1c-2.2-0.7-5.6-1.2-10.4-1.4V353c4.3,0.3,10.5,0.5,18.4,0.5c5.9,0,11.1-0.2,15.5-0.5l70.1,95.2l0-74.8
			c0-4.5-0.4-7.9-1.3-10.2c-0.9-2.3-2.6-3.9-5.1-4.9c-2.5-1-6.4-1.6-11.6-1.8V353c4.7,0.3,11.5,0.5,20.3,0.5c7.9,0,14-0.2,18.4-0.5
			v3.5C1169.2,356.7,1165.8,357.2,1163.6,358.2"/>
		<path class="st1" d="M321.9,562.1c3.3,3,4.9,6.6,4.9,10.9c0,3.5-1,6.6-3.1,9.3c-2,2.7-5,4.8-8.8,6.4c-3.8,1.5-8.3,2.3-13.5,2.3
			c-1.4,0-3.9,0-7.4-0.1c-3.5-0.1-7.1-0.1-10.7-0.1c-5.8,0-10.1,0.1-13.1,0.3v-1.9c2.5-0.1,4.4-0.3,5.5-0.7c1.1-0.4,1.9-1.1,2.4-2.2
			c0.4-1.1,0.6-2.8,0.6-5.1l0-46.1c0-2.3-0.2-4-0.6-5.1c-0.4-1.1-1.2-1.8-2.4-2.2c-1.2-0.4-3-0.6-5.5-0.7v-1.9
			c2.9,0.2,7.2,0.3,12.9,0.3c2.7,0,5.8,0,9.1-0.1c3.3-0.1,5.6-0.1,6.8-0.1c4.8,0,8.9,0.6,12.2,1.8c3.3,1.2,5.8,2.9,7.5,5.1
			c1.7,2.2,2.5,4.7,2.5,7.6c0,3.6-1.3,6.8-3.8,9.6c-2.6,2.8-6.6,5-12.2,6.5v0.2C313.1,557.1,318.6,559.1,321.9,562.1 M289.3,586.1
			c0.4,1.1,1.2,1.8,2.3,2.2c1.1,0.4,2.8,0.6,5,0.6c13.1,0,19.7-5.4,19.7-16.3c0-4.9-1.5-8.6-4.5-11.1c-3-2.5-7.8-3.8-14.3-3.8
			l-8.8,0l0,23.5C288.7,583.4,288.9,585,289.3,586.1 M307.8,551.9c2.3-2.7,3.4-6.4,3.4-11c0-4.7-1.2-8.1-3.5-10.4
			c-2.3-2.3-6.1-3.4-11.3-3.4c-2.2,0-3.8,0.2-4.9,0.7c-1.1,0.4-1.9,1.2-2.3,2.3c-0.4,1.1-0.6,2.8-0.6,5l0,21l7.1,0
			C301.5,556.1,305.5,554.7,307.8,551.9"/>
		<path class="st1" d="M385.9,525.5c3.2,0,5.8-0.1,7.9-0.3l0,1.9c-1.4,0.3-2.8,1-4.1,2.3c-1.3,1.3-2.8,3.3-4.3,5.9l-16.5,28.9
			l0,16.9c0,2.3,0.2,4,0.6,5.1c0.4,1.1,1.2,1.8,2.4,2.2c1.1,0.4,3,0.6,5.5,0.7v1.9c-3.3-0.2-7.8-0.3-13.4-0.3
			c-6,0-10.5,0.1-13.5,0.3l0-1.9c2.5-0.1,4.4-0.3,5.5-0.7c1.1-0.4,1.9-1.1,2.4-2.2c0.4-1.1,0.6-2.8,0.6-5.1l0-14l-21.3-34.7
			c-1.3-2.1-2.4-3.5-3.4-4.2c-0.9-0.7-1.9-1-2.8-1v-2c2.7,0.2,5.8,0.3,9.3,0.3c6.8,0,11.7-0.1,14.8-0.3l0,1.9
			c-4.9,0-7.4,1.2-7.4,3.6c0,0.9,0.4,2,1.1,3.2l17.5,29.6l13.4-23.6c1.9-3.4,2.9-6.1,2.9-8c0-1.8-0.8-3-2.3-3.7
			c-1.5-0.7-3.9-1.1-7-1.2l0-1.9C377.8,525.4,381.8,525.5,385.9,525.5"/>
		<path class="st1" d="M502.9,527.8c-1.1,0.4-1.9,1.1-2.4,2.2c-0.4,1.1-0.6,2.8-0.6,5.1l0,46.1c0,2.3,0.2,4,0.6,5.1
			c0.4,1.1,1.2,1.8,2.4,2.2c1.1,0.4,3,0.6,5.5,0.7l0,1.9c-3.3-0.2-7.8-0.3-13.4-0.3c-6,0-10.5,0.1-13.5,0.3v-1.9
			c2.5-0.1,4.4-0.3,5.5-0.7c1.1-0.4,1.9-1.1,2.3-2.2c0.4-1.1,0.6-2.7,0.6-5.1l0-49.7l-25.4,60H463l-26.5-60.3l0,49
			c0,2.4,0.2,4.2,0.7,5.4c0.5,1.2,1.4,2.1,2.7,2.6c1.3,0.5,3.4,0.8,6.1,0.9l0,1.9c-2.5-0.2-6.1-0.3-10.8-0.3c-4.2,0-7.4,0.1-9.8,0.3
			l0-1.9c2.4-0.1,4.2-0.4,5.4-0.9c1.2-0.5,2-1.4,2.4-2.6c0.4-1.2,0.7-3,0.7-5.4l0-45.1c0-2.3-0.2-4-0.6-5.1
			c-0.4-1.1-1.2-1.8-2.4-2.2c-1.1-0.4-3-0.6-5.5-0.7v-1.9c2.3,0.2,5.6,0.3,9.8,0.3c3.7,0,6.7-0.1,9-0.3l23.1,53.9l22.6-53.6h5
			c5.6,0,10.1-0.1,13.4-0.3l0,1.9C505.9,527.2,504.1,527.4,502.9,527.8"/>
		<path class="st1" d="M582,589.2l0,1.9c-2.9-0.2-6.7-0.3-11.3-0.3c-6,0-10.5,0.1-13.5,0.3v-1.9c2.7-0.1,4.6-0.4,5.7-0.9
			c1.1-0.5,1.7-1.3,1.7-2.6c0-1.1-0.4-2.5-1.2-4.4l-6.5-15.2l-25.4,0l-4.3,9.8c-1.4,3.1-2.1,5.7-2.1,7.6c0,2,0.7,3.4,2.2,4.2
			c1.5,0.8,3.8,1.3,6.9,1.4l0,1.9c-4-0.2-8.1-0.3-12.1-0.3c-3.2,0-5.8,0.1-7.9,0.3l0-1.9c3.5-0.7,6.3-3.4,8.3-8.1l24.8-56.3h1.7
			l25.7,58.4C576.4,587.1,578.9,589,582,589.2 M544.4,536.5l-12.1,27.7l23.9,0L544.4,536.5z"/>
		<path class="st1" d="M651.1,527.9c-1.2,0.4-1.9,1.1-2.4,2.2c-0.4,1.1-0.6,2.8-0.6,5.1l0,46.1c0,2.3,0.2,4,0.6,5.1
			c0.4,1.1,1.2,1.8,2.4,2.2c1.1,0.4,3,0.6,5.5,0.7v1.9c-2.9-0.2-7.4-0.3-13.5-0.3c-5.6,0-10.1,0.1-13.4,0.3v-1.9
			c2.5-0.1,4.4-0.3,5.5-0.7c1.1-0.4,1.9-1.1,2.4-2.2c0.4-1.1,0.6-2.8,0.6-5.1l0-22.3l-34.3,0l0,22.3c0,2.3,0.2,4,0.6,5.1
			c0.4,1.1,1.2,1.8,2.4,2.2c1.1,0.4,3,0.6,5.5,0.7v1.9c-3.2-0.2-7.7-0.3-13.4-0.3c-6,0-10.5,0.1-13.5,0.3v-1.9
			c2.5-0.1,4.4-0.3,5.5-0.7c1.1-0.4,1.9-1.1,2.4-2.2c0.4-1.1,0.6-2.8,0.6-5.1l0-46.1c0-2.3-0.2-4-0.6-5.1c-0.4-1.1-1.2-1.8-2.4-2.2
			c-1.1-0.4-3-0.6-5.5-0.7v-1.9c2.9,0.2,7.4,0.3,13.5,0.3c5.7,0,10.2-0.1,13.4-0.3v1.9c-2.5,0.1-4.4,0.3-5.5,0.7
			c-1.1,0.4-1.9,1.1-2.4,2.2c-0.4,1.1-0.6,2.8-0.6,5.1l0,21.9l34.3,0l0-21.9c0-2.3-0.2-4-0.6-5.1c-0.4-1.1-1.2-1.8-2.4-2.2
			c-1.1-0.4-3-0.6-5.5-0.7v-1.9c3.3,0.2,7.8,0.3,13.4,0.3c6,0,10.5-0.1,13.5-0.3l0,1.9C654.1,527.2,652.3,527.5,651.1,527.9"/>
		<path class="st1" d="M730.2,589.2l0,1.9c-2.9-0.2-6.7-0.3-11.3-0.3c-6,0-10.5,0.1-13.5,0.3v-1.9c2.7-0.1,4.6-0.4,5.7-0.9
			c1.1-0.5,1.7-1.3,1.7-2.6c0-1.1-0.4-2.5-1.2-4.4l-6.5-15.2l-25.4,0l-4.3,9.8c-1.4,3.1-2.1,5.7-2.1,7.6c0,2,0.7,3.4,2.2,4.2
			c1.5,0.8,3.8,1.3,6.9,1.4l0,1.9c-4-0.2-8.1-0.3-12.1-0.3c-3.2,0-5.8,0.1-7.9,0.3l0-1.9c3.5-0.7,6.3-3.4,8.3-8.1l24.8-56.3h1.7
			l25.7,58.4C724.6,587.1,727.1,589.1,730.2,589.2 M692.6,536.6l-12.1,27.7l23.9,0L692.6,536.6z"/>
		<path class="st1" d="M792.7,587.4c-0.5-1.1-1.2-1.7-2-1.7c-0.4,0-0.9,0.1-1.3,0.3c-0.4,0.2-1.1,0.6-2.2,1.3
			c-2.5,1.7-5,2.9-7.6,3.8c-2.6,0.8-5.6,1.3-8.8,1.3c-7.2,0-13.4-1.3-18.6-3.9c-5.2-2.6-9.1-6.4-11.9-11.4c-2.7-5-4.1-10.9-4.1-17.7
			c0-7.1,1.5-13.3,4.4-18.7s6.9-9.4,12.1-12.3c5.1-2.9,11-4.3,17.5-4.3c2.8,0,5.4,0.3,7.6,0.8c2.2,0.5,4.1,1.2,5.8,2
			c1.6,0.8,3.5,1.9,5.6,3.2c0.9,0.6,1.6,1,2.1,1c1.3,0,2.2-1.9,2.6-5.7h2.4c-0.3,4-0.4,11.1-0.4,21.4h-2.4c-0.6-3.3-1.3-6.1-2-8.2
			c-0.7-2.1-1.8-4-3.3-5.6c-2.1-2.2-4.7-4-8-5.3c-3.3-1.3-6.7-2-10.2-2c-4.6,0-8.7,1.3-12.2,4c-3.5,2.7-6.2,6.4-8.1,11.4
			c-1.9,4.9-2.9,10.7-2.9,17.3c0,7.4,0.9,13.5,2.7,18.3c1.8,4.7,4.5,8.3,8.2,10.5c3.7,2.3,8.4,3.4,14.2,3.4c4.2,0,7.9-1,11-2.9
			c1.3-0.8,2.1-1.5,2.5-2.2c0.4-0.7,0.6-1.7,0.6-2.9l0-8.9c0-2.6-0.3-4.5-0.8-5.6c-0.5-1.2-1.5-2-3-2.4c-1.4-0.4-3.7-0.7-6.8-0.8
			v-1.9c3.5,0.2,8.4,0.3,14.9,0.3c4.9,0,8.6-0.1,11-0.3l0,1.9c-1.6,0.1-2.8,0.4-3.5,0.7c-0.7,0.4-1.2,1.1-1.4,2.1
			c-0.3,1-0.4,2.7-0.4,5.1l0,18.4h-2.1C793.5,589.8,793.3,588.6,792.7,587.4"/>
		<path class="st1" d="M870.3,528.1c-1.2,0.5-2,1.4-2.4,2.6c-0.4,1.2-0.6,3-0.6,5.4l0,27.9c0,4.4-0.3,8.3-1,11.4
			c-0.7,3.2-1.8,5.9-3.3,8.2c-1.8,2.7-4.4,4.8-7.8,6.3c-3.4,1.6-7.2,2.3-11.5,2.3c-7.7,0-13.6-1.7-17.7-5c-2.1-1.7-3.7-3.5-4.8-5.5
			c-1.1-1.9-1.9-4.2-2.3-7c-0.4-2.7-0.7-6.3-0.7-10.6l0-29.2c0-2.3-0.2-4-0.6-5.1s-1.2-1.8-2.4-2.2c-1.1-0.4-3-0.6-5.5-0.7l0-1.9
			c3,0.2,7.5,0.3,13.5,0.3c5.7,0,10.1-0.1,13.4-0.3v1.9c-2.5,0.1-4.4,0.3-5.5,0.7c-1.1,0.4-1.9,1.1-2.4,2.2
			c-0.4,1.1-0.6,2.8-0.6,5.1l0,30.7c0,5,0.4,9.1,1.1,12.3c0.8,3.3,2.3,5.9,4.8,7.9c2.4,2,6,3,10.7,3c7.4,0,12.7-2.1,15.7-6.3
			c3-4.2,4.5-10.1,4.5-17.7l0-29c0-2.3-0.3-4.1-0.9-5.3c-0.6-1.2-1.6-2.1-2.9-2.7c-1.4-0.5-3.3-0.9-5.7-1v-1.9
			c2.5,0.2,6.1,0.3,10.8,0.3c4.2,0,7.5-0.1,9.8-0.3v1.9C873.3,527.3,871.5,527.6,870.3,528.1"/>
		<path class="st1" d="M945.9,528.1c-1.2,0.5-2,1.4-2.4,2.6c-0.4,1.2-0.7,3-0.7,5.4l0,55.4h-2.4l-44.2-60.3l0,49
			c0,2.4,0.2,4.2,0.7,5.4c0.5,1.2,1.4,2.1,2.7,2.6c1.3,0.5,3.4,0.8,6.1,0.9l0,1.9c-2.5-0.2-6.1-0.3-10.8-0.3c-4.2,0-7.4,0.1-9.8,0.3
			l0-1.9c2.4-0.1,4.2-0.4,5.4-0.9c1.2-0.5,2-1.4,2.4-2.6c0.4-1.2,0.7-3,0.7-5.4l0-45.1c0-2.3-0.2-4-0.6-5.1
			c-0.4-1.1-1.2-1.8-2.4-2.2c-1.1-0.4-3-0.6-5.5-0.7l0-1.9c2.3,0.2,5.6,0.3,9.8,0.3c3.2,0,5.9-0.1,8.2-0.3l37.2,50.5l0-39.7
			c0-2.4-0.2-4.2-0.7-5.4c-0.5-1.2-1.4-2.1-2.7-2.6c-1.3-0.5-3.4-0.8-6.2-0.9v-1.9c2.5,0.2,6.1,0.3,10.8,0.3c4.2,0,7.4-0.1,9.8-0.3
			v1.9C948.9,527.3,947.1,527.6,945.9,528.1"/>
	</g>
	<g>
		<path class="st1" d="M22,666v51.3h26.9v10.2H10.3V666H22z"/>
		<path class="st1" d="M84.1,718c-1.9-3.2-2.9-6.8-2.9-10.8V666h11.7v40.8c0,3.5,0.9,6.2,2.8,8.2c1.8,1.9,4.4,2.9,7.6,2.9
			c3.2,0,5.7-1,7.6-2.9c1.9-1.9,2.8-4.6,2.8-8.2V666h11.8v41.2c0,4-1,7.6-2.9,10.8c-1.9,3.2-4.6,5.6-7.9,7.4
			c-3.4,1.8-7.1,2.6-11.4,2.6c-4.2,0-7.9-0.9-11.3-2.6C88.6,723.6,86,721.2,84.1,718z"/>
		<path class="st1" d="M157.4,666h13.8l10.9,20l10.7-20h13.3L188.7,695l19.4,32.4h-13.9l-12.4-22.7l-12.6,22.7H156l19.2-32
			L157.4,666z"/>
		<path class="st1" d="M241.5,718c-1.9-3.2-2.9-6.8-2.9-10.8V666h11.7v40.8c0,3.5,0.9,6.2,2.8,8.2c1.8,1.9,4.4,2.9,7.6,2.9
			c3.2,0,5.7-1,7.6-2.9c1.9-1.9,2.8-4.6,2.8-8.2V666h11.8v41.2c0,4-1,7.6-2.9,10.8c-1.9,3.2-4.6,5.6-7.9,7.4
			c-3.4,1.8-7.1,2.6-11.4,2.6c-4.2,0-7.9-0.9-11.3-2.6C246.1,723.6,243.4,721.2,241.5,718z"/>
		<path class="st1" d="M330,702.5v25h-11.7V666h23.3c6,0,10.8,1.6,14.3,4.9c3.6,3.3,5.3,7.8,5.3,13.4c0,4-0.9,7.5-2.8,10.2
			c-1.9,2.8-4.6,4.8-8.1,6.1l13.4,26.7h-13.5l-11.7-25H330z M341.1,692.8c2.7,0,4.9-0.7,6.4-2.2c1.5-1.5,2.3-3.5,2.3-6.3
			c0-2.5-0.8-4.5-2.3-6c-1.5-1.5-3.7-2.2-6.3-2.2H330v16.7H341.1z"/>
		<path class="st1" d="M421.5,727.5h-11.7v-25.2L391.9,666h12.7l11,25l11-25h12.8l-17.9,36.2V727.5z"/>
		<path class="st1" d="M527,702.5v25h-11.7V666h23.3c6,0,10.8,1.6,14.3,4.9c3.6,3.3,5.3,7.8,5.3,13.4c0,4-0.9,7.5-2.8,10.2
			c-1.9,2.8-4.6,4.8-8.1,6.1l13.4,26.7h-13.5l-11.7-25H527z M538,692.8c2.7,0,4.9-0.7,6.4-2.2c1.5-1.5,2.3-3.5,2.3-6.3
			c0-2.5-0.8-4.5-2.3-6c-1.5-1.5-3.7-2.2-6.3-2.2H527v16.7H538z"/>
		<path class="st1" d="M605.4,691.4h23.3v10.2h-23.3v15.8h27.4v10.2h-39V666h39v10.2h-27.4V691.4z"/>
		<path class="st1" d="M663,708.8h11.1c0.4,3.4,1.5,5.8,3.3,7.2c1.8,1.4,4.4,2.1,7.8,2.1c6.6,0,9.9-2.7,9.9-8.1c0-2.4-0.7-4.3-2-5.6
			c-1.3-1.3-3.4-2.2-6.2-2.6l-5.8-1c-11.1-1.8-16.7-7.5-16.7-17.1c0-5.7,1.9-10.2,5.7-13.5c3.8-3.3,8.8-5,15-5
			c6.1,0,10.9,1.6,14.4,4.8c3.5,3.2,5.5,7.7,6,13.5h-11.2c-0.2-3-1-5.1-2.6-6.5c-1.5-1.4-3.8-2.1-6.8-2.1c-3,0-5.3,0.7-6.9,2.1
			c-1.5,1.4-2.3,3.3-2.3,5.7c0,2.1,0.7,3.8,2.1,5.1c1.4,1.2,3.5,2.1,6.4,2.7l6.5,1.2c10.6,1.9,15.9,7.7,15.9,17.3
			c0,6.2-2,10.9-5.9,14.2c-4,3.3-9.3,4.9-16,4.9c-6.6,0-11.7-1.6-15.4-4.9C665.5,719.8,663.5,715,663,708.8z"/>
		<path class="st1" d="M752.1,666v61.5h-11.7V666H752.1z"/>
		<path class="st1" d="M809.7,666c6.8,0,12.2,1.9,16.2,5.7c4,3.8,5.9,10,5.9,18.7V703c0,8.7-2,14.9-6.1,18.8
			c-4,3.8-9.5,5.7-16.4,5.7h-21.3V666H809.7z M817.5,713.8c1.8-2.3,2.6-6,2.6-11V691c0-5.2-0.9-9-2.6-11.4c-1.7-2.3-4.4-3.5-7.9-3.5
			h-9.9v41.2h9.9C813.1,717.3,815.8,716.1,817.5,713.8z"/>
		<path class="st1" d="M878.2,691.4h23.3v10.2h-23.3v15.8h27.4v10.2h-39V666h39v10.2h-27.4V691.4z"/>
		<path class="st1" d="M984.8,727.5h-11.7l-22.6-38.4v38.4h-11.7V666h11.7l22.6,38.5V666h11.7V727.5z"/>
		<path class="st1" d="M1019.5,689.6c0-16.3,7.5-24.5,22.5-24.5c6.7,0,12.1,1.8,16,5.3c4,3.6,6,8.6,6,15.1v0.6h-11.7v-0.5
			c0-3.1-0.9-5.6-2.7-7.5c-1.8-1.8-4.4-2.8-7.7-2.8c-3.7,0-6.5,1.2-8.2,3.5c-1.7,2.3-2.5,6.1-2.5,11.4v13.3c0,5,0.9,8.6,2.6,10.9
			c1.8,2.3,4.5,3.4,8.2,3.4c3.3,0,5.9-0.9,7.6-2.7c1.8-1.8,2.6-4.2,2.6-7.3v-0.7h11.5v0.6c0,6.6-2,11.7-5.9,15.2
			c-3.9,3.5-9.3,5.3-16.1,5.3c-14.9,0-22.4-8.2-22.4-24.5V689.6z"/>
		<path class="st1" d="M1110.4,691.4h23.3v10.2h-23.3v15.8h27.4v10.2h-39V666h39v10.2h-27.4V691.4z"/>
		<path class="st1" d="M1168,708.8h11.1c0.4,3.4,1.5,5.8,3.3,7.2c1.8,1.4,4.4,2.1,7.8,2.1c6.6,0,9.9-2.7,9.9-8.1
			c0-2.4-0.7-4.3-2-5.6c-1.3-1.3-3.4-2.2-6.2-2.6l-5.8-1c-11.1-1.8-16.7-7.5-16.7-17.1c0-5.7,1.9-10.2,5.7-13.5c3.8-3.3,8.8-5,15-5
			c6.1,0,10.9,1.6,14.4,4.8c3.5,3.2,5.5,7.7,6,13.5h-11.2c-0.2-3-1-5.1-2.6-6.5c-1.5-1.4-3.8-2.1-6.8-2.1c-3,0-5.3,0.7-6.9,2.1
			c-1.5,1.4-2.3,3.3-2.3,5.7c0,2.1,0.7,3.8,2.1,5.1c1.4,1.2,3.5,2.1,6.4,2.7l6.5,1.2c10.6,1.9,15.9,7.7,15.9,17.3
			c0,6.2-2,10.9-5.9,14.2c-4,3.3-9.3,4.9-16,4.9c-6.6,0-11.7-1.6-15.4-4.9C1170.5,719.8,1168.5,715,1168,708.8z"/>
	</g>
</g>
</svg>
